/* XPM */
static char * gModuleWIC_1T_xpm[] = {
"159 41 35 1",
" 	c None",
".	c #121414",
"+	c #232828",
"@	c #465050",
"#	c #545C5C",
"$	c #636868",
"%	c #808080",
"&	c #727474",
"*	c #343C3C",
"=	c #606060",
"-	c #000000",
";	c #404040",
">	c #202020",
",	c #424444",
"'	c #323434",
")	c #909090",
"!	c #C0C0C0",
"~	c #464646",
"{	c #2C2C2C",
"]	c #424242",
"^	c #585858",
"/	c #303030",
"(	c #3C4444",
"_	c #424B4B",
":	c #3F4848",
"<	c #424C4C",
"[	c #3E4747",
"}	c #444E4E",
"|	c #3C4545",
"1	c #3A4242",
"2	c #3C4646",
"3	c #394141",
"4	c #404A4A",
"5	c #363E3E",
"6	c #454F4F",
".+++++++++++++++++++++++++++++++++++++++++++++++++++++++++++++++++++++++++++++++++++++++++++++++++++++++++++++++++++++++++++++++++++++++++++++++++++++++++++++.",
"+@@@@@@@@@@@@@@@@@@@@@@@@@@@@@@@@@@@@@@@@@@@@@@@@@@@@@@@@@@@@@@@@@@@@@@@@@@@@@@@@@@@@@@@@@@@@@@@@@@@@@@@@@@@@@@@@@@@@@@@@@@@@@@@@@@@@@@@@@@@@@@@@@@@@@@@@@@@@@+",
"+@@@@@@@@@@@@@@@@@@@@@@@@@@@@@@@@@@@@@@@@@@@@@@@@@@@@@@@@@@@@@@@@@@@@@@@@@@@@@@@@@@@@@@@@@@@@@@@@@@@@@@@@@@@@@@@@@@@@@@@@@@@@@@@@@@@@@@@@@@@@@@@@@@@@@@@@@@@@@+",
"+@@@#$%%%$#@@@@@@@@@@@@@@@@@@@@@@@@@@@@@@@@@@@@@@@@@@@@@@@@@@@@@@@@@@@@@@@@@@@@@@@@@@@@@@@@@@@@@@@@@@@@@@@@@@@@@@@@@@@@@@@@@@@@@@@@@@@@@@@@@@@@@@@@@#$%%%$#@@@+",
"+@#&%%%%%%%&@@@++++++++++++++@@@@@@@@@@@@@@@@@@@@@@@@@@@@@@@@@@@@@@@@@@@@@@@@@@@@@@@@@@@@@@@@@@@@@@@@@@@@@@@@@@@@@@@@@@@@@@@@@@@@@+++++++++++++*@@@&%%%%%%%&@@+",
"+#%%=%%%%%=%&@.--------------.@@@@@@@@@@@@@@@@@@@@@@@@@@@@@@@@@@@@@@@@@@@@@@@@@@@@@@@@@@@@@@@@@@@@@@@@@@@@@@@@@@@@@@@@@@@@@@@@@@@.--------------*@&%=%%%%%=%&@+",
"+&%;-=%%%>-=%$----------------@@@@@@@@@@@@@@@@@*,========================================================,*@@@@@@@@@@@@@@@@@@@@@@---------------.$%=->%%%>-=%$+",
"'%%%>->%>->%%%---------------.@@@@@@@@@@@@@@@@*)!)=~{{{{{{{{{{{{{{{{{{{{{{{{{{{{{{{{{{{{{{{{{{{{{{{{{{{=)!)+@@@@@@@@@@@@@@@@@@@@@---------------*%%%>->%>->%%%+",
";%%%%;---=%%%%*.------------.*@@@@@@@@@@@@@@@*)!=]^^^^^^^^^^^^^^^^^^^^^^^^^^^^^^^^^^^^^^^^^^^^^^^^^^^^^^]=!=@@@@@@@@@@@@@@@@@@@@@*.------------.#%%%%;---;%%%%+",
";%%%%=-->%%%%%@@@@@@@@@@@@@@@@@@@@@@@@@@@@@@@,!~^^^^--{{-{^--^--{{--^--{{--^--{--{{--^--{{--^--{{-{{--^^^^=!+@@@@@@@@@@@@@@@@@@@@@@@@@@@@@@@@@@@$%%%%=---=%%%%+",
"'%%%=->=--=%%%@@@@@@@@@@@@@@@@@@@@@@@@@@@@@@@=!{^^^^--{{-{^--^--{{--^--{{--^--{--{{--^--{{--^--{{-{{--^^^^{!=@@@@@@@@@@@@@@@@@@@@@@@@@@@@@@@@@@@@%%%=--;--=%%%+",
"+&%=-;%%%>-=%$@@++++++++++++@@@@@@@@@@@@@@@@@=!{^^^^^^^^^^^^^^^^^^^^^^^^^^^^^^^^^^^^^^^^^^^^^^^^^^^^^^^^^^^==@@@@@@@@@@@@@@@@@@@@@@++++++++++++@@$%=->%%%>-=%$+",
"+#%%=%%%%%=%&@*--------------*@@@@@@@@@@@@*+@+!~^^^^--{{-{^--^--{{--^--{{--^--{--{{--^--{{--^--{{-{{--^^^^])+@+@@@@@@@@@@@@@@@@@@*-------------.@@&%=%%%%%=%&@+",
"+@#&%%%%%%%&@@----------------@@@@@@@@@@@*==-+!=^^^^--{{-{^--^--{{--^--{{--^--{--{{--^--{{--^--{{-{{--^^^^{!.==/+@@@@@@@@@@@@@@@@---------------.@@&%%%%%%%&@@+",
"+@@@#$%%%$#@@@----------------@@@@@@@@@@@=/--,=!{^^^{{]]{]^{{^{{]]{{^{{]]{{^{{]{{]]{{^{{]]{{^{{]]{]]{{^^^^==+/--=@@@@@@@@@@@@@@@@---------------+@@@#$%%%$#@@@+",
"+@@@@@@@@@@@@@*.------------.*@@@@@@@@@@@,=-/+=!{^^^{{]]{]^{{^{{]]{{^{{]]{{^{{]{{]]{{^{{]]{{^{{]]{]]{{^^^])=+=-/=@@@@@@@@@@@@@@@@*.------------.@@@@@@@@@@@@@@+",
"+@@@@@@@@@@@@@@@+++++++++++*@@@@@@@@@@@@@@+=,@+!=^^^--{{-{^--^--{{--^--{{--^--{--{{--^--{{--^--{{-{{--^^^{!+@*=,*@@@@@*.-+@@@@@@@@@+++++++++++*@@@@@@@@@@@@@@@+",
"+@@@@@@@@@@@@@@@@@@@@@@@@@@@@@@@@@@@@@@@@@@@@@+!)]^^{{]]{]^{{^{{]]{{^{{]]{{^{{]{{]]{{^{{]]{{^{{]]{]]{{^^^~!+@@@@@@@@@.-----*@@@@@@@@@@@@@@@@@@@@@@@@@@@@@@@@@@+",
"+@@@@@@@@@@@@@@@@@@@@@@@@@@@@@@@@@@@@@@@@@@@@@@=!{^^{{]]{]^{{^{{]]{{^{{]]{{^{{]{{]]{{^{{]]{{^{{]]{]]{{^^^==@@@@@@@@@+------.@@@@@@@@@@@@@@@@@@@@@@@@@@@@@@@@@@+",
"+@@@@@@@@@@@@@*--------------*@@@@@@@@@@@@@@@@@=!=^^--{{-{^--^--{{--^--{{--^--{--{{--^--{{--^--{{-{{--^^{!=@@@@@@@@@+-------*@@@@*-------------.@@@@@@@@@@@@@@+",
"+@@@@@@@@@@@@@----------------@@@@@@@@@@@@@@@@@+!){^{{]]{]^{{^{{]]{{^{{]]{{^{{]{{]]{{^{{]]{{^{{]]{]]{{^{)!+@@@@@@@@@+-------@@@@@---------------+@@@@@@@@@@@@@+",
"+@@@@@@@@@@@@@----------------@@@@@@@@@@@@@@@@@@,!!={^^^^^^^^^^^^^^^^^^^^^^^^^^^^^^^^^^^^^^^^^^^^^^^^{=!!,@@@@@@@@@@@.-----*@@@@@---------------.@@@@@@@@@@@@@+",
"+@@@@@@@@@@@@@.--------------.@@@@@@@@@@@@@@@@@@@,)!!================================================!!),@@@@@@@@@@@@@+---*@@@@@@.--------------*@@@@@@@@@@@@@+",
"+@@@@@@@@@@@@@@*++++++++++++*@@@@@@@@@@@@@@@@@@@@@*+==================================================,*@@@@@@@@@@@@@@@@@@@@@@@@@@*++++++++++++*@@@@@@@@@@@@@@+",
"+@@@@@@@@@@@@@@@@@@@@@@@@@@@@@@@@@@@@@@@@@@@@@@@@@@@@@@@@@@@@@@@@@@@@@@@@@@@@@@@@@@@@@@@@@@@@@@@@@@@@@@@@@@@@@@@@@@@@@@@@@@@@@@@@@@@@@@@@@@@@@@@@@@@@@@@@@@@@@+",
"+@@@@@@@@@@@@@@@@@@@@@@@@@@@@@@@@@@@@@@@@@@@@@@@@@@@@@@@@@@@@@@@@@@@@@@@@@@@@@@@@@@@@@@@@@@@@@@@@@@@@@@@@@@@@@@@+*@@*+*@@*@*@*@*@@@@@@@@@@@@@@@@@@@@@@@@@@@@@@+",
"+@@@@@@@@@@@@@@@@@@@@@@@@@@@@@@@@@@@@@@@@@@@@@@@@@@@@@@@@@@@@@@@@@@@@@@@@@@@@@@@@@@@@@@@@@@@@@@@@@@@@@@@@@@@@@@+@*@@+@+@@-@+@+++@@@@@@@@@@@@@@@@@@@@@@@@@@@@@@+",
"+@@@@@@@@@@@@@@@@@@@@@@@@@@@@@@@@@@@@@@@@@@@@@@@@@@@@@@@@@@@@@@@@@@@@@@@@@@@@@@@@@@@@@@@@@@@@@@@@@@@@@@@@@@@@@@+@@@@+@+@@+++@+*.@@@@@@@@@@@@@@@(_:_<[}:|@:@@@@+",
"+@@@@@@@@@@@@@@@@@@@@@@@@@@@@@@@@@@@@@@@@@@@@@@@@@@@@@@@@@@@@@@@@@@@@@@@@@@@@@@@@@@@@@@@@@@@@@@@@@@@@@@@@@@@@@@*++@@+++@@+*+@+@.@@@@@@@@@@@@@@@1(2343}*565}@@@+",
"+@@@@@@@@@@@@@@@@@@@@@@@@@@@@@@@@@@@@@@@@@@@@@@@@@@@@@@@@@@@@@@@@@@@@@@@@@@@@@@@@@@@@@@@@@@@@@@@@@@@@@@@@@@@@@@@@@@@@@@@@@@@@@@@@@@@@@@@@@@@@@@@@@@@@@@@@@@@@@+",
"+@@@@@@@@@@@@@@@@@@@@@@@@@@@@@@@@@@@@@@@@@@@@@@@@@@@@@@@@@@@@@@@@@@@@@@@@@@@@@@@@@@@@@@@@@@@@@@@@@@@@@@@@@@@@@@@@@@@@@@@@@@@@@@@@@@@@@@@@@@@@@@@@@@@@@@@@@@@@@+",
"+@@@@@@@@@@@@@@@@@@@@@@@@@@@@@@@@@@@@@@@@@@@@@@@@@@@@@@@@@@@@@@@@@@@@@@@@@@@@@@@@@@@@@@@@@@@@@@@@@@@@@@@@@@@@@@@@@@@@@@@@@@@@@@@@@@@@@@@@@@@@@@@@@@@@@@@@@@@@@+",
"+@@@@@@@@@@@@@@@@@@@@@@@@@@@@@@@@@@@@@.---------.@@@*---------.@@@@.---------*@@@.---------.@@@*----------*@@@.---------.@@@@@@@@@@@@@@@@@@@@@@@@@@@@@@@@@@@@@+",
"+@@@@@@@@@@@*+++*@@@@@@@@@@@++@@@@@@@+-----------+@*-----------+@@.-----------@@+-----------+@@------------@@+-----------+@@@@@@*++++@@@@@@@@@@@*+*@@@@@@@@@@@+",
"+@@@@@@@@@@@+@@@.+++++++++++++@@@@@@@+-----------+@*-----------.@@.-----------*@+-----------+@@------------@@+-----------+@@@@@@+@@@++++++++++++.@+@@@@@@@@@@@+",
"+@@@@@@@@@@@+@@@@@@@@@@@@@@@@+@@@@@@@*-----------@@@.----------@@@*----------+@@*-----------@@@.----------+@@*-----------@@@@@@@+@@@@@@@@@@@@@@@@@+@@@@@@@@@@@+",
"+@@@@@@@@@@@+@@@@@@@@@@@@@@@@+@@@@@@@@@*+++++++@@@@@@@+++++++*@@@@@@*+++++++@@@@@@@+++++++*@@@@@@*+++++++@@@@@@*+++++++@@@@@@@@@+@@@@@@@@@@@@@@@@@+@@@@@@@@@@@+",
"+@@@@@@@@@@@+@@@@@@@@@@@@@@@@+@@@@@@@@@@@@@@@@@@@@@@@@@@@@@@@@@@@@@@@@@@@@@@@@@@@@@@@@@@@@@@@@@@@@@@@@@@@@@@@@@@@@@@@@@@@@@@@@@@+@@@@@@@@@@@@@@@@@+@@@@@@@@@@@+",
"+@@@@@@@@@@@+@@@@@@@@@@@@@@@@+@@@@@@@@@@@@@@@@@@@@@@@@@@@@@@@@@@@@@@@@@@@@@@@@@@@@@@@@@@@@@@@@@@@@@@@@@@@@@@@@@@@@@@@@@@@@@@@@@@+@@@@@@@@@@@@@@@@@+@@@@@@@@@@@+",
"+@@@@@@@@@@@+@@@@@@@@@@@@@@@@+@@@@@@@@@@@@@@@@@@@@@@@@@@@@@@@@@@@@@@@@@@@@@@@@@@@@@@@@@@@@@@@@@@@@@@@@@@@@@@@@@@@@@@@@@@@@@@@@@@+@@@@@@@@@@@@@@@@@+@@@@@@@@@@@+",
".+++++++++++.++++++++++++++++.++++++++++++++++++++++++++++++++++++++++++++++++++++++++++++++++++++++++++++++++++++++++++++++++++.+++++++++++++++++.+++++++++++."};
