/* XPM */
static char * gModuleWIC_2AS_xpm[] = {
"159 41 37 1",
" 	c None",
".	c #121414",
"+	c #232828",
"@	c #465050",
"#	c #454E4E",
"$	c #444C4C",
"%	c #414949",
"&	c #424B4B",
"*	c #636868",
"=	c #727474",
"-	c #808080",
";	c #545C5C",
">	c #A0A4A4",
",	c #707676",
"'	c #343C3C",
")	c #000000",
"!	c #9C9C9C",
"~	c #808282",
"{	c #3C3E3E",
"]	c #545454",
"^	c #606060",
"/	c #404040",
"(	c #AAAAAA",
"_	c #B8B8B8",
":	c #2A2A2A",
"<	c #D0D2D2",
"[	c #202020",
"}	c #8A8A8A",
"|	c #5C5C5C",
"1	c #FFFFFF",
"2	c #7C7C7C",
"3	c #2E2E2E",
"4	c #BFBFBF",
"5	c #6A6A6A",
"6	c #434848",
"7	c #606262",
"8	c #4E4E4E",
".+++++++++++++++++++++++++++++++++++++++++++++++++++++++++++++++++++++++++++++++++++++++++++++++++++++++++++++++++++++++++++++++++++++++++++++++++++++++++++++.",
"+@@@@@@@@@@@@@@@@@@@@@@@@@@@@@@@@@@@@@@@@@@@@@@@@@@@@@@@@@@@@@@@@@@@@@@@@@@@@@@@@@@@@@@@@@@@@@@@@@@@@@@@@@@@#$$$$$$$$$$$$$$$$$$$$$$$$$$$@@@@@@@@@@@@@@@@@@@@@@+",
"+@@@@@@@@@@@@@@@@@@@@@@@@@@@@@@@@@@@@@@@@@@@@@@@@@@@@@@@@@@@@@@@@@@@@@@@@@@@@@@@@@@@@@@@@@@@@@@@@@@@@@@@@@@$%%%%%%%%%%%%%%%%%%%%%%%%%%%%&#@@@@@@@@@@@@@@@@@@@@+",
"+@@@*=--=;@@@@@@@@@@@@@@@@@@@@@@@@@@@@@@@@@@@@@@@@@@@@@@@@@@@@@@@@@@@@@@@@@@@@@@@@@@@@@@@@@@@@@@@@@@@@@@@@&%%%>>%>>,%>>,%,%%,%,%%%%%>,%%%%@@@@@@@@@@@*=--=;@@@+",
"+@@=------=@@@@')))))))))))'@@@@@@@@@@@@@@@@@@@@@@@@@@@@@;*!~;@@@@@@'{]]]]]]]]]]]]]]]]]]]{'@@@@@@*~!*@@@@@%%%>%%,>%%%>%>%>%>>%>%%%%>%>%%%%$@@@@@@@@@=------=@@+",
"+@=-^----/-=@@')))))))))))))'@@@@@@@@@@@@@@@@@@@@@@@@@@@~(___(!;@@@@:---------------------.@@@@;!____!~@@@%%%%>>%<>,%<<,%>%>,,>%%%%>%>%%%%$@@@@@@@@=-^----/-=@+",
"+*-^)^--[)^-*@+)))))))))))))+@@@@@@@@@@@@@@@@@@@@@@@@@@~}}}|}_|~@@@+]11-----1)1)1)1-----11)@@@;(|_||_}2;@@%%%,%%>>%%%>%>%>,>>>>%%%%>%>%%%%$@@@@@@@*-^)^--[)^-*+",
"+---^)^[)^---@')))))))))))))'@@@@@@@@@@@@@@@@@@@@@@@@@;(_|)))|_(;@@+]11-----1)1)1)1-----11)@@@~__)))3}_~@@&%%%>>%>>,%,%,%,,%%,,>>%%%>,%%%%@@@@@@@@---^)^[)^--*+",
"+----^))^----@@'.))))))))).'@@@@@@@@@@@@@@@@@@@@@@@@@@*__)))))__*@@@:4-/////-)-)-)-/////4-+@@@!_}))))|_!@@@#%%%%%%%%%%%%%%%%%%%%%%%%%%%%&@@@@@@@@@----^))^---=+",
"+----^))^----@@@@@@@@@@@@@@@@@@@@@@@@@@@@@@@@@@@@++++@*__)))))}_*@@@]-))))))))))))))))))-5+@@@!_|))))3__*@@@@$$$$$$$$$$$$$$$$$$$$$$$$$$#@@@@@@@@@@----^))^---=+",
"+---^)^[)^---@@@@@@@@@@@@@@@@@@@@@@@@@@@@@@@@@@@@+@@@@*__))))3__*@@@+--/////-)-)-)-/////4)@@@@!_}))))}_!@@@@@@@@@@@@@@@@@@@@@@@@@@@@@@@@@@@@@@@@@@---^)^[)^--*+",
"+*-^)^--[)^-*@@@+++++++++++@@@@@@@@@@@@@@@@@@@@@@+@@@@;(_|3))|}!@@@@+]1-----1)1)1)1-----4:@@@@~_}|))3|_*@@@@@@@@@@@@@@@@@@@@@@@@@@@@@@@@@@@@@@@@@@*-^)^--[)^-*+",
"+@=-^----^-=@@@.))))))))))).@@@@@@@@@@@@@@@@@@@@@+@@@@@;|_____}6@@@@@)1444441-1-1-1444445+@@@@@7}_____8@@@@@@@@@@@@@@@@@@@@@@@@@@@@@@@@@@@@@@@@@@@@=-^----^-=@+",
"+@@=------=@@@+)))))))))))))+@@@@@@@@@@@@@@@@@@@@+@@@@@@;!___(~@@@@@@':----------------5]'@@@@@@~(___!;@@@@@@@@@@@@@@@@@@@@@@@@@@@@@@@@@@@@@@@@@@@@@=------=@@+",
"+@@@;=--*;@@@@+)))))))))))))+@@@@@@@@@@@@@@@@@@@@+@@@@@@@@***;@@@@@@@@'+++++++++++++++++'@@@@@@@@;***@@@@@@@@@@@@@@@@@@@@@@@@@@@@@@@@@@@@@@@@@@@@@@@@;=--*;@@@+",
"+@@@@@@@@@@@@@')))))))))))))@@@@@@@@@@@@@@@@@@@@@+@@@@@@@@@@@@@@@@@@@@@@@@@@@@@@@@@@@@@@@@@@@@@@@@@@@@@@@@@@$$$$$$$$$$$$$$$$$$$$$$$$$$$$#@@@@@@@@@@@@@@@@@@@@@+",
"+@@@@@@@@@@@@@@@'+++++++++'@@@@@@@@@@@@@@@@@@@@@@+@@@@@@@@@@@@@@@@@@@@@@@@@@@@@@@@@@@@@@@@@@@@@@@@@@@@@@@@#%%%%%%%%%%%%%%%%%%%%%%%%%%%%%%&@@@@@@@@@@@@@@@@@@@@+",
"+@@@@@@@@@@@@@@@@@@@@@@@@@@@@@@@@@@@@@@@@@@@@@@@@+@@@@@@@@@@@@@@@@@@@@@@@@@@@@@@@@@@@@@@@@@@@@@@@@@@@@@@@@%%%,>>,<>,%<>>%>%,>%>%%%%%<%%%%%#@@@@@@@@@@@@@@@@@@@+",
"+@@@@@@@@@@@@@@@@@@@@@@@@@@@@@@@@@@@@@@@@@@@@@@@@+@@@@@@@~!!!~;@@@@@':)))))))))))))))))))]'@@@@@;!!!!*@@@@%%%,>%%<>,%<>>%>%>>%>%%%%,>%%%%%$@@@@@@@@@@@@@@@@@@@+",
"+@@@@@@@@@@@@@@')))))))))))'@@@@@@@@@@@@@@@@@@@@@+@@@@@@~_____(;@@@']41111111111111111111-:@@@@;(_____~@@@%%%%%>,>%%%>,,%>%<>>>%%%%%>%%%%%$@@@@+@+'@++@'++@@@@+",
"+@@@@@@@@@@@@@')))))))))))))'@@@@@@@@@@@@@@@@@@@@+@@@@@~}}}||_|~@@@+]11-----1)1)1)1-----11)@@@;(|_||}}2;@@%%%,>>,<>,%>%>%>>%%>>>>%%%>%%%%%$@@@@+@+++@+@+@@@@@@+",
"+@@@@@@@@@@@@@+)))))))))))))+@@@@@@@@@@@@@@@@@@@@+@@@@*__3)))3_(;@@':11-----1)1)1)1-----14.@@@!__))))}_~@@&%%%%%%%%%%%%%%%%%%%%%%%%%%%%%%%@@@@@++@++@+@+@@@@@@+",
"+@@@@@@@@@@@@@')))))))))))))'@@@@@@@@@@@@@@@@@@@@+@@@@*__)))))__*@@@]--/////-)-)-)-/////4-+@@@!_|))))|_(;@@#%%%%%%%%%%%%%%%%%%%%%%%%%%%%&@@@@@@@+@@+@+@'++@@@@+",
"+@@@@@@@@@@@@@@'.))))))))).'@@@@@@@@@@@@@@@@@@@@@+@@@@*__)))))}_*@@@{-))))))))))))))))))-/'@@@!_|))))3_(;'++++@@@@@@@@@@@@@@@@@@@@@@@@@@@@@@@@@@@@@@@@@@@@@@@@+",
"+@@@@@@@@@@@@@@@@@@@@@@@@@@@@@@@@@@@@@@@@@@@@@@@@+@@@@*__3)))3__*@@@+-1-----1)1)1)1-----1)@@@@!__))))}_!@@@@@+@@@@@@@@@@@@@@@@@@@@@@@@@@@@@@@@'++@@+'@++++@@@@+",
"+@@@@@@@@@@@@@@@@@@@@@@@@@@@@@@@@@@@@@@@@@@@@@@@@+@@@@@!_||3|}}!@@@@':1-----1)1)1)1-----4.@@@@*_}||3}|_*@@@@@+@@@@@@@@@@@@@@@@@@@@@@@@@@@@@@@@@@+@@++@++'@@@@@+",
"+@@@@@@@@@@@@@@@@@@@@@@@@@@@@@@@@@@@@@@@@@@@@@@@@+@@@@@;8_____26@@@@@:4444441-1-1-1444445+@@@@@72_____/@@@@@@+@@@@@@@@@@@@@@@@@@@@@@@@@@@@@@@@@''@++.@+@'+@@@@+",
"+@@@@@@@@@@@@@@@@@@@@@@@@@@@@@@@++++++++++++@@@@@+@@@@@@@*!!!~;@@@@@@':)))))))))))))))))]'@@@@@@;~!!!*@@@@@@@+@@@@@++++++++++++@@@@@@@@@@@@@@@'.+@+@@)@+++@@@@+",
"+@@@@@@@@@@@'++@'++@+'@++'@+@@@.)))))))))))).@@@@+@@@@@@@@@@@@@@@@@@@@@@@@@@@@@@@@@@@@@@@@@@@@@@@@@@@@@@@@@@@+@@@@.)))))))))))).@@@@@@@@@@@@@@@@@@@@@@@@@@@@@@+",
"+@@@@@@@@@@@+@@@+@@+++@+++@+@@+))))))))))))))@@++.@@@@@@@@@@@@@@@@@@@@@@@@@@@@@@@@@@@@@@@@@@@@@@@@@@@@@@@@@@@.++@@))))))))))))))@@@@@@@@@@@@@@@@@@@@@@@@@@@@@@+",
"+@@@@@@@@@@@+@@@+@@++@+++@++@@@))))))))))))).@@@@@@@@@@@@@@@@@@@@@@@@@@@@@@@@@@@@@@@@@@@@@@@@@@@@@@@@@@@@@@@@@@@@@))))))))))))).@@@@@@@@@@@@@@@@@@@@@@@@@@@@@@+",
"+@@@@@@@@@@@'++@'++@+@'++@'+@@@'.))))))))))+'@@@@@@@@@@@@@@@@@@@@@@@@@@@@@@@@@@@@@@@@@@@@@@@@@@@@@@@@@@@@@@@@@@@@@'+))))))))))+'@@@@@@@@@@@@@@@@@@@@@@@@@@@@@@+",
"+@@@@@@@@@@@@@@@@@@@@@@@@@@@@@@@@@@@@@@@@@@@@@@@@@@@@@@@@@@@@@@@@@@@@@@@@@@@@@@@@@@@@@@@@@@@@@@@@@@@@@@@@@@@@@@@@@@@@@@@@@@@@@@@@@@@@@@@@@@@@@@@@@@@@@@@@@@@@@+",
"+@@@@@@@@@@@@@@@@@@@@@@@@@@@@@@@@@@@@@@@@@@@@@@@@@@@@@@@@@@@@@@@@@@@@@@@@@@@@@@@@@@@@@@@@@@@@@@@@@@@@@@@@@@@@@@'++@'++@.@+@+'@+@@@@@@@@@@@@@@@@@@@@@@@@@@@@@@@+",
"+@@@@@@@@@@@@.+++@@@@@@@@@+++@@@@@@@@@@@@@@@@@@@@@@@@@@@@@@@@@@@@@@@@@@@@@@@@@@@@@@@@@@@@@@@@@@@@@@@@@@@@@@@@@@+@@@+@@++++@++@+@@@.++.@@@@@@@@@@..@@@@@@@@@@@@+",
"+@@@@@@@@@@@@+@@+++++++++++@+@@@@@@@@@@@@@@@@@@@@@@@@@@@@@@@@@@@@@@@@@@@@@@@@@@@@@@@@@@@@@@@@@@@@@@@@@@@@@@@@@@+@@@+@@++++@+@++@@@+@@'++++++++++'+@@@@@@@@@@@@+",
"+@@@@@@@@@@@@+@@@@@@@@@@@@@@+@@@@@@@@@@@@@@@@@@@@@@@@@@@@@@@@@@@@@@@@@@@@@@@@@@@@@@@@@@@@@@@@@@@@@@@@@@@@@@@@@@'++@'++@+@.@+@'+@@@+@@@@@@@@@@@@@@+@@@@@@@@@@@@+",
"+@@@@@@@@@@@@+@@@@@@@@@@@@@@+@@@@@@@@@@@@@@@@@@@@@@@@@@@@@@@@@@@@@@@@@@@@@@@@@@@@@@@@@@@@@@@@@@@@@@@@@@@@@@@@@@@@@@@@@@@@@@@@@@@@@+@@@@@@@@@@@@@@+@@@@@@@@@@@@+",
"+@@@@@@@@@@@@+@@@@@@@@@@@@@@+@@@@@@@@@@@@@@@@@@@@@@@@@@@@@@@@@@@@@@@@@@@@@@@@@@@@@@@@@@@@@@@@@@@@@@@@@@@@@@@@@@@@@@@@@@@@@@@@@@@@@+@@@@@@@@@@@@@@+@@@@@@@@@@@@+",
"+@@@@@@@@@@@@+@@@@@@@@@@@@@@+@@@@@@@@@@@@@@@@@@@@@@@@@@@@@@@@@@@@@@@@@@@@@@@@@@@@@@@@@@@@@@@@@@@@@@@@@@@@@@@@@@@@@@@@@@@@@@@@@@@@@+@@@@@@@@@@@@@@+@@@@@@@@@@@@+",
"+@@@@@@@@@@@@+@@@@@@@@@@@@@@+@@@@@@@@@@@@@@@@@@@@@@@@@@@@@@@@@@@@@@@@@@@@@@@@@@@@@@@@@@@@@@@@@@@@@@@@@@@@@@@@@@@@@@@@@@@@@@@@@@@@@+@@@@@@@@@@@@@@+@@@@@@@@@@@@+"};
