/* XPM */
static char * Copy of gPTSwitchNM_1CE_xpm[] = {
"55 67 447 2",
"  	c None",
". 	c #626262",
"+ 	c #7F8080",
"@ 	c #818282",
"# 	c #7C7D7D",
"$ 	c #757576",
"% 	c #B3B5B5",
"& 	c #C0C1C1",
"* 	c #C0C1C2",
"= 	c #C1C2C2",
"- 	c #C1C2C3",
"; 	c #C2C3C3",
"> 	c #C2C3C4",
", 	c #C3C4C4",
"' 	c #C3C4C5",
") 	c #A9ABAC",
"! 	c #767676",
"~ 	c #9C9D9D",
"{ 	c #D9D8D7",
"] 	c #DAD8D8",
"^ 	c #DBD9D9",
"/ 	c #DBDADA",
"( 	c #DBDBDA",
"_ 	c #DCDBDB",
": 	c #DDDCDC",
"< 	c #DEDDDD",
"[ 	c #DFDEDE",
"} 	c #E0DEDF",
"| 	c #E1E0E0",
"1 	c #E2E1E1",
"2 	c #E2E1E2",
"3 	c #E3E2E3",
"4 	c #E4E3E4",
"5 	c #E5E4E4",
"6 	c #E6E5E5",
"7 	c #E1E1E1",
"8 	c #B0B1B2",
"9 	c #939394",
"0 	c #DAD9D8",
"a 	c #DCDBDA",
"b 	c #DFDFDF",
"c 	c #E1DFDF",
"d 	c #E2E0E0",
"e 	c #E3E1E2",
"f 	c #E4E3E3",
"g 	c #E5E4E5",
"h 	c #E7E6E6",
"i 	c #E3E2E2",
"j 	c #939393",
"k 	c #D7D6D5",
"l 	c #A3A2A2",
"m 	c #4A4948",
"n 	c #494746",
"o 	c #484746",
"p 	c #484646",
"q 	c #474646",
"r 	c #474645",
"s 	c #464545",
"t 	c #454444",
"u 	c #444444",
"v 	c #444343",
"w 	c #434342",
"x 	c #434242",
"y 	c #424141",
"z 	c #414141",
"A 	c #404040",
"B 	c #403F3F",
"C 	c #3F3E3E",
"D 	c #3E3D3D",
"E 	c #686767",
"F 	c #D6D5D4",
"G 	c #9A9999",
"H 	c #2D2C2B",
"I 	c #292826",
"J 	c #292725",
"K 	c #282724",
"L 	c #272623",
"M 	c #262523",
"N 	c #252422",
"O 	c #242221",
"P 	c #222120",
"Q 	c #20201F",
"R 	c #1E1E1D",
"S 	c #1D1D1C",
"T 	c #1B1B1A",
"U 	c #191918",
"V 	c #171716",
"W 	c #161514",
"X 	c #131312",
"Y 	c #111111",
"Z 	c #0F0F0F",
"` 	c #0D0D0D",
" .	c #0A0A0A",
"..	c #4D4C4C",
"+.	c #757676",
"@.	c #929293",
"#.	c #D5D4D4",
"$.	c #9A9998",
"%.	c #2F2D2B",
"&.	c #2B2A27",
"*.	c #2A2927",
"=.	c #282725",
"-.	c #272624",
";.	c #272523",
">.	c #262422",
",.	c #242321",
"'.	c #232221",
").	c #212120",
"!.	c #1F1F1F",
"~.	c #1C1C1B",
"{.	c #1A1A19",
"].	c #191817",
"^.	c #171616",
"/.	c #151414",
"(.	c #121212",
"_.	c #101010",
":.	c #0E0F0E",
"<.	c #4E4E4E",
"[.	c #727272",
"}.	c #D4D3D2",
"|.	c #999898",
"1.	c #2C2A28",
"2.	c #2B2A28",
"3.	c #2A2926",
"4.	c #292825",
"5.	c #3A3628",
"6.	c #45402A",
"7.	c #4B442A",
"8.	c #2F2C24",
"9.	c #2B2922",
"0.	c #3F3B27",
"a.	c #1F1F1E",
"b.	c #343122",
"c.	c #2D2A1E",
"d.	c #1A1918",
"e.	c #181717",
"f.	c #161615",
"g.	c #131413",
"h.	c #111211",
"i.	c #4F4F4F",
"j.	c #929292",
"k.	c #D3D2D1",
"l.	c #999897",
"m.	c #2F2E2C",
"n.	c #4B452C",
"o.	c #615830",
"p.	c #6F6332",
"q.	c #3B3627",
"r.	c #353125",
"s.	c #5E552D",
"t.	c #4C4628",
"u.	c #403B25",
"v.	c #1D1C1B",
"w.	c #1B1B19",
"x.	c #151514",
"y.	c #505050",
"z.	c #D2D1D0",
"A.	c #989796",
"B.	c #2F2E2D",
"C.	c #2C2B29",
"D.	c #2C2A29",
"E.	c #47412B",
"F.	c #59512D",
"G.	c #645A2E",
"H.	c #393527",
"I.	c #343125",
"J.	c #564E2B",
"K.	c #474127",
"L.	c #3D3825",
"M.	c #1E1D1C",
"N.	c #1C1C1A",
"O.	c #181817",
"P.	c #515050",
"Q.	c #E6E5E6",
"R.	c #E2E2E2",
"S.	c #919192",
"T.	c #D1D0CF",
"U.	c #979796",
"V.	c #2C2B2A",
"W.	c #433E2A",
"X.	c #524B2B",
"Y.	c #5B522C",
"Z.	c #373327",
"`.	c #333026",
" +	c #504829",
".+	c #433E26",
"++	c #3B3625",
"@+	c #525151",
"#+	c #D0CFCF",
"$+	c #979695",
"%+	c #2E2E2C",
"&+	c #2B2B2A",
"*+	c #3D392A",
"=+	c #49432B",
"-+	c #4F482B",
";+	c #343128",
">+	c #322F26",
",+	c #464028",
"'+	c #3D3826",
")+	c #373325",
"!+	c #535252",
"~+	c #E1E0E1",
"{+	c #919191",
"]+	c #CFCECD",
"^+	c #969594",
"/+	c #2E2D2C",
"(+	c #2B2B29",
"_+	c #2D2C29",
":+	c #2E2C29",
"<+	c #2E2C28",
"[+	c #2B2A26",
"}+	c #292824",
"|+	c #535352",
"1+	c #E0DFDF",
"2+	c #B0B1B1",
"3+	c #909091",
"4+	c #CDCCCB",
"5+	c #959494",
"6+	c #2D2C2C",
"7+	c #2A2A29",
"8+	c #2B2A29",
"9+	c #252322",
"0+	c #545353",
"a+	c #E2E1E0",
"b+	c #AFB0B1",
"c+	c #CCCCCB",
"d+	c #949493",
"e+	c #292929",
"f+	c #2A2928",
"g+	c #2A2826",
"h+	c #DEDCDD",
"i+	c #8F9090",
"j+	c #CBCBCA",
"k+	c #949393",
"l+	c #2A2929",
"m+	c #555453",
"n+	c #DCDBDC",
"o+	c #5D5D5D",
"p+	c #515151",
"q+	c #484848",
"r+	c #5A5A5A",
"s+	c #4B4B4B",
"t+	c #CAC9C8",
"u+	c #939292",
"v+	c #DBDBDB",
"w+	c #AFB0B0",
"x+	c #3D3D3D",
"y+	c #303030",
"z+	c #454545",
"A+	c #181818",
"B+	c #2B2B2B",
"C+	c #4A4A4A",
"D+	c #363636",
"E+	c #C9C9C8",
"F+	c #929291",
"G+	c #292928",
"H+	c #DAD9D9",
"I+	c #AEB0B0",
"J+	c #323232",
"K+	c #424242",
"L+	c #212121",
"M+	c #242424",
"N+	c #494949",
"O+	c #929191",
"P+	c #555454",
"Q+	c #DCDCDB",
"R+	c #D9D9D8",
"S+	c #AEAFB0",
"T+	c #222222",
"U+	c #434343",
"V+	c #282828",
"W+	c #2E2E2E",
"X+	c #302F2F",
"Y+	c #2B2A2A",
"Z+	c #2F2D2C",
"`+	c #575555",
" @	c #DCDADA",
".@	c #D9D8D8",
"+@	c #5F5F5F",
"@@	c #393939",
"#@	c #4D4D4D",
"$@	c #383838",
"%@	c #474747",
"&@	c #333333",
"*@	c #3E3E3E",
"=@	c #B3B3B2",
"-@	c #8F8E8E",
";@	c #7B7A7A",
">@	c #2E2D2D",
",@	c #2C2C2B",
"'@	c #565554",
")@	c #989696",
"!@	c #999797",
"~@	c #A6A5A4",
"{@	c #D8D7D7",
"]@	c #6E6F6F",
"^@	c #A7A7A6",
"/@	c #2F2E2E",
"(@	c #6B6A69",
"_@	c #D6D5D5",
":@	c #D7D6D6",
"<@	c #AEAFAF",
"[@	c #6A6969",
"}@	c #D5D4D3",
"|@	c #D9D7D7",
"1@	c #313030",
"2@	c #2D2D2D",
"3@	c #282727",
"4@	c #353535",
"5@	c #2C2B2B",
"6@	c #D4D3D3",
"7@	c #D7D5D5",
"8@	c #ADAFAF",
"9@	c #3B3B3A",
"0@	c #1B1A19",
"a@	c #131313",
"b@	c #0B0B0B",
"c@	c #030303",
"d@	c #000000",
"e@	c #020202",
"f@	c #BABAB9",
"g@	c #898988",
"h@	c #8A8989",
"i@	c #8A8A89",
"j@	c #8B8A8A",
"k@	c #8B8B8A",
"l@	c #8C8B8A",
"m@	c #8D8C8B",
"n@	c #8D8C8C",
"o@	c #A5A4A3",
"p@	c #D3D1D1",
"q@	c #D3D2D2",
"r@	c #ADAEAF",
"s@	c #363534",
"t@	c #232220",
"u@	c #161515",
"v@	c #0E0D0D",
"w@	c #050505",
"x@	c #010101",
"y@	c #CACAC9",
"z@	c #CECDCC",
"A@	c #454443",
"B@	c #2E2D2B",
"C@	c #252523",
"D@	c #1A1919",
"E@	c #0C0B0B",
"F@	c #888989",
"G@	c #AAAAA9",
"H@	c #ABAAAA",
"I@	c #ABABAB",
"J@	c #ACACAB",
"K@	c #ADADAC",
"L@	c #AEADAD",
"M@	c #AFAEAE",
"N@	c #AFAFAE",
"O@	c #B0AFAF",
"P@	c #B0B0AF",
"Q@	c #B1B0B0",
"R@	c #B1B1B1",
"S@	c #B4B3B3",
"T@	c #A9ABAB",
"U@	c #5B5A5A",
"V@	c #494848",
"W@	c #484847",
"X@	c #484747",
"Y@	c #8B8C8C",
"Z@	c #858686",
"`@	c #858687",
" #	c #898A8B",
".#	c #939495",
"+#	c #C1C1C1",
"@#	c #E6E6E6",
"##	c #E8E8E8",
"$#	c #E0E0E0",
"%#	c #E3E3E3",
"&#	c #E5E5E5",
"*#	c #DEDEDE",
"=#	c #D2D2D2",
"-#	c #CECECE",
";#	c #D1D1D1",
">#	c #E4E4E4",
",#	c #D4D4D4",
"'#	c #DADADA",
")#	c #8F8F8F",
"!#	c #EFEFEF",
"~#	c #FFFFFF",
"{#	c #B6B6B6",
"]#	c #D3D3D3",
"^#	c #A7A7A7",
"/#	c #ADADAD",
"(#	c #858585",
"_#	c #FCFCFC",
":#	c #AAAAAA",
"<#	c #C5C5C5",
"[#	c #747474",
"}#	c #979797",
"|#	c #A3A3A3",
"1#	c #F0F0F0",
"2#	c #808080",
"3#	c #848484",
"4#	c #E9E9E9",
"5#	c #FEFEFE",
"6#	c #A5A5A5",
"7#	c #A9A9A9",
"8#	c #AFAFAF",
"9#	c #CFCFCF",
"0#	c #9D9D9D",
"a#	c #B2B2B2",
"b#	c #737373",
"c#	c #C8C8C8",
"d#	c #A2A2A2",
"e#	c #BFBFBF",
"f#	c #8E8E8E",
"g#	c #E7E7E7",
"h#	c #FDFDFD",
"i#	c #999999",
"j#	c #BABABA",
"k#	c #ECECEC",
"l#	c #C2C2C2",
"m#	c #C0C0C0",
"n#	c #6C6C6C",
"o#	c #9B9B9B",
"p#	c #F8F8F8",
"q#	c #EBEBEB",
"r#	c #CACACA",
"s#	c #B4B4B4",
"t#	c #F9F9F9",
"u#	c #AEAEAE",
"v#	c #BBBBBB",
"w#	c #CCCCCC",
"x#	c #CDCDCD",
"y#	c #909090",
"z#	c #FAFAFA",
"A#	c #B0B0B0",
"B#	c #B5B5B5",
"C#	c #9E9E9E",
"D#	c #D8D8D8",
"E#	c #D7D7D7",
"F#	c #EAEAEA",
"G#	c #C3C3C3",
"H#	c #9C9C9C",
"I#	c #F3F3F3",
"J#	c #BEBEBE",
"K#	c #F7F7F7",
"L#	c #868686",
"M#	c #C9C9C9",
"N#	c #585856",
". . . . . . . . . . . . . . . . . . . . . . . . . . . . . . . . . . . . . . . . . . . . . . . . . . . . . . . ",
". . . . . . . . . . . . . . . . . . . . . . . . . . . . . . . . . . . . . . . . . . . . . . . . . . . . . . . ",
". . . . . . . . . . . . . . . . . . . . . . . . . . . . . . . . . . . . . . . . . . . . . . . . . . . . . . . ",
". . . . . . . . . . . . . . . . . . . . . . . . . . . . . . . . . . . . . . . . . . . . . . . . . . . . . . . ",
". . . . . . . . . . . . . . . . . . . . . . . . . . . . . . . . . . . . . . . . . . . . . . . . . . . . . . . ",
". . . . . . . . . . . . . . . . . . . . . . . . . . . . . . . . . . . . . . . . . . . . . . . . . . . . . . . ",
". . . . . . . . . . . . . . . . . . . . . . . . . . . . . . . . . . . . . . . . . . . . . . . . . . . . . . . ",
". . . . . . . . . . . . . . . . . . . . . . . . . . . . . . . . . . . . . . . . . . . . . . . . . . . . . . . ",
". . . . . . . . . . . . . . . . . . . . . . . . . . . . . . . . . . . . . . . . . . . . . . . . . . . . . . . ",
". . . . . . . . . . . . . . . . . . . . . . . . . . . . . . . . . . . . . . . . . . . . . . . . . . . . . . . ",
". . . . . . . . . . . . . . . . . . . . . . . . . . . . . . . . . . . . . . . . . . . . . . . . . . . . . . . ",
". . . . . . . . . . . . . . . . . . . . . . . . . . . . . . . . . . . . . . . . . . . . . . . . . . . . . . . ",
". . . . . . . . . . . . . . . . . . . . . . . . . . . . . . . . . . . . . . . . . . . . . . . . . . . . . . . ",
". . . . . . . . . . . . . . . . . . . . . . . . . . . . . . . . . . . . . . . . . . . . . . . . . . . . . . . ",
". . . . . . . . . . . . . . . . . . . . . . . . . . . . . . . . . . . . . . . . . . . . . . . . . . . . . . . ",
". . . . . . . . . . . . . . . . . . . . . + @ @ @ @ @ @ @ @ @ @ @ @ @ @ @ @ @ @ @ @ @ @ @ @ @ @ # . . . . . . ",
". . . . . . . . . . . . . . . . . . . . $ % & * * * * = - - - ; > > , ' ' ' ' ' ' ' ' ' ' ' ' > ) . . . . . . ",
". . . . . . . . . . . . . . . . . . . . ! ~ { ] ^ / ( _ : < [ } | 1 2 3 4 5 6 6 6 6 6 6 6 6 6 7 8 . . . . . . ",
". . . . . . . . . . . . . . . . . . . . ! 9 { 0 ^ / a _ : < [ b c d e f 4 g 6 h h h h h h h h i 8 . . . . . . ",
". . . . . . . . . . . . . . . . . . . . ! j k l m n o o o p q r s s t u v w x y z A B C D E h i 8 . . . . . . ",
". . . . . . . . . . . . . . . . . . . . ! j F G H I J K L M N O P Q R S T U V W X Y Z `  ...h i 8 . . . . . . ",
". . . . . . . . . . . . . . . . . . . . +.@.#.$.%.&.*.I =.-.;.>.,.'.).!.R ~.{.].^./.(._.:.<.h i 8 . . . . . . ",
". . . . . . . . . . . . . . . . . . . . [.@.}.|.%.1.2.*.3.4.5.6.M 7.8.9.0.a.b.c.d.e.f.g.h.i.h i 8 . . . . . . ",
". . . . . . . . . . . . . . . . . . . . [.j.k.l.m.1.1.1.2.*.n.o.-.p.q.r.s.P t.u.v.w.U V x.y.h i 8 . . . . . . ",
". . . . . . . . . . . . . . . . . . . . [.j.z.A.B.C.D.1.1.2.E.F.4.G.H.I.J.,.K.L.a.M.N.{.O.P.Q.R.8 . . . . . . ",
". . . . . . . . . . . . . . . . . . . . [.S.T.U.B.V.V.C.1.1.W.X.*.Y.Z.`. +M .+++P Q R S T @+g 1 8 . . . . . . ",
". . . . . . . . . . . . . . . . . . . . [.S.#+$+%+&+V.V.V.C.*+=+1.-+;+>+,+-.'+)+,.'.).a.R !+4 ~+8 . . . . . . ",
". . . . . . . . . . . . . . . . . . . . [.{+]+^+/+(+&+V.V.V._+:+1.<+1.&.[+4.}+K M N ,.P Q |+3 1+2+. . . . . . ",
". . . . . . . . . . . . . . . . . . . . [.3+4+5+6+7+8+(+&+V.V.V.C.1.1.1.2.*.I =.-.L >.9+'.0+a+[ b+. . . . . . ",
". . . . . . . . . . . . . . . . . . . . [.3+c+d+6+e+f+8+(+&+V.V.V.C.D.1.1.2.*.g+4.K -.M N 0+1+h+b+. . . . . . ",
". . . . . . . . . . . . . . . . . . . . [.i+j+k+6+l+e+f+l+8+(+&+V.V.V.C.1.1.1.2.*.I =.K L m+[ n+b+. . . . . . ",
". . . . . . . o+. p+. . . q+. r+s+. . . [.i+t+u+6+l+l+l+e+f+7+8+(+&+V.V.V.C.1.1.1.&.3.4.=.m+< v+w+. . . . . . ",
". . . p+x+. . y+z+A+. q+r+B+C+D+. . . . [.i+E+F+6+l+l+l+l+l+G+f+8+(+&+V.V.V.C.D.1.1.2.*.I m+: H+I+. . . . . . ",
". . . p+x+. . y+u J+J+K+q+L+M+N+. . . . [.i+E+O+6+l+l+l+l+l+l+l+l+7+8+(+&+V.V.V.C.1.1.1.2.P+Q+R+S+. . . . . . ",
". . . p+x+. . y+C+A C+T+U+V+. W+. . . . [.i+E+F+X+6+6+6+6+Y+l+l+l+e+f+8+(+&+V.V./+m.Z+%.%.`+ @.@S+. . . . . . ",
". . . +@B+@@#@$@r+%@. &@q+@@. o+*@. . . [.i+E+=@-@-@-@-@;@>@l+l+l+l+e+f+l+8+(+,@'@$+$+)@!@~@^ {@S+. . . . . . ",
". . . . . . . . . . . . . . . . . . . . ]@i+E+E+E+E+E+E+^@/@l+l+l+l+l+l+e+f+7+V.(@#.F _@:@{ 0 :@<@. . . . . . ",
". . . . . . . . . . . . . . . . . . . . ]@i+E+E+E+E+E+E+^@/@l+l+l+l+l+l+l+l+G+8+[@}.}@#.F k |@_@<@. . . . . . ",
". . . . . x+1@2@e+3@3@3@3@3@4@. . . . . ]@i+E+E+E+E+E+E+^@1@5@5@5@5@5@5@5@5@5@6+[@k.}.6@#.F 7@}@8@. . . . . . ",
". . . . 9@P 0@a@b@c@d@d@d@d@e@1@. . . . ]@i+E+E+E+E+E+E+f@g@g@g@g@h@i@j@k@l@m@n@o@z.p@q@6@#.F }.r@. . . . . . ",
". . . . s@-.t@v.u@v@w@x@d@d@d@L+. . . . ]@i+E+E+E+E+E+E+E+E+E+E+E+E+y@j+c+4+z@]+#+T.z.z.q@}.#.q@r@. . . . . . ",
". . . . A@B@I C@Q D@X  .w@w@E@D . . . . ]@F@G@G@G@G@G@G@G@G@G@G@G@G@G@H@I@J@J@K@L@M@N@O@P@Q@R@S@T@. . . . . . ",
". . . . . U@V@W@X@q z+v K+y p+. . . . . . Y@Z@Z@Z@Z@Z@Z@Z@Z@Z@Z@Z@Z@Z@Z@Z@Z@Z@Z@Z@Z@Z@Z@Z@Z@`@ #.#. . . . . . ",
". . . . . . . . . . . . . . . . . . . . . s+s+s+s+s+s+s+s+s+s+s+s+s+s+s+s+s+s+s+s+s+s+s+s+s+s+o+. . . . . . . ",
". . . . . . . . . . . . . . . . . . . +@. +#@#####$#%###&#*#b $###b 7 =#-#;#>###@#,#'#######'#)#%@. . . . . . ",
". . . . . . . . . . . . . . . . . . . . !#~#~#~#~#{#]#~#%#^#/#(#_#:#<#[#}#|#1#~#-#2#3#4#~#~#~#5#6#%@. . . . . ",
". . . . . . . . . . . . . . . . . . #@7#~#~#~#~#~#8#9#~#$#0#a#b#c#d#e#f#R.g#h#~#i#&#+#j#~#~#~#~#k#o+. . . . . ",
". . . . . . . . . . . . . . . . . . N+l#~#~#~#~#~#8#9#~#$#0#a#m#{+j.e#n#o#I@p#~#j q#r#s#~#~#~#~#t#. . . . . . ",
". . . . . . . . . . . . . . . . . . r+o#~#~#~#~#~#u#v#g#'#0#a#w#x#p+e#y#g###z#~#A#B#C#=#~#~#~#~#>##@. . . . . ",
". . . . . . . . . . . . . . . . . . . N+'#5#~#~#~#D#}#}#E#E#b F#h#G#&#6#}#H###~#I#^#J#h#~#~#~#K#L#p+. . . . . ",
". . . . . . . . . . . . . . . . . . . . z i#M#x#x#x#x#x#x#x#x#x#x#x#x#x#x#x#x#x#x#x#x#x#x#x#{#. q+. . . . . . ",
". . . . . . . . . . . . . . . . . . . . . r+U+K+K+K+U+U+u u u u u u u u u u u u u u u u u u N+. . . . . . . . ",
". . . . . . . . . . . . . . . . . . . . . . . . . . . . . . . . . . . . . . . . . . . . . . . . . . . . . . . ",
". . . . . . . . . . . . . . . . . . . . . . . . . . . . . . . . . . . . . . . . . . . . . . . . . . . . . . . ",
". . . . . . . . . . . . . . . . . . . . . . . . . . . . . . . . . . . . . . . . . . . . . . . . . . . . . . . ",
". . . . . . . . . . . . . . . . . . . . . . . . . . . . . . . . . . . . . . . . . . . . . . . . . . . . . . . ",
". . . . . . . . . . . . . . . . . . . . . . . . . . . . . . . . . . . . . . . . . . . . . . . . . . . . . . . ",
". . . . . . . . . . . . . . . . . . . . . . . . . . . . . . . . . . . . . . . . . . . . . . . . . . . . . . . ",
". . . . . . . . . . . . . . . . . . . . . . . . . . . . . . . . . . . . . . . . . . . . . . . . . . . . . . . ",
". . . . . . . . . . . . . . . . . . . . . . . . . . . . . . . . . . . . . . . . . . . . . . . . . . . . . . . ",
". . . . . . . . . . . . . . . . . . . . . . . . . . . . . . . . . . . . . . . . . . . . . . . . . . . . . . . ",
". . . . . . . . . . . . . . . . . . . . . . . . . . . . . . . . . . . . . . . . . . . . . . . . . . . . . . . ",
". . . . . . . . . . . . . . . . . . . . . . . . . . . . . . . . . . . . . . . . . . . . . . . . . . . . . . . ",
". . . . . . . . . . . . . . . . . . . . . . . . . . . . . . . . . . . . . . . . . . . . . . . . . . . . . . . ",
". . . . . . . . . . . . . . . . . . . . . . . . . . . . . . . . . . . . . . . . . . . . . . . . . . . . . . . ",
". . . . . . . . . . . . . . . . . . . . . . . . . . . . . . . . . . . . . . . . . . . . . . . . . . . . . . . ",
"N#. . . . . . . . . . . . . . . . . . . . . . . . . . . . . . . . . . . . . . . . . . . . . . . . . . . . . . "};
