/* XPM */
static char * gPTRepeaterNM_1CGE_xpm[] = {
"55 67 620 2",
"  	c None",
". 	c #D1D1D0",
"+ 	c #D2D1D0",
"@ 	c #D2D2D2",
"# 	c #D4D2D2",
"$ 	c #D4D3D3",
"% 	c #D4D4D4",
"& 	c #D5D4D4",
"* 	c #CFCECE",
"= 	c #D0CFCF",
"- 	c #D2D1D1",
"; 	c #D3D2D2",
"> 	c #CECECE",
", 	c #D0CECE",
"' 	c #D0D0CF",
") 	c #D2D2D1",
"! 	c #CECDCC",
"~ 	c #CECDCD",
"{ 	c #CDCCCC",
"] 	c #CDCDCC",
"^ 	c #CCCBCA",
"/ 	c #CCCCCB",
"( 	c #CACACA",
"_ 	c #CBCBCA",
": 	c #CCCBCB",
"< 	c #CACAC9",
"[ 	c #CAC8C8",
"} 	c #CAC9C9",
"| 	c #D0CFCE",
"1 	c #D0D0D0",
"2 	c #C8C7C7",
"3 	c #CBCACA",
"4 	c #D2D0D0",
"5 	c #C8C8C6",
"6 	c #C9C8C8",
"7 	c #9F9F9F",
"8 	c #A09F9F",
"9 	c #6A6A6A",
"0 	c #464545",
"a 	c #858484",
"b 	c #BABABA",
"c 	c #C1C0C0",
"d 	c #535252",
"e 	c #C8C8C7",
"f 	c #9F9E9E",
"g 	c #717070",
"h 	c #8F8E8E",
"i 	c #565656",
"j 	c #424242",
"k 	c #C7C6C5",
"l 	c #9E9E9E",
"m 	c #747474",
"n 	c #2E2E2E",
"o 	c #7E7E7E",
"p 	c #A6A6A6",
"q 	c #C6C6C4",
"r 	c #C8C7C6",
"s 	c #9D9C9C",
"t 	c #767676",
"u 	c #C0BFBF",
"v 	c #282828",
"w 	c #636363",
"x 	c #000000",
"y 	c #ACACAC",
"z 	c #C6C6C5",
"A 	c #C4C4C3",
"B 	c #9C9C9C",
"C 	c #9D9D9C",
"D 	c #BEBEBE",
"E 	c #B9B8B8",
"F 	c #C7C6C6",
"G 	c #BEBDBD",
"H 	c #ACACAA",
"I 	c #C5C5C3",
"J 	c #ABAAA9",
"K 	c #C5C5C4",
"L 	c #010101",
"M 	c #AAAAA8",
"N 	c #C3C3C1",
"O 	c #C4C3C2",
"P 	c #C9C8C7",
"Q 	c #6B6A6A",
"R 	c #0A0A0A",
"S 	c #AAAAA9",
"T 	c #C2C2C1",
"U 	c #A2A2A2",
"V 	c #979696",
"W 	c #989797",
"X 	c #999898",
"Y 	c #9A9999",
"Z 	c #9B9A9A",
"` 	c #B5B4B4",
" .	c #6F6F6F",
"..	c #111111",
"+.	c #AAABA9",
"@.	c #C1C1BF",
"#.	c #C2C2C0",
"$.	c #C4C3C1",
"%.	c #757474",
"&.	c #282726",
"*.	c #1D1C1C",
"=.	c #161616",
"-.	c #0D0D0D",
";.	c #080707",
">.	c #191818",
",.	c #A09E9E",
"'.	c #737372",
").	c #181817",
"!.	c #C0C1BF",
"~.	c #C1C1C0",
"{.	c #3D3C3B",
"].	c #262523",
"^.	c #20201F",
"/.	c #1A1A19",
"(.	c #121212",
"_.	c #090909",
":.	c #5B5A5A",
"<.	c #777676",
"[.	c #1E1E1D",
"}.	c #ABABA9",
"|.	c #C0C0BE",
"1.	c #C0C0BF",
"2.	c #5F5E5E",
"3.	c #2C2A28",
"4.	c #272624",
"5.	c #222220",
"6.	c #1C1C1B",
"7.	c #141414",
"8.	c #0C0C0C",
"9.	c #020202",
"0.	c #828281",
"a.	c #7A7979",
"b.	c #242321",
"c.	c #BFBFBD",
"d.	c #C8C6C6",
"e.	c #BCBCBC",
"f.	c #797878",
"g.	c #5A5958",
"h.	c #595858",
"i.	c #585756",
"j.	c #565655",
"k.	c #545353",
"l.	c #525151",
"m.	c #565454",
"n.	c #868685",
"o.	c #7C7C7B",
"p.	c #BEBEBC",
"q.	c #BFC0BE",
"r.	c #C4C4C2",
"s.	c #7E7D7C",
"t.	c #2A2927",
"u.	c #BFBEBD",
"v.	c #807F7D",
"w.	c #444240",
"x.	c #AEAEAC",
"y.	c #BDBCBC",
"z.	c #BEBDBC",
"A.	c #BDBEBD",
"B.	c #B7B9BA",
"C.	c #BABCBD",
"D.	c #969494",
"E.	c #BABAB9",
"F.	c #BBBABA",
"G.	c #BBBBBA",
"H.	c #BCBCBB",
"I.	c #BDBDBC",
"J.	c #BDBEBC",
"K.	c #A6A8A8",
"L.	c #D4D3D2",
"M.	c #D4D4D3",
"N.	c #D6D5D4",
"O.	c #D6D5D5",
"P.	c #D7D6D6",
"Q.	c #D7D7D6",
"R.	c #D8D8D7",
"S.	c #D8D8D8",
"T.	c #D9D8D8",
"U.	c #DAD9D9",
"V.	c #DADADA",
"W.	c #DBDADA",
"X.	c #DCDBDB",
"Y.	c #DDDCDC",
"Z.	c #DEDDDD",
"`.	c #DEDDDE",
" +	c #DEDEDE",
".+	c #DFDEE0",
"++	c #E0DFE0",
"@+	c #E0E0E0",
"#+	c #E1E0E0",
"$+	c #DCDBDC",
"%+	c #BABAB8",
"&+	c #BBBAB9",
"*+	c #BCBCBA",
"=+	c #868687",
"-+	c #D7D5D5",
";+	c #D9D8D7",
">+	c #DAD8D8",
",+	c #DAD9D8",
"'+	c #DBD9D9",
")+	c #DCDADA",
"!+	c #DCDCDB",
"~+	c #DDDCDB",
"{+	c #DFDEDE",
"]+	c #DFDFDF",
"^+	c #E0DFDF",
"/+	c #E2E1E0",
"(+	c #E3E2E2",
"_+	c #E4E2E3",
":+	c #E4E3E3",
"<+	c #E5E4E5",
"[+	c #E6E4E5",
"}+	c #E6E5E6",
"|+	c #E7E6E6",
"1+	c #B8B8B8",
"2+	c #BAB9B8",
"3+	c #CDCBCB",
"4+	c #B0AFAF",
"5+	c #B1B0B0",
"6+	c #B2B1B0",
"7+	c #B3B2B0",
"8+	c #B3B2B1",
"9+	c #B4B2B2",
"0+	c #B4B3B3",
"a+	c #B4B4B3",
"b+	c #B4B4B4",
"c+	c #B6B4B4",
"d+	c #B6B5B5",
"e+	c #B6B6B6",
"f+	c #B7B6B6",
"g+	c #B8B6B6",
"h+	c #B8B7B7",
"i+	c #B9B8B9",
"j+	c #BAB9B9",
"k+	c #BCBABB",
"l+	c #BCBBBB",
"m+	c #B8B8B6",
"n+	c #B8B8B7",
"o+	c #B9B9B8",
"p+	c #AFAEAE",
"q+	c #333130",
"r+	c #2F2E2C",
"s+	c #2E2E2C",
"t+	c #2E2D2B",
"u+	c #2E2C2A",
"v+	c #2D2C2A",
"w+	c #2C2B2A",
"x+	c #2C2B29",
"y+	c #2B2A28",
"z+	c #2A2A28",
"A+	c #2A2828",
"B+	c #282827",
"C+	c #262625",
"D+	c #262524",
"E+	c #252423",
"F+	c #232322",
"G+	c #222221",
"H+	c #212020",
"I+	c #201F1E",
"J+	c #1E1E1E",
"K+	c #1A1A1A",
"L+	c #191919",
"M+	c #181818",
"N+	c #B7B7B6",
"O+	c #AEADAD",
"P+	c #302E2D",
"Q+	c #2A2826",
"R+	c #292825",
"S+	c #282725",
"T+	c #282624",
"U+	c #272623",
"V+	c #252422",
"W+	c #242322",
"X+	c #232221",
"Y+	c #212120",
"Z+	c #1F1E1E",
"`+	c #1E1D1C",
" @	c #1C1C1A",
".@	c #191817",
"+@	c #171716",
"@@	c #161514",
"#@	c #141413",
"$@	c #121211",
"%@	c #101010",
"&@	c #0E0E0E",
"*@	c #767474",
"=@	c #B6B6B5",
"-@	c #B6B7B6",
";@	c #868686",
">@	c #D3D2D1",
",@	c #AEADAC",
"'@	c #302F2E",
")@	c #2A2926",
"!@	c #292826",
"~@	c #292725",
"{@	c #282724",
"]@	c #262422",
"^@	c #242221",
"/@	c #1D1C1B",
"(@	c #1B1B1A",
"_@	c #1A1918",
":@	c #171615",
"<@	c #121312",
"[@	c #0F100F",
"}@	c #767575",
"|@	c #BABCBC",
"1@	c #B6B6B4",
"2@	c #B6B7B5",
"3@	c #B9B9B9",
"4@	c #858686",
"5@	c #ADACAC",
"6@	c #696034",
"7@	c #685F33",
"8@	c #5A532F",
"9@	c #413D29",
"0@	c #4C462C",
"a@	c #4D462B",
"b@	c #3E3A28",
"c@	c #58502D",
"d@	c #2E2C23",
"e@	c #635A2F",
"f@	c #1F1F1E",
"g@	c #6F6430",
"h@	c #6D622F",
"i@	c #181716",
"j@	c #161515",
"k@	c #B5B5B4",
"l@	c #B8B9B8",
"m@	c #D1D0CF",
"n@	c #ACACAB",
"o@	c #2C2A29",
"p@	c #847738",
"q@	c #847637",
"r@	c #716533",
"s@	c #4D472C",
"t@	c #5E552F",
"u@	c #5F562F",
"v@	c #4A442A",
"w@	c #706532",
"x@	c #363325",
"y@	c #827435",
"z@	c #948338",
"A@	c #938238",
"B@	c #1C1B1A",
"C@	c #1A1A18",
"D@	c #171616",
"E@	c #151514",
"F@	c #131312",
"G@	c #B4B4B2",
"H@	c #B7B8B7",
"I@	c #ACABAA",
"J@	c #786A32",
"K@	c #776A32",
"L@	c #2B2A27",
"M@	c #675D30",
"N@	c #49432B",
"O@	c #564E2C",
"P@	c #574F2C",
"Q@	c #464029",
"R@	c #665C2E",
"S@	c #353225",
"T@	c #756830",
"U@	c #847533",
"V@	c #202020",
"W@	c #847432",
"X@	c #1E1E1C",
"Y@	c #1B1A19",
"Z@	c #191918",
"`@	c #181717",
" #	c #161615",
".#	c #B5B4B3",
"+#	c #ABAAAA",
"@#	c #2F2F2E",
"##	c #2B2B2A",
"$#	c #6B602F",
"%#	c #6C602E",
"&#	c #5E552D",
"*#	c #45402A",
"=#	c #50492B",
"-#	c #50492A",
";#	c #423D28",
">#	c #5D542B",
",#	c #343125",
"'#	c #6A5E2C",
")#	c #76692E",
"!#	c #76682E",
"~#	c #E6E5E5",
"{#	c #B2B2B0",
"]#	c #B3B2B2",
"^#	c #848686",
"/#	c #CFCECD",
"(#	c #2F2E2E",
"_#	c #2B2A29",
":#	c #2B2B29",
"<#	c #685D2E",
"[#	c #5C522C",
"}#	c #443E2A",
"|#	c #4F482B",
"1#	c #4E472A",
"2#	c #5A512B",
"3#	c #343226",
"4#	c #665B2C",
"5#	c #72652D",
"6#	c #B1B1B0",
"7#	c #B2B2B1",
"8#	c #B3B3B2",
"9#	c #AAA9A8",
"0#	c #2E2E2D",
"a#	c #2A2A29",
"b#	c #34312A",
"c#	c #322F29",
"d#	c #2F2D28",
"e#	c #302E28",
"f#	c #2E2C28",
"g#	c #302E27",
"h#	c #302E26",
"i#	c #302E25",
"j#	c #2F2C24",
"k#	c #252322",
"l#	c #222120",
"m#	c #E4E3E4",
"n#	c #BABBBC",
"o#	c #B0B0B0",
"p#	c #A9A8A7",
"q#	c #292929",
"r#	c #2A2928",
"s#	c #232220",
"t#	c #E3E2E3",
"u#	c #DFDEDF",
"v#	c #B9BBBC",
"w#	c #B0B0AF",
"x#	c #A8A8A7",
"y#	c #2A2929",
"z#	c #E3E2E1",
"A#	c #AFAFAE",
"B#	c #B4B5B4",
"C#	c #848586",
"D#	c #A7A7A6",
"E#	c #E2E0E0",
"F#	c #E2E2E1",
"G#	c #AEAEAD",
"H#	c #AFAEAD",
"I#	c #B3B4B3",
"J#	c #C9C9C8",
"K#	c #CACAC8",
"L#	c #A7A6A6",
"M#	c #767675",
"N#	c #B9BABC",
"O#	c #2B2B2B",
"P#	c #A0A09F",
"Q#	c #B2B3B2",
"R#	c #A6A6A5",
"S#	c #2A2A27",
"T#	c #DCDADB",
"U#	c #8C8C8C",
"V#	c #B2B2B2",
"W#	c #A6A6A4",
"X#	c #767574",
"Y#	c #B9BABB",
"Z#	c #656565",
"`#	c #ADADAC",
" $	c #656564",
".$	c #969694",
"+$	c #ACABAB",
"@$	c #B1B1B1",
"#$	c #B8BABB",
"$$	c #656464",
"%$	c #060606",
"&$	c #969595",
"*$	c #ABABAA",
"=$	c #6E6E6E",
"-$	c #6E6E6D",
";$	c #2C2B2B",
">$	c #4E4D4C",
",$	c #747272",
"'$	c #747372",
")$	c #757373",
"!$	c #757473",
"~$	c #767473",
"{$	c #676766",
"]$	c #0E0F0E",
"^$	c #969696",
"/$	c #AAAAAA",
"($	c #949493",
"_$	c #D8D7D6",
":$	c #DBD9D8",
"<$	c #B8BABA",
"[$	c #6B6B6A",
"}$	c #161614",
"|$	c #969695",
"1$	c #727272",
"2$	c #D8D6D6",
"3$	c #A9A8A8",
"4$	c #AEAEAE",
"5$	c #727271",
"6$	c #D7D6D5",
"7$	c #D7D5D6",
"8$	c #727170",
"9$	c #323131",
"0$	c #303030",
"a$	c #30302F",
"b$	c #737272",
"c$	c #D6D4D4",
"d$	c #A8A7A7",
"e$	c #ADAEAE",
"f$	c #B8B7B6",
"g$	c #BCBBBA",
"h$	c #BEBCBC",
"i$	c #C6C5C4",
"j$	c #A7A7A7",
"k$	c #ADADAD",
"l$	c #CAC9C8",
"m$	c #767674",
"n$	c #A5A5A5",
"o$	c #7E7F80",
"p$	c #9A9A9A",
"q$	c #9C9B9A",
"r$	c #9C9C9B",
"s$	c #9E9E9D",
"t$	c #A09F9E",
"u$	c #A1A0A0",
"v$	c #A1A1A0",
"w$	c #A2A1A1",
"x$	c #A3A2A2",
"y$	c #777674",
"z$	c #868684",
"A$	c #A5A5A4",
"B$	c #A6A5A5",
"C$	c #ABACAC",
"D$	c #A6A7A8",
"E$	c #A7A8A9",
"F$	c #A8A8A9",
"G$	c #A8A9AA",
"H$	c #A8AAAA",
"I$	c #A9AAAA",
"J$	c #A9AAAB",
"K$	c #A9ABAB",
"L$	c #AAABAC",
"M$	c #AAACAC",
"N$	c #B0B1B2",
"O$	c #B9BABA",
"P$	c #A4A3A2",
"Q$	c #A5A4A3",
"R$	c #B5B5B5",
"S$	c #A2A2A1",
"T$	c #A3A2A1",
"U$	c #A3A3A2",
"V$	c #838382",
"W$	c #D7D7D7",
"X$	c #FFFFFF",
"Y$	c #F7F7F7",
"Z$	c #9B9B9B",
"`$	c #878787",
" %	c #CFCFCF",
".%	c #C3C3C3",
"+%	c #808080",
"@%	c #B7B7B7",
"#%	c #DBDBDB",
"$%	c #ABABAB",
"%%	c #F3F3F3",
"&%	c #8E8E8E",
"*%	c #737373",
"=%	c #EFEFEF",
"-%	c #7B7B7B",
";%	c #B3B3B3",
">%	c #939393",
",%	c #707070",
"'%	c #E3E3E3",
")%	c #A0A0A0",
"!%	c #909090",
"~%	c #7F7F7F",
"{%	c #BFBFBF",
"]%	c #E7E7E7",
"^%	c #404040",
"/%	c #8F8F8F",
"(%	c #A0A09E",
"_%	c #A4A4A2",
":%	c #9A9A99",
"<%	c #C7C7C7",
"[%	c #777777",
"}%	c #606060",
"|%	c #8B8B8B",
"1%	c #D3D3D3",
"2%	c #C2C2C2",
"3%	c #BDBCBB",
"4%	c #9F9F9E",
"5%	c #8A8989",
"6%	c #A3A3A3",
"7%	c #838383",
"8%	c #676767",
"9%	c #6B6B6B",
"0%	c #8A8A89",
"a%	c #898989",
"b%	c #FBFBFB",
"c%	c #8E8E8D",
"d%	c #9E9D9D",
"e%	c #8A8988",
"f%	c #7B7B7A",
"g%	c #7C7B7A",
"h%	c #7C7C7C",
"i%	c #7E7D7D",
"j%	c #7E7E7D",
"k%	c #7F7E7E",
"l%	c #807F7E",
"m%	c #80807F",
"n%	c #818080",
"o%	c #818180",
"p%	c #828282",
"q%	c #838282",
"r%	c #848382",
"s%	c #848483",
"t%	c #848484",
"u%	c #858584",
"v%	c #878786",
"w%	c #989898",
"x%	c #9D9D9D",
"y%	c #9C9B9B",
"z%	c #9D9C9B",
"A%	c #B0AFAE",
"B%	c #9B9B9A",
"C%	c #999998",
"  . . + @ # $ % & & & & & & & & & & & & & & & & & & & & & & & & & & & & & & & & & & & & & & & & & & & & & & & ",
"* = . . - @ ; $ % & & & & & & & & & & & & & & & & & & & & & & & & & & & & & & & & & & & & & & & & & & & & & & ",
"> > , ' . . ) ; $ $ & & & & & & & & & & & & & & & & & & & & & & & & & & & & & & & & & & & & & & & & & & & & & ",
"! ~ > * = . . - @ ; $ % & & & & & & & & & & & & & & & & & & & & & & & & & & & & & & & & & & & & & & & & & & & ",
"{ ] ~ > > , ' . . ) ; $ $ & & & & & & & & & & & & & & & & & & & & & & & & & & & & & & & & & & & & & & & & & & ",
"^ / ] ] ~ > * = . . - @ ; $ % & & & & & & & & & & & & & & & & & & & & & & & & & & & & & & & & & & & & & & & & ",
"( _ : { ] ~ > > , ' . . @ ; $ $ & & & & & & & & & & & & & & & & & & & & & & & & & & & & & & & & & & & & & & & ",
"< < _ _ / ] ] ~ > * ' . . - @ ; $ % & & & & & & & & & & & & & & & & & & & & & & & & & & & & & & & & & & & & & ",
"[ } < ( _ : { ] ~ > > | 1 . . @ ; $ % & ~ ~ & & 2 ~ 3 & 3 4 2 & 3 3 & & & & & & & & & & & & & & & & & & & & & ",
"5 6 } < < _ _ / ] ] ~ > * ' . . - @ ; $ 7 8 & & 9 8 0 & a b 9 c d 3 & & & & & & & & & & & & & & & & & & & & & ",
"5 5 e [ } < ( _ : { ] ~ > * | 1 . . @ ; f f & & 9 8 g h a b i j 3 & & & & & & & & & & & & & & & & & & & & & & ",
"k k 5 5 6 } < < _ _ / ] ] ~ > * ' . . - l l $ % 9 8 8 g m b n o p & & & & & & & & & & & & & & & & & & & & & & ",
"q k k r 5 e [ < < ( _ : { ] ~ > * | 1 . s t l u 9 7 8 3 v b 9 & w 2 & & & & & & & & & & & & & & & & & & & & & ",
"x y z k k 5 5 6 } < < _ _ / ] ] ~ > * ' A B C D E F F & b ~ b & 3 G & & & & & & & & & & & & & & & & & & & & 9 ",
"x H I q k k r 5 e [ < < ( _ : { ] ~ > * | 1 . . @ ; $ % & & & & & & & & & & & & & & & & & & & & & & & & & & 9 ",
"x J A I K z k k 5 5 6 } < < _ _ / ] ! ~ > * ' . . - @ $ $ % & & & & & & & & & & & & & & & & & & & & & & & & 9 ",
"L M N O A I q k k r 5 P [ < < ( _ : { ] ~ > * = 1 . . @ ; $ % & & & & & & & & & & & & & & & & & & & & & & & Q ",
"R S T N O A I K z k k 5 5 6 } < < _ _ / ] ! U V W X X X Y Y Z ` % & & & & & & & & & & & & & & & & & & & & &  .",
"..+.@.#.N $.O A I q k k r 5 P [ < < ( _ : %.&.*.=.-.;.;.;.;.;.>.,.% & & & & & & & & & & & & & & & & & & & & '.",
").J !.@.~.T N O A I K z k k 5 5 6 } < < _ {.].^./.(._.L x x x x :.$ $ % & & & & & & & & & & & & & & & & & & <.",
"[.}.|.1.@.@.T N $.O A I z k k r 5 P [ < < 2.3.4.5.6.7.8.9.x x R 0.@ ; $ % & & & & & & & & & & & & & & & & & a.",
"b.}.c.|.|.!.@.~.T N O A I K z k d.5 5 6 } e.f.:.g.h.i.j.k.l.m.n.> . ) @ $ $ % & & & & & & & & & & & & & & & o.",
"4.}.p.c.q.|.1.@.~.T N $.r.A K z k k 5 5 P } < < ( _ / ] ] ~ > * = . . - @ ; $ % & & & & & & & & & & & & & & s.",
"t.J p.p.u.c.|.|.!.@.~.N N O A I K k k r 5 5 6 } < ( _ _ { ] ! > > * ' . . ) @ $ $ % & & & & & & & & & & & & v.",
"w.x.y.z.p.p.c.q.A.B.B.B.B.B.B.B.B.B.B.B.B.B.B.B.B.B.B.B.B.B.B.B.B.B.B.B.B.B.B.B.B.B.B.B.B.B.C.& & & & & & & D.",
"E.F.G.H.I.p.p.u.J.K.; L.M.& N.O.P.P.Q.R.S.T.U.V.W.X.Y.Z.`. +.+++@+#+#+#+#+#+#+#+#+#+#+#+#+$+C.& & & & & & & & ",
"%+E.&+F.*+y.z.p.e.=+N.-+P.;+>+,+'+)+)+!+~+Y.Z.{+]+^+#+/+(+_+:+<+[+}+|+|+|+|+|+|+|+|+|+|+|+#+C.& & & & & & & & ",
"1+2+E.E.F.G.H.I.e.=+& N.3+4+5+6+7+8+9+9+0+a+b+c+d+e+f+g+h+E i+j+b F.k+l+l+l+l+l+l+l+: |+|+#+C.& & & & & & & & ",
"m+n+o+%+E.&+F.*+l+=+$ & p+q+r+r+s+t+u+v+w+x+y+z+A+B+&.C+D+E+F+G+H+I+J+*.6.K+L+M+=.7.<.|+|+#+C.$ % & & & & & & ",
"N+N+n+o+2+E.E.F.b =+# L.O+P+3.3.y+t.Q+R+S+T+U+].V+W+X+Y+^.Z+`+ @/..@+@@@#@$@%@&@8.R *@|+|+#+C.; $ $ & & & & & ",
"=@-@N+N+n+o+%+E.E.;@>@; ,@'@3.3.3.3.y+)@!@~@{@4.U+]@V+^@5.H+^.[./@(@_@).:@7.<@..[@&@}@|+|+#+|@- @ ; $ % & & & ",
"1@=@2@N+N+n+o+2+3@4@+ + 5@'@w+x+3.3.3.y+6@)@7@S+8@9@0@a@b@c@d@e@f@g@6.h@>.i@j@#@(.%@t |+|+#+|@. . ) ; $ $ & & ",
"` k@=@=@-@N+N+n+l@4@m@+ n@'@w+w+x+o@3.3.p@y+q@Q+r@s@t@u@v@w@x@y@Y+z@[.A@B@C@).D@E@F@t |+|+#+|@= . . - @ ; $ % ",
"G@a+k@k@=@2@N+N+H@4@= m@I@'@w+w+w+w+x+3.J@3.K@L@M@N@O@P@Q@R@S@T@^@U@V@W@X@6.Y@Z@`@ #<.|+|+#+|@> , ' . . ) ; $ ",
"G@G@G@.#k@=@=@-@H@4@* = +#@###w+w+w+w+x+$#3.%#3.&#*#=#-#;#>#,#'#V+)#X+!#^.Z+`+ @/..@<.~#|+#+|@~ > * = . . - @ ",
"{#]#G@G@a+k@k@=@-@^#! /#+#(#_#:###w+w+w+<#x+<#3.[#}#|#1#;#2#3#4#U+5#V+5#5.H+^.[./@(@t <+~#@+|@] ~ > > , ' . . ",
"6#6#7#8#G@G@.#k@e+^#/ ] 9#0#a#_#_###w+w+b#w+b#x+c#d#e#e#f#g#)@h#{@i#].j#k#X+l#^.f@`+<.m#<+++n#/ ] ] ~ > * ' . ",
"o#6#6#{#]#G@G@a+=@^#/ / p#n q#r#a#_#:###w+w+w+w+x+o@3.3.3.y+t.Q+R+{@T+U+]@V+b.s#Y+^.t t#:+u#v#_ : { ] ~ > > | ",
"w#w#o#6#6#7#8#G@k@^#_ / x#n y#q#r#r#_#_#####w+w+w+w+x+3.3.3.y+L@)@!@S+{@4.].]@V+^@5.<.z#t# +v#< _ _ / ] ] ~ > ",
"p+A#w#o#6#6#{#]#B#C#< _ D#n y#y#y#y#r#a#_#:###w+w+w+w+x+o@3.3.3.y+t.Q+R+S+T+U+].V+W+}@E#F#Z.v#} < ( _ : { ] ~ ",
"G#H#p+w#w#o#6#6#I#C#J#K#L#n y#y#y#y#y#r#r#a#_#:###w+w+w+w+x+3.3.3.3.y+)@!@~@{@4.U+]@M#^+#+Y.N#6 } < < _ _ / ] ",
"O#P#H#H#A#w#o#6#Q#C#J#J#R#n y#y#y#y#y#y#q#r#a#_#_###w+w+w+w+w+x+3.3.3.y+S#)@!@S+{@4.}@{+^+T#N#5 e [ < < ( _ U#",
"x W O+G#H#p+w#w#V#C#J#J#W#n y#y#y#y#y#y#y#y#q#r#a#_#:###w+w+w+w+x+o@3.3.3.y+t.Q+R+{@X#Z.{+V.Y#k 5 5 6 } < < Z#",
"x V `#O+O+H#H#A#V#C#J#J#W#n y#y#y#y#y#y#y#y#y#q#r#r#_#_#####w+w+w+w+x+3.3.3.y+L@)@!@X#Y.Z.U.Y#k k r 5 e [ <  $",
"x .$+$`#,@O+G#H#@$C#J#J#W#n y#y#y#y#y#y#y#y#y#y#y#y#r#a#_#:###w+w+w+w+x+o@3.3.3.y+t.*@!+Y.T.#$K z k k 5 5 6 $$",
"%$&$*$I@n@`#O+O+5+C#J#J#8#=$-$-$-$-$=$:.;$y#y#y#y#y#y#r#r#a#_#:###w+w+>$,$'$)$!$~$%.s X.!+S.#$A I q k k r 5 {$",
"]$^$/$+#*$+$`#,@o#C#J#J#J#J#J#J#J#J#J#($;$y#y#y#y#y#y#y#q#r#a#_#_###w+,$N.-+_$;+,+:$'+)+X.Q.<$O A I K z k k [$",
"}$|$S /$/$*$I@n@o#C#J#J#J#J#J#J#J#J#J#($;$y#y#y#y#y#y#y#y#y#q#r#a#_#:#1$& N.-+2$;+>+,+'+)+P.<$N $.O A I q k -$",
"6.|$3$9#S /$+#*$4$C#J#J#J#J#J#J#J#J#J#($;$y#y#y#y#y#y#y#y#y#y#q#r#r#_#5$M.& N.O.6$_$>+,+'+7$<$~.T N O A I K 8$",
"5.V x#3$3$S /$+#4$C#J#J#J#J#J#J#J#J#J#($9$0$0$0$0$0$0$0$0$0$0$0$0$a$a$b$L.$ & c$O.-+_$;+,+O.<$@.@.T N $.O A '.",
"].^$d$x#x#3$9#S e$C#J#J#J#J#J#J#J#J#J#T N+N+N+f$n+o+o+E.E.F.g$y.h$p.u.i$>@L.$ & c$N.-+_$;+& <$|.!.@.~.T N O !$",
"!@&$p j$d$x#3$3$k$C#J#J#J#J#J#J#J#J#J#J#J#J#J#J#J#l$< _ / / ] /#* = m@. + >@; L.& & N.-+P.M.<$q.|.1.@.~.T N m$",
"3.|$n$R#D#d$x#x#y o$p$p$p$p$p$p$p$p$p$p$p$p$p$p$p$p$q$r$B B s C s$f f t$P#P#u$v$w$w$U x$x$o#<$u.c.|.|.!.@.~.y$",
"z$u$A$n$B$p j$d$*$C$D$K.K.K.K.K.K.E$E$E$F$F$G$G$G$H$H$H$H$H$H$I$J$J$J$K$L$L$L$L$M$M$M$M$M$N$O$p.p.c.q.|.1.@.x.",
"x$P$Q$A$A$n$R#D#d$x#a Y V#b+b+b+b+k@k@R$R$R$R$R$R$R$=@=@e+e+e+e+e+e+e+e+e+e+e+e+e+e+e+o#l ($H.I.p.p.u.c.|.|.!.",
"S$T$U$Q$Q$A$n$B$p V$W$X$X$Y$Z$`$]+X$ %X$.%+%@%X$X$X$7 7 7 #%7 7 $%#%%%X$ %X$X$X$@%.%X$X$X$V.&%*+y.z.p.p.c.q.|.",
"S$S$S$x$P$Q$A$n$U $%X$X$X$*%#%=%-%X$+%;%Z$X$>%W$X$X$,%]+]+%%]+,%'%7 ]+X$+%X$X$@%j$`$W$X$X$X$y F.G.H.I.p.p.u.c.",
")%v$S$S$T$U$Q$Q$!%#%X$X$X$~%X$ %{%X$+%~%X$]%{%]%X$X$^%+%/%X$X$+%X$7  .~%^%X$X$+%X$]+7 X$X$X$W$W#&+F.*+y.z.p.p.",
"(%P#v$S$S$S$x$_%:%<%X$X$X$[%X$ %}%X$+%~%Y$]%j$7 X$X$+%X$X$X$X$+%X$7 ]+X$+%X$X$|%%%1%$%X$X$X$2%5+E.E.F.g$3%I.p.",
"4%4%P#P#v$S$S$T$P$5%X$X$X$6%7%>%w X$+%'%8%7 9%<%X$X$^%+%+%=%X$+%X$7 ]+X$+%X$X$#%8%8%=%X$X$X$0%n+o+%+E.&+F.*+y.",
"s$l 4%(%P#v$S$S$S$q$a%]+X$X$%%]%X$X$X$X$X$]+b%X$X$X$X$X$X$X$X$X$X$X$X$X$X$X$X$X$X$X$X$X$#%c%G#N+n+o+2+E.E.F.g$",
"C d%s$4%4%P#)%v$S$S$T$e%f%g%o.h%h%h%i%i%j%o k%l%m%+%+%n%o%0.0.p%q%q%r%s%t%t%u%z$n.v%v%v%w%=@=@-@N+N+n+o+%+E.F.",
"r$s x%s$l 4%(%P#v$S$S$T$x$_%Q$A$n$n$R#D#d$x#p#3$9#/$/$*$*$n@`#,@O+H#H#A#w#o#6#6#{#]#G@G@a+k@k@=@2@N+N+n+o+2+E.",
"y%y%z%C d%s$4%4%P#)%v$S$S$T$P$Q$Q$A$n$B$p d$d$x#3$9#S /$+#*$+$y ,@O+O+H#p+A%w#o#6#6#7#8#G@G@.#k@=@=@-@N+N+n+o+",
"Z y%y%r$s d%s$l 4%(%P#v$S$S$T$x$_%Q$A$n$n$R#D#d$x#p#3$9#/$/$*$*$n@`#,@O+H#H#A#w#o#6#6#{#]#G@G@a+k@k@=@2@N+N+n+",
"p$Z B%y%y%z%C d%s$4%4%P#)%v$S$S$T$P$Q$Q$A$n$B$p d$d$x#3$9#S /$+#*$+$`#,@O+O+H#p+w#w#o#6#6#7#8#G@G@.#k@=@2@-@N+",
"C%C%p$Z y%y%z%s d%s$l 4%(%P#v$S$S$T$x$_%Q$A$n$n$R#D#d$x#p#3$9#/$/$*$*$n@`#,@O+H#H#A#w#o#6#6#{#]#G@G@a+k@k@=@2@"};
