/* XPM */
static char * gPTRepeaterNM_1FGE_xpm[] = {
"55 67 489 2",
"  	c None",
". 	c #767676",
"+ 	c #777776",
"@ 	c #777777",
"# 	c #787878",
"$ 	c #767675",
"% 	c #767776",
"& 	c #757574",
"* 	c #757575",
"= 	c #747474",
"- 	c #737473",
"; 	c #747473",
"> 	c #737372",
", 	c #727272",
"' 	c #727271",
") 	c #717271",
"! 	c #727270",
"~ 	c #000000",
"{ 	c #626262",
"] 	c #3C3C3C",
"^ 	c #717170",
"/ 	c #626261",
"( 	c #70706F",
"_ 	c #010101",
": 	c #626160",
"< 	c #706F6F",
"[ 	c #717070",
"} 	c #0A0A0A",
"| 	c #626260",
"1 	c #6F6F6E",
"2 	c #706F6E",
"3 	c #414141",
"4 	c #111111",
"5 	c #6F6E6D",
"6 	c #454544",
"7 	c #181817",
"8 	c #636261",
"9 	c #6E6E6D",
"0 	c #6F6E6E",
"a 	c #484848",
"b 	c #1E1E1D",
"c 	c #636362",
"d 	c #6E6D6C",
"e 	c #6E6E6C",
"f 	c #4B4B4B",
"g 	c #242321",
"h 	c #646362",
"i 	c #6D6D6B",
"j 	c #6D6D6C",
"k 	c #707070",
"l 	c #4E4E4D",
"m 	c #272624",
"n 	c #6D6C6B",
"o 	c #646564",
"p 	c #6C6D6C",
"q 	c #5F5F5E",
"r 	c #585858",
"s 	c #60605F",
"t 	c #676767",
"u 	c #5E5E5E",
"v 	c #504F4E",
"w 	c #2A2927",
"x 	c #6C6C6B",
"y 	c #565656",
"z 	c #646464",
"A 	c #474747",
"B 	c #494949",
"C 	c #545454",
"D 	c #51514F",
"E 	c #363533",
"F 	c #666563",
"G 	c #6C6C6A",
"H 	c #565655",
"I 	c #5C5C5C",
"J 	c #313131",
"K 	c #585857",
"L 	c #444443",
"M 	c #4D4D4D",
"N 	c #5C5B5A",
"O 	c #6B6A69",
"P 	c #6B6B69",
"Q 	c #424241",
"R 	c #525252",
"S 	c #3A3A39",
"T 	c #6A6A69",
"U 	c #6A6A6A",
"V 	c #6A6A68",
"W 	c #6C6B69",
"X 	c #737373",
"Y 	c #6A6968",
"Z 	c #666665",
"` 	c #484847",
" .	c #3E3E3E",
"..	c #3D3C3C",
"+.	c #3A3A3A",
"@.	c #3B3A3A",
"#.	c #535252",
"$.	c #6A6867",
"%.	c #353434",
"&.	c #181716",
"*.	c #101010",
"=.	c #070707",
"-.	c #060606",
";.	c #696867",
">.	c #6A6967",
",.	c #636262",
"'.	c #2E2C2A",
").	c #262422",
"!.	c #20201E",
"~.	c #1A1918",
"{.	c #121212",
"].	c #020202",
"^.	c #303030",
"/.	c #696866",
"(.	c #6C6B6A",
"_.	c #6B6B6A",
":.	c #383636",
"<.	c #2A2826",
"[.	c #262523",
"}.	c #222120",
"|.	c #1C1B1A",
"1.	c #141414",
"2.	c #0C0C0C",
"3.	c #030303",
"4.	c #4D4D4C",
"5.	c #686866",
"6.	c #646463",
"7.	c #4A4A48",
"8.	c #444342",
"9.	c #434242",
"0.	c #424141",
"a.	c #404040",
"b.	c #515050",
"c.	c #686766",
"d.	c #676665",
"e.	c #686765",
"f.	c #666664",
"g.	c #676664",
"h.	c #676765",
"i.	c #666564",
"j.	c #696967",
"k.	c #646462",
"l.	c #525251",
"m.	c #313130",
"n.	c #2C2C2B",
"o.	c #2E2D2D",
"p.	c #30302F",
"q.	c #545452",
"r.	c #3C3C3B",
"s.	c #343333",
"t.	c #383837",
"u.	c #1C1C1C",
"v.	c #383838",
"w.	c #40403F",
"x.	c #50504F",
"y.	c #5A5A5A",
"z.	c #454545",
"A.	c #656462",
"B.	c #656563",
"C.	c #4C4C4B",
"D.	c #2D2D2C",
"E.	c #353534",
"F.	c #4C4C4A",
"G.	c #363636",
"H.	c #373636",
"I.	c #373736",
"J.	c #2D2C2C",
"K.	c #6C6C6C",
"L.	c #333333",
"M.	c #656463",
"N.	c #51504F",
"O.	c #363635",
"P.	c #515150",
"Q.	c #555554",
"R.	c #232222",
"S.	c #464645",
"T.	c #5B5B5A",
"U.	c #3F3F3E",
"V.	c #525150",
"W.	c #323231",
"X.	c #5E5E5C",
"Y.	c #323232",
"Z.	c #5A5A59",
"`.	c #343434",
" +	c #4C4B4B",
".+	c #474746",
"++	c #565554",
"@+	c #464544",
"#+	c #595958",
"$+	c #5A5958",
"%+	c #575656",
"&+	c #191918",
"*+	c #5C5C5A",
"=+	c #424040",
"-+	c #424140",
";+	c #424240",
">+	c #434241",
",+	c #414140",
"'+	c #414040",
")+	c #403F3F",
"!+	c #403F3E",
"~+	c #3F3E3E",
"{+	c #3E3D3D",
"]+	c #3D3D3D",
"^+	c #3B3B3A",
"/+	c #6E6E6E",
"(+	c #505050",
"_+	c #575655",
":+	c #4D4C4C",
"<+	c #535352",
"[+	c #545352",
"}+	c #3B3A39",
"|+	c #2D2B2A",
"1+	c #2C2B2A",
"2+	c #2C2A29",
"3+	c #2C2A28",
"4+	c #2C2B28",
"5+	c #312F2D",
"6+	c #535251",
"7+	c #525250",
"8+	c #50504E",
"9+	c #504E4E",
"0+	c #4F4E4E",
"a+	c #4E4E4C",
"b+	c #4E4D4C",
"c+	c #4C4C4C",
"d+	c #4C4B4A",
"e+	c #282827",
"f+	c #1C1C1A",
"g+	c #1A1A18",
"h+	c #181818",
"i+	c #181616",
"j+	c #161514",
"k+	c #141412",
"l+	c #424242",
"m+	c #3F3F3F",
"n+	c #252525",
"o+	c #565654",
"p+	c #888888",
"q+	c #343230",
"r+	c #6D6C6C",
"s+	c #8C8C8B",
"t+	c #7C7B7B",
"u+	c #6B6A6A",
"v+	c #696969",
"w+	c #302F2E",
"x+	c #636363",
"y+	c #626363",
"z+	c #616161",
"A+	c #606060",
"B+	c #8F8F8F",
"C+	c #363535",
"D+	c #6B6B6B",
"E+	c #383736",
"F+	c #2B2A29",
"G+	c #2B2A2A",
"H+	c #2B2A28",
"I+	c #2A2A28",
"J+	c #2A2926",
"K+	c #292826",
"L+	c #282725",
"M+	c #282724",
"N+	c #7A7A79",
"O+	c #252422",
"P+	c #242221",
"Q+	c #222220",
"R+	c #212120",
"S+	c #1F1E1E",
"T+	c #1D1C1C",
"U+	c #0E0E0E",
"V+	c #0C0D0D",
"W+	c #0B0B0B",
"X+	c #080808",
"Y+	c #848484",
"Z+	c #2A2A2A",
"`+	c #6A6B6A",
" @	c #0E0F0E",
".@	c #393938",
"+@	c #2A2928",
"@@	c #262524",
"#@	c #2B2A27",
"$@	c #151514",
"%@	c #141413",
"&@	c #151414",
"*@	c #161614",
"=@	c #61605F",
"-@	c #61615F",
";@	c #262423",
">@	c #0E0D0D",
",@	c #020201",
"'@	c #0C1204",
")@	c #0B1104",
"!@	c #131212",
"~@	c #282726",
"{@	c #0A0A09",
"]@	c #0D1304",
"^@	c #1C1C1B",
"/@	c #585756",
"(@	c #60605E",
"_@	c #1F1E1D",
":@	c #030402",
"<@	c #2E4510",
"[@	c #59841F",
"}@	c #669822",
"|@	c #6DA124",
"1@	c #639022",
"2@	c #2A3C0E",
"3@	c #050505",
"4@	c #242422",
"5@	c #283C0E",
"6@	c #57801E",
"7@	c #669722",
"8@	c #6CA024",
"9@	c #649322",
"0@	c #314611",
"a@	c #0D0E0D",
"b@	c #6A6969",
"c@	c #262625",
"d@	c #3D5B16",
"e@	c #5A8620",
"f@	c #649522",
"g@	c #6EA225",
"h@	c #77A92C",
"i@	c #7CAC30",
"j@	c #7CAD31",
"k@	c #3F5818",
"l@	c #080807",
"m@	c #1E1E1C",
"n@	c #354F13",
"o@	c #5A8520",
"p@	c #649422",
"q@	c #76A82B",
"r@	c #45601A",
"s@	c #494948",
"t@	c #585856",
"u@	c #605F5E",
"v@	c #20300C",
"w@	c #537B1E",
"x@	c #5E8B20",
"y@	c #689B22",
"z@	c #74A729",
"A@	c #7EAE32",
"B@	c #86B33A",
"C@	c #87B43C",
"D@	c #7EAE34",
"E@	c #172008",
"F@	c #1C1B19",
"G@	c #1A270A",
"H@	c #527A1D",
"I@	c #5C8A20",
"J@	c #689A22",
"K@	c #72A628",
"L@	c #7CAD32",
"M@	c #80AF34",
"N@	c #24330E",
"O@	c #696868",
"P@	c #4C4A49",
"Q@	c #5F5F5D",
"R@	c #3E5C17",
"S@	c #547D1E",
"T@	c #5F8D21",
"U@	c #6A9D23",
"V@	c #75A82A",
"W@	c #80B035",
"X@	c #8BB740",
"Y@	c #8CB841",
"Z@	c #82B036",
"`@	c #46621A",
" #	c #100F0E",
".#	c #365114",
"+#	c #527B1E",
"@#	c #699C22",
"##	c #74A72A",
"$#	c #7FAF34",
"%#	c #8AB63F",
"&#	c #8DB842",
"*#	c #82B137",
"=#	c #51731F",
"-#	c #040404",
";#	c #686867",
">#	c #5F5E5D",
",#	c #4B6F1C",
"'#	c #537B1D",
")#	c #5D8A20",
"!#	c #73A628",
"~#	c #84B239",
"{#	c #84B23A",
"]#	c #7DAE32",
"^#	c #587E20",
"/#	c #426218",
"(#	c #52791D",
"_#	c #5C8920",
":#	c #679922",
"<#	c #84B238",
"[#	c #7EAE33",
"}#	c #638E24",
"|#	c #4D4C4B",
"1#	c #5E5E5D",
"2#	c #030202",
"3#	c #446419",
"4#	c #50761D",
"5#	c #639422",
"6#	c #6DA024",
"7#	c #7AAB2E",
"8#	c #7AAB2F",
"9#	c #4A6E19",
"0#	c #0D0C0C",
"a#	c #4F761C",
"b#	c #58841F",
"c#	c #639222",
"d#	c #79AA2E",
"e#	c #547B1C",
"f#	c #686666",
"g#	c #5D5C5B",
"h#	c #5D5D5B",
"i#	c #5E5D5C",
"j#	c #2D4310",
"k#	c #4D721C",
"l#	c #659622",
"m#	c #6B9E23",
"n#	c #6B9F24",
"o#	c #26380C",
"p#	c #273A0E",
"q#	c #4C721C",
"r#	c #547C1E",
"s#	c #6A9E23",
"t#	c #6EA325",
"u#	c #6C9F24",
"v#	c #2F4610",
"w#	c #5D5D5C",
"x#	c #201F1E",
"y#	c #080C03",
"z#	c #46681A",
"A#	c #4E741C",
"B#	c #557E1E",
"C#	c #5C8820",
"D#	c #609021",
"E#	c #4E741A",
"F#	c #1A1A19",
"G#	c #050702",
"H#	c #547E1E",
"I#	c #5B8720",
"J#	c #608E21",
"K#	c #639322",
"L#	c #527B1C",
"M#	c #030501",
"N#	c #111110",
"O#	c #0F1706",
"P#	c #416118",
"Q#	c #56801E",
"R#	c #58831F",
"S#	c #426217",
"T#	c #1B1A19",
"U#	c #0F0F0E",
"V#	c #3E5C16",
"W#	c #4D731C",
"X#	c #58821F",
"Y#	c #466818",
"Z#	c #080D03",
"`#	c #090909",
" $	c #171615",
".$	c #040502",
"+$	c #182308",
"@$	c #26390E",
"#$	c #26380E",
"$$	c #141E07",
"%$	c #1D1C1B",
"&$	c #162108",
"*$	c #162008",
"=$	c #1D1C1A",
"-$	c #10100F",
";$	c #0C0B0B",
">$	c #0E0E0D",
",$	c #5B5A5A",
"'$	c #5B5A59",
")$	c #5A5A58",
"!$	c #595858",
"~$	c #363534",
"{$	c #31302E",
"]$	c #2B2928",
"^$	c #595857",
"/$	c #4B4A4A",
"($	c #4C4A4A",
"_$	c #4E4C4C",
":$	c #4F4E4D",
"<$	c #525050",
"[$	c #636361",
"}$	c #61605E",
"|$	c #646361",
"  . + @ @ # # # # # # # # # # # # # # # # # # # # # # # # # # # # # # # # # # # # # # # # # # # # # # # # # # ",
". . . + @ @ # # # # # # # # # # # # # # # # # # # # # # # # # # # # # # # # # # # # # # # # # # # # # # # # # ",
". $ . . % + @ @ # # # # # # # # # # # # # # # # # # # # # # # # # # # # # # # # # # # # # # # # # # # # # # # ",
". . $ . . . + @ @ # # # # # # # # # # # # # # # # # # # # # # # # # # # # # # # # # # # # # # # # # # # # # # ",
"$ $ . . $ . . % + @ @ # # # # # # # # # # # # # # # # # # # # # # # # # # # # # # # # # # # # # # # # # # # # ",
"& * $ $ . $ . . . + @ @ # # # # # # # # # # # # # # # # # # # # # # # # # # # # # # # # # # # # # # # # # # # ",
"= & & * $ . . $ . . % + @ @ # # # # # # # # # # # # # # # # # # # # # # # # # # # # # # # # # # # # # # # # # ",
"- ; = & * $ $ . $ . . . + @ @ # # # # # # # # # # # # # # # # # # # # # # # # # # # # # # # # # # # # # # # # ",
"> > - ; & & * $ . . $ . . % + @ @ # # # # # # # # # # # # # # # # # # # # # # # # # # # # # # # # # # # # # # ",
", , > - ; = & * $ $ . $ . . . + @ @ # # # # # # # # # # # # # # # # # # # # # # # # # # # # # # # # # # # # # ",
"' , , > > - ; & & * $ . . $ . . % @ @ @ # # # # # # # # # # # # # # # # # # # # # # # # # # # # # # # # # # # ",
"' ) ' , , > - ; = & * $ $ . $ . . . + @ @ # # # # # # # # # # # # # # # # # # # # # # # # # # # # # # # # # # ",
"! ' ) ' , , > > - ; & & * $ . . $ . . % @ @ @ # # # # # # # # # # # # # # # # # # # # # # # # # # # # # # # # ",
"~ { ' ' ) ' , , > - ; = & * $ $ . $ . . . + @ @ # # # # # # # # # # # # # # # # # # # # # # # # # # # # # # ] ",
"~ { ^ ^ ' ) ' , , > > - ; & & * $ . . $ . . % @ @ # # # # # # # # # # # # # # # # # # # # # # # # # # # # # ] ",
"~ / ( ^ ^ ' ' ) ' , , > - ; = & * $ $ . $ . . . + @ @ # # # # # # # # # # # # # # # # # # # # # # # # # # # ] ",
"_ : < ( [ ^ ^ ' ) ' , , > > - ; & & * $ . . $ . . % @ @ # # # # # # # # # # # # # # # # # # # # # # # # # # ] ",
"} | 1 2 ( ( ^ ^ ' ' ) ' , , > - ; = & * $ $ . $ . . . + @ @ # # # # # # # # # # # # # # # # # # # # # # # # 3 ",
"4 / 5 1 2 < ( [ ^ ^ ' ) ' , , > > - ; & & * $ . . $ . . + @ @ # # # # # # # # # # # # # # # # # # # # # # # 6 ",
"7 8 9 5 0 1 2 ( ( ^ ^ ' ' ) ' , , > - ; = & * $ $ . $ . . % + @ @ # # # # # # # # # # # # # # # # # # # # # a ",
"b c d e 9 5 1 2 < ( [ ^ ^ ' ) ' , , > > - ; & & * $ . . $ . . + @ @ # # # # # # # # # # # # # # # # # # # # f ",
"g h i j d 9 5 1 1 2 ( k ^ ^ ' ' ) ' , , > - ; = & * $ . . $ . . % + @ @ # # # # # # # # # # # # # # # # # # l ",
"m h n j i d e 9 5 1 2 < ( [ ^ ^ ' ) ' , , > o p ; q r k s t 1 u k . + @ @ # # # # # # # # # # # # # # # # # v ",
"w h x n j i j d 9 5 1 1 < ( k ^ ^ ' ' ) , , y z - a 6 A B r f C . . . % + @ @ # # # # # # # # # # # # # # # D ",
"E F G G n n j i d e 9 5 1 2 < ( [ ^ ^ ' ) ' H z > a a I J K L M . . . . . + @ @ # # # # # # # # # # # # # # N ",
"O O P G G x n j i d d 9 5 1 1 < ( k ^ ^ ' ' I Q R R R - S u T K U . . . . . % + @ @ # # # # # # # # # # # # # ",
"V T O P W G G n n j i d e 9 5 1 2 < ( [ ^ ^ ' ) ' , , > X ; = & & $ $ . . . . . + @ @ # # # # # # # # # # # # ",
"Y Y V O O P G G x n j i d d 9 5 1 1 < ( k ^ Z `  ...+.+.+.+.@.@.#., * $ . . . . . % + @ @ # # # # # # # # # # ",
"$.Y Y V T O P W G G n n j i d e 9 5 1 2 < x %.b &.*.=.~ ~ ~ ~ ~ -.l & * $ $ . . . . . + @ @ # # # # # # # # # ",
";.;.>.Y Y V O O P G G x n j i d d 9 5 1 1 ,.'.).!.~.{.} ].~ ~ ~ ~ ^.; & & * $ . . . . . % + @ @ # # # # # # # ",
"/.;.;.;.Y Y V T O P (.G G n i i i d e 9 5 _.:.<.[.}.|.1.2.3.~ ~ -.4.X ; = & * $ $ . . . . . + @ @ # # # # # # ",
"5./.;.;.;.>.Y Y V O O P G G x n j i d d 9 5 6.7.8.9.0.a. ...@.+.b.< > > - ; & & * $ . . $ . . % + @ @ # # # # ",
"c.5.5./.;.;.;.Y Y V T O P (.G G n j i i d e 9 5 1 2 ( ( [ ^ ' ' ) ' , , > - ; = & * $ $ . $ . . . + @ @ # # # ",
"d.e.c.5./.;.;.;.>.Y Y V O O P G G x n j i d e 9 5 1 1 < ( k ^ ^ ' ) ) , , > > - ; & & * $ . . $ . . % + @ @ # ",
"f.g.h.e.5.5./.;.;.;.Y Y V T O P (.G G n j i j d e 9 5 1 2 ( ( [ ^ ' ' ) ' , , > - ; = & * $ $ . $ . . . + @ @ ",
"i.i.g.d.e.c.5./.;.;.;.>.Y Y V O O P G G x n j i d e 9 5 1 1 < ( [ ^ ^ ' ) ) , , > > - ; & & * $ . . $ . . % + ",
"F i.i.f.g.h.e.5.5.;.;.;.j.Y Y V T k.b (.l.m.n.Y o.p.q.r.s.Q t.2 ( ( u.v.w.l.x.y.z., > - ; = & * $ $ . $ . . . ",
"A.B.F i.i.g.d.e.c.5./.;.;.;.>.Y Y C.D.P E.G F.w.C.j G.G.e H.I.^.J.K.m.{ T ^ v.L.' , , > > - ; & & * $ . . $ . ",
"A.A.M.B.i.i.g.g.h.e.5.5.;.;.;.j.Y Y E.T E.P N.O.P.n G.G.j G.I.n P.Q.R.S.T.^ v.L.' ) ' , , > - ; = & * $ $ . $ ",
"A.A.A.A.B.F i.f.g.d.e.c.5./.;.;.;.>.%.Y U.V.W.X.Y.l.a.m.Z.`.H.4.I.8 t.1 < l. +Z..+' ) ' , , > > - ; & & * $ . ",
"k.k.A.A.A.M.B.i.i.g.g.h.e.5.5.;.;.;.++Y 5..+H O Q.7.V s @+Z K x.#+e $+0 1 %+( ( r ^ ' ' ) ' , , > - ; = & * $ ",
"&+*+k.A.8.=+-+-+-+;+;+Q >+>+>+>+9.>+>+>+>+>+>+Q Q Q ;+;+-+-+-+-+,+'+'+a.w.w.)+!+~+~+ . .{+]+..] r.^+a./+; & (+",
"~ _+h k.Y.:+R #.<+<+<+[+}+|+1+1+2+3+4+5+6+6+7+V.N.N.8+8+9+0+a+b+c+C.d+e+f+g+h+i+j+k+h+l+3 a.m+]+] +.n+x - ; +.",
"~ o+8 h Y.p+, 9 9 9 /+/+L |+1+1+2+3+4+q+e d d j r+x x s+t+(.u+U U v+v+w+f+g+h+i+j+k+u.z x+y+{ z+A+B+C+D+> > +.",
"~ o+8 8 Y.p+E+F+G+1+1+1+1+|+1+1+2+3+4+3+H+I+J+K+L+M+m N+9+O+P+Q+R+!.S+T+f+g+h+i+j+k+{.*.U+V+W+X+-.Y+Z+_., , S ",
"-.++| | Y.p+E+F+G+1+1+1+1+|+1+1+2+3+4+3+H+I+J+K+L+M+m N+9+O+P+Q+R+!.S+T+f+g+h+i+j+k+{.*.U+V+W+X+-.Y+Z+`+' , ] ",
" @o+: : Y.p+.@F+G+1+1+1+1+|+1++@@@[.#@3+H+I+J+K+L+M+m N+9+O+P+Q+R+!.S+T+f+&+$@%@&@k+{.*.U+V+W+X+-.Y+Z+_.' ) a.",
"*@_+=@-@Y.p+6 F+G+1+1+1+1+;@>@,@'@)@].!@~@I+J+K+L+M+m N+9+O+P+Q+R+!.S+&+{@_ '@]@~ =.*.*.U+V+W+X+-.Y+Z+T ^ ' L ",
"^@/@(@=@Y.p+6 F+G+1+1+1+_@:@<@[@}@|@1@2@3@4@J+K+L+M+m N+9+O+P+Q+R+!.&.:@5@6@7@8@9@0@].a@U+V+W+X+-.Y+Z+b@^ ^ .+",
"Q+/@(@(@Y.p+6 F+G+1+1+c@:@d@e@f@g@h@i@j@k@l@K+K+L+M+m N+9+O+P+Q+R+m@3.n@o@p@|@q@i@j@r@].U+V+W+X+-.Y+Z+Y ( [ s@",
"[.t@u@(@Y.p+6 F+G+1+1+{.v@w@x@y@z@A@B@C@D@E@F@K+L+M+m N+9+O+P+Q+R+*.G@H@I@J@K@L@B@C@M@N@X+V+W+X+-.Y+Z+O@2 ( P@",
"K+/@Q@u@Y.p+6 F+G+1+1+-.R@S@T@U@V@W@X@Y@Z@`@ #K+L+M+m N+9+O+P+Q+R+=..#+#x@@###$#%#&#*#=#-#V+W+X+-.Y+Z+;#1 2 F.",
"3+/@>#Q@Y.p+6 F+G+1+1+~ ,#'#)#J@!#j@~#{#]#^#} K+L+M+m N+9+O+P+Q+R+-#/#(#_#:#K@i@<#{#[#}#].V+W+X+-.Y++.5.5 1 |#",
"N.*+1#1#Y.p+6 F+G+1+1+2#3#4#o@5#6#V@7#8#V@9#0#K+L+M+m N+9+O+P+Q+R+3@R@a#b#c#8@##d#8#q@e#3.V+W+X+-.Y+] f#e 9 f.",
"g#h#i#X.Y.p+6 F+G+1+1+0#j#k#S@)#l#m#g@g@n#o#$@K+L+M+m N+9+O+P+Q+R+2.p#q#r#_#p@s#g@t#u#v#-.V+W+X+-.Y+] d.d d 9 ",
"g#g#h#w#Y.p+6 F+G+1+1+x#y#z#A#B#C#D#p@p@E#:@[.K+L+M+m N+9+O+P+Q+R+F#G#3#A#H#I#J#K#p@L#M#2.V+W+X+-.Y+] Z j i d ",
"*+g#g#g#Y.p+6 F+G+1+1+1+N#O#P#A#H@Q#R#S#y#T#J+K+L+M+m N+9+O+P+Q+R+!.U#'@V#W#H@Q#X#Y#Z#`#U+V+W+X+-.Y+] Z n j i ",
"*+*+*+g#Y.p+6 F+G+1+1+1+1+ $.$+$@$#$$$-#%$I+J+K+L+M+m N+9+O+P+Q+R+!.S+*.:@&$@$p#*$_ } *.U+V+W+X+-.Y+] f.G n n ",
"N *+*+*+Y.p+6 F+G+1+1+1+1+|+~@~.j+j+=$w H+I+J+K+L+M+m N+9+O+P+Q+R+!.S+T+g+-$2.;$>${.{.*.U+V+W+X+-.Y+] B.G G x ",
",$T.N *+Y.p+6 F+G+1+1+1+1+|+1+1+2+3+4+3+H+I+J+K+L+M+m N+9+O+P+Q+R+!.S+T+f+g+h+i+j+k+{.*.U+V+W+X+-.Y+] M.P (.G ",
"Z.'$T.N Y.p+6 F+G+1+1+1+1+|+1+1+2+3+4+3+H+I+J+K+L+M+m N+9+O+P+Q+R+!.S+T+f+g+h+i+j+k+{.*.U+V+W+X+-.Y+] k.O O P ",
")$)$'$'$Y.p+6 F+G+1+1+1+1+|+1+1+2+3+4+3+H+I+J+K+L+M+m N+9+O+P+Q+R+!.S+T+f+g+h+i+j+k+{.*.U+V+W+X+-.Y+] h V T O ",
"$+)$)$Z.Y.p+6 F+G+1+1+1+1+|+1+1+2+3+4+3+H+I+J+K+L+M+m N+9+O+P+Q+R+!.S+T+f+g+h+i+j+k+{.*.U+V+W+X+-.Y+] h Y Y V ",
"!$#+$+)$Y.~$D.F+G+1+1+1+1+|+1+1+2+3+4+3+H+I+J+K+L+M+m {$]$O+P+Q+R+!.S+T+f+g+h+i+j+k+{.*.U+V+W+X+-.1.u.,.;.Y Y ",
"K ^$!$#+/$/$/$($d+d+d+F.F.C.C.C.C.:+:+:+_$b+b+b+a+l a+l l :$0+0+9+9+v v 8+8+8+8+8+x.N.b.b.b.<$V.V.V.7+f.;.;.>.",
"t@t@K ^$#+$+)$)$'$'$T.N *+*+*+g#g#h#i#i#1#>#Q@Q@u@(@(@(@=@=@: : | 8 8 [$h k.k.A.A.A.M.B.i.i.f.g.h.e.5.5.;.;.;.",
"t@t@t@K ^$!$#+)$)$Z.'$T.N *+*+*+g#g#h#w#i#X.1#>#Q@u@u@(@(@}$=@-@: | | 8 8 |$h k.A.A.A.A.B.F i.i.g.d.e.c.5./.;."};
