/* XPM */
static char * gPTSwitchNM_1CGE_xpm[] = {
"55 67 585 2",
"  	c None",
". 	c #767676",
"+ 	c #777776",
"@ 	c #777777",
"# 	c #787878",
"$ 	c #767675",
"% 	c #767776",
"& 	c #757574",
"* 	c #757575",
"= 	c #747474",
"- 	c #737473",
"; 	c #747473",
"> 	c #737372",
", 	c #707070",
"' 	c #727272",
") 	c #5A5A5A",
"! 	c #3C3C3C",
"~ 	c #272727",
"{ 	c #4B4B4B",
"] 	c #696969",
"^ 	c #6D6D6D",
"/ 	c #2E2E2E",
"( 	c #727271",
"_ 	c #404040",
": 	c #505050",
"< 	c #313131",
"[ 	c #252525",
"} 	c #717271",
"| 	c #595959",
"1 	c #424242",
"2 	c #1A1A1A",
"3 	c #474747",
"4 	c #5E5E5E",
"5 	c #727270",
"6 	c #161616",
"7 	c #383838",
"8 	c #000000",
"9 	c #626262",
"0 	c #6F6F6E",
"a 	c #595958",
"b 	c #6C6C6C",
"c 	c #6B6B6B",
"d 	c #717170",
"e 	c #626261",
"f 	c #70706F",
"g 	c #010101",
"h 	c #626160",
"i 	c #706F6F",
"j 	c #717070",
"k 	c #0A0A0A",
"l 	c #626260",
"m 	c #706F6E",
"n 	c #646464",
"o 	c #60605F",
"p 	c #606060",
"q 	c #616161",
"r 	c #626161",
"s 	c #6C6B6B",
"t 	c #414141",
"u 	c #111111",
"v 	c #6F6E6D",
"w 	c #525150",
"x 	c #282726",
"y 	c #1D1C1C",
"z 	c #0D0D0D",
"A 	c #080707",
"B 	c #191818",
"C 	c #636363",
"D 	c #454544",
"E 	c #181817",
"F 	c #636261",
"G 	c #6E6E6D",
"H 	c #6F6E6E",
"I 	c #383736",
"J 	c #262523",
"K 	c #20201F",
"L 	c #1A1A19",
"M 	c #121212",
"N 	c #090909",
"O 	c #484848",
"P 	c #1E1E1D",
"Q 	c #636362",
"R 	c #6E6D6C",
"S 	c #6E6E6C",
"T 	c #484746",
"U 	c #2C2A28",
"V 	c #272624",
"W 	c #222220",
"X 	c #1C1C1B",
"Y 	c #141414",
"Z 	c #0C0C0C",
"` 	c #020202",
" .	c #565656",
"..	c #242321",
"+.	c #646362",
"@.	c #6D6D6B",
"#.	c #6D6D6C",
"$.	c #6E6E6E",
"%.	c #545252",
"&.	c #464444",
"*.	c #444443",
"=.	c #434342",
"-.	c #424141",
";.	c #40403F",
">.	c #3E3D3D",
",.	c #3C3B3B",
"'.	c #585757",
").	c #4E4E4D",
"!.	c #6D6C6B",
"~.	c #737373",
"{.	c #504F4E",
"].	c #2A2927",
"^.	c #6C6C6B",
"/.	c #51514F",
"(.	c #363533",
"_.	c #666563",
":.	c #6C6C6A",
"<.	c #808080",
"[.	c #B7B9BA",
"}.	c #AFB0B2",
"|.	c #5C5B5A",
"1.	c #6B6A69",
"2.	c #6B6B69",
"3.	c #80807F",
"4.	c #A6A8A8",
"5.	c #D3D2D2",
"6.	c #D4D3D2",
"7.	c #D4D4D3",
"8.	c #D5D4D4",
"9.	c #D6D5D4",
"0.	c #D6D5D5",
"a.	c #D7D6D6",
"b.	c #D7D7D6",
"c.	c #D8D8D7",
"d.	c #D8D8D8",
"e.	c #D9D8D8",
"f.	c #DAD9D9",
"g.	c #DADADA",
"h.	c #DBDADA",
"i.	c #DCDBDB",
"j.	c #DDDCDC",
"k.	c #DEDDDD",
"l.	c #DEDDDE",
"m.	c #DEDEDE",
"n.	c #DFDEE0",
"o.	c #E0DFE0",
"p.	c #E0E0E0",
"q.	c #E1E0E0",
"r.	c #DCDBDC",
"s.	c #6A6A68",
"t.	c #6A6A69",
"u.	c #6C6B69",
"v.	c #868687",
"w.	c #D7D5D5",
"x.	c #D9D8D7",
"y.	c #DAD8D8",
"z.	c #DAD9D8",
"A.	c #DBD9D9",
"B.	c #DCDADA",
"C.	c #DCDCDB",
"D.	c #DDDCDB",
"E.	c #DFDEDE",
"F.	c #DFDFDF",
"G.	c #E0DFDF",
"H.	c #E2E1E0",
"I.	c #E3E2E2",
"J.	c #E4E2E3",
"K.	c #E4E3E3",
"L.	c #E5E4E5",
"M.	c #E6E4E5",
"N.	c #E6E5E6",
"O.	c #E7E6E6",
"P.	c #6A6968",
"Q.	c #7F7F7E",
"R.	c #CDCBCB",
"S.	c #B0AFAF",
"T.	c #B1B0B0",
"U.	c #B2B1B0",
"V.	c #B3B2B0",
"W.	c #B3B2B1",
"X.	c #B4B2B2",
"Y.	c #B4B3B3",
"Z.	c #B4B4B3",
"`.	c #B4B4B4",
" +	c #B6B4B4",
".+	c #B6B5B5",
"++	c #B6B6B6",
"@+	c #B7B6B6",
"#+	c #B8B6B6",
"$+	c #B8B7B7",
"%+	c #B9B8B8",
"&+	c #B9B8B9",
"*+	c #BAB9B9",
"=+	c #BABABA",
"-+	c #BBBABA",
";+	c #BCBABB",
">+	c #BCBBBB",
",+	c #CCCBCB",
"'+	c #6A6867",
")+	c #7E7F7E",
"!+	c #D4D3D3",
"~+	c #AFAEAE",
"{+	c #333130",
"]+	c #2F2E2C",
"^+	c #2E2E2C",
"/+	c #2E2D2B",
"(+	c #2E2C2A",
"_+	c #2D2C2A",
":+	c #2C2B2A",
"<+	c #2C2B29",
"[+	c #2B2A28",
"}+	c #2A2A28",
"|+	c #2A2828",
"1+	c #282827",
"2+	c #262625",
"3+	c #262524",
"4+	c #252423",
"5+	c #232322",
"6+	c #222221",
"7+	c #212020",
"8+	c #201F1E",
"9+	c #1E1E1E",
"0+	c #191919",
"a+	c #181818",
"b+	c #777676",
"c+	c #696867",
"d+	c #6A6967",
"e+	c #7E7E7D",
"f+	c #D4D2D2",
"g+	c #AEADAD",
"h+	c #302E2D",
"i+	c #2A2826",
"j+	c #292825",
"k+	c #282725",
"l+	c #282624",
"m+	c #272623",
"n+	c #252422",
"o+	c #242322",
"p+	c #232221",
"q+	c #212120",
"r+	c #1F1E1E",
"s+	c #1E1D1C",
"t+	c #1C1C1A",
"u+	c #191817",
"v+	c #171716",
"w+	c #161514",
"x+	c #141413",
"y+	c #121211",
"z+	c #101010",
"A+	c #0E0E0E",
"B+	c #767474",
"C+	c #696866",
"D+	c #868686",
"E+	c #D3D2D1",
"F+	c #AEADAC",
"G+	c #302F2E",
"H+	c #2A2926",
"I+	c #292826",
"J+	c #292725",
"K+	c #282724",
"L+	c #262422",
"M+	c #242221",
"N+	c #1D1C1B",
"O+	c #1B1B1A",
"P+	c #1A1918",
"Q+	c #171615",
"R+	c #121312",
"S+	c #0F100F",
"T+	c #767575",
"U+	c #686866",
"V+	c #7D7D7D",
"W+	c #858686",
"X+	c #D2D1D0",
"Y+	c #ADACAC",
"Z+	c #696034",
"`+	c #685F33",
" @	c #5A532F",
".@	c #413D29",
"+@	c #4C462C",
"@@	c #4D462B",
"#@	c #3E3A28",
"$@	c #58502D",
"%@	c #2E2C23",
"&@	c #635A2F",
"*@	c #1F1F1E",
"=@	c #6F6430",
"-@	c #6D622F",
";@	c #181716",
">@	c #161515",
",@	c #AEB0B2",
"'@	c #686766",
")@	c #7D7D7C",
"!@	c #D1D0CF",
"~@	c #ACACAB",
"{@	c #2C2A29",
"]@	c #847738",
"^@	c #847637",
"/@	c #716533",
"(@	c #4D472C",
"_@	c #5E552F",
":@	c #5F562F",
"<@	c #4A442A",
"[@	c #706532",
"}@	c #363325",
"|@	c #827435",
"1@	c #948338",
"2@	c #938238",
"3@	c #1C1B1A",
"4@	c #1A1A18",
"5@	c #171616",
"6@	c #151514",
"7@	c #131312",
"8@	c #676665",
"9@	c #686765",
"0@	c #D0CFCF",
"a@	c #ACABAA",
"b@	c #786A32",
"c@	c #776A32",
"d@	c #2B2A27",
"e@	c #675D30",
"f@	c #49432B",
"g@	c #564E2C",
"h@	c #574F2C",
"i@	c #464029",
"j@	c #665C2E",
"k@	c #353225",
"l@	c #756830",
"m@	c #847533",
"n@	c #202020",
"o@	c #847432",
"p@	c #1E1E1C",
"q@	c #1B1A19",
"r@	c #191918",
"s@	c #181717",
"t@	c #161615",
"u@	c #AFB0B1",
"v@	c #666664",
"w@	c #676664",
"x@	c #676765",
"y@	c #7C7C7C",
"z@	c #CFCECE",
"A@	c #ABAAAA",
"B@	c #2F2F2E",
"C@	c #2B2B2A",
"D@	c #6B602F",
"E@	c #6C602E",
"F@	c #5E552D",
"G@	c #45402A",
"H@	c #50492B",
"I@	c #50492A",
"J@	c #423D28",
"K@	c #5D542B",
"L@	c #343125",
"M@	c #6A5E2C",
"N@	c #76692E",
"O@	c #76682E",
"P@	c #E6E5E5",
"Q@	c #AEB0B1",
"R@	c #666564",
"S@	c #7C7C7B",
"T@	c #848686",
"U@	c #CECDCC",
"V@	c #CFCECD",
"W@	c #2F2E2E",
"X@	c #2B2A29",
"Y@	c #2B2B29",
"Z@	c #685D2E",
"`@	c #5C522C",
" #	c #443E2A",
".#	c #4F482B",
"+#	c #4E472A",
"@#	c #5A512B",
"##	c #343226",
"$#	c #665B2C",
"%#	c #72652D",
"&#	c #CCCCCB",
"*#	c #CDCDCC",
"=#	c #AAA9A8",
"-#	c #2E2E2D",
";#	c #2A2A29",
">#	c #34312A",
",#	c #322F29",
"'#	c #2F2D28",
")#	c #302E28",
"!#	c #2E2C28",
"~#	c #302E27",
"{#	c #302E26",
"]#	c #302E25",
"^#	c #2F2C24",
"/#	c #252322",
"(#	c #222120",
"_#	c #E4E3E4",
":#	c #656462",
"<#	c #656563",
"[#	c #A9A8A7",
"}#	c #292929",
"|#	c #2A2928",
"1#	c #232220",
"2#	c #E3E2E3",
"3#	c #DFDEDF",
"4#	c #656463",
"5#	c #7B7B7A",
"6#	c #CBCBCA",
"7#	c #A8A8A7",
"8#	c #2A2929",
"9#	c #E3E2E1",
"0#	c #7B7A7A",
"a#	c #848586",
"b#	c #CACAC9",
"c#	c #A7A7A6",
"d#	c #E2E0E0",
"e#	c #E2E2E1",
"f#	c #646462",
"g#	c #7A7A7A",
"h#	c #C9C9C8",
"i#	c #CACAC8",
"j#	c #A7A6A6",
"k#	c #5C5C5A",
"l#	c #7A7A79",
"m#	c #A6A6A5",
"n#	c #2A2A27",
"o#	c #DCDADB",
"p#	c #575655",
"q#	c #7A7A78",
"r#	c #A6A6A4",
"s#	c #767574",
"t#	c #AEB0B0",
"u#	c #3A3A3A",
"v#	c #565654",
"w#	c #7A7978",
"x#	c #636361",
"y#	c #3A3A39",
"z#	c #060606",
"A#	c #565554",
"B#	c #797978",
"C#	c #B3B3B2",
"D#	c #5B5A5A",
"E#	c #2C2B2B",
"F#	c #4E4D4C",
"G#	c #747272",
"H#	c #747372",
"I#	c #757373",
"J#	c #757473",
"K#	c #767473",
"L#	c #757474",
"M#	c #9D9C9C",
"N#	c #0E0F0E",
"O#	c #949493",
"P#	c #D8D7D6",
"Q#	c #DBD9D8",
"R#	c #161614",
"S#	c #61605F",
"T#	c #61615F",
"U#	c #787877",
"V#	c #D8D6D6",
"W#	c #585756",
"X#	c #60605E",
"Y#	c #D7D6D5",
"Z#	c #D7D5D6",
"`#	c #474746",
" $	c #323131",
".$	c #303030",
"+$	c #30302F",
"@$	c #737272",
"#$	c #D6D4D4",
"$$	c #494948",
"%$	c #585856",
"&$	c #605F5E",
"*$	c #C2C2C1",
"=$	c #B7B7B6",
"-$	c #B8B7B6",
";$	c #B8B8B7",
">$	c #B9B9B8",
",$	c #BABAB9",
"'$	c #BCBBBA",
")$	c #BDBCBC",
"!$	c #BEBCBC",
"~$	c #BEBEBC",
"{$	c #BFBEBD",
"]$	c #C6C5C4",
"^$	c #4C4A49",
"/$	c #5F5F5D",
"($	c #CAC9C8",
"_$	c #D1D1D0",
":$	c #4C4C4A",
"<$	c #5F5E5D",
"[$	c #7E7F80",
"}$	c #9A9A9A",
"|$	c #9C9B9A",
"1$	c #9C9C9B",
"2$	c #9C9C9C",
"3$	c #9D9D9C",
"4$	c #9E9E9D",
"5$	c #9F9E9E",
"6$	c #A09F9E",
"7$	c #A0A09F",
"8$	c #A1A0A0",
"9$	c #A1A1A0",
"0$	c #A2A1A1",
"a$	c #A2A2A2",
"b$	c #A3A2A2",
"c$	c #B0B0B0",
"d$	c #AEAFB0",
"e$	c #4D4C4B",
"f$	c #51504F",
"g$	c #5E5E5D",
"h$	c #999A9A",
"i$	c #949596",
"j$	c #949696",
"k$	c #959696",
"l$	c #959697",
"m$	c #969697",
"n$	c #969797",
"o$	c #969798",
"p$	c #969898",
"q$	c #9C9D9E",
"r$	c #9D9E9E",
"s$	c #5D5C5B",
"t$	c #5D5D5B",
"u$	c #5E5D5C",
"v$	c #5E5E5C",
"w$	c #515150",
"x$	c #848484",
"y$	c #A6A6A6",
"z$	c #ACACAC",
"A$	c #A4A4A4",
"B$	c #858584",
"C$	c #5D5D5C",
"D$	c #555454",
"E$	c #D7D7D7",
"F$	c #FFFFFF",
"G$	c #F7F7F7",
"H$	c #9B9B9B",
"I$	c #878787",
"J$	c #CFCFCF",
"K$	c #C3C3C3",
"L$	c #B7B7B7",
"M$	c #9F9F9F",
"N$	c #DBDBDB",
"O$	c #ABABAB",
"P$	c #F3F3F3",
"Q$	c #D9D9D9",
"R$	c #5A5A58",
"S$	c #EFEFEF",
"T$	c #7B7B7B",
"U$	c #B3B3B3",
"V$	c #939393",
"W$	c #E3E3E3",
"X$	c #A7A7A7",
"Y$	c #A3A3A3",
"Z$	c #525251",
"`$	c #7F7F7F",
" %	c #BFBFBF",
".%	c #E7E7E7",
"+%	c #8F8F8F",
"@%	c #6F6F6F",
"#%	c #C7C7C7",
"$%	c #8B8B8B",
"%%	c #D3D3D3",
"&%	c #C1C1C1",
"*%	c #5B5B5A",
"=%	c #838383",
"-%	c #676767",
";%	c #6C6B6A",
">%	c #5A5A59",
",%	c #5B5A59",
"'%	c #585857",
")%	c #FBFBFB",
"!%	c #464645",
"~%	c #474646",
"{%	c #484846",
"]%	c #484847",
"^%	c #494848",
"/%	c #4A4948",
"(%	c #4A4A48",
"_%	c #4B4A49",
":%	c #4B4B4A",
"<%	c #4C4B4A",
"[%	c #4C4C4B",
"}%	c #4D4D4C",
"|%	c #5A5958",
"1%	c #646361",
"2%	c #595858",
"3%	c #595857",
"4%	c #61605E",
"  . + @ @ # # # # # # # # # # # # # # # # # # # # # # # # # # # # # # # # # # # # # # # # # # # # # # # # # # ",
". . . + @ @ # # # # # # # # # # # # # # # # # # # # # # # # # # # # # # # # # # # # # # # # # # # # # # # # # ",
". $ . . % + @ @ # # # # # # # # # # # # # # # # # # # # # # # # # # # # # # # # # # # # # # # # # # # # # # # ",
". . $ . . . + @ @ # # # # # # # # # # # # # # # # # # # # # # # # # # # # # # # # # # # # # # # # # # # # # # ",
"$ $ . . $ . . % + @ @ # # # # # # # # # # # # # # # # # # # # # # # # # # # # # # # # # # # # # # # # # # # # ",
"& * $ $ . $ . . . + @ @ # # # # # # # # # # # # # # # # # # # # # # # # # # # # # # # # # # # # # # # # # # # ",
"= & & * $ . . $ . . % + @ @ # # # # # # # # # # # # # # # # # # # # # # # # # # # # # # # # # # # # # # # # # ",
"- ; = & * $ $ . $ . . . + @ @ # # # # # # # # # # # # # # # # # # # # # # # # # # # # # # # # # # # # # # # # ",
"> > - ; & & * $ . . $ . . % + @ @ # # # = = # # , = ' # ' . , # ' ' # # # # # # # # # # # # # # # # # # # # # ",
"' ' > - ; = & * $ $ . $ . . . + @ @ # # ) ) # # ! ) ~ # { ] ! ^ / ' # # # # # # # # # # # # # # # # # # # # # ",
"( ' ' > > - ; & & * $ . . $ . . % @ @ @ ) ) # # ! ) _ : { ] < [ ' # # # # # # # # # # # # # # # # # # # # # # ",
"( } ( ' ' > - ; = & * $ $ . $ . . . + @ | ) # # ! ) ) _ 1 ] 2 3 4 # # # # # # # # # # # # # # # # # # # # # # ",
"5 ( } ( ' ' > > - ; & & * $ . . $ . . % | 1 ) ^ ! ) ) ' 6 ] ! # 7 , # # # # # # # # # # # # # # # # # # # # # ",
"8 9 ( ( } ( ' ' > - ; = & * $ $ . $ . . 0 a | b ] , , # ] = ] # ' c # # # # # # # # # # # # # # # # # # # # ! ",
"8 9 d d ( } ( ' ' > > - ; & & * $ . . $ . . % @ @ # # # # # # # # # # # # # # # # # # # # # # # # # # # # # ! ",
"8 e f d d ( ( } ( ' ' > - ; = & * $ $ . $ . . . + @ @ # # # # # # # # # # # # # # # # # # # # # # # # # # # ! ",
"g h i f j d d ( } ( ' ' > > - ; & & * $ . . $ . . % @ @ # # # # # # # # # # # # # # # # # # # # # # # # # # ! ",
"k l 0 m f f d d ( ( } ( ' ' > - ; = & * $ $ n o p p p p p q r s # # # # # # # # # # # # # # # # # # # # # # t ",
"u e v 0 m i f j d d ( } ( ' ' > > - ; & & w x y 6 z A A A A A B C # # # # # # # # # # # # # # # # # # # # # D ",
"E F G v H 0 m f f d d ( ( } ( ' ' > - ; = I J K L M N g 8 8 8 8 t # # # # # # # # # # # # # # # # # # # # # O ",
"P Q R S G v 0 m i f j d d ( } ( ' ' > > - T U V W X Y Z ` 8 8 k  .@ # # # # # # # # # # # # # # # # # # # # { ",
"..+.@.#.R G v 0 0 m f , d d ( ( } ( ' ' > $.%.&.*.=.-.;.>.,.>.'.$ + @ @ # # # # # # # # # # # # # # # # # # ).",
"V +.!.#.@.R S G v 0 m i f j d d ( } ( ' ' > ~.- ; & & * $ . . $ . . + @ @ # # # # # # # # # # # # # # # # # {.",
"].+.^.!.#.@.#.R G v 0 0 i f , d d ( ( } ' ' ' > - ; = & * $ . . . . . % + @ @ # # # # # # # # # # # # # # # /.",
"(._.:.:.!.!.#.@.<.[.[.[.[.[.[.[.[.[.[.[.[.[.[.[.[.[.[.[.[.[.[.[.[.[.[.[.[.[.[.[.[.[.[.[.[.[.}.# # # # # # # |.",
"1.1.2.:.:.^.!.#.3.4.5.6.7.8.9.0.a.a.b.c.d.e.f.g.h.i.j.k.l.m.n.o.p.q.q.q.q.q.q.q.q.q.q.q.q.r.}.# # # # # # # # ",
"s.t.1.2.u.:.:.!.3.v.9.w.a.x.y.z.A.B.B.C.D.j.k.E.F.G.q.H.I.J.K.L.M.N.O.O.O.O.O.O.O.O.O.O.O.q.}.# # # # # # # # ",
"P.P.s.1.1.2.:.:.Q.v.8.9.R.S.T.U.V.W.X.X.Y.Z.`. +.+++@+#+$+%+&+*+=+-+;+>+>+>+>+>+>+>+,+O.O.q.}.# # # # # # # # ",
"'+P.P.s.t.1.2.u.)+v.!+8.~+{+]+]+^+/+(+_+:+<+[+}+|+1+x 2+3+4+5+6+7+8+9+y X 2 0+a+6 Y b+O.O.q.}.# # # # # # # # ",
"c+c+d+P.P.s.1.1.e+v.f+6.g+h+U U [+].i+j+k+l+m+J n+o+p+q+K r+s+t+L u+v+w+x+y+z+A+Z k B+O.O.q.}.@ # # # # # # # ",
"C+c+c+c+P.P.s.t.e+D+E+5.F+G+U U U U [+H+I+J+K+V m+L+n+M+W 7+K P N+O+P+E Q+Y R+u S+A+T+O.O.q.}.@ @ # # # # # # ",
"U+C+c+c+c+d+P.P.V+W+X+X+Y+G+:+<+U U U [+Z+H+`+k+ @.@+@@@#@$@%@&@*@=@X -@B ;@>@x+M z+. O.O.q.,@% + @ @ # # # # ",
"'@U+U+C+c+c+c+P.)@W+!@X+~@G+:+:+<+{@U U ]@[+^@i+/@(@_@:@<@[@}@|@q+1@P 2@3@4@E 5@6@7@. O.O.q.,@. . + @ @ # # # ",
"8@9@'@U+C+c+c+c+)@W+0@!@a@G+:+:+:+:+<+U b@U c@d@e@f@g@h@i@j@k@l@M+m@n@o@p@X q@r@s@t@b+O.O.q.u@$ . . % + @ @ # ",
"v@w@x@9@U+U+C+c+y@W+z@0@A@B@C@:+:+:+:+<+D@U E@U F@G@H@I@J@K@L@M@n+N@p+O@K r+s+t+L u+b+P@O.q.Q@. $ . . . + @ @ ",
"R@R@w@8@9@'@U+C+S@T@U@V@A@W@X@Y@C@:+:+:+Z@<+Z@U `@ #.#+#J@@###$#m+%#n+%#W 7+K P N+O+. L.P@p.Q@$ . . $ . . % + ",
"_.R@R@v@w@x@9@U+S@T@&#*#=#-#;#X@X@C@:+:+>#:+>#<+,#'#)#)#!#~#H+{#K+]#J ^#/#p+(#K *@s+b+_#L.o.Q@* $ $ . $ . . . ",
":#<#_.R@R@w@8@9@S@T@&#&#[#/ }#|#;#X@Y@C@:+:+:+:+<+{@U U U [+].i+j+K+l+m+L+n+..1#q+K . 2#K.3#Q@& & * $ . . $ . ",
":#:#4#<#R@R@w@w@5#T@6#&#7#/ 8#}#|#|#X@X@C@C@:+:+:+:+<+U U U [+d@H+I+k+K+V J L+n+M+W b+9#2#m.Q@; = & * $ $ . $ ",
":#:#:#:#<#_.R@v@0#a#b#6#c#/ 8#8#8#8#|#;#X@Y@C@:+:+:+:+<+{@U U U [+].i+j+k+l+m+J n+o+T+d#e#k.Q@> - ; & & * $ . ",
"f#f#:#:#:#4#<#R@g#a#h#i#j#/ 8#8#8#8#8#|#|#;#X@Y@C@:+:+:+:+<+U U U U [+H+I+J+K+V m+L+$ G.q.j.Q@' > - ; = & * $ ",
"r@k#f#:#:#:#:#<#l#a#h#h#m#/ 8#8#8#8#8#8#}#|#;#X@X@C@:+:+:+:+:+<+U U U [+n#H+I+k+K+V T+E.G.o#Q@' ' > > - ; & : ",
"8 p#+.f#:#:#:#:#q#a#h#h#r#/ 8#8#8#8#8#8#8#8#}#|#;#X@Y@C@:+:+:+:+<+{@U U U [+].i+j+K+s#k.E.g.t#} ( ' ' > - ; u#",
"8 v#F +.f#f#:#:#w#a#h#h#r#/ 8#8#8#8#8#8#8#8#8#}#|#|#X@X@C@C@:+:+:+:+<+U U U [+d@H+I+s#j.k.f.t#( } ( ' ' > > u#",
"8 v#F F x#+.f#:#w#a#h#h#r#/ 8#8#8#8#8#8#8#8#8#8#8#8#|#;#X@Y@C@:+:+:+:+<+{@U U U [+].B+C.j.e.t#d ( ( } ( ' ' y#",
"z#A#l l F F +.f#B#a#h#h#C#$.G G G G $.D#E#8#8#8#8#8#8#|#|#;#X@Y@C@:+:+F#G#H#I#J#K#L#M#i.C.d.t#j d d ( } ( ' ! ",
"N#v#h h l F F x## a#h#h#h#h#h#h#h#h#h#O#E#8#8#8#8#8#8#8#}#|#;#X@X@C@:+G#9.w.P#x.z.Q#A.B.i.b.t#f f d d ( ( } _ ",
"R#p#S#T#h l l F U#a#h#h#h#h#h#h#h#h#h#O#E#8#8#8#8#8#8#8#8#8#}#|#;#X@Y@' 8.9.w.V#x.y.z.A.B.a.t#m i f j d d ( *.",
"X W#X#S#S#h h l U#a#h#h#h#h#h#h#h#h#h#O#E#8#8#8#8#8#8#8#8#8#8#}#|#|#X@( 7.8.9.0.Y#P#y.z.A.Z#t#H 0 m f f d d `#",
"W W#X#X#S#S#T#h + a#h#h#h#h#h#h#h#h#h#O# $.$.$.$.$.$.$.$.$.$.$.$.$+$+$@$6.!+8.#$0.w.P#x.z.0.t#G v 0 m i f j $$",
"J %$&$X#X#X#S#S#+ a#h#h#h#h#h#h#h#h#h#*$=$=$=$-$;$>$>$,$,$-+'$)$!$~${$]$E+6.!+8.#$9.w.P#x.8.t#R G v 0 0 m f ^$",
"I+W#/$&$X#X#X#S#. a#h#h#h#h#h#h#h#h#h#h#h#h#h#h#h#($b#6#&#&#*#V@z@0@!@_$X+E+5.6.8.8.9.w.a.7.t#@.R S G v 0 m :$",
"U W#<$/$&$&$X#X#$ [$}$}$}$}$}$}$}$}$}$}$}$}$}$}$}$}$|$1$2$2$M#3$4$5$5$6$7$7$8$9$0$0$a$b$b$c$d$#.@.#.R G v 0 e$",
"f$k#g$g$<$/$&$X#, h$i$i$j$j$j$j$j$j$j$j$j$k$k$k$k$k$k$l$l$m$n$n$n$o$o$o$o$o$p$p$p$p$p$p$p$q$r$!.!.#.@.R S G v@",
"s$t$u$v$g$<$/$&$&$X#w$x$y$~@~@~@z$z$z$z$z$z$z$z$z$z$z$z$z$z$z$z$z$z$z$z$z$z$z$z$z$z$z$A$B$%$:.:.^.!.#.@.R R G ",
"s$s$t$C$u$g$g$<$/$D$E$F$F$G$H$I$F.F$J$F$K$<.L$F$F$F$M$M$M$N$M$M$O$N$P$F$J$F$F$F$L$K$F$F$F$Q$R$u.:.:.!.!.#.@.R ",
"k#s$s$s$t$u$v$g$C$A$F$F$F$~.N$S$T$F$<.U$H$F$V$E$F$F$, F.F.P$F., W$M$F.F$<.F$F$L$X$I$E$F$F$F$Y$1.2.:.:.^.!.#.@.",
"k#k#k#s$s$t$C$u$Z$N$F$F$F$`$F$J$ %F$<.`$F$.% %.%F$F$_ <.+%F$F$<.F$M$@%`$_ F$F$<.F$F.M$F$F$F$E$g$1.2.u.:.:.!.!.",
"|.k#k#k#s$s$s$C$W##%F$F$F$@ F$J$p F$<.`$G$.%X$M$F$F$<.F$F$F$F$<.F$M$F.F$<.F$F$$%P$%%O$F$F$F$&%4#s.1.1.2.:.:.^.",
"D#*%|.k#k#k#s$s$t$' F$F$F$Y$=%V$C F$<.W$-%M$c #%F$F$_ <.<.S$F$<.F$M$F.F$<.F$F$N$-%-%S$F$F$F$#.P.P.s.t.1.2.;%:.",
">%,%*%|.k#k#k#s$s$'%$ F.F$F$P$.%F$F$F$F$F$F.)%F$F$F$F$F$F$F$F$F$F$F$F$F$F$F$F$F$F$F$F$F$N$. +.c+d+P.P.s.1.1.2.",
"R$R$,%,%*%|.k#k#k#s$s$).!%!%!%~%`#`#T {%]%{%]%]%^%/%/%(%(%(%_%:%:%<%<%<%<%:$[%[%[%e$}%F#W#U+C+c+c+c+P.P.s.t.1.",
"|%R$R$>%,%*%|.k#k#k#s$s$t$C$u$v$g$<$/$&$&$X#X#X#S#T#h l l F F 1%+.f#:#:#:#:#<#_.R@R@w@8@9@'@U+C+c+c+c+d+P.P.s.",
"2%a |%R$R$,%,%*%|.k#k#k#s$s$t$C$u$g$<$/$/$&$X#X#X#S#S#h h l F F x#+.f#f#:#:#:#4#<#R@R@v@w@x@9@U+U+C+c+c+c+P.P.",
"'%3%2%a R$R$>%,%*%|.k#k#k#s$s$t$C$u$v$g$<$/$&$&$X#X#X#S#T#h l l F F 1%+.f#:#:#:#:#<#_.R@R@w@8@9@'@U+C+c+c+c+d+",
"%$%$'%3%a |%R$R$,%,%*%|.k#k#k#s$s$t$u$u$g$<$/$/$&$X#X#X#S#S#h h l F F x#+.f#f#:#:#:#4#<#R@R@v@w@x@9@U+U+c+c+c+",
"%$%$%$'%3%2%a R$R$>%,%*%|.k#k#k#s$s$t$C$u$v$g$<$/$&$&$X#X#4%S#T#h l l F F 1%+.f#:#:#:#:#<#_.R@R@w@8@9@'@U+C+c+"};
