/* XPM */
static char * IPML_xpm[] = {
"32 32 3 1",
" 	c None",
"+	c None",
"@	c None",
"                                ",
"                                ",
"                                ",
"                                ",
"                                ",
"                                ",
"  ++++++++++++++++++++++++++++  ",
"  +@@@@@@@@@@@@@@@@@@@@@@@@@++  ",
"  ++@@@@@@@@@@@@@@@@@@@@@@@+++  ",
"  +++@@@@@@@@@@@@@@@@@@@@@++++  ",
"  +@++@@@@@@@@@@@@@@@@@@@++@++  ",
"  +@@++@@@@@@@@@@@@@@@@@++@@++  ",
"  +@@@++@@@@@@@@@@@@@@@++@@@++  ",
"  +@@@@++@@@@@@@@@@@@@++@@@@++  ",
"  +@@@@@++@@@@@@@@@@@++@@@@@++  ",
"  +@@@@@@++@@@@@@@@@++@@@@@@++  ",
"  +@@@@@@+++@@@@@@@+++@@@@@@++  ",
"  +@@@@@+@@++@@@@@+++@+@@@@@++  ",
"  +@@@@+@@@@++++++++@@@+@@@@++  ",
"  +@@@+@@@@@@+++++@@@@@@+@@@++  ",
"  +@@+@@@@@@@@@@@@@@@@@@@+@@++  ",
"  +@+@@@@@@@@@@@@@@@@@@@@@+@++  ",
"  ++@@@@@@@@@@@@@@@@@@@@@@@+++  ",
"  +@@@@@@@@@@@@@@@@@@@@@@@@@++  ",
"  +@@@@@@@@@@@@@@@@@@@@@@@@@++  ",
"  ++++++++++++++++++++++++++++  ",
"  ++++++++++++++++++++++++++++  ",
"                                ",
"                                ",
"                                ",
"                                ",
"                                "};
