/* XPM */
static char * IPML_xpm[] = {
"28 21 2 1",
" 	c #FFFFFF",
"+	c #000000",
"+  ++  ++  ++  ++  ++  ++  +",
"                            ",
"                            ",
"+++                     ++++",
"+ ++                   ++ ++",
"                            ",
"                            ",
"+    ++             ++    ++",
"+     ++           ++     ++",
"                            ",
"                            ",
"+     +  ++     +++ +     ++",
"+    +     ++  ++    +    ++",
"                            ",
"                            ",
"+ +                     + ++",
"++                       +++",
"                            ",
"                            ",
"+  ++  ++  ++  ++  ++  ++  +",
"+  ++  ++  ++  ++  ++  ++  +"};
