/* XPM */
static char * WF_gPacketSolid_xpm[] = {
"28 21 3 1",
" 	c None",
".	c #FFFFFF",
"+	c #000000",
"++++++++++++++++++++++++++++",
"+                         ++",
"++                       +++",
"+++                     ++++",
"+ ++                   ++ ++",
"+  ++                 ++  ++",
"+   ++               ++   ++",
"+    ++             ++    ++",
"+     ++           ++     ++",
"+      ++         ++      ++",
"+      +++       +++      ++",
"+     +  ++     +++ +     ++",
"+    +    ++++++++   +    ++",
"+   +      +++++      +   ++",
"+  +                   +  ++",
"+ +                     + ++",
"++                       +++",
"+                         ++",
"+                         ++",
"++++++++++++++++++++++++++++",
"++++++++++++++++++++++++++++"};