/* XPM */
static char * gRealSmartSerialDCE_HeadDow_xpm[] = {
"50 35 396 2",
"  	c None",
". 	c #166BAB",
"+ 	c #166CAB",
"@ 	c #176CAB",
"# 	c #176DAB",
"$ 	c #176EAC",
"% 	c #176FAC",
"& 	c #1770AD",
"* 	c #1771AD",
"= 	c #1772AD",
"- 	c #1772AE",
"; 	c #1773AE",
"> 	c #1774AE",
", 	c #1874AE",
"' 	c #1875AF",
") 	c #1876AF",
"! 	c #1877AF",
"~ 	c #1878AF",
"{ 	c #1978B0",
"] 	c #1979B0",
"^ 	c #1669AA",
"/ 	c #166AAA",
"( 	c #166BAA",
"_ 	c #166CAA",
": 	c #166DAB",
"< 	c #176DAC",
"[ 	c #1770AC",
"} 	c #1773AD",
"| 	c #1875AE",
"1 	c #1877B0",
"2 	c #1878B0",
"3 	c #114D9F",
"4 	c #114E9F",
"5 	c #124EA0",
"6 	c #114DA0",
"7 	c #114FA0",
"8 	c #1150A0",
"9 	c #1151A0",
"0 	c #1252A1",
"a 	c #1253A1",
"b 	c #1254A1",
"c 	c #1254A2",
"d 	c #1255A2",
"e 	c #1257A3",
"f 	c #1258A3",
"g 	c #1359A3",
"h 	c #1359A4",
"i 	c #135BA5",
"j 	c #145BA5",
"k 	c #145DA5",
"l 	c #145EA6",
"m 	c #145FA6",
"n 	c #1460A7",
"o 	c #1461A7",
"p 	c #1462A7",
"q 	c #1463A7",
"r 	c #1564A8",
"s 	c #1565A8",
"t 	c #1666A9",
"u 	c #1667A9",
"v 	c #1568A9",
"w 	c #1569AA",
"x 	c #114A9E",
"y 	c #114B9F",
"z 	c #114C9F",
"A 	c #114EA0",
"B 	c #1250A0",
"C 	c #1251A1",
"D 	c #1152A1",
"E 	c #1253A2",
"F 	c #1256A2",
"G 	c #1358A4",
"H 	c #135AA4",
"I 	c #135BA4",
"J 	c #145CA5",
"K 	c #1460A6",
"L 	c #1562A7",
"M 	c #1563A8",
"N 	c #1665A8",
"O 	c #1567A9",
"P 	c #1871AD",
"Q 	c #1872AD",
"R 	c #1873AE",
"S 	c #1B77B0",
"T 	c #1E75B0",
"U 	c #1F75B0",
"V 	c #1D75B0",
"W 	c #206FAE",
"X 	c #2161A9",
"Y 	c #205FA8",
"Z 	c #1F5DA7",
"` 	c #2160A9",
" .	c #2262AA",
"..	c #2161AA",
"+.	c #2261AA",
"@.	c #2261A9",
"#.	c #205DA7",
"$.	c #2160A8",
"%.	c #1F5FA7",
"&.	c #1971AC",
"*.	c #204D8F",
"=.	c #405D87",
"-.	c #4D6B98",
";.	c #2154A0",
">.	c #2374B0",
",.	c #1F5BA6",
"'.	c #1F5CA7",
").	c #205EA8",
"!.	c #205DA6",
"~.	c #215FA8",
"{.	c #2161A8",
"].	c #205EA7",
"^.	c #2261A8",
"/.	c #1F5CA4",
"(.	c #1A6EAA",
"_.	c #1566A8",
":.	c #1566A9",
"<.	c #1D66A0",
"[.	c #3C698C",
"}.	c #507A9A",
"|.	c #3378AB",
"1.	c #224B87",
"2.	c #525354",
"3.	c #70706E",
"4.	c #959493",
"5.	c #A4A9B0",
"6.	c #2658A1",
"7.	c #2373AF",
"8.	c #2162A9",
"9.	c #2264AB",
"0.	c #2264AA",
"a.	c #2060A8",
"b.	c #1F5DA6",
"c.	c #1A6EA9",
"d.	c #1873AD",
"e.	c #1D629B",
"f.	c #4B5257",
"g.	c #686867",
"h.	c #8C8A8A",
"i.	c #ABACAE",
"j.	c #4480AD",
"k.	c #0F428E",
"l.	c #404957",
"m.	c #575757",
"n.	c #7D7C7B",
"o.	c #999898",
"p.	c #B2B2B2",
"q.	c #6581A9",
"r.	c #2372AE",
"s.	c #215EA4",
"t.	c #205DA5",
"u.	c #1E5AA5",
"v.	c #1E5BA6",
"w.	c #1E5AA6",
"x.	c #1E59A4",
"y.	c #1A6DA8",
"z.	c #135CA5",
"A.	c #145E9D",
"B.	c #304E68",
"C.	c #525252",
"D.	c #757574",
"E.	c #929190",
"F.	c #AFAEAE",
"G.	c #8FA3B2",
"H.	c #0B326A",
"I.	c #535860",
"J.	c #969594",
"K.	c #9F9E9D",
"L.	c #A2A1A1",
"M.	c #AAA9AA",
"N.	c #6D86AA",
"O.	c #2372AD",
"P.	c #215A9F",
"Q.	c #2059A0",
"R.	c #205BA3",
"S.	c #215CA1",
"T.	c #205AA1",
"U.	c #1F58A0",
"V.	c #1F5AA3",
"W.	c #1F5BA5",
"X.	c #215FA7",
"Y.	c #1E59A5",
"Z.	c #1E59A3",
"`.	c #1A6CA7",
" +	c #1256A3",
".+	c #1461A6",
"++	c #135896",
"@+	c #0F4879",
"#+	c #385065",
"$+	c #8B8A89",
"%+	c #9E9D9C",
"&+	c #A1A0A0",
"*+	c #A6A5A6",
"=+	c #98A6B1",
"-+	c #0B3169",
";+	c #777B83",
">+	c #949392",
",+	c #979695",
"'+	c #9A9998",
")+	c #9D9C9B",
"!+	c #5B78A3",
"~+	c #2371AC",
"{+	c #205396",
"]+	c #21579C",
"^+	c #20579C",
"/+	c #205599",
"(+	c #215FA6",
"_+	c #1D57A1",
":+	c #1E58A3",
"<+	c #1152A0",
"[+	c #104A93",
"}+	c #104A80",
"|+	c #0E4270",
"1+	c #0F4575",
"2+	c #536A7F",
"3+	c #949292",
"4+	c #969595",
"5+	c #999897",
"6+	c #9C9B9A",
"7+	c #7E94A6",
"8+	c #777D84",
"9+	c #8D8C8A",
"0+	c #8F8E8D",
"a+	c #42679C",
"b+	c #216CA7",
"c+	c #215191",
"d+	c #205295",
"e+	c #205092",
"f+	c #1E539B",
"g+	c #1D539D",
"h+	c #1D559F",
"i+	c #1D56A1",
"j+	c #1D56A2",
"k+	c #1B4A8C",
"l+	c #194381",
"m+	c #1C4F95",
"n+	c #1E58A4",
"o+	c #1D58A2",
"p+	c #196BA7",
"q+	c #0F4793",
"r+	c #0C3770",
"s+	c #0F4375",
"t+	c #0E4170",
"u+	c #0F4475",
"v+	c #556C80",
"w+	c #8C8B8A",
"x+	c #8F8D8D",
"y+	c #91908F",
"z+	c #60829D",
"A+	c #4C5F7A",
"B+	c #868584",
"C+	c #888786",
"D+	c #8B8A88",
"E+	c #86898C",
"F+	c #1E519C",
"G+	c #1151A1",
"H+	c #2069A5",
"I+	c #214F8D",
"J+	c #205191",
"K+	c #204F8F",
"L+	c #204D8C",
"M+	c #1F4F93",
"N+	c #1E4E94",
"O+	c #1E4F96",
"P+	c #1D5098",
"Q+	c #1A4685",
"R+	c #16376C",
"S+	c #19427F",
"T+	c #1D549F",
"U+	c #1D539B",
"V+	c #1A67A4",
"W+	c #0F4593",
"X+	c #0E4274",
"Y+	c #345879",
"Z+	c #858483",
"`+	c #888785",
" @	c #8A8988",
".@	c #8C8B8B",
"+@	c #3872A1",
"@@	c #164C9C",
"#@	c #4D678D",
"$@	c #727985",
"%@	c #697689",
"&@	c #2D5898",
"*@	c #1358A3",
"=@	c #2067A3",
"-@	c #1F4683",
";@	c #214F8E",
">@	c #204C89",
",@	c #1F4783",
"'@	c #1F4989",
")@	c #1E488B",
"!@	c #1E4A8D",
"~@	c #1C4584",
"{@	c #143060",
"]@	c #16366A",
"^@	c #1D549D",
"/@	c #1D549E",
"(@	c #1D55A0",
"_@	c #1E57A3",
":@	c #1E5198",
"<@	c #1E4D93",
"[@	c #19619E",
"}@	c #0E4174",
"|@	c #0E406F",
"1@	c #104475",
"2@	c #3C5E7E",
"3@	c #6E7B87",
"4@	c #6F7D88",
"5@	c #3E709B",
"6@	c #2066A1",
"7@	c #20447F",
"8@	c #204985",
"9@	c #1F4581",
"0@	c #1F447E",
"a@	c #1F4885",
"b@	c #1E4382",
"c@	c #1D417E",
"d@	c #132A53",
"e@	c #132B56",
"f@	c #1E5097",
"g@	c #1E4F95",
"h@	c #1D5199",
"i@	c #1D529B",
"j@	c #1D529A",
"k@	c #1E4C90",
"l@	c #19629F",
"m@	c #104798",
"n@	c #0F447A",
"o@	c #114F8C",
"p@	c #125597",
"q@	c #135CA1",
"r@	c #20649F",
"s@	c #224D86",
"t@	c #204682",
"u@	c #1E3B75",
"v@	c #1F3E77",
"w@	c #1F447F",
"x@	c #1C3A74",
"y@	c #132850",
"z@	c #102245",
"A@	c #132B57",
"B@	c #1E498C",
"C@	c #1E4A8E",
"D@	c #1E4B90",
"E@	c #1E4C91",
"F@	c #1E4D92",
"G@	c #1E4789",
"H@	c #1E4585",
"I@	c #195F9C",
"J@	c #114C9C",
"K@	c #104E90",
"L@	c #145BA3",
"M@	c #16539D",
"N@	c #204882",
"O@	c #214882",
"P@	c #1E3B72",
"Q@	c #204279",
"R@	c #1D3C71",
"S@	c #13264D",
"T@	c #102143",
"U@	c #1E4383",
"V@	c #1E4485",
"W@	c #1E4686",
"X@	c #1E4788",
"Y@	c #1D417F",
"Z@	c #175498",
"`@	c #1357A3",
" #	c #1A488C",
".#	c #20417A",
"+#	c #1E396F",
"@#	c #1F3F76",
"##	c #193765",
"$#	c #1E57A2",
"%#	c #1D4382",
"&#	c #1D3E7B",
"*#	c #1D3F7C",
"=#	c #1D407E",
"-#	c #1E4180",
";#	c #1E4281",
">#	c #1D3D78",
",#	c #17498D",
"'#	c #145DA6",
")#	c #1D356B",
"!#	c #20437A",
"~#	c #193563",
"{#	c #1D3F7B",
"]#	c #1D3872",
"^#	c #1D3974",
"/#	c #1D3A75",
"(#	c #1D3C77",
"_#	c #1D3D79",
":#	c #182F5D",
"<#	c #13254C",
"[#	c #12254B",
"}#	c #132C58",
"    . . + @ # # $ $ $ $ % % % & & & & * * * = = - - ; ; > , , ' ' ' ' ) ) ) ) ! ! ~ { { ] ] ] ]     ",
"  ^ ^ / / / / ( _ _ + @ : < $ < $ $ % % % % [ & & * * * = - = } ; ; , > , | ' ' ) ' ) ) ! ! 1 ~ 2 ~ ",
"3 4 3 5 5 6 4 4 5 5 7 8 9 0 a b c d e f g h i j k k l m n o p q r r s t u v w / ( + # $ % & * = ; , ",
"x x x x x x x x x x x y z 3 A 7 B C D E d F e G h H I J k l m K o L L M r N O O ^ / ( + # $ & & = - ",
"x x x x x x x x x d . < # $ $ $ $ % % % % & [ & P * * = Q Q - } } R R R , , , = O ^ / ( + # $ % & = ",
"x x x x x x x x x d / ) S T T T T U U U U U U T T T T T T T T T T U U V ) ! ! * O O ^ / ( + # $ % & ",
"x x x x x x x x x d o % W X X X X X X X X Y Z `  .X ..+.+.@.` #.#.$.$.%.&.| ; ( N O O ^ ^ ( + # $ % ",
"x x *.=.-.;.x x x c K $ >.,.'.#.#.X  .).$.X $.).@.` #.$.$.!.~.{.].].^./.(.) + _.r N :.O <.[.}.|.# $ ",
"x 1.2.3.4.5.6.x x a m # 7.8.].Y #.Z `  .Y Y X ` ].X X ].` X ).$.9.0.a.b.c.d.s o M r s e.f.g.h.i.j.# ",
"k.l.m.n.o.p.q.x x a l : r.s.t.~.Z u.'.].X Y X Y $.Y Y ` Y ` Y ` #.v.w.x.y.* m z.L M A.B.C.D.E.F.G.. ",
"H.I.J.K.L.M.N.x x 0 k + O.P.Q.R.S.T.U.V.W.X.].$.~.Y a.).` ].$.).Y v.Y.Z.`.$ h  +.+++@+#+$+%+&+*+=+( ",
"-+;+>+,+'+)+!+x x 0 j + ~+{+]+^+/+(+].'.u.Y.Y._+:+Y.Y.Y.Y.Y.Y.Y.Y.Y.Y.Z.`.+ <+[+}+|+1+2+3+4+5+6+7+^ ",
"-+8+9+0+E.4.a+x x C I / b+c+d+d+e+f+g+h+i+j+k+l+m+n+Y.Y.Y.Y.Y.Y.Y.Y.n+o+p+v q+r+s+t+u+v+w+x+y+>+z+v ",
"-+A+B+C+D+E+F+x x G+h ^ H+I+J+K+L+M+N+O+P+Q+R+S+m+n+Y.n+n+Y.Y.Y.Y.n+T+U+V+s W+r+X+t+u+Y+Z+`+ @.@+@O ",
"W+@@#@$@%@&@x x x 8 *@v =@-@;@>@,@'@)@!@~@{@]@S+m+n+Y.:+^@/@(@j+_@_@:@<@[@r W+r+}@|@s+1@2@3@4@5@N :.",
"x x x x x x x x x 7 e :.6@7@8@9@0@a@b@c@d@e@]@S+m+n+Y.n+f@g@f@h@i@j@k@!@l@M m@r+n@o@p@q@n o L M r N ",
"x x x x x x x x x x D s r@s@t@u@v@w@x@y@z@A@]@S+m+n+Y.:+k@B@C@D@E@F@G@H@I@L J@K@L@J k l m n o L M r ",
"x x x x x x x x x x x a M@N@O@P@Q@R@S@T@z@A@]@S+m+n+Y.:+G@U@V@W@X@G@b@Y@Z@i `@h H j J k l m n o L M ",
"  x x x x x x x x x x x x  #.#+#@###T@T@z@A@]@S+m+n+Y.$#%#&#*#=#-#;#&#>#,# +G G H H J k '#m m o L   ",
"                              )#!#~#T@T@z@A@]@S+m+n+Y.$#{#]#^#/#(#_#/#                              ",
"                                  :#<#S@[#}#]@S+m+n+Y.x.                                            ",
"                                          }#]@S+m+n+Y.Y.                                            ",
"                                          }#]@S+m+n+Y.Y.                                            ",
"                                          }#]@S+m+n+Y.Y.                                            ",
"                                          }#]@S+m+n+Y.Y.                                            ",
"                                          }#]@S+m+n+Y.Y.                                            ",
"                                          }#]@S+m+n+Y.Y.                                            ",
"                                          }#]@S+m+n+Y.Y.                                            ",
"                                          }#]@S+m+n+Y.Y.                                            ",
"                                          }#]@S+m+n+Y.Y.                                            ",
"                                          }#]@S+m+n+Y.Y.                                            ",
"                                          }#]@S+m+n+Y.Y.                                            ",
"                                          }#]@S+m+n+Y.Y.                                            ",
"                                          }#]@S+m+n+Y.Y.                                            ",
"                                          }#]@S+m+n+Y.Y.                                            "};
