/* XPM */
static char * gRealSmartSerialDCE_Vert_HeadDown_xpm[] = {
"50 11 7 1",
" 	c None",
".	c #132A54",
"+	c #153365",
"@	c #183F7B",
"#	c #1C4D93",
"$	c #1E58A3",
"%	c #1E59A5",
"                     .+@#$%%                      ",
"                     .+@#$%%                      ",
"                     .+@#$%%                      ",
"                     .+@#$%%                      ",
"                     .+@#$%%                      ",
"                     .+@#$%%                      ",
"                     .+@#$%%                      ",
"                     .+@#$%%                      ",
"                     .+@#$%%                      ",
"                     .+@#$%%                      ",
"                     .+@#$%%                      "};
