/* XPM */
static char * gRealCopperST_TABLE_xpm[] = {
"52 115 326 2",
"  	c None",
". 	c #70BD1F",
"+ 	c #71BD21",
"@ 	c #70BD20",
"# 	c #6BB027",
"$ 	c #6AAE27",
"% 	c #69AD27",
"& 	c #68AB27",
"* 	c #67AA27",
"= 	c #66A827",
"- 	c #65A726",
"; 	c #64A526",
"> 	c #63A426",
", 	c #62A226",
"' 	c #61A226",
") 	c #63A624",
"! 	c #63A524",
"~ 	c #62A424",
"{ 	c #61A324",
"] 	c #65AB22",
"^ 	c #6BB520",
"/ 	c #60A123",
"( 	c #5E9F23",
"_ 	c #5D9E23",
": 	c #5D9D23",
"< 	c #5C9C22",
"[ 	c #5C9B22",
"} 	c #5B9A22",
"| 	c #5A9922",
"1 	c #599821",
"2 	c #599721",
"3 	c #589621",
"4 	c #579521",
"5 	c #579420",
"6 	c #569320",
"7 	c #579620",
"8 	c #5B9C1F",
"9 	c #68A72E",
"0 	c #6BAF27",
"a 	c #6AAC2A",
"b 	c #69AC2A",
"c 	c #69AB2A",
"d 	c #68AA2A",
"e 	c #68A929",
"f 	c #67A829",
"g 	c #67A729",
"h 	c #66A729",
"i 	c #69AE26",
"j 	c #6DB821",
"k 	c #66A728",
"l 	c #65A529",
"m 	c #65A627",
"n 	c #64A627",
"o 	c #64A527",
"p 	c #63A427",
"q 	c #62A326",
"r 	c #63A425",
"s 	c #61A225",
"t 	c #467924",
"u 	c #345F21",
"v 	c #6BB127",
"w 	c #6CB028",
"x 	c #6BAF29",
"y 	c #6BAD2A",
"z 	c #6BAE29",
"A 	c #6BB028",
"B 	c #6BAF28",
"C 	c #6CB127",
"D 	c #6FBA20",
"E 	c #6AAD2A",
"F 	c #69AB2B",
"G 	c #69A92C",
"H 	c #68A92C",
"I 	c #68A82C",
"J 	c #67A72C",
"K 	c #67A62B",
"L 	c #5A9429",
"M 	c #335D21",
"N 	c #6BB126",
"O 	c #69A82E",
"P 	c #69A92D",
"Q 	c #69AA2C",
"R 	c #6AAB2C",
"S 	c #6AAC2B",
"T 	c #6FBB20",
"U 	c #69AA2B",
"V 	c #69AC29",
"W 	c #6AAD29",
"X 	c #6AAB2A",
"Y 	c #59912A",
"Z 	c #6AAE26",
"` 	c #6AAB2B",
" .	c #69AA2D",
"..	c #6AAA2C",
"+.	c #6FBA21",
"@.	c #6CB226",
"#.	c #68AB25",
"$.	c #68AA29",
"%.	c #67A52E",
"&.	c #6DB623",
"*.	c #6EB922",
"=.	c #6AAE29",
"-.	c #58902A",
";.	c #65A825",
">.	c #64A429",
",.	c #64A22C",
"'.	c #69A82D",
").	c #6BAE2A",
"!.	c #6FBC20",
"~.	c #59922A",
"{.	c #356021",
"].	c #63A525",
"^.	c #609E28",
"/.	c #609D2A",
"(.	c #65A32B",
"_.	c #62A02A",
":.	c #619F2B",
"<.	c #629F2C",
"[.	c #63A12C",
"}.	c #64A32C",
"|.	c #67A62C",
"1.	c #68A92B",
"2.	c #6EB822",
"3.	c #6DB425",
"4.	c #366022",
"5.	c #61A224",
"6.	c #5C9928",
"7.	c #5D982A",
"8.	c #5F9C2A",
"9.	c #5F9D28",
"0.	c #5B962A",
"a.	c #67A82A",
"b.	c #578F2A",
"c.	c #5F9F24",
"d.	c #589427",
"e.	c #58922A",
"f.	c #5A9629",
"g.	c #5A9628",
"h.	c #599428",
"i.	c #64A12D",
"j.	c #65A22E",
"k.	c #66A42E",
"l.	c #67A62E",
"m.	c #68A62E",
"n.	c #66A32D",
"o.	c #62A029",
"p.	c #66A927",
"q.	c #355F21",
"r.	c #5D9C23",
"s.	c #548E26",
"t.	c #52882A",
"u.	c #599427",
"v.	c #569027",
"w.	c #558E26",
"x.	c #5D972B",
"y.	c #5E992C",
"z.	c #609B2D",
"A.	c #619D2D",
"B.	c #639F2D",
"C.	c #64A12E",
"D.	c #5D982B",
"E.	c #508529",
"F.	c #548C2A",
"G.	c #609C2C",
"H.	c #345E21",
"I.	c #518925",
"J.	c #4E8328",
"K.	c #558F26",
"L.	c #538B26",
"M.	c #4E8426",
"N.	c #568E2A",
"O.	c #578F2B",
"P.	c #58912B",
"Q.	c #5A932B",
"R.	c #5B952C",
"S.	c #5D972C",
"T.	c #4E8228",
"U.	c #406E24",
"V.	c #4A7C27",
"W.	c #548B2A",
"X.	c #528929",
"Y.	c #4D8424",
"Z.	c #4A7E28",
"`.	c #4E8425",
" +	c #487C25",
".+	c #538B27",
"++	c #518729",
"@+	c #538A2A",
"#+	c #558C2A",
"$+	c #437325",
"%+	c #3F6D24",
"&+	c #5C962C",
"*+	c #579522",
"=+	c #4A7F23",
"-+	c #477827",
";+	c #4D8324",
">+	c #4C8124",
",+	c #406F24",
"'+	c #4F8526",
")+	c #4C8028",
"!+	c #4D8128",
"~+	c #4A7D27",
"{+	c #3B6823",
"]+	c #3F6E24",
"^+	c #5F9A2C",
"/+	c #5E982C",
"(+	c #609C2D",
"_+	c #629E2D",
":+	c #63A02D",
"<+	c #58902B",
"[+	c #559221",
"}+	c #467921",
"|+	c #447326",
"1+	c #4B8123",
"2+	c #467923",
"3+	c #3A6722",
"4+	c #4C8224",
"5+	c #457526",
"6+	c #467727",
"7+	c #417125",
"8+	c #366122",
"9+	c #5B952B",
"0+	c #5C952C",
"a+	c #52892A",
"b+	c #518629",
"c+	c #538F20",
"d+	c #427521",
"e+	c #406E25",
"f+	c #487C22",
"g+	c #447722",
"h+	c #366121",
"i+	c #457823",
"j+	c #3B6723",
"k+	c #508629",
"l+	c #53892A",
"m+	c #568D2A",
"n+	c #558D2B",
"o+	c #4D8129",
"p+	c #4C7F28",
"q+	c #467827",
"r+	c #417420",
"s+	c #3D6B23",
"t+	c #427421",
"u+	c #3C6A21",
"v+	c #386521",
"w+	c #417221",
"x+	c #4A7D28",
"y+	c #4B7F28",
"z+	c #4F8429",
"A+	c #4F8529",
"B+	c #497B28",
"C+	c #417320",
"D+	c #3E6D22",
"E+	c #447721",
"F+	c #3B6A20",
"G+	c #467726",
"H+	c #487A27",
"I+	c #497C28",
"J+	c #4A7C28",
"K+	c #447426",
"L+	c #427125",
"M+	c #416F25",
"N+	c #386422",
"O+	c #437620",
"P+	c #407220",
"Q+	c #477926",
"R+	c #417025",
"S+	c #427225",
"T+	c #437326",
"U+	c #447526",
"V+	c #3D6B24",
"W+	c #3D6A23",
"X+	c #487627",
"Y+	c #466F27",
"Z+	c #456F27",
"`+	c #3C6923",
" @	c #3E6C24",
".@	c #3B6921",
"+@	c #406F25",
"@@	c #558D2A",
"#@	c #639E2D",
"$@	c #487B27",
"%@	c #67A42E",
"&@	c #3E6B24",
"*@	c #457626",
"=@	c #629F2D",
"-@	c #69A72E",
";@	c #578E2A",
">@	c #3A6723",
",@	c #4B7E28",
"'@	c #396522",
")@	c #497B27",
"!@	c #528829",
"~@	c #5C962B",
"{@	c #65A32E",
"]@	c #386322",
"^@	c #59912B",
"/@	c #3C6823",
"(@	c #497C27",
"_@	c #5B962C",
":@	c #376222",
"<@	c #4F8329",
"[@	c #5D982C",
"}@	c #487927",
"|@	c #64A02D",
"1@	c #4D8228",
"2@	c #66A32E",
"3@	c #3A6623",
"4@	c #609B2C",
"5@	c #356022",
"6@	c #528729",
"7@	c #59922B",
"8@	c #5A942B",
"9@	c #4D8028",
"0@	c #5B942B",
"a@	c #396622",
"b@	c #548A2A",
"c@	c #59932B",
"d@	c #376122",
"e@	c #619C2D",
"f@	c #396422",
"g@	c #65A32D",
"h@	c #3D6A24",
"i@	c #477927",
"j@	c #57902B",
"k@	c #538929",
"                                                                                                        ",
"  . + + + + + + + + + + + + + + + + + + + + + + + + + + + + @                                           ",
"  . . . . . . . . . . . . . . . . . . . . . . . . . . . . . . .                                         ",
"# $ % & * = - ; > , ' ) ! ~ { ] ^ / ( _ : < [ } | 1 2 3 4 5 6 7 8                                       ",
"9 0 a b c c d d e e f f g h h i j k l l m n n o o p p > q r s t u                                       ",
"9 v # w x y y y y y z A w B y C D x y E E E E F G H I I J J K L M                                       ",
"9 N O O O O O P Q Q R S S S E B T B F U c c c c V c c W a X d Y M                                       ",
"9 Z E z x y y y ` R `  .P P P ..+.@.R R E E a E S S a E S S S Y M                                       ",
"9 #.$.%.E E E z y y z y y z y y &.*.S S S E y y y y =.=.z ` P -.M                                       ",
"9 ;.>.,.F '.Q S S S S S E a E ).C !.C E ` Q P P P R ` S P O O ~.{.                                      ",
"9 ].^./.(.h _.:.<.[.}.|.1.F ` ` S 2.3.S y y y y E ` ..P O O O -.4.                                      ",
"9 5.6.7.8.9.0.h a.c c U G P P P P @.2.P O O O O O O O O O O O b.{.                                      ",
"9 c.d.e.f.g.h.i.j.k.l.m.9 O O O n.o.p.P O O O O O O O O O O O ~.q.                                      ",
"9 r.s.t.u.v.w.x.y.z.A.B.C.j.k.D.E.F.G.9 O O O O O O O O 9 m.%.b.H.                                      ",
"9 : I.J.K.L.M.N.O.P.Q.R.S.S.T.U.V.W.G.9 O O 9 O O O O O l.B.A.X.H.                                      ",
"9 | Y.Z.I.`. +.+++t.@+#+@+$+q.%+V.W.G.9 O 9 i.j.k.%.m.9 k.S.&+++M                                       ",
"9 *+=+-+;+>+,+'+Z.)+!+~+{+M H.]+V.W.G.9 O O ^+/+^+(+_+:+_+<+N.J.M                                       ",
"9 [+}+|+1+2+3+4+5+6+7+8+M M H.]+V.W.G.9 O O Q.O.P.Q.9+&+0+a+b+~+M                                       ",
"9 c+d+e+f+g+h+i+%+j+H.M M M H.]+V.W.G.9 O O #+k+t.l+W.m+n+o+p+q+{.                                      ",
"    r+s+t+u+v+w+h+M M M M M H.]+V.W.G.9 O O E.x+y+!+T.z+A+B+-+5+                                        ",
"    C+D+E+v+F+u M M M M M M H.]+V.W.G.9 O O p+5+G+-+H+I+J+K+L+M+                                        ",
"      N+O+M P+M M M M M M M H.]+V.W.G.9 O O Q+%+e+R+S+T+U+%+V+W+                                        ",
"          M P+M M M M M M M H.]+V.W.G.9 O O X+Y+Z+`+V+ @U.                                              ",
"            .@M M M M M M M H.U.V.W.G.9 O O                                                             ",
"                              R+V.W.G.9 O O                                                             ",
"                              R+V.W.G.9 O O                                                             ",
"                              R+V.W.G.9 O O                                                             ",
"                              R+V.W.G.9 O O                                                             ",
"                              R+V.W.G.9 O O                                                             ",
"                              R+V.W.G.9 O O                                                             ",
"                              R+V.W.G.9 O O                                                             ",
"                              +@V.#+A.9 O O                                                             ",
"                              e+I+@@#@O O O                                                             ",
"                              e+I+@@#@O O O                                                             ",
"                              e+I+@@#@O O O                                                             ",
"                              e+I+@@#@O O O                                                             ",
"                              e+I+@@#@O O O                                                             ",
"                              e+I+@@#@O O O                                                             ",
"                              e+I+@@#@O O O                                                             ",
"                              e+I+@@#@O O O                                                             ",
"                              e+I+@@#@O O O                                                             ",
"                              e+I+@@#@O O O                                                             ",
"                              e+I+@@#@O O O                                                             ",
"                              e+I+@@#@O O O                                                             ",
"                              e+I+@@#@O O O                                                             ",
"                              e+I+@@#@O O O                                                             ",
"                              e+I+@@#@O O O                                                             ",
"                              e+I+@@#@O O O                                                             ",
"                              e+I+@@#@O O O                                                             ",
"                              e+I+@@#@O O O                                                             ",
"                              e+I+@@#@O O O                                                             ",
"                              e+I+@@#@O O O                                                             ",
"                              e+I+@@#@O O O                                                             ",
"                              e+I+@@#@O O O                                                             ",
"                              e+I+@@#@O O O                                                             ",
"                              e+I+@@#@O O O                                                             ",
"                              e+I+@@#@O O O                                                             ",
"                              e+I+@@#@O O O                                                             ",
"                              e+I+@@#@O O O                                                             ",
"                              e+I+@@#@O O O                                                             ",
"                              e+I+@@#@O O O                                                             ",
"                              e+I+@@#@O O O                                                             ",
"                              e+I+@@#@O O O                                                             ",
"                              e+I+@@#@O O O                                                             ",
"                              e+I+@@#@O O O                                                             ",
"                              e+I+@@#@O O O                                                             ",
"                              e+I+@@#@O O O                                                             ",
"                              e+I+@@#@O O O                                                             ",
"                              e+I+@@#@O O O                                                             ",
"                              e+I+@@#@O O O                                                             ",
"                              e+I+@@#@O O O                                                             ",
"                              e+I+@@#@O O O                                                             ",
"                              e+I+@@#@O O O                                                             ",
"                              e+I+@@#@O O O                                                             ",
"                              e+I+@@#@O O O                                                             ",
"                              e+I+@@#@O O O                                                             ",
"                              e+I+@@#@O O O                                                             ",
"                              e+I+@@#@O O O                                                             ",
"                              e+I+@@#@O O O                                                             ",
"                              e+I+@@#@O O O                                                             ",
"                              e+I+@@#@O O O                                                             ",
"                              e+I+@@#@O O O                                                             ",
"                              e+I+@@#@O O O                                                             ",
"                              e+I+@@#@O O O                                                             ",
"                              e+I+@@#@O O O                                                             ",
"                              e+$@l+y.%@O O                                                             ",
"                              %+-+E.Q.i.O O                                                             ",
"                              &@*@J.P.=@-@O                                                             ",
"                              `+K+!+;@G.m.O                                                             ",
"                              >@S+,@W.y.%.O                                                             ",
"                              '@+@)@!@~@{@O O                                                           ",
"                              ]@ @-+z+^@B.O O                                                           ",
"                                /@K+)+@@^+l.O                                                           ",
"                                '@R+(@!@_@j.O                                                           ",
"                                :@ @q+<@<+A.9 O                                                         ",
"                                q.{+T+,@W.[@k.O                                                         ",
"                                  ]@e+}@E.^@_+9 O                                                       ",
"                                  q.`+K+p+W.S.{@O                                                       ",
"                                    ]@e+}@z+<+A.m.O                                                     ",
"                                    q./@T+Z.l+9+|@-@O                                                   ",
"                                      :@%+G+1@m+y.2@O                                                   ",
"                                      u 3@R+H+E.<+4@%.O                                                 ",
"                                        5@`+T+~+6@7@A.l.O                                               ",
"                                          :@ @5+p+l+8@_+m.O                                             ",
"                                          H.N+%+G+9@@+0@_+l.O O                                         ",
"                                            u a@,+-+!+b@8@A.%.O O O                                     ",
"                                              q.3@M+-+)+l+c@G.k.O O O O                                 ",
"                                                5@3@,+G+p+!@<+y.i.m.O O O O O                           ",
"                                                  {.a@]+*@x+E.N._@A.k.9 O O O O O O O O O O O O O O O O ",
"                                                    u '@ @K+$@T.@+P./+B.%.9 O O O O O O O O O O O O O O ",
"                                                        ]@W+L+q+,@E.#+7@y.=@k.9 O O O O O O O O O O O O ",
"                                                          d@>@%+K+H+)+k+#+^@S.e@|@k.m.9 O O O O O O O O ",
"                                                              f@`++@U+H+)+E.@+;@Q.S.^+_+i.g@k.%.l.m.m.%.",
"                                                                  j+h@M+K+i@x+1@k+@+@@j@7@9+~@[@y.y.y./+",
"                                                                          +@S+5+}@~+)+T.E.++!@k@b@b@b@@+"};
