/* XPM */
static char * gRealPhone_HeadUp_xpm[] = {
"22 31 220 2",
"  	c None",
". 	c #DC9CBE",
"+ 	c #DF9DC1",
"@ 	c #ECA7CD",
"# 	c #F3ACD3",
"$ 	c #F3ACD4",
"% 	c #EFA9D0",
"& 	c #E09FC2",
"* 	c #DD9CBF",
"= 	c #DB9ABD",
"- 	c #DA9ABC",
"; 	c #DE9DC0",
"> 	c #D99ABC",
", 	c #E09EC2",
"' 	c #DC9BBD",
") 	c #D899BB",
"! 	c #DE9CC0",
"~ 	c #D898BA",
"{ 	c #D798BA",
"] 	c #DF9EC1",
"^ 	c #D799BA",
"/ 	c #D698B9",
"( 	c #D1D0CF",
"_ 	c #D9D8D7",
": 	c #DAD9D8",
"< 	c #DBDAD9",
"[ 	c #DCDBDA",
"} 	c #D8A6C0",
"| 	c #D0A4BB",
"1 	c #C1C0C0",
"2 	c #B8B7B7",
"3 	c #CFCFCE",
"4 	c #D0CFCE",
"5 	c #D1D1CF",
"6 	c #D3D2D1",
"7 	c #D5D4D3",
"8 	c #D6A6BF",
"9 	c #D4ABC0",
"0 	c #CFCECC",
"a 	c #CECECC",
"b 	c #CECDCB",
"c 	c #C3C3C2",
"d 	c #B6B5B5",
"e 	c #B2B2B1",
"f 	c #B7B7B6",
"g 	c #BCBBBA",
"h 	c #C1C0BF",
"i 	c #D1A2BB",
"j 	c #F2ABD3",
"k 	c #EEA8CF",
"l 	c #D0A7BC",
"m 	c #C2C2C1",
"n 	c #C0C0BF",
"o 	c #BFBFBD",
"p 	c #BCBCBB",
"q 	c #BBBBBB",
"r 	c #BABAB9",
"s 	c #BFBFBE",
"t 	c #C4C4C2",
"u 	c #C9C8C7",
"v 	c #D3A4BC",
"w 	c #EAA6CB",
"x 	c #EEA8CE",
"y 	c #D0A7BD",
"z 	c #C1C1BF",
"A 	c #BBBBBA",
"B 	c #C7C7C6",
"C 	c #CCCBCB",
"D 	c #D1D0D0",
"E 	c #D5A6BE",
"F 	c #E7A4C9",
"G 	c #E9A5CA",
"H 	c #E8A4CA",
"I 	c #C5C4C3",
"J 	c #BBBABA",
"K 	c #C6C6C5",
"L 	c #C8C7C6",
"M 	c #CCCCCB",
"N 	c #D1D1D0",
"O 	c #D7D6D6",
"P 	c #D6A7C0",
"Q 	c #E3A1C5",
"R 	c #BEBEBD",
"S 	c #B9B8B8",
"T 	c #C8C8C7",
"U 	c #CBCBCA",
"V 	c #D0D0D0",
"W 	c #D6D5D5",
"X 	c #DADADA",
"Y 	c #DC9BBE",
"Z 	c #CFA6BB",
"` 	c #B6B6B5",
" .	c #CACAC9",
"..	c #D0CFCF",
"+.	c #D5D4D4",
"@.	c #D9D8D8",
"#.	c #D8D7D7",
"$.	c #D5A5BE",
"%.	c #D999BC",
"&.	c #CEA5BA",
"*.	c #B9B9B8",
"=.	c #B5B4B3",
"-.	c #CDCCCC",
";.	c #D4D4D4",
">.	c #D7D7D6",
",.	c #CE9EB7",
"'.	c #D597B8",
").	c #CCA4B9",
"!.	c #B7B6B6",
"~.	c #B2B2B2",
"{.	c #D5D5D5",
"].	c #D3D3D2",
"^.	c #C4C3C1",
"/.	c #B9B7B5",
"(.	c #C597AE",
"_.	c #D193B4",
":.	c #C9A1B6",
"<.	c #B6B6B6",
"[.	c #B4B4B4",
"}.	c #B0B0B0",
"|.	c #CECDCD",
"1.	c #BBBAB7",
"2.	c #B6B4B2",
"3.	c #C294AB",
"4.	c #CD91B0",
"5.	c #C59EB2",
"6.	c #B2B3B3",
"7.	c #B1B0B0",
"8.	c #CAC9C9",
"9.	c #C3C2C1",
"0.	c #B9B8B5",
"a.	c #B8B7B4",
"b.	c #B6B5B2",
"c.	c #BEA2AF",
"d.	c #C39EB0",
"e.	c #C49BB0",
"f.	c #C397AE",
"g.	c #BA92A7",
"h.	c #BD91A8",
"i.	c #BE90A8",
"j.	c #C091A9",
"k.	c #C291AA",
"l.	c #C491AB",
"m.	c #C692AD",
"n.	c #C791AD",
"o.	c #C19DB0",
"p.	c #B3B3B4",
"q.	c #BFBEBD",
"r.	c #B7B5B3",
"s.	c #B5B4B1",
"t.	c #B4B3B1",
"u.	c #B3B2B0",
"v.	c #B2B1AF",
"w.	c #AFAEAD",
"x.	c #A3A1A1",
"y.	c #A1A0A0",
"z.	c #A19F9F",
"A.	c #A09E9E",
"B.	c #9F9E9D",
"C.	c #9F9C9C",
"D.	c #9F9A9B",
"E.	c #9E999B",
"F.	c #9E979A",
"G.	c #A7A0A3",
"H.	c #B2B1B1",
"I.	c #B7B6B4",
"J.	c #B3B1AF",
"K.	c #B1B0AE",
"L.	c #B0AFAD",
"M.	c #ADACAA",
"N.	c #A09F9E",
"O.	c #9E9D9C",
"P.	c #9D9C9C",
"Q.	c #9C9B9A",
"R.	c #9B9A9A",
"S.	c #9A9999",
"T.	c #9A9898",
"U.	c #A2A2A1",
"V.	c #B1B1B0",
"W.	c #B4B3B2",
"X.	c #B1AFAD",
"Y.	c #B0AEAC",
"Z.	c #AFAEAC",
"`.	c #AEADAB",
" +	c #ACABA9",
".+	c #9F9D9D",
"++	c #9E9D9D",
"@+	c #9C9A9A",
"#+	c #9B9999",
"$+	c #9A9998",
"%+	c #999897",
"&+	c #999898",
"*+	c #A2A1A1",
"=+	c #B1B1B1",
"-+	c #B0B1B0",
";+	c #B2B1B0",
">+	c #AFAFAC",
",+	c #B2B0AF",
"'+	c #ADADAC",
")+	c #A8A7A7",
"!+	c #A7A6A6",
"~+	c #A4A3A4",
"{+	c #989796",
"]+	c #969595",
"^+	c #ABAAAA",
"/+	c #B9B9B9",
"(+	c #A9A8A8",
"_+	c #A6A5A5",
":+	c #A3A2A2",
"<+	c #9C9B9B",
"[+	c #979696",
"}+	c #959494",
"|+	c #949393",
"1+	c #A6A4A5",
"2+	c #A3A1A2",
"3+	c #A09F9F",
"4+	c #979595",
"5+	c #9B9A99",
"6+	c #A2A0A0",
"7+	c #9F9E9E",
"          . + @ # # $ $ $ $ $ % & *         ",
"          = + @ # # $ $ $ $ $ % & *         ",
"          - ; @ # # $ $ $ $ $ % & *         ",
"          - ; @ # $ $ $ $ $ $ % & .         ",
"          > ; @ # $ $ $ $ $ $ % , '         ",
"          > ; @ # $ $ $ $ $ $ % , -         ",
"          ) ! @ # $ $ $ $ $ $ % , -         ",
"          ~ ! @ # $ $ $ $ $ $ % , >         ",
"          ~ ! @ # $ $ $ $ $ $ % , >         ",
"          { ! @ $ $ $ $ $ $ $ % ] )         ",
"          ^ ! @ $ $ $ $ $ $ $ % ] /         ",
"( _ : < [ } ! @ $ $ $ $ $ $ $ % ] | 1 1 1 2 ",
"3 4 5 6 7 8 ! @ $ $ $ $ $ $ $ % ] 9 0 a b c ",
"d e f g h i ! @ j j j j j j j k ] l m n o p ",
"q r s t u v ! w x x x x x x x @ ] y c z s A ",
"m m B C D E ! F G G G G G G G H ] y I m s J ",
"K L M N O P * Q Q Q Q Q Q Q Q Q ; l c z R S ",
"T U V W X P Y ] ] ] ] ] ] ] ] ] * Z h R g ` ",
" ...+.@.#.$.%.- - - - - - - - - > &.R A *.=.",
"-.;.>.+.I ,.'.'.'.'.'.'.'.'.'.'.'.).A *.!.~.",
"3 {.].^./.(._._._._._._._._._._._.:.*.<.[.}.",
"|.N ^.1.2.3.4.4.4.4.4.4.4.4.4.4.4.5.<.[.6.7.",
"8.9.0.a.b.c.d.e.f.g.h.i.j.k.l.m.n.o.p.6.~.7.",
"q.r.b.s.t.u.v.w.x.y.z.A.B.C.D.E.F.G.6.~.H.7.",
"I.u.J.v.K.L.M.N.A.A.B.O.P.Q.R.S.T.U.~.e H.V.",
"W.X.Y.Z.`. +O..+B.++P.@+#+$+%+%+&+*+~.H.=+-+",
";+L.>+L.,+'+)+!+~+*+N.O.Q.$+{+]+Q.^+A J /+f ",
"          ^+(+_+:+z.++<+$+[+}+|+            ",
"          )+1+2+3+O.@+&+4+}+}+|+            ",
"          ~+*+A.P.5+%+]+}+}+}+|+            ",
"          6+7+P.5+{+]+}+}+}+}+}+            "};
