/* XPM */
static char * gRealSerialDCE_HeadUpSide_xpm[] = {
"73 73 261 2",
"  	c None",
". 	c #1979B0",
"+ 	c #122A54",
"@ 	c #142E5C",
"# 	c #163466",
"$ 	c #173A70",
"% 	c #18407A",
"& 	c #1A4685",
"* 	c #1C4C91",
"= 	c #1C539C",
"- 	c #1E58A4",
"; 	c #1E59A5",
"> 	c #152F5D",
", 	c #163467",
"' 	c #173A71",
") 	c #19407B",
"! 	c #1C4D91",
"~ 	c #1D539C",
"{ 	c #1878AF",
"] 	c #1875AE",
"^ 	c #1873AE",
"/ 	c #1771AD",
"( 	c #176EAC",
"_ 	c #166CAB",
": 	c #1878B0",
"< 	c #1876AF",
"[ 	c #1772AD",
"} 	c #166AAA",
"| 	c #1566A8",
"1 	c #1978B0",
"2 	c #1877AF",
"3 	c #1875AF",
"4 	c #1775AE",
"5 	c #1D58A4",
"6 	c #134C9F",
"7 	c #1772AE",
"8 	c #1662A7",
"9 	c #697180",
"0 	c #717989",
"a 	c #788192",
"b 	c #7E899C",
"c 	c #8491A5",
"d 	c #8B9AAF",
"e 	c #92A2B9",
"f 	c #98ABC3",
"g 	c #9FB2CC",
"h 	c #A5B9D2",
"i 	c #ABBFD8",
"j 	c #B1C5DE",
"k 	c #AABED7",
"l 	c #9CB0CA",
"m 	c #2777B0",
"n 	c #1977AF",
"o 	c #969696",
"p 	c #9F9F9F",
"q 	c #A9A9A9",
"r 	c #B2B2B2",
"s 	c #BBBBBB",
"t 	c #C4C4C4",
"u 	c #CECECE",
"v 	c #D7D7D7",
"w 	c #E0E0E0",
"x 	c #E9E9E9",
"y 	c #F3F3F3",
"z 	c #FBFBFB",
"A 	c #F1F1F1",
"B 	c #DCDCDC",
"C 	c #2E7CB2",
"D 	c #A8A8A8",
"E 	c #BABABA",
"F 	c #F2F2F2",
"G 	c #8D8D8D",
"H 	c #1A1A1A",
"I 	c #353535",
"J 	c #5E5E5E",
"K 	c #5C5C5C",
"L 	c #464646",
"M 	c #DEDEDE",
"N 	c #343434",
"O 	c #4B4B4B",
"P 	c #484848",
"Q 	c #8A8A8A",
"R 	c #292929",
"S 	c #A5A5A5",
"T 	c #3A3A3A",
"U 	c #888888",
"V 	c #323232",
"W 	c #7F7F7F",
"X 	c #C5C5C5",
"Y 	c #1E1E1E",
"Z 	c #D5D5D5",
"` 	c #2B2B2B",
" .	c #595959",
"..	c #545454",
"+.	c #4D4D4D",
"@.	c #D6D6D6",
"#.	c #919191",
"$.	c #272727",
"%.	c #939393",
"&.	c #282828",
"*.	c #CCCCCC",
"=.	c #646464",
"-.	c #C0C0C0",
";.	c #D9D9D9",
">.	c #909090",
",.	c #424242",
"'.	c #747474",
").	c #C3C3C3",
"!.	c #787878",
"~.	c #E3E3E3",
"{.	c #585858",
"].	c #5A5A5A",
"^.	c #CACACA",
"/.	c #9E9E9E",
"(.	c #A3A3A3",
"_.	c #ADADAD",
":.	c #CDCDCD",
"<.	c #C9C9C9",
"[.	c #DDDDDD",
"}.	c #EBEBEB",
"|.	c #DBDBDB",
"1.	c #586377",
"2.	c #5E6A80",
"3.	c #647189",
"4.	c #697993",
"5.	c #6E819C",
"6.	c #7488A6",
"7.	c #7A91B1",
"8.	c #7F99BB",
"9.	c #84A0C4",
"0.	c #89A5C9",
"a.	c #8EAACE",
"b.	c #93AFD3",
"c.	c #8EA9CD",
"d.	c #829EC2",
"e.	c #2375AF",
"f.	c #186DAC",
"g.	c #163366",
"h.	c #183F7A",
"i.	c #1B4C91",
"j.	c #1773AE",
"k.	c #176DAC",
"l.	c #142F5C",
"m.	c #122F5A",
"n.	c #133D6B",
"o.	c #1C5EA7",
"p.	c #1770AD",
"q.	c #154E80",
"r.	c #1A67A9",
"s.	c #17669B",
"t.	c #1D5BA5",
"u.	c #176FAC",
"v.	c #153C6C",
"w.	c #1A65A9",
"x.	c #1876AE",
"y.	c #175F94",
"z.	c #173970",
"A.	c #1D5DA6",
"B.	c #1978AE",
"C.	c #174B80",
"D.	c #1D5BA6",
"E.	c #1974AB",
"F.	c #184F86",
"G.	c #18417C",
"H.	c #1D5EA7",
"I.	c #196DAC",
"J.	c #1977AE",
"K.	c #19669F",
"L.	c #1A5895",
"M.	c #1B5798",
"N.	c #1B5FA2",
"O.	c #1A69AA",
"P.	c #1872AE",
"Q.	c #1774AE",
"R.	c #1874AE",
"S.	c #1879AF",
"T.	c #1879B0",
"U.	c #1773AD",
"V.	c #1874AF",
"W.	c #176FAD",
"X.	c #166EAB",
"Y.	c #1669AA",
"Z.	c #1567A9",
"`.	c #1564A8",
" +	c #1461A7",
".+	c #135EA5",
"++	c #135AA4",
"@+	c #1358A3",
"#+	c #1357A3",
"$+	c #1356A3",
"%+	c #1770AC",
"&+	c #166BAA",
"*+	c #1563A7",
"=+	c #1460A6",
"-+	c #145CA5",
";+	c #1258A3",
">+	c #1154A1",
",+	c #1150A0",
"'+	c #114C9F",
")+	c #114A9E",
"!+	c #1568A9",
"~+	c #1359A4",
"{+	c #1254A2",
"]+	c #166BAB",
"^+	c #1255A2",
"/+	c #1151A0",
"(+	c #114D9F",
"_+	c #145EA6",
":+	c #145BA4",
"<+	c #1257A3",
"[+	c #1153A1",
"}+	c #1251A1",
"|+	c #1251A0",
"1+	c #114EA0",
"2+	c #114B9E",
"3+	c #145DA6",
"4+	c #1358A4",
"5+	c #1256A3",
"6+	c #1152A1",
"7+	c #1668A8",
"8+	c #1560A5",
"9+	c #1357A2",
"0+	c #145DA5",
"a+	c #145BA5",
"b+	c #1256A2",
"c+	c #176EAA",
"d+	c #176DAB",
"e+	c #1460A5",
"f+	c #114A9D",
"g+	c #135BA3",
"h+	c #1668A6",
"i+	c #166CA9",
"j+	c #114E9E",
"k+	c #12539F",
"l+	c #13579C",
"m+	c #13579B",
"n+	c #166BA9",
"o+	c #1565A8",
"p+	c #114E9D",
"q+	c #1253A2",
"r+	c #124F9F",
"s+	c #104894",
"t+	c #104792",
"u+	c #135B9F",
"v+	c #145CA0",
"w+	c #0F418B",
"x+	c #114FA0",
"y+	c #114C9D",
"z+	c #104693",
"A+	c #0F4087",
"B+	c #114F91",
"C+	c #125697",
"D+	c #114F90",
"E+	c #0D3975",
"F+	c #0D3B7D",
"G+	c #1250A0",
"H+	c #114B9F",
"I+	c #0D3C81",
"J+	c #0C346F",
"K+	c #0C3673",
"L+	c #104798",
"                                          . . . . . . . . + @ # $ % & * = - ; ; ; ; ;                                                             ",
"                                        . . . . . . . . . + > , ' ) & ! ~ ; ; ; ; ; ;                                                             ",
"                                        . . . . . . . . . + @ # $ % & * = - ; ; ; ; ;                                                             ",
"                                        . . . . . . . . . + > , ' ) & ! ~ ; ; ; ; ; ;                                                             ",
"                                        . . . . . . . . . + @ # $ % & * = - ; ; ; ; ;                                                             ",
"                                        . . . . . . . . . + > , ' ) & ! ~ ; ; ; ; ; ;                                                             ",
"                                          . . . . . . . . + @ # $ % & * = - ; ; ; ; ;                                                             ",
"                                          . . { ] ^ / ( _ + > , ' ) & ! ~ ; ; ; ; ; ;                                                             ",
"                                          . . : < [ ( } | + @ # $ % & * = - ; ; ; ; ;                                                             ",
"                                          . . 1 2 < [ ( } + > , ' ) & ! ~ ; ; ; ; ; ;                                                             ",
"                                          . . : 3 4 < [ ( + @ # $ % & * = 5 ; ; ; ; ; 6                                                           ",
"                                          . . 1 3 7 < 2 ] + > , ' ) & ! ~ ; ; ; ; ; ; 8                                                           ",
"                                          . . : 3 7 2 . . 9 0 a b c d e f g h i j k l m                                                           ",
"                                          . . 1 3 7 n . . o p q r s t u v w x y z A B C                                                           ",
"                                          . . : 3 7 2 . . o p D r E t u t w x F z A B C                                                           ",
"                                          . . 1 3 7 n . . o G H I J t K L L M N O P B C                                                           ",
"                                          . . : 3 7 2 . . o Q R S T U V u W X Y Z Z B C                                                           ",
"                                          . . : 3 7 2 . . o Q ` r  ...+.@.w x Y J #.B C                                                           ",
"                                          . . : 3 7 2 . . o Q $.o R %.&.*.=.-.Y B @.;.C                                                           ",
"                                          . . : 3 7 2 . . o >.V ,.'.).!.,.=.~.{.J ].^.C                                                           ",
"                                          . . : 3 7 2 . . o /.(._.E t :.<.[.x }.F x |.C                                                           ",
"                                          . . : 3 7 2 . . o p D r E t u @.w x F z A B C                                                           ",
"                                          . . : < 7 2 . . 1.2.3.4.5.6.7.8.9.0.a.b.c.d.e.                                                          ",
"                                          . . : < 7 2 . . + @ # $ % & * = 5 ; ; ; ; ; f.                                                          ",
"                                          . . : < 7 2 . . + @ g.$ % & * = - ; ; ; ; ; f.                                                          ",
"                                          . . : 3 7 2 . . + @ # $ h.& * = - ; ; ; ; ; f.                                                          ",
"                                          . . : < 7 2 . . + @ # $ % & * = - ; ; ; ; ; f.                                                          ",
"                                          . . : < 7 2 . . + @ g.$ h.& i.= - ; ; ; ; ; f.                                                          ",
"                                          . . : < 7 2 . . + @ # $ % & * = - ; ; ; ; ; f.                                                          ",
"                                          . . : < j.2 . . + @ # $ h.& * = - ; ; ; ; ; k.                                                          ",
"                                          . . : < 7 2 . . + @ # $ % & * = - ; ; ; ; ; f.                                                          ",
"                                          . . : 3 7 2 . . + @ # $ h.& * = - ; ; ; ; ; f.                                                          ",
"                                          . . : < 7 2 . . + @ # $ % & * = - ; ; ; ; ; f.                                                          ",
"                                          . . : < 7 2 . . + @ # $ h.& * = - ; ; ; ; ; k.                                                          ",
"                                          . . : < 7 2 . . + l.# $ % & i.= - ; ; ; ; ; f.                                                          ",
"                                          . . : < 7 2 . . + @ # $ h.& * = 5 ; ; ; ; ; f.                                                          ",
"                                          . . : < 7 2 . . m.@ # $ % & * = - ; ; ; ; ; (                                                           ",
"                                          . . : 3 7 2 . . n.@ g.$ h.& * = - ; ; ; ; o.p.                                                          ",
"                                          . . 1 < j.n . . q.> , ' ) & ! ~ ; ; ; ; ; r.p.                                                          ",
"                                          . . : < 7 2 . . s.@ # $ h.& * = - ; ; ; t.u.p.                                                          ",
"                                          . . : < 7 < . . 2 v.# $ % & * = - ; ; ; w./ p.                                                          ",
"                                          . . { < 7 x.. . . y., z.% & i.= - ; ; A.p./ p.                                                          ",
"                                          . . 1 < j.< . . . B.C.' ) & ! ~ ; ; D.f.7 / p.                                                          ",
"                                          . . : 3 7 ] . . . . E.F.G.& * = - H.I.7 7 / p.                                                          ",
"                                          . . 1 < 7 x.. . . . . J.K.L.M.N.O.P.Q.7 7 [ p.                                                          ",
"                                          . . : < 7 x.. . . . . . . 1 2 < < 3 R.7 7 [ p.                                                          ",
"                                          . . S.< j.< . . . . . . . . 2 < < 3 R.j.7 / p.                                                          ",
"                                          . . : < [ x.. . . . . . . 1 2 < < 3 R.7 [ [ p.                                                          ",
"                                          . . : < 7 x.. . . . . . . 1 2 < < 3 Q.7 7 [ p.                                                          ",
"                                          . . : 3 7 x.. . . . . . . 1 2 < 3 3 R.7 7 [ p.                                                          ",
"                                          . . T.< 7 < . . . . . . . . 2 < < 3 R.7 7 [ p.                                                          ",
"                                          . . : < 7 x.. . . . . . . 1 2 < < 3 R.7 7 [ p.                                                          ",
"                                          . . : < j.x.. . . . . . . 1 2 < < 3 R.7 7 [ p.                                                          ",
"                                          . . T.< j.x.. . . . . . . . 2 < < 3 R.7 7 / p.                                                          ",
"                                          . . : < U.< . . . . . . . 1 2 < < 3 R.j.[ [ p.                                                          ",
"                                          . . : 3 j.x.. . . . . . . 1 2 < 3 3 R.7 7 [ p.                                                          ",
"                                          . . : < j.x.. . . . . . . 1 2 < < 3 R.j.7 [ p.                                                          ",
"                                          . . 1 < U.x.. . . . . . . 1 2 < < 3 R.j.[ [ p.                                                          ",
"                                          . . . < j.x.. . . . . . . . 2 < < 3 R.j.7 [ p.                                                          ",
"                                          . . : < j.x.. . . . 1 1 1 1 < 3 3 V.j.7 / / W.                                                          ",
"                                          . . : < j.] ] / X._ Y.Z.`. +.+++@+#+#+$+$+$+$+                                                          ",
"                                          . . 1 < 3 Q.%+&+Z.*+=+-+;+>+,+'+)+)+)+)+)+)+)+                                                          ",
"                                          . . . 2 Q.%+_ !+`.=+-+~+{+,+'+)+)+)+)+)+)+)+                                                            ",
"                                          . . 2 ^ %+]+Z.*+=+-+@+^+/+(+)+)+)+)+)+)+)+                                                              ",
"                                          . x._+-+:+~+<+^+[+}+|+,+1+2+)+)+)+)+)+)+)+                                                              ",
"                                          . < 3+-+++4+5+^+6+:+%+R.7+8+9+2+)+)+)+)+)+                                                              ",
"                                          . < 0+a+~+4+b+{+b+x.2 c+p.d+} e+f+)+)+)+)+                                                              ",
"                                          . ] -+++4+<+^+[+g+h+h+i+u._ Y.| j+)+)+)+)+                                                              ",
"                                          . ] -+++4+5+{+6+k+l+m+n+( &+!+o+p+)+)+)+)+                                                              ",
"                                          . ] :+~+<+^+q+}+r+s+t+u+d+} Z.v+w+)+)+)+)+                                                              ",
"                                          . 3 ++4+<+^+[+}+x+y+z+A+B+C+D+E+F+)+)+)+)+                                                              ",
"                                          . ] ~+4+b+{+6+G+1+(+H+I+J+J+J+J+K+)+)+)+)+                                                              ",
"                                            ] ~+<+b+{+}+G+1+'+)+f+F+J+J+J+J+L+)+)+)+                                                              "};
