/* XPM */
static char * gRealCopperXO_UpCorner_xpm[] = {
"38 33 163 2",
"  	c None",
". 	c #F3980E",
"+ 	c #F5980D",
"@ 	c #F7990D",
"# 	c #F1960E",
"$ 	c #EF930E",
"% 	c #EB8E0E",
"& 	c #E7890E",
"* 	c #E3850E",
"= 	c #E1820E",
"- 	c #E3830D",
"; 	c #E8890D",
"> 	c #EC8D0D",
", 	c #EE8F0D",
"' 	c #F0920D",
") 	c #F2940D",
"! 	c #F4960D",
"~ 	c #F5970D",
"{ 	c #F6980D",
"] 	c #F2970E",
"^ 	c #E88A0E",
"/ 	c #DE7F0E",
"( 	c #D5740E",
"_ 	c #CE6A0E",
": 	c #C8630E",
"< 	c #C45E0E",
"[ 	c #C15A0E",
"} 	c #BF580E",
"| 	c #BD590D",
"1 	c #BF5D0D",
"2 	c #C3610D",
"3 	c #C7650D",
"4 	c #CA690D",
"5 	c #CE6D0D",
"6 	c #D2710D",
"7 	c #D6750D",
"8 	c #DA790D",
"9 	c #DD7D0E",
"0 	c #E98C0E",
"a 	c #D06D0E",
"b 	c #C6600E",
"c 	c #BE580E",
"d 	c #BB520D",
"e 	c #B9500D",
"f 	c #B8500D",
"g 	c #B84F0D",
"h 	c #AB480C",
"i 	c #A1400B",
"j 	c #A4430B",
"k 	c #A8470B",
"l 	c #AB4A0B",
"m 	c #AF4D0C",
"n 	c #B3500C",
"o 	c #B6540C",
"p 	c #B9570C",
"q 	c #BD5B0E",
"r 	c #F0950E",
"s 	c #E6890E",
"t 	c #D7750E",
"u 	c #C8640E",
"v 	c #BE570E",
"w 	c #B9510D",
"x 	c #BA510D",
"y 	c #BA520E",
"z 	c #E98B0E",
"A 	c #D7760E",
"B 	c #C7620E",
"C 	c #BC550D",
"D 	c #BA520D",
"E 	c #BC550E",
"F 	c #EE920E",
"G 	c #DE7E0E",
"H 	c #CA660E",
"I 	c #BD560D",
"J 	c #BB540D",
"K 	c #D4720E",
"L 	c #C25C0E",
"M 	c #C0590E",
"N 	c #C35D0E",
"O 	c #E4860E",
"P 	c #CD690E",
"Q 	c #BD550D",
"R 	c #C35E0E",
"S 	c #E0820E",
"T 	c #C9640E",
"U 	c #DF800E",
"V 	c #C7610E",
"W 	c #C9650E",
"X 	c #EC8E0E",
"Y 	c #F2960E",
"Z 	c #C6610E",
"` 	c #C45F0E",
" .	c #CB680E",
"..	c #E6880F",
"+.	c #C55F0E",
"@.	c #D26F0E",
"#.	c #CD6B10",
"$.	c #E5860F",
"%.	c #BC540D",
"&.	c #C76510",
"*.	c #E2830F",
"=.	c #CC690E",
"-.	c #D6730E",
";.	c #C66410",
">.	c #D7760F",
",.	c #C15B0E",
"'.	c #DB7A0E",
").	c #AE4C10",
"!.	c #C56310",
"~.	c #C8640F",
"{.	c #DC7C0E",
"].	c #A94810",
"^.	c #C26010",
"/.	c #CF6B0E",
"(.	c #D9780E",
"_.	c #E2830E",
":.	c #A94710",
"<.	c #BB5810",
"[.	c #B8500E",
"}.	c #C05A0E",
"|.	c #D5730E",
"1.	c #E0810E",
"2.	c #A84711",
"3.	c #B55010",
"4.	c #BB530F",
"5.	c #DC7B0E",
"6.	c #E78A0E",
"7.	c #A74611",
"8.	c #B34D10",
"9.	c #C05A0F",
"0.	c #CB670E",
"a.	c #D6740E",
"b.	c #E2840E",
"c.	c #EC910E",
"d.	c #8F310F",
"e.	c #A54511",
"f.	c #C5600F",
"g.	c #E88B0E",
"h.	c #F1950E",
"i.	c #8E300F",
"j.	c #A44411",
"k.	c #B75410",
"l.	c #CA650F",
"m.	c #E1830E",
"n.	c #8D3010",
"o.	c #A54611",
"p.	c #BA5810",
"q.	c #CE6A0F",
"r.	c #DA790E",
"s.	c #8D2F10",
"t.	c #A74711",
"u.	c #BC5C11",
"v.	c #D16E0F",
"w.	c #EB8F0E",
"x.	c #BF5F11",
"y.	c #D4720F",
"z.	c #EE930E",
"A.	c #C16111",
"B.	c #D6760F",
"C.	c #E5870E",
"D.	c #A94711",
"E.	c #C26210",
"F.	c #D9790F",
"                                                                            ",
"                                          . . . . . . . + @ @ @ @ @ @ @ @ @ ",
"                                    . . . . . . . . . . + @ @ @ @ @ @ @ @ @ ",
"                                . . . . . . . . . . . . + @ @ @ @ @ @ @ @ @ ",
"                            . . . . . . . . . . . . . . + @ @ @ @ @ @ @ @ @ ",
"                        . . . . . . . . . . # $ % & * = - ; > , ' ) ! ~ { { ",
"                      . . . . . . . ] $ ^ / ( _ : < [ } | 1 2 3 4 5 6 7 8 9 ",
"                    . . . . . . # 0 9 a b c d e f f g f h i j k l m n o p q ",
"                  . . . . . r s t u v w e x y                               ",
"                . . . . ] z A B C f D E                                     ",
"              . . . . F G H I f J }                                         ",
"            . . . ] 0 K L w d M N                                           ",
"          . . . # O P Q e v R                                               ",
"          . . # S T D D [ B                                                 ",
"        . . # U V w J N W                                                   ",
"      X . Y = Z w C `  .                                                    ",
"      ..] O u w C +.P @.                                                    ",
"    #.$.0 P D %.` P K                                                       ",
"    &.*.K C D N =.-.                                                        ",
"    ;.>.,.f [ H K '.                                                        ",
"  ).!.~.f v : @.{.                                                          ",
"  ].^.E D ` /.(._.                                                          ",
"  :.<.[.}.H |.1.                                                            ",
"  2.3.4.Z a 5.6.                                                            ",
"  7.8.9.0.a.b.c.                                                            ",
"d.e.3.f.a {.g.h.                                                            ",
"i.j.k.l.|.m.F .                                                             ",
"n.o.p.q.r.s # .                                                             ",
"s.t.u.v.G w.]                                                               ",
"s.2.x.y.m.z..                                                               ",
"s.2.A.B.C.# .                                                               ",
"s.D.E.F.g.] .                                                               ",
"                                                                            "};
