/* XPM */
static char * gRealCopperXO_Vert_xpm[] = {
"33 11 7 1",
" 	c None",
".	c #85290F",
"+	c #9A3B10",
"@	c #B45311",
"#	c #D06F10",
"$	c #ED8E0E",
"%	c #F7990D",
"               .+@#$%%           ",
"               .+@#$%%           ",
"               .+@#$%%           ",
"               .+@#$%%           ",
"               .+@#$%%           ",
"               .+@#$%%           ",
"               .+@#$%%           ",
"               .+@#$%%           ",
"               .+@#$%%           ",
"               .+@#$%%           ",
"               .+@#$%%           "};
