/* XPM */
static char * gRealSerialDCE_HeadUp_xpm[] = {
"73 40 351 2",
"  	c None",
". 	c #122A54",
"+ 	c #142E5C",
"@ 	c #163366",
"# 	c #173970",
"$ 	c #183F7A",
"% 	c #1A4585",
"& 	c #1B4C91",
"* 	c #1C539C",
"= 	c #1D58A4",
"- 	c #1E59A5",
"; 	c #152E5C",
"> 	c #1A4685",
", 	c #1B4D91",
"' 	c #163367",
") 	c #6C7381",
"! 	c #737B8A",
"~ 	c #7A8394",
"{ 	c #818B9D",
"] 	c #8794A6",
"^ 	c #8E9CB0",
"/ 	c #95A5BA",
"( 	c #9CADC4",
"_ 	c #A2B5CD",
": 	c #A9BBD3",
"< 	c #AFC2DA",
"[ 	c #B5C8E0",
"} 	c #AEC1D9",
"| 	c #A0B3CB",
"1 	c #969696",
"2 	c #9F9F9F",
"3 	c #A9A9A9",
"4 	c #B1B1B1",
"5 	c #BABABA",
"6 	c #C4C4C4",
"7 	c #CDCDCD",
"8 	c #D6D6D6",
"9 	c #DFDFDF",
"0 	c #E9E9E9",
"a 	c #F2F2F2",
"b 	c #FBFBFB",
"c 	c #F1F1F1",
"d 	c #DCDCDC",
"e 	c #959595",
"f 	c #A8A8A8",
"g 	c #C3C3C3",
"h 	c #8D8D8D",
"i 	c #191919",
"j 	c #353535",
"k 	c #5E5E5E",
"l 	c #5C5C5C",
"m 	c #464646",
"n 	c #DEDEDE",
"o 	c #333333",
"p 	c #4A4A4A",
"q 	c #484848",
"r 	c #8A8A8A",
"s 	c #292929",
"t 	c #A4A4A4",
"u 	c #3A3A3A",
"v 	c #898989",
"w 	c #323232",
"x 	c #7D7D7D",
"y 	c #C5C5C5",
"z 	c #1D1D1D",
"A 	c #D5D5D5",
"B 	c #8B8B8B",
"C 	c #2B2B2B",
"D 	c #595959",
"E 	c #545454",
"F 	c #4D4D4D",
"G 	c #D7D7D7",
"H 	c #5D5D5D",
"I 	c #919191",
"J 	c #272727",
"K 	c #989898",
"L 	c #676767",
"M 	c #C0C0C0",
"N 	c #DADADA",
"O 	c #909090",
"P 	c #303030",
"Q 	c #414141",
"R 	c #707070",
"S 	c #747474",
"T 	c #434343",
"U 	c #606060",
"V 	c #E2E2E2",
"W 	c #CACACA",
"X 	c #9E9E9E",
"Y 	c #A2A2A2",
"Z 	c #ACACAC",
"` 	c #CCCCCC",
" .	c #C6C6C6",
"..	c #EAEAEA",
"+.	c #E7E7E7",
"@.	c #DBDBDB",
"#.	c #5D6779",
"$.	c #636F82",
"%.	c #6A768C",
"&.	c #6F7E96",
"*.	c #75869F",
"=.	c #7B8DA9",
"-.	c #8196B4",
";.	c #869EBD",
">.	c #8CA6C6",
",.	c #92ABCC",
"'.	c #97B0D1",
").	c #9CB5D6",
"!.	c #96AFD0",
"~.	c #8AA3C4",
"{.	c #1979B0",
"].	c #142F5D",
"^.	c #193F7A",
"/.	c #1D539C",
"(.	c #1D58A5",
"_.	c #1A74AE",
":.	c #193F7B",
"<.	c #1975AE",
"[.	c #1460A7",
"}.	c #1461A7",
"|.	c #1562A7",
"1.	c #1562A8",
"2.	c #1563A8",
"3.	c #1564A8",
"4.	c #1565A8",
"5.	c #1771AD",
"6.	c #142E5D",
"7.	c #163466",
"8.	c #173A70",
"9.	c #1D59A5",
"0.	c #1357A3",
"a.	c #1358A4",
"b.	c #1359A4",
"c.	c #135AA4",
"d.	c #135BA4",
"e.	c #145CA5",
"f.	c #145DA5",
"g.	c #166CAB",
"h.	c #1877AF",
"i.	c #1876AF",
"j.	c #1C4C91",
"k.	c #1973AE",
"l.	c #1878AF",
"m.	c #1256A2",
"n.	c #1256A3",
"o.	c #1257A3",
"p.	c #145BA5",
"q.	c #1569AA",
"r.	c #1874AE",
"s.	c #1875AF",
"t.	c #1774AE",
"u.	c #163467",
"v.	c #1870AD",
"w.	c #1875AE",
"x.	c #1254A2",
"y.	c #1255A2",
"z.	c #1566A8",
"A.	c #1770AD",
"B.	c #1773AE",
"C.	c #18407A",
"D.	c #1873AE",
"E.	c #1152A1",
"F.	c #1153A1",
"G.	c #1463A7",
"H.	c #1770AC",
"I.	c #1D59A4",
"J.	c #1975AF",
"K.	c #166DAB",
"L.	c #1250A0",
"M.	c #1250A1",
"N.	c #1251A1",
"O.	c #145FA6",
"P.	c #1568A9",
"Q.	c #166BAB",
"R.	c #1A75AE",
"S.	c #176FAC",
"T.	c #114EA0",
"U.	c #114FA0",
"V.	c #1251A0",
"W.	c #1254A1",
"X.	c #135CA5",
"Y.	c #1567A9",
"Z.	c #173A71",
"`.	c #176DAB",
" +	c #1978AF",
".+	c #1977AF",
"++	c #114C9F",
"@+	c #114D9F",
"#+	c #114E9F",
"$+	c #104B9A",
"%+	c #114F98",
"&+	c #145FA1",
"*+	c #166AA9",
"=+	c #1460A6",
"-+	c #1569A9",
";+	c #152F5D",
">+	c #1772AD",
",+	c #1874AD",
"'+	c #13599D",
")+	c #145B9E",
"!+	c #166BA8",
"~+	c #114B9F",
"{+	c #114B9C",
"]+	c #104490",
"^+	c #114E96",
"/+	c #1460A1",
"(+	c #1772AC",
"_+	c #1357A2",
":+	c #1566A9",
"<+	c #1A75AF",
"[+	c #145DA6",
"}+	c #166AAA",
"|+	c #13589C",
"1+	c #114792",
"2+	c #13579C",
"3+	c #1669A7",
"4+	c #114A9E",
"5+	c #10489A",
"6+	c #0E4088",
"7+	c #104792",
"8+	c #135B9E",
"9+	c #1566A5",
"0+	c #166EAA",
"a+	c #1253A1",
"b+	c #1462A7",
"c+	c #176EAC",
"d+	c #1461A1",
"e+	c #104790",
"f+	c #125098",
"g+	c #1462A3",
"h+	c #1569A7",
"i+	c #104797",
"j+	c #0D3878",
"k+	c #0E3C7E",
"l+	c #1563A5",
"m+	c #1770AB",
"n+	c #1356A2",
"o+	c #1150A0",
"p+	c #183F7B",
"q+	c #11539E",
"r+	c #104C81",
"s+	c #125197",
"t+	c #166EAB",
"u+	c #1876AE",
"v+	c #0D3775",
"w+	c #0C346F",
"x+	c #0F4382",
"y+	c #166BAA",
"z+	c #124FA0",
"A+	c #11529C",
"B+	c #0D3E7B",
"C+	c #0F4475",
"D+	c #176FAB",
"E+	c #0F4483",
"F+	c #1669AA",
"G+	c #1565A7",
"H+	c #1258A3",
"I+	c #1978B0",
"J+	c #122B55",
"K+	c #173971",
"L+	c #1974AF",
"M+	c #1668AA",
"N+	c #0E4284",
"O+	c #0C366F",
"P+	c #0E4274",
"Q+	c #176DAA",
"R+	c #0D3774",
"S+	c #1460A3",
"T+	c #1358A2",
"U+	c #146798",
"V+	c #11315C",
"W+	c #152F5C",
"X+	c #1C4D91",
"Y+	c #1D5DA6",
"Z+	c #1151A1",
"`+	c #0E3F81",
" @	c #0F4174",
".@	c #125790",
"+@	c #0C3570",
"@@	c #0E3F7E",
"#@	c #12569D",
"$@	c #145DA3",
"%@	c #1256A1",
"&@	c #15679A",
"*@	c #11537C",
"=@	c #113964",
"-@	c #1A69AA",
";@	c #1463A8",
">@	c #0D3C81",
",@	c #0E4173",
"'@	c #114F7B",
")@	c #135995",
"!@	c #1562A6",
"~@	c #1564A6",
"{@	c #166CAA",
"]@	c #0D3B7F",
"^@	c #0E3F87",
"/@	c #104491",
"(@	c #12537C",
"_@	c #12537B",
":@	c #114671",
"<@	c #1D5CA6",
"[@	c #0D3C80",
"}@	c #0C3571",
"|@	c #104B87",
"1@	c #15639B",
"2@	c #176CAA",
"3@	c #15689B",
"4@	c #12527B",
"5@	c #12527A",
"6@	c #115079",
"7@	c #133664",
"8@	c #1A6AAB",
"9@	c #155FA6",
"0@	c #0E3E84",
"a@	c #0F4492",
"b@	c #145AA4",
"c@	c #156A9F",
"d@	c #11517A",
"e@	c #114874",
"f@	c #163568",
"g@	c #1B63A8",
"h@	c #114B9E",
"i@	c #1772AE",
"j@	c #15699F",
"k@	c #11527C",
"l@	c #124774",
"m@	c #163B71",
"n@	c #19407A",
"o@	c #1E59A4",
"p@	c #195897",
"q@	c #145EA6",
"r@	c #1358A3",
"s@	c #124F9F",
"t@	c #11517B",
"u@	c #114D78",
"v@	c #15467A",
"w@	c #184883",
"x@	c #1B4D8F",
"y@	c #1B5297",
"z@	c #195595",
"A@	c #145283",
"B@	c #135E8F",
"C@	c #124E9F",
"D@	c #166BA4",
"E@	c #166EA8",
"F@	c #166CA6",
"G@	c #11527E",
"H@	c #114F79",
"I@	c #125582",
"J@	c #146195",
"                                                          . + @ # $ % & * = - - - - -                                                             ",
"                                                          . ; @ # $ > & * = - - - - -                                                             ",
"                                                          . + @ # $ > & * = - - - - -                                                             ",
"                                                          . + @ # $ % , * = - - - - -                                                             ",
"                                                          . ; ' # $ % , * = - - - - -                                                             ",
"                                                          ) ! ~ { ] ^ / ( _ : < [ } |                                                             ",
"                                                          1 2 3 4 5 6 7 8 9 0 a b c d                                                             ",
"                                                          e 2 f 4 5 6 7 g 9 0 a b c d                                                             ",
"                                                          e h i j k 6 l m m n o p q d                                                             ",
"                                                          e r s t u v w 7 x y z A A d                                                             ",
"                                                          e B C 4 D E F G 9 0 z H I d                                                             ",
"                                                          e r J K C I s 7 L M z d 8 N                                                             ",
"                                                          1 O P Q R g S T U V E H D W                                                             ",
"                                                          1 X Y Z 5 6 `  .d 0 ..c +.@.                                                            ",
"                                                          1 2 f 4 5 6 7 8 9 0 a b c d                                                             ",
"                                                          #.$.%.&.*.=.-.;.>.,.'.).!.~.                                                            ",
"  {.{.{.{.{.{.{.{.{.{.{.{.{.{.{.{.{.{.{.{.{.{.{.{.{.{.{.{.. ].@ # ^.% , /.(.- - - - - _.{.{.{.{.{.{.{.{.{.{.{.{.{.{.{.{.{.{.{.{.{.{.{.{.{.{.{.{.  ",
"{.{.{.{.{.{.{.{.{.{.{.{.{.{.{.{.{.{.{.{.{.{.{.{.{.{.{.{.{.. ; @ # :.% & * = - - - - - <.{.{.{.{.{.{.{.{.{.{.{.{.{.{.{.{.{.{.{.{.{.{.{.{.{.{.{.{.{.",
"[.}.}.|.1.2.2.3.4.5.{.{.{.{.{.{.{.{.{.{.{.{.{.{.{.{.{.{.{.. 6.7.8.^.> & * 9.- - - - - <.{.{.{.{.{.{.{.{.{.{.{.{.{.{.{.{.{.{.{.{.{.{.{.{.{.{.{.{.{.",
"0.a.b.b.c.d.e.e.f.g.h.i.i.i.i.i.i.i.i.i.i.i.i.i.i.i.i.i.i.. + 7.# $ % j.* = - - - - - k.i.i.i.i.i.i.i.i.i.i.i.i.i.i.i.i.i.i.i.h.l.h.{.{.{.{.{.{.{.",
"m.n.o.a.a.b.c.d.p.q.r.s.t.t.t.t.t.t.t.t.t.t.t.t.t.t.t.t.t.. ; u.# $ > & * (.- - - - - v.t.t.t.t.t.t.t.t.t.t.t.t.t.t.t.t.t.t.t.h.w.i.{.{.{.{.{.{.{.",
"x.x.y.m.o.0.a.b.b.z.A.t.B.B.B.B.B.B.B.B.B.B.B.B.B.B.B.B.B.. + 7.# C.% & * = - - - - - v.B.B.B.B.B.B.B.B.B.B.B.B.B.B.B.B.B.B.i.r.5.D.{.{.{.{.{.{.{.",
"E.E.F.x.y.y.n.o.a.G.g.H.t.{.{.{.{.{.{.{.{.{.{.{.{.{.{.{.{.. 6.7.# $ > & * I.- - - - - J.{.{.{.{.{.{.{.{.{.{.{.{.{.{.{.{.{.l.r.A.K.5.{.{.{.{.{.{.{.",
"L.M.N.E.F.x.x.y.m.O.P.Q.A.{.{.{.{.{.{.{.{.{.{.{.{.{.{.{.{.. + ' # $ > & /.= - - - - - R.{.{.{.{.{.{.{.{.{.{.{.{.{.{.{.{.{.i.A.g.P.S.{.{.{.{.{.{.{.",
"T.U.U.L.V.W.x.F.x.X.3.Y.K.{.{.{.{.{.{.{.{.{.{.{.{.{.{.{.{.. + @ Z.$ % & * = - - - - - J.{.{.{.{.{.{.{.{.{.{.{.{.{.{.{.{.{.r.g.P.3.`.{. +w..+{.{.{.",
"++@+#+$+%+&+*+c.E.c.=+2.-+{.{.{.{.{.{.{.{.{.{.{.{.{.{.{.{.. ;+@ # $ % j.* (.- - - - - <.{.{.{.{.{.{.{.{.{.{.{.{.{.{.{.{.{.>+P.3.}.g.,+'+)+!+l.{.{.",
"~+~+{+]+^+/+(+r.N._+e.=+:+{.{.{.{.{.{.{.{.{.{.{.{.{.{.{.{.. + ' # C.> & * I.- - - - - <+{.{.{.{.{.{.{.{.{.{.{.{.{.{.{.{.{.H.3.}.[+}+|+1+2+3+l.{.{.",
"4+5+6+7+8+9+0+ +0.a+a.e.b+{.{.{.{.{.{.{.{.{.{.{.{.{.{.{.{.. + ' # $ % & * (.- - - - - <.{.{.{.{.{.{.{.{.{.{.{.{.{.{.{.{.{.c+[.[+b.d+e+f+g+h+w.{.{.",
"i+j+k+l+S.A.H.m+n+o+x.a.O.{.{.{.{.{.{.{.{.{.{.{.{.{.{.{.{.. ; @ # p+> , /.I.- - - - - J.{.{.{.{.{.{.{.{.{.{.{.{.{.{.{.{.{.g.f.b.q+r+s+`.S.5.t+u+{.",
"v+w+x+y+g.`.c+*+z+@+o+x.X.{.{.{.{.{.{.{.{.{.{.{.{.{.{.{.{.. 6.@ 8.$ % , * (.- - - - - <.{.{.{.{.{.{.{.{.{.{.{.{.{.{.{.{.{.}+b.A+B+C+d+y+K.c+S.D+{.",
"w+w+E+P.F+}+y+G+4+4+@+o+H+I+I+I+I+I+I+I+I+I+I+I+I+I+I+I+.+J+].@ K+$ % , /.I.- - - - - L+I+I+I+I+I+I+I+I+I+I+I+I+I+I+I+I+I+M+y.N+O+P+d+P.F+}+g.Q+h.",
"w+w+R+S+z.Y.P.T+4+4+4+++x.i.i.i.i.i.i.i.i.i.i.i.i.i.i.u+U+V+W+@ # C.> X+* (.- - - - Y+i.i.i.i.i.i.i.i.i.i.i.i.i.i.i.i.i.i.4.Z+`+w+ @.@4.:+Y.P.D+s.",
"w+w++@@@#@$@%@4+4+4+4+4+Z+i.i.i.i.i.i.i.i.i.i.i.i.i.i.&@*@=@].@ # $ % , * 9.- - - - -@i.i.i.i.i.i.i.i.i.i.i.i.i.i.i.i.i.i.;@@+>@w+,@'@)@!@~@{@>+B.",
"]@^@/@5+4+4+4+4+4+4+4+4+z+s.s.s.s.s.s.s.s.s.s.s.s.s.&@(@_@:@].' # p+> , * I.- - - <@r.s.s.s.s.s.s.s.s.s.s.s.s.s.s.s.s.s.s.[.4+[@}@|@1@2@c+S.A.A.5.",
"4+4+4+4+4+4+4+4+4+4+4+4+U.s.s.s.s.s.s.s.s.s.s.s.s.3@4@5@5@6@7@@ # $ % & * I.- - - 8@s.s.s.s.s.s.s.s.s.s.s.s.s.s.s.s.s.s.s.9@4+0@a@b@y+Q.g.`.c+c+S.",
"4+4+4+4+4+4+4+4+4+4+4+4+U.B.B.B.B.B.B.B.B.B.B.B.c@(@d@d@d@d@e@f@8.^.% , /.= - - g@B.B.B.B.B.B.B.B.B.B.B.B.B.B.B.B.B.B.B.B.O.4+4+4+b.F+F+}+y+g.`.`.",
"h@4+4+4+4+4+4+4+4+4+4+4+U.i@i@i@i@i@i@i@i@i@i@j@k@d@d@d@d@d@d@l@m@n@> j.* (.o@p@i@i@i@i@i@i@i@i@i@i@i@i@i@i@i@i@i@i@i@i@i@q@4+4+4+r@Y.P.P.F+}+y+y+",
"                    4+4+s@>+>+>+>+>+>+>+>+>+j@t@6@6@6@6@6@6@6@6@u@v@w@x@y@z@A@B@>+>+>+>+>+>+>+>+>+>+>+>+>+>+>+>+>+>+>+>+>+q@4+4+4+                ",
"                      4+C@5.5.5.5.5.5.5.5.D@k@6@6@6@6@6@6@6@6@6@6@6@6@6@6@6@k@E@5.5.5.5.5.5.5.5.5.5.5.5.5.5.5.5.5.5.5.5.5.[+4+4+                  ",
"                        N.A.A.A.A.A.A.A.F@G@H@H@H@H@H@H@H@H@H@H@H@H@I@I@I@I@J@A.A.A.A.A.A.A.A.A.A.A.A.A.A.A.A.A.A.A.A.A.A.f.                      "};
