/* XPM */
static char * gRealPhone_HeadDown_xpm[] = {
"22 30 226 2",
"  	c None",
". 	c #D8D7D6",
"+ 	c #DCDBDA",
"@ 	c #DDDCDA",
"# 	c #DDDCDB",
"$ 	c #DEDDDB",
"% 	c #DEDDDC",
"& 	c #DFDFD6",
"* 	c #E6E2AE",
"= 	c #DEDCD7",
"- 	c #E5E0B1",
"; 	c #DBDAD4",
"> 	c #E4E0AC",
", 	c #DAD9CC",
"' 	c #E1DDB2",
") 	c #DBD8C3",
"! 	c #D5D4D2",
"~ 	c #D4D3D0",
"{ 	c #D3D2D0",
"] 	c #D2D1D0",
"^ 	c #C5C4C3",
"/ 	c #B7B6B6",
"( 	c #B2B2B1",
"_ 	c #BBBBBA",
": 	c #C0C0BE",
"< 	c #C4C4C3",
"[ 	c #CAC9C3",
"} 	c #D3CFAA",
"| 	c #D2D2CF",
"1 	c #DBD8B5",
"2 	c #D7D6D2",
"3 	c #DBD7B2",
"4 	c #D3D2C9",
"5 	c #D6D2B4",
"6 	c #D0CEBF",
"7 	c #CACAC9",
"8 	c #C8C7C6",
"9 	c #C6C5C4",
"0 	c #C4C3C2",
"a 	c #C2C1C0",
"b 	c #BDBDBC",
"c 	c #B9B9B9",
"d 	c #B7B7B6",
"e 	c #BCBCBB",
"f 	c #C1C1BF",
"g 	c #CBCAC9",
"h 	c #D0CFCA",
"i 	c #D9D5AF",
"j 	c #D9D8D6",
"k 	c #DDDAB6",
"l 	c #D7D6D3",
"m 	c #DAD6B0",
"n 	c #D3D1C9",
"o 	c #D5D2B2",
"p 	c #CFCDBE",
"q 	c #C8C8C6",
"r 	c #C5C5C4",
"s 	c #C3C3C1",
"t 	c #C0C0BF",
"u 	c #BEBEBD",
"v 	c #C0BFBE",
"w 	c #CAC9C8",
"x 	c #CECECD",
"y 	c #D3D3D3",
"z 	c #D9D8D3",
"A 	c #DFDDB6",
"B 	c #DCDCD9",
"C 	c #DDDBB7",
"D 	c #D9D8D4",
"E 	c #D9D6B0",
"F 	c #D4D3CA",
"G 	c #D5D2B3",
"H 	c #D0CEC0",
"I 	c #CBCBCA",
"J 	c #C9C9C8",
"K 	c #C7C6C5",
"L 	c #C2C2C0",
"M 	c #BFBFBE",
"N 	c #C6C6C4",
"O 	c #CBCACA",
"P 	c #D0CFCF",
"Q 	c #D5D4D4",
"R 	c #DADAD9",
"S 	c #DDDDDD",
"T 	c #DBDBDA",
"U 	c #DAD9D6",
"V 	c #D8D7D7",
"W 	c #D6D5D2",
"X 	c #D3D2D1",
"Y 	c #D1CFCD",
"Z 	c #CECDCB",
"` 	c #C9C8C7",
" .	c #C6C6C5",
"..	c #C1C1C0",
"+.	c #BFBEBD",
"@.	c #BAB9B9",
"#.	c #CAC9C9",
"$.	c #CFCFCE",
"%.	c #D4D4D4",
"&.	c #D9D9D9",
"*.	c #DAD6D8",
"=.	c #D9D3D6",
"-.	c #D8D2D5",
";.	c #D6CBD0",
">.	c #D4C8CE",
",.	c #D3C7CD",
"'.	c #D1C1C9",
").	c #CFBEC6",
"!.	c #CDBCC4",
"~.	c #CCB7C1",
"{.	c #CAB3BE",
"].	c #C9B2BD",
"^.	c #C6B5BD",
"/.	c #D4D3D3",
"(.	c #D9D8D8",
"_.	c #DAD9D9",
":.	c #D0A7BC",
"<.	c #CD97B4",
"[.	c #CD95B2",
"}.	c #CC95B2",
"|.	c #CC93B1",
"1.	c #CC92B0",
"2.	c #CC91B0",
"3.	c #C8A1B5",
"4.	c #BABAB9",
"5.	c #B5B5B4",
"6.	c #CCCCCB",
"7.	c #D3D2D2",
"8.	c #D7D7D6",
"9.	c #CDCCCB",
"0.	c #CC9FB6",
"a.	c #CE91B1",
"b.	c #B8B7B6",
"c.	c #B3B2B2",
"d.	c #CFCECE",
"e.	c #D6D5D5",
"f.	c #D6D5D4",
"g.	c #BBB9B8",
"h.	c #C798B0",
"i.	c #D394B5",
"j.	c #CAA2B7",
"k.	c #B5B4B5",
"l.	c #B1B1B1",
"m.	c #D3D3D2",
"n.	c #BDBBB9",
"o.	c #B6B5B3",
"p.	c #C797B0",
"q.	c #D697B9",
"r.	c #CBA3B8",
"s.	c #B5B4B4",
"t.	c #B2B3B3",
"u.	c #B0B0B0",
"v.	c #CBCBCB",
"w.	c #C9C9C7",
"x.	c #BBBAB7",
"y.	c #B9B8B5",
"z.	c #B6B4B2",
"A.	c #CA9AB3",
"B.	c #DA9ABC",
"C.	c #DB9BBE",
"D.	c #DA9ABD",
"E.	c #CAA1B7",
"F.	c #B4B4B4",
"G.	c #B3B3B3",
"H.	c #B2B2B2",
"I.	c #B1B0B0",
"J.	c #C3C3C2",
"K.	c #B7B6B3",
"L.	c #B5B4B2",
"M.	c #CD9DB6",
"N.	c #DC9BBF",
"O.	c #E09EC2",
"P.	c #DD9CBF",
"Q.	c #B8B8B6",
"R.	c #B4B3B1",
"S.	c #B4B2B0",
"T.	c #B3B2B0",
"U.	c #B2B1AF",
"V.	c #CC9DB5",
"W.	c #E5A2C6",
"X.	c #DF9DC1",
"Y.	c #C9A1B7",
"Z.	c #B2B1B1",
"`.	c #B1B1B0",
" +	c #B5B4B3",
".+	c #B1B0AE",
"++	c #B1AFAD",
"@+	c #B0AFAD",
"#+	c #AFAEAC",
"$+	c #CC9CB5",
"%+	c #DE9CC0",
"&+	c #E8A4CA",
"*+	c #EAA5CB",
"=+	c #E9A5CA",
"-+	c #DF9EC1",
";+	c #C9A0B6",
">+	c #B0B1B0",
",+	c #B2B2B0",
"'+	c #B0AEAD",
")+	c #AEAEAC",
"!+	c #EBA6CC",
"~+	c #EFA8D0",
"{+	c #EDA7CE",
"]+	c #CBA2B8",
"^+	c #B6B6B6",
"/+	c #B6B5B5",
"(+	c #B4B4B3",
"_+	c #D399B9",
":+	c #ECA7CD",
"<+	c #F2ABD3",
"[+	c #EFA8CF",
"}+	c #D59CBA",
"|+	c #F3ACD4",
"1+	c #EFA9D0",
"2+	c #D798BA",
"3+	c #D798B9",
"4+	c #D898BA",
"5+	c #DF9EC2",
"6+	c #D999BB",
"7+	c #F3ACD3",
"8+	c #D99ABC",
"9+	c #DE9DC0",
"0+	c #DC9BBD",
"a+	c #E09FC2",
"b+	c #DC9CBF",
"c+	c #DB9BBD",
"                                            ",
". + @ # $ % & * = - ; > , ' ) ! ~ { ] ] ] ^ ",
"/ ( / _ : < [ } | 1 2 3 4 5 6 7 8 9 0 a : b ",
"c d e f 9 g h i j k l m n o p 7 q r s t u _ ",
"t v ^ w x y z A B C D E F G H I J K ^ L M _ ",
"r N O P Q R S B T U V W X Y Z I `  .< ..+.@.",
"8 #.$.%.&.*.=.-.;.>.,.'.).!.~.{.].^.a M e / ",
"w x /.(._.:.<.<.[.}.}.|.|.|.1.2.2.3.+.e 4.5.",
"6.7.8.V 9.0.a.a.a.a.a.a.a.a.a.a.a.3.e 4.b.c.",
"d.e.f.w g.h.i.i.i.i.i.i.i.i.i.i.i.j.c d k.l.",
"d.m.w n.o.p.q.q.q.q.q.q.q.q.q.q.q.r.d s.t.u.",
"v.w.x.y.z.A.B.C.C.C.C.C.C.C.C.C.D.E.F.G.H.I.",
"J.y.K.o.L.M.N.O.O.O.O.O.O.O.O.O.P.E.G.H.( I.",
"Q.R.S.T.U.V.P.W.W.W.W.W.W.W.W.W.X.Y.H.( Z.`.",
" +.+++@+#+$+%+&+*+*+*+*+*+*+*+=+-+;+H.Z.l.>+",
",+'+#+)+#+$+%+!+~+~+~+~+~+~+~+{+-+]+^+/+s.(+",
"          _+%+:+<+<+<+<+<+<+<+[+-+}+        ",
"          q.%+:+|+|+|+|+|+|+|+1+-+2+        ",
"          3+%+:+|+|+|+|+|+|+|+1+-+4+        ",
"          2+%+:+|+|+|+|+|+|+|+1+-+4+        ",
"          2+%+:+|+|+|+|+|+|+|+1+5+6+        ",
"          4+%+:+7+|+|+|+|+|+|+1+O.8+        ",
"          4+%+:+7+|+|+|+|+|+|+1+O.8+        ",
"          6+%+:+7+|+|+|+|+|+|+1+O.B.        ",
"          8+9+:+7+|+|+|+|+|+|+1+O.B.        ",
"          8+9+:+7+|+|+|+|+|+|+1+O.0+        ",
"          B.9+:+7+|+|+|+|+|+|+1+a+b+        ",
"          B.9+:+7+7+|+|+|+|+|+1+a+P.        ",
"          c+X.:+7+7+|+|+|+|+|+1+a+P.        ",
"                                            "};
