/* XPM */
static char * gRealSmartSerialDCE_HeadSide_xpm[] = {
"21 51 415 2",
"  	c None",
". 	c #114A9E",
"+ 	c #135CA5",
"@ 	c #134B9D",
"# 	c #406191",
"$ 	c #797F88",
"% 	c #89898A",
"& 	c #757577",
"* 	c #4F5255",
"= 	c #394D68",
"- 	c #184A94",
"; 	c #145DA5",
"> 	c #166AAA",
", 	c #104798",
"' 	c #2B4E81",
") 	c #7E7F80",
"! 	c #898887",
"~ 	c #908F8E",
"{ 	c #989696",
"] 	c #767574",
"^ 	c #565555",
"/ 	c #41526C",
"( 	c #124A9D",
"_ 	c #166BAA",
": 	c #0F428D",
"< 	c #0C3775",
"[ 	c #445876",
"} 	c #858483",
"| 	c #8C8B89",
"1 	c #939291",
"2 	c #9B9A99",
"3 	c #929191",
"4 	c #747472",
"5 	c #676E78",
"6 	c #1B4E9A",
"7 	c #145EA5",
"8 	c #0E3C80",
"9 	c #0C3570",
"0 	c #0C346F",
"a 	c #344F75",
"b 	c #868585",
"c 	c #8E8D8C",
"d 	c #969594",
"e 	c #9D9D9C",
"f 	c #A09F9F",
"g 	c #999897",
"h 	c #828B98",
"i 	c #184E9D",
"j 	c #145EA6",
"k 	c #166BAB",
"l 	c #0D3776",
"m 	c #143970",
"n 	c #5E6C7F",
"o 	c #8F8F8F",
"p 	c #A4A3A3",
"q 	c #B1B1B1",
"r 	c #ADAFB2",
"s 	c #5475A6",
"t 	c #0C3672",
"u 	c #113870",
"v 	c #274776",
"w 	c #425C83",
"x 	c #5C759C",
"y 	c #607EA8",
"z 	c #3D67A4",
"A 	c #144C9E",
"B 	c #166CAB",
"C 	c #0D3878",
"D 	c #0E3F87",
"E 	c #104696",
"F 	c #11499C",
"G 	c #176CAB",
"H 	c #0C3674",
"I 	c #0F4491",
"J 	c #11489A",
"K 	c #0F428E",
"L 	c #114D9F",
"M 	c #1150A0",
"N 	c #1151A0",
"O 	c #1251A1",
"P 	c #1252A1",
"Q 	c #1253A1",
"R 	c #1253A2",
"S 	c #1254A2",
"T 	c #1255A2",
"U 	c #1256A3",
"V 	c #1357A3",
"W 	c #124FA0",
"X 	c #114FA0",
"Y 	c #1258A3",
"Z 	c #1359A4",
"` 	c #135AA4",
" .	c #135BA4",
"..	c #145CA5",
"+.	c #145FA6",
"@.	c #1461A7",
"#.	c #1565A8",
"$.	c #1771AD",
"%.	c #1356A3",
"&.	c #176DAC",
"*.	c #124EA0",
"=.	c #1566A9",
"-.	c #1567A9",
";.	c #1669AA",
">.	c #166DAB",
",.	c #176EAC",
"'.	c #1772AD",
").	c #1876AF",
"!.	c #114C9F",
"~.	c #1460A6",
"{.	c #14519F",
"].	c #1D609D",
"^.	c #20639D",
"/.	c #2064A0",
"(.	c #2066A1",
"_.	c #216AA6",
":.	c #216CA8",
"<.	c #226EAA",
"[.	c #226FAC",
"}.	c #2270AD",
"|.	c #2171AE",
"1.	c #2171AF",
"2.	c #1D72AE",
"3.	c #1358A3",
"4.	c #1D437F",
"5.	c #20447C",
"6.	c #20427C",
"7.	c #1F4580",
"8.	c #214E8B",
"9.	c #225593",
"0.	c #215697",
"a.	c #235D9F",
"b.	c #2361A4",
"c.	c #2261A7",
"d.	c #2161A9",
"e.	c #2160A9",
"f.	c #226BAD",
"g.	c #1877AF",
"h.	c #114E9F",
"i.	c #1F3E76",
"j.	c #20447D",
"k.	c #204782",
"l.	c #204885",
"m.	c #204C8A",
"n.	c #204D8D",
"o.	c #1F4F90",
"p.	c #205497",
"q.	c #20579D",
"r.	c #1F59A1",
"s.	c #1F5BA4",
"t.	c #2262A9",
"u.	c #1F5CA7",
"v.	c #236CAE",
"w.	c #1F3C73",
"x.	c #204178",
"y.	c #1F4079",
"z.	c #204580",
"A.	c #204B88",
"B.	c #204D8C",
"C.	c #204F91",
"D.	c #205397",
"E.	c #1F569D",
"F.	c #1E59A4",
"G.	c #2162A9",
"H.	c #1562A7",
"I.	c #176FAC",
"J.	c #20447B",
"K.	c #204077",
"L.	c #1F3F77",
"M.	c #1F3F76",
"N.	c #20437D",
"O.	c #1F4581",
"P.	c #204B89",
"Q.	c #204E8E",
"R.	c #205496",
"S.	c #20579C",
"T.	c #205EA6",
"U.	c #205EA7",
"V.	c #1250A1",
"W.	c #1563A7",
"X.	c #1F3D74",
"Y.	c #1F3F78",
"Z.	c #1F437F",
"`.	c #1F4887",
" +	c #1F4E90",
".+	c #1F5398",
"++	c #205BA2",
"@+	c #205BA1",
"#+	c #205DA5",
"$+	c #2262AA",
"%+	c #145BA5",
"&+	c #1D356B",
"*+	c #1D366D",
"=+	c #1D3A75",
"-+	c #1E407E",
";+	c #1E4586",
">+	c #1E4B8F",
",+	c #1E5098",
"'+	c #1D56A1",
")+	c #205AA2",
"!+	c #215FA7",
"~+	c #1153A1",
"{+	c #1564A8",
"]+	c #1770AD",
"^+	c #1D376E",
"/+	c #1D3B77",
"(+	c #1E417F",
"_+	c #1E4788",
":+	c #1E4C91",
"<+	c #1D529A",
"[+	c #1E57A3",
"}+	c #215EA5",
"|+	c #135DA5",
"1+	c #1D3770",
"2+	c #1D3D78",
"3+	c #1E4281",
"4+	c #1E488A",
"5+	c #1E4D93",
"6+	c #1D539C",
"7+	c #1E58A3",
"8+	c #205CA5",
"9+	c #2160A8",
"0+	c #1F5BA6",
"a+	c #226BAE",
"b+	c #1D356C",
"c+	c #1D3872",
"d+	c #1D3D7A",
"e+	c #1E4383",
"f+	c #1E498B",
"g+	c #1E4E95",
"h+	c #1D549E",
"i+	c #1E58A4",
"j+	c #2261A9",
"k+	c #1F5AA5",
"l+	c #2269AC",
"m+	c #1256A2",
"n+	c #1565A9",
"o+	c #1D3973",
"p+	c #1D3E7B",
"q+	c #1C427F",
"r+	c #1C498B",
"s+	c #1D529B",
"t+	c #1E59A5",
"u+	c #205FA8",
"v+	c #1257A3",
"w+	c #1666A9",
"x+	c #193870",
"y+	c #183C75",
"z+	c #1A4889",
"A+	c #205DA7",
"B+	c #1358A4",
"C+	c #1667A9",
"D+	c #1D366E",
"E+	c #193367",
"F+	c #153160",
"G+	c #173C74",
"H+	c #205EA8",
"I+	c #1A3265",
"J+	c #12264E",
"K+	c #143160",
"L+	c #2263AA",
"M+	c #2060A8",
"N+	c #1462A7",
"O+	c #1668AA",
"P+	c #1B3265",
"Q+	c #122449",
"R+	c #11254C",
"S+	c #205FA7",
"T+	c #112246",
"U+	c #102143",
"V+	c #2161A8",
"W+	c #1563A8",
"X+	c #1772AE",
"Y+	c #1773AE",
"Z+	c #205DA6",
"`+	c #2269AD",
" @	c #112348",
".@	c #132A54",
"+@	c #226AAD",
"@@	c #1460A7",
"#@	c #162D5B",
"$@	c #1B3A74",
"%@	c #183468",
"&@	c #1E5AA5",
"*@	c #1874AE",
"=@	c #1D3F7D",
"-@	c #183569",
";@	c #215FA8",
">@	c #1568A9",
",@	c #1874AF",
"'@	c #1D3D79",
")@	c #183467",
"!@	c #1668A9",
"~@	c #1875AF",
"{@	c #1D3B75",
"]@	c #173365",
"^@	c #205CA4",
"/@	c #1977AF",
"(@	c #166DAC",
"_@	c #15366A",
":@	c #1D5DA4",
"<@	c #1B65A3",
"[@	c #1B67A5",
"}@	c #1B67A6",
"|@	c #1A69A9",
"1@	c #1971AD",
"2@	c #1665A8",
"3@	c #12386D",
"4@	c #1C62A8",
"5@	c #1875AE",
"6@	c #1774AE",
"7@	c #1978AF",
"8@	c #176AAA",
"9@	c #166FAC",
"0@	c #1A59A5",
"a@	c #1564A7",
"b@	c #1775AE",
"c@	c #254675",
"d@	c #2C446B",
"e@	c #32507F",
"f@	c #375E94",
"g@	c #3C6BA9",
"h@	c #4072B1",
"i@	c #4173B2",
"j@	c #2B63A9",
"k@	c #1259A3",
"l@	c #1770AC",
"m@	c #798695",
"n@	c #9A9CA0",
"o@	c #ABAEB2",
"p@	c #BCC0C4",
"q@	c #CED2D7",
"r@	c #DFE3E9",
"s@	c #E4E9EE",
"t@	c #7A9DC2",
"u@	c #1561A7",
"v@	c #1569AA",
"w@	c #798590",
"x@	c #666666",
"y@	c #878787",
"z@	c #8E8E8E",
"A@	c #AAAAAA",
"B@	c #999999",
"C@	c #81A1C1",
"D@	c #1562A6",
"E@	c #1566A8",
"F@	c #737F8A",
"G@	c #737373",
"H@	c #626262",
"I@	c #8A8A8A",
"J@	c #C0C0C0",
"K@	c #727272",
"L@	c #B6B6B6",
"M@	c #809BB5",
"N@	c #135996",
"O@	c #75808C",
"P@	c #5E5E5E",
"Q@	c #676767",
"R@	c #787878",
"S@	c #949494",
"T@	c #848484",
"U@	c #BCBCBC",
"V@	c #869BB0",
"W@	c #204B6F",
"X@	c #1C5E95",
"Y@	c #1872AE",
"Z@	c #768494",
"`@	c #8B8D91",
" #	c #A3A6AB",
".#	c #B2B6BC",
"+#	c #C6CBD1",
"@#	c #CAD0D7",
"##	c #CFD4DB",
"$#	c #9BA5B2",
"%#	c #5C5C5C",
"&#	c #485158",
"*#	c #26608E",
"=#	c #176DAB",
"-#	c #1873AE",
";#	c #1E4272",
">#	c #223C67",
",#	c #27487A",
"'#	c #2B5590",
")#	c #3062A4",
"!#	c #3267AC",
"~#	c #3368AD",
"{#	c #5376A4",
"]#	c #838282",
"^#	c #5E5E5D",
"/#	c #50616E",
"(#	c #196AA7",
"_#	c #1978B0",
":#	c #133A6E",
"<#	c #4970A2",
"[#	c #979695",
"}#	c #807F7E",
"|#	c #727C83",
"1#	c #206DA6",
"2#	c #133B6F",
"3#	c #4A71A3",
"4#	c #A6A6A6",
"5#	c #A6A5A5",
"6#	c #8296A5",
"7#	c #1A6DAA",
"8#	c #4E75A8",
"9#	c #B0B1B3",
"0#	c #9CA9B2",
"a#	c #367BAD",
"b#	c #1979B0",
"c#	c #133C6F",
"d#	c #2563A7",
"e#	c #377AAC",
"f#	c #1C6EAB",
"g#	c #132F5C",
"h#	c #1D5CA6",
"      . . . . . . . . . . . . . . . . +   ",
"      . . . @ # $ % & * = - . . . . . ; > ",
"      . . , ' ) ! ~ { ] ^ / ( . . . . ; _ ",
"      . : < [ } | 1 2 3 4 5 6 . . . . 7 _ ",
"      8 9 0 a b c d e f g h i . . . . j k ",
"      l 0 0 m n o g p q r s . . . . . j k ",
"      t 0 0 0 u v w x y z A . . . . . j B ",
"      0 0 0 0 C D E F . . . . . . . . j G ",
"      0 H 8 I J . . . . . . . . . . . j G ",
"      K , L M N O P Q R S T T U V W . j G ",
"      . X U Y Z `  ...; j +.@.#.$.%.. +.&.",
"      *.@.=.-.;.> _ B >.>.,.,.'.).V !.~.&.",
"      {.].^./.(._.:.<.[.}.|.1.2.).3.L ~.,.",
"      4.5.6.7.8.9.0.a.b.c.d.e.f.g.3.h.@.,.",
"    i.j.k.l.m.n.o.p.q.r.s.t.u.v.g.Z X @.,.",
"    w.x.y.z.A.B.C.D.E.F.G.e.u.v.g.` X H.I.",
"  J.K.L.M.N.O.P.Q.R.S.T.d.U.u.v.g.` V.W.I.",
"  X.K.i.Y.Z.`. +.+++@+#+U.$+u.v.g.%+O W.I.",
"  &+&+*+=+-+;+>+,+'+)+!+d.d.u.v.g...~+{+]+",
"  &+&+^+/+(+_+:+<+[+}+T.d.U.u.v.g.|+S #.]+",
"  &+&+1+2+3+4+5+6+7+8+9+U.d.0+a+g.; T #.]+",
"  &+b+c+d+e+f+g+h+i+9+U.e.j+k+l+g.+.m+n+$.",
"  &+b+o+p+q+r+s+'+t+U.9+$+u+0+f.g.+.v+w+$.",
"  &+*+=+x+y+z+h+t+t+9+U.d.U.A+v.g.~.B+C+$.",
"  &+D+E+F+G+z+h+t+t+U.H+e.u+H+v.g.@.Z C+$.",
"  &+I+J+K+G+z+h+t+t+u.H+L+M+H+v.g.N+` O+'.",
"  P+Q+R+K+G+z+h+t+t+u.9+G.A+S+v.g.N+%+;.'.",
"  T+U+R+K+G+z+h+t+t+0+u+e.u+V+v.g.W+..;.X+",
"  U+U+R+K+G+z+h+t+t+u.9+9+d.V+v.g.W+; ;.Y+",
"  U+U+R+K+G+z+h+t+t+0+u+d.9+Z+v.g.{+j > Y+",
"  U+U+R+K+G+z+h+t+t+u.u+u+u+U.`+g.#.+.k Y+",
"  U+ @.@K+G+z+h+t+t+0+H+G.d.U.+@g.=.@@k Y+",
"  #@$@%@K+G+z+h+t+t+&@H+L+e.T.v.g.-.@.B *@",
"    =@-@K+G+z+h+t+t+t+0+t.;@T.v.g.>@H.B ,@",
"    '@)@K+G+z+h+t+t+t+t+H+;@!+v.g.!@W+>.~@",
"    {@]@K+G+z+h+t+t+t+t+0+Z+^@f./@;.{+(@~@",
"      _@K+G+z+h+t+t+:@<@[@}@|@1@/@;.2@,.~@",
"      3@K+G+z+h+t+t+4@*@5@g.g.6@7@8@=.9@~@",
"      3@K+G+z+h+t+t+0@j a@> ]+b@7@k -.9@).",
"      c@d@e@f@g@h@i@j@k@+.{+> l@5@k >@]+).",
"      m@n@o@p@q@r@s@t@~.u@W+#.-.v@v@;.]+).",
"      w@x@y@z@A@B@A@C@D@W+{+E@-.>@;.> $.).",
"      F@G@H@I@J@K@L@M@N@{+#.=.>@;.> k X+g.",
"      O@P@Q@R@S@T@U@V@W@X@E@>@;.> _ G Y@g.",
"      Z@`@ #.#+#@###$#%#&#*#;.> _ G =#-#g.",
"      ;#>#,#'#)#!#~#{#]#^#/#(#_ B =#,.-#_#",
"      :#K+G+z+h+t+t+<#[#}#|#1#B =#,.I.*@_#",
"      2#K+G+z+h+t+t+3#4#5#6#7#=#,.I.$.5@_#",
"      2#K+G+z+h+t+t+8#9#0#a#=#,.I.$.'.~@b#",
"      c#K+G+z+h+t+t+d#e#f#=#,.I.]+$.X+)._#",
"      g#K+G+z+h+t+t+h#                    "};
