/* XPM */
static char * gRealCopperST_UpCorner_xpm[] = {
"38 33 131 2",
"  	c None",
". 	c #69A82E",
"+ 	c #69A72E",
"@ 	c #68A62E",
"# 	c #67A42E",
"$ 	c #66A42E",
"% 	c #67A52E",
"& 	c #68A72E",
"* 	c #67A52D",
"= 	c #65A22C",
"- 	c #639E2C",
"; 	c #619B2B",
"> 	c #60982A",
", 	c #5E9629",
"' 	c #5D9529",
") 	c #5B932A",
"! 	c #5A932B",
"~ 	c #5B942B",
"{ 	c #5C962C",
"] 	c #5E982C",
"^ 	c #5F9A2C",
"/ 	c #609B2C",
"( 	c #619D2D",
"_ 	c #629F2D",
": 	c #64A12D",
"< 	c #67A42D",
"[ 	c #649F2C",
"} 	c #60992A",
"| 	c #5C9429",
"1 	c #5A8F28",
"2 	c #588B27",
"3 	c #568926",
"4 	c #548625",
"5 	c #538524",
"6 	c #538424",
"7 	c #4F8226",
"8 	c #4D8128",
"9 	c #4E8328",
"0 	c #4F8429",
"a 	c #508529",
"b 	c #518729",
"c 	c #52892A",
"d 	c #538A2A",
"e 	c #558C2A",
"f 	c #568E2A",
"g 	c #65A12C",
"h 	c #609A2A",
"i 	c #5C9329",
"j 	c #588C27",
"k 	c #558825",
"l 	c #528424",
"m 	c #518123",
"n 	c #4F7F23",
"o 	c #4F7E23",
"p 	c #4E7E23",
"q 	c #4E7D23",
"r 	c #497824",
"s 	c #447426",
"t 	c #457526",
"u 	c #467726",
"v 	c #477827",
"w 	c #487A27",
"x 	c #497B27",
"y 	c #4A7D27",
"z 	c #4B7E28",
"A 	c #4C8028",
"B 	c #5F982A",
"C 	c #5A9028",
"D 	c #508023",
"E 	c #66A32D",
"F 	c #518224",
"G 	c #68A62D",
"H 	c #639F2C",
"I 	c #5D9429",
"J 	c #568A26",
"K 	c #528324",
"L 	c #598E27",
"M 	c #538625",
"N 	c #507F23",
"O 	c #66A32C",
"P 	c #5E972A",
"Q 	c #578B26",
"R 	c #518124",
"S 	c #66A22C",
"T 	c #568826",
"U 	c #538525",
"V 	c #578A26",
"W 	c #508024",
"X 	c #5E9729",
"Y 	c #548725",
"Z 	c #588D27",
"` 	c #5A9128",
" .	c #67A62E",
"..	c #68A72D",
"+.	c #619A2A",
"@.	c #508123",
"#.	c #5C9229",
"$.	c #65A32D",
"%.	c #518324",
"&.	c #5C9328",
"*.	c #548525",
"=.	c #58912B",
"-.	c #5D962A",
";.	c #5B9128",
">.	c #588D28",
",.	c #5F9729",
"'.	c #629D2B",
").	c #528729",
"!.	c #629C2B",
"~.	c #4F8227",
"{.	c #4F7F24",
"].	c #64A12C",
"^.	c #4B7C25",
"/.	c #4D7C23",
"(.	c #578C27",
"_.	c #487724",
":.	c #558725",
"<.	c #5A8F27",
"[.	c #447325",
"}.	c #467423",
"|.	c #427124",
"1.	c #467222",
"2.	c #64A02C",
"3.	c #406E23",
"4.	c #467323",
"5.	c #3F6C23",
"6.	c #477523",
"7.	c #548726",
"8.	c #3E6A22",
"9.	c #558A27",
"0.	c #578B27",
"                                                                            ",
"                                          . . . . . . . . . . . . . . . . . ",
"                                    . . . . . . . . . . . . . . . . . . . . ",
"                                . . . . . . . . . . . . . . . . . . . . . . ",
"                            . . . . . . . . . . . + @ @ # $ % @ & + . . . . ",
"                        . . . . . . . . & * = - ; > , ' ) ! ~ { ] ^ / ( _ : ",
"                      . . . . . . & < [ } | 1 2 3 4 5 6 7 8 9 0 a b c d e f ",
"                    . . . . . @ g h i j k l m n o o p q r s t u v w x y z A ",
"                  . . . . & g B C 3 l D n n o                               ",
"                . . . + E h C k F n n D                                     ",
"              . . . G H I J K n D F                                         ",
"            . . . < h L M D N K 5                                           ",
"          . . . O P Q K n R 4                                               ",
"          . . S ' 3 R n 6 T                                                 ",
"        . . S I k D D U V                                                   ",
"      . . O ' k D W 4 j                                                     ",
"      . < X 3 D W Y Z `                                                     ",
"     ...+.Q @.D 4 Z #.                                                      ",
"    $.- L %.n U Z |                                                         ",
"    - &.*.o l Q &.B                                                         ",
"  =.-.J N m 3 ;.}                                                           ",
"  e >.K n 4 L ,.'.                                                          ",
"  ).U n K Q &.!.                                                            ",
"  ~.{.D k C } ].                                                            ",
"  ^./.K (.I '.E                                                             ",
"u _./.:.<.} g &                                                             ",
"[.}.n V &.'.< .                                                             ",
"|.1.F L ,.2.& .                                                             ",
"3.4.U ` +.E .                                                               ",
"5.6.7.&.'.* .                                                               ",
"8._.9., H & .                                                               ",
"8.r 0.B g + .                                                               ",
"                                                                            "};
