/* XPM */
static char * gRealCopperCN_DownCorner_xpm[] = {
"37 32 130 2",
"  	c None",
". 	c #132C58",
"+ 	c #163568",
"@ 	c #183F7A",
"# 	c #1B4B8E",
"$ 	c #1D56A0",
"% 	c #1E59A5",
"& 	c #132B57",
"* 	c #163467",
"= 	c #183F79",
"- 	c #1B4A8C",
"; 	c #1C56A0",
"> 	c #122A56",
", 	c #163466",
"' 	c #183E77",
") 	c #1A498B",
"! 	c #1C549E",
"~ 	c #122A54",
"{ 	c #153264",
"] 	c #183C75",
"^ 	c #1A4888",
"/ 	c #1C539C",
"( 	c #122852",
"_ 	c #153161",
": 	c #183B72",
"< 	c #1A4685",
"[ 	c #1C5199",
"} 	c #122750",
"| 	c #142F5E",
"1 	c #17396F",
"2 	c #1A4481",
"3 	c #1C4F95",
"4 	c #1E58A4",
"5 	c #12264D",
"6 	c #142E5B",
"7 	c #16376C",
"8 	c #18417D",
"9 	c #1C4C90",
"0 	c #1D57A2",
"a 	c #11254B",
"b 	c #132C57",
"c 	c #183E78",
"d 	c #112449",
"e 	c #122954",
"f 	c #153262",
"g 	c #183C73",
"h 	c #1A4686",
"i 	c #112246",
"j 	c #12274F",
"k 	c #17386E",
"l 	c #19427F",
"m 	c #1C4D92",
"n 	c #1E57A2",
"o 	c #12244B",
"p 	c #163468",
"q 	c #183E79",
"r 	c #1C549D",
"s 	c #112348",
"t 	c #122953",
"u 	c #153162",
"v 	c #173A72",
"w 	c #1A4483",
"x 	c #1C5096",
"y 	c #102245",
"z 	c #12264E",
"A 	c #16366B",
"B 	c #18407B",
"C 	c #1B4A8D",
"D 	c #1C559F",
"E 	c #132A55",
"F 	c #153263",
"G 	c #183B73",
"H 	c #1A4584",
"I 	c #102145",
"J 	c #142E5C",
"K 	c #16376B",
"L 	c #1A4482",
"M 	c #1C4E93",
"N 	c #132D5A",
"O 	c #163569",
"P 	c #102347",
"Q 	c #153060",
"R 	c #19417D",
"S 	c #102143",
"T 	c #11244B",
"U 	c #194381",
"V 	c #1B4C91",
"W 	c #1D55A0",
"X 	c #102244",
"Y 	c #1C4E94",
"Z 	c #1D56A1",
"` 	c #102246",
" .	c #122851",
"..	c #142E5D",
"+.	c #16366A",
"@.	c #17376C",
"#.	c #11244A",
"$.	c #14305F",
"%.	c #1C549F",
"&.	c #102144",
"*.	c #183D76",
"=.	c #1B4C90",
"-.	c #163669",
";.	c #183C74",
">.	c #1B498B",
",.	c #1C5097",
"'.	c #122952",
").	c #173A71",
"!.	c #1C529B",
"~.	c #122850",
"{.	c #183C76",
"].	c #1A4889",
"^.	c #112347",
"/.	c #122A55",
"(.	c #194380",
"_.	c #1C4C92",
":.	c #1C55A0",
"<.	c #1E58A3",
"[.	c #173970",
"}.	c #1E57A3",
"|.	c #132D59",
"1.	c #1A488A",
"2.	c #1C5098",
"3.	c #1C529A",
"4.	c #1C519A",
"5.	c #18407A",
"6.	c #19427E",
"7.	c #142F5F",
"8.	c #17386D",
"9.	c #183A72",
". + @ # $ % %                                                             ",
"& * = - ; % %                                                             ",
"> , ' ) ! % %                                                             ",
"~ { ] ^ / % %                                                             ",
"( _ : < [ % %                                                             ",
"} | 1 2 3 4 % %                                                           ",
"5 6 7 8 9 0 % %                                                           ",
"a b * c ) ! % %                                                           ",
"d e f g h [ % %                                                           ",
"i j | k l m n %                                                           ",
"  o . p q ) r % %                                                         ",
"  s t u v w x 4 %                                                         ",
"  y z 6 A B C D %                                                         ",
"    s E F G H x 4 %                                                       ",
"    I j J K B - ! %                                                       ",
"      s E F v L M 0 %                                                     ",
"      I z N O c ^ [ 4 %                                                   ",
"        P t Q k R C r % %                                                 ",
"        S T & { v U V W %                                                 ",
"          X z N * ] H Y Z % %                                             ",
"            `  ...+.c < Y Z % %                                           ",
"            S s t | @.c h Y $ % %                                         ",
"              S #.~ $.@.c < m %.% % %                                     ",
"                &.#.~ $.A *.w =./ 4 % % % %                               ",
"                  &.#.e | -.;.l >.,.$ % % % % % % % % % % % % % % % % % % ",
"                    &.d '.J , ).B h V !.0 % % % % % % % % % % % % % % % % ",
"                        s ~.. f 7 {.l ].M / 0 % % % % % % % % % % % % % % ",
"                          ^.5 /.| , 1 c (.]._.[ :.<.% % % % % % % % % % % ",
"                              a  .. Q + [.c l h C Y [ ! Z }.4 4 % % % % % ",
"                                  z '.|.Q * k ;.@ (.< 1.# m 3 2.[ 3.!.3.4.",
"                                      ~.e . | { -.k G ' 5.6.2 w < h h h < ",
"                                              . ..7.f , +.8.[.9.: ;.;.;.G "};
