/* XPM */
static char * gRealSerial_HeadDown_xpm[] = {
"73 30 249 2",
"  	c None",
". 	c #1979B0",
"+ 	c #135AA4",
"@ 	c #135BA4",
"# 	c #145CA5",
"$ 	c #145DA5",
"% 	c #145DA6",
"& 	c #145EA6",
"* 	c #145FA6",
"= 	c #176FAC",
"- 	c #1357A3",
"; 	c #1358A4",
"> 	c #1359A4",
", 	c #145BA5",
"' 	c #166BAB",
") 	c #1877AF",
"! 	c #1876AF",
"~ 	c #1878AF",
"{ 	c #1255A2",
"] 	c #1256A2",
"^ 	c #1257A3",
"/ 	c #1568AA",
"( 	c #1773AE",
"_ 	c #1875AF",
": 	c #1774AE",
"< 	c #1875AE",
"[ 	c #1253A2",
"} 	c #1254A2",
"| 	c #1256A3",
"1 	c #1565A8",
"2 	c #1874AE",
"3 	c #1770AC",
"4 	c #1873AD",
"5 	c #1251A1",
"6 	c #1152A1",
"7 	c #1153A1",
"8 	c #1462A7",
"9 	c #166BAA",
"0 	c #166CAA",
"a 	c #1771AD",
"b 	c #1250A0",
"c 	c #1567A9",
"d 	c #166AAA",
"e 	c #114EA0",
"f 	c #114FA0",
"g 	c #12519F",
"h 	c #1255A1",
"i 	c #135CA5",
"j 	c #1563A7",
"k 	c #1567A8",
"l 	c #166CAB",
"m 	c #1568A9",
"n 	c #1564A7",
"o 	c #176DAB",
"p 	c #1977AF",
"q 	c #1871AB",
"r 	c #114C9F",
"s 	c #114D9F",
"t 	c #114E9F",
"u 	c #104998",
"v 	c #114F97",
"w 	c #1460A1",
"x 	c #166EAB",
"y 	c #145EA5",
"z 	c #1460A6",
"A 	c #1569A9",
"B 	c #1772AD",
"C 	c #1772AE",
"D 	c #125299",
"E 	c #13599D",
"F 	c #166AA7",
"G 	c #114B9E",
"H 	c #114B9F",
"I 	c #104A9B",
"J 	c #104490",
"K 	c #114E97",
"L 	c #1773AC",
"M 	c #1252A1",
"N 	c #1770AD",
"O 	c #176BA8",
"P 	c #186BA9",
"Q 	c #1564A8",
"R 	c #1669AA",
"S 	c #135499",
"T 	c #114792",
"U 	c #13579C",
"V 	c #1569A7",
"W 	c #114A9E",
"X 	c #104696",
"Y 	c #0E3F85",
"Z 	c #114A94",
"` 	c #1460A2",
" .	c #1668A7",
"..	c #166EAA",
"+.	c #1358A3",
"@.	c #1258A3",
"#.	c #1562A7",
"$.	c #1978B0",
"%.	c #176EAC",
"&.	c #176EAB",
"*.	c #17548C",
"=.	c #184784",
"-.	c #1B5297",
";.	c #1C5CA6",
">.	c #196AAB",
",.	c #1359A3",
"'.	c #135E9D",
").	c #104690",
"!.	c #12559B",
"~.	c #1565A6",
"{.	c #166AA8",
"].	c #1773AD",
"^.	c #104493",
"/.	c #0C3774",
"(.	c #0E3C7E",
"_.	c #1567A7",
":.	c #176FAB",
"<.	c #1154A2",
"[.	c #176CAA",
"}.	c #145489",
"|.	c #16376B",
"1.	c #18417E",
"2.	c #1B4E94",
"3.	c #1E58A4",
"4.	c #1D5AA6",
"5.	c #186BAB",
"6.	c #1259A3",
"7.	c #11519B",
"8.	c #0F4A7E",
"9.	c #125599",
"0.	c #0C3672",
"a.	c #0C346F",
"b.	c #0F4483",
"c.	c #166DAB",
"d.	c #166AA9",
"e.	c #1150A0",
"f.	c #1154A1",
"g.	c #135BA5",
"h.	c #12598D",
"i.	c #133662",
"j.	c #16366A",
"k.	c #19427E",
"l.	c #1D59A5",
"m.	c #1E59A5",
"n.	c #1C5EA7",
"o.	c #115098",
"p.	c #0D3B77",
"q.	c #0F4475",
"r.	c #1562A2",
"s.	c #176FAA",
"t.	c #0F4381",
"u.	c #1564A6",
"v.	c #1568A7",
"w.	c #12568B",
"x.	c #104A77",
"y.	c #132D59",
"z.	c #18427E",
"A.	c #1D58A4",
"B.	c #176CAB",
"C.	c #0E4283",
"D.	c #0C356F",
"E.	c #0E4274",
"F.	c #1460A0",
"G.	c #166DAA",
"H.	c #145C9F",
"I.	c #1566A8",
"J.	c #1874AC",
"K.	c #115488",
"L.	c #104977",
"M.	c #132C57",
"N.	c #1D59A4",
"O.	c #176AAA",
"P.	c #0E3E81",
"Q.	c #0E4174",
"R.	c #12558C",
"S.	c #1566A9",
"T.	c #1568A8",
"U.	c #0E3E7F",
"V.	c #12539C",
"W.	c #1359A2",
"X.	c #1252A0",
"Y.	c #1250A1",
"Z.	c #1873AB",
"`.	c #135D8A",
" +	c #0F4A76",
".+	c #0F4876",
"++	c #1C4E94",
"@+	c #1769AA",
"#+	c #1462A8",
"$+	c #0E3C81",
"%+	c #0E4173",
"&+	c #11507C",
"*+	c #135B95",
"=+	c #1563A6",
"-+	c #1565A7",
";+	c #0E3E85",
">+	c #0F428D",
",+	c #104695",
"'+	c #11499B",
")+	c #124FA0",
"!+	c #1772AA",
"~+	c #145D8A",
"{+	c #12537B",
"]+	c #104C77",
"^+	c #104776",
"/+	c #104876",
"(+	c #132B57",
"_+	c #1768A9",
":+	c #1460A7",
"<+	c #0D3C81",
"[+	c #0C3674",
"}+	c #114E8D",
"|+	c #1565A0",
"1+	c #176FAD",
"2+	c #1771A9",
"3+	c #135985",
"4+	c #12527A",
"5+	c #115079",
"6+	c #104775",
"7+	c #1B4E95",
"8+	c #1767A9",
"9+	c #155FA6",
"0+	c #0E4088",
"a+	c #145AA4",
"b+	c #166EA6",
"c+	c #125885",
"d+	c #11517A",
"e+	c #104D78",
"f+	c #0F4675",
"g+	c #1666A9",
"h+	c #166FAC",
"i+	c #125682",
"j+	c #176BAB",
"k+	c #114F9F",
"l+	c #166BA3",
"m+	c #125480",
"n+	c #1D58A5",
"o+	c #186EAC",
"p+	c #166AA2",
"q+	c #12547F",
"r+	c #19417E",
"s+	c #166BA6",
"t+	c #11527D",
"u+	c #114F79",
"v+	c #104C74",
"w+	c #104A72",
"x+	c #114E78",
"y+	c #1C4F95",
"z+	c #186CAC",
"  . . . . . . . . . . . . . . . . . . . . . . . . . . . . . . . . . . . . . . . . . . . . . . . . . . . . . . . . . . . . . . . . . . . . . . .   ",
". . . . . . . . . . . . . . . . . . . . . . . . . . . . . . . . . . . . . . . . . . . . . . . . . . . . . . . . . . . . . . . . . . . . . . . . . ",
"+ @ @ # $ $ % & * = . . . . . . . . . . . . . . . . . . . . . . . . . . . . . . . . . . . . . . . . . . . . . . . . . . . . . . . . . . . . . . . ",
"- ; ; > + @ , # $ ' ) ! ! ! ! ! ! ! ! ! ! ! ! ! ! ! ! ! ! ! ! ! ! ! ! ! ! ! ! ! ! ! ! ! ! ! ! ! ! ! ! ! ! ! ! ! ! ! ! ! ! ! ! ! ~ ) . . . . . . . ",
"{ ] ^ - ; > + + , / ( _ ( ( ( ( ( ( ( ( ( ( ( ( ( ( ( ( ( ( ( ( ( ( ( ( ( ( ( ( ( ( ( ( ( ( ( ( ( ( ( ( ( ( ( ( ( ( ( ( ( ( : ) : < . . . . . . . ",
"[ } { ] | ^ ; ; > 1 = ( : 2 2 2 2 2 2 2 2 2 2 2 2 2 2 2 2 2 2 2 2 2 2 2 2 2 2 2 2 2 2 2 2 2 2 2 2 2 2 2 2 2 2 2 2 2 2 2 2 2 ! ( 3 4 . . . . . . . ",
"5 6 7 } } { ] ^ - 8 9 = ( . . . . . . . . . . . . . . . . . . . . . . . . . . . . . . . . . . . . . . . . . . . . . . . . ~ ( = 0 a . . . . . . . ",
"b b 5 6 6 7 } { ] * c d = . . . . . . . . . . . . . . . . . . . . . . . . . . . . . . . . . . . . . . . . . . . . . . . . ! = 9 c = . . . . . . . ",
"e e f b g h { 7 } i j k l . . . . . . . . . . . . . . . . . . . . ) ! ! ) ~ . . . . . . . . . . . . . . . . . . . . . . . 2 0 m n o . p q < . . . ",
"r s t u v w x y 6 > z j A . . . . . . . . . . . . . . . . . . ) ( a B B C ( : ~ . . . . . . . . . . . . . . . . . . . . . B m n z ' q D E F ~ . . ",
"G H I J K w L ! M ] i * 1 . . . . . . . . . . . . . . . . . ! 3 N N O P = B B ( ) . . . . . . . . . . . . . . . . . . . . 3 Q z $ R S T U V ~ . . ",
"W X Y Z `  ...p +.7 @.i #.. . . . . . . . . . . . . . . . $.= %.&.*.=.-.;.>.a a C $.. . . . . . . . . . . . . . . . . . . %.z # ,.'.).!.~.{.].. . ",
"^./.(._.%.= N :.{ f <.@.* . . . . . . . . . . . . . . . . 4 l [.}.|.1.2.3.4.5.N N < . . . . . . . . . . . . . . . . . . . l i 6.7.8.9.o = N :.< . ",
"0.a.b.d 9 c.%.d.e r e.f.g.. . . . . . . . . . . . . . . . c.d.h.i.j.k.2.l.m.n.= = B . . . . . . . . . . . . . . . . . . . d 6.o.p.q.r.9 l o %.s.$.",
"a.a.t.c m R 9 u.W W r f ^ $.$.$.$.$.$.$.$.$.$.$.$.$.$.$.$.v.w.x.y.j.z.2.A.m.m.B.%.= $.$.$.$.$.$.$.$.$.$.$.$.$.$.$.$.$.$.$.c <.C.D.E.F.m R d 9 G.! ",
"a.a.0.H.I.c c h W W W r } ! ! ! ! ! ! ! ! ! ! ! ! ! ! ! J.K.L.L.M.j.1.2.N.m.m.O.o %.! ! ! ! ! ! ! ! ! ! ! ! ! ! ! ! ! ! ! 1 e.P.a.Q.R.n S.c T.3 _ ",
"a.a.0.U.V.W.X.W W W W W Y.! ! ! ! ! ! ! ! ! ! ! ! ! ! Z.`. +.+.+M.j.z.++A.m.m.@+' &.! ! ! ! ! ! ! ! ! ! ! ! ! ! ! ! ! ! ! #+r $+a.%+&+*+=+-+G.B ( ",
";+>+,+'+W W W W W W W W )+_ _ _ _ _ _ _ _ _ _ _ _ _ !+~+{+]+^+/+(+j.z.++A.m.m._+d = _ _ _ _ _ _ _ _ _ _ _ _ _ _ _ _ _ _ _ :+W <+[+}+|+[.%.= 1+N a ",
"W W W W W W W W W W W W f _ _ _ _ _ _ _ _ _ _ _ _ 2+3+4+4+5+6+6+(+j.z.7+3.m.m.8+d ( _ _ _ _ _ _ _ _ _ _ _ _ _ _ _ _ _ _ _ 9+W 0+,+a+d ' l o %.%.= ",
"W W W W W W W W W W W W )+( ( ( ( ( ( ( ( ( ( ( b+c+d+d+d+d+e+f+(+j.z.7+m.m.m.g+h+( ( ( ( ( ( ( ( ( ( ( ( ( ( ( ( ( ( ( ( * W W W > R R d 9 ' o o ",
"G W W W W W W W W W W W )+C C C C C C C C C C b+i+d+d+d+d+d+d+e+(+j.1.2.A.m.m.j+C C C C C C C C C C C C C C C C C C C C C & W W W +.c c m R d d 9 ",
"                    W W k+B B B B B B B B B l+m+5+5+5+5+5+5+5+5+M.j.1.7+n+m.m.o+B B B B B B B B B B B B B B B B B B B B B & W W W                 ",
"                      W e a a a a a a a a p+q+5+5+5+5+5+5+5+5+5+(+j.r+2.n+m.m.o+a a a a a a a a a a a a a a a a a a a a a $ W W                   ",
"                        5 N N N N N N N s+t+u+u+u+u+u+u+v+w+w+x+M.j.k.y+m.m.m.z+N N N N N N N N N N N N N N N N N N N N N %                       ",
"                                                                M.j.k.++l.m.m.                                                                    ",
"                                                                (+j.z.++3.m.m.                                                                    ",
"                                                                (+j.z.2.l.m.m.                                                                    ",
"                                                                (+j.z.7+l.m.m.                                                                    ",
"                                                                M.j.z.2.n+m.m.                                                                    ",
"                                                                M.j.r+2.A.m.m.                                                                    "};
