/* XPM */
static char * gRealCopperCN_UpCorner_xpm[] = {
"38 33 118 2",
"  	c None",
". 	c #1E59A5",
"+ 	c #1E58A4",
"@ 	c #1E57A3",
"# 	c #1E57A2",
"$ 	c #1D56A0",
"% 	c #1D57A2",
"& 	c #1D55A0",
"* 	c #1D529C",
"= 	c #1D4F96",
"- 	c #1D4C91",
"; 	c #1D498D",
"> 	c #1D4789",
", 	c #1D4687",
"' 	c #1B4687",
") 	c #1A4889",
"! 	c #1A498B",
"~ 	c #1B4B8E",
"{ 	c #1B4C90",
"] 	c #1B4D92",
"^ 	c #1C4F95",
"/ 	c #1C5097",
"( 	c #1C5299",
"_ 	c #1D529B",
": 	c #1E58A3",
"< 	c #1D559F",
"[ 	c #1D5096",
"} 	c #1D4A8E",
"| 	c #1D4586",
"1 	c #1C417F",
"2 	c #1C3D7A",
"3 	c #1C3B76",
"4 	c #1C3973",
"5 	c #1C3871",
"6 	c #1C3770",
"7 	c #19386F",
"8 	c #173970",
"9 	c #173B72",
"0 	c #183C74",
"a 	c #183D76",
"b 	c #183E78",
"c 	c #18407B",
"d 	c #19417D",
"e 	c #19427F",
"f 	c #194482",
"g 	c #1D4B8F",
"h 	c #1C4485",
"i 	c #1C3E7C",
"j 	c #1C3A75",
"k 	c #1B376F",
"l 	c #1B356B",
"m 	c #1B3369",
"n 	c #1B3368",
"o 	c #1B3267",
"p 	c #173162",
"q 	c #142F5F",
"r 	c #143060",
"s 	c #153262",
"t 	c #153364",
"u 	c #153466",
"v 	c #163569",
"w 	c #16366B",
"x 	c #16386D",
"y 	c #17396F",
"z 	c #1D519A",
"A 	c #1C4180",
"B 	c #1B346A",
"C 	c #1D549D",
"D 	c #1C3B75",
"E 	c #1B366D",
"F 	c #1D4585",
"G 	c #1C3C78",
"H 	c #1B366E",
"I 	c #1B3469",
"J 	c #1B356D",
"K 	c #1C407E",
"L 	c #1D539D",
"M 	c #1D488A",
"N 	c #1C3D79",
"O 	c #1B356C",
"P 	c #1C3872",
"Q 	c #1D4688",
"R 	c #1C3C76",
"S 	c #1B3871",
"T 	c #1C3D78",
"U 	c #1C3972",
"V 	c #1C3E7A",
"W 	c #1C3F7C",
"X 	c #1D4381",
"Y 	c #1B346B",
"Z 	c #1D4484",
"` 	c #1C3F7B",
" .	c #1D498C",
"..	c #1C3C77",
"+.	c #1C3B77",
"@.	c #1D4281",
"#.	c #1C4281",
"$.	c #1D478A",
"%.	c #1D4D93",
"&.	c #1D4C92",
"*.	c #1C4280",
"=.	c #1D5199",
"-.	c #1D4D94",
";.	c #1D549E",
">.	c #1B366F",
",.	c #1C3974",
"'.	c #1C3A74",
").	c #1B3770",
"!.	c #1C407D",
"~.	c #1D5098",
"{.	c #1D57A3",
"].	c #1E59A4",
"^.	c #1D4485",
"/.	c #1C3E7B",
"(.	c #1D4788",
"_.	c #1D4F97",
":.	c #1B3771",
"<.	c #1D498B",
"                                                                            ",
"                                          . . . . . . . . . . . . . . . . . ",
"                                    . . . . . . . . . . . . . . . . . . . . ",
"                                . . . . . . . . . . . . . . . . . . . . . . ",
"                            . . . . . . . . . . + + @ # $ $ % @ + + . . . . ",
"                        . . . . . . . . + & * = - ; > , ' ) ! ~ { ] ^ / ( _ ",
"                      . . . . . . : < [ } | 1 2 3 4 5 6 7 8 9 0 a b c d e f ",
"                    . . . . . % _ g h i j k l m n n o o p q r s t u v w x y ",
"                  . . . . @ z ; A 3 k B n n n                               ",
"                . . . + C g A D E m m B                                     ",
"              . . . # = F G H m I J                                         ",
"            . . . < g K 5 I m H 5                                           ",
"          . . . L M N E n O P                                               ",
"          . . _ Q R l m k 3                                                 ",
"        . . _ , j B B S T                                                   ",
"      . . L Q D B B U V                                                     ",
"      . & M 3 B B 4 W X                                                     ",
"    . # g N Y B 4 W Z                                                       ",
"    + = K H m S ` |                                                         ",
"    C F S n k N Z  .                                                        ",
"  % g ..m O +.@.;                                                           ",
"  _ #.H m 4 K $.%.                                                          ",
"  ; D n H 2 F &.                                                            ",
"  *.E m j *. .=.                                                            ",
"  3 n H V , -.;.                                                            ",
"#.>.n ,.A ; z @                                                             ",
"V m O N F %.< .                                                             ",
"'.n ).!.M ~.{..                                                             ",
"k m '.#.g L ].                                                              ",
"Y l G ^.%.& .                                                               ",
"n H /.(._.{..                                                               ",
"n :.K <.=.+ .                                                               ",
"                                                                            "};
