/* XPM */
static char * gRealFiber_Vert_xpm[] = {
"49 5 6 1",
" 	c None",
".	c #BF681A",
"+	c #F6980D",
"@	c #F7990D",
"#	c #B8631B",
"$	c #E68A11",
"           .+@                     #$@           ",
"           .+@                     #$@           ",
"           .+@                     #$@           ",
"           .+@                     #$@           ",
"           .+@                     #$@           "};
