/* XPM */
static char * gRealCopperXO_PatchPanel_xpm[] = {
"33 68 161 2",
"  	c None",
". 	c #85290C",
"+ 	c #983A0D",
"@ 	c #B3510E",
"# 	c #CF6E0E",
"$ 	c #EC8D0D",
"% 	c #F7990D",
"& 	c #EC8C0D",
"* 	c #F5970D",
"= 	c #EB8C0E",
"- 	c #F4950E",
"; 	c #EA8B0E",
"> 	c #F2930E",
", 	c #E88A0E",
"' 	c #EF900E",
") 	c #CF6E0F",
"! 	c #E7880E",
"~ 	c #ED8E0E",
"{ 	c #E6870E",
"] 	c #EA8C0E",
"^ 	c #B3510F",
"/ 	c #E5850E",
"( 	c #E98A0E",
"_ 	c #983A0E",
": 	c #CF6D0F",
"< 	c #E3830E",
"[ 	c #CE6D0F",
"} 	c #E1810E",
"| 	c #85290D",
"1 	c #CE6C0F",
"2 	c #DF7E0E",
"3 	c #CD6C10",
"4 	c #DC7C0E",
"5 	c #CC6B10",
"6 	c #DA7A0E",
"7 	c #DF7F0E",
"8 	c #CB6910",
"9 	c #D8780E",
"0 	c #DD7D0E",
"a 	c #B35110",
"b 	c #CA6810",
"c 	c #D6750E",
"d 	c #C96610",
"e 	c #D4730E",
"f 	c #983A0F",
"g 	c #C76510",
"h 	c #D2710D",
"i 	c #D7750D",
"j 	c #C5630F",
"k 	c #D16F0D",
"l 	c #D5730D",
"m 	c #85290E",
"n 	c #B25010",
"o 	c #C3610F",
"p 	c #CE6D0D",
"q 	c #D3710D",
"r 	c #C2600F",
"s 	c #CC6B0D",
"t 	c #D06F0D",
"u 	c #B15010",
"v 	c #C05E0F",
"w 	c #CA690D",
"x 	c #B14F10",
"y 	c #BE5C0F",
"z 	c #C9670D",
"A 	c #B04E10",
"B 	c #BC5A0F",
"C 	c #C7650D",
"D 	c #CB690D",
"E 	c #AE4D10",
"F 	c #BA580F",
"G 	c #C5620D",
"H 	c #C9660D",
"I 	c #983A10",
"J 	c #AD4B10",
"K 	c #B8560F",
"L 	c #C3610D",
"M 	c #AB4A10",
"N 	c #B7550F",
"O 	c #C15F0D",
"P 	c #C4620D",
"Q 	c #983910",
"R 	c #AA4910",
"S 	c #B5530F",
"T 	c #BF5D0D",
"U 	c #C3600D",
"V 	c #85290F",
"W 	c #A84710",
"X 	c #BD5B0D",
"Y 	c #A74510",
"Z 	c #B14F0E",
"` 	c #BB590D",
" .	c #973910",
"..	c #A54410",
"+.	c #AF4E0E",
"@.	c #B9570D",
"#.	c #963810",
"$.	c #A3430F",
"%.	c #AE4C0E",
"&.	c #B7550C",
"*.	c #BB590C",
"=.	c #953710",
"-.	c #A1410F",
";.	c #AC4A0E",
">.	c #B6540C",
",.	c #BA570C",
"'.	c #953610",
").	c #A0400F",
"!.	c #AA480E",
"~.	c #B4520C",
"{.	c #B8550C",
"].	c #933510",
"^.	c #9E3E0F",
"/.	c #A8470E",
"(.	c #B2500C",
"_.	c #92340F",
":.	c #9C3D0F",
"<.	c #A6450E",
"[.	c #B04E0C",
"}.	c #85280F",
"|.	c #90320F",
"1.	c #9A3B0F",
"2.	c #A5440E",
"3.	c #AE4C0C",
"4.	c #8F310F",
"5.	c #993A0F",
"6.	c #A3420E",
"7.	c #AC4B0C",
"8.	c #B14F0C",
"9.	c #84280F",
"0.	c #8D300F",
"a.	c #97380E",
"b.	c #A1400E",
"c.	c #AB490C",
"d.	c #83270F",
"e.	c #8C2E0F",
"f.	c #95370E",
"g.	c #9F3F0D",
"h.	c #A9470C",
"i.	c #AD4A0C",
"j.	c #82260F",
"k.	c #8A2D0F",
"l.	c #94350E",
"m.	c #9E3E0D",
"n.	c #A7460C",
"o.	c #81250F",
"p.	c #892B0F",
"q.	c #92340E",
"r.	c #9C3C0D",
"s.	c #A5440C",
"t.	c #80240F",
"u.	c #872A0E",
"v.	c #90320E",
"w.	c #9A3B0D",
"x.	c #A4430C",
"y.	c #8F310D",
"z.	c #A2410C",
"A.	c #85280E",
"B.	c #8D2F0D",
"C.	c #97380D",
"D.	c #A0400C",
"                              . + @ # $ % %                       ",
"                              . + @ # $ % %                       ",
"                              . + @ # $ % %                       ",
"                              . + @ # $ % %                       ",
"                              . + @ # $ % %                       ",
"                              . + @ # $ % %                       ",
"                              . + @ # $ % %                       ",
"                              . + @ # $ % %                       ",
"                              . + @ # $ % %                       ",
"                              . + @ # $ % %                       ",
"                              . + @ # $ % %                       ",
"                              . + @ # $ % %                       ",
"                              . + @ # $ % %                       ",
"                              . + @ # $ % %                       ",
"                              . + @ # $ % %                       ",
"                              . + @ # $ % %                       ",
"                              . + @ # $ % %                       ",
"                              . + @ # $ % %                       ",
"                              . + @ # $ % %                       ",
"                              . + @ # $ % %                       ",
"                              . + @ # $ % %                       ",
"                              . + @ # $ % %                       ",
"                              . + @ # $ % %                       ",
"                              . + @ # $ % %                       ",
"                              . + @ # & * *                       ",
"                              . + @ # = - -                       ",
"                              . + @ # ; > >                       ",
"                              . + @ # , ' '                       ",
"                              . + @ ) ! ~ ~                       ",
"                              . + @ ) { ] ]                       ",
"                              . + ^ ) / ( (                       ",
"                              . _ ^ : < ! !                       ",
"                              . _ ^ [ } / /                       ",
"                              | _ ^ 1 2 < <                       ",
"                              | _ ^ 3 4 } }                       ",
"                              | _ ^ 5 6 7 7                       ",
"                              | _ ^ 8 9 0 0                       ",
"                              | _ a b c 6 6                       ",
"                              | _ a d e 9 9                       ",
"                              | f a g h i i                       ",
"                              | f a j k l l                       ",
"                              m f n o p q q                       ",
"                              m f n r s t t                       ",
"                              m f u v w p p                       ",
"                              m f x y z s s                       ",
"                              m f A B C D D                       ",
"                              m f E F G H H                       ",
"                              m I J K L C C                       ",
"                              m I M N O P P                       ",
"                              m Q R S T U U                       ",
"                              V Q W ^ X O O                       ",
"                              V Q Y Z ` T T                       ",
"                              V  ...+.@.X X                       ",
"                              V #.$.%.&.*.*.                      ",
"                              V =.-.;.>.,.,.                      ",
"                              V '.).!.~.{.{.                      ",
"                              V ].^./.(.>.>.                      ",
"                              V _.:.<.[.~.~.                      ",
"                              }.|.1.2.3.(.(.                      ",
"                              }.4.5.6.7.8.8.                      ",
"                              9.0.a.b.c.3.3.                      ",
"                              d.e.f.g.h.i.i.                      ",
"                              j.k.l.m.n.c.c.                      ",
"                              o.p.q.r.s.h.h.                      ",
"                              t.u.v.w.x.n.n.                      ",
"                              t.m y.+ z.s.s.                      ",
"                                A.B.C.D.x.x.                      ",
"                                                                  "};
