/* XPM */
static char * gRealFiber_HeadDown_xpm[] = {
"49 28 222 2",
"  	c None",
". 	c #3A3A3A",
"+ 	c #343434",
"@ 	c #373737",
"# 	c #383838",
"$ 	c #363636",
"% 	c #292929",
"& 	c #2A2A2A",
"* 	c #2B2B2B",
"= 	c #2E2E2E",
"- 	c #2F2F2E",
"; 	c #353434",
"> 	c #353534",
", 	c #363534",
"' 	c #363634",
") 	c #363635",
"! 	c #333232",
"~ 	c #323130",
"{ 	c #323230",
"] 	c #383636",
"^ 	c #383736",
"/ 	c #383836",
"( 	c #333332",
"_ 	c #343433",
": 	c #272727",
"< 	c #212120",
"[ 	c #2F2E2D",
"} 	c #2D2C2A",
"| 	c #2E2D2A",
"1 	c #2E2D2B",
"2 	c #2E2D2C",
"3 	c #2E2E2C",
"4 	c #2F2E2C",
"5 	c #302E2D",
"6 	c #302F2D",
"7 	c #302F2E",
"8 	c #333130",
"9 	c #2A2927",
"0 	c #2B2A27",
"a 	c #2E2C2B",
"b 	c #32302E",
"c 	c #30302E",
"d 	c #30302F",
"e 	c #31302F",
"f 	c #32302F",
"g 	c #2B2B2A",
"h 	c #2A2929",
"i 	c #202020",
"j 	c #272624",
"k 	c #272523",
"l 	c #272623",
"m 	c #282724",
"n 	c #282725",
"o 	c #292725",
"p 	c #292825",
"q 	c #292826",
"r 	c #2A2926",
"s 	c #2B2A28",
"t 	c #2C2A28",
"u 	c #2C2B28",
"v 	c #2C2A29",
"w 	c #2C2B29",
"x 	c #2C2B2A",
"y 	c #2D2B2A",
"z 	c #282828",
"A 	c #262626",
"B 	c #20201F",
"C 	c #262422",
"D 	c #262523",
"E 	c #292828",
"F 	c #1F1F1E",
"G 	c #252422",
"H 	c #282825",
"I 	c #333231",
"J 	c #383837",
"K 	c #353433",
"L 	c #2C2C2A",
"M 	c #2A2A27",
"N 	c #2E2C2A",
"O 	c #373736",
"P 	c #1F1E1D",
"Q 	c #242322",
"R 	c #363535",
"S 	c #292827",
"T 	c #2D2C2C",
"U 	c #343332",
"V 	c #323231",
"W 	c #2A2826",
"X 	c #31302E",
"Y 	c #343232",
"Z 	c #1E1E1C",
"` 	c #242321",
" .	c #2E2C2C",
"..	c #343432",
"+.	c #2E2E2D",
"@.	c #2C2C2C",
"#.	c #1D1D1C",
"$.	c #232221",
"%.	c #2B2A2A",
"&.	c #2D2D2C",
"*.	c #313130",
"=.	c #2D2B29",
"-.	c #323232",
";.	c #353533",
">.	c #32312F",
",.	c #1D1C1B",
"'.	c #222120",
").	c #2A2A29",
"!.	c #262625",
"~.	c #242423",
"{.	c #232220",
"].	c #333230",
"^.	c #31312F",
"/.	c #272726",
"(.	c #323131",
"_.	c #1C1C1A",
":.	c #21201F",
"<.	c #222221",
"[.	c #292928",
"}.	c #1E1E1E",
"|.	c #222220",
"1.	c #282624",
"2.	c #2F2F2C",
"3.	c #242323",
"4.	c #1E1E1D",
"5.	c #1B1B1A",
"6.	c #181616",
"7.	c #1C1C1B",
"8.	c #242221",
"9.	c #1C1B1A",
"0.	c #272626",
"a.	c #1B1A1A",
"b.	c #1B1A19",
"c.	c #131212",
"d.	c #181817",
"e.	c #1A1A19",
"f.	c #1F1E1E",
"g.	c #252322",
"h.	c #181716",
"i.	c #222222",
"j.	c #1E1D1C",
"k.	c #131413",
"l.	c #121211",
"m.	c #161716",
"n.	c #171615",
"o.	c #1A1918",
"p.	c #272017",
"q.	c #6D4A15",
"r.	c #3A2E1C",
"s.	c #171716",
"t.	c #201E1C",
"u.	c #4B361A",
"v.	c #2D271E",
"w.	c #191918",
"x.	c #111211",
"y.	c #131312",
"z.	c #141413",
"A.	c #161615",
"B.	c #151514",
"C.	c #884F16",
"D.	c #F6980D",
"E.	c #CE8210",
"F.	c #282625",
"G.	c #121212",
"H.	c #181717",
"I.	c #72421A",
"J.	c #E68A11",
"K.	c #DF8C0F",
"L.	c #1F1F1F",
"M.	c #191818",
"N.	c #111111",
"O.	c #0F1010",
"P.	c #131313",
"Q.	c #161514",
"R.	c #975617",
"S.	c #DC890E",
"T.	c #242422",
"U.	c #101010",
"V.	c #161515",
"W.	c #7A4518",
"X.	c #F7990D",
"Y.	c #262524",
"Z.	c #111110",
"`.	c #0E0E0E",
" +	c #0F100F",
".+	c #985618",
"++	c #DB890E",
"@+	c #171515",
"#+	c #101110",
"$+	c #0F0F0F",
"%+	c #0D0E0E",
"&+	c #252321",
"*+	c #111010",
"=+	c #1A1A18",
"-+	c #232321",
";+	c #0C0C0C",
">+	c #0D0D0D",
",+	c #965517",
"'+	c #DB880E",
")+	c #794418",
"!+	c #242424",
"~+	c #10100F",
"{+	c #0A0A0A",
"]+	c #0C0D0D",
"^+	c #965416",
"/+	c #DA880E",
"(+	c #201F1E",
"_+	c #242220",
":+	c #131211",
"<+	c #0B0B0B",
"[+	c #0E0F0F",
"}+	c #784317",
"|+	c #151414",
"1+	c #141312",
"2+	c #774216",
"3+	c #975517",
"4+	c #191816",
"5+	c #191817",
"6+	c #7B4619",
"7+	c #242421",
"8+	c #BF681A",
"9+	c #B8631B",
"  . . . . . . . . . . . . . . . . . . . . . . . . . . . . . . . . . . . . . . . . . . . . . . .   ",
"+ @ # # # # # # # # # # # # # # # # # # # # # # # # # # # # # # # # # # # # # # # # # # # # # @ $ ",
"% + + + + + + + + + + + + + + + + + + + + + + + + + + + + + + + + + + + + + + + + + + + + + + + & ",
"% + + + + + + + + + + + + + + + + + + + + + + + + + + + + + + + + + + + + + + + + + + + + + + + * ",
"% = - + + + ; ; ; > , , , , ' ) ) ) ) ) ) $ ! ~ { { ) ] ^ / / ] ] ^ / / / / / / / / / / / / ( _ * ",
": < [ } } } | 1 2 2 2 3 3 3 4 [ 5 6 7 7 7 7 8 9 0 a b 7 7 c c c d d e e f e d d d d d d d d d g h ",
": i j k l j j m m n n o p q q r 9 9 0 s s s t 9 9 s u t t v w w w x x x x y x x x x x x g g x g z ",
"A B C D k l j j m m n n o p q q r 9 9 0 s s s r 9 0 u u t t v w w w x x x x y x x x x x x x x x E ",
"A F G C C k k l j m m 9 s t p q q r 9 9 0 s s q r 9 t u u t t t w w w 2 3 3 x y y x x x x x x x E ",
"A F G G C C D k H I J , I K J ) L q r r 9 0 M q q r t t u u u t N ) # ; I > J O [ y x x x x x x E ",
"A P Q G G C C v R S T U , , ~ } K V q r r 9 9 p q W s t t u u X > S 2 _ , ' e } , Y y x x x x x E ",
"A Z ` Q G G 9 d & +  .L x 1 1 .._ [ V q q r W o p W s s t t X +.@._  .x x 1 3 ; U c I y x x x x E ",
"A #.$.$.Q G 7 %.&.*._ 7 [ 7 K ' 1 ; X 1 q q W n o W s s s =.+.+.* -._ - 5 X ;._ 3 ;.>.[ y x x x E ",
"A ,.'.$.$.).!.).*.~.{.` G C l p U 2 ].^.p q q n n q 9 s s 3 /.).(.~.$.Q G D j q ..4 { ! x y x y E ",
"A _.< '.:.<.[.+.}.F i |.` G C l 1.^.2.>.W p p m n H 9 9 1.3.).&.4.F < |.` G C l m { c ^.x x x x E ",
"A 5.< < 6.~.).7._.Z F i '.8.G C k j X 2 x o m m m n r 9 9.0.[.a.7.Z F i '.8.G C l 1.7 6 3 x x x E ",
"A b.i 7.c.}.i d.e.9.#.f.B < $.g.C D L x M n m j m m q {.h.< i.d.e._.j.F B '.$.G C k 1 w 2 x x x E ",
"A e.F k.l.m.7.n.d.o.e.p.q.r.< $.Q G D } q m 1.j j m 1.d.h.B s.n.d.o.5.t.u.v.< $.Q G j } } w x x E ",
"A w.d.x.x.s.y.z.A.h.B.C.D.E.F < |.` G F.j m 1.l j 1.,.n.s.s.G.z.A.H.w.I.J.K.L.< |.` G q w w w w E ",
"A M.l.N.l.O.N.l.P.Q.y.R.D.S.Z F i '.8.T.j j j k l j n.n.n.y.U.l.z.V.n.W.J.X.Z F i |.` Y.v w w w E ",
"A d.Z.Z.N.Z.`. +N.P.z..+D.++_.j.F B '.G k l j D k D @+n.n.Q.`.U.N.P.z.W.J.X._.j.F i '.q t t v w E ",
"A h.#+Z.Z.N.$+%+$+N.G.R.D.++o.5.#.P :.C D k D C D &+Q.@+n.n.*+%+$+N.y.W.J.X.=+9.#.f.-+u u t t v E ",
"A s.#+#+#+Z.U.;+>+$+#+,+D.'+H.w.5.,.` C C D D C C ` Q.Q.@+n.Q.;+>+$+#+)+J.X.d.o.5.Z W u u u t t E ",
"!+n.~+~+#+#+Z.$+{+]+`.^+D./+A.h.w.(+G G C C C G C _+Q.Q.Q.@+@+:+<+>+[+}+J.X.A.h.w.D t t u u u t [.",
"  |+$+~+~+#+#+Z.~+;+;+^+D./+P.h.(+$.` G G G C G G _+Q.Q.Q.Q.@+@+1+;+;+2+J.X.P.w.Y.s s t t t u u t ",
"  B.l.$+~+~+#+l.G.G.l.3+D.++#.< '.$.$.` Q G G Q G G o.Q.Q.Q.n.4+5+5+A.6+J.X.7+9 9 0 s s s t t u   ",
"                      8+D.X.                                          9+J.X.                      ",
"                      8+D.X.                                          9+J.X.                      "};
