/* XPM */
static char * gRealPhone_Vert_xpm[] = {
"22 15 24 1",
" 	c None",
".	c #DC9CBF",
"+	c #E5A2C7",
"@	c #F1ABD1",
"#	c #F3ACD3",
"$	c #F3ACD4",
"%	c #F2ABD3",
"&	c #E8A3C9",
"*	c #DE9CC0",
"=	c #DD9CBF",
"-	c #DE9DC0",
";	c #E8A4C9",
">	c #DF9EC0",
",	c #DE9CBF",
"'	c #DF9EC1",
")	c #E09FC3",
"!	c #E19FC3",
"~	c #E19FC4",
"{	c #E2A0C4",
"]	c #F2ABD2",
"^	c #E09EC2",
"/	c #E6A2C7",
"(	c #E8A4CA",
"_	c #E3A1C5",
"     .+@##$$$$%&*     ",
"     =+@##$$$$%&-     ",
"     =+@##$$$$%;>     ",
"     ,+@###$$$%;>     ",
"     *+@###$$$%;'     ",
"     -+@###$$$%;'     ",
"     >+@####$$%;'     ",
"     >+@####$$%;)     ",
"     '+@#####$%;)     ",
"     '+@#####$%;)     ",
"     '+@#####$%;!     ",
"     )+@######%;~     ",
"     )+@######%;{     ",
"     )+@######];{     ",
"     ^/@######](_     "};
