/* XPM */
static char * gRealCopperCN_HeadDown_xpm[] = {
"33 31 258 2",
"  	c None",
". 	c #9EBACE",
"+ 	c #D7D8DA",
"@ 	c #DCDADB",
"# 	c #DCDADA",
"$ 	c #DBDADA",
"% 	c #DBD9D9",
"& 	c #DBD9D8",
"* 	c #DAD9D8",
"= 	c #DAD8D8",
"- 	c #D9D8D7",
"; 	c #D8D7D6",
"> 	c #D7D6D6",
", 	c #D7D5D5",
"' 	c #2D7CB7",
") 	c #2466AC",
"! 	c #2465AB",
"~ 	c #2464AA",
"{ 	c #2364A9",
"] 	c #2463A8",
"^ 	c #2462A7",
"/ 	c #2462A6",
"( 	c #2461A6",
"_ 	c #2461A4",
": 	c #2460A4",
"< 	c #2460A3",
"[ 	c #245FA2",
"} 	c #2662A4",
"| 	c #2B76B2",
"1 	c #2762A3",
"2 	c #265D9F",
"3 	c #265C9E",
"4 	c #2761A1",
"5 	c #2861A2",
"6 	c #2861A1",
"7 	c #2760A0",
"8 	c #28609F",
"9 	c #285F9F",
"0 	c #285F9E",
"a 	c #285E9E",
"b 	c #285E9D",
"c 	c #285D9C",
"d 	c #1E59A5",
"e 	c #2366AC",
"f 	c #2365AB",
"g 	c #2366AB",
"h 	c #2569AD",
"i 	c #2B78B5",
"j 	c #276DAF",
"k 	c #256AAE",
"l 	c #266DAF",
"m 	c #276FB0",
"n 	c #276EB0",
"o 	c #245B9F",
"p 	c #233E81",
"q 	c #2467AC",
"r 	c #2262AA",
"s 	c #2161A9",
"t 	c #2364AB",
"u 	c #205EA7",
"v 	c #205DA7",
"w 	c #205CA6",
"x 	c #1F5CA6",
"y 	c #1F59A4",
"z 	c #1E57A3",
"A 	c #1F58A3",
"B 	c #224286",
"C 	c #1E5AA5",
"D 	c #1F5DA7",
"E 	c #2160A8",
"F 	c #2263AA",
"G 	c #2B77B4",
"H 	c #2261A9",
"I 	c #2262A9",
"J 	c #2363AA",
"K 	c #2364AA",
"L 	c #1F59A3",
"M 	c #224388",
"N 	c #2568AC",
"O 	c #2160A9",
"P 	c #1F5BA6",
"Q 	c #2871B1",
"R 	c #2973B2",
"S 	c #205EA8",
"T 	c #2162AA",
"U 	c #2162A9",
"V 	c #1F5BA5",
"W 	c #224387",
"X 	c #2568AB",
"Y 	c #215FA7",
"Z 	c #1E58A4",
"` 	c #2C7AB6",
" .	c #2261AA",
"..	c #224287",
"+.	c #2567AA",
"@.	c #215DA4",
"#.	c #1E56A1",
"$.	c #205FA8",
"%.	c #2A75B3",
"&.	c #2870B1",
"*.	c #1F5CA7",
"=.	c #1E57A2",
"-.	c #2566A9",
";.	c #225EA3",
">.	c #1E549F",
",.	c #225FA6",
"'.	c #2058A1",
").	c #1E54A0",
"!.	c #1E55A0",
"~.	c #205BA5",
"{.	c #266CAF",
"].	c #1E58A3",
"^.	c #234185",
"/.	c #2561A4",
"(.	c #245EA2",
"_.	c #1F529C",
":.	c #215BA2",
"<.	c #2159A0",
"[.	c #20549D",
"}.	c #2262A8",
"|.	c #215FA8",
"1.	c #234084",
"2.	c #255FA2",
"3.	c #245EA1",
"4.	c #1F5099",
"5.	c #235BA0",
"6.	c #21579E",
"7.	c #21549B",
"8.	c #2059A2",
"9.	c #1E56A2",
"0.	c #1E56A3",
"a.	c #1E58A5",
"b.	c #1D569F",
"c.	c #1B4C8E",
"d.	c #1F5698",
"e.	c #1E5AA4",
"f.	c #234083",
"g.	c #255EA1",
"h.	c #255C9E",
"i.	c #204E96",
"j.	c #23599E",
"k.	c #22569B",
"l.	c #214F95",
"m.	c #21579F",
"n.	c #1E539E",
"o.	c #1E55A1",
"p.	c #1B4B8E",
"q.	c #16396E",
"r.	c #183E79",
"s.	c #1D56A1",
"t.	c #1E57A4",
"u.	c #255DA0",
"v.	c #255A9C",
"w.	c #204D94",
"x.	c #23559A",
"y.	c #225297",
"z.	c #214A90",
"A.	c #23599F",
"B.	c #1F509A",
"C.	c #1F519B",
"D.	c #1E529D",
"E.	c #183E77",
"F.	c #122850",
"G.	c #153365",
"H.	c #1E539F",
"I.	c #224185",
"J.	c #255C9F",
"K.	c #245295",
"L.	c #225095",
"M.	c #245699",
"N.	c #235397",
"O.	c #22488D",
"P.	c #204D95",
"Q.	c #1F4E96",
"R.	c #204F97",
"S.	c #1E4C92",
"T.	c #153262",
"U.	c #102144",
"V.	c #255B9D",
"W.	c #255192",
"X.	c #234F93",
"Y.	c #245497",
"Z.	c #234D91",
"`.	c #23478A",
" +	c #245396",
".+	c #214A91",
"++	c #214B92",
"@+	c #1D4484",
"#+	c #132952",
"$+	c #102143",
"%+	c #122851",
"&+	c #204E97",
"*+	c #254F90",
"=+	c #245092",
"-+	c #23498C",
";+	c #244A8C",
">+	c #244E90",
",+	c #22478C",
"'+	c #22478D",
")+	c #1A3972",
"!+	c #112448",
"~+	c #1E549E",
"{+	c #1F519A",
"]+	c #1F4F98",
"^+	c #204C94",
"/+	c #275B9B",
"(+	c #244889",
"_+	c #245091",
":+	c #255091",
"<+	c #234284",
"[+	c #254A8B",
"}+	c #254C8D",
"|+	c #224284",
"1+	c #172F5E",
"2+	c #214B91",
"3+	c #214990",
"4+	c #244789",
"5+	c #265092",
"6+	c #254E8F",
"7+	c #233F82",
"8+	c #244B8B",
"9+	c #20417D",
"0+	c #142851",
"a+	c #204A91",
"b+	c #204C93",
"c+	c #21488E",
"d+	c #21478C",
"e+	c #1F437A",
"f+	c #102245",
"g+	c #22468B",
"h+	c #21478D",
"i+	c #21498F",
"j+	c #21488D",
"k+	c #22458A",
"l+	c #224588",
"m+	c #254D8E",
"n+	c #20437C",
"o+	c #112246",
"p+	c #224488",
"q+	c #224489",
"r+	c #22468A",
"s+	c #224589",
"t+	c #1F427A",
"u+	c #112346",
"v+	c #2A4782",
"w+	c #3F5981",
"x+	c #234286",
"y+	c #234386",
"z+	c #224487",
"A+	c #112347",
"B+	c #152954",
"C+	c #192E5F",
"D+	c #142852",
"E+	c #172C5B",
"F+	c #172B59",
"G+	c #152955",
"H+	c #132A55",
"I+	c #132B56",
"      . . + @ # # # # $ % % % & * * * = = - - - ; ; > , , ,       ",
"  ' ' ' ' ' ' ' ' ' ' ' ' ' ' ' ' ' ' ' ' ' ' ' ' ' ' ' ' ' ' '   ",
"  ' ' ' ' ' ' ' ' ' ' ' ' ' ' ' ' ' ' ' ' ' ' ' ' ' ' ' ' ' ' '   ",
") ! ~ { { ] ] ^ / ( _ : < [ [ } | 1 2 3 3 4 5 6 7 7 8 9 0 a b b c ",
"d e f g g ) ) ) ) ) ) ) e ) g h i j k k k k k k k l m m n n n o p ",
"d e q r s r t ) ) f r r r r s t i h s u v v v w w x w w y z z A B ",
"d h C d d d D v v E r r F F s F G l H F s s I r s H J H H K s L M ",
"d N s f r r O v v D d d d d d P Q R S r r r F T T F r r r U s V W ",
"d X Y Z F F r r r F r r t r s s q ` f u S  .F r r r U U T s C z ..",
"d +.@.#.H d $.r I I H I s U s r r %.&.u *.d d d P v O s x d d =.B ",
"d -.;.>.,.,.'.>.).!.y ~.E H s s r {.%.r s s s T $.D C d C d d ].^.",
"d /.(._.:.<.[.}.O s u *.d d d d d |.i O d d d d d d d d d d d d 1.",
"d 2.3.4.5.6.7.8.9.0.z Z Z a.d d b.c.d.e.d d d d d d d d d d d Z f.",
"d g.h.i.j.k.l.m.n.n.>.).o.9.0.p.q.r.p.s.d d d d d d d d d Z t.9.f.",
"d u.v.w.x.y.z.A.4.B.C._.D.D.E.F.G.r.p.s.d d a.a.d d d d d o.o.H.I.",
"d J.K.L.M.N.O.y.P.P.Q.R.S.T.U.F.G.r.p.s.d d 9.o.9.z t.Z a.>.D.C.1.",
"d V.W.X.Y.Z.`. +z..+++@+#+$+$+%+G.r.p.s.d d !.D.n.H.).!.o.C.4.&+1.",
"d v.*+Z.=+-+;+>+,+'+)+!+$+$+$+%+G.r.p.s.d d ~+4.4.{+C._.D.]+P.^+B ",
"  /+(+_+:+<+[+}+|+1+U.$+$+$+$+%+G.r.p.s.d d _.^+P.i.&+]+4.^+2+3+M ",
"    4+5+6+7+8+9+0+$+$+$+$+$+$+%+G.r.p.s.d d 4.3+.+a+++b+^+z.c+d+  ",
"      }+}+7+e+f+$+$+$+$+$+$+$+%+G.r.p.s.d d R.g+,+h+c+i+3+j+k+l+  ",
"        m+f.n+o+$+$+$+$+$+$+$+%+G.r.p.s.d d P.W p+q+k+r+g+s+B     ",
"            t+u+$+$+$+$+$+$+$+%+G.r.p.s.d d ^+v+w+x+y+z+p+        ",
"              A+B+C+D+D+E+F+G+H+G.r.p.s.d d                       ",
"                              I+G.r.p.s.d d                       ",
"                              I+G.r.p.s.d d                       ",
"                              I+G.r.p.s.d d                       ",
"                              I+G.r.p.s.d d                       ",
"                              I+G.r.p.s.d d                       ",
"                              I+G.r.p.s.d d                       ",
"                              I+G.r.p.s.d d                       "};
