/* XPM */
static char * gRealCopperXO_TABLE_Horiz_xpm[] = {
"11 120 12 1",
" 	c None",
".	c #F29915",
"+	c #F29815",
"@	c #E78C15",
"#	c #E68B15",
"$	c #E68C15",
"%	c #CE6F14",
"&	c #CD6E14",
"*	c #CD6F14",
"=	c #B65613",
"-	c #B55613",
";	c #B55513",
"           ",
"           ",
"           ",
"           ",
"           ",
"           ",
"           ",
"           ",
"           ",
"           ",
"           ",
"           ",
"           ",
"           ",
"           ",
"           ",
"           ",
"           ",
"           ",
"           ",
"           ",
"           ",
"           ",
"           ",
"           ",
"           ",
"           ",
"           ",
"           ",
"           ",
"           ",
"           ",
"           ",
"           ",
"           ",
"           ",
"           ",
"           ",
"           ",
"           ",
"           ",
"           ",
"           ",
"           ",
"           ",
"           ",
"           ",
"           ",
"           ",
"           ",
"           ",
"           ",
"           ",
"           ",
"           ",
"           ",
"           ",
"           ",
"           ",
"           ",
"           ",
"           ",
"           ",
"           ",
"           ",
"           ",
"           ",
"           ",
"           ",
"           ",
"           ",
"           ",
"           ",
"           ",
"           ",
"           ",
"           ",
"           ",
"           ",
"           ",
"           ",
"           ",
"           ",
"           ",
"           ",
"           ",
"           ",
"           ",
"           ",
"           ",
"           ",
"           ",
"           ",
"           ",
"           ",
"           ",
"           ",
"           ",
"           ",
"           ",
"           ",
"           ",
"           ",
"           ",
"           ",
"           ",
"           ",
"           ",
"           ",
"           ",
"           ",
"           ",
"           ",
"...........",
"...........",
"...........",
"..........+",
"@#$#$##$$$#",
"%&%&%*%*%%&",
"=-=-======;"};
