/* XPM */
static char * gRealSmartSerialDCE_HeadUp_xpm[] = {
"50 26 461 2",
"  	c None",
". 	c #132C58",
"+ 	c #16366A",
"@ 	c #19427F",
"# 	c #1C4F95",
"$ 	c #1E58A4",
"% 	c #1E59A5",
"& 	c #7D838E",
"* 	c #8E949F",
"= 	c #9DA5B2",
"- 	c #ACB6C5",
"; 	c #BBC7D6",
"> 	c #C8D5E4",
", 	c #BECADB",
"' 	c #166BAA",
") 	c #166BAB",
"! 	c #166CAB",
"~ 	c #176CAB",
"{ 	c #176DAC",
"] 	c #176EAC",
"^ 	c #176FAC",
"/ 	c #176FAD",
"( 	c #1770AD",
"_ 	c #2C76A9",
": 	c #7B848A",
"< 	c #818181",
"[ 	c #B2B2B2",
"} 	c #A1A1A1",
"| 	c #C8C8C8",
"1 	c #ACACAC",
"2 	c #CBD0D3",
"3 	c #438AB7",
"4 	c #1773AE",
"5 	c #1874AE",
"6 	c #1874AF",
"7 	c #1875AF",
"8 	c #1876AF",
"9 	c #1877AF",
"0 	c #1977B0",
"a 	c #1978B0",
"b 	c #1979B0",
"c 	c #135CA4",
"d 	c #1560A6",
"e 	c #1560A7",
"f 	c #1561A7",
"g 	c #1562A7",
"h 	c #1563A8",
"i 	c #1564A8",
"j 	c #1565A8",
"k 	c #1665A8",
"l 	c #1666A9",
"m 	c #1566A9",
"n 	c #1567A9",
"o 	c #1667A9",
"p 	c #286EA6",
"q 	c #626B71",
"r 	c #737373",
"s 	c #6F6F6F",
"t 	c #999999",
"u 	c #9E9E9E",
"v 	c #828282",
"w 	c #CACED2",
"x 	c #3F82B4",
"y 	c #166DAB",
"z 	c #166EAC",
"A 	c #166FAC",
"B 	c #1770AC",
"C 	c #1771AD",
"D 	c #1772AE",
"E 	c #1873AE",
"F 	c #1875AE",
"G 	c #114B9E",
"H 	c #114C9F",
"I 	c #114D9F",
"J 	c #114E9F",
"K 	c #114FA0",
"L 	c #1150A0",
"M 	c #1251A0",
"N 	c #1252A1",
"O 	c #1153A1",
"P 	c #1154A2",
"Q 	c #1255A2",
"R 	c #255FA0",
"S 	c #5E656D",
"T 	c #696969",
"U 	c #6B6B6B",
"V 	c #888888",
"W 	c #969696",
"X 	c #909090",
"Y 	c #CDD1D5",
"Z 	c #3D77B0",
"` 	c #145FA6",
" .	c #1460A6",
"..	c #1461A7",
"+.	c #1563A7",
"@.	c #1568A9",
"#.	c #1569AA",
"$.	c #166AAA",
"%.	c #176DAB",
"&.	c #1772AD",
"*.	c #1774AE",
"=.	c #114A9E",
"-.	c #1253A2",
";.	c #1254A2",
">.	c #1256A3",
",.	c #1357A3",
"'.	c #1258A3",
").	c #1359A4",
"!.	c #2662A2",
"~.	c #7C848C",
"{.	c #8A8A8A",
"].	c #B3B3B3",
"^.	c #CACACA",
"/.	c #BEBEBE",
"(.	c #D0D4D8",
"_.	c #3E7AB1",
":.	c #1668A9",
"<.	c #1669A9",
"[.	c #1669AA",
"}.	c #1256A2",
"|.	c #1D6FA4",
"1.	c #395274",
"2.	c #445A7E",
"3.	c #4B6892",
"4.	c #5376A7",
"5.	c #5A82B7",
"6.	c #5F88BD",
"7.	c #5884B9",
"8.	c #2578B0",
"9.	c #1977AF",
"0.	c #1668AA",
"a.	c #1C74B0",
"b.	c #206DAD",
"c.	c #216EAE",
"d.	c #1F64A0",
"e.	c #153362",
"f.	c #1E5AA5",
"g.	c #216CAD",
"h.	c #2271AF",
"i.	c #2270AF",
"j.	c #216FAE",
"k.	c #2070AF",
"l.	c #2170AF",
"m.	c #2161A9",
"n.	c #205FA8",
"o.	c #1E579B",
"p.	c #143161",
"q.	c #205DA7",
"r.	c #205EA7",
"s.	c #215FA8",
"t.	c #215FA7",
"u.	c #205DA6",
"v.	c #2160A7",
"w.	c #1F5DA5",
"x.	c #1970AC",
"y.	c #124A9C",
"z.	c #304F7C",
"A.	c #59677A",
"B.	c #6F7F96",
"C.	c #436AA4",
"D.	c #134B9E",
"E.	c #1254A1",
"F.	c #2374B0",
"G.	c #2262AA",
"H.	c #205EA8",
"I.	c #1F589C",
"J.	c #153261",
"K.	c #2160A8",
"L.	c #1F5CA5",
"M.	c #1A6EAA",
"N.	c #1667A8",
"O.	c #29618C",
"P.	c #52697A",
"Q.	c #6F8391",
"R.	c #5888AB",
"S.	c #1B6EAB",
"T.	c #11499D",
"U.	c #2B4A79",
"V.	c #525353",
"W.	c #70706E",
"X.	c #959493",
"Y.	c #ABADB1",
"Z.	c #3663A3",
"`.	c #1253A1",
" +	c #2373AF",
".+	c #2160A9",
"++	c #2060A8",
"@+	c #2263AA",
"#+	c #1E5BA5",
"$+	c #1A6EA9",
"%+	c #1873AD",
"&+	c #1564A7",
"*+	c #236092",
"=+	c #4E5154",
"-+	c #686867",
";+	c #8C8A8A",
">+	c #ADADAE",
",+	c #5B8BAE",
"'+	c #0E3D83",
")+	c #424A56",
"!+	c #656564",
"~+	c #878786",
"{+	c #9C9B9B",
"]+	c #B1B1B1",
"^+	c #6983AA",
"/+	c #145DA5",
"(+	c #2372AE",
"_+	c #215EA3",
":+	c #205BA3",
"<+	c #1F5CA6",
"[+	c #1E5BA6",
"}+	c #1E59A3",
"|+	c #1A6DA8",
"1+	c #145EA5",
"2+	c #135BA4",
"3+	c #1561A4",
"4+	c #33526D",
"5+	c #5C5C5B",
"6+	c #818180",
"7+	c #979695",
"8+	c #AEADAD",
"9+	c #95A6B2",
"0+	c #0B326A",
"a+	c #5C6169",
"b+	c #9D9C9B",
"c+	c #A09F9F",
"d+	c #A7A6A6",
"e+	c #6B84A9",
"f+	c #145CA5",
"g+	c #2372AD",
"h+	c #21599D",
"i+	c #2059A0",
"j+	c #205AA1",
"k+	c #21599E",
"l+	c #205BA1",
"m+	c #1F59A1",
"n+	c #205CA4",
"o+	c #1D5498",
"p+	c #1F5CA7",
"q+	c #1F5DA7",
"r+	c #1E5AA6",
"s+	c #1A6CA7",
"t+	c #145B9C",
"u+	c #11477C",
"v+	c #3E5266",
"w+	c #908F8E",
"x+	c #9F9F9E",
"y+	c #A3A3A3",
"z+	c #92A3AF",
"A+	c #0B3169",
"B+	c #787D84",
"C+	c #939291",
"D+	c #969494",
"E+	c #989796",
"F+	c #9B9A9A",
"G+	c #5674A1",
"H+	c #145BA5",
"I+	c #2270AB",
"J+	c #205295",
"K+	c #20569A",
"L+	c #20569B",
"M+	c #205598",
"N+	c #1F5BA5",
"O+	c #1F5AA5",
"P+	c #1C5299",
"Q+	c #1A6CA8",
"R+	c #1151A1",
"S+	c #114F9D",
"T+	c #124E8A",
"U+	c #103F70",
"V+	c #0F3A67",
"W+	c #55687C",
"X+	c #929190",
"Y+	c #9B9A99",
"Z+	c #7890A4",
"`+	c #737983",
" @	c #8C8B89",
".@	c #8E8D8C",
"+@	c #91908F",
"@@	c #949392",
"#@	c #3C639C",
"$@	c #1251A1",
"%@	c #135AA4",
"&@	c #216BA7",
"*@	c #215191",
"=@	c #205294",
"-@	c #205194",
";@	c #205091",
">@	c #1E539A",
",@	c #1D529C",
"'@	c #1D549E",
")@	c #1B4E94",
"!@	c #143160",
"~@	c #1D57A1",
"{@	c #196BA7",
"]@	c #104691",
"^@	c #103C6C",
"/@	c #0F3967",
"(@	c #52667A",
"_@	c #8B8A89",
":@	c #8E8C8B",
"<@	c #5B809D",
"[@	c #0B336E",
"}@	c #435B7E",
"|@	c #838383",
"1@	c #878685",
"2@	c #8A8987",
"3@	c #7C838D",
"4@	c #1B4F9D",
"5@	c #2069A4",
"6@	c #214E8C",
"7@	c #204F8F",
"8@	c #204C8B",
"9@	c #1F4E92",
"0@	c #1E4D93",
"a@	c #1E4E95",
"b@	c #1C498C",
"c@	c #14305F",
"d@	c #1D529A",
"e@	c #1A66A2",
"f@	c #104692",
"g@	c #0F3B6B",
"h@	c #2D4E71",
"i@	c #808181",
"j@	c #878684",
"k@	c #898887",
"l@	c #85898B",
"m@	c #316FA2",
"n@	c #104696",
"o@	c #144B9C",
"p@	c #406190",
"q@	c #647388",
"r@	c #5A6E8C",
"s@	c #26559A",
"t@	c #1358A3",
"u@	c #2067A2",
"v@	c #1F4582",
"w@	c #214F8C",
"x@	c #204B88",
"y@	c #1F4683",
"z@	c #1F4989",
"A@	c #1E488A",
"B@	c #1E498B",
"C@	c #1C4585",
"D@	c #1E59A4",
"E@	c #1D549D",
"F@	c #1D559F",
"G@	c #1D56A1",
"H@	c #1D57A2",
"I@	c #1D56A2",
"J@	c #1E5097",
"K@	c #1E4D92",
"L@	c #19629E",
"M@	c #0F3A6B",
"N@	c #103A69",
"O@	c #113F70",
"P@	c #33567A",
"Q@	c #60768A",
"R@	c #62798D",
"S@	c #356D9E",
"T@	c #1257A3",
"U@	c #2066A1",
"V@	c #20457F",
"W@	c #204885",
"X@	c #1F447F",
"Y@	c #1F437D",
"Z@	c #1F4885",
"`@	c #1E4281",
" #	c #1E4382",
".#	c #1B3D77",
"+#	c #142E5C",
"@#	c #1E57A2",
"##	c #1E4E94",
"$#	c #1E4F96",
"%#	c #1E5098",
"&#	c #1E519A",
"*#	c #1D519A",
"=#	c #1E4B90",
"-#	c #1E498C",
";#	c #19619F",
">#	c #114A97",
",#	c #0F3B6D",
"'#	c #10457D",
")#	c #125293",
"!#	c #13599B",
"~#	c #145FA5",
"{#	c #1151A0",
"]#	c #1F639F",
"^#	c #224D86",
"/#	c #204682",
"(#	c #1E3B75",
"_#	c #1F3F77",
":#	c #1D3C78",
"<#	c #193569",
"[#	c #11244A",
"}#	c #122850",
"|#	c #1E4A8D",
"1#	c #1E4B8F",
"2#	c #1E4C91",
"3#	c #1E4789",
"4#	c #1E4585",
"5#	c #195F9C",
"6#	c #114EA0",
"7#	c #1356A1",
"8#	c #125093",
"9#	c #145CA4",
"0#	c #145EA6",
"a#	c #1460A7",
"b#	c #15529D",
"c#	c #1F4883",
"d#	c #214781",
"e#	c #1E3B72",
"f#	c #204279",
"g#	c #1E3E74",
"h#	c #162C5A",
"i#	c #102245",
"j#	c #102143",
"k#	c #102246",
"l#	c #153263",
"m#	c #19427E",
"n#	c #1E58A3",
"o#	c #1E5198",
"p#	c #1E4282",
"q#	c #1E4484",
"r#	c #1E4586",
"s#	c #1E4688",
"t#	c #1E4788",
"u#	c #1D417F",
"v#	c #175498",
"w#	c #20417A",
"x#	c #1E396F",
"y#	c #1F3F76",
"z#	c #193765",
"A#	c #102347",
"B#	c #14305E",
"C#	c #1A417D",
"D#	c #1D4484",
"E#	c #1D3B77",
"F#	c #1D3D79",
"G#	c #1D3D7A",
"H#	c #1D3E7C",
"I#	c #1D407D",
"J#	c #1E417F",
"K#	c #1E4280",
"L#	c #1D3E7A",
"M#	c #18488C",
"N#	c #1D356B",
"O#	c #193563",
"P#	c #192F61",
"Q#	c #1D356C",
"R#	c #1D366D",
"S#	c #1D366F",
"T#	c #1D3770",
"U#	c #1D3872",
"V#	c #1D3974",
"W#	c #1D3A75",
"X#	c #1D3C77",
"Y#	c #182F5D",
"Z#	c #12244A",
"`#	c #13264D",
" $	c #112346",
"                                          . + @ # $ % %                                             ",
"                                          . + @ # $ % %                                             ",
"                                          . + @ # $ % %                                             ",
"                                          . + @ # $ % %                                             ",
"                                          & * = - ; > ,                                             ",
"  ' ) ) ! ~ ~ ~ { { ] ] ] ^ ^ ^ / ( ( ( _ : < [ } | 1 2 3 4 5 6 7 7 7 7 8 8 8 8 9 9 0 a a a b b b   ",
"c d e e f f f f g g g h i i j k l m n o p q r s t u v w x ! y y z z A ^ B ( C D D D E E 5 5 F 8 8 9 ",
"G G G G G G G G G G H I J K L M N O P Q R S T U V W X Y Z `  ...g +.i i k n @.#.$.' ! %.] ^ ( C &.*.",
"=.=.=.=.=.=.=.=.=.I N N -.;.Q >.,.,.'.).!.~.{.].1 ^./.(._.g h i j j l o :.<.$.$.@.[.$.! %.] ^ ( C &.",
"=.=.=.=.=.=.=.=.=.}.B F F F F 7 7 7 7 7 |.1.2.3.4.5.6.7.8.8 8 8 9 9 9.9.9.9.9.4 n 0.$.$.! %.] ^ ( C ",
"=.=.=.=.=.=.=.=.=.Q m 5 a.b.c.c.c.c.c.c.d.e.+ @ # $ % f.g.h.i.c.j.h.h.k.5 7 8 A m n 0.[.$.) %.] ^ ( ",
"=.=.=.=.=.=.=.=.=.;...^ l.m.n.n.n.n.n.n.o.p.+ @ # $ % % q.r.s.t.u.r.v.w.x.8 C $.k m n 0.[.$.! %.] ^ ",
"=.y.z.A.B.C.D.=.=.E. .] F.q.n.n.r.m.G.H.I.J.+ @ # $ % % n.r.r.K.K.n.s.L.M.F $.i i k m N.O.P.Q.R.S.] ",
"T.U.V.W.X.Y.Z.=.=.`.` %. +v.u..+n.q..+G.o.p.+ @ # $ % % ++@+n.K.m.m.r.#+$+%+&+ .h i j *+=+-+;+>+,+%.",
"'+)+!+~+{+]+^+=.=.`./+y (+_+:+q.r.<+q.r.I.J.+ @ # $ % % r.s.n.n.r.[+f.}+|+B 1+2+g h 3+4+5+6+7+8+9+) ",
"0+a+7+b+c+d+e+=.=.N f+! g+h+i+j+k+l+m+n+o+p.+ @ # $ % % p+<+q.p+q+r+% }+s+] '.Q ..t+u+v+w+b+x+y+z+$.",
"A+B+C+D+E+F+G+=.=.N H+) I+J+K+L+M+n+N+O+P+p.+ @ # $ % % % % % % % % % }+Q+) R+S+T+U+V+W+X+X.E+Y+Z+[.",
"A+`+ @.@+@@@#@=.=.$@%@$.&@*@=@-@;@>@,@'@)@!@+ @ # $ % % % % % % % % $ ~@{@n H ]@^@^@/@(@_@:@w+C+<@@.",
"[@}@|@1@2@3@4@=.=.L ).[.5@6@*@7@8@9@0@a@b@c@+ @ # $ % % $ $ % % % $ '@d@e@j =.f@g@^@/@h@i@j@k@l@m@n ",
"n@o@p@q@r@s@=.=.=.L t@n u@v@w@x@y@z@A@B@C@c@+ @ # $ % D@E@E@F@G@H@I@J@K@L@i =.f@M@g@N@O@P@Q@R@S@k m ",
"=.=.=.=.=.=.=.=.=.K T@m U@V@W@X@Y@Z@`@ #.#+#+ @ # $ % @#a@##$#%#&#*#=#-#;#+.=.>#,#'#)#!#~#..g h i k ",
"=.=.=.=.=.=.=.=.=.=.{#i ]#^#/#(#_#X@:#<#[#}#+ @ # $ % $#A@B@|#1#2#2#3#4#5#g 6#7#8#9#/+0#` a#..g h h ",
"=.=.=.=.=.=.=.=.=.=.=.N b#c#d#e#f#g#h#i#j#k#l#m## n#o#p#`@ #q#r#s#t#`@u#v#%@,.).%@H+f+/+0#` a#..g h ",
"                            w#x#y#z#j#j#j#j#A#B#C#D#E#E#F#G#H#I#J#K#L#:#M#                          ",
"                              N#f#O#j#j#j#j#j#j#P#Q#R#S#T#U#V#W#X#F#                                ",
"                                  Y#Z#`# $                                                          "};
