/* XPM */
static char * gRealCopperCN_HeadUp_xpm[] = {
"33 26 296 2",
"  	c None",
". 	c #132B56",
"+ 	c #153365",
"@ 	c #183E79",
"# 	c #1B4B8E",
"$ 	c #1D56A1",
"% 	c #1E59A5",
"& 	c #5491BF",
"* 	c #699DC3",
"= 	c #87ADCA",
"- 	c #8AAECA",
"; 	c #89AEC9",
"> 	c #89ADC9",
", 	c #2D4870",
"' 	c #5182B6",
") 	c #88ADC8",
"! 	c #88ACC7",
"~ 	c #87ACC7",
"{ 	c #87ABC7",
"] 	c #86ABC7",
"^ 	c #2D7CB7",
"/ 	c #193D6C",
"( 	c #266CAE",
"_ 	c #2B76B4",
": 	c #2B78B5",
"< 	c #2B78B4",
"[ 	c #2B77B4",
"} 	c #2B77B3",
"| 	c #2B77B2",
"1 	c #183C6B",
"2 	c #1F5BA6",
"3 	c #215EA7",
"4 	c #2363A9",
"5 	c #2363A8",
"6 	c #2363A7",
"7 	c #2362A6",
"8 	c #2362A5",
"9 	c #2361A4",
"0 	c #2360A3",
"a 	c #235FA2",
"b 	c #235FA1",
"c 	c #235EA0",
"d 	c #235E9F",
"e 	c #235D9D",
"f 	c #173666",
"g 	c #21599E",
"h 	c #245997",
"i 	c #235996",
"j 	c #235895",
"k 	c #235894",
"l 	c #235793",
"m 	c #245692",
"n 	c #245691",
"o 	c #245590",
"p 	c #214781",
"q 	c #1F3C73",
"r 	c #2366AB",
"s 	c #2263AA",
"t 	c #2262AA",
"u 	c #2364AB",
"v 	c #2365AB",
"w 	c #163869",
"x 	c #205EA8",
"y 	c #2366AC",
"z 	c #2468AD",
"A 	c #2468AC",
"B 	c #2364AA",
"C 	c #2264AA",
"D 	c #215CA2",
"E 	c #1D376E",
"F 	c #2161A9",
"G 	c #1F5CA7",
"H 	c #205DA7",
"I 	c #163668",
"J 	c #1F5CA6",
"K 	c #215FA7",
"L 	c #2160A8",
"M 	c #205EA6",
"N 	c #205DA6",
"O 	c #215FA6",
"P 	c #205DA5",
"Q 	c #1E57A0",
"R 	c #1D3A75",
"S 	c #2569AC",
"T 	c #2160A9",
"U 	c #205FA8",
"V 	c #2262A9",
"W 	c #163769",
"X 	c #1F5DA7",
"Y 	c #1E58A1",
"Z 	c #1D3C77",
"` 	c #2567AA",
" .	c #205EA7",
"..	c #2264AB",
"+.	c #2467AC",
"@.	c #1F5AA3",
"#.	c #1D3B75",
"$.	c #2567A9",
"%.	c #215DA4",
"&.	c #1E57A1",
"*.	c #215FA8",
"=.	c #1E5AA5",
"-.	c #1D3A74",
";.	c #2566A7",
">.	c #215BA0",
",.	c #1D549D",
"'.	c #2160A7",
").	c #1F5AA5",
"!.	c #2260A7",
"~.	c #205FA7",
"{.	c #205CA7",
"].	c #2162A9",
"^.	c #1E56A0",
"/.	c #1D3972",
"(.	c #2563A5",
"_.	c #225D9F",
":.	c #1E5199",
"<.	c #215BA1",
"[.	c #1F539A",
"}.	c #1F569D",
"|.	c #1F58A0",
"1.	c #1F59A1",
"2.	c #205CA4",
"3.	c #2261A8",
"4.	c #2261A9",
"5.	c #1E58A3",
"6.	c #1D3871",
"7.	c #235B9C",
"8.	c #1E4F95",
"9.	c #20579B",
"0.	c #1F5296",
"a.	c #215EA5",
"b.	c #153568",
"c.	c #1E58A4",
"d.	c #1D3770",
"e.	c #235C9C",
"f.	c #235A99",
"g.	c #1E4D90",
"h.	c #22589A",
"i.	c #205496",
"j.	c #205091",
"k.	c #1F579F",
"l.	c #1D549E",
"m.	c #1D559F",
"n.	c #1D56A2",
"o.	c #1E57A3",
"p.	c #1D376F",
"q.	c #235B9B",
"r.	c #1E4A8C",
"s.	c #215596",
"t.	c #215293",
"u.	c #1F4889",
"v.	c #205599",
"w.	c #1E5097",
"x.	c #1E5198",
"y.	c #1D519A",
"z.	c #1D529B",
"A.	c #1D539D",
"B.	c #153467",
"C.	c #1D57A2",
"D.	c #235491",
"E.	c #1E4889",
"F.	c #215190",
"G.	c #204D8C",
"H.	c #1E4482",
"I.	c #1E4C90",
"J.	c #1E4D92",
"K.	c #1E4D93",
"L.	c #1E4E94",
"M.	c #1E4F96",
"N.	c #1D4E93",
"O.	c #153262",
"P.	c #1D539E",
"Q.	c #1D539C",
"R.	c #1D5199",
"S.	c #1D3971",
"T.	c #235897",
"U.	c #214C87",
"V.	c #1F4A89",
"W.	c #21518F",
"X.	c #214D8A",
"Y.	c #1E407D",
"Z.	c #204D8D",
"`.	c #1E4789",
" +	c #1E488A",
".+	c #1E498C",
"++	c #1E4A8D",
"@+	c #1E4B8F",
"#+	c #1C4686",
"$+	c #142F5D",
"%+	c #122953",
"&+	c #1D56A0",
"*+	c #1D549F",
"=+	c #1D55A0",
"-+	c #1D57A3",
";+	c #1E4F97",
">+	c #1D3870",
",+	c #235795",
"'+	c #214A84",
")+	c #204886",
"!+	c #214E8B",
"~+	c #1F4581",
"{+	c #1E407A",
"]+	c #214C89",
"^+	c #1E4382",
"/+	c #1E4484",
"(+	c #1E4585",
"_+	c #1E4586",
":+	c #1A3D77",
"<+	c #132850",
"[+	c #102143",
"}+	c #122851",
"|+	c #1E549D",
"1+	c #1E5098",
"2+	c #1E4E95",
"3+	c #1E4C91",
"4+	c #1E4A8E",
"5+	c #1E58A5",
"6+	c #235693",
"7+	c #214780",
"8+	c #1F4683",
"9+	c #204984",
"0+	c #1F407B",
"a+	c #20417A",
"b+	c #204782",
"c+	c #1D3F7C",
"d+	c #1D407D",
"e+	c #183467",
"f+	c #112448",
"g+	c #1E488B",
"h+	c #1E4688",
"i+	c #1D3A73",
"j+	c #24558F",
"k+	c #204077",
"l+	c #214984",
"m+	c #214983",
"n+	c #1E3870",
"o+	c #20437B",
"p+	c #20437C",
"q+	c #1C3973",
"r+	c #152C59",
"s+	c #102244",
"t+	c #12274F",
"u+	c #1E4383",
"v+	c #1F3F76",
"w+	c #214A83",
"x+	c #1D366D",
"y+	c #20447B",
"z+	c #1F4279",
"A+	c #1B3366",
"B+	c #13264E",
"C+	c #112449",
"D+	c #153364",
"E+	c #1E529A",
"F+	c #1E4483",
"G+	c #1E4687",
"H+	c #1E417F",
"I+	c #20447C",
"J+	c #20457D",
"K+	c #21457C",
"L+	c #1C3A6D",
"M+	c #102144",
"N+	c #132D59",
"O+	c #1E539B",
"P+	c #1D417F",
"Q+	c #1D3E7A",
"R+	c #1D3E7C",
"S+	c #1D3F7D",
"T+	c #1E407E",
"U+	c #1E4281",
"V+	c #1D3D7A",
"W+	c #1D3C78",
"X+	c #21467E",
"Y+	c #1D376D",
"Z+	c #204279",
"`+	c #1D3E71",
" @	c #12264A",
".@	c #142851",
"+@	c #1C3971",
"@@	c #1C3F7C",
"#@	c #1D4281",
"$@	c #1E3A74",
"%@	c #1E3973",
"&@	c #1D3B76",
"*@	c #1D3D79",
"=@	c #1D3D78",
"-@	c #20437A",
";@	c #1C386B",
">@	c #162A56",
",@	c #1D356B",
"'@	c #1D356C",
")@	c #1D366E",
"!@	c #263E6F",
"~@	c #3C5370",
"{@	c #12254B",
"]@	c #142750",
"                              . + @ # $ % %                       ",
"                              . + @ # $ % %                       ",
"    & * * = - - - - - ; > > > , + @ # $ % % ' ) ! ! ~ { { { ]     ",
"  ^ ^ ^ ^ ^ ^ ^ ^ ^ ^ ^ ^ ^ ^ / + @ # $ % % ( ^ ^ ^ ^ ^ ^ ^ ^ ^   ",
"_ : : < < [ [ [ [ } } } } | | 1 + @ # $ % % ( ^ ^ ^ ^ ^ ^ ^ ^ ^ ^ ",
"2 3 4 5 6 7 8 9 9 0 a b c d e f + @ # $ % % g h i j k l m n o p q ",
"% r s t t t u r r v s t t t t w + @ # $ % % x s s y z A y B C D E ",
"% A F 2 2 2 G H H G 2 2 2 2 2 I + @ # $ % % J K K K L M N O P Q R ",
"% S 2 T U U F L L t t t s s V W + @ # $ % % J X J J G J J U x Y Z ",
"% ` V  .H L F T T T x x L x x W + @ # $ % % x t t C ..v +...x @.#.",
"% $.%.&.v L H G H H G H *.T F W + @ # $ % % U t s t L U X G =.&.-.",
"% ;.>.,.'.).'.'.!.L L L ~. .{.I + @ # $ % % 2  .x U F ].J % % ^./.",
"% (._.:.D <.[.}.|.1.2.P '.3.4.W + @ # $ % % 2 H J 2 % % % % % 5.6.",
"% d 7.8.g 9.0.a.J H 2 2 % % % b.+ @ # $ % % % % % % % % % % % c.d.",
"% e.f.g.h.i.j.k.l.m.$ n.o.c.c.b.+ @ # $ % % % % % % % % % % % 5.p.",
"% q.j r.s.t.u.v.w.x.y.z.A.l.m.B.+ @ # $ % % % % % % % % % C.n.m.d.",
"% f.D.E.F.G.H.s.I.J.K.L.M.w.N.O.+ @ # $ % % c.c.c.% % % % P.Q.R.S.",
"% T.U.V.W.X.Y.Z.`. +.+++@+#+$+%++ @ # $ % % &+l.*+=+n.-+o.:.;+L.>+",
"% ,+'+)+!+~+{+]+^+/+(+_+:+<+[+}++ @ # $ % % |+w.1+:.z.Q.A.2+3+4+>+",
"5+6+7+8+9+0+a+b+c+Y.d+e+f+[+[+}++ @ # $ % % :.I.3+K.L.M.;+4+g+h+i+",
"  j+k+l+m+n+o+p+#.q+r+s+[+[+[+t++ @ # $ % c.@+`. +.+++@+I.E.(+u+Z ",
"    v+w+7+x+y+z+A+B+[+[+[+[+[+C+D+@ # $ % E+^+^+F+(+_+G+`.F+H+Y.  ",
"      I+J+x+K+L+f+[+[+[+[+[+[+M+N+@ # $ O+P+Q+R+S+T+H+U+^+H+V+W+  ",
"        X+Y+Z+`+ @[+[+[+[+[+[+[+.@+@@@#@$@%@-.#.&@W+*@V+R+=@-.    ",
"            -@;@f+[+[+[+[+[+[+[+>@,@,@,@'@x+)@!@~@                ",
"                {@]@                                              "};
