/* XPM */
static char * gRealCopperXO_DownCorner_xpm[] = {
"37 32 174 2",
"  	c None",
". 	c #8E3010",
"+ 	c #A34412",
"@ 	c #BB5B14",
"# 	c #D47614",
"$ 	c #ED9315",
"% 	c #F29915",
"& 	c #8C2F10",
"* 	c #A24312",
"= 	c #BA5A14",
"- 	c #D37414",
"; 	c #EC9215",
"> 	c #8A2E10",
", 	c #A04112",
"' 	c #B85814",
") 	c #D07214",
"! 	c #EA9015",
"~ 	c #882B10",
"{ 	c #9E3E12",
"] 	c #B45414",
"^ 	c #CD6E14",
"/ 	c #E78C15",
"( 	c #852910",
"_ 	c #9A3C12",
": 	c #B15114",
"< 	c #C96A14",
"[ 	c #E28714",
"} 	c #822610",
"| 	c #963812",
"1 	c #AC4C13",
"2 	c #C46414",
"3 	c #DD8114",
"4 	c #F19815",
"5 	c #7E2310",
"6 	c #923411",
"7 	c #A74812",
"8 	c #BE5F14",
"9 	c #D77A14",
"0 	c #EE9415",
"a 	c #7C210F",
"b 	c #A24212",
"c 	c #B85914",
"d 	c #D17314",
"e 	c #EA8F15",
"f 	c #781F0F",
"g 	c #872A10",
"h 	c #9C3D12",
"i 	c #B25214",
"j 	c #F29815",
"k 	c #741C0F",
"l 	c #812610",
"m 	c #953712",
"n 	c #AA4B13",
"o 	c #C16214",
"p 	c #DA7D14",
"q 	c #EF9515",
"r 	c #7B200F",
"s 	c #8E3110",
"t 	c #B95A14",
"u 	c #E88E15",
"v 	c #761E0F",
"w 	c #9B3C12",
"x 	c #B05013",
"y 	c #C66814",
"z 	c #DE8214",
"A 	c #F19715",
"B 	c #721A0F",
"C 	c #802410",
"D 	c #BC5D14",
"E 	c #781E0F",
"F 	c #8A2D10",
"G 	c #9D3E12",
"H 	c #B25213",
"I 	c #C86914",
"J 	c #DF8314",
"K 	c #F09715",
"L 	c #731A0F",
"M 	c #802510",
"N 	c #943611",
"O 	c #BC5C14",
"P 	c #D27414",
"Q 	c #E98E15",
"R 	c #892C10",
"S 	c #9C3E12",
"T 	c #C56614",
"U 	c #DB7E14",
"V 	c #7F2410",
"W 	c #913411",
"X 	c #A44512",
"Y 	c #E38714",
"Z 	c #761C0F",
"` 	c #862A10",
" .	c #983A12",
"..	c #AB4C13",
"+.	c #D37614",
"@.	c #E88D15",
"#.	c #71190F",
"$.	c #7B210F",
"%.	c #9E3F12",
"&.	c #D87B14",
"*.	c #EB9115",
"=.	c #913311",
"-.	c #B45513",
";.	c #C76814",
">.	c #751C0F",
",.	c #842810",
"'.	c #A64612",
").	c #CA6B14",
"!.	c #DC8014",
"~.	c #ED9415",
"{.	c #70180F",
"].	c #973911",
"^.	c #A84813",
"/.	c #79200F",
"(.	c #7A200F",
"_.	c #882C10",
":.	c #973912",
"<.	c #A74712",
"[.	c #B65614",
"}.	c #C66714",
"|.	c #D67814",
"1.	c #E68B15",
"2.	c #B35313",
"3.	c #C26214",
"4.	c #E08414",
"5.	c #72190F",
"6.	c #791F0F",
"7.	c #862910",
"8.	c #933511",
"9.	c #A14112",
"0.	c #AE4F13",
"a.	c #D87A14",
"b.	c #E58A15",
"c.	c #761D0F",
"d.	c #822710",
"e.	c #8F3211",
"f.	c #A84913",
"g.	c #B55514",
"h.	c #CE7014",
"i.	c #DA7E14",
"j.	c #EE9515",
"k.	c #751D0F",
"l.	c #7E230F",
"m.	c #8A2C10",
"n.	c #963811",
"o.	c #A14212",
"p.	c #AD4D13",
"q.	c #C36414",
"r.	c #D97C14",
"s.	c #F09615",
"t.	c #832810",
"u.	c #8E3111",
"v.	c #993A12",
"w.	c #AE4E13",
"x.	c #CA6C14",
"y.	c #D37514",
"z.	c #E28614",
"A.	c #7F240F",
"B.	c #AB4B13",
"C.	c #B35414",
"D.	c #C26314",
"E.	c #D07114",
"F.	c #D57714",
"G.	c #DA7C14",
"H.	c #DE8114",
"I.	c #E18514",
"J.	c #E48915",
"K.	c #A44612",
"L.	c #B75714",
"M.	c #C06014",
"N.	c #963912",
"O.	c #A94A13",
"P.	c #B15214",
"Q.	c #B25314",
". + @ # $ % %                                                             ",
"& * = - ; % %                                                             ",
"> , ' ) ! % %                                                             ",
"~ { ] ^ / % %                                                             ",
"( _ : < [ % %                                                             ",
"} | 1 2 3 4 % %                                                           ",
"5 6 7 8 9 0 % %                                                           ",
"a & b c d e % %                                                           ",
"f g h i < [ j %                                                           ",
"k l m n o p q %                                                           ",
"  r s + t ) u % %                                                         ",
"  v g w x y z A %                                                         ",
"  B C 6 7 D # ! %                                                         ",
"    E F G H I J K %                                                       ",
"    L M N 7 O P Q %                                                       ",
"      E R S x T U q %                                                     ",
"      B V W X ' ^ Y 4 %                                                   ",
"        Z `  ...8 +.@.% %                                                 ",
"        #.$.& %.x 2 &.*.%                                                 ",
"          B C =.* -.;.U $ % %                                             ",
"            >.,.N '.' ).!.~.% %                                           ",
"            {.E ` ].^.' ).!.; % %                                         ",
"              #./.~  .^.' < p ! j % %                                     ",
"                #.(._.:.<.[.}.|.1.K % % % %                               ",
"                  #.(.~ | X 2.3.d 4.; j % % % % % % % % % % % % % % % % % ",
"                    5.6.7.8.9.0.O ).a.b.q % % % % % % % % % % % % % % % % ",
"                        c.d.e.h f.g.3.h.i.1.j.j % % % % % % % % % % % % % ",
"                          k.l.m.n.o.p.' q.h.r.Y *.s.% % % % % % % % % % % ",
"                              $.t.u.v.+ w.' o x.y.U z.Q $ s.4 j % % % % % ",
"                                  A.` e. .* B.C.@ D.< E.F.G.H.I.Y J.b.J.Y ",
"                                      } ~ . | { K...i L.O M.2 ;.< ).x.).< ",
"                                              u.N N.h o.'.O.p.x P.i Q.i P."};
