/* XPM */
static char * gRealCopperCN_TABLE_xpm[] = {
"52 116 372 2",
"  	c None",
". 	c #2D7CB7",
"+ 	c #2E7DB7",
"@ 	c #2F7DB7",
"# 	c #2E7CB7",
"$ 	c #2467AC",
"% 	c #2466AB",
"& 	c #2466AA",
"* 	c #2465AA",
"= 	c #2465A9",
"- 	c #2464A9",
"; 	c #2464A8",
"> 	c #2563A7",
", 	c #2563A6",
"' 	c #2562A6",
") 	c #2562A5",
"! 	c #2561A4",
"~ 	c #2561A3",
"{ 	c #2767A8",
"] 	c #2B76B2",
"^ 	c #2762A3",
"/ 	c #265FA0",
"( 	c #265EA0",
"_ 	c #275FA1",
": 	c #2864A3",
"< 	c #2863A3",
"[ 	c #2863A2",
"} 	c #2862A1",
"| 	c #2862A0",
"1 	c #2861A0",
"2 	c #28619F",
"3 	c #28609F",
"4 	c #285F9E",
"5 	c #1E59A5",
"6 	c #2365AB",
"7 	c #2261A9",
"8 	c #2261A8",
"9 	c #2260A8",
"0 	c #2260A7",
"a 	c #225FA7",
"b 	c #2567AA",
"c 	c #2B77B4",
"d 	c #2462A7",
"e 	c #2462A6",
"f 	c #2565A8",
"g 	c #2565A7",
"h 	c #2564A7",
"i 	c #245295",
"j 	c #233E81",
"k 	c #2262AA",
"l 	c #2364AB",
"m 	c #2466AC",
"n 	c #2C79B5",
"o 	c #2366AC",
"p 	c #2262A9",
"q 	c #205EA8",
"r 	c #205DA7",
"s 	c #205DA6",
"t 	c #1F5AA5",
"u 	c #1E58A4",
"v 	c #20569F",
"w 	c #224083",
"x 	c #266CAE",
"y 	c #1E5AA5",
"z 	c #1F5CA7",
"A 	c #205FA8",
"B 	c #2160A9",
"C 	c #2161A9",
"D 	c #2C79B6",
"E 	c #2468AD",
"F 	c #2160A8",
"G 	c #2263AA",
"H 	c #1F549D",
"I 	c #224084",
"J 	c #2569AC",
"K 	c #205EA7",
"L 	c #1F5BA6",
"M 	c #1F5DA7",
"N 	c #2A76B4",
"O 	c #276EB0",
"P 	c #2060A8",
"Q 	c #234083",
"R 	c #2568AB",
"S 	c #266CAF",
"T 	c #2B77B5",
"U 	c #215FA8",
"V 	c #2162AA",
"W 	c #1E5AA6",
"X 	c #1F539C",
"Y 	c #215EA5",
"Z 	c #1F57A2",
"` 	c #1F5AA6",
" .	c #2162A9",
"..	c #256AAE",
"+.	c #1F539D",
"@.	c #2567A9",
"#.	c #225BA2",
"$.	c #1E549F",
"%.	c #215FA6",
"&.	c #205AA2",
"*.	c #1F57A1",
"=.	c #1F58A2",
"-.	c #205BA5",
";.	c #215DA6",
">.	c #215FA7",
",.	c #2871B1",
"'.	c #234084",
").	c #2666A8",
"!.	c #235AA0",
"~.	c #1F529C",
"{.	c #225DA4",
"].	c #215BA2",
"^.	c #20559D",
"/.	c #2261A7",
"(.	c #2665A7",
"_.	c #23599D",
":.	c #1F5099",
"<.	c #225AA0",
"[.	c #22589E",
"}.	c #22579D",
"|.	c #1E57A3",
"1.	c #1D56A0",
"2.	c #1D5395",
"3.	c #2260A1",
"4.	c #1F539E",
"5.	c #2664A6",
"6.	c #24569A",
"7.	c #204E96",
"8.	c #23589D",
"9.	c #22579C",
"0.	c #225298",
"a.	c #1E539E",
"b.	c #1E55A0",
"c.	c #1E55A1",
"d.	c #1E56A2",
"e.	c #1E56A3",
"f.	c #1B4D91",
"g.	c #183C74",
"h.	c #19417C",
"i.	c #1B4D92",
"j.	c #1F529D",
"k.	c #233F82",
"l.	c #2664A5",
"m.	c #245598",
"n.	c #204D94",
"o.	c #23589C",
"p.	c #235499",
"q.	c #224C92",
"r.	c #21559D",
"s.	c #1F519A",
"t.	c #1F519B",
"u.	c #1E529D",
"v.	c #1E539D",
"w.	c #19417D",
"x.	c #132C58",
"y.	c #163568",
"z.	c #18407C",
"A.	c #1F509A",
"B.	c #233F81",
"C.	c #2662A3",
"D.	c #255698",
"E.	c #214B91",
"F.	c #245699",
"G.	c #235296",
"H.	c #22488D",
"I.	c #23579C",
"J.	c #1F4F97",
"K.	c #1F4F98",
"L.	c #1E4D94",
"M.	c #163669",
"N.	c #102347",
"O.	c #122953",
"P.	c #1E57A4",
"Q.	c #1E58A5",
"R.	c #255C9E",
"S.	c #265697",
"T.	c #214A90",
"U.	c #245194",
"V.	c #234589",
"W.	c #235195",
"X.	c #204B92",
"Y.	c #204C93",
"Z.	c #1E4688",
"`.	c #142D59",
" +	c #102244",
".+	c #102143",
"++	c #122A54",
"@+	c #1E54A0",
"#+	c #1E56A1",
"$+	c #204D95",
"%+	c #255A9C",
"&+	c #254F90",
"*+	c #234D90",
"=+	c #255395",
"-+	c #244C8F",
";+	c #234487",
">+	c #245193",
",+	c #21478D",
"'+	c #21488D",
")+	c #1C3D79",
"!+	c #12274E",
"~+	c #1B4D93",
"{+	c #1F519C",
"]+	c #1E529C",
"^+	c #265A9B",
"/+	c #254D8E",
"(+	c #234C8F",
"_+	c #255192",
":+	c #244789",
"<+	c #244788",
"[+	c #244B8E",
"}+	c #214386",
"|+	c #19356A",
"1+	c #112448",
"2+	c #19407C",
"3+	c #204C94",
"4+	c #21498F",
"5+	c #224184",
"6+	c #244A8C",
"7+	c #244889",
"8+	c #234885",
"9+	c #172D5B",
"0+	c #204F97",
"a+	c #214A91",
"b+	c #214B92",
"c+	c #204B93",
"d+	c #21488E",
"e+	c #244587",
"f+	c #254C8E",
"g+	c #20447D",
"h+	c #13274D",
"i+	c #21488F",
"j+	c #214990",
"k+	c #21478C",
"l+	c #22468B",
"m+	c #22458A",
"n+	c #254E8F",
"o+	c #1E4178",
"p+	c #102144",
"q+	c #224488",
"r+	c #224589",
"s+	c #22468C",
"t+	c #224387",
"u+	c #1E4277",
"v+	c #294684",
"w+	c #294785",
"x+	c #234386",
"y+	c #112245",
"z+	c #122449",
"A+	c #12244A",
"B+	c #13254C",
"C+	c #142852",
"D+	c #142750",
"E+	c #132A56",
"F+	c #132B58",
"G+	c #1D57A3",
"H+	c #132B57",
"I+	c #163366",
"J+	c #183E78",
"K+	c #1B498B",
"L+	c #1D549E",
"M+	c #132B56",
"N+	c #163365",
"O+	c #183D76",
"P+	c #1A4889",
"Q+	c #1C539C",
"R+	c #122A55",
"S+	c #153263",
"T+	c #1A4787",
"U+	c #1C529B",
"V+	c #153161",
"W+	c #173B72",
"X+	c #1A4685",
"Y+	c #1C5199",
"Z+	c #122851",
"`+	c #142F5F",
" @	c #17396F",
".@	c #194481",
"+@	c #1C4F95",
"@@	c #1D58A3",
"#@	c #12274F",
"$@	c #142E5C",
"%@	c #17376C",
"&@	c #19427E",
"*@	c #1D56A2",
"=@	c #12254D",
"-@	c #183F7A",
";@	c #1B4A8D",
">@	c #1D559F",
",@	c #132A55",
"'@	c #153364",
")@	c #183D75",
"!@	c #1A4788",
"~@	c #143060",
"{@	c #173A70",
"]@	c #194482",
"^@	c #11264D",
"/@	c #142E5B",
"(@	c #16376B",
"_@	c #1B4B8E",
":@	c #1D55A0",
"<@	c #11244A",
"[@	c #153365",
"}@	c #1C529A",
"|@	c #14305F",
"1@	c #194380",
"2@	c #1D56A1",
"3@	c #11254C",
"4@	c #132D59",
"5@	c #1A488A",
"6@	c #112348",
"7@	c #173A71",
"8@	c #194381",
"9@	c #1C4D93",
"0@	c #132D5A",
"a@	c #163569",
"b@	c #173970",
"c@	c #19437F",
"d@	c #1B4C90",
"e@	c #11264C",
"f@	c #132C59",
"g@	c #163467",
"h@	c #1C4F96",
"i@	c #112246",
"j@	c #142F5E",
"k@	c #16376C",
"l@	c #18407A",
"m@	c #1A498A",
"n@	c #153262",
"o@	c #19427F",
"p@	c #1C549D",
"q@	c #1E59A4",
"r@	c #102245",
"s@	c #12264D",
"t@	c #153466",
"u@	c #173C73",
"v@	c #122750",
"w@	c #194584",
"x@	c #122952",
"y@	c #142F5D",
"z@	c #16366A",
"A@	c #183D77",
"B@	c #1A4684",
"C@	c #1B4E92",
"D@	c #112449",
"E@	c #14305E",
"F@	c #173B74",
"G@	c #1A498B",
"H@	c #153366",
"I@	c #18407B",
"J@	c #1A4686",
"K@	c #1B4C91",
"L@	c #1D57A2",
"M@	c #153162",
"N@	c #1B4E93",
"O@	c #112247",
"P@	c #183E79",
"Q@	c #1D58A4",
"R@	c #11254B",
"S@	c #183F79",
"T@	c #1A4888",
"U@	c #1B4B8F",
"V@	c #1C549E",
"W@	c #1C559E",
"X@	c #122850",
"Y@	c #17376B",
"Z@	c #1B4A8B",
"`@	c #142D5A",
" #	c #153060",
".#	c #17376D",
"+#	c #183C75",
"@#	c #183E77",
"                                                                                                        ",
"  . + + @ @ @ @ @ @ @ @ @ @ @ @ @ @ @ @ @ @ @ @ @ @ @ @ @ @ # .                                         ",
"  . . . . . . . . . . . . . . . . . . . . . . . . . . . . . . .                                         ",
"$ $ % & * = - ; > , ' ) ! ! ~ { ] ^ / ( _ : : < [ [ } } | 1 2 3 4                                       ",
"5 6 7 7 7 8 8 8 9 0 0 0 0 0 a b c = d d d d e e e f f f f g h i j                                       ",
"5 6 6 k k k l m m 6 k k k k k m n o p q r r r r r r r s t u u v w                                       ",
"5 x y 5 5 5 z z z A B B 7 C B l D E F k F F p 7 7 p p 7 7 G C H I                                       ",
"5 J C l k k B K K K L L L L L M N O A C C C k B B p B B C C P H Q                                       ",
"5 R 0 u k k k k k G k k l k k C S T k q U k k k k k V G G B W X Q                                       ",
"5 b Y Z F ` q U F F U B B  .k k 6 n ..q r L L L r q B B L 5 5 +.Q                                       ",
"5 @.#.$.%.0 &.*.Z =.-.;.>.>.U A A ,.,. .C k C C A r L L W 5 5 +.'.                                      ",
"5 ).!.~.{.].^./.F F K r L L L L L o N z 5 5 5 5 5 5 5 5 5 5 5 ~.Q                                       ",
"5 (._.:.<.[.}.Z |.|.u u 5 5 5 5 1.2.3.t 5 5 5 5 5 5 5 5 5 5 5 4.Q                                       ",
"5 5.6.7.8.9.0.v a.$.b.c.d.e.|.f.g.h.i.|.5 5 5 5 5 5 5 5 5 u u j.k.                                      ",
"5 l.m.n.o.p.q.r.s.t.~.u.v.u.w.x.y.z.i.|.5 5 5 5 5 5 5 5 u c.c.A.B.                                      ",
"5 C.D.E.F.G.H.I.7.7.J.K.L.M.N.O.y.z.i.|.5 5 d.d.|.P.u Q.u a.v.J.k.                                      ",
"5 R.S.T.i U.V.W.E.X.Y.Z.`. +.+++y.z.i.|.5 5 b.a.$.@+c.#+c.t.:.$+Q                                       ",
"5 %+&+*+=+-+;+>+,+'+)+!+.+.+.+++y.z.~+|.5 5 v.A.t.{+]+u.v.J.7.X.Q                                       ",
"  ^+/+(+_+:+<+[+}+|+1+.+.+.+.+++y.2+~+|.5 5 s.$+7.J.K.:.:.3+X.4+5+                                      ",
"    /+6+/+Q 7+8+9+ +.+.+.+.+.+++y.2+~+|.5 5 0+a+b+c+3+n.$+T.4+d+                                        ",
"    e+f+/+k.g+h+.+.+.+.+.+.+.+++y.2+~+|.5 5 n.,+'+i+4+j+a+k+l+m+                                        ",
"        n+k.o+p+.+.+.+.+.+.+.+++y.2+~+|.5 5 b+q+r+m+l+s+,+r+t+t+                                        ",
"          j u+ +.+.+.+.+.+.+.+++y.2+~+|.5 5 4+v+w+x+t+q+r+                                              ",
"              y+z+A+B+B+C+D+B+E+y.2+~+|.5 5                                                             ",
"                              F+y.2+~+|.5 5                                                             ",
"                              F+y.2+~+|.5 5                                                             ",
"                              F+y.2+~+|.5 5                                                             ",
"                              x.y.2+~+|.5 5                                                             ",
"                              x.y.2+~+|.5 5                                                             ",
"                              x.y.2+~+|.5 5                                                             ",
"                              x.y.2+~+|.5 5                                                             ",
"                              x.y.2+~+|.5 5                                                             ",
"                              x.y.2+~+|.5 5                                                             ",
"                              x.y.2+~+|.5 5                                                             ",
"                              x.y.2+~+|.5 5                                                             ",
"                              x.y.2+~+|.5 5                                                             ",
"                              x.y.2+~+|.5 5                                                             ",
"                              x.y.2+~+|.5 5                                                             ",
"                              x.y.2+~+|.5 5                                                             ",
"                              x.y.2+~+|.5 5                                                             ",
"                              x.y.2+~+|.5 5                                                             ",
"                              x.y.2+~+|.5 5                                                             ",
"                              x.y.2+~+|.5 5                                                             ",
"                              x.y.2+~+|.5 5                                                             ",
"                              x.y.2+~+|.5 5                                                             ",
"                              x.y.2+~+|.5 5                                                             ",
"                              x.y.2+~+|.5 5                                                             ",
"                              x.y.2+~+|.5 5                                                             ",
"                              x.y.2+~+|.5 5                                                             ",
"                              x.y.2+~+|.5 5                                                             ",
"                              x.y.2+~+|.5 5                                                             ",
"                              x.y.2+~+|.5 5                                                             ",
"                              x.y.2+~+|.5 5                                                             ",
"                              x.y.2+~+|.5 5                                                             ",
"                              x.y.2+~+|.5 5                                                             ",
"                              x.y.2+~+|.5 5                                                             ",
"                              x.y.2+~+|.5 5                                                             ",
"                              x.y.2+~+|.5 5                                                             ",
"                              x.y.2+~+|.5 5                                                             ",
"                              x.y.2+~+|.5 5                                                             ",
"                              x.y.2+~+|.5 5                                                             ",
"                              x.y.2+~+|.5 5                                                             ",
"                              x.y.2+~+|.5 5                                                             ",
"                              x.y.2+~+|.5 5                                                             ",
"                              x.y.2+~+|.5 5                                                             ",
"                              x.y.2+~+|.5 5                                                             ",
"                              x.y.2+~+|.5 5                                                             ",
"                              x.y.2+~+|.5 5                                                             ",
"                              x.y.2+~+|.5 5                                                             ",
"                              x.y.2+~+|.5 5                                                             ",
"                              x.y.2+~+|.5 5                                                             ",
"                              x.y.2+~+|.5 5                                                             ",
"                              x.y.2+~+|.5 5                                                             ",
"                              x.y.2+~+|.5 5                                                             ",
"                              x.y.2+~+|.5 5                                                             ",
"                              x.y.2+~+|.5 5                                                             ",
"                              x.y.2+~+|.5 5                                                             ",
"                              x.y.2+~+|.5 5                                                             ",
"                              x.y.2+~+|.5 5                                                             ",
"                              x.y.2+~+|.5 5                                                             ",
"                              x.y.2+~+|.5 5                                                             ",
"                              x.y.2+~+|.5 5                                                             ",
"                              x.y.2+~+|.5 5                                                             ",
"                              x.y.2+i.G+5 5                                                             ",
"                              H+I+J+K+L+5 5                                                             ",
"                              M+N+O+P+Q+5 5                                                             ",
"                              R+S+g.T+U+5 5                                                             ",
"                              O.V+W+X+Y+u 5                                                             ",
"                              Z+`+ @.@+@@@5                                                             ",
"                              #@$@%@&@f.*@5 5                                                           ",
"                              =@x.y.-@;@>@5 5                                                           ",
"                                ,@'@)@!@U+5 5                                                           ",
"                                Z+~@{@]@+@@@5                                                           ",
"                                ^@/@(@2+_@:@5                                                           ",
"                                <@M+[@O+T+}@u 5                                                         ",
"                                N.Z+|@ @1@i.2@5                                                         ",
"                                  3@4@y.J+5@Q+u                                                         ",
"                                  6@O.V+7@8@9@2@5                                                       ",
"                                  p+^@0@a@J+P+}@u 5                                                     ",
"                                    6@O.V+b@c@d@:@5                                                     ",
"                                    p+e@f@g@O+X+h@G+5                                                   ",
"                                      i@Z+j@k@l@m@U+u 5                                                 ",
"                                        <@,@n@{@o@_@p@q@5                                               ",
"                                        r@s@f@t@u@]@f.>@5 5                                             ",
"                                          i@v@/@y.O+w@i.>@5 5                                           ",
"                                            6@x@y@z@A@B@C@>@q@5                                         ",
"                                              D@O.E@z@A@w@f.p@u 5 5                                     ",
"                                                <@++`+z@O+]@_@}@G+5 5 5 5                               ",
"                                                  <@O.j@y.F@o@G@h@:@u 5 5 5 5 5                         ",
"                                                    D@x@$@H@7@I@J@K@U+L@5 5 5 5 5 5 5 5 5 5 5 5 5 5 5 5 ",
"                                                      D@v@f@M@%@O+o@P+N@Q+L@q@5 5 5 5 5 5 5 5 5 5 5 5 5 ",
"                                                        O@s@R+j@g@b@P@.@m@N@}@1.Q@5 5 5 5 5 5 5 5 5 5 5 ",
"                                                            R@Z+f@V+a@7@S@1@T@U@+@U+>@G+Q@5 5 5 5 5 5 5 ",
"                                                                !+O.0@V+a@b@O+h.]@!@;@i.h@Y+U+p@V@W@W@V@",
"                                                                    X@++0@~@I+Y@7@)@-@&@]@X+T+P+m@Z@Z@m@",
"                                                                            `@$@ #[@a@.#b@W++#O+@#J+J+@#"};
