/* XPM */
static char * gRealSerialDCE_HeadDown_xpm[] = {
"73 47 287 2",
"  	c None",
". 	c #1979B0",
"+ 	c #1358A4",
"@ 	c #135AA4",
"# 	c #145BA4",
"$ 	c #145CA5",
"% 	c #145EA6",
"& 	c #176EAC",
"* 	c #1978B0",
"= 	c #1257A3",
"- 	c #1359A4",
"; 	c #145BA5",
"> 	c #166BAB",
", 	c #1876AF",
"' 	c #1878AF",
") 	c #1877AF",
"! 	c #1255A2",
"~ 	c #1256A2",
"{ 	c #1256A3",
"] 	c #1668AA",
"^ 	c #1773AE",
"/ 	c #1876AE",
"( 	c #1774AE",
"_ 	c #1875AE",
": 	c #1253A2",
"< 	c #1254A2",
"[ 	c #1258A4",
"} 	c #1465A8",
"| 	c #176FAC",
"1 	c #1770AC",
"2 	c #1873AD",
"3 	c #1251A1",
"4 	c #1252A1",
"5 	c #1152A1",
"6 	c #1462A7",
"7 	c #166BAA",
"8 	c #1772AE",
"9 	c #1878B0",
"0 	c #1250A0",
"a 	c #1153A1",
"b 	c #1566A8",
"c 	c #166AAA",
"d 	c #1567A9",
"e 	c #114EA0",
"f 	c #114FA0",
"g 	c #12519F",
"h 	c #1257A1",
"i 	c #135CA5",
"j 	c #1562A7",
"k 	c #166CAA",
"l 	c #1874AE",
"m 	c #1563A7",
"n 	c #166DAB",
"o 	c #176EAA",
"p 	c #1874AD",
"q 	c #114C9F",
"r 	c #114E9F",
"s 	c #104896",
"t 	c #124E96",
"u 	c #1460A2",
"v 	c #1772AC",
"w 	c #145FA6",
"x 	c #1668A9",
"y 	c #1771AD",
"z 	c #176EAB",
"A 	c #1864A1",
"B 	c #1960A0",
"C 	c #1A62A6",
"D 	c #1A67AA",
"E 	c #196DAC",
"F 	c #1772AD",
"G 	c #1460A6",
"H 	c #114B94",
"I 	c #13589C",
"J 	c #166AA7",
"K 	c #114A9E",
"L 	c #104999",
"M 	c #104490",
"N 	c #1253A1",
"O 	c #135BA4",
"P 	c #1564A8",
"Q 	c #175690",
"R 	c #18427D",
"S 	c #1A4686",
"T 	c #1C4C91",
"U 	c #1C539D",
"V 	c #1E58A4",
"W 	c #1E59A5",
"X 	c #1D5CA6",
"Y 	c #1A70AC",
"Z 	c #1669AA",
"` 	c #125096",
" .	c #104792",
"..	c #0F4492",
"+.	c #0E3C80",
"@.	c #114D96",
"#.	c #1566A6",
"$.	c #166BA9",
"%.	c #166EAA",
"&.	c #1461A7",
"*.	c #176DAA",
"=.	c #16477E",
"-.	c #173A70",
";.	c #18407A",
">.	c #1E5AA5",
",.	c #1258A3",
"'.	c #125A97",
").	c #104590",
"!.	c #145CA0",
"~.	c #166AA9",
"{.	c #166CA9",
"].	c #1771AC",
"^.	c #0F418C",
"/.	c #0C3470",
"(.	c #0E3D7E",
"_.	c #1770AD",
":.	c #154E85",
"<.	c #163466",
"[.	c #1E5BA6",
"}.	c #1977AF",
"|.	c #166CAB",
"1.	c #135BA5",
"2.	c #104E96",
"3.	c #0F4778",
"4.	c #135B9C",
"5.	c #176DAC",
"6.	c #1873AC",
"7.	c #0C346F",
"8.	c #104685",
"9.	c #1669A8",
"0.	c #114C9E",
"a.	c #1666A3",
"b.	c #14315F",
"c.	c #1B6AAA",
"d.	c #104C92",
"e.	c #0C3870",
"f.	c #0E4374",
"g.	c #1563A4",
"h.	c #0E3F7E",
"i.	c #1568A9",
"j.	c #1462A6",
"k.	c #114B9E",
"l.	c #144C82",
"m.	c #142F5C",
"n.	c #1D5FA7",
"o.	c #0E4082",
"p.	c #0C356F",
"q.	c #0E4274",
"r.	c #135E9C",
"s.	c #125597",
"t.	c #1565A8",
"u.	c #12509F",
"v.	c #1772A8",
"w.	c #123562",
"x.	c #1464A8",
"y.	c #0E3E81",
"z.	c #0E4174",
"A.	c #125284",
"B.	c #1566A9",
"C.	c #1567A8",
"D.	c #0D3877",
"E.	c #0E3D82",
"F.	c #114C9A",
"G.	c #12529F",
"H.	c #114C9D",
"I.	c #1770A7",
"J.	c #125680",
"K.	c #122B55",
"L.	c #1872AE",
"M.	c #0E4074",
"N.	c #12527E",
"O.	c #145E96",
"P.	c #1566A7",
"Q.	c #1668A8",
"R.	c #104593",
"S.	c #10489B",
"T.	c #124FA0",
"U.	c #1875AF",
"V.	c #166DA3",
"W.	c #12567F",
"X.	c #12527A",
"Y.	c #122A54",
"Z.	c #0D397A",
"`.	c #12569B",
" +	c #176DAB",
".+	c #166CA2",
"++	c #12547C",
"@+	c #1871AD",
"#+	c #0F4491",
"$+	c #114A9D",
"%+	c #145AA4",
"&+	c #14689D",
"*+	c #11527C",
"=+	c #11517A",
"-+	c #1870AC",
";+	c #14669B",
">+	c #11507A",
",+	c #186EAC",
"'+	c #1358A3",
")+	c #146396",
"!+	c #115079",
"~+	c #124EA0",
"{+	c #145F92",
"]+	c #145DA6",
"^+	c #1668A0",
"/+	c #114F79",
"(+	c #104970",
"_+	c #186CAC",
":+	c #646D7D",
"<+	c #6B7586",
"[+	c #727D90",
"}+	c #788599",
"|+	c #7E8DA3",
"1+	c #8495AD",
"2+	c #8B9DB7",
"3+	c #91A6C1",
"4+	c #97ADCA",
"5+	c #9DB3D0",
"6+	c #A2B9D5",
"7+	c #A8BEDB",
"8+	c #A1B7D4",
"9+	c #94AAC6",
"0+	c #969696",
"a+	c #A0A0A0",
"b+	c #A8A8A8",
"c+	c #B2B2B2",
"d+	c #BBBBBB",
"e+	c #C4C4C4",
"f+	c #CECECE",
"g+	c #D7D7D7",
"h+	c #E0E0E0",
"i+	c #EAEAEA",
"j+	c #F2F2F2",
"k+	c #FCFCFC",
"l+	c #F0F0F0",
"m+	c #DBDBDB",
"n+	c #7C7C7C",
"o+	c #1D1D1D",
"p+	c #2C2C2C",
"q+	c #767676",
"r+	c #636363",
"s+	c #464646",
"t+	c #E2E2E2",
"u+	c #222222",
"v+	c #3E3E3E",
"w+	c #525252",
"x+	c #404040",
"y+	c #ACACAC",
"z+	c #262626",
"A+	c #A3A3A3",
"B+	c #2E2E2E",
"C+	c #818181",
"D+	c #C2C2C2",
"E+	c #1E1E1E",
"F+	c #454545",
"G+	c #656565",
"H+	c #4E4E4E",
"I+	c #080808",
"J+	c #3F3F3F",
"K+	c #949494",
"L+	c #9B9B9B",
"M+	c #A9A9A9",
"N+	c #272727",
"O+	c #D4D4D4",
"P+	c #686868",
"Q+	c #BEBEBE",
"R+	c #2A2A2A",
"S+	c #353535",
"T+	c #878787",
"U+	c #797979",
"V+	c #5F5F5F",
"W+	c #E6E6E6",
"X+	c #3C3C3C",
"Y+	c #546075",
"Z+	c #5A677E",
"`+	c #5F6E88",
" @	c #647691",
".@	c #6A7D9B",
"+@	c #6F86A5",
"@@	c #748DAF",
"#@	c #7A95BA",
"$@	c #7F9CC2",
"%@	c #84A1C7",
"&@	c #88A6CC",
"*@	c #8DAAD0",
"=@	c #87A4CA",
"-@	c #7C9AC0",
"  . . . . . . . . . . . . . . . . . . . . . . . . . . . . . . . . . . . . . . . . . . . . . . . . . . . . . . . . . . . . . . . . . . . . . . .   ",
". . . . . . . . . . . . . . . . . . . . . . . . . . . . . . . . . . . . . . . . . . . . . . . . . . . . . . . . . . . . . . . . . . . . . . . . . ",
"+ @ @ # $ $ $ % % & * * * * * * * * * * * * * * * * * * * * * * * * * * * * * * * * * * * * * * * * * * * * * * * * * * * * * * . . . . . . . . . ",
"= + + - @ @ ; $ $ > , , , , , , , , , , , , , , , , , , , , , , , , , , , , , , , , , , , , , , , , , , , , , , , , , , , , , , ' ) . . . . . . . ",
"! ~ { = + + @ @ # ] ^ / ^ ^ ^ ^ ^ ^ ^ ^ ^ ^ ^ ^ ^ ^ ^ ^ ^ ^ ^ ^ ^ ^ ^ ^ ^ ^ ^ ^ ^ ^ ^ ^ ^ ^ ^ ^ ^ ^ ^ ^ ^ ^ ^ ^ ^ ^ ^ ^ ^ ^ ( ) ( _ . . . . . . . ",
": < < ~ ~ { [ + - } | ^ ( _ _ _ _ _ _ _ _ _ _ _ _ _ _ _ _ _ _ _ _ _ _ _ _ _ _ _ _ _ _ _ _ _ _ _ _ _ _ _ _ _ _ _ _ _ _ _ _ _ , ^ 1 2 . . . . . . . ",
"3 4 5 < < ! ~ ~ = 6 7 & 8 . . . . . . . . . . . . . . . . . . . . . . . . . . . . . . . . . . . . . . . . . . . . . . . . 9 ^ | 7 1 . . . . . . . ",
"0 0 0 4 5 a < < ~ % b c | . . . . . . . . . . . . . . . . . . . . . . . . . . . . . . . . . . . . . . . . . . . . . . . . , | 7 d & . . . . . . . ",
"e e f 0 g h ~ 5 < i j b k . . . . . . . . . . . . . . . . . . . . , _ _ , ) . . . . . . . . . . . . . . . . . . . . . . . l 7 d m n . / o p . . . ",
"q q r s t u v j 3 - w 6 x . . . . . . . . . . . . . . . . . . , y z A B C D E , . . . . . . . . . . . . . . . . . . . . . F d m G > o H I J 9 . . ",
"K K L M t u v * N ~ O w P . . . . . . . . . . . . . . . . . _ z Q R S T U V W X Y . . . . . . . . . . . . . . . . . . . . 1 m G $ Z `  .I J 9 . . ",
"K ..+.@.#.$.%./ + 5 = O &.. . . . . . . . . . . . . . . . * *.=.-.;.S T U V W W >.Y . . . . . . . . . . . . . . . . . . . & w $ ,.'.).!.~.{.].. . ",
"^./.(.7 & | _.%.: e a = % . . . . . . . . . . . . . . . . y :.<.-.;.S T U V W W W [.}.. . . . . . . . . . . . . . . . . . |.1.,.2.3.4.5.& 1 | 6.. ",
"7.7.8.c 7 k 5.9.q 0.f a @ * * * * * * * * * * * * * * * * a.b.<.-.;.S T U V W W W W c.* * * * * * * * * * * * * * * * * * Z ,.d.e.f.g.c k |.& o * ",
"7.7.h.d i.Z c j.K K k.e ~ 9 9 9 9 9 9 9 9 9 9 9 9 9 9 9 9 l.m.<.-.;.S T U V W W W W n.9 9 9 9 9 9 9 9 9 9 9 9 9 9 9 9 9 9 d a o.p.q.r.d ] Z c k , ",
"7.7./.s.t.b t.u.K K K k.N , , , , , , , , , , , , , , , v.w.m.<.-.;.S T U V W W W W W , , , , , , , , , , , , , , , , , , x.f y.7.z.A.j.t.B.C.F l ",
"7.7.D.E.F.G.H.K K K K K 0 , , , , , , , , , , , , , , I.J.K.m.<.-.;.S T U V W W W W W L., , , , , , , , , , , , , , , , , 6 0.+.7.M.N.O.P.Q.| F 8 ",
"R.S.K K K K K K K K K K T.U.U.U.U.U.U.U.U.U.U.U.U.U.V.W.X.Y.m.<.-.;.S T U V W W W W W L.U.U.U.U.U.U.U.U.U.U.U.U.U.U.U.U.U.G K +.Z.`.|. +& & | 1 _.",
"K K K K K K K K K K K K T.l l l l l l l l l l l l .+++X.X.Y.m.<.-.;.S T U V W W W W W @+l l l l l l l l l l l l l l l l l w K #+$+%+c c 7 |. +& & ",
"k.K K K K K K K K K K K T.^ ^ ^ ^ ^ ^ ^ ^ ^ ^ ^ &+*+=+=+=+Y.m.<.-.;.S T U V W W W W W -+^ ^ ^ ^ ^ ^ ^ ^ ^ ^ ^ ^ ^ ^ ^ ^ ^ % K K K - i.Z c c 7 |.|.",
"K K K K K K K K K K K K T.8 8 8 8 8 8 8 8 8 8 ;+=+>+>+>+>+Y.m.<.-.;.S T U V W W W W W ,+8 8 8 8 8 8 8 8 8 8 8 8 8 8 8 8 8 % K K K '+B.d i.] Z c c ",
"                    K K T.F F F F F F F F F )+!+!+!+!+!+!+Y.m.<.-.;.S T U V W W W W W ,+F F F F F F F F F F F F F F F F F % K K K                 ",
"                      K ~+_._._._._._._._.{+!+!+!+!+!+!+!+Y.m.<.-.;.S T U V W W W W W ,+_._._._._._._._._._._._._._._._._.]+K                     ",
"                          _._._._._._._.^+/+/+/+/+/+/+/+(+Y.m.<.-.;.S T U V W W W W W _+_._._._._._._._._._._._._._._._._.]+                      ",
"                                                          Y.m.<.-.;.S T U V W W W W W                                                             ",
"                                                          Y.m.<.-.;.S T U V W W W W W                                                             ",
"                                                          Y.m.<.-.;.S T U V W W W W W                                                             ",
"                                                          Y.m.<.-.;.S T U V W W W W W                                                             ",
"                                                          Y.m.<.-.;.S T U V W W W W W                                                             ",
"                                                          Y.m.<.-.;.S T U V W W W W W                                                             ",
"                                                          Y.m.<.-.;.S T U V W W W W W                                                             ",
"                                                          Y.m.<.-.;.S T U V W W W W W                                                             ",
"                                                          :+<+[+}+|+1+2+3+4+5+6+7+8+9+                                                            ",
"                                                          0+a+b+c+d+e+f+g+h+i+j+k+l+m+                                                            ",
"                                                          0+a+b+c+d+e+f+g+h+i+j+k+l+m+                                                            ",
"                                                          0+n+o+p+q+e+r+p+s+t+u+v+w+m+                                                            ",
"                                                          0+q+x+y+z+A+B+g+C+D+E+k+l+m+                                                            ",
"                                                          0+q+x+c+F+G+H+g+h+i+I+J+K+m+                                                            ",
"                                                          0+q+x+L+o+M+N+O+P+Q+E+k+l+m+                                                            ",
"                                                          0+C+R+S+T+e+U+B+V+W+X+J+X+m+                                                            ",
"                                                          0+a+b+c+d+e+f+g+h+i+j+k+l+m+                                                            ",
"                                                          0+a+b+c+d+e+f+g+h+i+j+k+l+m+                                                            ",
"                                                          Y+Z+`+ @.@+@@@#@$@%@&@*@=@-@                                                            ",
"                                                          Y.m.<.-.;.S T U V W W W W W                                                             ",
"                                                          Y.m.<.-.;.S T U V W W W W W                                                             ",
"                                                          Y.m.<.-.;.S T U V W W W W W                                                             ",
"                                                          Y.m.<.-.;.S T U V W W W W W                                                             "};
