/* XPM */
static char * gRealSerialDCE_Vert_xpm[] = {
"73 21 10 1",
" 	c None",
".	c #122852",
"+	c #142E5A",
"@	c #163465",
"#	c #173A70",
"$	c #19407C",
"%	c #1A4888",
"&	c #1C4E94",
"*	c #1D56A1",
"=	c #1E59A5",
"                             .+@#$%&*======                              ",
"                             .+@#$%&*======                              ",
"                             .+@#$%&*======                              ",
"                             .+@#$%&*======                              ",
"                             .+@#$%&*======                              ",
"                             .+@#$%&*======                              ",
"                             .+@#$%&*======                              ",
"                             .+@#$%&*======                              ",
"                             .+@#$%&*======                              ",
"                             .+@#$%&*======                              ",
"                             .+@#$%&*======                              ",
"                             .+@#$%&*======                              ",
"                             .+@#$%&*======                              ",
"                             .+@#$%&*======                              ",
"                             .+@#$%&*======                              ",
"                             .+@#$%&*======                              ",
"                             .+@#$%&*======                              ",
"                             .+@#$%&*======                              ",
"                             .+@#$%&*======                              ",
"                             .+@#$%&*======                              ",
"                             .+@#$%&*======                              "};
