/* XPM */
static char * gRealCopperST_DownCorner_xpm[] = {
"37 32 129 2",
"  	c None",
". 	c #406E24",
"+ 	c #497B28",
"@ 	c #52882A",
"# 	c #5C962C",
"$ 	c #66A42E",
"% 	c #69A82E",
"& 	c #487A28",
"* 	c #5C952C",
"= 	c #3F6D24",
"- 	c #487927",
"; 	c #508629",
"> 	c #5B942C",
", 	c #65A32E",
"' 	c #3E6C24",
") 	c #467826",
"! 	c #508529",
"~ 	c #59922B",
"{ 	c #64A12E",
"] 	c #3C6A24",
"^ 	c #457626",
"/ 	c #4E8228",
"( 	c #58902A",
"_ 	c #629E2D",
": 	c #3B6823",
"< 	c #447426",
"[ 	c #4C8028",
"} 	c #568E2A",
"| 	c #609C2C",
"1 	c #68A72E",
"2 	c #3A6522",
"3 	c #427125",
"4 	c #4A7D28",
"5 	c #548A2A",
"6 	c #5E982C",
"7 	c #67A52E",
"8 	c #386422",
"9 	c #487A27",
"0 	c #51872A",
"a 	c #65A22E",
"b 	c #366222",
"c 	c #3E6B24",
"d 	c #467726",
"e 	c #4E8328",
"f 	c #58902B",
"g 	c #68A82E",
"h 	c #356021",
"i 	c #3B6723",
"j 	c #447326",
"k 	c #4C7F28",
"l 	c #558C2A",
"m 	c #5E9A2C",
"n 	c #67A62E",
"o 	c #386322",
"p 	c #406F25",
"q 	c #487B27",
"r 	c #52872A",
"s 	c #5A942C",
"t 	c #64A22E",
"u 	c #366122",
"v 	c #3D6B24",
"w 	c #467626",
"x 	c #578F2A",
"y 	c #345E21",
"z 	c #3A6623",
"A 	c #427225",
"B 	c #538A2A",
"C 	c #66A32E",
"D 	c #4E8428",
"E 	c #57902B",
"F 	c #619C2C",
"G 	c #437225",
"H 	c #4A7E28",
"I 	c #53892A",
"J 	c #5B952C",
"K 	c #5F9A2C",
"L 	c #497C28",
"M 	c #518729",
"N 	c #5A922B",
"O 	c #629F2D",
"P 	c #366022",
"Q 	c #3D6A24",
"R 	c #447526",
"S 	c #64A22D",
"T 	c #335D21",
"U 	c #477827",
"V 	c #568D2A",
"W 	c #427025",
"X 	c #578F2B",
"Y 	c #3C6823",
"Z 	c #437226",
"` 	c #4A7C28",
" .	c #58912B",
"..	c #609B2C",
"+.	c #376222",
"@.	c #335E21",
"#.	c #376322",
"$.	c #568F2B",
"%.	c #5D982C",
"&.	c #64A02D",
"*.	c #68A62E",
"=.	c #497C27",
"-.	c #4E8429",
";.	c #548C2A",
">.	c #619D2D",
",.	c #4D8128",
"'.	c #52892A",
").	c #63A02D",
"!.	c #417025",
"~.	c #5A932B",
"{.	c #366021",
"].	c #396623",
"^.	c #437326",
"/.	c #518629",
"(.	c #5A932C",
"_.	c #5E992C",
":.	c #3C6923",
"<.	c #457526",
"[.	c #497B27",
"}.	c #4D8028",
"|.	c #4F8429",
"1.	c #5C972C",
"2.	c #629E2C",
"3.	c #639F2E",
"4.	c #63A02E",
"5.	c #548B2A",
"6.	c #58922B",
"7.	c #4B7E28",
"8.	c #4D8228",
". + @ # $ % %                                                             ",
". & @ * $ % %                                                             ",
"= - ; > , % %                                                             ",
"' ) ! ~ { % %                                                             ",
"] ^ / ( _ % %                                                             ",
": < [ } | 1 % %                                                           ",
"2 3 4 5 6 7 % %                                                           ",
"8 . 9 0 > a % %                                                           ",
"b c d e f _ g %                                                           ",
"h i j k l m n %                                                           ",
"  o p q r s t % %                                                         ",
"  u v w / x | 1 %                                                         ",
"  y z A 4 B # C %                                                         ",
"    u ' ) D E F 1 %                                                       ",
"    y i G H I J a %                                                       ",
"      u ' d / } K n %                                                     ",
"      y z 3 L M N O 1 %                                                   ",
"        P Q R [ 5 # S % %                                                 ",
"        T o . U / V 6 $ %                                                 ",
"          y z W 9 ! X K $ % %                                             ",
"            h Y Z ` ;  ...7 % %                                           ",
"            T u Q < 4 M  ...$ % %                                         ",
"              T +.' R 4 M f K , % % %                                     ",
"                @.#.' < 4 ; $.%.&.*.% % % %                               ",
"                  @.#.c < =.-.;.J >.$ % % % % % % % % % % % % % % % % % % ",
"                    y +.Q A 9 ,.'. .6 ).n % % % % % % % % % % % % % % % % ",
"                        u : !.w H ! l ~.K &.n g % % % % % % % % % % % % % ",
"                          {.].' ^.9 [ /.V (._.O $ *.g % % % % % % % % % % ",
"                              8 :.p <.[.}.; ;. .# K _ a $ *.1 g % % % % % ",
"                                  z Q !.<.9 k |.@ l ( s 1.m | 2.O 3.4.3.O ",
"                                      Y ' p j ) ` k e ; '.5.V x (  .6. .( ",
"                                              p ^.< d 9 ` 7.[ 8.e D D D e "};
