/* XPM */
static char * gRealSerial_HeadUp_xpm[] = {
"73 26 251 2",
"  	c None",
". 	c #122953",
"+ 	c #153160",
"@ 	c #183C74",
"# 	c #1A4889",
"$ 	c #1D559F",
"% 	c #1E59A5",
"& 	c #1979B0",
"* 	c #155081",
"= 	c #173C74",
"- 	c #1C64A9",
"; 	c #165182",
"> 	c #1C65A9",
", 	c #135BA5",
"' 	c #135CA5",
") 	c #145DA5",
"! 	c #145EA6",
"~ 	c #145FA6",
"{ 	c #1460A7",
"] 	c #176FAC",
"^ 	c #155181",
"/ 	c #1357A3",
"( 	c #1358A4",
"_ 	c #1359A4",
": 	c #135AA4",
"< 	c #135BA4",
"[ 	c #145BA5",
"} 	c #145CA5",
"| 	c #166CAB",
"1 	c #1877AF",
"2 	c #1876AF",
"3 	c #154F81",
"4 	c #153060",
"5 	c #1878AF",
"6 	c #1255A2",
"7 	c #1256A2",
"8 	c #1257A3",
"9 	c #1669AA",
"0 	c #1773AE",
"a 	c #1774AE",
"b 	c #154E80",
"c 	c #183B74",
"d 	c #1B63A8",
"e 	c #1875AE",
"f 	c #1254A2",
"g 	c #1256A3",
"h 	c #1565A8",
"i 	c #1770AC",
"j 	c #1874AE",
"k 	c #154E81",
"l 	c #143160",
"m 	c #1873AD",
"n 	c #1251A1",
"o 	c #1152A1",
"p 	c #1153A1",
"q 	c #1462A7",
"r 	c #166BAA",
"s 	c #165181",
"t 	c #1978B0",
"u 	c #166CAA",
"v 	c #1771AD",
"w 	c #1250A0",
"x 	c #1567A9",
"y 	c #155182",
"z 	c #1568A9",
"A 	c #114EA0",
"B 	c #114FA0",
"C 	c #1251A0",
"D 	c #1255A1",
"E 	c #1563A7",
"F 	c #143060",
"G 	c #1564A8",
"H 	c #176DAB",
"I 	c #1977AF",
"J 	c #1873AC",
"K 	c #1876AE",
"L 	c #114C9F",
"M 	c #114D9F",
"N 	c #114E9F",
"O 	c #104A99",
"P 	c #124F98",
"Q 	c #1460A1",
"R 	c #1460A6",
"S 	c #1669A9",
"T 	c #1772AD",
"U 	c #166BAB",
"V 	c #1872AC",
"W 	c #13559A",
"X 	c #135A9E",
"Y 	c #166BA8",
"Z 	c #114B9E",
"` 	c #114B9F",
" .	c #104A9B",
"..	c #104490",
"+.	c #114F97",
"@.	c #1461A2",
"#.	c #1252A1",
"$.	c #144C80",
"%.	c #13569B",
"&.	c #114792",
"*.	c #13589C",
"=.	c #166AA7",
"-.	c #1978AF",
";.	c #114A9E",
">.	c #104798",
",.	c #0E3F86",
"'.	c #114893",
").	c #145EA0",
"!.	c #1567A6",
"~.	c #166EAA",
"{.	c #1358A3",
"].	c #1253A1",
"^.	c #176EAC",
"/.	c #1C559F",
"(.	c #1B62A8",
"_.	c #14609E",
":.	c #104790",
"<.	c #12539A",
"[.	c #1564A4",
"}.	c #1669A7",
"|.	c #1874AD",
"1.	c #104595",
"2.	c #0D3776",
"3.	c #0E3C7E",
"4.	c #1565A6",
"5.	c #1770AD",
"6.	c #176FAB",
"7.	c #1355A2",
"8.	c #1150A0",
"9.	c #1873AE",
"0.	c #176CAA",
"a.	c #144779",
"b.	c #1875AF",
"c.	c #176CAB",
"d.	c #11529C",
"e.	c #104B7F",
"f.	c #125398",
"g.	c #166EAB",
"h.	c #0C3674",
"i.	c #0C346F",
"j.	c #0F4482",
"k.	c #166AA9",
"l.	c #124FA0",
"m.	c #135B91",
"n.	c #113A66",
"o.	c #173B74",
"p.	c #1B61A8",
"q.	c #176FAD",
"r.	c #166AAA",
"s.	c #11519A",
"t.	c #0D3D79",
"u.	c #0F4475",
"v.	c #1462A1",
"w.	c #0F4483",
"x.	c #1565A7",
"y.	c #1258A3",
"z.	c #1669A8",
"A.	c #12588E",
"B.	c #104B77",
"C.	c #113A65",
"D.	c #1668A9",
"E.	c #0E4284",
"F.	c #0C366F",
"G.	c #0E4274",
"H.	c #166DAA",
"I.	c #0D3773",
"J.	c #145FA1",
"K.	c #1566A8",
"L.	c #1357A2",
"M.	c #1875AD",
"N.	c #11568C",
"O.	c #104977",
"P.	c #113965",
"Q.	c #1B60A7",
"R.	c #1150A1",
"S.	c #0E3F81",
"T.	c #0F4174",
"U.	c #12568E",
"V.	c #1566A9",
"W.	c #0C3571",
"X.	c #0E3E7E",
"Y.	c #12559D",
"Z.	c #145BA3",
"`.	c #1254A0",
" +	c #135F8E",
".+	c #0F4976",
"++	c #0F4876",
"@+	c #176EAB",
"#+	c #1463A8",
"$+	c #0E3C81",
"%+	c #114F7B",
"&+	c #135A95",
"*+	c #1562A6",
"=+	c #1564A7",
"-+	c #0F4089",
";+	c #104492",
">+	c #10489A",
",+	c #145F8D",
"'+	c #12537B",
")+	c #104C77",
"!+	c #104776",
"~+	c #104876",
"{+	c #0E3C80",
"]+	c #0C3572",
"^+	c #104C89",
"/+	c #15649D",
"(+	c #1773AC",
"_+	c #135B88",
":+	c #12527A",
"<+	c #115079",
"[+	c #104775",
"}+	c #103D6A",
"|+	c #1963A8",
"1+	c #0E3E85",
"2+	c #104593",
"3+	c #145AA4",
"4+	c #1770A9",
"5+	c #135A87",
"6+	c #11517A",
"7+	c #0F4675",
"8+	c #0F4573",
"9+	c #143363",
"0+	c #1D5BA5",
"a+	c #166EAC",
"b+	c #1772AE",
"c+	c #1670A9",
"d+	c #125884",
"e+	c #104C78",
"f+	c #113F6F",
"g+	c #173D76",
"h+	c #1D5AA5",
"i+	c #1764A8",
"j+	c #166DAB",
"k+	c #166EA6",
"l+	c #125682",
"m+	c #114F79",
"n+	c #125789",
"o+	c #165F9F",
"p+	c #17599B",
"q+	c #1862A5",
"r+	c #176AAA",
"s+	c #166DA6",
"t+	c #125581",
"u+	c #125784",
"v+	c #145DA6",
"w+	c #166CA6",
"x+	c #11527E",
"y+	c #104C74",
"z+	c #104B73",
"A+	c #114E78",
"B+	c #166DA8",
"                                                                . + @ # $ % % %                                                                   ",
"                                                                . + @ # $ % % %                                                                   ",
"  & & & & & & & & & & & & & & & & & & & & & & & & & & & & & & & * + = # $ % % - & & & & & & & & & & & & & & & & & & & & & & & & & & & & & & & &   ",
"& & & & & & & & & & & & & & & & & & & & & & & & & & & & & & & & ; + @ # $ % % > & & & & & & & & & & & & & & & & & & & & & & & & & & & & & & & & & ",
", ' ' ) ! ~ ~ { { ] & & & & & & & & & & & & & & & & & & & & & & ^ + @ # $ % % > & & & & & & & & & & & & & & & & & & & & & & & & & & & & & & & & & ",
"/ ( ( _ : < [ } ) | 1 2 2 2 2 2 2 2 2 2 2 2 2 2 2 2 2 2 2 2 2 2 3 4 @ # $ % % - 2 2 2 2 2 2 2 2 2 2 2 2 2 2 2 2 2 2 2 2 2 2 2 2 5 1 & & & & & & & ",
"6 7 8 / ( _ : : [ 9 0 2 a 0 0 0 0 0 0 0 0 0 0 0 0 0 0 0 0 0 0 0 b + c # $ % % d 0 0 0 0 0 0 0 0 0 0 0 0 0 0 0 0 0 0 0 0 0 0 a 1 a e & & & & & & & ",
"f f 6 7 g 8 ( ( _ h i 0 a j j j j j j j j j j j j j j j j j j j k l @ # $ % % d j j j j j j j j j j j j j j j j j j j j j j 2 a i m & & & & & & & ",
"n o p f 6 6 7 8 / q r ] 0 & & & & & & & & & & & & & & & & & & & s l @ # $ % % > & & & & & & & & & & & & & & & & & & & & & t a i u v & & & & & & & ",
"w w n o o p f 6 7 ~ x r i & & & & & & & & & & & & & & & & & & & y l = # $ % % > & & & & & & & & & & & & & & & & & & & & & 2 i u z ] & & & & & & & ",
"A B B w C D f p f ' E x | & & & & & & & & & & & & & & & & & & & ; F @ # $ % % > & & & & & & & & & & & & & & & & & & & & & j | z G H & I J K & & & ",
"L M N O P Q u } o _ R E S & & & & & & & & & & & & & & & & & & 1 k l @ # $ % % > & & & & & & & & & & & & & & & & & & & & & T z G R U V W X Y t & & ",
"Z `  ...+.@.T e #.7 ' R h & & & & & & & & & & & & & & & & & 1 i $.F = # $ % % d 1 & & & & & & & & & & & & & & & & & & & & i G R ) 9 %.&.*.=.-.& & ",
";.>.,.'.).!.~.-.{.].{.} q & & & & & & & & & & & & & & & & t ] ^.$.l @ # /.% % (.0 & & & & & & & & & & & & & & & & & & & & ^.R ) _ _.:.<.[.}.|.& & ",
"1.2.3.4.] 5.i 6.7.8.f {.~ & & & & & & & & & & & & & & & & 9.| 0.a.F c # $ % % (.v b.& & & & & & & & & & & & & & & & & & & c.} _ d.e.f.H ] 5.g.e & ",
"h.i.j.r | H ^.k.l.L 8.f ' & & & & & & & & & & & & & & & & H k.m.n.F o.# /.% % p.q.T & & & & & & & & & & & & & & & & & & & r._ s.t.u.v.r | H ] 6.t ",
"i.i.w.z 9 r.r x.;.;.L 8.y.t t t t t t t t t t t t t t t t z.A.B.C.l @ # $ % % p.^.] t t t t t t t t t t t t t t t t t t t D.6 E.F.G.Q z 9 r.U H.2 ",
"i.i.I.J.K.x x L.;.;.;.L f 2 2 2 2 2 2 2 2 2 2 2 2 2 2 2 M.N.O.O.P.l @ # $ % % Q.H ^.2 2 2 2 2 2 2 2 2 2 2 2 2 2 2 2 2 2 2 h R.S.i.T.U.h V.x z i b.",
"i.i.W.X.Y.Z.`.;.;.;.;.;.n 2 2 2 2 2 2 2 2 2 2 2 2 2 2 |. +.+++++P.l @ # $ % % Q.U @+2 2 2 2 2 2 2 2 2 2 2 2 2 2 2 2 2 2 2 #+M $+i.T.%+&+*+=+u T 0 ",
"$+-+;+>+;.;.;.;.;.;.;.;.l.b.b.b.b.b.b.b.b.b.b.b.b.b.J ,+'+)+!+~+P.F @ # $ % % Q.r.] b.b.b.b.b.b.b.b.b.b.b.b.b.b.b.b.b.b.b.{ ;.{+]+^+/+0.^.] 5.5.v ",
";.;.;.;.;.;.;.;.;.;.;.;.l.b.b.b.b.b.b.b.b.b.b.b.b.(+_+:+:+<+[+[+}+l @ # $ % % |+9 0 b.b.b.b.b.b.b.b.b.b.b.b.b.b.b.b.b.b.b.~ ;.1+2+3+r U | H ^.^.] ",
";.;.;.;.;.;.;.;.;.;.;.;.B 0 0 0 0 0 0 0 0 0 0 0 4+5+6+6+6+6+)+7+8+9+o.# /.% 0+x a+0 0 0 0 0 0 0 0 0 0 0 0 0 0 0 0 0 0 0 0 ~ ;.;.;._ 9 9 r.r | H H ",
"Z ;.;.;.;.;.;.;.;.;.;.;.B b+b+b+b+b+b+b+b+b+b+c+d+6+6+6+6+6+6+e+7+f+g+# /.h+i+j+b+b+b+b+b+b+b+b+b+b+b+b+b+b+b+b+b+b+b+b+b+! ;.;.;.{.x z z 9 r.r r ",
"                    ;.;.l.T T T T T T T T T k+l+<+<+<+<+<+<+<+<+m+n+o+p+q+r+i T T T T T T T T T T T T T T T T T T T T T T ! ;.;.;.                ",
"                      ;.B v v v v v v v v s+t+<+<+<+<+<+<+<+<+<+u+6.v v v v v v v v v v v v v v v v v v v v v v v v v v v v+;.;.                  ",
"                        n 5.5.5.5.5.5.5.w+x+m+m+m+m+m+m+y+z+z+A+B+5.5.5.5.5.5.5.5.5.5.5.5.5.5.5.5.5.5.5.5.5.5.5.5.5.5.5.5.)                       "};
