/* XPM */
static char * gRealCopperST_HeadUp_xpm[] = {
"33 26 275 2",
"  	c None",
". 	c #3F6D24",
"+ 	c #477927",
"@ 	c #528829",
"# 	c #5D972C",
"$ 	c #67A52E",
"% 	c #69A82E",
"& 	c #88C449",
"* 	c #95C860",
"= 	c #A8CD80",
"- 	c #A9CC83",
"; 	c #A9CC82",
"> 	c #568339",
", 	c #87B955",
"' 	c #A8CB81",
") 	c #A7CB80",
"! 	c #A7CA80",
"~ 	c #A6CA7E",
"{ 	c #70BD1F",
"] 	c #4A8023",
"^ 	c #6DB326",
"/ 	c #6FB921",
"( 	c #6FBA20",
"_ 	c #6EBA20",
": 	c #6EB920",
"< 	c #6EB820",
"[ 	c #6DB820",
"} 	c #6DB720",
"| 	c #6CB720",
"1 	c #497E23",
"2 	c #69A92D",
"3 	c #68AA2B",
"4 	c #69AC28",
"5 	c #68AB28",
"6 	c #67A928",
"7 	c #66A828",
"8 	c #65A727",
"9 	c #64A527",
"0 	c #63A427",
"a 	c #63A327",
"b 	c #62A227",
"c 	c #60A026",
"d 	c #609F26",
"e 	c #5F9E26",
"f 	c #5E9C25",
"g 	c #467825",
"h 	c #609E28",
"i 	c #589423",
"j 	c #579323",
"k 	c #569223",
"l 	c #559123",
"m 	c #558F22",
"n 	c #548E22",
"o 	c #538D22",
"p 	c #528C22",
"q 	c #457822",
"r 	c #396721",
"s 	c #6BAF28",
"t 	c #6BAE29",
"u 	c #6BAE2A",
"v 	c #6BAD2A",
"w 	c #6BAF29",
"x 	c #497C26",
"y 	c #6AAB2B",
"z 	c #6AAE29",
"A 	c #6BB028",
"B 	c #6BB027",
"C 	c #6AAD29",
"D 	c #64A329",
"E 	c #366122",
"F 	c #6AAD2A",
"G 	c #6AAA2D",
"H 	c #6AAA2C",
"I 	c #487B26",
"J 	c #69A92C",
"K 	c #68A92B",
"L 	c #68A92A",
"M 	c #68AA2A",
"N 	c #68A82B",
"O 	c #67A82B",
"P 	c #67A92A",
"Q 	c #67A72B",
"R 	c #63A12C",
"S 	c #3C6923",
"T 	c #6AAF26",
"U 	c #6AAC2B",
"V 	c #69AA2C",
"W 	c #65A32C",
"X 	c #3D6B24",
"Y 	c #69AD26",
"Z 	c #6AAC29",
"` 	c #6AAB2C",
" .	c #66A62C",
"..	c #3C6A23",
"+.	c #67AB25",
"@.	c #65A52A",
"#.	c #65A22D",
"$.	c #6AAE28",
"%.	c #65A32D",
"&.	c #3B6823",
"*.	c #66A925",
"=.	c #61A029",
"-.	c #609C2C",
";.	c #67A72C",
">.	c #68AA29",
",.	c #69AA2A",
"'.	c #69AB2A",
").	c #69AB2B",
"!.	c #497B26",
"~.	c #69AA2D",
"{.	c #396623",
"].	c #63A625",
"^.	c #5F9E27",
"/.	c #5C972C",
"(.	c #63A229",
"_.	c #62A129",
":.	c #5D982B",
"<.	c #609C2B",
"[.	c #629F2B",
"}.	c #63A12B",
"|.	c #66A52A",
"1.	c #67A72A",
"2.	c #6AAC2A",
"3.	c #67A62E",
"4.	c #386422",
"5.	c #5F9F26",
"6.	c #5C9B26",
"7.	c #58912B",
"8.	c #5F9C29",
"9.	c #5D9929",
"0.	c #599329",
"a.	c #66A62A",
"b.	c #68A82C",
"c.	c #487B27",
"d.	c #68A72E",
"e.	c #376322",
"f.	c #5D9C25",
"g.	c #599625",
"h.	c #548B2A",
"i.	c #5B9827",
"j.	c #589328",
"k.	c #548C28",
"l.	c #619E2B",
"m.	c #629E2D",
"n.	c #63A02D",
"o.	c #65A12E",
"p.	c #66A32E",
"q.	c #68A62E",
"r.	c #5B9925",
"s.	c #569224",
"t.	c #508629",
"u.	c #579227",
"v.	c #558F27",
"w.	c #4D8227",
"x.	c #5B9729",
"y.	c #5B942C",
"z.	c #5C962C",
"A.	c #5E982C",
"B.	c #5F9A2C",
"C.	c #609C2D",
"D.	c #467826",
"E.	c #66A42E",
"F.	c #65A32E",
"G.	c #639F2D",
"H.	c #5A9624",
"I.	c #528D23",
"J.	c #4D8228",
"K.	c #538B26",
"L.	c #508726",
"M.	c #487926",
"N.	c #589327",
"O.	c #558D2A",
"P.	c #578F2B",
"Q.	c #58902B",
"R.	c #59922B",
"S.	c #457626",
"T.	c #3D6C24",
"U.	c #69A72E",
"V.	c #619D2D",
"W.	c #609B2D",
"X.	c #396522",
"Y.	c #589424",
"Z.	c #4B8123",
"`.	c #4D8226",
" +	c #518925",
".+	c #4E8425",
"++	c #437425",
"@+	c #4E8228",
"#+	c #4F8429",
"$+	c #528729",
"%+	c #335D21",
"&+	c #3C6A24",
"*+	c #64A12D",
"=+	c #66A52E",
"-+	c #5A932B",
";+	c #386322",
">+	c #477C22",
",+	c #4B7F25",
"'+	c #4E8524",
")+	c #467924",
"!+	c #407023",
"~+	c #4C8224",
"{+	c #487A27",
"]+	c #497C27",
"^+	c #4A7D28",
"/+	c #447526",
"(+	c #376222",
"_+	c #5A942B",
":+	c #5E992C",
"<+	c #609B2C",
"[+	c #619C2D",
"}+	c #558C2A",
"|+	c #52882A",
"1+	c #548F23",
"2+	c #447721",
"3+	c #477B24",
"4+	c #487D23",
"5+	c #417123",
"6+	c #3F7021",
"7+	c #477A23",
"8+	c #427225",
"9+	c #437225",
"0+	c #3D6A24",
"a+	c #345E21",
"b+	c #3C6924",
"c+	c #568E2B",
"d+	c #53892A",
"e+	c #4D8128",
"f+	c #3A6723",
"g+	c #508B21",
"h+	c #3C6C20",
"i+	c #477B22",
"j+	c #407121",
"k+	c #417321",
"l+	c #3B6723",
"m+	c #4F8329",
"n+	c #508529",
"o+	c #518729",
"p+	c #52892A",
"q+	c #548A2A",
"r+	c #4E8329",
"s+	c #3B6B20",
"t+	c #447821",
"u+	c #345F21",
"v+	c #407220",
"w+	c #3C6B20",
"x+	c #355F21",
"y+	c #467827",
"z+	c #487927",
"A+	c #497B27",
"B+	c #4B7E28",
"C+	c #4C8028",
"D+	c #447326",
"E+	c #427421",
"F+	c #407320",
"G+	c #427125",
"H+	c #417025",
"I+	c #437325",
"J+	c #447426",
"K+	c #406F25",
"L+	c #427521",
"M+	c #356021",
"N+	c #3E6F20",
"O+	c #355F22",
"P+	c #477826",
"Q+	c #477926",
"R+	c #3C6823",
"S+	c #3A6623",
"T+	c #3E6C24",
"U+	c #406E24",
"V+	c #3F6E24",
"W+	c #3F7020",
"X+	c #366022",
"Y+	c #3E6725",
"Z+	c #53792D",
"                              . + @ # $ % %                       ",
"                              . + @ # $ % %                       ",
"    & * * = - ; ; ; ; ; ; ; ; > + @ # $ % % , ' ) ) ! ! ! ! ~     ",
"  { { { { { { { { { { { { { { ] + @ # $ % % ^ { { { { { { { { {   ",
"/ ( ( _ _ : : : < [ [ [ [ } | 1 + @ # $ % % ^ { { { { { { { { { { ",
"2 3 4 5 6 7 8 9 0 a b c d e f g + @ # $ % % h i j k l m n o p q r ",
"% s t u v v t s s w u v v v v x + @ # $ % % y z t A B B s z C D E ",
"% B F 2 2 2 G H H H 2 2 2 2 2 I + @ # $ % % J 3 K L M N O P Q R S ",
"% T 2 U y y F U U F v v t t F x + @ # $ % % J V 2 2 V 2 V U y W X ",
"% Y Z V V U F U U F y y U y y x + @ # $ % % ` v v t t s B w y  ...",
"% +.@.#.$.U H H H H H H U U F x + @ # $ % % y v t v U U H G % %.&.",
"% *.=.-.L ;.L M >.>.,.'.).).V !.+ @ # $ % % 2 ` y U F F ~.% % #.{.",
"% ].^./.(._.:.<.[.}.|.1.,.'.2.x + @ # $ % % 2 H ~.2 % % % % % 3.4.",
"% 5.6.7.8.9.0.a.b.J 2 2 % % % c.+ @ # $ % % % % % % % % % % % d.e.",
"% f.g.h.i.j.k.l.m.n.o.p.$ q.d.c.+ @ # $ % % % % % % % % % % d.$ E ",
"% r.s.t.u.v.w.x.y.z.A.B.C.m.m.D.+ @ # $ % % % % % % % % % E.F.G.e.",
"% H.I.J.K.L.M.N.h.O.P.Q.R.Q.S.T.+ @ # $ % % d.3.d.% % % U.V.W.# X.",
"% Y.Z.`. +.+++L.@+#+t.$+@+..%+&++ @ # $ % % *+V.G.*+F.=+$ # -+P.;+",
"% k >+,+'+)+!+~+{+]+^+/+(+%+%+&++ @ # $ % % C._+z.# :+<+[+7.}+|+e.",
"d.1+2+3+4+5+6+7+8+9+0+a+%+%+%+b++ @ # $ % % # h.}+c+Q.R.-+d+#+e+f+",
"  g+h+4+i+4.j+k+S (+%+%+%+%+%+l++ @ # $ % q.h.J.m+n+o+p+q+r+^+{+X ",
"    s+>+t+u+v+w+x+%+%+%+%+%+%+e.y+@ # $ % B.z+z+A+^+B+C+J.A+S.D+  ",
"      k+E+u+F+%+%+%+%+%+%+%+%+x+G+o+# E.<+S.H+G+I+J+S.D.+ /+K+.   ",
"        L+M+N+%+%+%+%+%+%+%+%+%+O+X P+Q+R+S+&.S X T+U+H+G+V+&.    ",
"            W+%+%+%+%+%+%+%+%+%+%+%+%+%+a+u+X+Y+Z+                ",
"                %+%+                                              "};
