/* XPM */
static char * gRealSerialDTE_HeadUpSide_xpm[] = {
"73 73 263 2",
"  	c None",
". 	c #1979B0",
"+ 	c #122A54",
"@ 	c #142E5C",
"# 	c #163466",
"$ 	c #173A70",
"% 	c #18407A",
"& 	c #1A4685",
"* 	c #1C4C91",
"= 	c #1C539C",
"- 	c #1E58A4",
"; 	c #1E59A5",
"> 	c #152F5D",
", 	c #163467",
"' 	c #173A71",
") 	c #19407B",
"! 	c #1C4D91",
"~ 	c #1D539C",
"{ 	c #1878AF",
"] 	c #1875AE",
"^ 	c #1873AE",
"/ 	c #1771AD",
"( 	c #176EAC",
"_ 	c #166CAB",
": 	c #1878B0",
"< 	c #1876AF",
"[ 	c #1772AD",
"} 	c #166AAA",
"| 	c #1566A8",
"1 	c #1978B0",
"2 	c #1877AF",
"3 	c #1875AF",
"4 	c #1775AE",
"5 	c #1D58A4",
"6 	c #134C9F",
"7 	c #1772AE",
"8 	c #1662A7",
"9 	c #697180",
"0 	c #717989",
"a 	c #788192",
"b 	c #7E899C",
"c 	c #8491A5",
"d 	c #8B9AAF",
"e 	c #92A2B9",
"f 	c #98ABC3",
"g 	c #9FB2CC",
"h 	c #A5B9D2",
"i 	c #ABBFD8",
"j 	c #B1C5DE",
"k 	c #AABED7",
"l 	c #9CB0CA",
"m 	c #2777B0",
"n 	c #1977AF",
"o 	c #969696",
"p 	c #9F9F9F",
"q 	c #A9A9A9",
"r 	c #B2B2B2",
"s 	c #BBBBBB",
"t 	c #C4C4C4",
"u 	c #CECECE",
"v 	c #D7D7D7",
"w 	c #E0E0E0",
"x 	c #E9E9E9",
"y 	c #F3F3F3",
"z 	c #FBFBFB",
"A 	c #F1F1F1",
"B 	c #DCDCDC",
"C 	c #2E7CB2",
"D 	c #A8A8A8",
"E 	c #BABABA",
"F 	c #D6D6D6",
"G 	c #F2F2F2",
"H 	c #8D8D8D",
"I 	c #1A1A1A",
"J 	c #353535",
"K 	c #5E5E5E",
"L 	c #7F7F7F",
"M 	c #333333",
"N 	c #262626",
"O 	c #575757",
"P 	c #666666",
"Q 	c #3D3D3D",
"R 	c #4B4B4B",
"S 	c #C5C5C5",
"T 	c #8A8A8A",
"U 	c #292929",
"V 	c #A5A5A5",
"W 	c #3A3A3A",
"X 	c #959595",
"Y 	c #919191",
"Z 	c #4D4D4D",
"` 	c #D5D5D5",
" .	c #565656",
"..	c #9B9B9B",
"+.	c #D8D8D8",
"@.	c #EEEEEE",
"#.	c #2B2B2B",
"$.	c #595959",
"%.	c #999999",
"&.	c #525252",
"*.	c #444444",
"=.	c #717171",
"-.	c #272727",
";.	c #A4A4A4",
">.	c #A0A0A0",
",.	c #DDDDDD",
"'.	c #E8E8E8",
").	c #909090",
"!.	c #323232",
"~.	c #424242",
"{.	c #747474",
"].	c #C3C3C3",
"^.	c #A7A7A7",
"/.	c #767676",
"(.	c #545454",
"_.	c #B7B7B7",
":.	c #9E9E9E",
"<.	c #A3A3A3",
"[.	c #ADADAD",
"}.	c #CCCCCC",
"|.	c #D2D2D2",
"1.	c #E4E4E4",
"2.	c #EAEAEA",
"3.	c #586377",
"4.	c #5E6A80",
"5.	c #647189",
"6.	c #697993",
"7.	c #6E819C",
"8.	c #7488A6",
"9.	c #7A91B1",
"0.	c #7F99BB",
"a.	c #84A0C4",
"b.	c #89A5C9",
"c.	c #8EAACE",
"d.	c #93AFD3",
"e.	c #8EA9CD",
"f.	c #829EC2",
"g.	c #2375AF",
"h.	c #186DAC",
"i.	c #163366",
"j.	c #183F7A",
"k.	c #1B4C91",
"l.	c #1773AE",
"m.	c #176DAC",
"n.	c #142F5C",
"o.	c #122F5A",
"p.	c #133D6B",
"q.	c #1C5EA7",
"r.	c #1770AD",
"s.	c #154E80",
"t.	c #1A67A9",
"u.	c #17669B",
"v.	c #1D5BA5",
"w.	c #176FAC",
"x.	c #153C6C",
"y.	c #1A65A9",
"z.	c #1876AE",
"A.	c #175F94",
"B.	c #173970",
"C.	c #1D5DA6",
"D.	c #1978AE",
"E.	c #174B80",
"F.	c #1D5BA6",
"G.	c #1974AB",
"H.	c #184F86",
"I.	c #18417C",
"J.	c #1D5EA7",
"K.	c #196DAC",
"L.	c #1977AE",
"M.	c #19669F",
"N.	c #1A5895",
"O.	c #1B5798",
"P.	c #1B5FA2",
"Q.	c #1A69AA",
"R.	c #1872AE",
"S.	c #1774AE",
"T.	c #1874AE",
"U.	c #1879AF",
"V.	c #1879B0",
"W.	c #1773AD",
"X.	c #1874AF",
"Y.	c #176FAD",
"Z.	c #166EAB",
"`.	c #1669AA",
" +	c #1567A9",
".+	c #1564A8",
"++	c #1461A7",
"@+	c #135EA5",
"#+	c #135AA4",
"$+	c #1358A3",
"%+	c #1357A3",
"&+	c #1356A3",
"*+	c #1770AC",
"=+	c #166BAA",
"-+	c #1563A7",
";+	c #1460A6",
">+	c #145CA5",
",+	c #1258A3",
"'+	c #1154A1",
")+	c #1150A0",
"!+	c #114C9F",
"~+	c #114A9E",
"{+	c #1568A9",
"]+	c #1359A4",
"^+	c #1254A2",
"/+	c #166BAB",
"(+	c #1255A2",
"_+	c #1151A0",
":+	c #114D9F",
"<+	c #145EA6",
"[+	c #145BA4",
"}+	c #1257A3",
"|+	c #1153A1",
"1+	c #1251A1",
"2+	c #1251A0",
"3+	c #114EA0",
"4+	c #114B9E",
"5+	c #145DA6",
"6+	c #1358A4",
"7+	c #1256A3",
"8+	c #1152A1",
"9+	c #1668A8",
"0+	c #1560A5",
"a+	c #1357A2",
"b+	c #145DA5",
"c+	c #145BA5",
"d+	c #1256A2",
"e+	c #176EAA",
"f+	c #176DAB",
"g+	c #1460A5",
"h+	c #114A9D",
"i+	c #135BA3",
"j+	c #1668A6",
"k+	c #166CA9",
"l+	c #114E9E",
"m+	c #12539F",
"n+	c #13579C",
"o+	c #13579B",
"p+	c #166BA9",
"q+	c #1565A8",
"r+	c #114E9D",
"s+	c #1253A2",
"t+	c #124F9F",
"u+	c #104894",
"v+	c #104792",
"w+	c #135B9F",
"x+	c #145CA0",
"y+	c #0F418B",
"z+	c #114FA0",
"A+	c #114C9D",
"B+	c #104693",
"C+	c #0F4087",
"D+	c #114F91",
"E+	c #125697",
"F+	c #114F90",
"G+	c #0D3975",
"H+	c #0D3B7D",
"I+	c #1250A0",
"J+	c #114B9F",
"K+	c #0D3C81",
"L+	c #0C346F",
"M+	c #0C3673",
"N+	c #104798",
"                                          . . . . . . . . + @ # $ % & * = - ; ; ; ; ;                                                             ",
"                                        . . . . . . . . . + > , ' ) & ! ~ ; ; ; ; ; ;                                                             ",
"                                        . . . . . . . . . + @ # $ % & * = - ; ; ; ; ;                                                             ",
"                                        . . . . . . . . . + > , ' ) & ! ~ ; ; ; ; ; ;                                                             ",
"                                        . . . . . . . . . + @ # $ % & * = - ; ; ; ; ;                                                             ",
"                                        . . . . . . . . . + > , ' ) & ! ~ ; ; ; ; ; ;                                                             ",
"                                          . . . . . . . . + @ # $ % & * = - ; ; ; ; ;                                                             ",
"                                          . . { ] ^ / ( _ + > , ' ) & ! ~ ; ; ; ; ; ;                                                             ",
"                                          . . : < [ ( } | + @ # $ % & * = - ; ; ; ; ;                                                             ",
"                                          . . 1 2 < [ ( } + > , ' ) & ! ~ ; ; ; ; ; ;                                                             ",
"                                          . . : 3 4 < [ ( + @ # $ % & * = 5 ; ; ; ; ; 6                                                           ",
"                                          . . 1 3 7 < 2 ] + > , ' ) & ! ~ ; ; ; ; ; ; 8                                                           ",
"                                          . . : 3 7 < . . 9 0 a b c d e f g h i j k l m                                                           ",
"                                          . . 1 3 7 n . . o p q r s t u v w x y z A B C                                                           ",
"                                          . . : 3 7 2 . . o p D r E t u F w x G z A B C                                                           ",
"                                          . . 1 3 7 n . . o H I J K L M N O P Q R S B C                                                           ",
"                                          . . : 3 7 2 . . o T U V W X Y Z `  ...+.@.B C                                                           ",
"                                          . . : 3 7 2 . . o T #.r $.L %.&.w  .*.=.A B C                                                           ",
"                                          . . : 3 7 2 . . o T -.o U ;.%.&.w  .>.,.'.B C                                                           ",
"                                          . . : 3 7 2 . . o ).!.~.{.].^./.w L (.K _.B C                                                           ",
"                                          . . : 3 7 2 . . o :.<.[.E t }.|.w 1.2.G @.B C                                                           ",
"                                          . . : 3 7 2 . . o p D r E t u F w x G z A B C                                                           ",
"                                          . . : < 7 2 . . 3.4.5.6.7.8.9.0.a.b.c.d.e.f.g.                                                          ",
"                                          . . : < 7 2 . . + @ # $ % & * = 5 ; ; ; ; ; h.                                                          ",
"                                          . . : < 7 2 . . + @ i.$ % & * = - ; ; ; ; ; h.                                                          ",
"                                          . . : 3 7 2 . . + @ # $ j.& * = - ; ; ; ; ; h.                                                          ",
"                                          . . : < 7 2 . . + @ # $ % & * = - ; ; ; ; ; h.                                                          ",
"                                          . . : < 7 2 . . + @ i.$ j.& k.= - ; ; ; ; ; h.                                                          ",
"                                          . . : < 7 2 . . + @ # $ % & * = - ; ; ; ; ; h.                                                          ",
"                                          . . : < l.2 . . + @ # $ j.& * = - ; ; ; ; ; m.                                                          ",
"                                          . . : < 7 2 . . + @ # $ % & * = - ; ; ; ; ; h.                                                          ",
"                                          . . : 3 7 2 . . + @ # $ j.& * = - ; ; ; ; ; h.                                                          ",
"                                          . . : < 7 2 . . + @ # $ % & * = - ; ; ; ; ; h.                                                          ",
"                                          . . : < 7 2 . . + @ # $ j.& * = - ; ; ; ; ; m.                                                          ",
"                                          . . : < 7 2 . . + n.# $ % & k.= - ; ; ; ; ; h.                                                          ",
"                                          . . : < 7 2 . . + @ # $ j.& * = 5 ; ; ; ; ; h.                                                          ",
"                                          . . : < 7 2 . . o.@ # $ % & * = - ; ; ; ; ; (                                                           ",
"                                          . . : 3 7 2 . . p.@ i.$ j.& * = - ; ; ; ; q.r.                                                          ",
"                                          . . 1 < l.n . . s.> , ' ) & ! ~ ; ; ; ; ; t.r.                                                          ",
"                                          . . : < 7 2 . . u.@ # $ j.& * = - ; ; ; v.w.r.                                                          ",
"                                          . . : < 7 < . . 2 x.# $ % & * = - ; ; ; y./ r.                                                          ",
"                                          . . { < 7 z.. . . A., B.% & k.= - ; ; C.r./ r.                                                          ",
"                                          . . 1 < l.< . . . D.E.' ) & ! ~ ; ; F.h.7 / r.                                                          ",
"                                          . . : 3 7 ] . . . . G.H.I.& * = - J.K.7 7 / r.                                                          ",
"                                          . . 1 < 7 z.. . . . . L.M.N.O.P.Q.R.S.7 7 [ r.                                                          ",
"                                          . . : < 7 z.. . . . . . . 1 2 < < 3 T.7 7 [ r.                                                          ",
"                                          . . U.< l.< . . . . . . . . 2 < < 3 T.l.7 / r.                                                          ",
"                                          . . : < [ z.. . . . . . . 1 2 < < 3 T.7 [ [ r.                                                          ",
"                                          . . : < 7 z.. . . . . . . 1 2 < < 3 S.7 7 [ r.                                                          ",
"                                          . . : 3 7 z.. . . . . . . 1 2 < 3 3 T.7 7 [ r.                                                          ",
"                                          . . V.< 7 < . . . . . . . . 2 < < 3 T.7 7 [ r.                                                          ",
"                                          . . : < 7 z.. . . . . . . 1 2 < < 3 T.7 7 [ r.                                                          ",
"                                          . . : < l.z.. . . . . . . 1 2 < < 3 T.7 7 [ r.                                                          ",
"                                          . . V.< l.z.. . . . . . . . 2 < < 3 T.7 7 / r.                                                          ",
"                                          . . : < W.< . . . . . . . 1 2 < < 3 T.l.[ [ r.                                                          ",
"                                          . . : 3 l.z.. . . . . . . 1 2 < 3 3 T.7 7 [ r.                                                          ",
"                                          . . : < l.z.. . . . . . . 1 2 < < 3 T.l.7 [ r.                                                          ",
"                                          . . 1 < W.z.. . . . . . . 1 2 < < 3 T.l.[ [ r.                                                          ",
"                                          . . . < l.z.. . . . . . . . 2 < < 3 T.l.7 [ r.                                                          ",
"                                          . . : < l.z.. . . . 1 1 1 1 < 3 3 X.l.7 / / Y.                                                          ",
"                                          . . : < l.] ] / Z._ `. +.+++@+#+$+%+%+&+&+&+&+                                                          ",
"                                          . . 1 < 3 S.*+=+ +-+;+>+,+'+)+!+~+~+~+~+~+~+~+                                                          ",
"                                          . . . 2 S.*+_ {+.+;+>+]+^+)+!+~+~+~+~+~+~+~+                                                            ",
"                                          . . 2 ^ *+/+ +-+;+>+$+(+_+:+~+~+~+~+~+~+~+                                                              ",
"                                          . z.<+>+[+]+}+(+|+1+2+)+3+4+~+~+~+~+~+~+~+                                                              ",
"                                          . < 5+>+#+6+7+(+8+[+*+T.9+0+a+4+~+~+~+~+~+                                                              ",
"                                          . < b+c+]+6+d+^+d+z.2 e+r.f+} g+h+~+~+~+~+                                                              ",
"                                          . ] >+#+6+}+(+|+i+j+j+k+w._ `.| l+~+~+~+~+                                                              ",
"                                          . ] >+#+6+7+^+8+m+n+o+p+( =+{+q+r+~+~+~+~+                                                              ",
"                                          . ] [+]+}+(+s+1+t+u+v+w+f+}  +x+y+~+~+~+~+                                                              ",
"                                          . 3 #+6+}+(+|+1+z+A+B+C+D+E+F+G+H+~+~+~+~+                                                              ",
"                                          . ] ]+6+d+^+8+I+3+:+J+K+L+L+L+L+M+~+~+~+~+                                                              ",
"                                            ] ]+}+d+^+1+I+3+!+~+h+H+L+L+L+L+N+~+~+~+                                                              "};
