/* XPM */
static char * gRealPhone_UpCorner_xpm[] = {
"58 49 110 2",
"  	c None",
". 	c #DC9CBF",
"+ 	c #DF9DC1",
"@ 	c #E09FC3",
"# 	c #E3A0C5",
"$ 	c #E5A2C7",
"% 	c #E7A3C8",
"& 	c #E6A3C7",
"* 	c #E5A1C6",
"= 	c #E4A1C6",
"- 	c #E3A1C5",
"; 	c #D496B7",
"> 	c #D697B9",
", 	c #D899BB",
"' 	c #DC9BBE",
") 	c #DE9DC0",
"! 	c #E4A1C5",
"~ 	c #E6A3C8",
"{ 	c #E9A5CA",
"] 	c #ECA7CC",
"^ 	c #EEA8CF",
"/ 	c #F0AAD1",
"( 	c #F2ABD2",
"_ 	c #F2ACD2",
": 	c #F3ACD3",
"< 	c #D093B3",
"[ 	c #D395B6",
"} 	c #D697B8",
"| 	c #E19FC3",
"1 	c #E7A4C9",
"2 	c #EAA5CB",
"3 	c #EDA7CE",
"4 	c #EEA8D0",
"5 	c #CC91B0",
"6 	c #CF92B2",
"7 	c #D294B5",
"8 	c #D597B8",
"9 	c #E5A2C6",
"0 	c #E8A4C9",
"a 	c #EAA6CB",
"b 	c #E8A4CA",
"c 	c #E2A0C4",
"d 	c #CE92B1",
"e 	c #D193B4",
"f 	c #D596B7",
"g 	c #D898BA",
"h 	c #DB9BBD",
"i 	c #EBA5CB",
"j 	c #EBA6CC",
"k 	c #CD91B1",
"l 	c #D495B6",
"m 	c #D797B9",
"n 	c #DA9ABC",
"o 	c #E7A4C8",
"p 	c #CE92B2",
"q 	c #D999BB",
"r 	c #E09EC2",
"s 	c #D495B7",
"t 	c #D798BA",
"u 	c #DF9DC0",
"v 	c #D999BC",
"w 	c #DD9CBF",
"x 	c #DF9EC1",
"y 	c #CF92B3",
"z 	c #D798B9",
"A 	c #DC9CBE",
"B 	c #CD91B0",
"C 	c #D093B4",
"D 	c #D99ABC",
"E 	c #E29FC3",
"F 	c #D194B4",
"G 	c #E3A0C4",
"H 	c #DA9BBD",
"I 	c #E3A1C6",
"J 	c #E9A4CA",
"K 	c #ECA7CD",
"L 	c #EDA8CE",
"M 	c #DF9EC2",
"N 	c #DB9ABC",
"O 	c #EDA8CF",
"P 	c #EFAAD1",
"Q 	c #EFA9CF",
"R 	c #EFA9D0",
"S 	c #EEA9CF",
"T 	c #E7A3C9",
"U 	c #ECA6CD",
"V 	c #F0A9D1",
"W 	c #F2ABD3",
"X 	c #ECA7CE",
"Y 	c #DD9DC0",
"Z 	c #EEA8CE",
"` 	c #ECA6CC",
" .	c #E09FC2",
"..	c #F1AAD1",
"+.	c #DB9ABD",
"@.	c #EBA6CB",
"#.	c #D294B4",
"$.	c #E9A5CB",
"%.	c #EDA7CD",
"&.	c #DA99BC",
"*.	c #E1A0C3",
"=.	c #EAA6CC",
"-.	c #EFAAD0",
";.	c #F1ABD2",
">.	c #D596B8",
",.	c #F1AAD2",
"'.	c #E6A2C7",
").	c #E4A2C7",
"!.	c #E1A0C4",
"~.	c #E29FC4",
"                                                                                . + @ # $ % % % % & & $ * = = = - - ",
"                                                                      ; > , ' ) @ ! ~ { ] ^ / ( _ _ : : _ _ : : _ _ ",
"                                                                < [ } , ' + | = 1 2 3 4 / ( ( ( ( ( ( ( ( ( ( ( ( ( ",
"                                                          5 6 7 8 , ' + | 9 0 2 a a 2 { { b b 1 % % & & $ = - - - c ",
"                                                      5 d e f g h ) | 9 0 i j j                                     ",
"                                                  5 k < l m n ) | = o 2                                             ",
"                                              5 5 p 7 } q . r # $                                                   ",
"                                            5 k < s t h u |                                                         ",
"                                        5 5 d 7 } v w x                                                             ",
"                                      5 5 y [ z h )                                                                 ",
"                                    5 k e f , A                                                                     ",
"                                  5 d 7 } n w                                                                       ",
"                                5 p [ z h )                                                                         ",
"                              5 y l g ' x                                                                           ",
"                            5 < ; q w @                                                                             ",
"                          B C f D ) E                                                                               ",
"                        k F } n ) G ~                                                                               ",
"                        F > n + - 0                                                                                 ",
"                      7 > H x I J K                                                                                 ",
"                    7 > H x = J L                                                                                   ",
"                    } H M = J L /                                                                                   ",
"                  } N + I J O / /                                                                                   ",
"                > n + - J 3 P P                                                                                     ",
"                D + - J 3 Q Q R                                                                                     ",
"              q ) # 0 K ^ ^ S Q                                                                                     ",
"              ' c T U 3 ^ ^ ^ ^                                                                                     ",
"            m ) ~ U ^ 3 3 3 ^                                                                                       ",
"            , | 2 V ^ 3 3 3 3                                                                                       ",
"          l h - K W ^ X X 3 3                                                                                       ",
"          } Y ~ R : Z ` K X X                                                                                       ",
"        F g  .{ ..: Z j ` ` K                                                                                       ",
"        7 +.# K W : Z j j j                                                                                         ",
"        f w & S : : Z j j j                                                                                         ",
"      y t r b ..: : L a a @.                                                                                        ",
"      #.n c j ( : : 3 a a a                                                                                         ",
"    k ; . 9 ^ : : : 3 $.2 a                                                                                         ",
"    6 z x 0 V : : : %.{ $.$.                                                                                        ",
"    F &.*.=.( : : : %.{ {                                                                                           ",
"  B l ' = 3 : : : : K b b                                                                                           ",
"  6 } u % -.: : : : K b b                                                                                           ",
"  < q | 2 ;.: : : : K 1 1                                                                                           ",
"  [ h ! K W : : : : U % %                                                                                           ",
"6 >.) ~ R : : : : : U % %                                                                                           ",
"F g  .{ ,.: : : : : ` & &                                                                                           ",
"[ +.# K ( : : : : : ` & &                                                                                           ",
"8 w '.^ : : : : : : ` ).                                                                                            ",
"g x J ..: : : : : : ` =                                                                                             ",
"+.!.j ( : : : : : : ` -                                                                                             ",
"w ~.3 : : : : : : : ` -                                                                                             "};
