/* XPM */
static char * gRealSmartSerialDTE_HeadUp_xpm[] = {
"50 26 459 2",
"  	c None",
". 	c #132C58",
"+ 	c #16366A",
"@ 	c #19427F",
"# 	c #1C4F95",
"$ 	c #1E58A4",
"% 	c #1E59A5",
"& 	c #7D838E",
"* 	c #8E949F",
"= 	c #9DA5B2",
"- 	c #ACB6C5",
"; 	c #BBC7D6",
"> 	c #C8D5E4",
", 	c #BECADB",
"' 	c #166BAA",
") 	c #166BAB",
"! 	c #166CAB",
"~ 	c #176CAB",
"{ 	c #176DAC",
"] 	c #176EAC",
"^ 	c #176FAC",
"/ 	c #176FAD",
"( 	c #1770AD",
"_ 	c #2C76A9",
": 	c #7B848A",
"< 	c #818181",
"[ 	c #9B9B9B",
"} 	c #989898",
"| 	c #B5B5B5",
"1 	c #D5DADD",
"2 	c #438AB7",
"3 	c #1773AE",
"4 	c #1874AE",
"5 	c #1874AF",
"6 	c #1875AF",
"7 	c #1876AF",
"8 	c #1877AF",
"9 	c #1977B0",
"0 	c #1978B0",
"a 	c #1979B0",
"b 	c #135CA4",
"c 	c #1560A6",
"d 	c #1560A7",
"e 	c #1561A7",
"f 	c #1562A7",
"g 	c #1563A8",
"h 	c #1564A8",
"i 	c #1565A8",
"j 	c #1665A8",
"k 	c #1666A9",
"l 	c #1566A9",
"m 	c #1567A9",
"n 	c #1667A9",
"o 	c #286EA6",
"p 	c #626B71",
"q 	c #737373",
"r 	c #848484",
"s 	c #878787",
"t 	c #8A8A8A",
"u 	c #A0A0A0",
"v 	c #D6DBDF",
"w 	c #3F82B4",
"x 	c #166DAB",
"y 	c #166EAC",
"z 	c #166FAC",
"A 	c #1770AC",
"B 	c #1771AD",
"C 	c #1772AE",
"D 	c #1873AE",
"E 	c #1875AE",
"F 	c #114B9E",
"G 	c #114C9F",
"H 	c #114D9F",
"I 	c #114E9F",
"J 	c #114FA0",
"K 	c #1150A0",
"L 	c #1251A0",
"M 	c #1252A1",
"N 	c #1153A1",
"O 	c #1154A2",
"P 	c #1255A2",
"Q 	c #255FA0",
"R 	c #5E656D",
"S 	c #696969",
"T 	c #8B8B8B",
"U 	c #919191",
"V 	c #8F8F8F",
"W 	c #AFAFAF",
"X 	c #D6DADE",
"Y 	c #3D77B0",
"Z 	c #145FA6",
"` 	c #1460A6",
" .	c #1461A7",
"..	c #1563A7",
"+.	c #1568A9",
"@.	c #1569AA",
"#.	c #166AAA",
"$.	c #176DAB",
"%.	c #1772AD",
"&.	c #1774AE",
"*.	c #114A9E",
"=.	c #1253A2",
"-.	c #1254A2",
";.	c #1256A3",
">.	c #1357A3",
",.	c #1258A3",
"'.	c #1359A4",
").	c #2662A2",
"!.	c #7C848C",
"~.	c #BFBFBF",
"{.	c #C6C6C6",
"].	c #C7C7C7",
"^.	c #D7DBDF",
"/.	c #3E7AB1",
"(.	c #1668A9",
"_.	c #1669A9",
":.	c #1669AA",
"<.	c #1256A2",
"[.	c #1D6FA4",
"}.	c #395274",
"|.	c #445A7E",
"1.	c #4B6892",
"2.	c #5376A7",
"3.	c #5A82B7",
"4.	c #5F88BD",
"5.	c #5884B9",
"6.	c #2578B0",
"7.	c #1977AF",
"8.	c #1668AA",
"9.	c #1C74B0",
"0.	c #206DAD",
"a.	c #216EAE",
"b.	c #1F64A0",
"c.	c #153362",
"d.	c #1E5AA5",
"e.	c #216CAD",
"f.	c #2271AF",
"g.	c #2270AF",
"h.	c #216FAE",
"i.	c #2070AF",
"j.	c #2170AF",
"k.	c #2161A9",
"l.	c #205FA8",
"m.	c #1E579B",
"n.	c #143161",
"o.	c #205DA7",
"p.	c #205EA7",
"q.	c #215FA8",
"r.	c #215FA7",
"s.	c #205DA6",
"t.	c #2160A7",
"u.	c #1F5DA5",
"v.	c #1970AC",
"w.	c #124A9C",
"x.	c #304F7C",
"y.	c #59677A",
"z.	c #6F7F96",
"A.	c #436AA4",
"B.	c #134B9E",
"C.	c #1254A1",
"D.	c #2374B0",
"E.	c #2262AA",
"F.	c #205EA8",
"G.	c #1F589C",
"H.	c #153261",
"I.	c #2160A8",
"J.	c #1F5CA5",
"K.	c #1A6EAA",
"L.	c #1667A8",
"M.	c #29618C",
"N.	c #52697A",
"O.	c #6F8391",
"P.	c #5888AB",
"Q.	c #1B6EAB",
"R.	c #11499D",
"S.	c #2B4A79",
"T.	c #525353",
"U.	c #70706E",
"V.	c #959493",
"W.	c #ABADB1",
"X.	c #3663A3",
"Y.	c #1253A1",
"Z.	c #2373AF",
"`.	c #2160A9",
" +	c #2060A8",
".+	c #2263AA",
"++	c #1E5BA5",
"@+	c #1A6EA9",
"#+	c #1873AD",
"$+	c #1564A7",
"%+	c #236092",
"&+	c #4E5154",
"*+	c #686867",
"=+	c #8C8A8A",
"-+	c #ADADAE",
";+	c #5B8BAE",
">+	c #0E3D83",
",+	c #424A56",
"'+	c #656564",
")+	c #878786",
"!+	c #9C9B9B",
"~+	c #B1B1B1",
"{+	c #6983AA",
"]+	c #145DA5",
"^+	c #2372AE",
"/+	c #215EA3",
"(+	c #205BA3",
"_+	c #1F5CA6",
":+	c #1E5BA6",
"<+	c #1E59A3",
"[+	c #1A6DA8",
"}+	c #145EA5",
"|+	c #135BA4",
"1+	c #1561A4",
"2+	c #33526D",
"3+	c #5C5C5B",
"4+	c #818180",
"5+	c #979695",
"6+	c #AEADAD",
"7+	c #95A6B2",
"8+	c #0B326A",
"9+	c #5C6169",
"0+	c #9D9C9B",
"a+	c #A09F9F",
"b+	c #A7A6A6",
"c+	c #6B84A9",
"d+	c #145CA5",
"e+	c #2372AD",
"f+	c #21599D",
"g+	c #2059A0",
"h+	c #205AA1",
"i+	c #21599E",
"j+	c #205BA1",
"k+	c #1F59A1",
"l+	c #205CA4",
"m+	c #1D5498",
"n+	c #1F5CA7",
"o+	c #1F5DA7",
"p+	c #1E5AA6",
"q+	c #1A6CA7",
"r+	c #145B9C",
"s+	c #11477C",
"t+	c #3E5266",
"u+	c #908F8E",
"v+	c #9F9F9E",
"w+	c #A3A3A3",
"x+	c #92A3AF",
"y+	c #0B3169",
"z+	c #787D84",
"A+	c #939291",
"B+	c #969494",
"C+	c #989796",
"D+	c #9B9A9A",
"E+	c #5674A1",
"F+	c #145BA5",
"G+	c #2270AB",
"H+	c #205295",
"I+	c #20569A",
"J+	c #20569B",
"K+	c #205598",
"L+	c #1F5BA5",
"M+	c #1F5AA5",
"N+	c #1C5299",
"O+	c #1A6CA8",
"P+	c #1151A1",
"Q+	c #114F9D",
"R+	c #124E8A",
"S+	c #103F70",
"T+	c #0F3A67",
"U+	c #55687C",
"V+	c #929190",
"W+	c #9B9A99",
"X+	c #7890A4",
"Y+	c #737983",
"Z+	c #8C8B89",
"`+	c #8E8D8C",
" @	c #91908F",
".@	c #949392",
"+@	c #3C639C",
"@@	c #1251A1",
"#@	c #135AA4",
"$@	c #216BA7",
"%@	c #215191",
"&@	c #205294",
"*@	c #205194",
"=@	c #205091",
"-@	c #1E539A",
";@	c #1D529C",
">@	c #1D549E",
",@	c #1B4E94",
"'@	c #143160",
")@	c #1D57A1",
"!@	c #196BA7",
"~@	c #104691",
"{@	c #103C6C",
"]@	c #0F3967",
"^@	c #52667A",
"/@	c #8B8A89",
"(@	c #8E8C8B",
"_@	c #5B809D",
":@	c #0B336E",
"<@	c #435B7E",
"[@	c #838383",
"}@	c #878685",
"|@	c #8A8987",
"1@	c #7C838D",
"2@	c #1B4F9D",
"3@	c #2069A4",
"4@	c #214E8C",
"5@	c #204F8F",
"6@	c #204C8B",
"7@	c #1F4E92",
"8@	c #1E4D93",
"9@	c #1E4E95",
"0@	c #1C498C",
"a@	c #14305F",
"b@	c #1D529A",
"c@	c #1A66A2",
"d@	c #104692",
"e@	c #0F3B6B",
"f@	c #2D4E71",
"g@	c #808181",
"h@	c #878684",
"i@	c #898887",
"j@	c #85898B",
"k@	c #316FA2",
"l@	c #104696",
"m@	c #144B9C",
"n@	c #406190",
"o@	c #647388",
"p@	c #5A6E8C",
"q@	c #26559A",
"r@	c #1358A3",
"s@	c #2067A2",
"t@	c #1F4582",
"u@	c #214F8C",
"v@	c #204B88",
"w@	c #1F4683",
"x@	c #1F4989",
"y@	c #1E488A",
"z@	c #1E498B",
"A@	c #1C4585",
"B@	c #1E59A4",
"C@	c #1D549D",
"D@	c #1D559F",
"E@	c #1D56A1",
"F@	c #1D57A2",
"G@	c #1D56A2",
"H@	c #1E5097",
"I@	c #1E4D92",
"J@	c #19629E",
"K@	c #0F3A6B",
"L@	c #103A69",
"M@	c #113F70",
"N@	c #33567A",
"O@	c #60768A",
"P@	c #62798D",
"Q@	c #356D9E",
"R@	c #1257A3",
"S@	c #2066A1",
"T@	c #20457F",
"U@	c #204885",
"V@	c #1F447F",
"W@	c #1F437D",
"X@	c #1F4885",
"Y@	c #1E4281",
"Z@	c #1E4382",
"`@	c #1B3D77",
" #	c #142E5C",
".#	c #1E57A2",
"+#	c #1E4E94",
"@#	c #1E4F96",
"##	c #1E5098",
"$#	c #1E519A",
"%#	c #1D519A",
"&#	c #1E4B90",
"*#	c #1E498C",
"=#	c #19619F",
"-#	c #114A97",
";#	c #0F3B6D",
">#	c #10457D",
",#	c #125293",
"'#	c #13599B",
")#	c #145FA5",
"!#	c #1151A0",
"~#	c #1F639F",
"{#	c #224D86",
"]#	c #204682",
"^#	c #1E3B75",
"/#	c #1F3F77",
"(#	c #1D3C78",
"_#	c #193569",
":#	c #11244A",
"<#	c #122850",
"[#	c #1E4A8D",
"}#	c #1E4B8F",
"|#	c #1E4C91",
"1#	c #1E4789",
"2#	c #1E4585",
"3#	c #195F9C",
"4#	c #114EA0",
"5#	c #1356A1",
"6#	c #125093",
"7#	c #145CA4",
"8#	c #145EA6",
"9#	c #1460A7",
"0#	c #15529D",
"a#	c #1F4883",
"b#	c #214781",
"c#	c #1E3B72",
"d#	c #204279",
"e#	c #1E3E74",
"f#	c #162C5A",
"g#	c #102245",
"h#	c #102143",
"i#	c #102246",
"j#	c #153263",
"k#	c #19427E",
"l#	c #1E58A3",
"m#	c #1E5198",
"n#	c #1E4282",
"o#	c #1E4484",
"p#	c #1E4586",
"q#	c #1E4688",
"r#	c #1E4788",
"s#	c #1D417F",
"t#	c #175498",
"u#	c #20417A",
"v#	c #1E396F",
"w#	c #1F3F76",
"x#	c #193765",
"y#	c #102347",
"z#	c #14305E",
"A#	c #1A417D",
"B#	c #1D4484",
"C#	c #1D3B77",
"D#	c #1D3D79",
"E#	c #1D3D7A",
"F#	c #1D3E7C",
"G#	c #1D407D",
"H#	c #1E417F",
"I#	c #1E4280",
"J#	c #1D3E7A",
"K#	c #18488C",
"L#	c #1D356B",
"M#	c #193563",
"N#	c #192F61",
"O#	c #1D356C",
"P#	c #1D366D",
"Q#	c #1D366F",
"R#	c #1D3770",
"S#	c #1D3872",
"T#	c #1D3974",
"U#	c #1D3A75",
"V#	c #1D3C77",
"W#	c #182F5D",
"X#	c #12244A",
"Y#	c #13264D",
"Z#	c #112346",
"                                          . + @ # $ % %                                             ",
"                                          . + @ # $ % %                                             ",
"                                          . + @ # $ % %                                             ",
"                                          . + @ # $ % %                                             ",
"                                          & * = - ; > ,                                             ",
"  ' ) ) ! ~ ~ ~ { { ] ] ] ^ ^ ^ / ( ( ( _ : < [ } | | 1 2 3 4 5 6 6 6 6 7 7 7 7 8 8 9 0 0 0 a a a   ",
"b c d d e e e e f f f g h h i j k l m n o p q r s t u v w ! x x y y z ^ A ( B C C C D D 4 4 E 7 7 8 ",
"F F F F F F F F F F G H I J K L M N O P Q R S T U V W X Y Z `  .f ..h h j m +.@.#.' ! $.] ^ ( B %.&.",
"*.*.*.*.*.*.*.*.*.H M M =.-.P ;.>.>.,.'.).!.t | ~.{.].^./.f g h i i k n (._.#.#.+.:.#.! $.] ^ ( B %.",
"*.*.*.*.*.*.*.*.*.<.A E E E E 6 6 6 6 6 [.}.|.1.2.3.4.5.6.7 7 7 8 8 7.7.7.7.7.3 m 8.#.#.! $.] ^ ( B ",
"*.*.*.*.*.*.*.*.*.P l 4 9.0.a.a.a.a.a.a.b.c.+ @ # $ % d.e.f.g.a.h.f.f.i.4 6 7 z l m 8.:.#.) $.] ^ ( ",
"*.*.*.*.*.*.*.*.*.-. .^ j.k.l.l.l.l.l.l.m.n.+ @ # $ % % o.p.q.r.s.p.t.u.v.7 B #.j l m 8.:.#.! $.] ^ ",
"*.w.x.y.z.A.B.*.*.C.` ] D.o.l.l.p.k.E.F.G.H.+ @ # $ % % l.p.p.I.I.l.q.J.K.E #.h h j l L.M.N.O.P.Q.] ",
"R.S.T.U.V.W.X.*.*.Y.Z $.Z.t.s.`.l.o.`.E.m.n.+ @ # $ % %  +.+l.I.k.k.p.++@+#+$+` g h i %+&+*+=+-+;+$.",
">+,+'+)+!+~+{+*.*.Y.]+x ^+/+(+o.p._+o.p.G.H.+ @ # $ % % p.q.l.l.p.:+d.<+[+A }+|+f g 1+2+3+4+5+6+7+) ",
"8+9+5+0+a+b+c+*.*.M d+! e+f+g+h+i+j+k+l+m+n.+ @ # $ % % n+_+o.n+o+p+% <+q+] ,.P  .r+s+t+u+0+v+w+x+#.",
"y+z+A+B+C+D+E+*.*.M F+) G+H+I+J+K+l+L+M+N+n.+ @ # $ % % % % % % % % % <+O+) P+Q+R+S+T+U+V+V.C+W+X+:.",
"y+Y+Z+`+ @.@+@*.*.@@#@#.$@%@&@*@=@-@;@>@,@'@+ @ # $ % % % % % % % % $ )@!@m G ~@{@{@]@^@/@(@u+A+_@+.",
":@<@[@}@|@1@2@*.*.K '.:.3@4@%@5@6@7@8@9@0@a@+ @ # $ % % $ $ % % % $ >@b@c@i *.d@e@{@]@f@g@h@i@j@k@m ",
"l@m@n@o@p@q@*.*.*.K r@m s@t@u@v@w@x@y@z@A@a@+ @ # $ % B@C@C@D@E@F@G@H@I@J@h *.d@K@e@L@M@N@O@P@Q@j l ",
"*.*.*.*.*.*.*.*.*.J R@l S@T@U@V@W@X@Y@Z@`@ #+ @ # $ % .#9@+#@###$#%#&#*#=#..*.-#;#>#,#'#)# .f g h j ",
"*.*.*.*.*.*.*.*.*.*.!#h ~#{#]#^#/#V@(#_#:#<#+ @ # $ % @#y@z@[#}#|#|#1#2#3#f 4#5#6#7#]+8#Z 9# .f g g ",
"*.*.*.*.*.*.*.*.*.*.*.M 0#a#b#c#d#e#f#g#h#i#j#k## l#m#n#Y@Z@o#p#q#r#Y@s#t##@>.'.#@F+d+]+8#Z 9# .f g ",
"                            u#v#w#x#h#h#h#h#y#z#A#B#C#C#D#E#F#G#H#I#J#(#K#                          ",
"                              L#d#M#h#h#h#h#h#h#N#O#P#Q#R#S#T#U#V#D#                                ",
"                                  W#X#Y#Z#                                                          "};
