/* XPM */
static char * gRealSerialDTE_HeadDownSide_xpm[] = {
"24 75 292 2",
"  	c None",
". 	c #1979B0",
"+ 	c #1877AF",
"@ 	c #1875AF",
"# 	c #1774AE",
"$ 	c #1772AD",
"% 	c #1770AD",
"& 	c #176EAC",
"* 	c #166CAB",
"= 	c #166BAA",
"- 	c #1873AD",
"; 	c #1770AB",
"> 	c #1773AE",
", 	c #1771AD",
"' 	c #176FAC",
") 	c #176DAB",
"! 	c #166AAA",
"~ 	c #1977AF",
"{ 	c #176FAB",
"] 	c #176CAB",
"^ 	c #1568A8",
"/ 	c #166DAB",
"( 	c #1669AA",
"_ 	c #1978B0",
": 	c #1872AC",
"< 	c #166EA9",
"[ 	c #1770AC",
"} 	c #1568A9",
"| 	c #1565A7",
"1 	c #1463A3",
"2 	c #145FA1",
"3 	c #1563A3",
"4 	c #1567A9",
"5 	c #1978AF",
"6 	c #135A9D",
"7 	c #114E97",
"8 	c #13559B",
"9 	c #176EAB",
"0 	c #1566A9",
"a 	c #1460A1",
"b 	c #166BA8",
"c 	c #176CA8",
"d 	c #114D96",
"e 	c #104691",
"f 	c #135A9E",
"g 	c #1669A9",
"h 	c #1460A0",
"i 	c #115285",
"j 	c #15639B",
"k 	c #1876AF",
"l 	c #1875AE",
"m 	c #1874AE",
"n 	c #176DAA",
"o 	c #135B9A",
"p 	c #104B83",
"q 	c #104C80",
"r 	c #104979",
"s 	c #0F4774",
"t 	c #115186",
"u 	c #1565A8",
"v 	c #1564A8",
"w 	c #1463A7",
"x 	c #1460A7",
"y 	c #145DA5",
"z 	c #1359A3",
"A 	c #104E94",
"B 	c #0D3B74",
"C 	c #0C356E",
"D 	c #0C346E",
"E 	c #0D3774",
"F 	c #114A99",
"G 	c #114D9F",
"H 	c #114B9F",
"I 	c #1772AE",
"J 	c #1562A7",
"K 	c #145FA6",
"L 	c #135BA4",
"M 	c #1257A3",
"N 	c #104B91",
"O 	c #0C3A75",
"P 	c #0C3672",
"Q 	c #0C3572",
"R 	c #0C3673",
"S 	c #0D3C81",
"T 	c #114A9D",
"U 	c #114A9E",
"V 	c #1566A8",
"W 	c #1257A2",
"X 	c #104F99",
"Y 	c #104A96",
"Z 	c #104795",
"` 	c #104695",
" .	c #104798",
"..	c #11499D",
"+.	c #1462A7",
"@.	c #135BA5",
"#.	c #1258A3",
"$.	c #1254A1",
"%.	c #1251A1",
"&.	c #1250A0",
"*.	c #124FA0",
"=.	c #166FAD",
"-.	c #166FAC",
";.	c #166EAC",
">.	c #166BAB",
",.	c #1976AF",
"'.	c #1977AE",
").	c #196CA4",
"!.	c #195B97",
"~.	c #1B5798",
"{.	c #1B599F",
"].	c #1C60A6",
"^.	c #1B64A9",
"/.	c #196EAC",
"(.	c #1873AE",
"_.	c #1974AC",
":.	c #18548C",
"<.	c #19417B",
"[.	c #1A4684",
"}.	c #1C4C8F",
"|.	c #1C529B",
"1.	c #1E58A4",
"2.	c #1E59A5",
"3.	c #1E5AA5",
"4.	c #1975AC",
"5.	c #174D83",
"6.	c #173A70",
"7.	c #193F79",
"8.	c #1B63A8",
"9.	c #175A8F",
"0.	c #163567",
"a.	c #173970",
"b.	c #186CAB",
"c.	c #1872A9",
"d.	c #153A6A",
"e.	c #163366",
"f.	c #1B61A8",
"g.	c #175E91",
"h.	c #142F5E",
"i.	c #1D5AA5",
"j.	c #154777",
"k.	c #142E5D",
"l.	c #196BAB",
"m.	c #1977AD",
"n.	c #133764",
"o.	c #1969AA",
"p.	c #1872A8",
"q.	c #133460",
"r.	c #1A66A9",
"s.	c #1B74A9",
"t.	c #324D70",
"u.	c #394C6E",
"v.	c #3C5277",
"w.	c #405981",
"x.	c #43608A",
"y.	c #476795",
"z.	c #4A6EA0",
"A.	c #4D74AA",
"B.	c #507BB3",
"C.	c #537FB6",
"D.	c #5581B9",
"E.	c #5883BB",
"F.	c #5682BA",
"G.	c #517DB5",
"H.	c #3075AF",
"I.	c #237BAD",
"J.	c #87939A",
"K.	c #9F9F9F",
"L.	c #A8A8A8",
"M.	c #B1B1B1",
"N.	c #BABABA",
"O.	c #C3C3C3",
"P.	c #CCCCCC",
"Q.	c #D6D6D6",
"R.	c #DEDEDE",
"S.	c #E8E8E8",
"T.	c #F1F1F1",
"U.	c #F9F9F9",
"V.	c #F5F5F5",
"W.	c #E1E1E1",
"X.	c #6F9FBF",
"Y.	c #8F8F8F",
"Z.	c #626262",
"`.	c #6F6F6F",
" +	c #A2A2A2",
".+	c #A6A6A6",
"++	c #737373",
"@+	c #787878",
"#+	c #848484",
"$+	c #A1A1A1",
"%+	c #878787",
"&+	c #8C8C8C",
"*+	c #C6C6C6",
"=+	c #7B7B7B",
"-+	c #282828",
";+	c #676767",
">+	c #323232",
",+	c #919191",
"'+	c #747474",
")+	c #242424",
"!+	c #9A9A9A",
"~+	c #646464",
"{+	c #D1D1D1",
"]+	c #383838",
"^+	c #575757",
"/+	c #7F7F7F",
"(+	c #AEAEAE",
"_+	c #363636",
":+	c #707070",
"<+	c #494949",
"[+	c #828282",
"}+	c #E7E7E7",
"|+	c #237AAD",
"1+	c #4F4F4F",
"2+	c #838383",
"3+	c #BDBDBD",
"4+	c #EEEEEE",
"5+	c #6E9BBD",
"6+	c #1775AE",
"7+	c #2272AA",
"8+	c #869199",
"9+	c #222222",
"0+	c #4D4D4D",
"a+	c #515151",
"b+	c #B6B6B6",
"c+	c #6C8CB7",
"d+	c #216FA8",
"e+	c #949494",
"f+	c #767676",
"g+	c #808080",
"h+	c #A9A9A9",
"i+	c #A3A3A3",
"j+	c #C2C2C2",
"k+	c #A5A5A5",
"l+	c #ABABAB",
"m+	c #C9C9C9",
"n+	c #7F97BC",
"o+	c #206BA7",
"p+	c #869099",
"q+	c #1563A7",
"r+	c #1D61A3",
"s+	c #788491",
"t+	c #8E9197",
"u+	c #969AA0",
"v+	c #9EA2A9",
"w+	c #A6ABB2",
"x+	c #AFB4BC",
"y+	c #B7BDC5",
"z+	c #BFC5CE",
"A+	c #C7CED7",
"B+	c #CFD6DF",
"C+	c #D7DEE7",
"D+	c #DEE6EF",
"E+	c #DAE1EB",
"F+	c #C9D0DA",
"G+	c #145BA5",
"H+	c #1359A4",
"I+	c #1357A4",
"J+	c #13539C",
"K+	c #223C66",
"L+	c #273D66",
"M+	c #2A436F",
"N+	c #2C4979",
"O+	c #2E4F82",
"P+	c #31568C",
"Q+	c #335D98",
"R+	c #3563A3",
"S+	c #376AAB",
"T+	c #396CAE",
"U+	c #3A6DAF",
"V+	c #3B6EB0",
"W+	c #386BAD",
"X+	c #145CA5",
"Y+	c #135AA4",
"Z+	c #12519B",
"`+	c #122F5E",
" @	c #145EA6",
".@	c #1358A4",
"+@	c #1256A3",
"@@	c #1357A3",
"#@	c #1256A2",
"$@	c #12509B",
"%@	c #1255A2",
"&@	c #114F9A",
"*@	c #1254A2",
"=@	c #114E9A",
"-@	c #135CA5",
";@	c #1153A1",
">@	c #124D9A",
",@	c #1152A1",
"'@	c #135AA5",
")@	c #124C99",
"    . . . . . . . . . . . . + @ # $ % & * =     ",
"  . . . . . . . . . . . . - ; > > , ' ) = !     ",
"  . . . . . . . . . . ~ { & ] ^ / % & ) ! (     ",
"  . . . . . . . _ : ; < [ & = } | ' & * ! }     ",
"  . . . . . . . + 1 2 3 % ) ! 4 | = ) = ( 4     ",
"  . . . . . . . 5 6 7 8 9 * ( 0 a b * ! } 4     ",
"  . . . . . . . . c d e f g } h i j = ( }       ",
"  . . _ + k l m m - n o p q q r s t u v w       ",
"  . . k > ' = } v x y z A B C C D E F G G H     ",
"  . . + k I ' = 0 J K L M N O P Q R S T U U U   ",
"  . . k k k I & ! V J K L W X Y Z `  ...U U U   ",
". . . k m l k > ' = } u +.K @.#.$.%.&.&.&.&.*.*.",
". . . k m # _ _ _ 5 ~ ~ + k @ # > I , % =.-.;.>.",
". . . k m # . . . . . . . . _ k k @ @ > I $ , % ",
". . . k m # . . . . . . . . _ k k @ @ > I $ , % ",
". . . k m # . . . . . . . . _ k k @ @ > I $ , % ",
". . . k m # . . . . . . . . _ k k @ @ > I $ , % ",
". . . k m # . . . . . . . . _ k k @ @ > I $ , % ",
". . . k m # . . . . . . . . _ k k @ @ > I $ , % ",
". . . k m # . . . . . . . . _ k k @ @ > I $ , % ",
". . . k m # . . . . . . . . _ k k @ @ > I $ , % ",
". . . k m # . . . . . . . . _ k k @ @ > I $ , % ",
". . . k m # . . . . . . . . _ k k @ @ > I $ , % ",
". . . k m # . . . . . . . . _ k k @ @ > I $ , % ",
". . . k m # . . . . . . . . _ k k @ @ > I $ , % ",
". . . k m # . . . . . . . . _ k k @ @ > I $ , % ",
". . . k m # . . . . . . . . _ k k @ @ > I $ , % ",
". . . k m # . . . . . . . . _ k k @ @ > I $ , % ",
". . . k m # . . . . . . . . _ k k @ @ > I $ , % ",
". . . k m # . . . . . . . . _ k k @ @ > I $ , % ",
". . . k m # . . . . . . . . _ k k @ @ > I $ , % ",
". . . k m # . . . . . . . _ ,.m l @ @ > I $ , % ",
". . . k m # . . . . . '.).!.~.{.].^./.(.I $ , % ",
". . . k (.> . . . . _.:.<.[.}.|.1.2.3.^., $ , % ",
". . . k (.> . . . 4.5.6.7.[.}.|.1.2.2.2.8.$ , % ",
". . . k (.> . . . 9.0.a.7.[.}.|.1.2.2.2.3.b., % ",
". . . k (.> . . c.d.e.a.7.[.}.|.1.2.2.2.2.f., % ",
". . . k (.> . . g.h.e.a.7.[.}.|.1.2.2.2.2.i.% % ",
". . . k (.> . . j.k.e.a.7.[.}.|.1.2.2.2.2.2.l.% ",
". . . k (.> . m.n.k.e.a.7.[.}.|.1.2.2.2.2.2.o.% ",
". . . k (.> . p.q.k.e.a.7.[.}.|.1.2.2.2.2.2.r.% ",
". . . k (.> . p.q.k.e.a.7.[.}.|.1.2.2.2.2.2.r.% ",
". . . k (.> . p.q.k.e.a.7.[.}.|.1.2.2.2.2.2.r.% ",
". . . k (.> . p.q.k.e.a.7.[.}.|.1.2.2.2.2.2.r.% ",
". . . k (.> . p.q.k.e.a.7.[.}.|.1.2.2.2.2.2.r.% ",
". . . k (.> . p.q.k.e.a.7.[.}.|.1.2.2.2.2.2.r.% ",
". . . k (.> . p.q.k.e.a.7.[.}.|.1.2.2.2.2.2.r.% ",
". . . k (.> . p.q.k.e.a.7.[.}.|.1.2.2.2.2.2.r.% ",
". . . k (.> . p.q.k.e.a.7.[.}.|.1.2.2.2.2.2.r.% ",
". . . k (.> . p.q.k.e.a.7.[.}.|.1.2.2.2.2.2.r.% ",
". . . k (.> . p.q.k.e.a.7.[.}.|.1.2.2.2.2.2.r.% ",
". . . k (.> . p.q.k.e.a.7.[.}.|.1.2.2.2.2.2.r.% ",
". . . k (.> . p.q.k.e.a.7.[.}.|.1.2.2.2.2.2.r.% ",
". . . k (.> . p.q.k.e.a.7.[.}.|.1.2.2.2.2.2.r.% ",
". . . k (.> . p.q.k.e.a.7.[.}.|.1.2.2.2.2.2.r.% ",
". . . k (.> . s.t.u.v.w.x.y.z.A.B.C.D.E.F.G.H.% ",
". . . k > > . I.J.K.L.M.N.O.P.Q.R.S.T.U.V.W.X.% ",
". . . k > > . I.J.K.L.M.N.O.P.Q.R.S.T.U.V.W.X.% ",
". . . k > m . I.J.Y.Z.`. +.+++@+#+$+%+&+*+W.X.% ",
". . . k > m . I.J.=+-+;+>+,+'+)+!+Z.~+.+{+W.X.% ",
". . . k > m . I.J.=+]+M.^+/+(+_+R.:+<+[+}+W.X.% ",
". . . k > m _ |+J.=+]+M.1+2+(+_+R.:+`.3+4+W.5+( ",
". . . k # 6+> 7+8+=+9+0+]+(+(+_+R.:+a+%+b+W.c+%.",
". . . k k > ' d+8+e+f+g+h+O.O.i+R.j+k+l+m+W.n+  ",
". . . + # ' >.o+p+K.L.M.N.O.P.Q.R.S.T.U.V.W.    ",
". . * ( 0 q+x r+s+t+u+v+w+x+y+z+A+B+C+D+E+F+    ",
". . K y G+H+I+J+K+L+M+N+O+P+Q+R+S+T+U+V+V+W+    ",
". . K X+Y+H+M Z+`+k.e.a.7.[.}.|.1.2.2.2.2.2.    ",
". .  @G+Y+.@+@Z+`+k.e.a.7.[.}.|.1.2.2.2.2.2.    ",
". . y G+H+@@#@$@`+k.e.a.7.[.}.|.1.2.2.2.2.2.    ",
". . y Y+.@M %@&@`+k.e.a.7.[.}.|.1.2.2.2.2.2.    ",
". . X+H+.@#@*@=@`+k.e.a.7.[.}.|.1.2.2.2.2.2.    ",
". . -@H+M %@;@>@`+k.e.a.7.[.}.|.1.2.2.2.2.2.    ",
". . @..@+@*@,@>@`+k.e.a.7.[.}.|.1.2.2.2.2.2.    ",
"  . '@@@#@*@,@)@`+k.e.a.7.[.}.|.1.2.2.2.2.2.    "};
