/* XPM */
static char * gRealPowerCable_xpm[] = {
"51 115 104 2",
"  	c None",
". 	c #191919",
"+ 	c #1B1B1B",
"@ 	c #1F1F1F",
"# 	c #262626",
"$ 	c #2C2C2C",
"% 	c #333333",
"& 	c #383838",
"* 	c #3D3D3D",
"= 	c #424242",
"- 	c #454545",
"; 	c #464646",
"> 	c #474747",
", 	c #484848",
"' 	c #494949",
") 	c #4A4A4A",
"! 	c #4B4B4B",
"~ 	c #4C4C4C",
"{ 	c #4D4D4D",
"] 	c #4E4E4E",
"^ 	c #4F4F4F",
"/ 	c #505050",
"( 	c #515151",
"_ 	c #525252",
": 	c #535353",
"< 	c #545454",
"[ 	c #555555",
"} 	c #565656",
"| 	c #575757",
"1 	c #585858",
"2 	c #595959",
"3 	c #5A5A5A",
"4 	c #5B5B5B",
"5 	c #5C5C5C",
"6 	c #5D5D5D",
"7 	c #5E5E5E",
"8 	c #5F5F5F",
"9 	c #626262",
"0 	c #666666",
"a 	c #696969",
"b 	c #6C6C6C",
"c 	c #6F6F6F",
"d 	c #717171",
"e 	c #727272",
"f 	c #737373",
"g 	c #1A1A1A",
"h 	c #1C1C1C",
"i 	c #1D1D1D",
"j 	c #202020",
"k 	c #222222",
"l 	c #242424",
"m 	c #252525",
"n 	c #292929",
"o 	c #2F2F2F",
"p 	c #343434",
"q 	c #393939",
"r 	c #6A6A6A",
"s 	c #6E6E6E",
"t 	c #232323",
"u 	c #282828",
"v 	c #2B2B2B",
"w 	c #2D2D2D",
"x 	c #303030",
"y 	c #161616",
"z 	c #171717",
"A 	c #272727",
"B 	c #2E2E2E",
"C 	c #313131",
"D 	c #141414",
"E 	c #0D0D0D",
"F 	c #1E1E1E",
"G 	c #707070",
"H 	c #6D6D6D",
"I 	c #2A2A2A",
"J 	c #131313",
"K 	c #363636",
"L 	c #3B3B3B",
"M 	c #101010",
"N 	c #212121",
"O 	c #151515",
"P 	c #0E0E0E",
"Q 	c #373737",
"R 	c #414141",
"S 	c #676767",
"T 	c #6B6B6B",
"U 	c #0F0F0F",
"V 	c #636363",
"W 	c #686868",
"X 	c #111111",
"Y 	c #646464",
"Z 	c #323232",
"` 	c #616161",
" .	c #606060",
"..	c #181818",
"+.	c #121212",
"@.	c #656565",
"#.	c #3A3A3A",
"$.	c #3E3E3E",
"%.	c #353535",
"&.	c #3C3C3C",
"*.	c #3F3F3F",
"=.	c #404040",
"-.	c #434343",
";.	c #444444",
"                                                                                                      ",
"  . + @ # $ % & * = - ; ; > , ' ) ! ~ ~ { ] ^ / ( _ : < [ [ } | 1 2 3 4 5 6 7 7 8 9 0 a b c d e f f   ",
"  . g h i @ j k l m n o p q * = ; , ' ) ) ! ~ { ] ^ / ( _ : : < [ } 2 7 9 0 r s d f f f f f f f f f   ",
"  . g h i @ j k t m # u n v w o x p + y y y y y y z z z z z z z A c e f f f f f f f f f f f f f f f   ",
"  . g h i @ j k t m # u n v $ B x C D E E E E E E E E E E E E E F G f f f f f f f f f f f f f f f f   ",
"  . g h i @ j k t m # u n v w B x C D E E E E E E E E E E E E E F H d f f f f f f f f f f f f f f f   ",
"  . g h i @ j k t m A u I v w B x C D E E E E E E E E E E E E E i a s e f f f f f f f f f f f f f f   ",
". . g h i @ j k l m A u I v w B x C D E E E E J A K L I M E E E h 0 r c e f f f f f f f f f f f f f   ",
". . g h F @ N k l m A u I v w B x C O P E E J v Q R ! < = M E E h 9 S T G f f f f f f f f f f f f f f ",
". . + h F @ N k l m A u I v w B x C O U P P @ w Q R ! [ 6 o E E + 7 V W b d f f f f f f f f f f f f f ",
". . + h F @ N k l m A u I v w B x C y U P X t w Q R ! [ 8 : M E g 3 8 Y a s d f f f f f f f f f f f f ",
". . + h F @ N k l m A u I v w o x Z y M U O t w Q R ! [ 8 ` F E g | 4  .0 r c e f f f f f f f f f f f ",
". . + h F @ N k l m A u I $ w o x Z z M U O t w Q R ! [ 8 Y k E . : 1 5 ` S T G e f f f f f f f f f f ",
". . + h F @ N k l # A n I $ w o x Z z X M y t w Q R ! [ 8 a A E . / < 2 7 9 W b G f f f f f f f f f f ",
". . + h F j N t l # A n I $ w o x Z ..X X y t w Q R ! [ 8 r u E ..{ ( [ 3 8 Y a H d f f f f f f f f f ",
". . + i F j N t l # A n I $ w o x Z ..+.X y t w Q R ! [ 8 r u E z ' ] _ | 4  .@.r s e f f f f f f f f ",
". g + i F j N t l # A n I $ w o x Z ..+.+.y t w Q R ! [ 8 r u E z ; ) ] : 1 5 ` 0 T c e f f f f f f f ",
". g + i F j N t l # A n I $ w o C $ y +.+.y t w Q R ! [ 8 r u E y #.; ! / < 2 6 9 S b G f f f f f f f ",
". g + i F j N t l # A n I $ B v j O J J +.y t w Q R ! [ 8 r u +.. h $ = ~ ( [ 3 7 V W H d f f f f f f ",
". g + i F j N t l # u n v v k y +.+.+.+.+.y t w Q R ! [ 8 r w . . . . @ p ) _ } 4 8 @.a s d f f f f f ",
". g + i F j N t m # u n t ..+.+.+.+.+.+.+.y t w Q R ! [ 8 r o . . . . . g l $.( | 5  .0 r c e f f f f ",
". g + i @ j k t m # t . J +.+.+.+.+.+.+.+.y t w Q R ! [ 8 r x g . . . . . . + v > 1 6 9 S T G e f f f ",
". g h i @ j k t k g D +.+.+.+.+.+.+.+.+.+.y t w Q R ! [ 8 r C + g . . . . . . . i % ( 7 V W b d f f f ",
". g h i @ j j + D X +.+.+.+.+.+.+.+.+.+.+.y t w Q R ! [ 8 r % i + g . . . . . . . . N $.3 Y a H d f f ",
". g h i @ + D X X X X X X X +.+.+.+.+.+.+.y t w Q R ! [ 8 r p @ i + . . . . . . . . . g A ) V r s e f ",
". g h g O X X X X X X X X X X X X +.+.+.+.y t w Q R ! [ 8 r %.j F h g . . . . . . . . . . + x } r c e ",
". . O X M M M M X X X X X X X X X X X X X y t w Q R ! [ 8 r K k j F h g . . . . . . . . . . . F L ` G ",
"z X M M M M M M M M M M X X X X X X X X X z t w Q R ! [ 8 r Q l k j F h g . . . . . . . . . . . . t { ",
"    U M M M M M M M M M M M M M X X X X X . t w Q R ! [ 8 r & # l k j F h g . . . . . . . . . . . .   ",
"      U U U U M M M M M M M M M M M M X O h t w Q R ! [ 8 r q u # l k j F h g . . . . . . . . .       ",
"          U U U U U M M M M M M M M M M @ j t w Q R ! [ 8 r #.I u # l N @ i + . . . . . . .           ",
"            U U U U U U U U M M M M M X o N t w Q R ! [ 8 r L $ I A m t N @ i + . . . . .             ",
"                U U U U U U U U U M M + q N t w Q R ! [ 8 r &.w v n A m t N @ i + . .                 ",
"                  U U U U U U U U U U v &.k t w Q R ! [ 8 r $.o w v n A m t N @ i                     ",
"                      P U U U U U U y q * k t w Q R ! [ 8 r *.Z o w v n A m t N                       ",
"                        P P P P U U # *.$.k t w Q R ! [ 8 r =.p C o w v n A m                         ",
"                          P P P P X Q =.*.k t w Q R ! [ 8 r R K % C o w $                             ",
"                              P P @ =.R =.t t w Q R ! [ 8 r R & %.% C o                               ",
"                                P Z -.= R k t w Q R ! [ 8 r ;.q Q %.                                  ",
"                                          + t w Q R ! [ 8 r                                           ",
"                                          + t w Q R ! [ 8 r                                           ",
"                                          + t w Q R ! [ 8 r                                           ",
"                                          + t w Q R ! [ 8 r                                           ",
"                                          + t w Q R ! [ 8 r                                           ",
"                                          + t w Q R ! [ 8 r                                           ",
"                                          + t w Q R ! [ 8 r                                           ",
"                                          + t w Q R ! [ 8 r                                           ",
"                                          + t w Q R ! [ 8 r                                           ",
"                                          + t w Q R ! [ 8 r                                           ",
"                                          + t w Q R ! [ 8 r                                           ",
"                                          + t w Q R ! [ 8 r                                           ",
"                                          + t w Q R ! [ 8 r                                           ",
"                                          + t w Q R ! [ 8 r                                           ",
"                                          + t w Q R ! [ 8 r                                           ",
"                                          + t w Q R ! [ 8 r                                           ",
"                                          + t w Q R ! [ 8 r                                           ",
"                                          + t w Q R ! [ 8 r                                           ",
"                                          + t w Q R ! [ 8 r                                           ",
"                                          + t w Q R ! [ 8 r                                           ",
"                                          + t w Q R ! [ 8 r                                           ",
"                                          + t w Q R ! [ 8 r                                           ",
"                                          + t w Q R ! [ 8 r                                           ",
"                                          + t w Q R ! [ 8 r                                           ",
"                                          + t w Q R ! [ 8 r                                           ",
"                                          + t w Q R ! [ 8 r                                           ",
"                                          + t w Q R ! [ 8 r                                           ",
"                                          + t w Q R ! [ 8 a                                           ",
"                                          + t w Q R ! [ 8 a                                           ",
"                                          + t w Q R ! [ 8 W                                           ",
"                                          + t w Q R ! [ 8 0                                           ",
"                                          + t w Q R ! [ 7 Y                                           ",
"                                          + t w Q R ! [ 6 `                                           ",
"                                          + t w Q R ! [ 5 8                                           ",
"                                          + t w Q R ! [ 3 6                                           ",
"                                          + t w Q R ! < 1 3                                           ",
"                                          + t w Q R ! : } 1                                           ",
"                                          + t w Q R ! ( < }                                           ",
"                                          + t w Q R ) ^ ( <                                           ",
"                                          + t w Q R ' { ^ (                                           ",
"                                          + t w Q R , ) { ^                                           ",
"                                          + t w Q R ; , ! {                                           ",
"                                          + t w Q =.;.; ' !                                           ",
"                                          + t w Q $.R ;.; '                                           ",
"                                          + t w Q * *.= ;.>                                           ",
"                                          + t w K L * =.= ;.                                          ",
"                                          + t w %.& L * =.=                                           ",
"                                          + t w p K q L $.=.                                          ",
"                                          + t w Z p Q q L $.                                          ",
"                                          + t $ o Z p Q q &.                                          ",
"                                          + t v w x Z %.Q #.                                          ",
"                                          + t n v w x Z %.Q                                           ",
"                                          + k # n v B x % %.                                          ",
"                                          + N l A n $ B x %                                           ",
"                                          + @ k l A n $ B C                                           ",
"                                          g i j k m A I $ B                                           ",
"                                          . h F N t # u v w                                           ",
"                                          . + F N t # u v w                                           ",
"                                          . + F N t # u v w                                           ",
"                                          . + F N t # u v w                                           ",
"                                          . + F N t # u v w                                           ",
"                                          . + F N t # u v w                                           ",
"                                          . + F N t # u v w                                           ",
"                                          . + F N t # u v w                                           ",
"                                          . + F N t # u v w                                           ",
"                                          . + F N t # u v w                                           ",
"                                          . + F N t # u v w                                           ",
"                                          . + F N t # u v w                                           ",
"                                          . + F N t # u v w                                           ",
"                                          . + F N t # u v w                                           ",
"                                          . + F N t # u v w                                           ",
"                                          . + F N t # u v w                                           ",
"                                            + F N t # u v w                                           ",
"                                            h F N t # u v                                             ",
"                                              F N t # u I                                             ",
"                                                                                                      "};
