/* XPM */
static char * gRealCopperCN_TABLE_Horiz_xpm[] = {
"10 115 8 1",
" 	c None",
".	c #1E59A5",
"+	c #1C559F",
"@	c #1C559E",
"#	c #1B4A8B",
"$	c #1A498B",
"%	c #183E78",
"&	c #183E77",
"          ",
"          ",
"          ",
"          ",
"          ",
"          ",
"          ",
"          ",
"          ",
"          ",
"          ",
"          ",
"          ",
"          ",
"          ",
"          ",
"          ",
"          ",
"          ",
"          ",
"          ",
"          ",
"          ",
"          ",
"          ",
"          ",
"          ",
"          ",
"          ",
"          ",
"          ",
"          ",
"          ",
"          ",
"          ",
"          ",
"          ",
"          ",
"          ",
"          ",
"          ",
"          ",
"          ",
"          ",
"          ",
"          ",
"          ",
"          ",
"          ",
"          ",
"          ",
"          ",
"          ",
"          ",
"          ",
"          ",
"          ",
"          ",
"          ",
"          ",
"          ",
"          ",
"          ",
"          ",
"          ",
"          ",
"          ",
"          ",
"          ",
"          ",
"          ",
"          ",
"          ",
"          ",
"          ",
"          ",
"          ",
"          ",
"          ",
"          ",
"          ",
"          ",
"          ",
"          ",
"          ",
"          ",
"          ",
"          ",
"          ",
"          ",
"          ",
"          ",
"          ",
"          ",
"          ",
"          ",
"          ",
"          ",
"          ",
"          ",
"          ",
"          ",
"          ",
"          ",
"          ",
"          ",
"          ",
"..........",
"..........",
"..........",
"..........",
"..........",
"+@+@+@+@+@",
"#$#$#$#$#$",
"%&%&%&%&%&"};
