/* XPM */
static char * gRealCopperST_PatchPanel_xpm[] = {
"33 68 67 1",
" 	c None",
".	c #3E6B24",
"+	c #467727",
"@	c #518729",
"#	c #5E992C",
"$	c #68A72E",
"%	c #69A82E",
"&	c #68A62E",
"*	c #5E982C",
"=	c #66A42E",
"-	c #67A42E",
";	c #67A52E",
">	c #5D972C",
",	c #639F2D",
"'	c #64A02D",
")	c #5B952C",
"!	c #5F9A2D",
"~	c #609B2D",
"{	c #5F992C",
"]	c #518629",
"^	c #58902B",
"/	c #5C962C",
"(	c #5C972C",
"_	c #5A942C",
":	c #4F8429",
"<	c #558C2A",
"[	c #58912B",
"}	c #59912B",
"|	c #59922B",
"1	c #578E2A",
"2	c #4D8128",
"3	c #52882A",
"4	c #558C2B",
"5	c #568D2B",
"6	c #52892A",
"7	c #457526",
"8	c #4A7D28",
"9	c #4E8329",
"0	c #53892A",
"a	c #3D6B24",
"b	c #437326",
"c	c #477927",
"d	c #4B7F28",
"e	c #508429",
"f	c #4C7F28",
"g	c #3C6923",
"h	c #406F25",
"i	c #447526",
"j	c #497B27",
"k	c #4C8028",
"l	c #487A27",
"m	c #3A6623",
"n	c #427125",
"o	c #467726",
"p	c #4A7C28",
"q	c #376222",
"r	c #3B6723",
"s	c #3F6D24",
"t	c #477827",
"u	c #417025",
"v	c #3E6C24",
"w	c #427126",
"x	c #457527",
"y	c #467627",
"z	c #3F6D25",
"A	c #406D25",
"B	c #3A6723",
"               .+@#$%%%          ",
"               .+@#$%%%          ",
"               .+@#$%%%          ",
"               .+@#$%%%          ",
"               .+@#$%%%          ",
"               .+@#$%%%          ",
"               .+@#$%%%          ",
"               .+@#$%%%          ",
"               .+@#$%%%          ",
"               .+@#$%%%          ",
"               .+@#$%%%          ",
"               .+@#$%%%          ",
"               .+@#$%%%          ",
"               .+@#$%%%          ",
"               .+@#$%%%          ",
"               .+@#$%%%          ",
"               .+@#$%%%          ",
"               .+@#$%%%          ",
"               .+@#$%%%          ",
"               .+@#$%%%          ",
"               .+@#$%%%          ",
"               .+@#$%%%          ",
"               .+@#$%%%          ",
"               .+@#$%%%          ",
"               .+@#$%%%          ",
"               .+@#$%%%          ",
"               .+@#$%%%          ",
"               .+@#$%%%          ",
"               .+@#$%%%          ",
"               .+@#$%%%          ",
"               .+@#$%%%          ",
"               .+@#$%%%          ",
"               .+@#$%%%          ",
"               .+@#$%%%          ",
"               .+@#$%%%          ",
"               .+@#$%%%          ",
"               .+@#$%%%          ",
"               .+@#$%%%          ",
"               .+@#$%%%          ",
"               .+@#$%%%          ",
"               .+@#$%%%          ",
"               .+@#$%%%          ",
"               .+@#$%%%          ",
"               .+@#$%%%          ",
"               .+@#$%%%          ",
"               .+@#&%%%          ",
"               .+@*=-;;          ",
"               .+@>,'',          ",
"               .+@)!~~{          ",
"               .+]^//(_          ",
"               .+:<[}|1          ",
"               .+234556          ",
"               .789300:          ",
"               abcd::ef          ",
"               ghijkkkl          ",
"               manojpp7          ",
"               qrsb+ttu          ",
"               qmvwxyyz          ",
"               qmvwxyyz          ",
"               qmvwxyyz          ",
"               qmvwxyyz          ",
"               qmvwxyyz          ",
"               qmvwxyyz          ",
"               qmvwxyyz          ",
"               qmvwxyyA          ",
"               qmvwxyy           ",
"                Bvwxy7           ",
"                                 "};
