/* XPM */
static char * gRealCopperCN_PatchPanel_xpm[] = {
"33 68 43 1",
" 	c None",
".	c #122953",
"+	c #153263",
"@	c #183E79",
"#	c #1B4D91",
"$	c #1E58A3",
"%	c #1E59A5",
"&	c #1D57A3",
"*	c #1B4C90",
"=	c #1C549E",
"-	c #1C549F",
";	c #1A498C",
">	c #1C4F95",
",	c #1C4F96",
"'	c #183D76",
")	c #194583",
"!	c #1B4A8C",
"~	c #1B4A8D",
"{	c #153262",
"]	c #173A71",
"^	c #18407B",
"/	c #194582",
"(	c #1A4583",
"_	c #142F5E",
":	c #163569",
"<	c #173B73",
"[	c #183F7A",
"}	c #19407B",
"|	c #122851",
"1	c #132C58",
"2	c #153161",
"3	c #16376B",
"4	c #173B72",
"5	c #11254C",
"6	c #122852",
"7	c #132D5A",
"8	c #153264",
"9	c #17376C",
"0	c #11254A",
"a	c #132D59",
"b	c #17366A",
"c	c #17376B",
"d	c #11254B",
"               .+@#$%%           ",
"               .+@#$%%           ",
"               .+@#$%%           ",
"               .+@#$%%           ",
"               .+@#$%%           ",
"               .+@#$%%           ",
"               .+@#$%%           ",
"               .+@#$%%           ",
"               .+@#$%%           ",
"               .+@#$%%           ",
"               .+@#$%%           ",
"               .+@#$%%           ",
"               .+@#$%%           ",
"               .+@#$%%           ",
"               .+@#$%%           ",
"               .+@#$%%           ",
"               .+@#$%%           ",
"               .+@#$%%           ",
"               .+@#$%%           ",
"               .+@#$%%           ",
"               .+@#$%%           ",
"               .+@#$%%           ",
"               .+@#$%%           ",
"               .+@#$%%           ",
"               .+@#$%%           ",
"               .+@#$%%           ",
"               .+@#$%%           ",
"               .+@#$%%           ",
"               .+@#$%%           ",
"               .+@#$%%           ",
"               .+@#$%%           ",
"               .+@#$%%           ",
"               .+@#$%%           ",
"               .+@#$%%           ",
"               .+@#$%%           ",
"               .+@#$%%           ",
"               .+@#$%%           ",
"               .+@#$%%           ",
"               .+@#$%%           ",
"               .+@#$%%           ",
"               .+@#&%%           ",
"               .+@*=--           ",
"               .+@;>,,           ",
"               .+')!~~           ",
"               .{]^/((           ",
"               ._:<[}}           ",
"               |1234<<           ",
"               5678999           ",
"               0|a{bcc           ",
"               0|a{bcc           ",
"               0|a{bcc           ",
"               0|a{bcc           ",
"               0|a{bcc           ",
"               0|a{bcc           ",
"               0|a{bcc           ",
"               0|a{bcc           ",
"               0|a{bcc           ",
"               0|a{bcc           ",
"               0|a{bcc           ",
"               0|a{bcc           ",
"               0|a{bcc           ",
"               0|a{bcc           ",
"               0|a{bcc           ",
"               0|a{bcc           ",
"               0|a{bcc           ",
"               d|a{bcc           ",
"                |a{bcc           ",
"                                 "};
