/* XPM */
static char * gRealCopperST_TABLE_Horiz_xpm[] = {
"12 114 7 1",
" 	c None",
".	c #69A82E",
"+	c #68A62E",
"@	c #67A62E",
"#	c #5E992C",
"$	c #548A2A",
"%	c #538A2A",
"            ",
"            ",
"            ",
"            ",
"            ",
"            ",
"            ",
"            ",
"            ",
"            ",
"            ",
"            ",
"            ",
"            ",
"            ",
"            ",
"            ",
"            ",
"            ",
"            ",
"            ",
"            ",
"            ",
"            ",
"            ",
"            ",
"            ",
"            ",
"            ",
"            ",
"            ",
"            ",
"            ",
"            ",
"            ",
"            ",
"            ",
"            ",
"            ",
"            ",
"            ",
"            ",
"            ",
"            ",
"            ",
"            ",
"            ",
"            ",
"            ",
"            ",
"            ",
"            ",
"            ",
"            ",
"            ",
"            ",
"            ",
"            ",
"            ",
"            ",
"            ",
"            ",
"            ",
"            ",
"            ",
"            ",
"            ",
"            ",
"            ",
"            ",
"            ",
"            ",
"            ",
"            ",
"            ",
"            ",
"            ",
"            ",
"            ",
"            ",
"            ",
"            ",
"            ",
"            ",
"            ",
"            ",
"            ",
"            ",
"            ",
"            ",
"            ",
"            ",
"            ",
"            ",
"            ",
"            ",
"            ",
"            ",
"            ",
"            ",
"            ",
"            ",
"            ",
"            ",
"            ",
"            ",
"            ",
"............",
"............",
"............",
"............",
"+@+@+@+@+@+@",
"############",
"$%$%$%$%$%$%"};
