/* XPM */
static char * gRealSmartSerialDTE_HeadSide_xpm[] = {
"21 51 409 2",
"  	c None",
". 	c #114A9E",
"+ 	c #124E9F",
"@ 	c #1568A9",
"# 	c #215199",
"$ 	c #62728B",
"% 	c #868789",
"& 	c #838485",
"* 	c #5F6062",
"= 	c #464D59",
"- 	c #284B7F",
"; 	c #114A9D",
"> 	c #1669AA",
", 	c #166BAB",
"' 	c #11438C",
") 	c #5D6B7E",
"! 	c #868584",
"~ 	c #8D8C8B",
"{ 	c #949392",
"] 	c #908F8F",
"^ 	c #5D5C5B",
"/ 	c #525559",
"( 	c #234D8D",
"_ 	c #166CAB",
": 	c #104799",
"< 	c #0D3B7F",
"[ 	c #1A3D72",
"} 	c #73777E",
"| 	c #888786",
"1 	c #8F8E8D",
"2 	c #979695",
"3 	c #9C9B9B",
"4 	c #7E7E7C",
"5 	c #747472",
"6 	c #3F5D8A",
"7 	c #124EA0",
"8 	c #166AAA",
"9 	c #176CAB",
"0 	c #0D3877",
"a 	c #0C346F",
"b 	c #123870",
"c 	c #6A727E",
"d 	c #8B8A89",
"e 	c #929190",
"f 	c #9A9998",
"g 	c #A1A0A0",
"h 	c #9C9B9A",
"i 	c #989897",
"j 	c #46689A",
"k 	c #0C3571",
"l 	c #324D76",
"m 	c #818489",
"n 	c #959493",
"o 	c #9D9D9C",
"p 	c #ABABAB",
"q 	c #B3B3B3",
"r 	c #8F9BAE",
"s 	c #2154A0",
"t 	c #0C3570",
"u 	c #0D356F",
"v 	c #1B3E72",
"w 	c #35517B",
"x 	c #4F698F",
"y 	c #627DA5",
"z 	c #5576A7",
"A 	c #2355A0",
"B 	c #166BAA",
"C 	c #176DAC",
"D 	c #0C3572",
"E 	c #0F438F",
"F 	c #11489A",
"G 	c #0D3979",
"H 	c #0E4088",
"I 	c #104797",
"J 	c #11499D",
"K 	c #176EAC",
"L 	c #104492",
"M 	c #114A9C",
"N 	c #114FA0",
"O 	c #1150A0",
"P 	c #1151A1",
"Q 	c #1252A1",
"R 	c #1253A1",
"S 	c #1254A2",
"T 	c #1255A2",
"U 	c #1256A3",
"V 	c #1356A2",
"W 	c #114B9E",
"X 	c #1257A3",
"Y 	c #1358A4",
"Z 	c #1359A4",
"` 	c #135AA4",
" .	c #145CA5",
"..	c #145EA6",
"+.	c #145FA6",
"@.	c #1460A6",
"#.	c #1462A7",
"$.	c #124FA0",
"%.	c #1357A3",
"&.	c #1565A8",
"*.	c #1567A9",
"=.	c #166DAB",
"-.	c #176EAB",
";.	c #176FAC",
">.	c #1876AF",
",.	c #114B9F",
"'.	c #1250A0",
").	c #18599E",
"!.	c #1F629D",
"~.	c #20639F",
"{.	c #2065A0",
"].	c #2168A3",
"^.	c #216CA7",
"/.	c #226EA9",
"(.	c #226FAB",
"_.	c #226FAC",
":.	c #2270AE",
"<.	c #2171AF",
"[.	c #206FAE",
"}.	c #1A76AF",
"|.	c #114C9F",
"1.	c #1251A1",
"2.	c #1F447E",
"3.	c #20437B",
"4.	c #1F437D",
"5.	c #204985",
"6.	c #215290",
"7.	c #225595",
"8.	c #22599A",
"9.	c #2360A2",
"0.	c #2260A5",
"a.	c #2263A9",
"b.	c #205EA8",
"c.	c #2364AB",
"d.	c #1D74AF",
"e.	c #114D9F",
"f.	c #204179",
"g.	c #204680",
"h.	c #204884",
"i.	c #204987",
"j.	c #204D8C",
"k.	c #204D8E",
"l.	c #1F5093",
"m.	c #20569B",
"n.	c #1F589F",
"o.	c #1F5BA3",
"p.	c #205DA7",
"q.	c #2365AB",
"r.	c #1C73AF",
"s.	c #176DAB",
"t.	c #114EA0",
"u.	c #176FAD",
"v.	c #1E386F",
"w.	c #1F3F76",
"x.	c #204178",
"y.	c #1F427B",
"z.	c #214D8B",
"A.	c #205294",
"B.	c #1F559A",
"C.	c #1E58A1",
"D.	c #205EA7",
"E.	c #2160A9",
"F.	c #1770AD",
"G.	c #20437A",
"H.	c #1F3F75",
"I.	c #204077",
"J.	c #1F4078",
"K.	c #20447F",
"L.	c #204885",
"M.	c #204C8C",
"N.	c #205193",
"O.	c #205599",
"P.	c #215DA2",
"Q.	c #2160A8",
"R.	c #1F5CA7",
"S.	c #1355A2",
"T.	c #1E3B72",
"U.	c #1F3F77",
"V.	c #1E407B",
"W.	c #1F4683",
"X.	c #1F4B8B",
"Y.	c #1F5194",
"Z.	c #1F569D",
"`.	c #215EA5",
" +	c #2059A1",
".+	c #205FA8",
"++	c #1D356B",
"@+	c #1E3871",
"#+	c #1D3D79",
"$+	c #1E4382",
"%+	c #1E488B",
"&+	c #1E4E94",
"*+	c #1D539D",
"=+	c #1F5AA4",
"-+	c #205BA2",
";+	c #2161A9",
">+	c #1771AD",
",+	c #1D356C",
"'+	c #1D3972",
")+	c #1D3E7B",
"!+	c #1E4484",
"~+	c #1E4A8D",
"{+	c #1E4F96",
"]+	c #1D559F",
"^+	c #1F5BA5",
"/+	c #205CA4",
"(+	c #1F5CA6",
"_+	c #1153A1",
":+	c #1358A3",
"<+	c #1D366D",
"[+	c #1D3A74",
"}+	c #1D3F7D",
"|+	c #1E4585",
"1+	c #1E4B8E",
"2+	c #1E5097",
"3+	c #1D55A0",
"4+	c #1F5AA5",
"5+	c #205DA5",
"6+	c #2263AA",
"7+	c #1359A3",
"8+	c #1D366E",
"9+	c #1D3B76",
"0+	c #1E407E",
"a+	c #1E4687",
"b+	c #1E4C90",
"c+	c #1D5199",
"d+	c #1D56A2",
"e+	c #215FA8",
"f+	c #1772AD",
"g+	c #1D376F",
"h+	c #1D3C77",
"i+	c #1D407D",
"j+	c #1B4583",
"k+	c #1C4E93",
"l+	c #1E57A3",
"m+	c #1F5BA6",
"n+	c #205FA7",
"o+	c #1C3A74",
"p+	c #17386E",
"q+	c #19427F",
"r+	c #1C4F95",
"s+	c #1E58A4",
"t+	c #1E59A5",
"u+	c #145BA5",
"v+	c #1772AE",
"w+	c #1C376E",
"x+	c #152F5E",
"y+	c #16366A",
"z+	c #145DA5",
"A+	c #152A55",
"B+	c #132B56",
"C+	c #1E5AA5",
"D+	c #2262AA",
"E+	c #1773AE",
"F+	c #162B58",
"G+	c #102246",
"H+	c #102144",
"I+	c #102245",
"J+	c #132B57",
"K+	c #2261A8",
"L+	c #102143",
"M+	c #1460A7",
"N+	c #1874AE",
"O+	c #205DA6",
"P+	c #2364AA",
"Q+	c #145DA6",
"R+	c #1461A7",
"S+	c #1874AF",
"T+	c #1875AF",
"U+	c #12274F",
"V+	c #132C59",
"W+	c #2161A8",
"X+	c #1463A8",
"Y+	c #193468",
"Z+	c #1B3B75",
"`+	c #142F5D",
" @	c #1F5DA7",
".@	c #2366AC",
"+@	c #1564A8",
"@@	c #1D3D7A",
"#@	c #1C3E79",
"$@	c #1E5BA6",
"%@	c #215FA7",
"&@	c #1C3B75",
"*@	c #142E5D",
"=@	c #1872AD",
"-@	c #1562A7",
";@	c #1565A9",
">@	c #1B3972",
",@	c #142E5C",
"'@	c #205CA5",
")@	c #1873AD",
"!@	c #1563A8",
"~@	c #1566A9",
"{@	c #183C77",
"]@	c #142F5F",
"^@	c #1C63A3",
"/@	c #1B66A4",
"(@	c #1B67A6",
"_@	c #1B67A7",
":@	c #1A6DAB",
"<@	c #1873AE",
"[@	c #1667A9",
"}@	c #133161",
"|@	c #1D5AA5",
"1@	c #196EAC",
"2@	c #1875AE",
"3@	c #1977AF",
"4@	c #1665A8",
"5@	c #1568AA",
"6@	c #1D59A5",
"7@	c #165CA5",
"8@	c #1462A6",
"9@	c #1877AF",
"0@	c #1569AA",
"a@	c #29426B",
"b@	c #2F4A75",
"c@	c #345789",
"d@	c #3A649F",
"e@	c #3F6FAF",
"f@	c #4273B2",
"g@	c #3B6EAF",
"h@	c #195AA4",
"i@	c #135CA5",
"j@	c #1773AD",
"k@	c #8C9198",
"l@	c #A3A5A9",
"m@	c #B4B7BB",
"n@	c #C5C9CE",
"o@	c #D6DBE0",
"p@	c #E6EAEF",
"q@	c #C5D0DD",
"r@	c #2E6EAC",
"s@	c #1461A6",
"t@	c #1666A8",
"u@	c #1668AA",
"v@	c #74787B",
"w@	c #6B6B6B",
"x@	c #7C7C7C",
"y@	c #838383",
"z@	c #939393",
"A@	c #A8A8A8",
"B@	c #CBD2DA",
"C@	c #3070AB",
"D@	c #1977B0",
"E@	c #6A6E72",
"F@	c #7E7E7E",
"G@	c #7B7B7B",
"H@	c #A0A0A0",
"I@	c #777777",
"J@	c #ADADAD",
"K@	c #D2D8DF",
"L@	c #2E6394",
"M@	c #1461A3",
"N@	c #1978B0",
"O@	c #686B6F",
"P@	c #616161",
"Q@	c #898989",
"R@	c #A5A5A5",
"S@	c #868686",
"T@	c #BABABA",
"U@	c #CED3D9",
"V@	c #3A5E7E",
"W@	c #1F537F",
"X@	c #1864A4",
"Y@	c #838991",
"Z@	c #94969B",
"`@	c #AEB1B7",
" #	c #BDC2C8",
".#	c #C6CBD2",
"+#	c #CFD4DB",
"@#	c #C6CED9",
"##	c #74797F",
"$#	c #4E5051",
"%#	c #3A576E",
"&#	c #1967A4",
"*#	c #1979B0",
"=#	c #203C67",
"-#	c #254270",
";#	c #294E85",
">#	c #2E5B9B",
",#	c #3166AA",
"'#	c #3368AD",
")#	c #3669AA",
"!#	c #7F8A98",
"~#	c #696968",
"{#	c #5D5F5F",
"]#	c #306690",
"^#	c #1770AC",
"/#	c #133261",
"(#	c #255DA4",
"_#	c #838F9F",
":#	c #807F7E",
"<#	c #477495",
"[#	c #255DA5",
"}#	c #8894A4",
"|#	c #A6A6A6",
"1#	c #A1A3A5",
"2#	c #417CA8",
"3#	c #265DA5",
"4#	c #909DAE",
"5#	c #ADB1B4",
"6#	c #6C93AF",
"7#	c #1B6EAB",
"8#	c #3473AB",
"9#	c #2A74AC",
"0#	c #1774AE",
"a#	c #132E5B",
"b#	c #1963A8",
"      . . . . . . . . . . . . . . . + @   ",
"      . . . # $ % & * = - ; . . . . + > , ",
"      . ; ' ) ! ~ { ] ^ / ( . . . . + > _ ",
"      : < [ } | 1 2 3 4 5 6 . . . . 7 8 9 ",
"      0 a b c d e f g h i j . . . . 7 8 9 ",
"      k a a l m n o p q r s . . . . 7 8 9 ",
"      t a a u v w x y z A . . . . . 7 B C ",
"      a a a D < E F . . . . . . . . 7 B C ",
"      t G H I J . . . . . . . . . . 7 , K ",
"      L M N O P Q Q R S S T T U V . 7 , K ",
"      W R X Y Z `  . ...+.@.#.B 8 . $._ K ",
"      %.&.*.@ > 8 _ =.=.-.K ;.>.9 ,.'.9 K ",
"      ).!.~.{.].^./.(._.:.<.[.}.9 |.1.9 ;.",
"      2.3.4.5.6.7.8.9.0.a.b.c.d.9 e.Q 9 ;.",
"    f.g.h.i.j.k.l.m.n.o.p.b.q.r.s.t.R s.u.",
"  v.w.x.y.h.z.k.A.B.C.D.E.p.q.r.C N S C F.",
"  G.H.I.J.K.L.M.N.O.P.D.Q.R.q.r.C '.S.K F.",
"T.w.w.U.V.W.X.Y.Z.`. +p..+b.q.r.C 1.T K F.",
"++++++@+#+$+%+&+*+=+-+;+;+b.q.r.K Q X K >+",
"++++,+'+)+!+~+{+]+^+/+Q.E.(+q.r.K _+:+;.>+",
"++++<+[+}+|+1+2+3+4+5+Q..+D.6+r.K S 7+;.>+",
"++++8+9+0+a+b+c+d+(+D.e+;+b.E.r.;.T Z ;.f+",
"++++g+h+i+j+k+]+l+m+n+;+E.(+6+r.;.U ` F.f+",
"++++@+o+p+q+r+s+t+R.b.E..+p.q.r.;.%.u+F.v+",
"++,+w+x+y+q+r+s+t+m+b.E..+.+q.r.u.Y z+F.v+",
"++++A+B+y+q+r+s+t+C+D.D+;+D.q.r.F.Z z+>+E+",
"  F+G+B+y+q+r+s+t+t+;+E..+p.c.r.F.` ..>+E+",
"  H+I+J+y+q+r+s+t+t+D.;+D.K+c.r.F. .+.>+E+",
"  L+I+J+y+q+r+s+t+t+;+.+;+K+c.r.>+ .M+>+N+",
"  L+I+J+y+q+r+s+t+t+b.;+D+O+P+r.>+Q+R+f+S+",
"  L+I+J+y+q+r+s+t+t+E.D..+Q.Q.r.>++.#.f+T+",
"  H+U+V+y+q+r+s+t+t+D.b.6+W+Q.r.f++.X+v+T+",
"  Y+Z+`+y+q+r+s+t+t+ @b..@D.a.r.f+R++@E+T+",
"  @@#@`+y+q+r+s+t+t+$@ @6+%@a.r.f+#.+@E+T+",
"  9+&@*@y+q+r+s+t+t+t+$@E.;+a.r.=@-@;@E+>.",
"    >@,@y+q+r+s+t+t+t+t+D.'@K+r.)@!@~@E+>.",
"    {@]@y+q+r+s+t+C+^@/@(@_@:@>.<@+@[@N+>.",
"      }@y+q+r+s+t+|@1@2@>.3@2@>.<@4@5@S+>.",
"      }@y+q+r+s+t+6@7@8@*.=.E+9@N+*.0@T+>.",
"      a@b@c@d@e@f@g@h@i@R+*.=.j@f+*.8 T+9@",
"      k@l@m@n@o@p@q@r@s@-@+@t@@ 0@u@, T+9@",
"      v@w@x@y@z@A@B@C@!@+@&.~@*.u@> _ T+D@",
"      E@F@G@H@I@J@K@L@M@&.~@*.u@> 8 =.>.N@",
"      O@P@Q@R@S@T@U@V@W@X@*.@ > 8 _ K >.N@",
"      Y@Z@`@ #.#+#@###$#%#&#> 8 _ s.;.>.*#",
"      =#-#;#>#,#'#)#!#~#{#]#8 , s.K ^#>.*#",
"      /#y+q+r+s+t+(#_#| :#<#B 9 K ;.>+9@*#",
"      /#y+q+r+s+t+[#}#|#1#2#9 K ;.F.f+9@*#",
"      /#y+q+r+s+t+3#4#5#6#7#K ;.F.>+E+9@*#",
"      /#y+q+r+s+t+C+8#9#_ K ;.F.>+f+0#D@  ",
"      a#y+q+r+s+t+t+b#                    "};
