/* XPM */
static char * gRealCopperXO_HeadDown_xpm[] = {
"33 31 318 2",
"  	c None",
". 	c #E4CE92",
"+ 	c #DDDAD5",
"@ 	c #DCDADB",
"# 	c #DCDADA",
"$ 	c #DBDADA",
"% 	c #DBD9D9",
"& 	c #DBD9D8",
"* 	c #DAD9D8",
"= 	c #DAD8D8",
"- 	c #D9D8D7",
"; 	c #D8D7D6",
"> 	c #D7D6D6",
", 	c #D7D5D5",
"' 	c #F4B50D",
") 	c #F2A312",
"! 	c #F1A012",
"~ 	c #F09E12",
"{ 	c #EE9B11",
"] 	c #ED9810",
"^ 	c #EB9611",
"/ 	c #EA9310",
"( 	c #E89110",
"_ 	c #E78E10",
": 	c #E68D10",
"< 	c #E48A10",
"[ 	c #E38810",
"} 	c #E28610",
"| 	c #E1840F",
"1 	c #E0820F",
"2 	c #E1870F",
"3 	c #EFAA0D",
"4 	c #E0860F",
"5 	c #DC7B0E",
"6 	c #DA790E",
"7 	c #DD810E",
"8 	c #DD820E",
"9 	c #DC800E",
"0 	c #DB7F0E",
"a 	c #DB7E0E",
"b 	c #DA7D0E",
"c 	c #DA7D0D",
"d 	c #DA7C0E",
"e 	c #D97B0E",
"f 	c #D97A0E",
"g 	c #F29915",
"h 	c #F1A212",
"i 	c #F3A412",
"j 	c #F2A412",
"k 	c #F3A611",
"l 	c #F4B20E",
"m 	c #F3AA10",
"n 	c #F2A711",
"o 	c #F3A711",
"p 	c #F3A910",
"q 	c #F3AB10",
"r 	c #E28510",
"s 	c #BD3F0E",
"t 	c #F2A013",
"u 	c #F3A013",
"v 	c #F2A212",
"w 	c #F3A212",
"x 	c #F29D14",
"y 	c #F19C14",
"z 	c #F29C14",
"A 	c #F19B14",
"B 	c #F19A14",
"C 	c #F19914",
"D 	c #F09814",
"E 	c #EF9714",
"F 	c #EF9414",
"G 	c #EE9114",
"H 	c #ED9014",
"I 	c #ED9013",
"J 	c #C44A0E",
"K 	c #F1A411",
"L 	c #F29A15",
"M 	c #F29F13",
"N 	c #F2A113",
"O 	c #F4B10E",
"P 	c #F2A810",
"Q 	c #F19E13",
"R 	c #F2A012",
"S 	c #F19D13",
"T 	c #F19F13",
"U 	c #F19E12",
"V 	c #F29E13",
"W 	c #F29E12",
"X 	c #F2A112",
"Y 	c #EB8F13",
"Z 	c #C74F0F",
"` 	c #F0A010",
" .	c #F29B14",
"..	c #F3AD0F",
"+.	c #F3AE0F",
"@.	c #F3A113",
"#.	c #EE9513",
"$.	c #C54C0F",
"%.	c #ED9D10",
"&.	c #EE9712",
"*.	c #F4B30D",
"=.	c #EE9214",
"-.	c #C34A0F",
";.	c #EB9910",
">.	c #E88E11",
",.	c #EA8A13",
"'.	c #F19715",
").	c #F29D13",
"!.	c #F3B00E",
"~.	c #F3AC10",
"{.	c #ED9114",
"].	c #C2470E",
"^.	c #E99610",
"/.	c #E58810",
"(.	c #E48013",
"_.	c #EB9312",
":.	c #EB9311",
"<.	c #E68612",
"[.	c #E58213",
"}.	c #E78513",
"|.	c #E88713",
"1.	c #ED9313",
"2.	c #EF9A12",
"3.	c #F3A810",
"4.	c #F29E14",
"5.	c #EF9415",
"6.	c #C1450E",
"7.	c #E48B10",
"8.	c #DF7712",
"9.	c #E58611",
"0.	c #E38211",
"a.	c #DE7911",
"b.	c #ED9811",
"c.	c #F19815",
"d.	c #C0430E",
"e.	c #E28710",
"f.	c #DE7F10",
"g.	c #D96F12",
"h.	c #E18110",
"i.	c #DE7B11",
"j.	c #D97310",
"k.	c #EA8C12",
"l.	c #EC8D14",
"m.	c #EE9014",
"n.	c #EF9215",
"o.	c #F09515",
"p.	c #F29815",
"q.	c #EA9014",
"r.	c #D07312",
"s.	c #D67D0F",
"t.	c #EA8F10",
"u.	c #F39913",
"v.	c #F09715",
"w.	c #BF420E",
"x.	c #E0830F",
"y.	c #DB7A0F",
"z.	c #D56811",
"A.	c #DC7A10",
"B.	c #D26410",
"C.	c #E27F11",
"D.	c #E27D13",
"E.	c #E48012",
"F.	c #E68313",
"G.	c #E88613",
"H.	c #EA8913",
"I.	c #EB8C14",
"J.	c #ED8F14",
"K.	c #D37713",
"L.	c #A84911",
"M.	c #B35111",
"N.	c #CC6B10",
"O.	c #E7880F",
"P.	c #F6980D",
"Q.	c #F39912",
"R.	c #BF430E",
"S.	c #DE800F",
"T.	c #D8750E",
"U.	c #D16111",
"V.	c #D76F10",
"W.	c #D46910",
"X.	c #CC580F",
"Y.	c #DE7C10",
"Z.	c #DA6F12",
"`.	c #DB7212",
" +	c #DD7412",
".+	c #E07A12",
"++	c #E17C12",
"@+	c #B25411",
"#+	c #81270F",
"$+	c #9B3C10",
"%+	c #F6990E",
"&+	c #F29714",
"*+	c #E98813",
"=+	c #E58113",
"-+	c #DD7E0F",
";+	c #D0650E",
">+	c #D16310",
",+	c #D56E0F",
"'+	c #D2670F",
")+	c #C8520F",
"!+	c #D36311",
"~+	c #D46511",
"{+	c #D66811",
"]+	c #D76A12",
"^+	c #D16711",
"/+	c #963810",
"(+	c #71190F",
"_+	c #81260F",
":+	c #F7990D",
"<+	c #EF8F11",
"[+	c #EA8B14",
"}+	c #EC8E14",
"|+	c #F19615",
"1+	c #E58112",
"2+	c #E17B12",
"3+	c #DE7512",
"4+	c #C1460E",
"5+	c #DB7C0F",
"6+	c #CE610D",
"7+	c #CF5F0E",
"8+	c #D2690E",
"9+	c #CB5A0F",
"0+	c #C54E0E",
"a+	c #CC5810",
"b+	c #CE5A10",
"c+	c #CF5C11",
"d+	c #BE5110",
"e+	c #82260F",
"f+	c #70180F",
"g+	c #83270F",
"h+	c #EB8810",
"i+	c #E27C12",
"j+	c #E37E12",
"k+	c #E78413",
"l+	c #E98713",
"m+	c #DE7712",
"n+	c #DA7012",
"o+	c #D76A11",
"p+	c #C0440E",
"q+	c #DA7A0E",
"r+	c #CC5E0D",
"s+	c #CC5B0E",
"t+	c #CD5F0E",
"u+	c #C7520E",
"v+	c #C7530D",
"w+	c #CC5C0E",
"x+	c #C8500F",
"y+	c #A83D0F",
"z+	c #761C0F",
"A+	c #E6810F",
"B+	c #D96E12",
"C+	c #DB7112",
"D+	c #DC7312",
"E+	c #E07812",
"F+	c #E17A12",
"G+	c #D86C11",
"H+	c #C2480E",
"I+	c #D8770D",
"J+	c #C5520D",
"K+	c #CD600E",
"L+	c #C7560D",
"M+	c #C9580D",
"N+	c #BE450E",
"O+	c #912B0F",
"P+	c #E37B0F",
"Q+	c #D26211",
"R+	c #D36411",
"S+	c #D56611",
"T+	c #D66911",
"U+	c #D76B12",
"V+	c #D36211",
"W+	c #CE5B10",
"X+	c #C44B0F",
"Y+	c #C5500D",
"Z+	c #CD610D",
"`+	c #CB5D0D",
" @	c #BE410E",
".@	c #C7580D",
"+@	c #B6490E",
"@@	c #81220F",
"#@	c #DF750E",
"$@	c #CC5610",
"%@	c #CD5910",
"&@	c #CF5D11",
"*@	c #D15F11",
"=@	c #D26111",
"-@	c #C9520F",
";@	c #C7500F",
">@	c #C9570D",
",@	c #C95A0D",
"'@	c #B24D0D",
")@	c #72190F",
"!@	c #DD700E",
"~@	c #C64E0F",
"{@	c #C8510F",
"]@	c #C9530F",
"^@	c #CA5410",
"/@	c #C54B0F",
"(@	c #CA5B0D",
"_@	c #B54C0D",
":@	c #731A0F",
"<@	c #DA6D0D",
"[@	c #C3490E",
"}@	c #C44B0E",
"|@	c #B24C0E",
"1@	c #741A0F",
"2@	c #C04711",
"3@	c #C75B1A",
"4@	c #C3490F",
"5@	c #751A0F",
"6@	c #85230F",
"7@	c #942A0E",
"8@	c #83210E",
"9@	c #8D270E",
"0@	c #8C260E",
"a@	c #86230E",
"b@	c #872A0F",
"c@	c #882B0F",
"      . . + @ # # # # $ % % % & * * * = = - - - ; ; > , , ,       ",
"  ' ' ' ' ' ' ' ' ' ' ' ' ' ' ' ' ' ' ' ' ' ' ' ' ' ' ' ' ' ' '   ",
"  ' ' ' ' ' ' ' ' ' ' ' ' ' ' ' ' ' ' ' ' ' ' ' ' ' ' ' ' ' ' '   ",
") ! ~ { ] ^ / ( _ : < [ } | 1 2 3 4 5 6 6 7 8 7 9 0 a b c d e f f ",
"g h ) ) ) i j ) i i j i ) j ) k l m n o n n o n n p q q m m m r s ",
"g ) i t t u v ) i w t u t t t w l k t x y z A A B C D E F G H I J ",
"g K L g g g z z x M t u N N M t O P Q R Q S T M S U R V W X t Y Z ",
"g ` V ) t u M x x z g g g g g  ...+.x u t t @.t t X u t t N t #.$.",
"g %.&.F R N t t @.@.t u v t t M i *.) x x t @.t t t N t t M L =.-.",
"g ;.>.,.S '.).t M M M M t t t u N !.~.x z g g g  .x M t  .g g {.].",
"g ^./.(._.:.<.[.}.|.Y 1.2.S T M t 3.!.t t t M t 4.z L g g g g 5.6.",
"g 7.r 8.9.0.a.b.S t x z g g g g g 4.l M g g g g g g g g g g g c.d.",
"g e.f.g.h.i.j.k.l.m.n.o.'.p.g g q.r.s.t.u.g g g g g g g g g g v.w.",
"g x.y.z.A.j.B.C.D.E.F.G.H.I.J.K.L.M.N.O.P.Q.g g g g g g g o.5.J.R.",
"g S.T.U.V.W.X.Y.Z.`. +8..+++@+#+$+M.N.O.P.%+&+c.g g g g p.,.*+=+].",
"g -+;+>+,+'+)+W.!+~+{+]+^+/+(+_+$+M.N.O.P.:+<+[+}+G 5.|+'.1+2+3+4+",
"g 5+6+7+8+9+0+'+a+b+c+d+e+f+f+g+$+M.N.O.P.:+h+i+j+=+k+l+H.m+n+o+p+",
"g q+r+s+t+u+v+w+Z x+y+z+f+f+f+g+$+M.N.O.P.:+A+B+C+D+3+E+F+G+~+U.H+",
"  I+J+t+K+p+L+M+N+O+(+f+f+f+f+g+$+M.N.O.P.:+P+Q+R+S+T+U+B+V+W+X.X+",
"    Y+Z+`+ @.@+@@@f+f+f+f+f+f+g+$+M.N.O.P.:+#@$@%@W+&@*@=@%@-@;@  ",
"      >@,@ @'@)@f+f+f+f+f+f+f+g+$+M.N.O.P.:+!@~@Z {@]@^@$@-@/@-.  ",
"        (@w._@:@f+f+f+f+f+f+f+g+$+M.N.O.P.:+<@].H+[@X+$.~@}@6.    ",
"            |@1@f+f+f+f+f+f+f+g+$+M.N.O.P.:+<@2@3@p+4+].4@        ",
"              5@6@7@8@8@9@0@a@b@$+M.N.O.P.:+                      ",
"                              c@$+M.N.O.P.:+                      ",
"                              c@$+M.N.O.P.:+                      ",
"                              c@$+M.N.O.P.:+                      ",
"                              c@$+M.N.O.P.:+                      ",
"                              c@$+M.N.O.P.:+                      ",
"                              c@$+M.N.O.P.:+                      ",
"                              c@$+M.N.O.P.:+                      "};
