/* XPM */
static char * gRealFiber_HeadSide_xpm[] = {
"26 48 226 2",
"  	c None",
". 	c #2C2A28",
"+ 	c #2A2928",
"@ 	c #2A2828",
"# 	c #292928",
"$ 	c #2C2C2C",
"% 	c #2E2E2E",
"& 	c #2C2B28",
"* 	c #2C2A29",
"= 	c #2C2B29",
"- 	c #2C2B2A",
"; 	c #2D2B2A",
"> 	c #2B2B2A",
", 	c #2F2F2E",
"' 	c #343434",
") 	c #383838",
"! 	c #3A3A3A",
"~ 	c #2F2E2D",
"{ 	c #30302F",
"] 	c #383837",
"^ 	c #2B2A28",
"/ 	c #2E2C2B",
"( 	c #2E2D2C",
"_ 	c #292826",
": 	c #262523",
"< 	c #282624",
"[ 	c #2D2C2A",
"} 	c #323130",
"| 	c #31312F",
"1 	c #323231",
"2 	c #2A2827",
"3 	c #232221",
"4 	c #212020",
"5 	c #252422",
"6 	c #262422",
"7 	c #2A2826",
"8 	c #302F2E",
"9 	c #2F2F2D",
"0 	c #333232",
"a 	c #302F2D",
"b 	c #363534",
"c 	c #2B2A27",
"d 	c #272624",
"e 	c #1D1D1C",
"f 	c #1E1E1D",
"g 	c #20201F",
"h 	c #212120",
"i 	c #242221",
"j 	c #2D2D2B",
"k 	c #30302E",
"l 	c #343332",
"m 	c #2E2D2B",
"n 	c #373736",
"o 	c #2A2927",
"p 	c #282825",
"q 	c #1A1918",
"r 	c #1A1A19",
"s 	c #1D1C1B",
"t 	c #1F1E1D",
"u 	c #222120",
"v 	c #242321",
"w 	c #2F2E2C",
"x 	c #363636",
"y 	c #1C1C1A",
"z 	c #171616",
"A 	c #191818",
"B 	c #1B1A1A",
"C 	c #1D1D1B",
"D 	c #1F1E1E",
"E 	c #202020",
"F 	c #222220",
"G 	c #272523",
"H 	c #292825",
"I 	c #131312",
"J 	c #151514",
"K 	c #171716",
"L 	c #191918",
"M 	c #1B1B1A",
"N 	c #1C1C1B",
"O 	c #1F1F1E",
"P 	c #232220",
"Q 	c #242322",
"R 	c #272623",
"S 	c #2E2E2C",
"T 	c #363635",
"U 	c #333332",
"V 	c #22211F",
"W 	c #111111",
"X 	c #131313",
"Y 	c #161514",
"Z 	c #181716",
"` 	c #1E1B18",
" .	c #9F6111",
"..	c #C17A11",
"+.	c #30291D",
"@.	c #323230",
"#.	c #373636",
"$.	c #302E2D",
"%.	c #1E1D1C",
"&.	c #0F0F0F",
"*.	c #161615",
"=.	c #3D2514",
"-.	c #E0820E",
";.	c #F7990D",
">.	c #6E4A15",
",.	c #353534",
"'.	c #0D0D0D",
").	c #0F1010",
"!.	c #121211",
"~.	c #141413",
"{.	c #3C2413",
"].	c #6C4914",
"^.	c #1E1E1C",
"/.	c #31302F",
"(.	c #383836",
"_.	c #1B1A19",
":.	c #0C0C0C",
"<.	c #0E0E0E",
"[.	c #101010",
"}.	c #121212",
"|.	c #3A2312",
"1.	c #6D4914",
"2.	c #343433",
"3.	c #10100F",
"4.	c #392111",
"5.	c #302F2F",
"6.	c #292828",
"7.	c #383737",
"8.	c #383736",
"9.	c #0E0F0F",
"0.	c #382010",
"a.	c #6C4813",
"b.	c #1C1B1A",
"c.	c #2A2A2A",
"d.	c #303030",
"e.	c #302E2C",
"f.	c #171515",
"g.	c #161414",
"h.	c #371F0E",
"i.	c #6A4712",
"j.	c #181717",
"k.	c #2A2A29",
"l.	c #343331",
"m.	c #171615",
"n.	c #131212",
"o.	c #371F0F",
"p.	c #6E4A16",
"q.	c #282828",
"r.	c #272626",
"s.	c #2D2C2C",
"t.	c #32302F",
"u.	c #3D2413",
"v.	c #232323",
"w.	c #222221",
"x.	c #2D2C2B",
"y.	c #6B4812",
"z.	c #1C1A1A",
"A.	c #151414",
"B.	c #6C4814",
"C.	c #21211F",
"D.	c #76521C",
"E.	c #2A2926",
"F.	c #2E2C2A",
"G.	c #49301E",
"H.	c #76521B",
"I.	c #282724",
"J.	c #282725",
"K.	c #292725",
"L.	c #75511B",
"M.	c #242422",
"N.	c #482F1D",
"O.	c #2A2A27",
"P.	c #472F1D",
"Q.	c #77531E",
"R.	c #31302E",
"S.	c #442C1B",
"T.	c #74501A",
"U.	c #333231",
"V.	c #20201E",
"W.	c #432B1A",
"X.	c #21201F",
"Y.	c #181818",
"Z.	c #422A19",
"`.	c #734F1A",
" +	c #412918",
".+	c #724E19",
"++	c #363634",
"@+	c #402817",
"#+	c #745018",
"$+	c #333331",
"%+	c #1A1A1A",
"&+	c #101110",
"*+	c #3E2615",
"=+	c #E08C0F",
"-+	c #201F1E",
";+	c #252322",
">+	c #373635",
",+	c #181817",
"'+	c #161515",
")+	c #3E2514",
"!+	c #0F100F",
"~+	c #111211",
"{+	c #1A1A18",
"]+	c #151515",
"^+	c #0D0E0E",
"/+	c #3A2212",
"(+	c #2C2C2B",
"_+	c #323232",
":+	c #353434",
"<+	c #323131",
"[+	c #282827",
"}+	c #111110",
"|+	c #0B0B0B",
"1+	c #0E0F0E",
"2+	c #0C0D0D",
"3+	c #2C2B2B",
"4+	c #361F0E",
"5+	c #262625",
"6+	c #2E2E2D",
"7+	c #121210",
"8+	c #382110",
"9+	c #111010",
"0+	c #0F0E0E",
"a+	c #111210",
"b+	c #392110",
"c+	c #141414",
"  . + @ + + + + + + + + + + + + + + + # + $ $ $ %   ",
"& & . . * = = = - - - - ; - - - - - - - > , ' ' ) ! ",
". & & . . * = = = - - - - - - - - - > - ~ { ' ' ! ! ",
". . & & . . * = = - - - - ; - - - - - > - ] ' ' ! ! ",
"^ . . & & . . * = / ~ ( - ; ; - - - - - > ] ' ' ! ! ",
"^ ^ . . & _ : < [ / [ } | 1 ; - - - - - - ] ' ' ! ! ",
"^ ^ ^ 2 3 4 3 5 6 7 8 9 0 a b / - - - - - ] ' ' ! ! ",
"c ^ d e f g h i 5 6 d j k l m n ; - - - - ] ' ' ! ! ",
"o p q r s t g u v 5 : d w a x a l ; - - - ] ' ' ! ! ",
"o y z A B C D E F v 5 G d n a k ) - ; - - ] ' ' ! ! ",
"H I J K L M N O E P Q 6 R 8 S T U 8 - ; - ] ' ' ! ! ",
"V W X Y Z `  ...+.h 3 5 6 o @.#.$.0 - ; - ] ' ' ! ! ",
"%.&.W X *.=.-.;.>.f h 3 5 _ 1 ,.[ 0 - - ; ] ' ' ! ! ",
"y '.).!.~.{.-.;.].^.g u i o /.T , @.- - - (.' ' ! ! ",
"_.:.<.[.}.|.-.;.1.s t E F 8 - 0 2.m = - - ] ' ' ! ! ",
"_.3.:.<.[.4.-.;.].M e O h ' 5.6.7.= = - - 8.' ' ! ! ",
"_.Y :.:.9.0.-.;.a.L b.%.% c.d.d.e.* = = - 8.' ' ! ! ",
"q f.g.'.'.h.-.;.i.j.r c.k.{ + l.. . * = = 8.' ' ! ! ",
"Y Y f.m.n.o.-.;.p.h q.c.r.s.t.& & . . = = (.' ' ! ! ",
"Y Y m.f.m.u.-.;.p.E v.w.x.= . . & & . . = (.' ' ! ! ",
"Y Y Y m.f.u.-.;.y.Z z.: ^ ^ ^ . & & & . * 8.' ' ! ! ",
"A.Y Y Y f.u.-.;.B.C.7 o c ^ ^ . . & & . . 8.' ' ! ! ",
"b.A.Y Y Y u.-.;.D._ E.E.o c ^ ^ . . & & F.b ' ' ! ! ",
"5 6 6 : G G.-.;.H.I.J.J.K.H _ _ E.o o c = F.' ' ! ! ",
"5 5 6 6 : G.-.;.L.I.I.J.J.K.H _ _ E.E.o c F.' ' ! ! ",
"Q M.5 5 6 N.-.;.L.d I.I.I.J.K.K.H _ E.E.o [ ' ' ! ! ",
"5 6 6 G R G.-.;.D.J.K.H _ E.o o ^ ^ ^ . 8 } ' ' ! ! ",
"5 5 6 : G G.-.;.H.J.J.K.H _ E.o o ^ ^ ^ . #.' ' ! ! ",
"Q 5 5 6 : G.-.;.D.o - [ K._ _ E.o O.^ ^ ^ #.' ' ! ! ",
"v Q 5 5 6 P.-.;.Q.~ x.k k R._ _ E.o c ^ ^ #.' ' ! ! ",
"3 v Q v g S.-.;.T.J.a a U.~ b ^ _ E.o c ^ T ' ' ! ! ",
"3 3 V.N f W.-.;.T.6 d = @.l w x _ E.E.o c T ' ' ! ! ",
"u X.Y.r N Z.-.;.`.5 : d m /.n S 0 _ E.o o T ' ' ! ! ",
"h Y.z A _. +-.;..+v 5 : d ++w R.] _ _ E.o T ' ' ! ! ",
"g }.J K L @+-.;.#+F Q 6 G w S x $+m H _ E.++' ' ! ! ",
"%+&+I Y Z *+-.;.=+-+3 ;+6 o U.>+w R.K._ _ ++' ' ! ! ",
",+&.W X '+)+-.;.;.M h 3 5 _ @.,./ k K.H _ ++' ' ! ! ",
"*.'.!+~+~.{.-.;.;.{+g u i o k #., w J.K.H b ' ' ! ! ",
"]+:.^+[.}./+-.;.;.r t g u { (+_+:+E.I.J.K.b ' ' ! ! ",
"J '.:.<.[.4.-.;.;.M C O h U <+[+T d I.I.J.b ' ' ! ! ",
"J }+|+:.1+0.-.;.;.L M %., c.% _+O.d < I.J.b ' ' ! ! ",
"~.}+[.:.2+h.-.;.;.Z B $ k.(+3+( G R d I.I.:+' ' ! ! ",
"}.&+}+}+[.4+-.;.;.E c.[+5+6+^ 6 : G R d I.:+' ' ! ! ",
"7+&+&+}+}+8+-.;.;.f E E 6.M.5 5 6 : G R d :+' ' ! ! ",
"}+3.&+&+}+0.-.;.;.!.m.V.3 v Q 5 6 6 : G d ' ' ' ! ! ",
"9+3.3.&+&+0.-.;.;.M h u 3 3 v 5 5 6 6 G G ' ' ' ! ! ",
"}.0+3.}+a+b+-.;.;.O g g 4 u F 3 Q Q 5 5 * c.' ' ! ! ",
"c+J '+m.Z )+-.;.;.r _.M y s e ^.D O O g E k.' ' x ! "};
