/* XPM */
static char * gRealCopperST_HeadDown_xpm[] = {
"33 31 278 2",
"  	c None",
". 	c #B6D199",
"+ 	c #D9DAD6",
"@ 	c #DCDADB",
"# 	c #DCDADA",
"$ 	c #DBDADA",
"% 	c #DBD9D9",
"& 	c #DBD9D8",
"* 	c #DAD9D8",
"= 	c #DAD8D8",
"- 	c #D9D8D7",
"; 	c #D8D7D6",
"> 	c #D7D6D6",
", 	c #D7D5D5",
"' 	c #70BD1F",
") 	c #6BAF28",
"! 	c #6AAE28",
"~ 	c #69AC28",
"{ 	c #68AA28",
"] 	c #67A927",
"^ 	c #65A728",
"/ 	c #64A527",
"( 	c #63A427",
"_ 	c #62A227",
": 	c #61A127",
"< 	c #60A027",
"[ 	c #5F9E26",
"} 	c #5E9C26",
"| 	c #5D9B25",
"1 	c #5B9925",
"2 	c #5D9D24",
"3 	c #6BB520",
"4 	c #5C9C23",
"5 	c #589424",
"6 	c #569224",
"7 	c #599823",
"8 	c #5A9823",
"9 	c #599722",
"0 	c #589622",
"a 	c #579522",
"b 	c #579421",
"c 	c #569321",
"d 	c #559221",
"e 	c #549021",
"f 	c #538F21",
"g 	c #538E20",
"h 	c #528D20",
"i 	c #69A82E",
"j 	c #6CB028",
"k 	c #6CAF28",
"l 	c #6BB028",
"m 	c #6CB127",
"n 	c #6FBB20",
"o 	c #6DB424",
"p 	c #6CB226",
"q 	c #6DB425",
"r 	c #6DB524",
"s 	c #5B9725",
"t 	c #335D21",
"u 	c #6BB027",
"v 	c #6BAD2A",
"w 	c #6AAD2A",
"x 	c #6BAE29",
"y 	c #6BAF29",
"z 	c #6FBA21",
"A 	c #69AB2C",
"B 	c #69AA2C",
"C 	c #68A92C",
"D 	c #68A82C",
"E 	c #68A72C",
"F 	c #67A72C",
"G 	c #66A52D",
"H 	c #65A32E",
"I 	c #65A22E",
"J 	c #64A22C",
"K 	c #3A6723",
"L 	c #6BB026",
"M 	c #6AAA2C",
"N 	c #6AAB2C",
"O 	c #6AAC2B",
"P 	c #6AAD29",
"Q 	c #6CB325",
"R 	c #69AC2A",
"S 	c #6AAC2A",
"T 	c #69AB2A",
"U 	c #69AC29",
"V 	c #6AAC29",
"W 	c #6AAE29",
"X 	c #64A22B",
"Y 	c #3E6C24",
"Z 	c #69AE26",
"` 	c #69A92D",
" .	c #6EB623",
"..	c #6EB822",
"+.	c #6AAB2B",
"@.	c #66A62C",
"#.	c #3D6A23",
"$.	c #68AC26",
"%.	c #67A72A",
"&.	c #66A42E",
"*.	c #6BAE2A",
"=.	c #6FBC20",
"-.	c #65A32D",
";.	c #3B6823",
">.	c #66AA25",
",.	c #62A129",
"'.	c #629E2D",
").	c #68A72E",
"!.	c #6EB921",
"~.	c #6EB624",
"{.	c #69AA2D",
"].	c #65A22D",
"^.	c #64A725",
"/.	c #5F9E27",
"(.	c #5D982C",
"_.	c #65A529",
":.	c #5F9C2A",
"<.	c #5E992C",
"[.	c #609B2D",
"}.	c #619D2D",
"|.	c #66A52B",
"1.	c #68A92A",
"2.	c #6DB325",
"3.	c #6FB921",
"4.	c #66A42D",
"5.	c #396522",
"6.	c #60A026",
"7.	c #5D9C26",
"8.	c #59922B",
"9.	c #5F9D29",
"0.	c #5D9A29",
"a.	c #59932A",
"b.	c #67A828",
"c.	c #6FBA20",
"d.	c #386322",
"e.	c #5D9C25",
"f.	c #5A9725",
"g.	c #558C2A",
"h.	c #5C9927",
"i.	c #5A9528",
"j.	c #568F28",
"k.	c #629F2B",
"l.	c #63A02E",
"m.	c #67A52E",
"n.	c #68A62E",
"o.	c #5C972B",
"p.	c #61A029",
"q.	c #376222",
"r.	c #579324",
"s.	c #518729",
"t.	c #589427",
"u.	c #558F27",
"v.	c #4E8327",
"w.	c #5C9729",
"x.	c #5C962C",
"y.	c #5F9A2D",
"z.	c #609C2D",
"A.	c #5B942B",
"B.	c #4C7F28",
"C.	c #528729",
"D.	c #5D972C",
"E.	c #64A12D",
"F.	c #366222",
"G.	c #5A9724",
"H.	c #548F23",
"I.	c #4D8228",
"J.	c #538C26",
"K.	c #508826",
"L.	c #497B26",
"M.	c #599527",
"N.	c #558D2B",
"O.	c #578F2B",
"P.	c #58902B",
"Q.	c #5A942C",
"R.	c #5B952C",
"S.	c #4B7F27",
"T.	c #477927",
"U.	c #69A72E",
"V.	c #4C8223",
"W.	c #4D8326",
"X.	c #528A25",
"Y.	c #4F8625",
"Z.	c #447525",
"`.	c #508726",
" +	c #4F8429",
".+	c #508629",
"++	c #51872A",
"@+	c #53892A",
"#+	c #528829",
"$+	c #3F6E24",
"%+	c #3B6923",
"&+	c #64A22D",
"*+	c #629F2D",
"=+	c #67A62E",
"-+	c #5B952B",
";+	c #58912B",
">+	c #386422",
",+	c #569223",
"'+	c #487D22",
")+	c #4B7F25",
"!+	c #4E8524",
"~+	c #487A24",
"{+	c #406F23",
"]+	c #497B28",
"^+	c #4A7D28",
"/+	c #4B7E28",
"(+	c #477A27",
"_+	c #3C6A24",
":+	c #5F9B2C",
"<+	c #619C2D",
"[+	c #59912B",
"}+	c #558D2A",
"|+	c #52892A",
"1+	c #376322",
"2+	c #549023",
"3+	c #457821",
"4+	c #487B24",
"5+	c #497D23",
"6+	c #427223",
"7+	c #407122",
"8+	c #467A23",
"9+	c #437326",
"0+	c #447426",
"a+	c #3F6D25",
"b+	c #345F21",
"c+	c #5E982C",
"d+	c #548C2A",
"e+	c #568D2A",
"f+	c #5A932C",
"g+	c #548A2A",
"h+	c #508529",
"i+	c #518C21",
"j+	c #3D6D20",
"k+	c #487C23",
"l+	c #477C22",
"m+	c #396422",
"n+	c #3F7021",
"o+	c #427421",
"p+	c #3D6A24",
"q+	c #5A932B",
"r+	c #4E8328",
"s+	c #52882A",
"t+	c #538A2A",
"u+	c #548B2A",
"v+	c #4E8329",
"w+	c #4A7E28",
"x+	c #497B27",
"y+	c #3D6B24",
"z+	c #3C6B20",
"A+	c #487C22",
"B+	c #407220",
"C+	c #3D6C20",
"D+	c #355F21",
"E+	c #578F2A",
"F+	c #487A28",
"G+	c #497C28",
"H+	c #4B7F28",
"I+	c #4D8128",
"J+	c #497C27",
"K+	c #467627",
"L+	c #548A29",
"M+	c #427226",
"N+	c #457526",
"O+	c #467727",
"P+	c #477827",
"Q+	c #457626",
"R+	c #416F25",
"S+	c #356021",
"T+	c #3E6F20",
"U+	c #518628",
"V+	c #3F6D24",
"W+	c #406F25",
"X+	c #417025",
"Y+	c #3F7120",
"Z+	c #508528",
"`+	c #3D6724",
" @	c #52782C",
".@	c #3C6923",
"      . . + @ # # # # $ % % % & * * * = = - - - ; ; > , , ,       ",
"  ' ' ' ' ' ' ' ' ' ' ' ' ' ' ' ' ' ' ' ' ' ' ' ' ' ' ' ' ' ' '   ",
"  ' ' ' ' ' ' ' ' ' ' ' ' ' ' ' ' ' ' ' ' ' ' ' ' ' ' ' ' ' ' '   ",
") ! ~ { ] ^ / ( _ : < [ } | 1 2 3 4 5 6 6 7 8 9 0 a b c d e f g h ",
"i ) ) ) ) j j j j j k l j j ) m n o p p p p p p p q r r o o o s t ",
"i ) u v w v x j j y w v w w w x z m w A B B B C C D E F G H I J K ",
"i L i i i i B M N O w v x x w P z Q R P S T U V S S W S S x w X Y ",
"i Z S ) w v O N N B i i i i i `  ...+.v w v x w w x v w w w w @.#.",
"i $.%.&.P W v w *.x w v x w w w j =.) N +.v x w w v w w w w i -.;.",
"i >.,.'.T ).+.w w S S w w w w v v !.~.N B i i i ` N O w {.i i ].K ",
"i ^./.(._._.:.<.[.}.X |.1.T S w w 2.3.v w v v w +.B i i i i i 4.5.",
"i 6.7.8.9.0.a.b.T w N B i i i i i O c.O i i i i i i i i i i i ).d.",
"i e.f.g.h.i.j.k.l.I &.m.n.).i i 4.o.p.E i i i i i i i i i i i n.q.",
"i 1 r.s.t.u.v.w.x.(.y.z.'.l.].A.B.C.D.m.i i i i i i i i i m.&.E.F.",
"i G.H.I.J.K.L.M.N.O.P.8.Q.R.S.;.T.C.D.m.i i ).).i i i i U.'.}.<.5.",
"i 5 V.W.X.Y.Z.`. +.+++@+#+$+t %+T.C.D.m.i i &+*+E.H &.=+n.(.-+;+>+",
"i ,+'+)+!+~+{+!+]+^+/+(+>+t t _+T.C.D.m.i i }.R.D.<.:+<+'.[+}+|+1+",
"i 2+3+4+5+6+7+8+9+0+a+b+t t t _+T.C.D.m.i i c+d+e+O.;+f+A.g+h+I.K ",
"  i+j+k+l+m+n+o+p+1+t t t t t _+T.C.D.m.i i q+r+ +.+s+t+u+v+w+x+y+",
"    z+A+3+b+B+C+D+t t t t t t _+T.C.D.m.i i E+F+G+w+H+I+r+J+K+0+  ",
"      o+o+b+B+t t t t t t t t _+T.C.D.m.i i L+M+0+N+O+P+F+Q+R+a+  ",
"        o+S+T+t t t t t t t t _+T.C.D.m.i i U+_+Y V+W+X+M+$+;.    ",
"            Y+t t t t t t t t _+T.C.D.m.i i Z+`+ @K .@p+Y         ",
"              t t t t t t t t y+T.C.D.m.i i                       ",
"                              V+T.C.D.m.i i                       ",
"                              V+T.C.D.m.i i                       ",
"                              V+T.C.D.m.i i                       ",
"                              V+T.C.D.m.i i                       ",
"                              V+T.C.D.m.i i                       ",
"                              V+T.C.D.m.i i                       ",
"                              V+T.C.D.m.i i                       "};
