/* XPM */
static char * gRealPhone_DownCorner_xpm[] = {
"58 49 104 2",
"  	c None",
". 	c #DD9CBF",
"+ 	c #E29FC4",
"@ 	c #EDA8CE",
"# 	c #F3ACD3",
"$ 	c #ECA6CC",
"% 	c #E3A1C5",
"& 	c #DA9ABC",
"* 	c #E19FC3",
"= 	c #EBA6CC",
"- 	c #F2ABD2",
"; 	c #E4A1C5",
"> 	c #D898BA",
", 	c #DF9EC1",
"' 	c #E8A4C9",
") 	c #F0AAD1",
"! 	c #E4A1C6",
"~ 	c #D596B7",
"{ 	c #DC9CBF",
"] 	c #E5A2C7",
"^ 	c #EEA8CF",
"/ 	c #D394B5",
"( 	c #DA9ABD",
"_ 	c #E2A0C4",
": 	c #E6A3C7",
"< 	c #D193B4",
"[ 	c #E09EC2",
"} 	c #E9A5CA",
"| 	c #F1AAD1",
"1 	c #D596B8",
"2 	c #EEA9CF",
"3 	c #ECA6CD",
"4 	c #E7A3C8",
"5 	c #D294B6",
"6 	c #DB9BBD",
"7 	c #ECA7CD",
"8 	c #F2ABD3",
"9 	c #D093B3",
"0 	c #D999BB",
"a 	c #E09FC2",
"b 	c #F1AAD2",
"c 	c #CE92B2",
"d 	c #D697B8",
"e 	c #DE9DC0",
"f 	c #EFA9D0",
"g 	c #E8A4CA",
"h 	c #D395B6",
"i 	c #DB9BBE",
"j 	c #EDA7CE",
"k 	c #D999BC",
"l 	c #EAA5CB",
"m 	c #EDA7CD",
"n 	c #CF92B2",
"o 	c #D797B9",
"p 	c #F0AAD0",
"q 	c #E9A5CB",
"r 	c #CE91B1",
"s 	c #D495B7",
"t 	c #DC9CBE",
"u 	c #E5A2C6",
"v 	c #EAA6CB",
"w 	c #D294B5",
"x 	c #D798B9",
"y 	c #E3A0C4",
"z 	c #EEA8CE",
"A 	c #D696B8",
"B 	c #E6A3C8",
"C 	c #ECA7CE",
"D 	c #D496B7",
"E 	c #D798BA",
"F 	c #DC9BBE",
"G 	c #DA99BC",
"H 	c #E3A0C5",
"I 	c #EFA9CF",
"J 	c #DF9DC1",
"K 	c #E9A4CA",
"L 	c #D697B9",
"M 	c #EFAAD0",
"N 	c #EFAAD1",
"O 	c #DF9EC2",
"P 	c #E4A2C6",
"Q 	c #EDA8CF",
"R 	c #CE92B1",
"S 	c #D194B5",
"T 	c #D194B4",
"U 	c #DE9DC1",
"V 	c #CD91B1",
"W 	c #CD91B0",
"X 	c #CC91B0",
"Y 	c #CF93B3",
"Z 	c #D496B6",
"` 	c #D99ABC",
" .	c #D899BB",
"..	c #DD9CBE",
"+.	c #E1A0C4",
"@.	c #CF93B2",
"#.	c #E6A2C7",
"$.	c #CD92B1",
"%.	c #D495B6",
"&.	c #E5A3C7",
"*.	c #DD9DC0",
"=.	c #D597B8",
"-.	c #DC9BBD",
";.	c #E7A4C8",
". + @ # # # # # # # $ %                                                                                             ",
"& * = - # # # # # # $ ;                                                                                             ",
"> , ' ) # # # # # # $ !                                                                                             ",
"~ { ] ^ # # # # # # $ ]                                                                                             ",
"/ ( _ = - # # # # # $ : :                                                                                           ",
"< > [ } | # # # # # $ : :                                                                                           ",
"  1 . : 2 # # # # # 3 4 4                                                                                           ",
"  5 6 % 7 8 # # # # 3 4 4                                                                                           ",
"  9 0 a } b # # # # 3 4 '                                                                                           ",
"  c d e 4 f # # # # 7 g g                                                                                           ",
"    h i ! j 8 # # # 7 g g                                                                                           ",
"    < k * l - # # # m } }                                                                                           ",
"    n o , ' p # # # m } q q                                                                                         ",
"    r s t u @ # # # j q l v                                                                                         ",
"      w & _ = - # # j v v v                                                                                         ",
"      9 x , ' ) # # @ v v =                                                                                         ",
"        ~ . ] ^ # # @ = = =                                                                                         ",
"        w & y = - # z = = =                                                                                         ",
"        < > [ } | # z = $ $ 7                                                                                       ",
"          A e B f # z $ 7 C C                                                                                       ",
"          D 6 ; 7 8 ^ C C j j                                                                                       ",
"            0 * l ) ^ j j j j                                                                                       ",
"            E e B 7 ^ j j j ^                                                                                       ",
"              F _ ' 3 j ^ ^ ^ ^                                                                                     ",
"              G e H g 7 ^ ^ 2 I                                                                                     ",
"                & J % K j I I f                                                                                     ",
"                L & J ! } @ M N                                                                                     ",
"                  d ( O P } Q ) )                                                                                   ",
"                    L 6 [ P } ^ )                                                                                   ",
"                    h L 6 [ P } ^                                                                                   ",
"                      / L 6 [ P } j                                                                                 ",
"                        w L 6 , ! g                                                                                 ",
"                        R S L ( J % 4                                                                               ",
"                          r T A & U _                                                                               ",
"                            V < 1 k e *                                                                             ",
"                              W 9 ~ 0 . [                                                                           ",
"                                X Y Z > F J                                                                         ",
"                                  X n h o 6 e                                                                       ",
"                                    X R w d ` .                                                                     ",
"                                      X V 9 D > F e                                                                 ",
"                                        X X n h o & e [                                                             ",
"                                          X X R T 1  ..., +.                                                        ",
"                                              X W @.h x & e * %                                                     ",
"                                                  X R T ~ > F , _ #.'                                               ",
"                                                    X W n h d 0 . [ H B } = =                                       ",
"                                                          $.9 %.x & . [ % B } v v v l q } g g ' 4 4 B : &.! ; % % _ ",
"                                                              n w D E ( *.a H B } v 7 @ 2 f f I I I I I 2 ^ ^ ^ ^ z ",
"                                                                    %.=.E ( . [ _ ] g = j p - 8 # # # # # # # # # # ",
"                                                                              -.e [ +.! ;.K } l l } } } g ' ' ' 4 4 "};
