/* XPM */
static char * gDelete_xpm[] = {
"20 20 11 1",
" 	c None",
".	c #FF0000",
"+	c #FF0200",
"@	c #FF0800",
"#	c #FF0D00",
"$	c #FF0600",
"%	c #FF0300",
"&	c #FF0700",
"*	c #FF0100",
"=	c #FF0500",
"-	c #FF0900",
"                    ",
"         ......     ",
"    . ...........   ",
"    ...+@#$%.....   ",
"   &*..%       .... ",
"   .....        ..  ",
"  +......       ... ",
"  *... ...       .. ",
" ++..  ...      ... ",
" .=..   ...     ... ",
" .$..    ...    ... ",
" . *.     ...  .... ",
"  ..*      ..+....  ",
" ...*=      .....   ",
"   ..-*.   -.....   ",
"    ....+++.....    ",
"    .......... .    ",
"     ........       ",
"                    ",
"                    "};
