/* XPM */
static char * gEdit_xpm[] = {
"20 20 101 2",
"  	c None",
". 	c #000000",
"+ 	c #C0B4AD",
"@ 	c #8D6D68",
"# 	c #AA5B4F",
"$ 	c #B96255",
"% 	c #C2C0B2",
"& 	c #AAA89C",
"* 	c #3B3B3B",
"= 	c #AB928D",
"- 	c #913120",
"; 	c #862F21",
"> 	c #CF523E",
", 	c #B3B0A3",
"' 	c #D8D5C5",
") 	c #C3AEA8",
"! 	c #611E12",
"~ 	c #983525",
"{ 	c #E39A8E",
"] 	c #A9A79B",
"^ 	c #D3D0C1",
"/ 	c #B3958F",
"( 	c #A23521",
"_ 	c #882F21",
": 	c #DB7E70",
"< 	c #837370",
"[ 	c #A8A69A",
"} 	c #D2CFC0",
"| 	c #E3DCDA",
"1 	c #BDA6A1",
"2 	c #A28E8A",
"3 	c #CA7C73",
"4 	c #E4A49B",
"5 	c #776259",
"6 	c #AFADA0",
"7 	c #D6D3C4",
"8 	c #242424",
"9 	c #E1E1E1",
"0 	c #CCCCCC",
"a 	c #B8B8B8",
"b 	c #E0D7D6",
"c 	c #9E9493",
"d 	c #9D9B90",
"e 	c #BFBCAE",
"f 	c #CABCA1",
"g 	c #D8A944",
"h 	c #AC8C3A",
"i 	c #EACE79",
"j 	c #D6D6D6",
"k 	c #78655B",
"l 	c #ACAA9E",
"m 	c #D0CEBF",
"n 	c #434343",
"o 	c #BEAB88",
"p 	c #797979",
"q 	c #BEBBAE",
"r 	c #C7B492",
"s 	c #EFDDA2",
"t 	c #7B7461",
"u 	c #CFCDBE",
"v 	c #DBC090",
"w 	c #868479",
"x 	c #9C9A8F",
"y 	c #BBB9AB",
"z 	c #D4C49F",
"A 	c #F7EFD6",
"B 	c #7A745E",
"C 	c #CECCBD",
"D 	c #C8C5B7",
"E 	c #E3D2B9",
"F 	c #858173",
"G 	c #7C7A72",
"H 	c #6E6E6E",
"I 	c #A07E57",
"J 	c #B99569",
"K 	c #BDA88F",
"L 	c #9B8367",
"M 	c #B39E86",
"N 	c #B89F83",
"O 	c #CBB090",
"P 	c #D4CDB7",
"Q 	c #8D8571",
"R 	c #ADAB9E",
"S 	c #9E9182",
"T 	c #B4ACA3",
"U 	c #DAD4C1",
"V 	c #94886F",
"W 	c #A6A498",
"X 	c #C3C1B3",
"Y 	c #6F6B67",
"Z 	c #9E9D9C",
"` 	c #948A74",
" .	c #A4A296",
"..	c #C0BDAF",
"+.	c #D9D7C7",
"@.	c #5B5956",
"#.	c #817F75",
"$.	c #D9D6C6",
"%.	c #76746B",
"&.	c #6F6E66",
"*.	c #C4C2B4",
"                    . + @ # $ . %       ",
"                  & * = - ; > . , '     ",
"                  . ) ! ~ > { . ] ^     ",
"                & * / ( _ : < . [ }     ",
"                . | 1 2 3 4 . 5 6 7     ",
"              & 8 9 0 a b c . d e       ",
"              . f g h i j . k l m       ",
"            & n o g h i p . d q         ",
"            . r g h i s . t & u         ",
"          & n v g h i w . x y           ",
"          . z g h i A . B & C           ",
"        D n E g h i F . d q             ",
"        G H I J J A . B l m             ",
"        . K L J A F . d q               ",
"        . M N O P . Q R m               ",
"        . S T U . V W X                 ",
"        . Y Z . `  ...+.                ",
"        . @.. #.W ..$.                  ",
"        . . %.[ X                       ",
"        . &.& *.                        "};
