/* XPM */
static char * button_xpm[] = {
"20 20 69 1",
" 	c None",
".	c #000000",
"+	c #170000",
"@	c #300000",
"#	c #0B0000",
"$	c #AD0000",
"%	c #FF0000",
"&	c #FA0000",
"*	c #F70000",
"=	c #F50000",
"-	c #F10000",
";	c #C80000",
">	c #240000",
",	c #E90000",
"'	c #F40000",
")	c #F80000",
"!	c #EF0000",
"~	c #E30000",
"{	c #D70000",
"]	c #CB0000",
"^	c #B40000",
"/	c #430000",
"(	c #890000",
"_	c #EB0000",
":	c #F20000",
"<	c #F30000",
"[	c #E10000",
"}	c #D60000",
"|	c #BF0000",
"1	c #B30000",
"2	c #140000",
"3	c #880000",
"4	c #DA0000",
"5	c #E70000",
"6	c #DB0000",
"7	c #D10000",
"8	c #C70000",
"9	c #BC0000",
"0	c #B10000",
"a	c #250000",
"b	c #DF0000",
"c	c #DC0000",
"d	c #D90000",
"e	c #D30000",
"f	c #CA0000",
"g	c #C10000",
"h	c #B70000",
"i	c #810000",
"j	c #0F0000",
"k	c #660000",
"l	c #CE0000",
"m	c #C90000",
"n	c #C20000",
"o	c #BA0000",
"p	c #A50000",
"q	c #2F0000",
"r	c #1F0000",
"s	c #690000",
"t	c #A20000",
"u	c #960000",
"v	c #8A0000",
"w	c #580000",
"x	c #150000",
"y	c #8F0000",
"z	c #5F0000",
"A	c #3F0000",
"B	c #4F0000",
"C	c #6F0000",
"D	c #7F0000",
"                    ",
"                    ",
"                    ",
"                    ",
"      .+@@@@+.      ",
"   ..#$%&*=-;>..    ",
"  ..+,')&!~{]^/...  ",
" ...(_,:<_[}]|12... ",
" ...34[55~678902... ",
"....a7,bcdefghi.....",
"....jk%<{lmnop2.....",
"....qr+s$tuvwxq.... ",
" ....qyzAAAABCr.... ",
" ......BDDDCr.....  ",
"  ...............   ",
"    ............    ",
"      .......       ",
"                    ",
"                    ",
"                    "};
