/* XPM */
static char * icon_internet_xpm[] = {
"100 100 70 1",
" 	c None",
".	c #000000",
"+	c #111B29",
"@	c #1B2818",
"#	c #182632",
"$	c #2E2F2F",
"%	c #1B3352",
"&	c #1C4013",
"*	c #235910",
"=	c #33532B",
"-	c #246E10",
";	c #367028",
">	c #2B4C71",
",	c #46723A",
"'	c #5D6261",
")	c #003BFF",
"!	c #33578C",
"~	c #0147FF",
"{	c #035BFF",
"]	c #0569FF",
"^	c #0879FF",
"/	c #4A72A2",
"(	c #278815",
"_	c #3F874E",
":	c #469136",
"<	c #538F4E",
"[	c #538E6D",
"}	c #59A64E",
"|	c #639056",
"1	c #6C9270",
"2	c #67AE5A",
"3	c #77AF6F",
"4	c #268FAA",
"5	c #13A8F6",
"6	c #15CCFE",
"7	c #658CAB",
"8	c #51B0CA",
"9	c #6F97C4",
"0	c #7AA4CD",
"a	c #52D0EF",
"b	c #809B79",
"c	c #84B479",
"d	c #88C17C",
"e	c #8B9292",
"f	c #849AAB",
"g	c #90B88B",
"h	c #96A9A9",
"i	c #A2BA9A",
"j	c #ACB7B7",
"k	c #8FB2D4",
"l	c #96BCE1",
"m	c #A3BBD6",
"n	c #96C58D",
"o	c #9DC1AF",
"p	c #A3CA9A",
"q	c #B3D3AE",
"r	c #BEE0BB",
"s	c #99C5D8",
"t	c #98C9E6",
"u	c #80F0F4",
"v	c #B7C5C7",
"w	c #B3D0EA",
"x	c #C2D8BC",
"y	c #C3E1BC",
"z	c #CDD5D2",
"A	c #C7DAED",
"B	c #D1E7CF",
"C	c #DCE5E7",
"D	c #E1EBDD",
"E	c #E9EFF0",
"                                                                                                    ",
"                                              CCCCzzzzzzzBzD                                        ",
"                                          DzzCEEEEEEEEEEEDDDzxzB                                    ",
"                                       DzBEEEEEEEEEEEEEEEEEEEEEDxxD                                 ",
"                                     zzDDEEEEEEEEEEEEEEEEEEEEEDEEDBxz                               ",
"                                   xxBDDDEEEEEEEEEEEEEEEEEEEEECDDDBBBqx                             ",
"                                 xxBBBBDEEEEEEEEEEEEEEEEEEEEEECCCCCBBBzqz                           ",
"                               CwBBBBBBDEDDEDEEEEEEEEDEEEEEDDECCCCCCBzyxxi                          ",
"                              zACBBBBBBDEBDEDDDDDDBDBBBDDEECCCCCCCCBBxxxxxix                        ",
"                             mACByyBBBBBBBBDEBBDEDBBBBBBBEECCCCCCByxxxxxxxxig                       ",
"                           CkwCzxxyByBBBBBBBDDBEEEBBBBBBBDECCCCCCBxxxxxxqqqqi1                      ",
"                          CkwCzxxxyxyyBBBBBDBBBEEEEBBBBBBBECCCCAACyxxyqqqqqqqg|                     ",
"                         C0mAzxxxxxxyyyyBBBDBBBDEEEBBBBBByCCCCAAAAzrryxqqqqqppb,                    ",
"                        C0kAzxqqxxxxyyyyyBBBBBBBEEEBBBByyyDCCAAAAAAxqqyxqqpppii<<                   ",
"                        00wAxqqqqxxryyyyyyBDEBBBEEEBBByyyBCCCCAAAAAxqqqyxpppppic,1                  ",
"                       09kAxqqqqqqqrrryBCBBEEBBBDEEBByyBBCCByBCAAAAzqqqqzqppinig|-b                 ",
"                      k90wvppqqqqqqqrrBEEEEEEDBDEEEByyBCCCCByBAAAAAAxqxqxqpnnnngc;-g                ",
"                     z99kvppppqqqqqqqBEEEECBDEBEEEEByyBECCAACAAAAAzzAwzpppnnnnggib,*z               ",
"                     090oiippppqqqqqqyEEECyyyEEEEEEEByCCCCAAAAAAAArqzwwqnnnnngggvf_*;               ",
"                    099fcnippppppqqqqqBEEBrrBDDEEEEECBCCCAAAAAAAwAzqqxzqnnngggccph;-*b              ",
"                   z99f<3nnnnppppppqqqqBCrrrryyEEEEEEECCCAAAAAAwwwqrqpqpngddcccccc;***              ",
"                   9991:cgngnnpppppqpqqrrqqrrqrEEEEEECCAAAAAAAAwwwqnxpnndddccc3332;--*|             ",
"                  v999<:3gggnnnnppppppqrqqqb=@@DEEECCCCAAAAAAAwwwwvpvpnddddccgg333,-;-*z            ",
"                  7997::3cddggnnnppppppp1=....'EBECCCAAAAAAAAwwwwwwwmvnddcc33dgc33b_',*|            ",
"                 z7791;:2ccddgnnnnnng|=....'ezC@'CAAAAAAAAAAwwwwwwmmmmmog333oo33ib1!!!-*            ",
"                 9779[;:|3cccdddnc|$....'ezCCCC..AAAAAAAAAAwwwwwwmmmmmmmo33gooobh7/!!!;*b           ",
"                 7779<;:<33ccc3,$...@'hCCCCCCCC'.1AAAAAAAAwwwwwwtmmmmmmon33h0gobg7!![_-;;           ",
"                m/779_;::23|,@...@'hCCCCCCCCCCCz.@AAAAAAAwwwwwwwmmmmkmc322dk9fhge/!_;-*;<x          ",
"                77777,;:;=@...@'jCCCCCCCCCC'zCCC'.fAAAAAwwwwwwwmmmlkko3222ch9e2cf/!_----<g          ",
"                //777;&....@'jCCCCCCCCCj'@f$1CCCj.$AAAwwwwwwwwtmmlkkkkh22}2hf}}<|[1[----*|          ",
"               v///%+...$'vCCCCCCCCCv'@.%467@CCCC$.hwwwwwwwwttmmlkkkkkh2}}23}}::(-(;---***          ",
"               e%+...$1vCCCCCCCCCv1$.%4auuaa@eCCCe.>wwwwwwtttlslkkkk000f333}:::(-------***i         ",
"            v'@...#1vCCCCCCCCCzb$.%46aa666u6/$CCCC@.mwwwwtttlllkkkk000990f}:::((--------**b         ",
"         j'@...#'jCCCCCCCCCze$.#45666666666aa+hCCC1.'wwttttlllkkkk000999f}:::((((-------**,         ",
"      j'@...=ezzCCCCCCCCze=.#!566666666666666'$CCCz..ltttllllkkk000099997:::(((((-------**=         ",
"   j'....'hCCCCCCCCCCzh'.#!566666666666666666a.jCCC'./tllllkkkk0000999771::((((((-------***         ",
"j'....'hCCCCCCCCCCCh'.+>8666666666666666666666''CCCv.+llllkkkk0000999777[((((((((-------***         ",
"@.@'jECCCCCCCCCCj'@+>86666666666666666666666668.vCCC$.7kkkkk000099997777:(((((((--------***z        ",
"zjEECCCCCCCCCj'@.>46666666666666666666666666666='CCCh.$kkk0000099997777[((((((((--------***x        ",
"h$zCCCCCCCv'@.>4a6666666666666666666666666666668.zCCC@.7k00000999977777_((((((((--------***v        ",
"e.'CCCCCC'.=/a6666666666666666666666666666666666$1CCCe.%0000099999777/7:(((((((---------***x        ",
" ..CCCCC'oa66666666666666666666666666666666666667@zCCC..900999997777//[(((((((((-------****x        ",
" 1.1CCCC$166666666666666666a66666666666666666666a$eCCC'.>09999977777//_((((((((-------*****z        ",
"  .+CCCCe@a666666666666666a66666666666666666666667@CCCz.+9999977777///[(((((((((-------****         ",
"  '.eCCCC@e66666666666666666666666666666666666666a@eCCC'.!9997777//////_(((((((-------*****         ",
"   .@ECCCe$a66666666666666666666666666666666666666[$CCCj.+997777///////_((((((--------****=         ",
"   '.eCCCz@f66666666666666666666666666666666666666a.jCCC$./7777////////_((((((--------****|         ",
"    .@ECCC'$a6666666666666666666666666a666666666666'=CCCe.#77//////////:((((((-------*****b         ",
"    =.hCCCz.h6666666666666666666666666a6666666666668.vCCC@.////////////:(((((-----;--*****j         ",
"    v.$ECCC''a66666666666666666666666666666666666666''CCC1.%/////////!/[(((((----_!';*****          ",
"     $.jCCCv.s666666666666666666666666666666666666668.zCCz..////////!!!![;(-----_!>!'****,          ",
"     j.$ECCC='a66666666666666666666666666666666666666='CCC'.>//////!!!!!!/_(---_!>>>>****e          ",
"      $.vCCCj.s666666666666666666666666666666666666a7heCCCv.#/////!!!!!!!!!'__>!>>>>!;***           ",
"      h.=ECCC$1a656666666666666666666666666666666a'@@vCCCCC1v9///!!!!!!!!!!!!!>>>>>>!>**,           ",
"       @.zCCCh@t65666666666666666666666666666668'.$hCCCCCe$.j1%!!!!!!!!!!!>>>>>>>>>>>!,*i           ",
"       e.'ECCC@e66]6666666666666666666666666a/$.'jCCCCCe@..$C@..%!!!!!!!!>>>>>>>>>>>>!,=            ",
"        @.zCCCe$t6^56666666666666666666666a[+@1zCCCCz'+..'vEEz'...#>!!!!!>>>>>>>>>>>>!=b            ",
"        e.'ECCz+h66~566666666666666666668>.$hCCCCCv'...'zECzjjzC1...+>!!>>>>>>>>>>>>!>=             ",
"         ..CCCC1$u6^]6666666666666666a/$.'jCCCCCj'...1zECCzjjjzvECe@..+%>>>>>>>>>>>>>=g             ",
"         1.1ECCz.j65)^6666666666666a!@@1zCCCCCh$..@eCCCzjjzzvj$'CCCEe@..+%>>>>>>>>>!,;              ",
"          ..CCCC''u6]~566665^55668>.$eCCCCCCe$..$eECCCzjjjzjCejCCCCCCEh$...%>>>>>>>!=v              ",
"          '.eECCv.v65){5^{~^56a/$.'jCCCCCCe@..$jECCvjjzvve$eCCCCCzvjzCCEj$...%>>>>>!b               ",
"           .@ECCC''a6])){566a!@@1zCCCCCz1...'vECCCvjjjjjCezCCCCCzjjj'1CCCEv'...#>>>/                ",
"           '.eECCj.w65^5668>.$eCCCCCCz'...'zECCvjvzvv'$jCCCCCzvjzzz$1jvCCvCEz'...+>z                ",
"            .@ECCC$1a666/$.'jCCCCCEv'...1zECCCvjjjeCCjCCCCCCzjjh'vCvjjve$bvzCEz'...'                ",
"            '.hCCCh@wa!@@1zCCCCCEj$..@eCCCCvjvzve$'CCCCCCzvjzze$ejvCvjC1jjjjevCECb+..'v             ",
"            v.$ECCC$j@$eCCCCCCEh$..$eECCCCjjjvCCvzCCCCCCzjjjvCCvjjve$evzzvh$'zCCCCCe@..$j           ",
"             $.jCCCCCzCCCCCCCe@..$jECCCvjzzvh$eCCCCCCzvjzzh$'jvCvzz'jjjjezvhjjzj$vCCEh$..$          ",
"             j.$ECCCCCCCCEC1+..'vECCCCjjjvCz'vCCCCCCCjjjvC1hjjj1$vvzzvh$'zzvvzj'vCCCCCEj$.v         ",
"              $.vCCCCCCEz'...'zECCCvjzzvj'eCCCCCCzvjzzh$1vvzzze1vjjhhCvhjjzh$zCCCCCCCCCEzz'=        ",
"              h.=ECCCEv'...1zECCCCjjjvCz'jCCCCCCCjjjvC'hjjjjhCvzzv1$ezzvjzh'vCCCCCCCCCE1.+j.e       ",
"               $.zCEj$..@eCCCCzvjvvve$hCCCCCCCvjzze$evvCzz'$hjjjzCejjjzh$CCCCCCCCCCCEj@..eE'$       ",
"               e.'v$..$eECCCCCjjjvCv'zCCCCCCCjjjvC'jjjjjjzezzvh=jzzvjze'vzjjCCCCCCEz'..'zvjh.       ",
"                $'1.$jECCCzvjzzv1$vCCCCCCCvjzze$evvzzv'$hjjjCj$ejjzeeCCzvjj'=CCCCEb..@jzjjze@       ",
"                evevECCCCzjjjvCj1zCCCCCCCjjjvz'jjjjhvzezzvh'vzzvjz$'zCvjj'.=vCCEj@..ezvjjzE$'       ",
"               '='.@eECCCCvv1$jCCCCCCCzjzze$jvvzzv'$jjjjCh$ejjzzCCzCzjje$@hCCEz'..'vvjjze@'e        ",
"               @hh'..@hECCCv1zCCCCCCCvjjvj'vjjjhzzezzvh'zzzvjv1$zCzvjh=.1CCCEe..@hvjjvj$..e         ",
"               .zjee$..$jECCCCCCCCzvzzh=evvzzj'=jjjjze$ejjzzCheCzvjj'.'vCCEj$..1zjjjz'..$z          ",
"               @eChee1$..=zECCCCCvjjjz$hjjjhzzezzvh'zzCvjv'$CCCvjje@$hCCCz'..=vjjjze+.@h            ",
"               1.zehfee'@..'CECCCzj'=zvCzj='vjjjz1$ejjzzCeeCCzjjh=.1CCCEe..@hvjjvj$..'              ",
"                'h..'hfee'@..1CECC'1jjjjzvhzzve'CzCvjj'$CCCzvjj'.'zCCEj$..'vjjvv'..$                ",
"                  e@..'heee'..@eECCCvj1$hvjjz'=hjjvzC1eCCCvjje@$jCCCz'..=jjjjze..@h                 ",
"                    b..@1heee'..@hECCz1zzvjeCvCvjj''CCCCzjjh$+eCCCEe..@ejjjvj$..1                   ",
"                      '..@eheee=..$jECCCCh$'jjvCz'eCCCzvjj'.'zCCEj$..'jjjvv'..=                     ",
"                        '..$ehefe$..=zECCjzjjj1bCCCCCCzve@$jCCCC'..$hjjjze..@j                      ",
"                         v$..=hhehb@..'CECCCz$'zCCCCCCCCeeCCCEe..@ejjjvj$..1                        ",
"                           j$..'hfeh1@..1EECCCCCCCCCCCCCCCCCv$..'jjjvv'..'                          ",
"                             e@..'jeeh'..@eEECCCCCCCCCCCCCz'..$hjjjz1..@j                           ",
"                               b..@1jeeh'..@hEECCCCCCCCCCe@.@1jjjvh@..e                             ",
"                                 '..@ejefh'..$jEECCCCCCv$..'jjjvv'..'                               ",
"                                   '..$hhehe$..=zECCCz'..$hjjjz1..$j                                ",
"                                    v$..=hhehe$..'EEz@.@1jjjvh@..e                                  ",
"                                      j$..'jheh1@.'.e@'jjjvv=..'                                    ",
"                                        e@..'jfeheC@'Cjjjz1..$j                                     ",
"                                          e..+bjeej'.zjvh@..e                                       ",
"                                            '..@eje1.zv=..'                                         ",
"                                              '..$he.1..$j                                          ",
"                                               v$.@'+e@e                                            ",
"                                                 jv11                                               ",
"                                                                                                    "};
