/* XPM */
static char * gFileNotFound_xpm[] = {
"64 75 99 2",
"  	c #000000",
". 	c #FF0000",
"+ 	c #F20000",
"@ 	c #150000",
"# 	c #860000",
"$ 	c #D30000",
"% 	c #F50000",
"& 	c #F40000",
"* 	c #0D0000",
"= 	c #EC0000",
"- 	c #630000",
"; 	c #340000",
"> 	c #EA0000",
", 	c #E80000",
"' 	c #310000",
") 	c #8E0000",
"! 	c #C90000",
"~ 	c #0F0000",
"{ 	c #E30000",
"] 	c #C70000",
"^ 	c #420000",
"/ 	c #0B0000",
"( 	c #430000",
"_ 	c #E20000",
": 	c #290000",
"< 	c #2E0000",
"[ 	c #750000",
"} 	c #CE0000",
"| 	c #070000",
"1 	c #080000",
"2 	c #D10000",
"3 	c #740000",
"4 	c #C30000",
"5 	c #940000",
"6 	c #C40000",
"7 	c #520000",
"8 	c #540000",
"9 	c #C20000",
"0 	c #5E0000",
"a 	c #EF0000",
"b 	c #ED0000",
"c 	c #160000",
"d 	c #FB0000",
"e 	c #040000",
"f 	c #930000",
"g 	c #EE0000",
"h 	c #140000",
"i 	c #2D0000",
"j 	c #510000",
"k 	c #530000",
"l 	c #C80000",
"m 	c #8F0000",
"n 	c #7B0000",
"o 	c #D00000",
"p 	c #730000",
"q 	c #620000",
"r 	c #E60000",
"s 	c #0A0000",
"t 	c #CA0000",
"u 	c #F10000",
"v 	c #320000",
"w 	c #970000",
"x 	c #170000",
"y 	c #8A0000",
"z 	c #D50000",
"A 	c #F60000",
"B 	c #890000",
"C 	c #FE0000",
"D 	c #DB0000",
"E 	c #A40000",
"F 	c #490000",
"G 	c #B80000",
"H 	c #010000",
"I 	c #7C0000",
"J 	c #BE0000",
"K 	c #1E0000",
"L 	c #E40000",
"M 	c #5B0000",
"N 	c #5F0000",
"O 	c #BB0000",
"P 	c #090000",
"Q 	c #FC0000",
"R 	c #1A0000",
"S 	c #EB0000",
"T 	c #F30000",
"U 	c #B50000",
"V 	c #D40000",
"W 	c #4C0000",
"X 	c #4E0000",
"Y 	c #D20000",
"Z 	c #DC0000",
"` 	c #DD0000",
" .	c #280000",
"..	c #B60000",
"+.	c #1B0000",
"@.	c #9F0000",
"#.	c #E70000",
"$.	c #A50000",
"%.	c #480000",
"                                                                                                                                ",
"                                                                                                                                ",
"                                                                                                                                ",
"                                                                                                                                ",
"                                                                                                                                ",
"                                                                                                                                ",
"                                                                                                                                ",
"                              . . . . . . . .   . . . . . .       . .                 . . . . . . . .                           ",
"                              . . . . . . . .   . . . . . .       . .                 . . . . . . . .                           ",
"                              . .                   . .           . .                 . .                                       ",
"                              . .                   . .           . .                 . .                                       ",
"                              . .                   . .           . .                 . .                                       ",
"                              . . . . . . .         . .           . .                 . . . . . . . .                           ",
"                              . . . . . . .         . .           . .                 . . . . . . . .                           ",
"                              . .                   . .           . .                 . .                                       ",
"                              . .                   . .           . .                 . .                                       ",
"                              . .                   . .           . .                 . .                                       ",
"                              . .                   . .           . .                 . .                                       ",
"                              . .               . . . . . .       . . . . . . . .     . . . . . . . .                           ",
"                              . .               . . . . . .       . . . . . . . .     . . . . . . . .                           ",
"                                                                                                                                ",
"                                                                                                                                ",
"                                                                                                                                ",
"                                                                                                                                ",
"                                                                                                                                ",
"                                                                                                                                ",
"                                                                                                                                ",
"                                                                                                                                ",
"                                                                                                                                ",
"                                                                                                                                ",
"                                                                                                                                ",
"                                                                                                                                ",
"                              . . +         . .           @ # $ % & $ # *       . . . . . . . . . . . .                         ",
"                              . . = -       . .         ; > . . . . . . , '     . . . . . . . . . . . .                         ",
"                              . . ) !       . .       ~ { . ] ^ / / ( ! . _               . .                                   ",
"                              . . : . <     . .       [ . } |         1 2 . 3             . .                                   ",
"                              . .   4 5     . .       6 . 7             8 . 9             . .                                   ",
"                              . .   0 a     . .       b . @             c . b             . .                                   ",
"                              . .     a 0   . .       d . e             e . d             . .                                   ",
"                              . .     f 6   . .       g . h             c . =             . .                                   ",
"                              . .     i . : . .       ] . j             k . 9             . .                                   ",
"                              . .       l m . .       n . } |         1 o . p             . .                                   ",
"                              . .       q b . .         r . l ( s s ( t . {               . .                                   ",
"                              . .         u . .         ; > . . . . . . , v               . .                                   ",
"                              . .         w . .           x y z A A z B @                 . .                                   ",
"                                                                                                                                ",
"                                                                                                                                ",
"                                                                                                                                ",
"                                                                                                                                ",
"                                                                                                                                ",
"                                                                                                                                ",
"                                                                                                                                ",
"                                                                                                                                ",
"                                                                                                                                ",
"                                                                                                                                ",
"                                                                                                                                ",
"                                                                                                                                ",
"    . . . . . . . .       @ # $ % & $ # *           . .           . .         . . +         . .         . . . C % D E F         ",
"    . . . . . . . .     ; > . . . . . . , '         . .           . .         . . = -       . .         . . . . . . . . G       ",
"    . .                 { . ] ^ / / ( ! . _         . .           . .         . . ) !       . .         . .   H / < I b . J     ",
"    . .               [ . } |         1 2 . 3       . .           . .         . . : . <     . .         . .           K L . M   ",
"    . .               6 . 7             8 . 9       . .           . .         . .   4 5     . .         . .             N . O   ",
"    . . . . . . .     b . @             c . b       . .           . .         . .   0 a     . .         . .             c . b   ",
"    . . . . . . .     d . e             e . d       . .           . .         . .   P a 0   . .         . .             e . Q   ",
"    . .               g . h             c . =       . .           . C         . .     f 6   . .         . .             R . S   ",
"    . .               ] . j             k . 9       & .           . T         . .     i . : . .         . .             - . U   ",
"    . .               n . } |         1 o . p       V . W       X . Y         . .       l m . .         . .           K r . j   ",
"    . .                 r . l ( s s ( t . {         y . Z ;   ; ` . y         . .       q b . .         . .     s  .p S . ..    ",
"    . .                 ; > . . . . . . , v           _ . . . . . L *         . .         u . .         . . . . . . . . U       ",
"    . .                   x y z A A z B @             +.@.#.d #.@.+.          . .         w . .         . . . C A ` $.%.        ",
"                                                                                                                                ",
"                                                                                                                                ",
"                                                                                                                                ",
"                                                                                                                                ",
"                                                                                                                                "};
