/* XPM */
static char * LED_shiny_xpm[] = {
"26 11 171 2",
"  	c None",
". 	c #B68E06",
"+ 	c #BC9205",
"@ 	c #C19605",
"# 	c #C69B05",
"$ 	c #CA9D05",
"% 	c #CEA104",
"& 	c #D1A304",
"* 	c #D3A504",
"= 	c #D4A603",
"- 	c #D4A503",
"; 	c #D3A403",
"> 	c #D0A304",
", 	c #CDA005",
"' 	c #C99D04",
") 	c #C59905",
"! 	c #B48C06",
"~ 	c #B99106",
"{ 	c #BF9605",
"] 	c #C59A05",
"^ 	c #CB9E05",
"/ 	c #D0A203",
"( 	c #D4A504",
"_ 	c #D7A803",
": 	c #DAAA03",
"< 	c #DBAB03",
"[ 	c #D7A703",
"} 	c #CFA104",
"| 	c #C49A04",
"1 	c #BF9506",
"2 	c #B89006",
"3 	c #A98507",
"4 	c #B08A07",
"5 	c #B68F06",
"6 	c #BD9406",
"7 	c #C39805",
"8 	c #CA9D04",
"9 	c #D0A104",
"0 	c #D5A603",
"a 	c #DEAD03",
"b 	c #E1AE02",
"c 	c #E3B003",
"d 	c #E3AF02",
"e 	c #E0AE02",
"f 	c #DDAB03",
"g 	c #D8A904",
"h 	c #CEA004",
"i 	c #C89C04",
"j 	c #C29705",
"k 	c #BB9305",
"l 	c #B58D06",
"m 	c #AE8907",
"n 	c #A78408",
"o 	c #AB8707",
"p 	c #B28C07",
"q 	c #B99105",
"r 	c #C09605",
"s 	c #CDA004",
"t 	c #D9A903",
"u 	c #DFAE02",
"v 	c #E4B102",
"w 	c #E8B402",
"x 	c #E9B602",
"y 	c #E9B501",
"z 	c #E7B302",
"A 	c #DEAC02",
"B 	c #D8A803",
"C 	c #D1A303",
"D 	c #CB9E04",
"E 	c #C49A05",
"F 	c #BE9405",
"G 	c #B79006",
"H 	c #B18B07",
"I 	c #AA8506",
"J 	c #A78307",
"K 	c #AD8807",
"L 	c #B38D06",
"M 	c #C19805",
"N 	c #C99D05",
"O 	c #CFA204",
"P 	c #D6A703",
"Q 	c #DDAC02",
"R 	c #E3B002",
"S 	c #E9B502",
"T 	c #EEB802",
"U 	c #F0BB01",
"V 	c #F1BA01",
"W 	c #ECB801",
"X 	c #E8B301",
"Y 	c #E2B002",
"Z 	c #DBAA03",
"` 	c #C79B05",
" .	c #B28C06",
"..	c #AB8606",
"+.	c #A78407",
"@.	c #A78308",
"#.	c #AE8807",
"$.	c #BC9305",
"%.	c #CA9E04",
"&.	c #DFAD03",
"*.	c #E6B302",
"=.	c #EDB802",
"-.	c #F3BC01",
";.	c #F8C001",
">.	c #F7BF01",
",.	c #F2BC01",
"'.	c #EBB701",
").	c #E5B102",
"!.	c #DDAC03",
"~.	c #D7A704",
"{.	c #C99C04",
"].	c #C29706",
"^.	c #BB9206",
"/.	c #B38C07",
"(.	c #AC8707",
"_.	c #AE8906",
":.	c #B58E06",
"<.	c #BC9306",
"[.	c #C39905",
"}.	c #D2A404",
"|.	c #D9A904",
"1.	c #E0AF03",
"2.	c #EEB902",
"3.	c #F5BE01",
"4.	c #FDC400",
"5.	c #FBC201",
"6.	c #F3BD01",
"7.	c #ECB802",
"8.	c #E5B202",
"9.	c #DFAC03",
"0.	c #C89D05",
"a.	c #BB9205",
"b.	c #B38C06",
"c.	c #AD8806",
"d.	c #CB9D04",
"e.	c #E6B202",
"f.	c #EDB701",
"g.	c #F7C001",
"h.	c #F6BF01",
"i.	c #F1BC02",
"j.	c #EBB602",
"k.	c #D7A603",
"l.	c #C89C05",
"m.	c #BA9206",
"n.	c #B48D06",
"o.	c #BA9205",
"p.	c #C89D04",
"q.	c #D0A204",
"r.	c #D6A603",
"s.	c #EEB901",
"t.	c #F0BB02",
"u.	c #DCAB03",
"v.	c #D4A604",
"w.	c #C09606",
"x.	c #BA9006",
"y.	c #AB8607",
"z.	c #DAA903",
"A.	c #EAB502",
"B.	c #E6B402",
"C.	c #CB9F05",
"D.	c #BE9505",
"E.	c #B79005",
"F.	c #B18A06",
"G.	c #C49905",
"H.	c #D5A503",
"I.	c #D9AA03",
"J.	c #E1AF03",
"K.	c #E2AF02",
"L.	c #E1AE03",
"M.	c #D8A903",
"N.	c #D3A503",
"        . + @ # $ % & * = - ; > , ' )               ",
"      ! ~ { ] ^ / ( _ : < < : [ * } ' | 1 2         ",
"  3 4 5 6 7 8 9 0 : a b c d e f g - h i j k l m     ",
"n o p q r # s - t u v w x y z c A B C D E F G H I   ",
"J K L k M N O P Q R S T U V W X Y Z - % ` r q  ...+.",
"@.#.l $.7 %.& g &.*.=.-.;.>.,.'.).!.~.9 {.].^./.(.@.",
"n _.:.<.[.%.}.|.1.z 2.3.4.5.6.7.8.9._ O 0.j a.b.K J ",
"J c.l <.7 d.C g u e.f.-.g.h.i.j.v !.k.O l.j m.b.(.J ",
"  K n.o.M p.q.r.!.R S s.U t.f.w Y u.v.h ` w.x. .y.  ",
"     .~ w.# s ; z.&.v z A.S B.c A B C C.] D.E.F.    ",
"          G.' O H.I.A J.Y K.L.Q M.N.h 0.j           "};
