/* XPM */
static char * LED_amber_xpm[] = {
"26 11 124 2",
"  	c None",
". 	c #000000",
"+ 	c #000F00",
"@ 	c #005800",
"# 	c #007E00",
"$ 	c #009300",
"% 	c #009F00",
"& 	c #00A500",
"* 	c #00AA00",
"= 	c #00AB00",
"- 	c #00A800",
"; 	c #00A400",
"> 	c #009B00",
", 	c #009000",
"' 	c #008300",
") 	c #006F00",
"! 	c #005600",
"~ 	c #003300",
"{ 	c #000700",
"] 	c #001200",
"^ 	c #006000",
"/ 	c #007800",
"( 	c #008100",
"_ 	c #008C00",
": 	c #009700",
"< 	c #00A000",
"[ 	c #00A900",
"} 	c #00B100",
"| 	c #00B700",
"1 	c #00B900",
"2 	c #00B600",
"3 	c #00A100",
"4 	c #007600",
"5 	c #006900",
"6 	c #005100",
"7 	c #002F00",
"8 	c #006200",
"9 	c #006E00",
"0 	c #007B00",
"a 	c #008700",
"b 	c #00B300",
"c 	c #00BC00",
"d 	c #00C300",
"e 	c #00C600",
"f 	c #00C200",
"g 	c #00BB00",
"h 	c #005500",
"i 	c #004700",
"j 	c #002200",
"k 	c #005900",
"l 	c #006500",
"m 	c #007300",
"n 	c #007F00",
"o 	c #008B00",
"p 	c #009800",
"q 	c #00C500",
"r 	c #00CE00",
"s 	c #00D300",
"t 	c #00D400",
"u 	c #00B000",
"v 	c #004C00",
"w 	c #003F00",
"x 	c #005B00",
"y 	c #006800",
"z 	c #007500",
"A 	c #008200",
"B 	c #008E00",
"C 	c #009C00",
"D 	c #00B500",
"E 	c #00C100",
"F 	c #00CD00",
"G 	c #00D900",
"H 	c #00E000",
"I 	c #00D800",
"J 	c #008F00",
"K 	c #004E00",
"L 	c #004100",
"M 	c #005C00",
"N 	c #009E00",
"O 	c #00D200",
"P 	c #00DF00",
"Q 	c #00EB00",
"R 	c #00B800",
"S 	c #009D00",
"T 	c #009100",
"U 	c #004F00",
"V 	c #00C400",
"W 	c #00D100",
"X 	c #00DD00",
"Y 	c #00E900",
"Z 	c #00E800",
"` 	c #00DE00",
" .	c #004200",
"..	c #005A00",
"+.	c #00CB00",
"@.	c #00D600",
"#.	c #00C000",
"$.	c #00B400",
"%.	c #007400",
"&.	c #004D00",
"*.	c #004000",
"=.	c #006100",
"-.	c #007200",
";.	c #00A200",
">.	c #00AF00",
",.	c #00BA00",
"'.	c #00D000",
").	c #00AE00",
"!.	c #00A300",
"~.	c #008A00",
"{.	c #004900",
"].	c #002700",
"^.	c #008600",
"/.	c #00A700",
"(.	c #00BF00",
"_.	c #009200",
":.	c #007A00",
"<.	c #006D00",
"[.	c #005200",
"}.	c #003000",
"|.	c #008000",
"1.	c #009600",
"2.	c #00AC00",
"3.	c #003500",
"    . . + @ # $ % & * = = - ; > , ' ) ! ~ {         ",
"  ] ^ / ( _ : < [ } | 1 1 2 } [ 3 : _ ( 4 5 6 7     ",
"! 8 9 0 a $ % [ b c d e e f g b [ % $ a 0 ) 8 h i j ",
"k l m n o p ; } g q r s t r e g u & p _ n m l k v w ",
"x y z A B C - D E F G H H I F E D [ C J A z y x K L ",
"M 5 4 ' , N * | q O P Q Q P O q R * S T ' 4 5 M U L ",
"M 5 4 ' , S * R V W X Y Z ` W q | * S , ' 4 5 M U  .",
"..y z ( B > - D E +.@.X X @.+.#.$.- > B ( %.y x &.*.",
"=.l -.# o : ;.>.,.d +.'.'.+.d ,.).!.: ~.# -.l @ {.].",
"    =.0 ^.T C /.} 1 #.d d (.1 } /.S _.^.:.<.[.}.    ",
"        + k |.1.!.2.} D D b 2.!.1.a -.@ 3.{ .       "};
