/* XPM */
static char *Connections25x25[] = {
/* columns rows colors chars-per-pixel */
"25 25 200 2",
"   c #E80102",
".  c #E90B00",
"X  c #EB150D",
"o  c #E91B02",
"O  c #EA2003",
"+  c #EB210C",
"@  c #EB2D02",
"#  c #EB290A",
"$  c #EC2813",
"%  c #EC2A1A",
"&  c #EB3301",
"*  c #EB3804",
"=  c #EC3A0B",
"-  c #EC3510",
";  c #EC3B1C",
":  c #ED2424",
">  c #ED3123",
",  c #ED332A",
"<  c #EE3F27",
"1  c #EB4604",
"2  c #EC4A00",
"3  c #ED4B0C",
"4  c #ED4419",
"5  c #EC4E12",
"6  c #ED4919",
"7  c #EC5104",
"8  c #EC5C00",
"9  c #ED5D0D",
"0  c #ED5013",
"q  c #ED551E",
"w  c #EF5C1B",
"e  c #ED442B",
"r  c #ED482F",
"t  c #EF453C",
"y  c #EF483B",
"u  c #EE5720",
"i  c #EE5920",
"p  c #EE5B2C",
"a  c #EF5332",
"s  c #EE5438",
"d  c #EE5A39",
"f  c #F05B3D",
"g  c #EC6201",
"h  c #EE6805",
"j  c #ED6315",
"k  c #EE6A1B",
"l  c #EE7506",
"z  c #ED7B06",
"x  c #EF7517",
"c  c #EE6323",
"v  c #ED6238",
"b  c #EE693E",
"n  c #EC7326",
"m  c #EE703B",
"M  c #F07E20",
"N  c #EF4641",
"B  c #EF4B41",
"V  c #F04D46",
"C  c #F04E48",
"Z  c #F05846",
"A  c #F05D4D",
"S  c #F15C55",
"D  c #F15E59",
"F  c #EE6A40",
"G  c #EE7542",
"H  c #EE7C42",
"J  c #F16345",
"K  c #F06549",
"L  c #F0694D",
"P  c #F16655",
"I  c #F1635A",
"U  c #F17440",
"Y  c #F17049",
"T  c #F17843",
"R  c #F0784B",
"E  c #F17151",
"W  c #F2735C",
"Q  c #F37F57",
"!  c #F26A6B",
"~  c #F27561",
"^  c #F37E66",
"/  c #F37C69",
"(  c #F47A74",
")  c #F47F7E",
"_  c #EE8204",
"`  c #EE8108",
"'  c #EE8900",
"]  c #EF8A18",
"[  c #EE9302",
"{  c #EF9108",
"}  c #EF9D06",
"|  c #EF9C09",
" . c #F08F17",
".. c #F0941E",
"X. c #F08822",
"o. c #F08A2E",
"O. c #F08132",
"+. c #F1952A",
"@. c #F1993A",
"#. c #F0A708",
"$. c #F0AF06",
"%. c #F0AA0A",
"&. c #F0A419",
"*. c #F0B507",
"=. c #F0B70A",
"-. c #F0BB0B",
";. c #F1BB13",
":. c #F3B536",
">. c #F3BF3D",
",. c #F2844E",
"<. c #F18453",
"1. c #F18954",
"2. c #F38F5D",
"3. c #F29447",
"4. c #F0924A",
"5. c #F39D4E",
"6. c #F29652",
"7. c #F39458",
"8. c #F29E5E",
"9. c #F38660",
"0. c #F48C6A",
"q. c #F48372",
"w. c #F48B74",
"e. c #F48C7B",
"r. c #F39C62",
"t. c #F39C6C",
"y. c #F49078",
"u. c #F69A7F",
"i. c #F1A65C",
"p. c #F3A369",
"a. c #F2BD6A",
"s. c #F3B075",
"d. c #F1C50C",
"f. c #F1C90C",
"g. c #F1C218",
"h. c #F1CA13",
"j. c #F1D20B",
"k. c #F2D317",
"l. c #F2E60D",
"z. c #F2ED0D",
"x. c #F4CD47",
"c. c #F5C95A",
"v. c #F1C065",
"b. c #F3C779",
"n. c #F4CA7F",
"m. c #F7D17A",
"M. c #F48284",
"N. c #F58F8A",
"B. c #F49186",
"V. c #F59885",
"C. c #F5988C",
"Z. c #F69C9A",
"A. c #F7A794",
"S. c #F6A69D",
"D. c #F6AF92",
"F. c #F6AF99",
"G. c #F5B483",
"H. c #F5B38C",
"J. c #F5BD8D",
"K. c #F7B695",
"L. c #F7B29B",
"P. c #F7B894",
"I. c #F8BE9F",
"U. c #F8A8A7",
"Y. c #F8B2A4",
"T. c #F8B2AA",
"R. c #F9BAAA",
"E. c #F9BBB2",
"W. c #F7C78E",
"Q. c #F5C290",
"!. c #F8C396",
"~. c #F6DA98",
"^. c #F8D09B",
"/. c #F9DB96",
"(. c #F8C7A7",
"). c #F9C0AF",
"_. c #F9C9A5",
"`. c #F9CBA9",
"'. c #F9C5B9",
"]. c #F9CEBE",
"[. c #F8D4AB",
"{. c #F8D8AB",
"}. c #F9D4B0",
"|. c #FAD3B8",
" X c #F9DDB4",
".X c #F9E3B6",
"XX c #FAC6C2",
"oX c #FACCC7",
"OX c #FBCBC9",
"+X c #FCC8D3",
"@X c #F9D4C2",
"#X c #FAD7C9",
"$X c #FBDCCD",
"%X c #FCD1D0",
"&X c #FBDDD6",
"*X c #FBE3C1",
"=X c #FDEDD7",
"-X c #FCF9D8",
";X c gray100",
":X c None",
/* pixels */
":X:X:X:X:X:X:X:X:X:X:X:X:X:X:X:X:X:X:X:X:X:X:X:X:X",
":X:X:X:X:X:X:X:X:X:X:X:X:X:X:X:X:X:X:X:X:X:X:X:X:X",
":X:X:X:X:X:X:X:X:X:X:X:X:X:X:X:X:X:X:XE 1.(. X{.:X",
":X:X:X:X:X:X:X:X:X:X:X:X:X:X:X:X:XM.O K <.G.:X:X:X",
":X:X:X:X:X:X:X:X:X:X:X:X:X:XR.s $ V y ~ U :X:X:X:X",
":X:X:X:X:X:X:X:X:X:X:X|.t.j <.6 ; , M.:X:X:X:X:X:X",
":X:X:X:X:X:X:X:X:X_.o.5.o.h 7 c p ( :X:X:X:X:X:X:X",
":X:X:X:X:X:X:Xp.3.@. .' ' +.J.7.:X:X:X:X:X:X:X:X:X",
":X:X:X:XY.q j M z [ #.$.>.g.:X:X:X:X:X:X:X:X:X:X:X",
"E.T.y . 4 3 g z { $.d.j.k.d.c.*X:X:X:X:X:X:X:X:X:X",
":XE.Z.A = 2 g _ | =.j.z.z.j.;.&.] O.R.L :X:X:X:X:X",
":X:XU.P * T G.+.} *.j.l.l.j.=.| _ h 7 @ % I OX:X:X",
":X:X:X:X:X:X:X:X^./.x.h.f.-.%.{ l g 1 @ . . o p @X",
":X:X:X:X:X:X:X:X:X:X:X=X:.} { z h 7 * #   V ].:X:X",
":X:X:X:X:X:X:X:X:X1.[...' ` l g 7 5 - I : :X:X:X:X",
":X:X:X:X:X:X:X:X<.,.g g g 8 9 w 5 V.:X:X:X:X:X:X:X",
":X:X:X:X:X:XP Z.d & * 1 u U u 0.:X:X:X:X:X:X:X:X:X",
":X:X:X:X:XS.y X   o d @ W '.:X:X:X:X:X:X:X:X:X:X:X",
":X:X:X:XF.d o % ! > Z.:X:X:X:X:X:X:X:X:X:X:X:X:X:X",
":X:Xa.4.H R d s &X:X:X:X:X:X:X:X:X:X:X:X:X:X:X:X:X",
":X~.b.s.n K.:X:X:X:X:X:X:X:X:X:X:X:X:X:X:X:X:X:X:X",
"-X~.n.W.:X:X:X:X:X:X:X:X:X:X:X:X:X:X:X:X:X:X:X:X:X",
":X:X:X:X:X:X:X:X:X:X:X:X:X:X:X:X:X:X:X:X:X:X:X:X:X",
":X:X:X:X:X:X:X:X:X:X:X:X:X:X:X:X:X:X:X:X:X:X:X:X:X",
":X:X:X:X:X:X:X:X:X:X:X:X:X:X:X:X:X:X:X:X:X:X:X:X:X"
};
