/* XPM */
static char *EndTypes25x25[] = {
/* columns rows colors chars-per-pixel */
"25 25 134 2",
"   c #366E7B",
".  c #386F7C",
"X  c #39707D",
"o  c #3A7380",
"O  c #4A7B87",
"+  c #458695",
"@  c #448B9D",
"#  c #4A8D9D",
"$  c #568896",
"%  c #528E9E",
"&  c #5F8891",
"*  c #5B8E9C",
"=  c #5A919E",
"-  c #478EA0",
";  c #4A8FA0",
":  c #4593A6",
">  c #4795A9",
",  c #4B91A2",
"<  c #4D96A9",
"1  c #4E98AB",
"2  c #4D9CB0",
"3  c #5394A3",
"4  c #5096A8",
"5  c #5198AA",
"6  c #5C95A4",
"7  c #599AAA",
"8  c #57A2B6",
"9  c #57A5B9",
"0  c #5BAABE",
"q  c #628A93",
"w  c #68919D",
"e  c #6598A6",
"r  c #649CAA",
"t  c #6E96A1",
"y  c #689CA9",
"u  c #7199A4",
"i  c #67A5B4",
"p  c #68A6B6",
"a  c #6CA7B8",
"s  c #6EA9B9",
"d  c #70A3B1",
"f  c #77AAB7",
"g  c #73ACBB",
"h  c #7BA8B4",
"j  c #78ABB8",
"k  c #7CB1BF",
"l  c #5EAEC2",
"z  c #5FB1C5",
"x  c #5FB4C9",
"c  c #5DB8CF",
"v  c #5DBAD0",
"b  c #62AFC2",
"n  c #61B1C5",
"m  c #62B5CA",
"M  c #63B8CD",
"N  c #6FB6C9",
"B  c #6DBBCE",
"V  c #65BCD2",
"C  c #69BDD1",
"Z  c #75B2C1",
"A  c #7DB3C0",
"S  c #7BBCCD",
"D  c #71BED1",
"F  c #69C0D6",
"G  c #69C3DA",
"H  c #71C6DC",
"J  c #7BC2D4",
"K  c #63C8E1",
"L  c #6ACBE3",
"P  c #73CAE1",
"I  c #7BCFE4",
"U  c #77D1E8",
"Y  c #7DD5EB",
"T  c #80A2AA",
"R  c #8AA7AD",
"E  c #81AEBA",
"W  c #82B2BF",
"Q  c #8BB1BB",
"!  c #99B1B8",
"~  c #8BBDCA",
"^  c #93B9C3",
"/  c #A6BAC0",
"(  c #A9BCC2",
")  c #8CC0CE",
"_  c #84C2D2",
"`  c #84CADB",
"'  c #8EC8D7",
"]  c #9CC0CA",
"[  c #91C5D4",
"{  c #93CCDB",
"}  c #98C8D4",
"|  c #9BCBD8",
" . c #9DD0DE",
".. c #83CDE0",
"X. c #86D0E3",
"o. c #81D5E9",
"O. c #8AD3E5",
"+. c #8CD9EC",
"@. c #92D2E3",
"#. c #96D9EA",
"$. c #98D6E5",
"%. c #9EDFEE",
"&. c #99E0F1",
"*. c #A1CDD9",
"=. c #A9D4DF",
"-. c #B9CFD6",
";. c #BAD0D7",
":. c #BCD2D9",
">. c #A1D7E5",
",. c #A7DDEB",
"<. c #ABDDE9",
"1. c #B2DBE5",
"2. c #BED9E2",
"3. c #A4E0EF",
"4. c #ADE0ED",
"5. c #AFE3F0",
"6. c #BAE2EC",
"7. c #BAE6F1",
"8. c #BCE8F4",
"9. c #C0D5DB",
"0. c #C1DBE2",
"q. c #C3E9F3",
"w. c #C9E9F2",
"e. c #DDE2E4",
"r. c #DCE4E8",
"t. c #DFEDF1",
"y. c #D0F0F7",
"u. c #E6E6E9",
"i. c #EDE9EA",
"p. c #E6F5F9",
"a. c #EAF4F6",
"s. c #F2EBEB",
"d. c #FEFFFF",
"f. c None",
/* pixels */
"f.f.f.f.f.f.f.f.f.f.f.f.f.f.f.f.f.f.f.f.f.f.f.f.f.",
"f.f.f.f.f.f.f.f.f.f.f.f.f.f.Q r r % % 3 % 3 3 * T ",
"f.f.f.f.f.f.f.f.f.f.f.f.f.4 # @ @ @ - ; ; ; # o q ",
"f.f.f.f.f.f.f.f.f.f.f.f.f.5 s g Z Z r 4 < 5 , . q ",
"f.f.f.f.f.f.f.f.f.f.f.f.f.7 ~ i a g e 3 5 5 , X q ",
"f.f.| l l l l l n b n b g 7 r = 6 6 = 4 5 5 ; . q ",
"f.C D M M M x M M x l 7 f 5 3 3 4 3 5 5 5 5 , . q ",
"f.M S 2.2.2.2.2.0.>.b 5 f 1 1 1 5 1 1 1 5 5 , . q ",
"f.v | s.i.s.i.i.s.u.n 7 h * * * * * * * * * $ . q ",
"f.M | i.u.u.u.u.u.r.b 7 j d d d d d d d d d y o q ",
"f.c | i.u.u.u.u.u.r.b 5 f 1 < < < < < < < 5 ; X q ",
"f.V *.s.i.i.i.i.s.u.b 5 j 5 1 7 5 5 < 5 < 5 ; X q ",
"f._ D | *.*.*.| *.' l 3 m l < < 5 5 5 5 5 5 , . q ",
"S n 9 1 2 2 1 2 2 2 5 0 m % + 5 5 3 5 5 5 5 ; X q ",
"M m M M m m M n M M V C < o # 7 < < < 5 5 5 , . q ",
"M V V V V c ` @.>.p 3 8 , % > > < 5 7 5 < 5 , X q ",
"D M M m n J #.+.~ } J { {  .{ 1.,.~ > 1 1 1 ,   & ",
"_ b n l N $.Y [ x #.6._ S S t.d.&.A w u u u w O R ",
"M M M M @.Y { D L o.4.,.<.4.8.+.v 4 7 6 7 7 % ! f.",
"f.f.f.f.+.X.Z K 3.w.q.+.8.4.U L 2 j s < 4 1 , f.f.",
"f.f.f.<.G B M o.p.p.6.o.y.3.U n , ] f.f.f.f.f.f.f.",
"f.f...H G G G X.#.#.I L O.H G 5 j f.f.f.f.f.f.f.f.",
"f.f.V V G C F G V V F F F F C i f.f.f.f.f.f.f.f.f.",
"f.f.f.f.f.f.f.f.f.f.f.f.f.f.f.f.f.f.f.f.f.f.f.f.f.",
"f.f.f.f.f.f.f.f.f.f.f.f.f.f.f.f.f.f.f.f.f.f.f.f.f."
};
