/* XPM */
static char * NetworkComponentBG_xpm[] = {
"1024 2 23 1",
" 	c None",
".	c #FCFCFC",
"+	c #FBFBFB",
"@	c #FAFAFA",
"#	c #F9F9F9",
"$	c #F8F8F8",
"%	c #F7F7F7",
"&	c #F6F6F6",
"*	c #F5F5F5",
"=	c #F4F4F4",
"-	c #F3F3F3",
";	c #F2F2F2",
">	c #F1F1F1",
",	c #F0F0F0",
"'	c #EFEFEF",
")	c #EEEEEE",
"!	c #EDEDED",
"~	c #ECECEC",
"{	c #EBEBEB",
"]	c #EAEAEA",
"^	c #E9E9E9",
"/	c #E8E8E8",
"(	c #E7E7E7",
"...................................................++++++++++++++++++++++++++++++++++++++++@@@@@@@@@@@@@@@@@@@@@@@@@@@@@@@@@@@@@@@@@@@@@@@@@@@@@@@@@@########################################$$$$$$$$$$$$$$$$$$$$$$$$$$$$$$$$$$$$$$$$$$$$$$$$$$$$$$$$$$%%%%%%%%%%%%%%%%%%%%%%%%%%%%%%%%%%%%%%%%&&&&&&&&&&&&&&&&&&&&&&&&&&&&&&&&&&&&&&************************************************************======================================------------------------------------------------------------;;;;;;;;;;;;;;;;;;;;;;;;;;;;;;;;;;;;;;>>>>>>>>>>>>>>>>>>>>>>>>>>>>>>>>>>>>>>>>>>>>>>>>>>>>>>>>>>>>,,,,,,,,,,,,,,,,,,,,,,,,,,,,,,,,,,,,,,''''''''''''''''''''''''''''''''''''''''))))))))))))))))))))))))))))))))))))))))))))))))))))))))))!!!!!!!!!!!!!!!!!!!!!!!!!!!!!!!!!!!!!!!!~~~~~~~~~~~~~~~~~~~~~~~~~~~~~~~~~~~~~~~~~~~~~~~~~~~~~~~~~~{{{{{{{{{{{{{{{{{{{{{{{{{{{{{{{{{{{{{{{{]]]]]]]]]]]]]]]]]]]]]]]]]]]]]]]]]]]]]]]]]]]]]]]]]]]]]]]]]]^^^^^^^^^^^^^^^^^^^^^^^^^^^^^^^^^^^^^^////////////////////////////////////////(((((((((((((((((((((((((((((((((",
"...................................................++++++++++++++++++++++++++++++++++++++++@@@@@@@@@@@@@@@@@@@@@@@@@@@@@@@@@@@@@@@@@@@@@@@@@@@@@@@@@@########################################$$$$$$$$$$$$$$$$$$$$$$$$$$$$$$$$$$$$$$$$$$$$$$$$$$$$$$$$$$%%%%%%%%%%%%%%%%%%%%%%%%%%%%%%%%%%%%%%%%&&&&&&&&&&&&&&&&&&&&&&&&&&&&&&&&&&&&&&************************************************************======================================------------------------------------------------------------;;;;;;;;;;;;;;;;;;;;;;;;;;;;;;;;;;;;;;>>>>>>>>>>>>>>>>>>>>>>>>>>>>>>>>>>>>>>>>>>>>>>>>>>>>>>>>>>>>,,,,,,,,,,,,,,,,,,,,,,,,,,,,,,,,,,,,,,''''''''''''''''''''''''''''''''''''''''))))))))))))))))))))))))))))))))))))))))))))))))))))))))))!!!!!!!!!!!!!!!!!!!!!!!!!!!!!!!!!!!!!!!!~~~~~~~~~~~~~~~~~~~~~~~~~~~~~~~~~~~~~~~~~~~~~~~~~~~~~~~~~~{{{{{{{{{{{{{{{{{{{{{{{{{{{{{{{{{{{{{{{{]]]]]]]]]]]]]]]]]]]]]]]]]]]]]]]]]]]]]]]]]]]]]]]]]]]]]]]]]]^^^^^^^^^^^^^^^^^^^^^^^^^^^^^^^^^^^^^^////////////////////////////////////////((((((((((((((((((((((((((((((((("};
