/* XPM */
static char *Router25x25[] = {
/* columns rows colors chars-per-pixel */
"25 25 190 2",
"   c #006D86",
".  c #006E88",
"X  c #006F88",
"o  c #006F89",
"O  c #007089",
"+  c #00708A",
"@  c #00718A",
"#  c #00748E",
"$  c #00768F",
"%  c #007790",
"&  c #007791",
"*  c #007891",
"=  c #007A93",
"-  c #007D95",
";  c #047D96",
":  c #077D95",
">  c #077D96",
",  c #077E96",
"<  c #0C7F97",
"1  c #0C7F98",
"2  c #107F98",
"3  c #1A8098",
"4  c #1A8199",
"5  c #1F829A",
"6  c #21839C",
"7  c #23839C",
"8  c #27859D",
"9  c #28849C",
"0  c #29859D",
"q  c #29869D",
"w  c #2A859D",
"e  c #2A869D",
"r  c #2B869E",
"t  c #2C869E",
"y  c #2D879E",
"u  c #368AA1",
"i  c #388BA2",
"p  c #3A8CA3",
"a  c #3B8DA4",
"s  c #3B8EA4",
"d  c #3D8DA4",
"f  c #3D8EA5",
"g  c #3E8DA4",
"h  c #3E8EA5",
"j  c #3F8FA6",
"k  c #4290A7",
"l  c #4591A7",
"z  c #4591A8",
"x  c #4793A9",
"c  c #4B94AB",
"v  c #4E96AB",
"b  c #4E96AC",
"n  c #4F96AC",
"m  c #4F97AC",
"M  c #5097AC",
"N  c #5097AD",
"B  c #5298AE",
"V  c #5398AE",
"C  c #5499AE",
"Z  c #5499AF",
"A  c #559AB0",
"S  c #569AB0",
"D  c #579AB0",
"F  c #5D9EB3",
"G  c #5E9EB3",
"H  c #5F9FB4",
"J  c #5F9FB5",
"K  c #60A0B4",
"L  c #61A0B5",
"P  c #62A0B4",
"I  c #62A1B6",
"U  c #64A2B7",
"Y  c #64A3B7",
"T  c #65A2B7",
"R  c #68A4B8",
"E  c #68A4B9",
"W  c #6AA5B9",
"Q  c #6DA7BA",
"!  c #6EA7BB",
"~  c #6EA8BB",
"^  c #70A8BC",
"/  c #70A9BC",
"(  c #71A9BC",
")  c #71AABC",
"_  c #71AABD",
"`  c #72AABD",
"'  c #73ABBD",
"]  c #74ABBD",
"[  c #74ABBE",
"{  c #75ABBE",
"}  c #74ACBF",
"|  c #75ACBF",
" . c #77ACBF",
".. c #79AEC1",
"X. c #7AAFC1",
"o. c #7DB0C2",
"O. c #7DB1C2",
"+. c #7EB1C3",
"@. c #7FB1C3",
"#. c #7FB2C3",
"$. c #80B2C4",
"%. c #81B3C5",
"&. c #83B4C5",
"*. c #86B5C6",
"=. c #88B6C7",
"-. c #89B7C8",
";. c #8BB9C9",
":. c #8BB9CA",
">. c #8DBACA",
",. c #8EBACA",
"<. c #8EBBCA",
"1. c #8EBBCB",
"2. c #8FBBCB",
"3. c #90BBCB",
"4. c #90BCCB",
"5. c #91BCCB",
"6. c #90BCCC",
"7. c #91BCCC",
"8. c #91BDCC",
"9. c #92BCCC",
"0. c #92BDCC",
"q. c #93BDCC",
"w. c #93BECD",
"e. c #94BECD",
"r. c #95BECD",
"t. c #95BFCD",
"y. c #95BFCE",
"u. c #96BFCF",
"i. c #97BFCE",
"p. c #98C0CF",
"a. c #99C1CF",
"s. c #9AC2D0",
"d. c #9CC2D0",
"f. c #9CC3D1",
"g. c #9DC3D1",
"h. c #A0C5D3",
"j. c #A1C6D3",
"k. c #A2C6D3",
"l. c #A2C6D4",
"z. c #A5C8D5",
"x. c #A8CAD6",
"c. c #A9CAD7",
"v. c #A9CBD7",
"b. c #AACBD7",
"n. c #ABCBD7",
"m. c #ABCCD7",
"M. c #ACCCD7",
"N. c #ABCCD8",
"B. c #ACCCD8",
"V. c #ACCDD9",
"C. c #B0CFDA",
"Z. c #B2D0DB",
"A. c #B3D1DB",
"S. c #B3D1DC",
"D. c #B5D1DC",
"F. c #B5D2DD",
"G. c #B7D3DD",
"H. c #BAD4DE",
"J. c #BDD7E0",
"K. c #C1D9E2",
"L. c #C3DAE2",
"P. c #C3DAE3",
"I. c #C3DBE3",
"U. c #C3DBE4",
"Y. c #C4DBE3",
"T. c #C7DDE4",
"R. c #C9DEE5",
"E. c #C9DEE6",
"W. c #CADEE6",
"Q. c #CADFE6",
"!. c #CBDFE7",
"~. c #CCE0E7",
"^. c #D6E6EA",
"/. c #D8E6EC",
"(. c #D8E7EC",
"). c #D8E7ED",
"_. c #DBE9EE",
"`. c #DCEAEE",
"'. c #DDEAEE",
"]. c #EBF2F5",
"[. c #EBF3F5",
"{. c #ECF3F6",
"}. c #EDF3F6",
"|. c #EDF4F6",
" X c #EEF4F7",
".X c #F0F6F7",
"XX c #F1F6F7",
"oX c #F1F6F9",
"OX c gray100",
"+X c None",
/* pixels */
"+X+X+X+X+X+X+X+X+X+X+X+X+X+X+X+X+X+X+X+X+X+X+X+X+X",
"+X+X+X+X+X+X+X+X+X+X+X+X+X+X+X+X+X+X+X+X+X+X+X+X+X",
"+X+X+X+X+X+X+X+X+X+X+X+X+X+X+X+X+X+X+X+X+X+X+X+X+X",
"+X+X+X+X+X+X+X+X+X+X+X+X+X+X+X+X+X+X+X+X+X+X+X+X+X",
"+X+X+X+X+X+X+X+X+X+X+X+X+X+X+X+X+X+X+X+X+X+X+X+X+X",
"+X+X+X+X3.3.3.3.2.3.2.2.8.y.%.~ *.8.3.2.+X+X+X+X+X",
"+X+Xy.2.O.t.k.a.s.d.y.2.8.j 8 y  .8.2.2.3.3.+X+X+X",
"+Xy.{ - j ; = q z p O.y.l   G.'.b.2.3.2.3.3.2.+X+X",
"+Xy.{  .N.N.C.-.R m B 8.z b.N.@.R %.8.y.y.3.2.+X+X",
"+Xd.3.3.y.s.a.4 H.C.H G *. .2 @ % 7 j N A @.2.+X+X",
"+X&.2.2.2.2.8.s.O.u 5 y R 2.K.^.J.1.U m 7 L k +X+X",
"+XI I 2.8.2.y. .= N z.s.y.2.y.2.1.d.c.P.c.j . +X+X",
"+XI v ' 2.y.8.d.Y.Y.{  .2.3.3.2.2.*.{ m 4 # . +X+X",
"+XI v ' 2.M.R.'.R.C.c.l.i.2.*. .R m u w ; % . +X+X",
"+XU N ' 2.n.R.XXoX'.R.C.k.8.O.~ G m j q > # @ +X+X",
"+Xc N ' 2.N.~. X].).Y.C.l.3.%.~ H v j q > # . +X+X",
"+Xp Z ' 2.b.Q. X].(.L.A.k.2.@.~ H m d w > % . +X+X",
"+X+XA ' 2.b.R. X].).L.A.k.3.@.~ H m d q > % +X+X+X",
"+X+X+X[ 8.N.Q. X X).K.A.k.8.@.! H m d q 1 +X+X+X+X",
"+X+X+X+X+XN.R.oX].).Y.A.k.8.%.! L m j +X+X+X+X+X+X",
"+X+X+X+X+X+X+X+X+X+X+X+X+X+X+X+X+X+X+X+X+X+X+X+X+X",
"+X+X+X+X+X+X+X+X+X+X+X+X+X+X+X+X+X+X+X+X+X+X+X+X+X",
"+X+X+X+X+X+X+X+X+X+X+X+X+X+X+X+X+X+X+X+X+X+X+X+X+X",
"+X+X+X+X+X+X+X+X+X+X+X+X+X+X+X+X+X+X+X+X+X+X+X+X+X",
"+X+X+X+X+X+X+X+X+X+X+X+X+X+X+X+X+X+X+X+X+X+X+X+X+X"
};
