/* XPM */
static char * SpecificArtificialPrinter_40x40_xpm[] = {
"40 40 249 2",
"  	c None",
". 	c #A0A0A0",
"+ 	c #9A9A9A",
"@ 	c #A6A6A6",
"# 	c #B0B0B0",
"$ 	c #AFAFAF",
"% 	c #B1B1B1",
"& 	c #B2B2B2",
"* 	c #B3B3B3",
"= 	c #B5B5B5",
"- 	c #B4B4B4",
"; 	c #B6B6B6",
"> 	c #A4A4A4",
", 	c #999999",
"' 	c #ADADAD",
") 	c #9D9D9D",
"! 	c #CACACA",
"~ 	c #DADADA",
"{ 	c #D7D7D7",
"] 	c #D6D6D6",
"^ 	c #D8D8D8",
"/ 	c #D9D9D9",
"( 	c #DBDBDB",
"_ 	c #DCDCDC",
": 	c #DDDDDD",
"< 	c #DFDFDF",
"[ 	c #E0E0E0",
"} 	c #E1E1E1",
"| 	c #E2E2E2",
"1 	c #959595",
"2 	c #9C9C9C",
"3 	c #D4D4D4",
"4 	c #D2D2D2",
"5 	c #D5D5D5",
"6 	c #DEDEDE",
"7 	c #969696",
"8 	c #D0D0D0",
"9 	c #D3D3D3",
"0 	c #E3E3E3",
"a 	c #E4E4E4",
"b 	c #E7E7E7",
"c 	c #E5E5E5",
"d 	c #E8E8E8",
"e 	c #E6E6E6",
"f 	c #E9E9E9",
"g 	c #CAD3D7",
"h 	c #ACC7D1",
"i 	c #ADC8D2",
"j 	c #ADC7D1",
"k 	c #AEC9D3",
"l 	c #AFCAD4",
"m 	c #AFCBD5",
"n 	c #B0CBD5",
"o 	c #B1CCD6",
"p 	c #B0CCD6",
"q 	c #B4CED7",
"r 	c #9DC1CD",
"s 	c #E7EAEB",
"t 	c #EAEAEA",
"u 	c #C8D2D6",
"v 	c #9AC0CD",
"w 	c #8FBBCB",
"x 	c #90BCCB",
"y 	c #90BBCB",
"z 	c #97C0CE",
"A 	c #7EB1C3",
"B 	c #0C7F97",
"C 	c #E6EBED",
"D 	c #E2E4E5",
"E 	c #ECECEC",
"F 	c #BBCDD3",
"G 	c #92BCCC",
"H 	c #95BECD",
"I 	c #79AEC1",
"J 	c #00758F",
"K 	c #007089",
"L 	c #ECEEF0",
"M 	c #E8E8E9",
"N 	c #D2DDE1",
"O 	c #B6CFD8",
"P 	c #6DA7B8",
"Q 	c #EDEDED",
"R 	c #63A1B5",
"S 	c #5F9FB4",
"T 	c #5E9FB4",
"U 	c #5FA0B5",
"V 	c #5F9FB5",
"W 	c #66A3B7",
"X 	c #21839B",
"Y 	c #006680",
"Z 	c #00738C",
"` 	c #EBEEF0",
" .	c #DAE3E6",
"..	c #C0D5DC",
"+.	c #A4C7D3",
"@.	c #4493A9",
"#.	c #BCD0D5",
"$.	c #EEEEEE",
"%.	c #579BB0",
"&.	c #4F97AD",
"*.	c #4F96AD",
"=.	c #5097AE",
"-.	c #569AB0",
";.	c #15819A",
">.	c #00768F",
",.	c #BBD4DD",
"'.	c #A5C7D3",
").	c #94BECD",
"!.	c #8FBACA",
"~.	c #89B7C8",
"{.	c #5C9FB2",
"].	c #CBD9DC",
"^.	c #EFEFEF",
"/.	c #5A9CB1",
"(.	c #5298AE",
"_.	c #5198AE",
":.	c #5197AE",
"<.	c #5298AF",
"[.	c #006C86",
"}.	c #67A4B8",
"|.	c #85B5C6",
"1.	c #79AEC0",
"2.	c #89B6C5",
"3.	c #BBD2D9",
"4.	c #E0E7E8",
"5.	c #F0F0F0",
"6.	c #559AAF",
"7.	c #2F88A0",
"8.	c #77ADBF",
"9.	c #97BFCD",
"0.	c #BBD3DB",
"a.	c #E2E9EB",
"b.	c #EBEBEB",
"c.	c #F1F1F1",
"d.	c #599CB1",
"e.	c #5499AF",
"f.	c #418FA6",
"g.	c #007B94",
"h.	c #087E97",
"i.	c #EEF1F3",
"j.	c #F4F4F4",
"k.	c #F3F3F3",
"l.	c #F2F2F2",
"m.	c #589BB0",
"n.	c #5097AD",
"o.	c #0F7F97",
"p.	c #006F89",
"q.	c #007891",
"r.	c #EEF2F4",
"s.	c #F5F5F5",
"t.	c #62A0B4",
"u.	c #5A9DB2",
"v.	c #5E9FB3",
"w.	c #358BA3",
"x.	c #006E88",
"y.	c #3991A5",
"z.	c #F4F5F6",
"A.	c #F6F6F6",
"B.	c #9E9E9E",
"C.	c #549AAF",
"D.	c #5399AE",
"E.	c #1D839B",
"F.	c #287F95",
"G.	c #E2ECEE",
"H.	c #F8F8F8",
"I.	c #F7F7F7",
"J.	c #63A1B4",
"K.	c #5C9DB1",
"L.	c #5B9DB2",
"M.	c #5C9EB2",
"N.	c #5D9EB2",
"O.	c #5C9EB3",
"P.	c #5D9EB3",
"Q.	c #5D9FB3",
"R.	c #62A2B5",
"S.	c #4197AB",
"T.	c #D3E3E8",
"U.	c #FAFAFA",
"V.	c #F9F9F9",
"W.	c #FBFBFB",
"X.	c #FCFCFC",
"Y.	c #FEFEFE",
"Z.	c #FDFDFD",
"`.	c #FFFFFF",
" +	c #939393",
".+	c #3B3B3B",
"++	c #3C3C3C",
"@+	c #2D2D2D",
"#+	c #7A7A7A",
"$+	c #727272",
"%+	c #BEBEBE",
"&+	c #4A4A4A",
"*+	c #C6C6C6",
"=+	c #7B7B7B",
"-+	c #8B8B8B",
";+	c #CCCCCC",
">+	c #7F7F7F",
",+	c #9F9F9F",
"'+	c #828282",
")+	c #C3C3C3",
"!+	c #838383",
"~+	c #929292",
"{+	c #D1D1D1",
"]+	c #818181",
"^+	c #747474",
"/+	c #A1A1A1",
"(+	c #3D3D3D",
"_+	c #A9A9A9",
":+	c #5D5D5D",
"<+	c #ABABAB",
"[+	c #ACACAC",
"}+	c #2F2F2F",
"|+	c #AEAEAE",
"1+	c #505050",
"2+	c #BFBFBF",
"3+	c #C1C1C1",
"4+	c #606060",
"5+	c #414141",
"6+	c #515151",
"7+	c #303030",
"8+	c #8F8F8F",
"9+	c #A7A7A7",
"0+	c #868686",
"a+	c #1F1F1F",
"b+	c #2E2E2E",
"c+	c #7C7C7C",
"d+	c #7D7D7D",
"e+	c #808080",
"f+	c #404040",
"g+	c #202020",
"h+	c #A8A8A8",
"i+	c #989898",
"j+	c #3A3A3A",
"k+	c #CDCDCD",
"l+	c #5B5B5B",
"m+	c #AAAAAA",
"n+	c #7E7E7E",
"o+	c #5E5E5E",
"p+	c #2C2C2C",
"q+	c #777777",
"r+	c #696969",
"s+	c #8A8A8A",
"t+	c #3F3F3F",
"u+	c #6E6E6E",
"v+	c #3E3E3E",
"w+	c #BABABA",
"x+	c #9B9B9B",
"y+	c #A2A2A2",
"z+	c #A5A5A5",
"                                                                                ",
"                                                                                ",
"          . + @ # $ $ % & & * * * * * = = = = = = = - = - = ; & > , '           ",
"      % ) ! ~ { ] ^ ^ / ~ ( _ : _ < < [ [ } [ } } } } } [ } } [ | <   1         ",
"      2 ] 3 4 3 3 5 ] { ^ / ~ ( ( _ : : _ 6 6 < < < < < 6 6 6 : : : < 5 7       ",
"    , 8 3 4 9 5 ] { ^ / ~ ( ( : : 6 6 < < [ [ [ } } } } [ [ [ 6 < 6 : }         ",
"    . / 4 9 3 5 ] ^ / ~ ( _ _ 6 6 < [ [ } } } | | | | | } } } [ < < < < : .     ",
"    $ 5 9 5 5 ^ ^ ~ ~ _ : 6 6 < [ } } | 0 | a a a a a a a 0 | | | } [ [ b ,     ",
"    $ ] 3 5 ] ^ / ~ ( : : < < } } | 0 0 a c a c c a c c c c 0 0 0 | | } d +     ",
"    # ^ 5 { { / ~ _ : 6 < [ } | 0 0 c c c e b b b b b b b c e c c a a | f ,     ",
"    $ ^ 5 { ^ g h i j k k k l l l m n o p o o o o q r s d d b e e c a 0 t +     ",
"    # / { / u v w w x x x w x y w y x w y y y x z A B C t t f d d b D c E 2     ",
"    % / { F G w w x w x w w y x x x x w x w y H I J K L t t f M N O P e Q +     ",
"    & ~ ^ R S S T S S U S S S S S V S S S S S W X Y Z ` E  ...+.x @.#.d $.2     ",
"    & ( / %.&.&.&.&.&.&.&.&.&.*.=.&.&.&.&.&.=.-.;.Y >.,.'.).!.~.{.].f b ^.2     ",
"    * _ ~ /.(._.(._.(.(.(.(.:.(.<.(.(.(._._.(.%.B [.}.w |.1.2.3.4.E t t 5.2     ",
"    * _ ~ /.(.(.(.(._.(.(.(.(._.(.(._.<._.(.<.6.7./.8.9.0.a.5.^.Q Q b.t c.)     ",
"    - : ( d.(._._.:._._.(.(.(.(.(.:.(._._._._.e.f.g.h.i.j.k.l.5.^.$.Q b.l.)     ",
"    - : ( m.n.n.=.n.n.n.n.n.=.n.=.n.=._.n.n.n.-.o.p.q.r.s.k.k.c.c.^.$.b.k.2     ",
"    * 6 _ t./.u././././.u./././././.d./.u././.v.w.x.y.z.A.j.j.k.c.5.^.Q k.B.    ",
"    * < _ /.e.C.e.e.D.e.D.e.e.e.e.e.e.e.e.e.D./.E.F.G.H.I.s.s.k.k.5.^.Q j.)     ",
"    - < _ J.K.L.L.L.M.N.N.M.N.O.P.P.P.Q.v.Q.Q.R.S.T.U.U.V.I.A.s.j.c.c.^.s.B.    ",
"    * 6 _ 6 [ | 0 a e d f b.E ^.^.c.l.s.s.I.H.W.W.X.W.W.U.H.A.j.j.c.5.^.s.B.    ",
"    * < ( 6 [ } 0 c e b t E Q ^.^.l.l.s.A.H.V.X.X.Y.Z.W.U.H.H.A.j.l.c.$.s.B.    ",
"    - < _ 6 [ } | a b d f b.E ^.5.l.l.j.A.H.U.W.Z.`.Y.X.U.H.I.A.k.l.5.$.s.)     ",
"    - < _ 6 [ | 0 c e b t E E $.5.c.l.j.A.H.V.X.X.Z.X.X.U.H.A.s.j.c.5.^.s.B.    ",
"    * < _ 6 [ | 0 c e d d b.Q ^.5.c.k.j.A.I.H.W.W.W.W.U.V.H.A.j.j.c.c.$.A.B.    ",
"    * < _ 6 6 } 0 c e d f b.E $.$.5.l.j.s.A.H.H.U.V.V.V.I.A.s.k.l.c.^.Q j.B.    ",
"    * < ( 6 < } | a e b f t b.Q $.5.c.k.k.s.A.H.V.H.H.I.I.s.s.j.l.5.^.Q j.)     ",
"    - : (  +.+++@+#+c e b t b.E $.5.c.c.l.j.s.A.I.A.A.A.A.$+k.c.5.5.^.Q k.B.    ",
"    * : %+&+6 [ } @ c *+=+-+f ;+B.>+,+c.c.* '+* j.- )+!+9 ~+l.{+]+>+6 b.k.2     ",
"    & ( ^+/+: < } 0 a (+_+:+<+[+}+|+1+2+3+4+% 5+| '+6+& | 5+5.7+,+8+%+b.l.)     ",
"    9+6 ^+ +: 0+++++@ a+(+b+c+[+d+E >+$ e+7+f+g+% ]+% l.l.f+$ >+Q Q E E a h+    ",
"    i+6 |+j+k+6 < ++= l+c e ^ m+d+b.n+' >+8+$.5.< >+# ^.^.f+%+o+Q t ( $.k+      ",
"    >   : ~+p+.+.+q+| r+@+(+s+m+c+f d+' : t+t+f+%+>+$ ^.Q t+Q u+}+v+w+E _+      ",
"      + 8 6 : 6 < } | | a c b f f t t E Q Q Q ^.$.$.$.^.Q $.E E E E $.  9+      ",
"        x+- 8 { { / ~ ( _ 6 < [ < | | 0 a c c c c c c c c c a 0 0 { |+y+        ",
"            @ > z+@ @ 9+@ 9+h+h+h+h+h+h+9+h+h+_+_+_+_+h+_+h+9+h+9+<+            ",
"                                                                                ",
"                                                                                "};
