/* XPM */
static char * SpecificArtificialHub_40x40_xpm[] = {
"40 40 322 2",
"  	c None",
". 	c #A0A0A0",
"+ 	c #9A9A9A",
"@ 	c #A6A6A6",
"# 	c #B0B0B0",
"$ 	c #AFAFAF",
"% 	c #B1B1B1",
"& 	c #B2B2B2",
"* 	c #B3B3B3",
"= 	c #B5B5B5",
"- 	c #B4B4B4",
"; 	c #B6B6B6",
"> 	c #A4A4A4",
", 	c #999999",
"' 	c #ADADAD",
") 	c #9D9D9D",
"! 	c #CACACA",
"~ 	c #DADADA",
"{ 	c #D7D7D7",
"] 	c #D6D6D6",
"^ 	c #D8D8D8",
"/ 	c #D9D9D9",
"( 	c #DBDBDB",
"_ 	c #DCDCDC",
": 	c #DDDDDD",
"< 	c #DFDFDF",
"[ 	c #E0E0E0",
"} 	c #E1E1E1",
"| 	c #E2E2E2",
"1 	c #959595",
"2 	c #9C9C9C",
"3 	c #D4D4D4",
"4 	c #D2D2D2",
"5 	c #D5D5D5",
"6 	c #DEDEDE",
"7 	c #969696",
"8 	c #D0D0D0",
"9 	c #D3D3D3",
"0 	c #BCCDD2",
"a 	c #93BCCB",
"b 	c #90BBCB",
"c 	c #90BCCB",
"d 	c #90BCCC",
"e 	c #91BBCB",
"f 	c #91BCCB",
"g 	c #92BDCD",
"h 	c #98C0CF",
"i 	c #4695AA",
"j 	c #4C92A5",
"k 	c #BCCCD2",
"l 	c #94BECC",
"m 	c #92BCCC",
"n 	c #92BCCB",
"o 	c #92BDCC",
"p 	c #96BFCE",
"q 	c #4394AA",
"r 	c #006883",
"s 	c #488FA0",
"t 	c #6EA7BA",
"u 	c #65A3B7",
"v 	c #64A3B6",
"w 	c #64A2B7",
"x 	c #63A2B7",
"y 	c #65A2B7",
"z 	c #65A3B8",
"A 	c #64A3B7",
"B 	c #68A5B9",
"C 	c #69A5B9",
"D 	c #6BA6BA",
"E 	c #559BB1",
"F 	c #006A85",
"G 	c #006B86",
"H 	c #4A93A4",
"I 	c #E7E7E7",
"J 	c #5197AD",
"K 	c #5D9EB3",
"L 	c #6CA6BA",
"M 	c #6AA5B9",
"N 	c #6AA6B9",
"O 	c #6CA6BB",
"P 	c #61A0B5",
"Q 	c #4D96AC",
"R 	c #4D95AC",
"S 	c #4E96AC",
"T 	c #5298AE",
"U 	c #3C8DA5",
"V 	c #006B85",
"W 	c #006D87",
"X 	c #E8E8E8",
"Y 	c #5399AE",
"Z 	c #8AB9C9",
"` 	c #7AAFC2",
" .	c #72ABBD",
"..	c #72AABE",
"+.	c #73ABBE",
"@.	c #72AABD",
"#.	c #71AABD",
"$.	c #75ACBF",
"%.	c #8EBBCB",
"&.	c #569AB0",
"*.	c #5097AD",
"=.	c #5198AE",
"-.	c #559AAF",
";.	c #408FA7",
">.	c #006C86",
",.	c #4B93A5",
"'.	c #E4E4E4",
").	c #E9E9E9",
"!.	c #5499AF",
"~.	c #83B5C6",
"{.	c #4B94AC",
"].	c #4291A7",
"^.	c #4E98AE",
"/.	c #4893AA",
"(.	c #4795AB",
"_.	c #4C96AC",
":.	c #4191A8",
"<.	c #509AAF",
"[.	c #4591A8",
"}.	c #5399AF",
"|.	c #7EB1C3",
"1.	c #589BB1",
"2.	c #4090A6",
"3.	c #006C87",
"4.	c #4B94A5",
"5.	c #E5E5E5",
"6.	c #E3E3E3",
"7.	c #EAEAEA",
"8.	c #86B6C7",
"9.	c #4C95AC",
"0.	c #4191A7",
"a.	c #50A0B4",
"b.	c #4695AC",
"c.	c #4A99AE",
"d.	c #539DB1",
"e.	c #3D91A7",
"f.	c #5AA5B7",
"g.	c #4592A8",
"h.	c #5EA0B4",
"i.	c #61A1B5",
"j.	c #7FB2C4",
"k.	c #579BB0",
"l.	c #4F97AD",
"m.	c #4090A7",
"n.	c #006C85",
"o.	c #4C94A6",
"p.	c #E6E6E6",
"q.	c #ECECEC",
"r.	c #549AAF",
"s.	c #4EA0B3",
"t.	c #4696AC",
"u.	c #4A99AF",
"v.	c #519DB1",
"w.	c #3C91A7",
"x.	c #58A3B6",
"y.	c #4693A9",
"z.	c #5DA0B4",
"A.	c #60A0B5",
"B.	c #579BB1",
"C.	c #4F96AD",
"D.	c #4C95A6",
"E.	c #EDEDED",
"F.	c #4796AC",
"G.	c #4999AE",
"H.	c #519DB2",
"I.	c #4592A9",
"J.	c #4C95A7",
"K.	c #EEEEEE",
"L.	c #86B5C7",
"M.	c #519CB1",
"N.	c #3C90A7",
"O.	c #58A4B6",
"P.	c #4693A8",
"Q.	c #5DA0B5",
"R.	c #80B2C3",
"S.	c #5197AE",
"T.	c #006D85",
"U.	c #4D96A7",
"V.	c #EFEFEF",
"W.	c #4E9FB3",
"X.	c #4A9AAF",
"Y.	c #58A4B7",
"Z.	c #4692A9",
"`.	c #4D97A8",
" +	c #F0F0F0",
".+	c #5599AF",
"++	c #85B5C6",
"@+	c #4EA0B4",
"#+	c #4796AD",
"$+	c #57A3B6",
"%+	c #7FB2C3",
"&+	c #579CB1",
"*+	c #EBEBEB",
"=+	c #F1F1F1",
"-+	c #86B5C6",
";+	c #5D9FB4",
">+	c #60A0B4",
",+	c #4E97A8",
"'+	c #F2F2F2",
")+	c #4C95AB",
"!+	c #58A3B7",
"~+	c #4593A8",
"{+	c #80B2C4",
"]+	c #4E97A9",
"^+	c #F3F3F3",
"/+	c #9E9E9E",
"(+	c #519EB2",
"_+	c #4593A9",
":+	c #5EA0B5",
"<+	c #4F99AA",
"[+	c #F4F4F4",
"}+	c #3D90A8",
"|+	c #60A1B5",
"1+	c #4F98AA",
"2+	c #F5F5F5",
"3+	c #4FA1B5",
"4+	c #3C91A8",
"5+	c #59A5B8",
"6+	c #5EA1B5",
"7+	c #61A1B6",
"8+	c #4D97A9",
"9+	c #84B5C6",
"0+	c #4391A7",
"a+	c #4C9AAF",
"b+	c #4894AB",
"c+	c #4896AC",
"d+	c #4C98AD",
"e+	c #5298AF",
"f+	c #559BB0",
"g+	c #7FB1C4",
"h+	c #006D86",
"i+	c #5199AB",
"j+	c #89B8C9",
"k+	c #79AEC1",
"l+	c #7AAEC1",
"m+	c #79AEC0",
"n+	c #77ADC0",
"o+	c #7BB0C2",
"p+	c #8EBACA",
"q+	c #559AB0",
"r+	c #4B96A8",
"s+	c #C8DBE0",
"t+	c #5198AD",
"u+	c #5C9EB3",
"v+	c #6AA6BA",
"w+	c #6BA7BB",
"x+	c #6BA7BA",
"y+	c #4190A3",
"z+	c #E5ECEE",
"A+	c #F6F6F6",
"B+	c #F7F7F7",
"C+	c #F8F8F8",
"D+	c #FBFBFB",
"E+	c #FAFAFA",
"F+	c #F9F9F9",
"G+	c #939393",
"H+	c #3B3B3B",
"I+	c #3C3C3C",
"J+	c #2D2D2D",
"K+	c #7A7A7A",
"L+	c #727272",
"M+	c #BEBEBE",
"N+	c #4A4A4A",
"O+	c #C6C6C6",
"P+	c #7B7B7B",
"Q+	c #8B8B8B",
"R+	c #CCCCCC",
"S+	c #7F7F7F",
"T+	c #9F9F9F",
"U+	c #828282",
"V+	c #C3C3C3",
"W+	c #838383",
"X+	c #929292",
"Y+	c #D1D1D1",
"Z+	c #818181",
"`+	c #747474",
" @	c #A1A1A1",
".@	c #3D3D3D",
"+@	c #A9A9A9",
"@@	c #5D5D5D",
"#@	c #ABABAB",
"$@	c #ACACAC",
"%@	c #2F2F2F",
"&@	c #AEAEAE",
"*@	c #505050",
"=@	c #BFBFBF",
"-@	c #C1C1C1",
";@	c #606060",
">@	c #414141",
",@	c #515151",
"'@	c #303030",
")@	c #8F8F8F",
"!@	c #A7A7A7",
"~@	c #868686",
"{@	c #1F1F1F",
"]@	c #2E2E2E",
"^@	c #7C7C7C",
"/@	c #7D7D7D",
"(@	c #808080",
"_@	c #404040",
":@	c #202020",
"<@	c #A7A8A8",
"[@	c #989898",
"}@	c #3A3A3A",
"|@	c #CDCDCD",
"1@	c #5B5B5B",
"2@	c #AAAAAA",
"3@	c #7E7E7E",
"4@	c #5E5E5E",
"5@	c #2C2C2C",
"6@	c #777777",
"7@	c #696969",
"8@	c #8A8A8A",
"9@	c #3F3F3F",
"0@	c #6E6E6E",
"a@	c #3E3E3E",
"b@	c #BABABA",
"c@	c #EBEBEC",
"d@	c #9B9B9B",
"e@	c #A2A2A2",
"f@	c #A5A5A5",
"g@	c #A8A8A8",
"                                                                                ",
"                                                                                ",
"          . + @ # $ $ % & & * * * * * = = = = = = = - = - = ; & > , '           ",
"      % ) ! ~ { ] ^ ^ / ~ ( _ : _ < < [ [ } [ } } } } } [ } } [ | <   1         ",
"      2 ] 3 4 3 3 5 ] { ^ / ~ ( ( _ : : _ 6 6 < < < < < 6 6 6 : : : < 5 7       ",
"    , 8 3 4 9 5 ] 0 a b b b c c b d c c e c c b c b f c c g h i j 6 : }         ",
"    . / 4 9 3 5 k l m n m o m o o m o o m o o o o o n m o p q r s < < < : .     ",
"    $ 5 9 5 5 ^ t u v w x y u x w z w x A y B B C B C B D E F G H } [ [ I ,     ",
"    $ ] 3 5 ] ^ J K L D M D N M D D D M O P Q R S S S Q T U V W H | | } X +     ",
"    # ^ 5 { { / Y Z `  ...+.@.@.+.#.+.#.$.%.&.*.T T =.=.-.;.>.W ,.'.'.| ).,     ",
"    $ ^ 5 { ^ ~ !.~.{.].^./.(._.:.<.[.=.}.|.1.*.=.T =.=.-.2.>.3.4.5.'.6.7.+     ",
"    # / { / / ( !.8.9.0.a.b.c.d.e.f.g.h.i.j.k.l.T =.=.=.-.m.n.3.o.I p.5.q.2     ",
"    % / { / ~ _ r.8.Q 0.s.t.u.v.w.x.y.z.A.j.B.C.T T =.=.-.m.>.>.D.X I p.E.+     ",
"    & ~ ^ ~ ( : r.8.Q 0.s.F.G.H.w.x.I.z.P j.B.C.T =.T =.-.m.>.n.J.7.).X K.2     ",
"    & ( / ( _ 6 r.L.Q 0.s.t.c.M.N.O.P.Q.A.R.1.*.=.T T S.-.m.>.T.U.7.).I V.2     ",
"    * _ ~ _ : < -.8.9.0.W.t.X.v.N.Y.Z.Q.A.j.k.l.T =.=.=.-.m.n.>.`.q.7.7. +2     ",
"    * _ ~ ( : < .+++9.:.@+#+u.v.e.$+y.z.A.%+&+*.S.T T S..+m.>.>.`.E.*+7.=+)     ",
"    - : ( : 6 [ .+-+Q 0.s.#+X.v.N.Y.I.;+>+j.B.l.=.T =.=.-.;.>.>.,+K.E.*+'+)     ",
"    - : ( : 6 [ !.8.)+0.s.#+G.v.e.!+~+z.A.{+k.l.=.=.T S.-.m.>.V ]+V.K.*+^+2     ",
"    * 6 _ 6 < } -.8._.0.W.F.X.v.N.O.y.Q.>+j.&+*.=.T =.T -.m.>.V ]+ +V.E.^+/+    ",
"    * < _ 6 < } -.8.9.0.W.t.c.(+e.x._+:+A.{+k.*.T T T T r.2.>.>.<+ +V.E.[+)     ",
"    - < _ 6 < } !.8.Q :.@+t.X.H.}+x.g.z.|+{+k.l.=.T T T .+2.>.>.1+=+=+V.2+/+    ",
"    * 6 _ 6 [ | -.8.)+0.3+#+u.(+4+5+y.6+7+{+k.*.T =.=.=.-.m.>.>.8+=+ +V.2+/+    ",
"    * < ( 6 [ } r.9+Q 0+a+b+c+d+0.M.Z.e+f+g+B.l.T =.T T -.m.>.h+i+'+=+K.2+/+    ",
"    - < _ 6 [ } Y j+{+k+k+l+l+m+l+m+k+n+o+p+q+*.T =.=.=.-.2.>.r+s+'+ +K.2+)     ",
"    - < _ 6 [ | t+u+v+w+N D D v+v+v+x+N D i.J =.=.T T =.-.;.y+z+[+=+ +V.2+/+    ",
"    * < _ 6 [ | 6.5.p.X X *+E.V. +=+^+[+A+B+C+D+D+D+D+E+F+C+A+[+[+=+=+K.A+/+    ",
"    * < _ 6 6 } 6.5.p.X ).*+q.K.K. +'+[+2+A+C+C+E+F+F+F+B+A+2+^+'+=+V.E.[+/+    ",
"    * < ( 6 < } | '.p.I ).7.*+E.K. +=+^+^+2+A+C+F+C+C+B+B+2+2+[+'+ +V.E.[+)     ",
"    - : ( G+H+I+J+K+5.p.I 7.*+q.K. +=+=+'+[+2+A+B+A+A+A+A+L+^+=+ + +V.E.^+/+    ",
"    * : M+N+6 [ } @ 5.O+P+Q+).R+/+S+T+=+=+* U+* [+- V+W+9 X+'+Y+Z+S+6 *+^+2     ",
"    & ( `+ @: < } 6.'..@+@@@#@$@%@&@*@=@-@;@% >@| U+,@& | >@ +'@T+)@M+*+'+)     ",
"    !@6 `+G+: ~@I+I+@ {@.@]@^@$@/@q.S+$ (@'@_@:@% Z+% '+'+_@$ S+E.E.q.q.'.<@    ",
"    [@6 &@}@|@6 < I+= 1@5.p.^ 2@/@*+3@' S+)@K. +< S+# V.V._@M+4@E.7.( K.|@      ",
"    >   : X+5@H+H+6@| 7@J+.@8@2@^@)./@' : 9@9@_@M+S+$ V.E.9@E.0@%@a@b@c@+@      ",
"      + 8 6 : 6 < } | | '.5.I ).).7.7.q.E.E.E.V.K.K.K.V.E.K.q.q.q.q.K.  !@      ",
"        d@- 8 { { / ~ ( _ 6 < [ < | | 6.'.5.5.5.5.5.5.5.5.5.'.6.6.{ &@e@        ",
"            @ > f@@ @ !@@ !@g@g@g@g@g@g@!@g@g@+@+@+@+@g@+@g@!@g@!@#@            ",
"                                                                                ",
"                                                                                "};
