/* XPM */
static char * SpecificArtificialServer_40x40_xpm[] = {
"40 40 231 2",
"  	c None",
". 	c #A0A0A0",
"+ 	c #9A9A9A",
"@ 	c #A6A6A6",
"# 	c #B0B0B0",
"$ 	c #AFAFAF",
"% 	c #B1B1B1",
"& 	c #B2B2B2",
"* 	c #B3B3B3",
"= 	c #B5B5B5",
"- 	c #B4B4B4",
"; 	c #B6B6B6",
"> 	c #A4A4A4",
", 	c #999999",
"' 	c #ADADAD",
") 	c #9D9D9D",
"! 	c #CACACA",
"~ 	c #DADADA",
"{ 	c #D7D7D7",
"] 	c #D6D6D6",
"^ 	c #D8D8D8",
"/ 	c #D9D9D9",
"( 	c #DBDBDB",
"_ 	c #DCDCDC",
": 	c #DDDDDD",
"< 	c #DFDFDF",
"[ 	c #E0E0E0",
"} 	c #E1E1E1",
"| 	c #E2E2E2",
"1 	c #959595",
"2 	c #9C9C9C",
"3 	c #D4D4D4",
"4 	c #D2D2D2",
"5 	c #D5D5D5",
"6 	c #CBD3D7",
"7 	c #A0C2CF",
"8 	c #94BECD",
"9 	c #93BDCC",
"0 	c #94BDCD",
"a 	c #95BECD",
"b 	c #94BDCC",
"c 	c #96BECD",
"d 	c #A0C4D1",
"e 	c #5F9FB4",
"f 	c #DEDEDE",
"g 	c #969696",
"h 	c #D0D0D0",
"i 	c #D3D3D3",
"j 	c #94BCCA",
"k 	c #8AB8C8",
"l 	c #89B7C7",
"m 	c #8BB8C8",
"n 	c #90BBCB",
"o 	c #62A1B6",
"p 	c #006E88",
"q 	c #589CB1",
"r 	c #579BB0",
"s 	c #579AB0",
"t 	c #569BB0",
"u 	c #579CB2",
"v 	c #5A9CB2",
"w 	c #599DB2",
"x 	c #5A9DB2",
"y 	c #5B9DB2",
"z 	c #077E97",
"A 	c #006680",
"B 	c #6AA5BA",
"C 	c #78AEC0",
"D 	c #75ACBF",
"E 	c #77ADBF",
"F 	c #74ABBF",
"G 	c #5198AE",
"H 	c #4E96AD",
"I 	c #4F97AD",
"J 	c #5097AE",
"K 	c #5398AE",
"L 	c #077E96",
"M 	c #006A83",
"N 	c #E4E4E4",
"O 	c #E3E3E3",
"P 	c #E7E7E7",
"Q 	c #8CB9C9",
"R 	c #AECDD8",
"S 	c #A9CAD6",
"T 	c #A9CBD7",
"U 	c #AFCED8",
"V 	c #9EC4D2",
"W 	c #4C95AC",
"X 	c #5298AE",
"Y 	c #569AB0",
"Z 	c #0C7F97",
"` 	c #006983",
" .	c #E5E5E5",
"..	c #E8E8E8",
"+.	c #75ACBE",
"@.	c #7DB0C1",
"#.	c #78ADC0",
"$.	c #79AEC0",
"%.	c #7DB0C2",
"&.	c #6FA7BA",
"*.	c #4290A7",
"=.	c #569AAF",
"-.	c #0C7E97",
";.	c #E6E6E6",
">.	c #E9E9E9",
",.	c #4D96AC",
"'.	c #4291A8",
").	c #4391A8",
"!.	c #4390A8",
"~.	c #4190A7",
"{.	c #4B94AA",
"].	c #EAEAEA",
"^.	c #5097AD",
"/.	c #5399AF",
"(.	c #5197AE",
"_.	c #0C7F98",
":.	c #ECECEC",
"<.	c #EDEDED",
"[.	c #4F96AC",
"}.	c #4F96AD",
"|.	c #4E96AC",
"1.	c #087E97",
"2.	c #EEEEEE",
"3.	c #EBEBEB",
"4.	c #5B9DB3",
"5.	c #5C9EB3",
"6.	c #5C9EB4",
"7.	c #5B9EB3",
"8.	c #5D9EB4",
"9.	c #63A1B6",
"0.	c #23849C",
"a.	c #006883",
"b.	c #EFEFEF",
"c.	c #5C9DB2",
"d.	c #60A0B4",
"e.	c #1F829A",
"f.	c #006882",
"g.	c #F0F0F0",
"h.	c #F2F2F2",
"i.	c #F1F1F1",
"j.	c #F3F3F3",
"k.	c #F4F4F4",
"l.	c #5298AF",
"m.	c #F5F5F5",
"n.	c #F6F6F6",
"o.	c #9E9E9E",
"p.	c #F8F8F8",
"q.	c #F7F7F7",
"r.	c #FAFAFA",
"s.	c #F9F9F9",
"t.	c #FBFBFB",
"u.	c #FCFCFC",
"v.	c #5197AD",
"w.	c #5499AF",
"x.	c #589BB0",
"y.	c #589BB1",
"z.	c #1B829A",
"A.	c #026B84",
"B.	c #66A3B7",
"C.	c #67A4B8",
"D.	c #67A3B8",
"E.	c #66A3B8",
"F.	c #67A3B7",
"G.	c #6CA7BA",
"H.	c #2A869E",
"I.	c #5D9FAF",
"J.	c #939393",
"K.	c #3B3B3B",
"L.	c #3C3C3C",
"M.	c #2D2D2D",
"N.	c #7A7A7A",
"O.	c #727272",
"P.	c #BEBEBE",
"Q.	c #4A4A4A",
"R.	c #C6C6C6",
"S.	c #7B7B7B",
"T.	c #8B8B8B",
"U.	c #CCCCCC",
"V.	c #7F7F7F",
"W.	c #9F9F9F",
"X.	c #828282",
"Y.	c #C3C3C3",
"Z.	c #838383",
"`.	c #929292",
" +	c #D1D1D1",
".+	c #818181",
"++	c #747474",
"@+	c #A1A1A1",
"#+	c #3D3D3D",
"$+	c #A9A9A9",
"%+	c #5D5D5D",
"&+	c #ABABAB",
"*+	c #ACACAC",
"=+	c #2F2F2F",
"-+	c #AEAEAE",
";+	c #505050",
">+	c #BFBFBF",
",+	c #C1C1C1",
"'+	c #606060",
")+	c #414141",
"!+	c #515151",
"~+	c #303030",
"{+	c #8F8F8F",
"]+	c #A7A7A7",
"^+	c #868686",
"/+	c #1F1F1F",
"(+	c #2E2E2E",
"_+	c #7C7C7C",
":+	c #7D7D7D",
"<+	c #808080",
"[+	c #404040",
"}+	c #202020",
"|+	c #A8A8A8",
"1+	c #989898",
"2+	c #3A3A3A",
"3+	c #CDCDCD",
"4+	c #5B5B5B",
"5+	c #AAAAAA",
"6+	c #7E7E7E",
"7+	c #5E5E5E",
"8+	c #2C2C2C",
"9+	c #777777",
"0+	c #696969",
"a+	c #8A8A8A",
"b+	c #3F3F3F",
"c+	c #6E6E6E",
"d+	c #3E3E3E",
"e+	c #BABABA",
"f+	c #9B9B9B",
"g+	c #A2A2A2",
"h+	c #A5A5A5",
"                                                                                ",
"                                                                                ",
"          . + @ # $ $ % & & * * * * * = = = = = = = - = - = ; & > , '           ",
"      % ) ! ~ { ] ^ ^ / ~ ( _ : _ < < [ [ } [ } } } } } [ } } [ | <   1         ",
"      2 ] 3 4 3 3 5 ] { ^ 6 7 8 9 0 9 a b b b 8 c d e < f f f : : : < 5 g       ",
"    , h 3 4 i 5 ] { ^ / ~ j k k k k k l k k k m n o p } [ [ [ f < f : }         ",
"    . / 4 i 3 5 ] ^ / ~ ( q r s s t u v w x v y e z A | } } } [ < < < < : .     ",
"    $ 5 i 5 5 ^ ^ ~ ~ _ : B C D D E F G H I I J K L M N N O | | | } [ [ P ,     ",
"    $ ] 3 5 ] ^ / ~ ( : : Q R S T U V W I X G K Y Z `  . . .O O O | | } ..+     ",
"    # ^ 5 { { / ~ _ : f < +.@.#.$.%.&.*.G X X K =.-.` P P  .;. . .N N | >.,     ",
"    $ ^ 5 { ^ ~ ( : _ < [ ,.*.'.).!.~.{.K X G K Y Z ` ......P ;.;. .N O ].+     ",
"    # / { / / ( _ f < [ } G ^.^.J ^.G /.X G (.X s _.` ].].].>.....P ;. .:.2     ",
"    % / { / ~ _ : < < } } X X G G (.G X G X X X Y Z ` :.].].>.>.>...P ;.<.+     ",
"    & ~ ^ ~ ( : f [ } | N [.I }.I |.[.}.[.|.[.[./.1.` 2.:.<.:.3.].].>...2.2     ",
"    & ( / ( _ f < [ | | N 4.5.5.6.5.7.4.5.7.4.8.9.0.a.b.2.2.:.:.:.].>.P b.2     ",
"    * _ ~ _ : < [ | O N  .y y y c.c.y c.y y y y d.e.f.g.g.b.b.<.<.:.].].g.2     ",
"    * _ ~ ( : < [ | |  .;.G G X X (.X G X G (.X s _.` h.i.i.g.b.<.<.3.].i.)     ",
"    - : ( : f [ } O N ;.P X G G G G X X X G G X Y _.` j.k.j.h.g.b.2.<.3.h.)     ",
"    - : ( : f [ } O  .;.P G G (.X X X X X X l./.=.-.` k.m.j.j.i.i.b.2.3.j.2     ",
"    * f _ f < } | N  .P ..X X X G l.X X G G G X =._.` n.n.k.k.j.i.g.b.<.j.o.    ",
"    * < _ f < } | N ;.P >.X (.X G X (.G (.X G X r _.M p.q.m.m.j.j.g.b.<.k.)     ",
"    - < _ f < } O N ;.....X G X X X G X G G G X r -.M r.s.q.n.m.k.i.i.b.m.o.    ",
"    * f _ f [ | O N ;...>.G X X X X G X G G X K s Z ` t.r.p.n.k.k.i.g.b.m.o.    ",
"    * < ( f [ } O  .;.P ].G X X X G X G X X G K Y _.` t.r.p.p.n.k.h.i.2.m.o.    ",
"    - < _ f [ } | N P ..>.(.G X G G G G X G X /.Y -.` u.r.p.q.n.j.h.g.2.m.)     ",
"    - < _ f [ | O  .;.P ].^.^.^.^.^.^.G J ^.^.v.w.1.` u.r.p.n.m.k.i.g.b.m.o.    ",
"    * < _ f [ | O  .;.....x.y.y.y.x.r y.x.r r r c.z.A.r.s.p.n.k.k.i.i.2.n.o.    ",
"    * < _ f f } O  .;...>.B.B.B.C.B.D.B.B.E.E.F.G.H.I.s.q.n.m.j.h.i.b.<.k.o.    ",
"    * < ( f < } | N ;.P >.].3.<.2.g.i.j.j.m.n.p.s.p.p.q.q.m.m.k.h.g.b.<.k.)     ",
"    - : ( J.K.L.M.N. .;.P ].3.:.2.g.i.i.h.k.m.n.q.n.n.n.n.O.j.i.g.g.b.<.j.o.    ",
"    * : P.Q.f [ } @  .R.S.T.>.U.o.V.W.i.i.* X.* k.- Y.Z.i `.h. +.+V.f 3.j.2     ",
"    & ( ++@+: < } O N #+$+%+&+*+=+-+;+>+,+'+% )+| X.!+& | )+g.~+W.{+P.3.h.)     ",
"    ]+f ++J.: ^+L.L.@ /+#+(+_+*+:+:.V.$ <+~+[+}+% .+% h.h.[+$ V.<.<.:.:.N |+    ",
"    1+f -+2+3+f < L.= 4+ .;.^ 5+:+3.6+' V.{+2.g.< V.# b.b.[+P.7+<.].( 2.3+      ",
"    >   : `.8+K.K.9+| 0+M.#+a+5+_+>.:+' : b+b+[+P.V.$ b.<.b+<.c+=+d+e+:.$+      ",
"      + h f : f < } | | N  .P >.>.].].:.<.<.<.b.2.2.2.b.<.2.:.:.:.:.2.  ]+      ",
"        f+- h { { / ~ ( _ f < [ < | | O N  . . . . . . . . .N O O { -+g+        ",
"            @ > h+@ @ ]+@ ]+|+|+|+|+|+|+]+|+|+$+$+$+$+|+$+|+]+|+]+&+            ",
"                                                                                ",
"                                                                                "};
