/* XPM */
static char *SpecificSerialDCE_40x40[] = {
/* columns rows colors chars-per-pixel */
"40 40 160 2",
"   c black",
".  c #101010",
"X  c #1E1E1E",
"o  c #202020",
"O  c gray19",
"+  c #3A3A3A",
"@  c gray25",
"#  c #505050",
"$  c #555555",
"%  c #606060",
"&  c #6C6C6C",
"*  c #6D6D6D",
"=  c gray44",
"-  c red",
";  c #FF1010",
":  c #FB1C1C",
">  c #FC1D1D",
",  c #FD1E1E",
"<  c #FF2020",
"1  c #F93737",
"2  c #FA3838",
"3  c #FB3939",
"4  c #FC3A3A",
"5  c #F75050",
"6  c #F95252",
"7  c #FB5454",
"8  c #F46666",
"9  c #F56767",
"0  c #F66868",
"q  c #F76969",
"w  c #F86A6A",
"e  c #F96B6B",
"r  c #FA6C6C",
"t  c #F37C7C",
"y  c #F47D7D",
"u  c #808080",
"i  c gray51",
"p  c #838383",
"a  c gray52",
"s  c #909090",
"d  c #959595",
"f  c gray59",
"g  c #979797",
"h  c #989898",
"j  c gray60",
"k  c #9A9A9A",
"l  c #9B9B9B",
"z  c gray61",
"x  c #9D9D9D",
"c  c gray62",
"v  c #A0A0A0",
"b  c #A2A2A2",
"n  c #A4A4A4",
"m  c #A5A5A5",
"M  c gray65",
"N  c #A7A7A7",
"B  c gray66",
"V  c #A9A9A9",
"C  c #AAAAAA",
"Z  c gray67",
"A  c gray68",
"S  c #AEAEAE",
"D  c #AFAFAF",
"F  c #BFA0A0",
"G  c gray69",
"H  c #B1B1B1",
"J  c #B2B2B2",
"K  c gray70",
"L  c #B4B4B4",
"P  c gray71",
"I  c #B6B6B6",
"U  c #B7B7B7",
"Y  c gray72",
"T  c #B9B9B9",
"R  c #BBBBBB",
"E  c gray75",
"W  c #EF9F9F",
"Q  c #F78080",
"!  c #FF8080",
"~  c #F39191",
"^  c #F69494",
"/  c #ECAEAE",
"(  c #ECBCBC",
")  c #EEBEBE",
"_  c #C0C0C0",
"`  c gray76",
"'  c gray77",
"]  c #C5C5C5",
"[  c #C6C6C6",
"{  c gray78",
"}  c #C8C8C8",
"|  c gray79",
" . c #CACACA",
".. c #CBCBCB",
"X. c gray80",
"o. c #CDCDCD",
"O. c #CECECE",
"+. c #D0D0D0",
"@. c gray82",
"#. c #D2D2D2",
"$. c LightGray",
"%. c gray83",
"&. c #D5D5D5",
"*. c gray84",
"=. c #D7D7D7",
"-. c #D8D8D8",
";. c gray85",
":. c #DADADA",
">. c gray86",
",. c gainsboro",
"<. c #DDDDDD",
"1. c gray87",
"2. c #DFDFDF",
"3. c #E6C3C3",
"4. c #E5D6D6",
"5. c #E6D7D7",
"6. c #E5DDDD",
"7. c #E6DEDE",
"8. c #E9D1D1",
"9. c #EBD3D3",
"0. c #E8D9D9",
"q. c #ECDDDD",
"w. c #F1C1C1",
"e. c #F3C3C3",
"r. c gray88",
"t. c #E1E1E1",
"y. c #E3E0E0",
"u. c #E2E2E2",
"i. c gray89",
"p. c #E4E1E1",
"a. c #E5E2E2",
"s. c #E4E4E4",
"d. c gray90",
"f. c #E7E4E4",
"g. c #E6E6E6",
"h. c #E7E7E7",
"j. c #E9E1E1",
"k. c #E8E5E5",
"l. c #E9E6E6",
"z. c #EFE7E7",
"x. c gray91",
"c. c #E9E9E9",
"v. c #EAEAEA",
"b. c gray92",
"n. c #ECECEC",
"m. c gray93",
"M. c #EFECEC",
"N. c #EEEEEE",
"B. c #EFEFEF",
"V. c #F1EEEE",
"C. c gray94",
"Z. c #F1F1F1",
"A. c #F3F0F0",
"S. c gray95",
"D. c #F3F3F3",
"F. c #F4F4F4",
"G. c gray96",
"H. c #F6F6F6",
"J. c gray100",
"K. c None",
/* pixels */
"K.K.K.K.K.K.K.K.K.K.K.K.K.K.K.K.K.K.K.K.K.K.K.K.K.K.K.K.K.K.K.K.K.K.K.K.K.K.K.K.",
"K.K.K.K.K.K.K.<.o.o.o.o.o.o.o.o.o.o.o.o.O.O.o.o.o.o.o.o.o.o.o.O.K.K.K.K.K.K.K.K.",
"K.K.K.K.o.v k M A D A H H H H K K H K K K K K K K K K K K K K K M k A K.K.K.K.K.",
"K.K.K.H x  .:.=.=.-.:.-.:.<.<.<.<.<.u.u.<.u.u.u.u.u.s.u.u.u.u.u.u.u.E f o.K.K.K.",
"K.K.[ x =.=.O.=.O.=.=.=.-.:.:.,.<.<.<.<.<.<.<.u.<.<.u.<.<.<.<.<.<.<.<.=.f K.K.K.",
"K.K.k O.=.O.O.=.=.=.:.:.:.:.,.<.<.<.<.u.<.u.<.u.u.u.u.u.u.u.u.<.u.<.<.u.R T K.K.",
"K.:.x :.O.=.=.=.=.=.:.:.:.<.<.<.<.<.u.<.u.u.u.u.u.u.u.u.u.u.u.<.<.<.<.u.<.v K.K.",
"K. .A =.=.O.=.=.-.:.:.<.<.<./ t 5.u.u.u.u.u.u.s.s.s.s.s.u.s.u.u.u.u.u.u.h.k K.K.",
"K.o.A =.=.=.=.=.:.:.:.<.<.W : - t u.s.s.s.s.s.s.s.s.s.h.s.h.s.s.s.u.u.u.h.k K.K.",
"K.o.H :.O.=.=.=.:.:.<.<.W : - : 0.s.s.s.h.h.h.h.h.s.h.h.h.s.s.s.s.s.s.u.h.k K.K.",
"K.o.A :.=.=.:.:.<.<.<.W : - : 9.s.s.h.h.h.h.h.b.h.h.h.h.h.h.h.h.h.h.s.s.b.k K.K.",
"K.o.A :.=.:.:.:.<.<.W : - : 9.s.h.h.h.h.b.h.h.b.b.h.b.b.b.b.h.h.h.h.s.h.b.x K.K.",
"K.o.H :.:.:.:.<.<.t : - : 9.s.s.s.h.h.h.b.b.b.b.b.b.b.b.b.b.h.b.b.h.h.h.b.k K.K.",
"K.o.H :.=.:.:.<.8 : - : 9.s.h.b.h.b.h.b.b.b.b.B.B.B.B.b.b.B.b.b.b.h.h.h.b.x K.K.",
"K.o.H :.:.:.<.8 : - 2 7.s.s.h.h.h.b.b.b.b.B.b.B.B.B.B.B.B.b.b.b.b.b.h.h.B.x K.K.",
"K.o.K <.:.:.8 : - 2 a.s.s.h.h.h.b.b.b.B.B.B.B.B.b.T p p p p [ B.B.b.b.b.B.x K.K.",
"K.o.L ,.:.8 : - ; a.u.s.h.h.h.b.b.b.B.B.B.B.B.C C E E E [ E [ + [ b.b.b.B.v K.K.",
"K.o.L <.3.: - - < ~ ) f.h.h.n.b.B.b.B.B.B.B.p G.J.J.B.O.J.J.J.u.* [ b.b.B.x K.K.",
"K.o.L <.:.1 : - - - - < : 7 ^ e.V.B.B.G.B.p B.J.J.J.E @ J.J.J.J.O.+ <.b.G.x K.K.",
"K.o.L <.,.<.5.( t 2 : : - - - - > : 7 D. .=.J.J.J.J.E @ J.J.J.J.J.O.+ b.G.x K.K.",
"K.o.H r.<.<.<.u.u.s.s.q.e.Q 4 : - - - y o J.J.J.J.J.E @ J.J.J.J.J.J.[ K G.x K.K.",
"K.o.L r.<.<.u.u.s.s.h.h.h.b.b.r - - ; F % J.J.J.J.J.E @ J.J.u.s v J.o.* G.x K.K.",
"K.o.H <.<.<.u.u.s.s.s.h.h.b.r : - 4 V. .p J.J.J.J.J.E O v @   # H J.J.X G.x K.K.",
"K.o.L r.:.<.u.u.s.s.h.h.b.r : - 4 D.D. .= J.J.J.J.J.O.. O s B.J.J.J.J.X G.x K.K.",
"K.o.K u.,.<.u.u.a.s.s.l.6 : - 4 D.B.B.u. .J.J.J.J.J.J.J.J.J.J.J.J.J.B.+ G.x K.K.",
"K.o.K r.,.<.<.u.s.s.l.4 - : 4 B.B.B.G.G.p J.J.J.J.J.J.J.J.J.J.J.J.J.v f G.x K.K.",
"K.o.L <.<.<.u.u.s.s.4 - : r b.B.B.D.B.G.p u.J.J.J.J.J.J.J.J.J.J.J.J.p <.G.x K.K.",
"K.o.H u.<.<.<.u.s.2 - : r b.b.B.B.B.G.G.b.T J.J.J.J.J.J.J.J.J.J.J.s * B.G.x K.K.",
"K.o.K 2.:.<.u.u.2 - : q b.h.b.B.B.B.D.G.G.T u.J.J.J.J.J.J.J.J.J.<.+ b.b.G.x K.K.",
"K.o.K <.:.<.<.8 - : q s.l.b.b.b.b.B.D.B.B.G.=.C B.J.J.J.J.J.J.C * B.B.B.B.x K.K.",
"K.o.K <.:.<.<.6 : 0 h.s.s.h.b.b.b.B.B.B.G.G.G.b.* C = a p * $ f G.b.B.b.G.x K.K.",
"K.o.H >.:.<.<.2.7.s.s.h.h.h.h.b.b.B.B.B.B.B.G.B.G.b.[  .[  .B.b.B.B.b.b.B.x K.K.",
"K.<.M <.:.<.<.<.u.u.u.s.s.h.h.b.b.b.B.B.B.B.B.G.B.G.B.G.G.B.b.B.b.b.b.b.s.C K.K.",
"K.K.k <.:.:.<.<.<.u.u.u.s.h.h.h.h.b.b.B.B.B.B.B.B.B.B.B.B.B.B.b.B.b.b.B.o.K K.K.",
"K.K.M E <.<.<.<.u.u.u.u.s.s.h.h.h.b.b.b.B.b.B.B.B.B.b.B.B.B.b.b.b.b.b.b.C =.K.K.",
"K.K.K.k O.<.<.<.<.u.u.u.s.s.h.b.b.b.h.b.b.B.b.B.b.B.B.B.b.B.b.b.B.b.b.[ M K.K.K.",
"K.K.K.:.k K o.:.=.:.:.<.<.<.<.u.<.u.u.u.s.s.s.u.h.s.s.s.s.s.s.s.s.:.A v K.K.K.K.",
"K.K.K.K.K.R M M M M M M M C M C C M C M C M C C C C C C C C M M M C o.K.K.K.K.K.",
"K.K.K.K.K.K.K.K.K.K.K.K.K.K.K.K.K.K.K.K.K.K.K.K.K.K.K.K.K.K.K.K.K.K.K.K.K.K.K.K.",
"K.K.K.K.K.K.K.K.K.K.K.K.K.K.K.K.K.K.K.K.K.K.K.K.K.K.K.K.K.K.K.K.K.K.K.K.K.K.K.K."
};
