/* XPM */
static char * SpecificArtificialWorkstation_40x40_xpm[] = {
"40 40 336 2",
"  	c None",
". 	c #A0A0A0",
"+ 	c #9A9A9A",
"@ 	c #A6A6A6",
"# 	c #B0B0B0",
"$ 	c #AFAFAF",
"% 	c #B1B1B1",
"& 	c #B2B2B2",
"* 	c #B3B3B3",
"= 	c #B5B5B5",
"- 	c #B4B4B4",
"; 	c #B6B6B6",
"> 	c #A4A4A4",
", 	c #999999",
"' 	c #ADADAD",
") 	c #9D9D9D",
"! 	c #CACACA",
"~ 	c #DADADA",
"{ 	c #D7D7D7",
"] 	c #D6D6D6",
"^ 	c #D8D8D8",
"/ 	c #D9D9D9",
"( 	c #DBDBDB",
"_ 	c #DCDCDC",
": 	c #DDDDDD",
"< 	c #DFDFDF",
"[ 	c #E0E0E0",
"} 	c #E1E1E1",
"| 	c #E2E2E2",
"1 	c #959595",
"2 	c #9C9C9C",
"3 	c #D4D4D4",
"4 	c #D2D2D2",
"5 	c #D5D5D5",
"6 	c #C4CED1",
"7 	c #BACBD1",
"8 	c #AAC5CE",
"9 	c #98BDCA",
"0 	c #8AB7C7",
"a 	c #89B6C6",
"b 	c #89B7C7",
"c 	c #8BB8C7",
"d 	c #87B6C7",
"e 	c #569AAF",
"f 	c #76ACB7",
"g 	c #DEDEDE",
"h 	c #969696",
"i 	c #D0D0D0",
"j 	c #D3D3D3",
"k 	c #7AABBA",
"l 	c #4F97AD",
"m 	c #4E96AD",
"n 	c #4F97AE",
"o 	c #5097AE",
"p 	c #4E96AC",
"q 	c #569AB0",
"r 	c #2E889F",
"s 	c #006983",
"t 	c #6EA4B2",
"u 	c #74A8B9",
"v 	c #69A5B9",
"w 	c #9CC3D1",
"x 	c #9EC4D1",
"y 	c #9DC3D1",
"z 	c #9DC4D2",
"A 	c #9DC4D1",
"B 	c #9EC4D2",
"C 	c #A0C5D3",
"D 	c #8DBACA",
"E 	c #599CB2",
"F 	c #25859D",
"G 	c #006A84",
"H 	c #70A7B4",
"I 	c #76AABA",
"J 	c #A9CBD8",
"K 	c #E2EDF2",
"L 	c #DBE9F0",
"M 	c #DBE9EF",
"N 	c #DDEAEF",
"O 	c #D8E7EC",
"P 	c #76ACBF",
"Q 	c #21849C",
"R 	c #006B85",
"S 	c #71A8B5",
"T 	c #E7E7E7",
"U 	c #77ABBB",
"V 	c #ADCDDA",
"W 	c #D9E8ED",
"X 	c #D3E4EB",
"Y 	c #D2E4EB",
"Z 	c #D2E3EA",
"` 	c #D2E4EA",
" .	c #D4E5EB",
"..	c #7AAFC1",
"+.	c #21839C",
"@.	c #72A9B5",
"#.	c #E3E3E3",
"$.	c #E8E8E8",
"%.	c #78ABBB",
"&.	c #ACCDDA",
"*.	c #D9E7ED",
"=.	c #79AEC0",
"-.	c #20839B",
";.	c #72A9B6",
">.	c #E6E6E6",
",.	c #E5E5E5",
"'.	c #E4E4E4",
").	c #E9E9E9",
"!.	c #ABCCD9",
"~.	c #D8E7ED",
"{.	c #D4E5EC",
"].	c #7AAEC1",
"^.	c #74AAB7",
"/.	c #EAEAEA",
"(.	c #79ACBC",
"_.	c #D4E4EB",
":.	c #75ABB8",
"<.	c #ECECEC",
"[.	c #79AEC1",
"}.	c #EDEDED",
"|.	c #76ACB9",
"1.	c #EBEBEB",
"2.	c #EEEEEE",
"3.	c #7AADBC",
"4.	c #77ADBA",
"5.	c #EFEFEF",
"6.	c #7AADBD",
"7.	c #AFCFDB",
"8.	c #DDEAEE",
"9.	c #D5E5EC",
"0.	c #D5E5EB",
"a.	c #D7E6EC",
"b.	c #7BAFC1",
"c.	c #74ACB9",
"d.	c #F0F0F0",
"e.	c #76ABBB",
"f.	c #82B4C6",
"g.	c #CADFE6",
"h.	c #CBE0E8",
"i.	c #C9DEE7",
"j.	c #CADEE7",
"k.	c #CADFE7",
"l.	c #CEE1E9",
"m.	c #B1D0DB",
"n.	c #62A1B5",
"o.	c #1C829B",
"p.	c #1A8197",
"q.	c #B6D3D9",
"r.	c #F1F1F1",
"s.	c #7BADBD",
"t.	c #5499AE",
"u.	c #5298AE",
"v.	c #5499AF",
"w.	c #4C95AC",
"x.	c #4893A9",
"y.	c #4D96AD",
"z.	c #84B8C4",
"A.	c #F2F2F2",
"B.	c #D2DBDE",
"C.	c #99BFCC",
"D.	c #5B9DB2",
"E.	c #4B94AB",
"F.	c #4B94AA",
"G.	c #4B95AB",
"H.	c #4A94AB",
"I.	c #4D96AC",
"J.	c #6AA5B9",
"K.	c #18839A",
"L.	c #BAD6DC",
"M.	c #EEF0F1",
"N.	c #F3F3F3",
"O.	c #B3CCD5",
"P.	c #8AB8C9",
"Q.	c #87B7C8",
"R.	c #85B5C6",
"S.	c #84B4C5",
"T.	c #6CA7BB",
"U.	c #00718B",
"V.	c #5BA7B7",
"W.	c #D1E0E5",
"X.	c #CBDDE2",
"Y.	c #CADCE2",
"Z.	c #C8DAE0",
"`.	c #DBE4E7",
" +	c #9E9E9E",
".+	c #E2E3E3",
"++	c #6FA8B9",
"@+	c #5097AD",
"#+	c #5198AE",
"$+	c #5197AE",
"%+	c #007D96",
"&+	c #2A7D93",
"*+	c #D9E7EB",
"=+	c #F2F4F4",
"-+	c #F3F4F4",
";+	c #EFF1F1",
">+	c #E5EBED",
",+	c #92BCC9",
"'+	c #F4F4F4",
")+	c #DDE1E3",
"!+	c #A5C5CE",
"~+	c #1B819A",
"{+	c #21839B",
"]+	c #22849B",
"^+	c #22849C",
"/+	c #27859D",
"(+	c #007992",
"_+	c #2E8BA0",
":+	c #F9F9F9",
"<+	c #F7F7F7",
"[+	c #F6F6F6",
"}+	c #D0E0E5",
"|+	c #BFD6DD",
"1+	c #C1D6DD",
"2+	c #F5F5F5",
"3+	c #D3DBDE",
"4+	c #A1C4D1",
"5+	c #A4C5D2",
"6+	c #94BCCB",
"7+	c #7CB0C2",
"8+	c #7CB0C3",
"9+	c #7DB0C2",
"0+	c #77ADC0",
"a+	c #93BDCC",
"b+	c #DFEBEE",
"c+	c #EDF2F3",
"d+	c #BED6DE",
"e+	c #A8C9D4",
"f+	c #C0D6DE",
"g+	c #DDDFE0",
"h+	c #A3C5D0",
"i+	c #90BBCB",
"j+	c #8FBBCB",
"k+	c #92BDCC",
"l+	c #94BECD",
"m+	c #93BECD",
"n+	c #95BECD",
"o+	c #99C1D0",
"p+	c #CCE2E7",
"q+	c #B7D2DC",
"r+	c #96BFCD",
"s+	c #95BFCE",
"t+	c #499DAF",
"u+	c #B2CBD4",
"v+	c #8EBACA",
"w+	c #8EBBCB",
"x+	c #95BFCD",
"y+	c #4893AA",
"z+	c #5299AA",
"A+	c #CDE0E6",
"B+	c #96BFCE",
"C+	c #97C0CE",
"D+	c #5198A8",
"E+	c #6CA6B9",
"F+	c #66A3B7",
"G+	c #67A3B7",
"H+	c #67A4B7",
"I+	c #67A4B8",
"J+	c #68A4B8",
"K+	c #68A4B9",
"L+	c #65A4B7",
"M+	c #4F9CAE",
"N+	c #F6F9FA",
"O+	c #C1D9E1",
"P+	c #7FB1C3",
"Q+	c #81B2C4",
"R+	c #2A91A5",
"S+	c #CFDFE3",
"T+	c #F8F8F8",
"U+	c #FBFBFB",
"V+	c #FAFAFA",
"W+	c #939393",
"X+	c #3B3B3B",
"Y+	c #3C3C3C",
"Z+	c #2D2D2D",
"`+	c #7A7A7A",
" @	c #727272",
".@	c #BEBEBE",
"+@	c #4A4A4A",
"@@	c #C6C6C6",
"#@	c #7B7B7B",
"$@	c #8B8B8B",
"%@	c #CCCCCC",
"&@	c #7F7F7F",
"*@	c #9F9F9F",
"=@	c #828282",
"-@	c #C3C3C3",
";@	c #838383",
">@	c #929292",
",@	c #D1D1D1",
"'@	c #818181",
")@	c #747474",
"!@	c #A1A1A1",
"~@	c #3D3D3D",
"{@	c #A9A9A9",
"]@	c #5D5D5D",
"^@	c #ABABAB",
"/@	c #ACACAC",
"(@	c #2F2F2F",
"_@	c #AEAEAE",
":@	c #505050",
"<@	c #BFBFBF",
"[@	c #C1C1C1",
"}@	c #606060",
"|@	c #414141",
"1@	c #515151",
"2@	c #303030",
"3@	c #8F8F8F",
"4@	c #A7A7A7",
"5@	c #868686",
"6@	c #1F1F1F",
"7@	c #2E2E2E",
"8@	c #7C7C7C",
"9@	c #7D7D7D",
"0@	c #808080",
"a@	c #404040",
"b@	c #202020",
"c@	c #A8A8A8",
"d@	c #989898",
"e@	c #3A3A3A",
"f@	c #CDCDCD",
"g@	c #5B5B5B",
"h@	c #AAAAAA",
"i@	c #7E7E7E",
"j@	c #5E5E5E",
"k@	c #2C2C2C",
"l@	c #777777",
"m@	c #696969",
"n@	c #8A8A8A",
"o@	c #3F3F3F",
"p@	c #6E6E6E",
"q@	c #3E3E3E",
"r@	c #BABABA",
"s@	c #9B9B9B",
"t@	c #A2A2A2",
"u@	c #A5A5A5",
"                                                                                ",
"                                                                                ",
"          . + @ # $ $ % & & * * * * * = = = = = = = - = - = ; & > , '           ",
"      % ) ! ~ { ] ^ ^ / ~ ( _ : _ < < [ [ } [ } } } } } [ } } [ | <   1         ",
"      2 ] 3 4 3 3 5 6 7 8 9 0 0 a 0 0 a 0 a 0 b b b c d e f g : : : < 5 h       ",
"    , i 3 4 j 5 ] { k l m n l l l o l l l l l l l p q r s t [ g < g : }         ",
"    . / 4 j 3 5 ] ^ u v w x y y z y y A y y z B C D E F G H } [ < < < < : .     ",
"    $ 5 j 5 5 ^ ^ ~ I J K L M M M M L M M L M M N O P Q R S | | | } [ [ T ,     ",
"    $ ] 3 5 ] ^ / ~ U V W X X Y X X X Z ` Y Z `  .Z ..+.R @.#.#.#.| | } $.+     ",
"    # ^ 5 { { / ~ _ %.&.*.Z X X Y Z ` Y X X Z Z  .Y =.-.R ;.>.,.,.'.'.| ).,     ",
"    $ ^ 5 { ^ ~ ( : %.!.~.Z Y Z Z Z Z Z Z ` Z Y {.Z ].+.G ^.T >.>.,.'.#./.+     ",
"    # / { / / ( _ g (.!.~.Z Z Z Z Z ` Y ` ` Y ` _.X ..+.R :.).$.$.T >.,.<.2     ",
"    % / { / ~ _ : < (.&.*.Z X Z Y Z X Z Z X Y X _.Y [.+.G :.).).).$.T >.}.+     ",
"    & ~ ^ ~ ( : g [ (.&.~.Z ` X Z ` Z X Y Z X Z  .Y [.Q G |.<.1././.).$.2.2     ",
"    & ( / ( _ g < [ 3.!.~.Z Z X Y Z Y X Z X X Z {.Y ].-.R 4.<.<.<./.).T 5.2     ",
"    * _ ~ _ : < [ | 6.7.8.9.9.0.0.0. .0.0.0.0.9.a.O b.-.G c.5.}.}.<././.d.2     ",
"    * _ ~ ( : < [ | e.f.g.h.i.j.j.k.k.k.k.k.k.k.l.m.n.o.p.q.d.5.}.}.1./.r.)     ",
"    - : ( : g [ } #.s.t.u.v.v.v.v.v.v.v.v.t.v.v.v.w.x.y.v.z.A.d.5.2.}.1.A.)     ",
"    - : ( : g [ } #.B.C.D.x.E.E.F.E.F.E.G.F.F.E.G.H.I.J.K.L.M.r.r.5.2.1.N.2     ",
"    * g _ g < } | '.O.P.Q.R.S.R.R.R.R.R.R.R.S.S.S.P.T.U.V.W.X.Y.Z.`.5.}.N. +    ",
"    * < _ g < } | .+++q l @+o @+@+#+@+@+@+$+@+@+@+q %+&+*+=+-+;+>+,+5.}.'+)     ",
"    - < _ g < } #..+)+!+~+{+{+{+{+]+{+^+{+{+{+{+/+(+_+*+:+<+[+}+|+1+r.5.2+ +    ",
"    * g _ g [ | 3+4+5+6+..7+7+7+7+7+7+7+8+7+8+7+9+0+a+x b+c+d+e+f+r.d.5.2+ +    ",
"    * < ( g [ g+h+i+j+k+l+m+a+l+l+m+a+a+m+a+l+l+a+n+o+~+p+q+r+s+t+A.r.2.2+ +    ",
"    - < _ g [ u+v+j+j+v+j+v+v+v+w+w+v+v+v+v+v+v+i+x+y+z+A+B+C+e D+A.d.2.2+)     ",
"    - < _ g [ E+F+G+G+G+G+H+H+H+I+J+K+K+J+J+J+K+v L+M+N+O+P+Q+R+S+r.d.5.2+ +    ",
"    * < _ g [ | #.,.>.$.$.1.}.5.d.r.N.'+[+<+T+U+U+U+U+V+:+T+[+'+'+r.r.2.[+ +    ",
"    * < _ g g } #.,.>.$.).1.<.2.2.d.A.'+2+[+T+T+V+:+:+:+<+[+2+N.A.r.5.}.'+ +    ",
"    * < ( g < } | '.>.T )./.1.}.2.d.r.N.N.2+[+T+:+T+T+<+<+2+2+'+A.d.5.}.'+)     ",
"    - : ( W+X+Y+Z+`+,.>.T /.1.<.2.d.r.r.A.'+2+[+<+[+[+[+[+ @N.r.d.d.5.}.N. +    ",
"    * : .@+@g [ } @ ,.@@#@$@).%@ +&@*@r.r.* =@* '+- -@;@j >@A.,@'@&@g 1.N.2     ",
"    & ( )@!@: < } #.'.~@{@]@^@/@(@_@:@<@[@}@% |@| =@1@& | |@d.2@*@3@.@1.A.)     ",
"    4@g )@W+: 5@Y+Y+@ 6@~@7@8@/@9@<.&@$ 0@2@a@b@% '@% A.A.a@$ &@}.}.<.<.'.c@    ",
"    d@g _@e@f@g < Y+= g@,.>.^ h@9@1.i@' &@3@2.d.< &@# 5.5.a@.@j@}./.( 2.f@      ",
"    >   : >@k@X+X+l@| m@Z+~@n@h@8@).9@' : o@o@a@.@&@$ 5.}.o@}.p@(@q@r@<.{@      ",
"      + i g : g < } | | '.,.T ).)././.<.}.}.}.5.2.2.2.5.}.2.<.<.<.<.2.  4@      ",
"        s@- i { { / ~ ( _ g < [ < | | #.'.,.,.,.,.,.,.,.,.,.'.#.#.{ _@t@        ",
"            @ > u@@ @ 4@@ 4@c@c@c@c@c@c@4@c@c@{@{@{@{@c@{@c@4@c@4@^@            ",
"                                                                                ",
"                                                                                "};
