/* XPM */
static char *SpecificConsole_40x40[] = {
/* columns rows colors chars-per-pixel */
"40 40 128 2",
"   c #00CCFF",
".  c #1DCFFC",
"X  c #1DD0FC",
"o  c #1ED0FD",
"O  c #39D4FB",
"+  c #3AD5FC",
"@  c #52D8F9",
"#  c #53D8FA",
"$  c #54D9FB",
"%  c #69DBF7",
"&  c #6ADCF8",
"*  c #959595",
"=  c gray59",
"-  c #989898",
";  c gray60",
":  c #9A9A9A",
">  c #9B9B9B",
",  c gray61",
"<  c #9D9D9D",
"1  c gray62",
"2  c #A0A0A0",
"3  c #A2A2A2",
"4  c #A4A4A4",
"5  c #A5A5A5",
"6  c gray65",
"7  c #A7A7A7",
"8  c gray66",
"9  c #A9A9A9",
"0  c gray67",
"q  c gray68",
"w  c #AEAEAE",
"e  c #AFAFAF",
"r  c gray69",
"t  c #B1B1B1",
"y  c #B2B2B2",
"u  c gray70",
"i  c #B4B4B4",
"p  c gray71",
"a  c #B6B6B6",
"s  c #B7B7B7",
"d  c #B9B9B9",
"f  c #BBBBBB",
"g  c gray75",
"h  c #80E0F7",
"j  c #81E1F8",
"k  c #92E0F4",
"l  c #94E3F6",
"z  c #A2E2F2",
"x  c #A4E4F4",
"c  c #A6E6F7",
"v  c #B8EAF7",
"b  c gray76",
"n  c gray77",
"m  c #C5C5C5",
"M  c #CACACA",
"N  c #CBCBCB",
"B  c gray80",
"V  c #CDCDCD",
"C  c #CECECE",
"Z  c #D0D0D0",
"A  c gray82",
"S  c #D2D2D2",
"D  c LightGray",
"F  c gray83",
"G  c #D5D5D5",
"H  c gray84",
"J  c #D7D7D7",
"K  c #D8D8D8",
"L  c gray85",
"P  c #DADADA",
"I  c gray86",
"U  c gainsboro",
"Y  c #DDDDDD",
"T  c gray87",
"R  c #DFDFDF",
"E  c #CAE6ED",
"W  c #CCE8EF",
"Q  c #C0E7F0",
"!  c #C1E8F1",
"~  c #C3EAF3",
"^  c #D4E8EC",
"/  c #D6E9EE",
"(  c #DFE6E7",
")  c #DDE9EC",
"_  c #DEEAED",
"`  c #D8EBF0",
"'  c #D9ECF1",
"]  c #DAEDF2",
"[  c gray88",
"{  c #E1E1E1",
"}  c #E2E2E2",
"|  c gray89",
" . c #E4E4E4",
".. c gray90",
"X. c #E6E6E6",
"o. c #E7E7E7",
"O. c #E6E8E9",
"+. c #E5EBED",
"@. c #E6ECEE",
"#. c gray91",
"$. c #E9E9E9",
"%. c #EAEAEA",
"&. c gray92",
"*. c #ECECEC",
"=. c gray93",
"-. c #EEEEEE",
";. c #EFEFEF",
":. c #E2EEF1",
">. c #E3EFF2",
",. c #EEF0F1",
"<. c #EFF1F2",
"1. c gray94",
"2. c #F1F1F1",
"3. c gray95",
"4. c #F3F3F3",
"5. c #F4F4F4",
"6. c gray96",
"7. c #F6F6F6",
"8. c gray97",
"9. c #F8F8F8",
"0. c #F9F9F9",
"q. c gray98",
"w. c #FBFBFB",
"e. c gray99",
"r. c #FDFDFD",
"t. c #FEFEFE",
"y. c gray100",
"u. c None",
/* pixels */
"u.u.u.u.u.u.u.u.u.u.u.u.u.u.u.u.u.u.u.u.u.u.u.u.u.u.u.u.u.u.u.u.u.u.u.u.u.u.u.u.",
"u.u.u.u.u.u.u.Y V V V V V V V V V V V V C C V V V V V V V V V C u.u.u.u.u.u.u.u.",
"u.u.u.u.V 2 : 6 q q q q t t t u u u u u u u u u u u u u u u u u 6 : q u.u.u.u.u.",
"u.u.u.t < M P J J P P P P Y Y Y Y Y { { { { { { { { ..{ ..{ { { { Y b = C u.u.u.",
"u.u.m < J J C J C J J J P P P Y Y Y Y Y Y Y Y { { Y { Y Y Y Y Y Y Y Y J = u.u.u.",
"u.u.: C J C C J J J P P P P P Y Y Y Y Y { { { { { { { { { { { Y { Y Y { f d u.u.",
"u.P < P C J J J J J P P P Y Y Y Y Y { { { { { { { { { { { { { { Y { { Y Y 2 u.u.",
"u.V q J J C J J J P P Y Y Y Y { { { { { { { ................{ { { { { { $.: u.u.",
"u.V q J C J J J P P P Y Y { Y { [ | |  . . . . ........... .| | { { ..{ $.: u.u.",
"u.V q P J J P P P P Y Y Y { { { |  . . .#. .#.#.$...o.O.v E  . .......{ $.: u.u.",
"u.V t P C P P P P Y Y Y { { ..{  . .#.#.#. .#.#.../ % o   X O.o.........$.: u.u.",
"u.V q P J P P P Y Y { { { { .... .#. .#.$.*.$.~ O o   o X % $.#.$.......=.: u.u.",
"u.V t P P P P Y Y Y { { { ..{ .. .#. .$.=._ + o   X @ ~ %.%.$.$.$.$.....=.: u.u.",
"u.V t P J P Y Y Y { { { ......$.#.*.#.*.& o   o j @.=.;.*.=.*.*.=.$.$.$.=.< u.u.",
"u.V t P P P Y Y { { { { ......$.#.*.%.O o o $ @.,.;.;.;.=.;.*.*.=.$.$...=.< u.u.",
"u.V u Y P P Y Y { { { ......$.$.*./ o   o v ,.1.2.2.2.1.1.;.;.=.=.=.$.$.2.< u.u.",
"u.V i U I U Y T [ { |  .o.#.#.=./ o   O @.<.,.3.3.3.3.3.2.3.2.;.=.=.$.$.2.< u.u.",
"u.V i Y I Y T [ [ |  .o.o.$.%./ o   O 3.2.3.3.5.3.5.6.3.3.3.3.,.2.=.=.=.2.< u.u.",
"u.V i U I U T [ {  ...o.o.#.+.o   O ,.3.3.3.3.6.7.7.6.5.7.3.3.3.2.=.=.$.6.< u.u.",
"u.V u T U T [ { |  . .o.#.#.O   + ,.3.3.3.6.7.7.7.0.7.7.7.5.6.3.2.2.2.=.2.< u.u.",
"u.V t [ U T T { {  .o.o.$.l X o ] 3.2.3.3.7.7.0.9.9.9.0.7.7.5.3.2.2.=.=.6.< u.u.",
"u.V i [ U T [ [ |  ...#._ o o c ;.3.3.6.7.7.7.0.0.e.0.0.0.9.7.7.6.2.2.2.6.< u.u.",
"u.V t Y U T [ |  . .o.#.@   O ;.;.2.3.6.7.7.0.0.e.e.0.e.0.9.7.5.6.2.2.2.6.< u.u.",
"u.V i [ I T [ [ |  ...W o o / ;.;.3.3.6.7.0.0.y.e.y.y.e.0.9.9.7.6.2.2.=.6.< u.u.",
"u.V i Y Y Y { { {  .#.@   @ *.1.1.3.3.5.7.0.0.0.y.y.y.e.0.9.7.7.6.2.2.=.6.< u.u.",
"u.V i { Y Y { {  ...^ . o / =.=.1.2.3.5.7.0.0.y.0.e.e.y.0.0.7.6.6.2.2.=.6.< u.u.",
"u.V i Y Y [ { { |  .k   O *.=.1.1.2.3.6.7.7.9.0.e.e.0.0.0.0.7.6.6.2.2.=.0.< u.u.",
"u.V t { U Y Y {  . ..   x *.*.=.;.1.3.6.6.7.9.9.0.0.0.0.7.7.6.3.2.2.=.=.6.< u.u.",
"u.V i Y P Y [ { | ( X . _ %.%.=.=.1.1.3.3.6.7.0.0.9.0.7.9.6.6.5.2.2.=.=.6.< u.u.",
"u.V u Y U Y Y [ {  .z k o.%.*.=.;.1.2.2.3.5.6.7.7.7.7.7.7.5.3.2.2.2.2.=.2.< u.u.",
"u.V i Y P Y Y { { | ....o.#.$.%.*.;.1.2.2.6.3.6.6.6.6.6.6.3.3.2.2.=.=.=.6.< u.u.",
"u.V t U P U Y { { |  ...o.#.$.%.*.=.;.;.2.2.3.3.3.3.3.3.3.3.1.1.2.=.=.$.2.< u.u.",
"u.Y 6 Y P Y Y Y { { ......$.$.$.=.=.=.=.2.2.2.2.2.2.2.6.2.2.=.=.=.=.=.=...7 u.u.",
"u.u.: Y P P Y Y { { { ........$.$.=.=.=.=.=.=.2.2.=.2.=.2.=.=.=.=.=.$.=.V u u.u.",
"u.u.6 b Y Y Y Y Y { { { { ....$.$.$.$.=.=.=.=.=.=.=.=.2.=.=.=.=.=.$.$.=.7 P u.u.",
"u.u.u.: C Y Y Y { { { { ....$.$.$.$.$.=.=.=.=.2.2.2.=.=.=.=.=.=.=.=.=.m 6 u.u.u.",
"u.u.u.P : u V P J P P Y Y Y { { { { { ........................{ { J q 2 u.u.u.u.",
"u.u.u.u.u.f 6 6 6 6 6 6 6 6 7 7 7 7 7 7 6 7 7 7 7 7 7 7 7 7 7 7 7 7 V u.u.u.u.u.",
"u.u.u.u.u.u.u.u.u.u.u.u.u.u.u.u.u.u.u.u.u.u.u.u.u.u.u.u.u.u.u.u.u.u.u.u.u.u.u.u.",
"u.u.u.u.u.u.u.u.u.u.u.u.u.u.u.u.u.u.u.u.u.u.u.u.u.u.u.u.u.u.u.u.u.u.u.u.u.u.u.u."
};
