/* XPM */
static char * SpecificArtificialDSL_40x40_xpm[] = {
"40 40 188 2",
"  	c None",
". 	c #A0A0A0",
"+ 	c #9A9A9A",
"@ 	c #A6A6A6",
"# 	c #B0B0B0",
"$ 	c #AFAFAF",
"% 	c #B1B1B1",
"& 	c #B2B2B2",
"* 	c #B3B3B3",
"= 	c #B5B5B5",
"- 	c #B4B4B4",
"; 	c #B6B6B6",
"> 	c #A4A4A4",
", 	c #999999",
"' 	c #ADADAD",
") 	c #9D9D9D",
"! 	c #CACACA",
"~ 	c #DADADA",
"{ 	c #D7D7D7",
"] 	c #D6D6D6",
"^ 	c #D8D8D8",
"/ 	c #D9D9D9",
"( 	c #DBDBDB",
"_ 	c #DCDCDC",
": 	c #DDDDDD",
"< 	c #DFDFDF",
"[ 	c #E0E0E0",
"} 	c #E1E1E1",
"| 	c #E2E2E2",
"1 	c #DEDFDF",
"2 	c #959595",
"3 	c #9C9C9C",
"4 	c #D4D4D4",
"5 	c #D2D2D2",
"6 	c #D5D5D5",
"7 	c #D3D3D3",
"8 	c #DEDEDE",
"9 	c #DCDDDD",
"0 	c #969696",
"a 	c #D0D0D0",
"b 	c #E7E7E7",
"c 	c #E8E8E8",
"d 	c #E4E4E4",
"e 	c #E9E9E9",
"f 	c #E5E5E5",
"g 	c #E3E3E3",
"h 	c #EAEAEA",
"i 	c #5D9DB2",
"j 	c #5298AE",
"k 	c #4E96AD",
"l 	c #4D96AC",
"m 	c #589BB0",
"n 	c #67A4B8",
"o 	c #77ADC0",
"p 	c #83B4C5",
"q 	c #8BB8C8",
"r 	c #90BBCB",
"s 	c #94BECD",
"t 	c #95BFCE",
"u 	c #93BDCD",
"v 	c #8FBBCA",
"w 	c #89B7C7",
"x 	c #7EB1C3",
"y 	c #6CA7BB",
"z 	c #599CB1",
"A 	c #4E96AC",
"B 	c #5097AD",
"C 	c #589BB1",
"D 	c #2B869E",
"E 	c #006B85",
"F 	c #006B86",
"G 	c #12778F",
"H 	c #E6E6E6",
"I 	c #ECECEC",
"J 	c #5C9DB2",
"K 	c #5198AE",
"L 	c #4F96AC",
"M 	c #4C95AC",
"N 	c #4F96AD",
"O 	c #549AB0",
"P 	c #5D9EB3",
"Q 	c #65A3B7",
"R 	c #6BA7BA",
"S 	c #6CA7BA",
"T 	c #69A5B9",
"U 	c #63A2B6",
"V 	c #5A9CB1",
"W 	c #5298AF",
"X 	c #4D95AC",
"Y 	c #2B879E",
"Z 	c #006A84",
"` 	c #006C86",
" .	c #12768E",
"..	c #EDEDED",
"+.	c #5197AE",
"@.	c #4D95AB",
"#.	c #12778E",
"$.	c #EEEEEE",
"%.	c #13778E",
"&.	c #EFEFEF",
"*.	c #5C9EB2",
"=.	c #E40D0D",
"-.	c #006A85",
";.	c #006C85",
">.	c #F0F0F0",
",.	c #5D9EB2",
"'.	c #5398AE",
").	c #13778F",
"!.	c #EBEBEB",
"~.	c #F1F1F1",
"{.	c #2B879F",
"].	c #13768E",
"^.	c #F2F2F2",
"/.	c #5297AE",
"(.	c #F3F3F3",
"_.	c #9E9E9E",
":.	c #579AB0",
"<.	c #13788F",
"[.	c #F4F4F4",
"}.	c #0C728B",
"|.	c #F5F5F5",
"1.	c #2A8399",
"2.	c #5B9DB1",
"3.	c #388CA0",
"4.	c #C7DCE1",
"5.	c #87B4C2",
"6.	c #9ABECA",
"7.	c #AAC7D0",
"8.	c #B1CBD3",
"9.	c #AEC9D1",
"0.	c #9EC0CB",
"a.	c #8AB6C4",
"b.	c #6EA7B9",
"c.	c #5FA1B1",
"d.	c #DCE8EB",
"e.	c #F6F6F6",
"f.	c #F1F1F2",
"g.	c #F7F7F7",
"h.	c #F8F8F8",
"i.	c #F9F9F9",
"j.	c #F2F2F3",
"k.	c #010101",
"l.	c #141414",
"m.	c #5C5C5C",
"n.	c #838383",
"o.	c #0D0D0D",
"p.	c #898989",
"q.	c #222222",
"r.	c #2B2B2B",
"s.	c #A5A5A5",
"t.	c #B8B8B8",
"u.	c #151515",
"v.	c #595959",
"w.	c #131313",
"x.	c #B9B9B9",
"y.	c #717171",
"z.	c #8B8B8B",
"A.	c #0A0A0A",
"B.	c #4C4C4C",
"C.	c #090909",
"D.	c #6E6E6E",
"E.	c #A7A7A7",
"F.	c #080808",
"G.	c #707070",
"H.	c #060606",
"I.	c #353535",
"J.	c #A8A8A8",
"K.	c #989898",
"L.	c #8A8A8A",
"M.	c #535353",
"N.	c #868686",
"O.	c #8C8C8C",
"P.	c #CDCDCD",
"Q.	c #878787",
"R.	c #8E8E8E",
"S.	c #6B6B6B",
"T.	c #3C3C3C",
"U.	c #424242",
"V.	c #0F0F0F",
"W.	c #8D8D8D",
"X.	c #909090",
"Y.	c #383838",
"Z.	c #A9A9A9",
"`.	c #9B9B9B",
" +	c #AEAEAE",
".+	c #A2A2A2",
"++	c #AAAAAA",
"@+	c #ABABAB",
"                                                                                ",
"                                                                                ",
"          . + @ # $ $ % & & * * * * * = = = = = = = - = - = ; & > , '           ",
"      % ) ! ~ { ] ^ ^ / ~ ( _ : _ < < [ [ } [ } } } } } [ } } [ | 1   2         ",
"      3 ] 4 5 4 4 6 ] { ^ / ~ ( ( _ : 7 7 7 7 7 7 7 7 7 7 7 8 : 9 : < 6 0       ",
"    , a 4 5 7 7 7 7 7 7 7 7 7 7 7 7 7 7 7 7 7 7 7 7 7 7 7 7 7 7 < 8 : }         ",
"    . / 5 7 7 7 7 7 7 7 7 7 7 7 7 7 7 7 7 7 7 7 7 7 7 7 7 7 7 7 7 < < < : .     ",
"    $ 6 7 7 7 7 7 7 7 7 7 7 7 7 7 7 7 7 7 7 7 7 7 7 7 7 7 7 7 7 7 } [ [ b ,     ",
"    $ ] 4 7 7 7 7 7 7 7 7 7 7 7 7 7 7 7 7 7 7 7 7 7 7 7 7 7 7 7 7 | | } c +     ",
"    # ^ 6 7 7 7 7 7 7 7 7 7 7 7 7 7 7 7 7 7 7 7 7 7 7 7 7 7 7 7 7 d d | e ,     ",
"    $ ^ 6 7 7 7 7 7 7 7 7 7 7 7 7 7 7 7 7 7 7 7 7 7 7 7 7 7 7 7 7 f d g h +     ",
"    # / { / / i j k l m n o p q r s t u v w x y z A B C D E F G c b H f I 3     ",
"    % / { / ~ J K K K L M N O P Q R S T U V W X l K j m Y Z `  .e c b H ..+     ",
"    & ~ ^ ~ ( i +.+.j j +.+.k l A X l @.M A B j K K j C D E ` #.h h e c $.3     ",
"    & ( / ( _ i K j j +.K j K K j K j K K W K K j K j C D E F %.I h e b &.3     ",
"    * _ ~ _ : *.j K =.j K K =.K j K j =.j j K +.K K j C Y -.;.%...I h h >.3     ",
"    * _ ~ ( : ,.K j j K K K j j K j j K K K j j K j '.C D E F ).....!.h ~.)     ",
"    - : ( : 8 *.K +.+.j j K K K j +.K j j j j K j j j C {.Z ;.].&.$...!.^.)     ",
"    - : ( : 8 *.j /.=.+.j j =.j K +.j =.+.j j j j j '.C {.Z E ].~.&.$.!.(.3     ",
"    * 8 _ 8 < J K j K K K j K j j K K +.j K j +.K K j C D E ` ).~.>.&...(._.    ",
"    * < _ 8 < *.K j j K W K j j K +.j K j +.K j j K j :.D Z E <.(.>.&...[.)     ",
"    - < _ 8 < *.j K K j +.K j K j K W j j j j K j +.j C D E ` }.[.~.~.&.|._.    ",
"    * 8 _ 8 [ J j j K j j +.K K j K K K +.K K j K +.j C D E ` 1.[.~.>.&.|._.    ",
"    * < ( 8 [ 2.K j K j j j j K /.j K K K K j j j K '.C Y -.3.4.[.^.~.$.|._.    ",
"    - < _ 8 } 5.6.7.8.9.0.a.b.m K +././.j j K K K j j C {.c.d.e.(.f.>.$.|.)     ",
"    - < _ [ H c c c c c e e e I &.~.^.[.e.g.g.h.h.i.h.i.e.|.(.(.j.>.>.&.|._.    ",
"    * < < c e e e e e e e e e e h e e e ..&...!.e e !.!.e e e e I $.>.$.e._.    ",
"    * < H e e e e e e e e e e e e e e e e e e e e e e e e e e e e h I I [._.    ",
"    * | c e e e e e e e e e e e e e e e e e e e e e e e e e e e e e h !.[.)     ",
"    - g c e e e e e ; k.k.k.l.m.8 n.o.p.+ q.k.r.e e e e e e e e e e e !.(._.    ",
"    * g e e e e e e e s.k.t.+ u.v.w.x.! y.= k.< e e e e e e e e e e c e (.3     ",
"    & | b e e e e e e ; k.8 e z.A.B.C.D.8 ; k.} e e e e e e e e e e c e ^.)     ",
"    E.} : e e e e e e ; k.8 e # F.: G.H.I.; k.} e e e e e e e e e e e h d J.    ",
"    K.8 6 e e e e 7 e ; k.8 e L.M.N.| O.F.= k.} e 5 t.e e e e e e e c !.P.      ",
"    >   < e e e e 8 ~ Q.k.R.R.S.~ T.U.V.z.W.k.X.+ Y.P.e e e e e e e ( h Z.      ",
"      + a e e e e e a { { / ~ ( _ 8 < } d b c c b H H b c e e e e e I   E.      ",
"        `.e e e e e e e e e e e e e e e e e e e e e b b c c c c H /  +.+        ",
"            @ > s.@ @ E.@ E.J.J.J.J.J.J.E.J.J.Z.Z.Z.++$ * - & # Z.@+            ",
"                                                                                ",
"                                                                                "};
