/* XPM */
static char *SpecificCopperStraight_40x40[] = {
/* columns rows colors chars-per-pixel */
"40 40 105 2",
"   c black",
".  c #1D1D1D",
"X  c #1E1E1E",
"o  c gray12",
"O  c #313131",
"+  c #323232",
"@  c gray20",
"#  c #343434",
"$  c gray30",
"%  c #686868",
"&  c DimGray",
"*  c #6A6A6A",
"=  c gray42",
"-  c gray57",
";  c #959595",
":  c gray59",
">  c #989898",
",  c gray60",
"<  c #9A9A9A",
"1  c #9B9B9B",
"2  c gray61",
"3  c #9D9D9D",
"4  c gray62",
"5  c #A0A0A0",
"6  c #A2A2A2",
"7  c #A4A4A4",
"8  c #A5A5A5",
"9  c gray65",
"0  c #A7A7A7",
"q  c gray66",
"w  c #A9A9A9",
"e  c #AAAAAA",
"r  c gray67",
"t  c gray68",
"y  c #AEAEAE",
"u  c #AFAFAF",
"i  c gray69",
"p  c #B1B1B1",
"a  c #B2B2B2",
"s  c gray70",
"d  c #B4B4B4",
"f  c gray71",
"g  c #B6B6B6",
"h  c #B7B7B7",
"j  c #B9B9B9",
"k  c #BBBBBB",
"l  c gray75",
"z  c #C0C0C0",
"x  c gray76",
"c  c gray77",
"v  c #C5C5C5",
"b  c #CACACA",
"n  c #CBCBCB",
"m  c gray80",
"M  c #CDCDCD",
"N  c #CECECE",
"B  c #D0D0D0",
"V  c gray82",
"C  c #D2D2D2",
"Z  c LightGray",
"A  c gray83",
"S  c #D5D5D5",
"D  c gray84",
"F  c #D7D7D7",
"G  c #D8D8D8",
"H  c gray85",
"J  c #DADADA",
"K  c gray86",
"L  c gainsboro",
"P  c #DDDDDD",
"I  c gray87",
"U  c #DFDFDF",
"Y  c gray88",
"T  c #E1E1E1",
"R  c #E2E2E2",
"E  c gray89",
"W  c #E4E4E4",
"Q  c gray90",
"!  c #E6E6E6",
"~  c #E7E7E7",
"^  c gray91",
"/  c #E9E9E9",
"(  c #EAEAEA",
")  c gray92",
"_  c #ECECEC",
"`  c gray93",
"'  c #EEEEEE",
"]  c #EFEFEF",
"[  c gray94",
"{  c #F1F1F1",
"}  c gray95",
"|  c #F3F3F3",
" . c #F4F4F4",
".. c gray96",
"X. c #F6F6F6",
"o. c gray97",
"O. c #F8F8F8",
"+. c #F9F9F9",
"@. c gray98",
"#. c #FBFBFB",
"$. c gray99",
"%. c #FDFDFD",
"&. c #FEFEFE",
"*. c gray100",
"=. c None",
/* pixels */
"=.=.=.=.=.=.=.=.=.=.=.=.=.=.=.=.=.=.=.=.=.=.=.=.=.=.=.=.=.=.=.=.=.=.=.=.=.=.=.=.",
"=.=.=.=.=.=.=.P M M M M M M M M M M M M N N M M M M M M M M M N =.=.=.=.=.=.=.=.",
"=.=.=.=.M 5 < 9 t t t t p p p s s s s s s s s s s s s s s s s s 9 < t =.=.=.=.=.",
"=.=.=.p 3 b J F F J J J J P P P P P T T T T T T T T Q T Q T T T T P x : N =.=.=.",
"=.=.v 3 F F N F N F F F J J J P P P P P P P P T T P T P P P P P P P P F : =.=.=.",
"=.=.< N F N N F F F J J J J J P P P P P T T T T T T T T T T T P T P P T l j =.=.",
"=.J 3 J N F F F F F J J J P P P P P T T T T T T T T T T T T T T P T T P P 5 =.=.",
"=.M t F F N F F F J J P P P P T T T T T T T Q Q Q Q Q Q Q Q T T T T T T Q < =.=.",
"=.M t F N F F F J J J P P T P T T T T Q Q Q Q Q Q Q Q Q Q Q T T T T T T / < =.=.",
"=.M t J F F J J J J P P P T T T Q Q Q Q Q Q Q Q / Q F $ . - Q Q Q Q Q T / < =.=.",
"=.M p J N J J J J P P P T T Q T Q Q / Q / Q / / Q F .     . Q Q Q Q Q T / < =.=.",
"=.M t J F J J J P P T T T T Q Q Q Q Q / / / / / J .       . / / / / Q Q _ 3 =.=.",
"=.M p J J J J P P P T T T Q T Q Q / Q / / _ / J .       . s / / / / / Q _ < =.=.",
"=.M p J F J P P P T T T Q Q Q / / / / / / _ J .       . 9 _ _ _ / _ / / _ 3 =.=.",
"=.M p J J J P P T T T T Q Q Q / / / _ / _ P .       . e ] _ _ _ _ / / / ] 3 =.=.",
"=.M s P J J P P T T T Q Q Q / / _ _ _ _ P o       . e ] ] ] ] _ _ _ / / ] 3 =.=.",
"=.M s P J J P T T T T Q Q Q / _ _ _ _ P .       . e ] ] ] ] ] _ ] _ _ / ] 5 =.=.",
"=.M s P P P P T T T Q / / / / _ _ _ Q .       . e o.o.] o.o.o.] ] _ _ _ ] 3 =.=.",
"=.M s P J P P T T Q Q Q Q / / _ _ _ #       . e o.o.] o.o.o.] ] o._ ] _ o.< =.=.",
"=.M s P P P P T T Q Q Q / / _ _ _ #       . e o.o.o.O.o.o.] o.o.] ] ] _ o.3 =.=.",
"=.M p T P P P T T T Q / / / _ _ #       . < O.o.o.o.O.o.o.o.] o.o.] _ ] o.3 =.=.",
"=.M s P P P T T Q Q Q / / _ _ O       . = O.O.O.O.*.O.*.o.o.o.o.] o.] ] ] 3 =.=.",
"=.M s T P P T T Q Q Q / / / O       . = o.o.O.O.*.O.O.O.O.O.o.] ] ] ] ] o.3 =.=.",
"=.M s P P P T T T Q Q Q / O       . = o.o.o.O.*.*.*.*.*.O.O.o.o.o.o.] _ o.3 =.=.",
"=.M s T P P T T T Q / Q O       . = ] o.o.O.*.O.*.*.*.*.O.O.o.o.] ] ] ] O.3 =.=.",
"=.M s T J P T T T Q Q O       . = ] ] o.o.O.O.*.*.O.O.*.O.O.o.o.o.o.] ] o.3 =.=.",
"=.M s P P T T T Q Q $       . = ] ] o.] o.o.O.O.O.*.O.*.O.O.o.] ] ] o._ o.3 =.=.",
"=.M s T P P P T T Q .     . = _ ] ] ] o.] o.O.O.O.O.O.O.O.o.O.] o.] _ ] o.3 =.=.",
"=.M p T J P T T T Q O . . = _ _ ] ] o.] o.o.o.O.o.o.o.o.o.] o.o.o.] ] _ o.3 =.=.",
"=.M s P J P P T T Q Q l F / _ _ ] ] o.] ] o.] o.o.o.o.o.o.o.] ] ] ] ] _ ] 3 =.=.",
"=.M s P P P P T T Q Q Q Q / / _ ] _ _ ] ] o.] o.] o.o.o.o.] o.] ] ] _ _ o.< =.=.",
"=.M p J J P P P T T Q Q Q / / / _ ] ] ] ] ] o.] ] o.] o.] o.] _ ] ] _ _ ] 3 =.=.",
"=.P 9 P J P P P T T T Q / / / / _ _ _ ] ] ] ] o.] o.] ] ] ] ] ] ] _ _ _ Q e =.=.",
"=.=.< P J P P P T T T Q Q Q Q / / _ _ _ ] ] ] ] _ ] ] ] ] ] ] _ _ _ _ _ M s =.=.",
"=.=.9 x P P P P P T T T T Q Q / / / / _ ] ] _ ] ] ] ] ] _ ] _ _ _ _ / _ e F =.=.",
"=.=.=.< N P P P T T T T Q Q / / / / _ _ _ _ ] ] ] _ ] ] ] _ _ _ _ _ _ v 9 =.=.=.",
"=.=.=.J < s N J F J J J P P T T P T Q T T Q Q Q Q Q Q Q Q Q Q T Q F t 5 =.=.=.=.",
"=.=.=.=.=.l 9 5 9 9 9 9 9 9 e 9 9 e e 9 9 e 9 e e e e e e 9 9 9 e e b =.=.=.=.=.",
"=.=.=.=.=.=.=.=.=.=.=.=.=.=.=.=.=.=.=.=.=.=.=.=.=.=.=.=.=.=.=.=.=.=.=.=.=.=.=.=.",
"=.=.=.=.=.=.=.=.=.=.=.=.=.=.=.=.=.=.=.=.=.=.=.=.=.=.=.=.=.=.=.=.=.=.=.=.=.=.=.=."
};
