/* XPM */
static char * SpecificArtificialWiredEndDevice_40x40_xpm[] = {
"40 40 309 2",
"  	c None",
". 	c #A0A0A0",
"+ 	c #9A9A9A",
"@ 	c #A6A6A6",
"# 	c #B0B0B0",
"$ 	c #AFAFAF",
"% 	c #B1B1B1",
"& 	c #B2B2B2",
"* 	c #B3B3B3",
"= 	c #B5B5B5",
"- 	c #B4B4B4",
"; 	c #B6B6B6",
"> 	c #A4A4A4",
", 	c #999999",
"' 	c #ADADAD",
") 	c #9D9D9D",
"! 	c #CACACA",
"~ 	c #DADADA",
"{ 	c #D7D7D7",
"] 	c #D6D6D6",
"^ 	c #D8D8D8",
"/ 	c #D9D9D9",
"( 	c #DBDBDB",
"_ 	c #DCDCDC",
": 	c #DDDDDD",
"< 	c #DFDFDF",
"[ 	c #E0E0E0",
"} 	c #E1E1E1",
"| 	c #E2E2E2",
"1 	c #959595",
"2 	c #9C9C9C",
"3 	c #D4D4D4",
"4 	c #D2D2D2",
"5 	c #D5D5D5",
"6 	c #DEDEDE",
"7 	c #969696",
"8 	c #D0D0D0",
"9 	c #D3D3D3",
"0 	c #DBDDDE",
"a 	c #98C7D2",
"b 	c #78B8C8",
"c 	c #7EBCCA",
"d 	c #7FBCCA",
"e 	c #7FBCCB",
"f 	c #7FBDCB",
"g 	c #7DBACA",
"h 	c #81BECC",
"i 	c #BFD6DC",
"j 	c #DCDEDF",
"k 	c #90C2CF",
"l 	c #4EA6BB",
"m 	c #54A9BD",
"n 	c #53A8BD",
"o 	c #5EAFC2",
"p 	c #5BA7BA",
"q 	c #5CA0B1",
"r 	c #E7E7E7",
"s 	c #8FC3CF",
"t 	c #4DA5BA",
"u 	c #56AABE",
"v 	c #57AABE",
"w 	c #56A9BD",
"x 	c #60B0C3",
"y 	c #63ADBF",
"z 	c #217B93",
"A 	c #3E8EA1",
"B 	c #E8E8E8",
"C 	c #90C3D0",
"D 	c #4CA5BA",
"E 	c #56A9BE",
"F 	c #5FAFC2",
"G 	c #62ACBF",
"H 	c #207E96",
"I 	c #00657F",
"J 	c #4492A7",
"K 	c #E9E9E9",
"L 	c #D9DCDC",
"M 	c #91C4D0",
"N 	c #4BA4B9",
"O 	c #54A8BD",
"P 	c #62ADBF",
"Q 	c #227F96",
"R 	c #006782",
"S 	c #006A84",
"T 	c #4593A7",
"U 	c #EAEAEA",
"V 	c #DBDDDD",
"W 	c #A1CCD6",
"X 	c #62B0C2",
"Y 	c #6BB4C6",
"Z 	c #6DB5C6",
"` 	c #6DB5C7",
" .	c #6AB3C5",
"..	c #60ACBE",
"+.	c #228097",
"@.	c #006C86",
"#.	c #006983",
"$.	c #398CA1",
"%.	c #ECECEC",
"&.	c #D5DCDD",
"*.	c #9BC6D1",
"=.	c #53A6BA",
"-.	c #5EABBE",
";.	c #5FACBF",
">.	c #5EACBF",
",.	c #72B7C8",
"'.	c #398FA4",
").	c #00647F",
"!.	c #006681",
"~.	c #7CB1BE",
"{.	c #EDEDED",
"].	c #A2C9D2",
"^.	c #4BA0B5",
"/.	c #3F99AF",
"(.	c #439CB1",
"_.	c #429BB1",
":.	c #439CB2",
"<.	c #449DB3",
"[.	c #449CB2",
"}.	c #419BB1",
"|.	c #53A5BA",
"1.	c #3089A0",
"2.	c #006B84",
"3.	c #00627E",
"4.	c #7FB4C1",
"5.	c #E8EAEA",
"6.	c #EEEEEE",
"7.	c #A1C9D2",
"8.	c #50A4B8",
"9.	c #469EB4",
"0.	c #459EB4",
"a.	c #49A0B6",
"b.	c #479FB5",
"c.	c #48A0B6",
"d.	c #48A0B5",
"e.	c #489FB5",
"f.	c #459CB3",
"g.	c #54A6BA",
"h.	c #328BA1",
"i.	c #7CB3C0",
"j.	c #EAEBEB",
"k.	c #EFEFEF",
"l.	c #A4CAD3",
"m.	c #51A4B8",
"n.	c #449CB3",
"o.	c #3592A9",
"p.	c #3E98AF",
"q.	c #3793AA",
"r.	c #3A96AC",
"s.	c #3B96AC",
"t.	c #55A7BB",
"u.	c #30899F",
"v.	c #005D7A",
"w.	c #74AEBD",
"x.	c #ECEEEE",
"y.	c #F0F0F0",
"z.	c #A1C9D3",
"A.	c #4FA3B7",
"B.	c #469EB3",
"C.	c #328FA7",
"D.	c #006883",
"E.	c #197E97",
"F.	c #3F99B0",
"G.	c #036E88",
"H.	c #0C758E",
"I.	c #419AB1",
"J.	c #0E768F",
"K.	c #016D87",
"L.	c #54A7BA",
"M.	c #24819A",
"N.	c #6BA8B9",
"O.	c #EDEFEF",
"P.	c #EBEBEB",
"Q.	c #F1F1F1",
"R.	c #A6CCD4",
"S.	c #51A3B7",
"T.	c #0F748D",
"U.	c #24859D",
"V.	c #127992",
"W.	c #197D96",
"X.	c #439BB1",
"Y.	c #1B8099",
"Z.	c #107790",
"`.	c #3D97AE",
" +	c #4AA0B4",
".+	c #8ABFCD",
"++	c #EDF0F1",
"@+	c #F2F2F2",
"#+	c #D5DDDF",
"$+	c #97C5D1",
"%+	c #6CB1C2",
"&+	c #74B5C5",
"*+	c #75B5C6",
"=+	c #75B6C6",
"-+	c #75B6C7",
";+	c #76B6C7",
">+	c #76B7C7",
",+	c #77B7C8",
"'+	c #77B8C8",
")+	c #77B8C9",
"!+	c #74B7C6",
"~+	c #79B9C9",
"{+	c #76B7C8",
"]+	c #79B9CA",
"^+	c #71B6C7",
"/+	c #91C6D2",
"(+	c #EFF3F4",
"_+	c #F3F3F3",
":+	c #E4E4E4",
"<+	c #E5E5E5",
"[+	c #F4F4F4",
"}+	c #F6F6F6",
"|+	c #F7F7F7",
"1+	c #F8F8F8",
"2+	c #9E9E9E",
"3+	c #E6E6E6",
"4+	c #F5F5F5",
"5+	c #E3E3E3",
"6+	c #F9F9F9",
"7+	c #FAFAFA",
"8+	c #FBFBFB",
"9+	c #FCFCFC",
"0+	c #787878",
"a+	c #3D3D3D",
"b+	c #2E2E2E",
"c+	c #FEFEFE",
"d+	c #FDFDFD",
"e+	c #C8C8C8",
"f+	c #868686",
"g+	c #BABABA",
"h+	c #8D8D8D",
"i+	c #7E7E7E",
"j+	c #CFCFCF",
"k+	c #A1A1A1",
"l+	c #818181",
"m+	c #A3A3A3",
"n+	c #949494",
"o+	c #828282",
"p+	c #3C3C3C",
"q+	c #7D7D7D",
"r+	c #4F4F4F",
"s+	c #303030",
"t+	c #515151",
"u+	c #C5C5C5",
"v+	c #848484",
"w+	c #858585",
"x+	c #A8A8A8",
"y+	c #545454",
"z+	c #323232",
"A+	c #838383",
"B+	c #727272",
"C+	c #6B6B6B",
"D+	c #7C7C7C",
"E+	c #3E3E3E",
"F+	c #3F3F3F",
"G+	c #101010",
"H+	c #424242",
"I+	c #434343",
"J+	c #111111",
"K+	c #B8B8B8",
"L+	c #B7B7B7",
"M+	c #767676",
"N+	c #696969",
"O+	c #A9A9A9",
"P+	c #4E4E4E",
"Q+	c #CCCCCC",
"R+	c #808080",
"S+	c #525252",
"T+	c #2D2D2D",
"U+	c #2F2F2F",
"V+	c #C4C4C4",
"W+	c #313131",
"X+	c #414141",
"Y+	c #707070",
"Z+	c #C3C3C3",
"`+	c #5B5B5B",
" @	c #7B7B7B",
".@	c #6C6C6C",
"+@	c #5F5F5F",
"@@	c #6F6F6F",
"#@	c #888888",
"$@	c #7A7A7A",
"%@	c #5C5C5C",
"&@	c #4D4D4D",
"*@	c #8E8E8E",
"=@	c #8F8F8F",
"-@	c #C1C1C1",
";@	c #929292",
">@	c #A7A7A7",
",@	c #4B4B4B",
"'@	c #5D5D5D",
")@	c #606060",
"!@	c #717171",
"~@	c #202020",
"{@	c #989898",
"]@	c #898989",
"^@	c #8A8A8A",
"/@	c #404040",
"(@	c #CDCDCD",
"_@	c #C6C6C6",
":@	c #979797",
"<@	c #1E1E1E",
"[@	c #1F1F1F",
"}@	c #9B9B9B",
"|@	c #BEBEBE",
"1@	c #AEAEAE",
"2@	c #A2A2A2",
"3@	c #A5A5A5",
"4@	c #ABABAB",
"                                                                                ",
"                                                                                ",
"          . + @ # $ $ % & & * * * * * = = = = = = = - = - = ; & > , '           ",
"      % ) ! ~ { ] ^ ^ / ~ ( _ : _ < < [ [ } [ } } } } } [ } } [ | <   1         ",
"      2 ] 3 4 3 3 5 ] { ^ / ~ ( ( _ : : _ 6 6 < < < < < 6 6 6 : : : < 5 7       ",
"    , 8 3 4 9 5 ] { ^ / ~ ( ( : : 6 6 < < [ [ [ } } } } [ [ [ 6 < 6 : }         ",
"    . / 4 9 3 5 ] ^ 0 a b c c d d e e e e e e f f f f f e e e e e g h i : .     ",
"    $ 5 9 5 5 ^ ^ j k l m m m m m m m m m m m m m m m m m m m m n o p q r ,     ",
"    $ ] 3 5 ] ^ 0 s t u v v v v v v v v v v v v v v v v v v v w x y z A B +     ",
"    # ^ 5 { { 0 C D E v v v v v v v v v v v v v v v v v v v u F G H I J K ,     ",
"    $ ^ 5 { L M N m u u u u u u u u u u u u u u u u u u u O F P Q R S T U +     ",
"    # / { V W X Y Z Z Z Z Z Z Z Z Z Z Z Z Z Z Z Z Z Z Z `  ...+.R @.#.$.%.2     ",
"    % / &.*.=.-.;.>.>.>.>.>.>.>.>.>.>.;.;.;.;.;.;.;.;.;.>.,.'.).@.S !.~.{.+     ",
"    & ~ ].^./.(.(.(.(.(.(.(.(.(.(.(._.:.:.:.<.<.<.<.<.[.}.|.1.!.2.3.4.5.6.2     ",
"    & ( 7.8.:.9.9.9.9.9.9.9.9.9.9.9.0.9.a.b.9.c.d.9.e.a.f.g.h.I ).i.j.r k.2     ",
"    * _ l.m.:.9.9.9.9.9.9.9.9.9.9.9.9.n.o.p.b.q.r.e.s.q.<.t.u.v.w.x.U U y.2     ",
"    * _ z.A.(.B.B.B.B.B.B.B.B.9.B.B.a.C.D.E.F.G.H.I.J.K.r.L.M.N.O.{.P.U Q.)     ",
"    - : R.S._.B.B.B.B.B.B.B.B.B.B.B.e.q.T.U.I.V.W.X.Y.Z.`. +.+++k.6.{.P.@+)     ",
"    - : #+$+%+&+&+*+=+=+-+;+>+,+,+'+)+b !+'+~+{+'+]+)+>+^+/+(+Q.Q.k.6.P._+2     ",
"    * 6 _ 6 < } | :+<+r B K P.%.6.y.Q.@+[+[+}+}+|+1+|+}+}+[+[+_+Q.y.k.{._+2+    ",
"    * < _ 6 < } | :+3+r K P.P.6.6.Q.Q._+_+4+|+|+1+1+1+1+|+4+4+_+_+y.k.{.[+)     ",
"    - < _ 6 < } 5+:+3+B B P.{.6.k.Q.@+4+}+|+1+6+7+8+7+7+6+|+}+4+[+Q.Q.k.4+2+    ",
"    * 6 _ 6 [ | 5+:+3+B K P.%.k.k.Q.@+4+4+|+1+8+8+9+8+8+7+1+}+[+[+Q.y.k.4+2+    ",
"    * < ( 6 [ 0+a+a+b++ U %.{.k.k.@+@+4+}+1+6+9+9+c+d+8+e+1 1+}+[+@+Q.6.4+2+    ",
"    - < _ 6 f+0+| :+^ g+K h+i+j+8 k+l+m+}+1+7 f+( : g+f+7 ; |+n+o+% y.6.4+)     ",
"    - < _ 6 p+| 5+<+3+r q+i+) r+# s+% t+u+v+w+x+y+g+z+x+7 v+A+B+* l+y.k.4+2+    ",
"    * < _ 6 p+9 5+C+b+D+E+F+F+G+# l+_+o+- H+H+I+J+K+f+7+L+v+H+[+[+Q.Q.6.}+2+    ",
"    * < _ 6 M+N+5+<+O+D+P+Q+%.6 $ R+@+o+- S+{ 1+K L+w+6+= A+S+9 @+} k.{.[+2+    ",
"    * < ( 6 < 0+T+a+a+O+g+U+F+F+$ R+Q.o+& V+W+H+H+; v+|+= A+V+W+X+Y+k.{.[+)     ",
"    - : ( : < [ } :+<+3+r U P.%.6.y.Q.Q.@+[+4+}+|+}+}+}+}+Z+_+Q.y.y.k.{._+2+    ",
"    * : ( : 6 [ } `+L+<+ @.@K Q++@@@k.Q.Q.[+_+[+[+4+[+4+[+X+@+Q.Q.6.6.P._+2     ",
"    & ( ~ _ : < } #@$@<+%@&@K q+*@*@k.=@-@l+| l+l+5+@+;@l+s+y.k.k.6.{.P.@+)     ",
"    >@6 ~ _ : < [ 9 ,@<+%@'@/ P+Q+F+6.F+R+% )@k+l+l+l+!@% ~@k.6.{.{.%.%.:+x+    ",
"    {@6 ~ ( _ 6 < } p+>@]@^@+ E+U F+%.F+6.k.G+/@/@/@/@k.k./@6.%.{.U P.6.(@      ",
"    >   : ( _ 6 < [ N+,@u+_@a+.@K E+U F+{.6.U+k.6.< r+j+{.F+{.P.%.U K %.O+      ",
"      + 8 6 : 6 < } :@<@:+<+[@}@K E+U F+{.{.*@s+F+@@|@s+r+~@%.%.%.%.6.  >@      ",
"        }@- 8 { { / ~ ( _ 6 < [ < | | 5+:+<+<+<+<+<+<+<+<+<+:+5+5+{ 1@2@        ",
"            @ > 3@@ @ >@@ >@x+x+x+x+x+x+>@x+x+O+O+O+O+x+O+x+>@x+>@4@            ",
"                                                                                ",
"                                                                                "};
