/* XPM */
static char *SpecificAutoConnect_40x40[] = {
/* columns rows colors chars-per-pixel */
"40 40 196 2",
"   c #EB2E02",
".  c #EB211E",
"X  c #EC221F",
"o  c #EC291F",
"O  c #EB3803",
"+  c #EC391F",
"@  c #EB3E39",
"#  c #ED5505",
"$  c #ED5705",
"%  c #EA4639",
"&  c #EB4E30",
"*  c #EC483A",
"=  c #EC493D",
"-  c #EB5022",
";  c #EC5123",
":  c #EC5222",
">  c #EC5322",
",  c #EE5F26",
"<  c #EF543C",
"1  c #ED6105",
"2  c #ED6706",
"3  c #ED6906",
"4  c #EE7606",
"5  c #EE7A07",
"6  c #EE7E07",
"7  c #EC6325",
"8  c #ED6326",
"9  c #EE6926",
"0  c #ED6C25",
"q  c #EE6D27",
"w  c #EF693F",
"e  c #ED7E28",
"r  c #EE7C2A",
"t  c #EE5743",
"y  c #EB5C52",
"u  c #EF7540",
"i  c #EB735C",
"p  c #ED7D6B",
"a  c #EE8207",
"s  c #EE8A08",
"d  c #EE8C08",
"f  c #EF9108",
"g  c #EF9308",
"h  c #EF9B09",
"j  c #EF9D09",
"k  c #EE8929",
"l  c #EF8829",
"z  c #EE9329",
"x  c #F0AF0A",
"c  c #F0B10A",
"v  c #F0B30A",
"b  c #F0BC0B",
"n  c #F0BE0B",
"m  c #EFA12C",
"M  c #EE8B41",
"N  c #EC8A56",
"B  c #EE9743",
"V  c #ED987B",
"C  c #F2B55F",
"Z  c #F1CC0C",
"A  c #F1CE0C",
"S  c #F0C531",
"D  c #F1D234",
"F  c #F2E50D",
"G  c #F2CA61",
"H  c #F2DC64",
"J  c #959595",
"K  c gray59",
"L  c #989898",
"P  c gray60",
"I  c #9A9A9A",
"U  c #9B9B9B",
"Y  c gray61",
"T  c #9D9D9D",
"R  c gray62",
"E  c #A0A0A0",
"W  c #A2A2A2",
"Q  c #A4A4A4",
"!  c #A5A5A5",
"~  c gray65",
"^  c #A7A7A7",
"/  c gray66",
"(  c #A9A9A9",
")  c gray67",
"_  c gray68",
"`  c #AEAEAE",
"'  c #AFAFAF",
"]  c gray69",
"[  c #B1B1B1",
"{  c #B2B2B2",
"}  c gray70",
"|  c #B4B4B4",
" . c gray71",
".. c #B6B6B6",
"X. c #B7B7B7",
"o. c #B9B9B9",
"O. c #BBBBBB",
"+. c gray75",
"@. c #EF9F98",
"#. c #F29F86",
"$. c #EFB485",
"%. c #EDBE97",
"&. c #F5AD9B",
"*. c #F3C88B",
"=. c #ECC5AF",
"-. c #EDC0B5",
";. c #EFCBB6",
":. c #F3CAAC",
">. c gray76",
",. c gray77",
"<. c #C5C5C5",
"1. c #CACACA",
"2. c #CBCBCB",
"3. c gray80",
"4. c #CDCDCD",
"5. c #CECECE",
"6. c #D0D0D0",
"7. c gray82",
"8. c #D2D2D2",
"9. c LightGray",
"0. c gray83",
"q. c #D5D5D5",
"w. c gray84",
"e. c #D7D7D7",
"r. c #D8D8D8",
"t. c gray85",
"y. c #DADADA",
"u. c gray86",
"i. c gainsboro",
"p. c #DDDDDD",
"a. c gray87",
"s. c #DFDFDF",
"d. c #ECC6C2",
"f. c #EFCFC4",
"g. c #EDD0CE",
"h. c #ECDFC3",
"j. c #EADFDD",
"k. c #EFDCD9",
"l. c #F6CDCA",
"z. c #F9D5D0",
"x. c #EEE0CD",
"c. c #EDE2D8",
"v. c #F0E3DB",
"b. c #F2E2DD",
"n. c #F1E7DC",
"m. c #F4E1DE",
"M. c #F4EBD6",
"N. c #F1E8DC",
"B. c #F1EBDC",
"V. c #F2EDDE",
"C. c #F4E8DF",
"Z. c gray88",
"A. c #E1E1E1",
"S. c #E2E2E2",
"D. c gray89",
"F. c #E4E4E4",
"G. c gray90",
"H. c #E6E6E6",
"J. c #E7E7E7",
"K. c #E8E7E6",
"L. c #EBE5E4",
"P. c #EFE6E3",
"I. c #E9E8E7",
"U. c #EAE8E7",
"Y. c gray91",
"T. c #E9E9E9",
"R. c #EBE9E9",
"E. c #EAEAEA",
"W. c gray92",
"Q. c #EDEAEA",
"!. c #EEECEB",
"~. c #ECECEC",
"^. c gray93",
"/. c #EEEEEE",
"(. c #EFEFEF",
"). c #F0E8E8",
"_. c #F8E7E3",
"`. c #F8EAE5",
"'. c gray94",
"]. c #F1F1F1",
"[. c gray95",
"{. c #F3F3F3",
"}. c #F4F4F4",
"|. c gray96",
" X c #F6F6F6",
".X c gray97",
"XX c #F8F8F8",
"oX c #F9F9F9",
"OX c #FBF8F8",
"+X c gray98",
"@X c #FBFBFB",
"#X c gray99",
"$X c #FDFDFD",
"%X c #FEFEFE",
"&X c gray100",
"*X c None",
/* pixels */
"*X*X*X*X*X*X*X*X*X*X*X*X*X*X*X*X*X*X*X*X*X*X*X*X*X*X*X*X*X*X*X*X*X*X*X*X*X*X*X*X",
"*X*X*X*X*X*X*Xp.4.4.4.4.4.4.4.4.4.4.4.4.5.5.4.4.4.4.4.4.4.4.4.5.*X*X*X*X*X*X*X*X",
"*X*X*X*X4.E I ~ _ _ _ _ [ [ [ } } } } } } } } } } } } } } } } } ~ I _ *X*X*X*X*X",
"*X*X*X[ T 1.y.e.e.y.y.y.y.p.p.p.p.p.A.A.A.A.A.A.A.A.G.A.G.A.A.A.A.p.>.K 5.*X*X*X",
"*X*X<.T e.e.5.e.5.e.e.e.y.y.y.p.p.p.p.p.p.p.p.A.A.p.A.p.p.p.p.p.p.p.p.e.K *X*X*X",
"*X*XI 5.e.5.5.e.e.e.y.y.y.y.y.p.p.p.p.p.A.A.A.A.A.A.A.A.A.A.A.p.A.p.p.A.O.o.*X*X",
"*Xy.T y.5.e.e.e.e.e.y.y.y.p.p.p.p.p.A.A.A.A.A.A.A.A.A.A.A.A.A.A.p.A.A.p.p.E *X*X",
"*X4._ e.e.5.e.e.e.y.y.p.p.p.p.A.A.A.A.A.A.A.G.G.G.G.G.G.G.G.A.A.A.A.A.A.T.I *X*X",
"*X4._ e.5.e.e.e.y.y.y.p.p.A.p.A.A.A.D.D.G.G.G.G.G.G.G.G.G.G.A.F.A.A.G.A.T.I *X*X",
"*X4._ y.e.e.y.y.y.y.p.p.p.A.A.A.D.D.G.G.G.G.J.G.G.J.Y.G.Y.G.G.G.G.G.G.A.T.I *X*X",
"*X4.[ y.5.y.y.y.y.p.p.p.A.A.G.A.G.G.G.T.J.J.T.T.=.U.U.T.T.T.Y.G.G.G.G.G.T.I *X*X",
"*X4._ y.e.y.y.y.p.p.A.A.A.A.G.G.G.J.G.T.T.T.g.i R.T.T.T.T.T.T.T.T.G.G.G.^.I *X*X",
"*X4.[ y.y.y.y.p.p.p.A.A.A.G.A.G.G.T.J.T.L.p @ Q.^.~.~.^.T.T.T.T.T.T.G.G.^.I *X*X",
"*X4.[ y.e.y.p.p.p.A.A.A.G.G.G.T.J.E.T.;.8 > k.(.^.^.^.^.^.^.^.~.^.T.T.T.^.T *X*X",
"*X4.[ y.y.y.p.p.A.A.A.A.G.G.G.T.Y.c.B k e c.'.^.^.'.^.'.'.^.~.~.^.T.T.G.^.T *X*X",
"*X4.} p.y.y.p.p.A.A.A.G.G.G.T.U.$.z f m n.].^.'.].].].'.'.'.^.^.^.^.T.T.].T *X*X",
"*X4.{ u.u.u.u.Z.Z.D.A.G.G.J.-.0 6 j c B.'.'.'.{.].].].{.].].'.(.^.^.T.T.].T *X*X",
"*X5.} p.u.u.Z.Z.A.D.D.J.j.y > 1 d c A H B.}.{.{.{.}.}.{.}.{.].'.].^.^.^.].T *X*X",
"*X4.{ Z.u.p.p.Z.A.D.G.J.d.% > 2 g n F F S C n.}.|.|.|.}.|.{.{.].].^.^.T.|.T *X*X",
"*X4.{ Z.u.p.Z.A.D.D.G.J.J.T.f.M m n F F b f r w l.XXXX|. X}.}.{.].].].^.].T *X*X",
"*X4.[ A.p.Z.Z.A.D.D.J.J.T.E.~.(.n.G D A x s 1 O o t `.XXXX|.|.{.].].^.^.|.T *X*X",
"*X4.} p.u.p.p.A.D.D.J.J.T.E.^.^.(.].M.v h 5 #   X z.+X+XoX X X|.|.].].].|.T *X*X",
"*X4.} Z.u.Z.Z.D.D.D.J.J.T.~.^.(.(.].*.f a 2 , < OX#XoX+X+XXX X}.|.].].].|.T *X*X",
"*X4.[ Z.u.p.Z.A.D.G.J.J.T.Q.^.'.(.:.k 4 3 9 &.#X#X&X&X#X+XXXXX X|.].].^.|.T *X*X",
"*X4.} A.p.p.A.A.A.G.J.T.T.E.^.^.b.8 # q u _.+X+X&X&X&X#XoXXXXX|.|.].].^.|.T *X*X",
"*X4.} A.y.p.A.A.D.G.G.J.T.^.^.).+   > #.|.XXoX#X+X#X#X#X+XXX|.|.|.].].^.|.T *X*X",
"*X4.} p.p.A.A.A.D.G.G.Y.T.E.^.= . * m.|. XXXXX#X#X#X+X+XoXoX X|.|.].].^.oXT *X*X",
"*X4.} A.p.p.p.A.D.G.J.Y.T.E.V & @.'.].|.|.|.XXXXoXoXoXoXXX|.|.{.].].^.^.|.T *X*X",
"*X4.[ A.y.p.A.A.A.G.G.J.T.%.N L.(.'.].{.}.|.|.oXoXoXXXXX X|.|.}.].].^.^.|.T *X*X",
"*X4.} p.y.p.p.A.A.F.G.J.h.x.Q.^.^.'.].].].}.|. XXX X|.|.|.|.{.].].].].^.].T *X*X",
"*X4.} p.p.p.p.A.A.D.G.G.Y.T.T.E.^.(.(.].].|.{.|.}.|.|.|.}.}.].].].^.^.^.|.T *X*X",
"*X4.[ y.y.p.p.p.A.D.F.G.J.Y.T.E.Q.^.(.(.].].].].].{.].}.].].'.'.].^.^.T.].T *X*X",
"*Xp.~ p.y.p.p.p.A.A.G.G.G.T.T.T.^.^.^.^.].].].].].].].|.].].^.^.^.^.^.^.G.^ *X*X",
"*X*XI p.y.y.p.p.A.A.A.G.G.G.G.T.T.^.^.^.^.^.^.].].^.].^.].^.^.^.^.^.T.^.4.} *X*X",
"*X*X~ >.p.p.p.p.p.A.A.A.A.G.G.T.T.T.T.^.^.^.^.^.^.^.^.].^.^.^.^.^.T.T.^.^ y.*X*X",
"*X*X*XI 5.p.p.p.A.A.A.A.G.G.T.T.T.T.T.^.^.^.^.].].].^.^.^.^.^.^.^.^.^.<.~ *X*X*X",
"*X*X*Xy.I } 4.y.e.y.y.p.p.p.A.A.A.A.A.G.G.G.G.G.G.G.G.G.G.G.G.A.A.e._ E *X*X*X*X",
"*X*X*X*X*XO.~ ~ ~ ~ ~ ~ ~ ~ ^ ^ ^ ^ ^ ^ ~ ^ ^ ^ ^ ^ ^ ^ ^ ^ ^ ^ ^ ^ 4.*X*X*X*X*X",
"*X*X*X*X*X*X*X*X*X*X*X*X*X*X*X*X*X*X*X*X*X*X*X*X*X*X*X*X*X*X*X*X*X*X*X*X*X*X*X*X",
"*X*X*X*X*X*X*X*X*X*X*X*X*X*X*X*X*X*X*X*X*X*X*X*X*X*X*X*X*X*X*X*X*X*X*X*X*X*X*X*X"
};
