/* XPM */
static char *SpecificPhone_40x40[] = {
/* columns rows colors chars-per-pixel */
"40 40 105 2",
"   c black",
".  c #070707",
"X  c gray3",
"o  c gray10",
"O  c #2C2C2C",
"+  c gray22",
"@  c #393939",
"#  c #3A3A3A",
"$  c #535353",
"%  c gray33",
"&  c #6D6D6D",
"*  c #818181",
"=  c #838383",
"-  c #868686",
";  c #959595",
":  c gray59",
">  c #979797",
",  c #989898",
"<  c gray60",
"1  c #9A9A9A",
"2  c #9B9B9B",
"3  c gray61",
"4  c #9D9D9D",
"5  c gray62",
"6  c #A0A0A0",
"7  c #A2A2A2",
"8  c #A4A4A4",
"9  c #A5A5A5",
"0  c gray65",
"q  c #A7A7A7",
"w  c gray66",
"e  c #A9A9A9",
"r  c gray67",
"t  c gray68",
"y  c #AEAEAE",
"u  c #AFAFAF",
"i  c gray69",
"p  c #B1B1B1",
"a  c #B2B2B2",
"s  c gray70",
"d  c #B4B4B4",
"f  c gray71",
"g  c #B6B6B6",
"h  c #B7B7B7",
"j  c #B9B9B9",
"k  c #BBBBBB",
"l  c gray75",
"z  c gray76",
"x  c gray77",
"c  c #C5C5C5",
"v  c #C8C8C8",
"b  c #CACACA",
"n  c #CBCBCB",
"m  c gray80",
"M  c #CDCDCD",
"N  c #CECECE",
"B  c #D0D0D0",
"V  c gray82",
"C  c #D2D2D2",
"Z  c LightGray",
"A  c gray83",
"S  c #D5D5D5",
"D  c gray84",
"F  c #D7D7D7",
"G  c #D8D8D8",
"H  c gray85",
"J  c #DADADA",
"K  c gray86",
"L  c gainsboro",
"P  c #DDDDDD",
"I  c gray87",
"U  c #DFDFDF",
"Y  c gray88",
"T  c #E1E1E1",
"R  c #E2E2E2",
"E  c gray89",
"W  c #E4E4E4",
"Q  c gray90",
"!  c #E6E6E6",
"~  c #E7E7E7",
"^  c gray91",
"/  c #E9E9E9",
"(  c #EAEAEA",
")  c gray92",
"_  c #ECECEC",
"`  c gray93",
"'  c #EEEEEE",
"]  c #EFEFEF",
"[  c gray94",
"{  c #F1F1F1",
"}  c gray95",
"|  c #F3F3F3",
" . c #F4F4F4",
".. c gray96",
"X. c #F6F6F6",
"o. c gray97",
"O. c #F8F8F8",
"+. c #F9F9F9",
"@. c gray98",
"#. c #FBFBFB",
"$. c gray99",
"%. c #FDFDFD",
"&. c #FEFEFE",
"*. c gray100",
"=. c None",
/* pixels */
"=.=.=.=.=.=.=.=.=.=.=.=.=.=.=.=.=.=.=.=.=.=.=.=.=.=.=.=.=.=.=.=.=.=.=.=.=.=.=.=.",
"=.=.=.=.=.=.=.P M M M M M M M M M M M M N N M M M M M M M M M N =.=.=.=.=.=.=.=.",
"=.=.=.=.M 6 1 0 t p t p p p p s s s s s s s s s s s s s s s s s 0 1 t =.=.=.=.=.",
"=.=.=.p 4 b J F F F J F J P P P P P T T T T T T T T Q T Q T T T T P z > N =.=.=.",
"=.=.c 4 F F N F N F F F J J J J P P P P P P P T T P T P P P P P P P P F > =.=.=.",
"=.=.1 N F N N F F F J J J J P P P P P P T T T T T T T T T T T P T P P T k j =.=.",
"=.J 4 J N F F F F F J J J J P P P P T T T T T T T T T T T T T T T P P T P 6 =.=.",
"=.M t F F N F F J J J P P P P T T T T T T Q > $ M Q Q Q Q Q T T T T T T ~ 1 =.=.",
"=.M t F N F F F J J J P P P T T T T Q Q Q *     % Q Q Q Q Q Q Q Q T T T ~ 1 =.=.",
"=.M t J F F J J J J P P P T T T Q T Q Q Q       N Q ~ ~ ~ Q Q Q Q Q Q T ~ 1 =.=.",
"=.M p J N J J J J P P P T T T T Q Q Q ~ ~ o   b ) ~ ~ ~ ) ~ Q Q ~ Q Q Q ) 1 =.=.",
"=.M t J F J J J P P T T T Q Q Q Q Q ~ ) ) ) ) ) ) ~ ) ) ) ~ ) ~ ~ Q Q Q ) 4 =.=.",
"=.M p J J J J P P P T T T Q Q Q Q ~ ~ ) ) ) ) ) ) ~ ) ) ~ ) ~ ) ) ~ ~ ~ ) 1 =.=.",
"=.M p J F J P P P T T T Q Q ~ ) ~ ~ ~ ) ) ) ) [ [ [ [ ) ) [ ) ) ~ ) ) ~ ) 4 =.=.",
"=.M p J J J P P T T T T Q Q ~ N $ ~ ) ) ) ) ) [ [ [ [ [ [ ) ) ) ) ) ) ~ [ 4 =.=.",
"=.M s P J J P P T T T Q Q ~ c     r ) [ [ [ [ [ [ [ [ [ [ [ [ [ [ ) ~ ~ [ 4 =.=.",
"=.M s P J J P T T T T Q ~ T X   . Q ) ) [ [ [ ..[ [ [ [ [ [ [ ) ) [ ) ) [ 4 =.=.",
"=.M s P P P P T T Q Q ~ ~ X     % b ) ..[ [ ..[ ..............[ [ ) ) ) ..4 =.=.",
"=.M s P J P P T T T Q Q ~             ~ [ ..T T ..............[ [ [ ) ) [ 4 =.=.",
"=.M s P P P P T T Q Q ~ ) Q 1 %       ~ ..M       # t ........[ ..[ [ [ ..4 =.=.",
"=.M p T P P P T T Q Q Q ) ) ) [ [ T Q ....[ X         ) ..........[ ) ) ..4 =.=.",
"=.M s P P P T T Q Q ~ ~ ~ ) [ ) [ [ ......O.[ #     O ..O.O.......[ [ [ ..4 =.=.",
"=.M s T P P T T Q Q Q ~ ~ ) ) [ [ [ ......O.-     O O.*.*.O.......[ [ [ ..4 =.=.",
"=.M s P P P T T T Q ~ ~ ) ) ) [ [ [ [ ..O.1     O *.*.O.O.O.O.....[ ..) ..4 =.=.",
"=.M s T P P T T T Q ~ ~ ~ ) ) [ [ ..[ ....o   # O.*.*.O.O.O.....[ ..[ [ ..4 =.=.",
"=.M s T J P T T T Q Q ~ ) ) ) [ [ [ [ ..O.) Q O.*.*.*.O.*.O.........[ ) ..4 =.=.",
"=.M s P P T T T Q Q ~ ~ ~ ) ) [ [ [ [ ....O.O.*.O.*.O.*.O.O.O.....[ [ [ O.4 =.=.",
"=.M s T P P P T Q Q ~ ~ ) ) ) [ [ ..........O.O.O.O.O.O.O.O...[ [ [ [ ) ..4 =.=.",
"=.M p T J P T T T Q Q ~ ~ ) ) [ Q   1 [ [ ..O.O.O.O.O.O.O.......[ [ [ [ ..4 =.=.",
"=.M s P J P P T T Q Q Q ~ ~ ) Q .   & [ ........O...........[ [ [ [ [ ) [ 4 =.=.",
"=.M s P P P P T T T Q ~ ~ ~ ~ -   # [ [ [ ....................[ [ [ ) ) ..4 =.=.",
"=.M p J J P P P T Q Q ~ ~ ~ ~ ) P ~ [ [ [ [ [ [ [ ..[ ..[ [ [ [ [ ) [ ) [ 4 =.=.",
"=.P 0 P J P P P T T Q Q Q ~ ~ ) ) ) [ [ [ ..[ [ [ ..[ [ ..[ [ [ ) [ ) ) Q r =.=.",
"=.=.1 P J J P P T T T Q Q Q ~ ~ ~ ) ) ) [ ) [ [ [ [ [ [ ) [ ) ) [ ~ ) [ M s =.=.",
"=.=.0 z P P P P P T T T Q Q ~ ~ ~ ) ) ) ) [ ) [ ) [ ) [ ) [ ) ) ) ~ ~ ) r F =.=.",
"=.=.=.1 N P P P T T T T Q Q ~ ) ) ) ~ ) [ ) ) [ [ [ ) [ [ [ ) ) [ ) [ c 0 =.=.=.",
"=.=.=.J 1 s M J F J J P P P P T P T T T T Q Q T Q Q Q Q Q Q T T Q F t 6 =.=.=.=.",
"=.=.=.=.=.k 0 0 0 0 0 0 0 0 0 r r 0 r 0 r 0 r r r r 0 r 0 r 0 r 0 r M =.=.=.=.=.",
"=.=.=.=.=.=.=.=.=.=.=.=.=.=.=.=.=.=.=.=.=.=.=.=.=.=.=.=.=.=.=.=.=.=.=.=.=.=.=.=.",
"=.=.=.=.=.=.=.=.=.=.=.=.=.=.=.=.=.=.=.=.=.=.=.=.=.=.=.=.=.=.=.=.=.=.=.=.=.=.=.=."
};
