/* XPM */
static char * SpecificArtificialSwitch_40x40_xpm[] = {
"40 40 317 2",
"  	c None",
". 	c #A0A0A0",
"+ 	c #9A9A9A",
"@ 	c #A6A6A6",
"# 	c #B0B0B0",
"$ 	c #AFAFAF",
"% 	c #B1B1B1",
"& 	c #B2B2B2",
"* 	c #B3B3B3",
"= 	c #B5B5B5",
"- 	c #B4B4B4",
"; 	c #B6B6B6",
"> 	c #A4A4A4",
", 	c #999999",
"' 	c #ADADAD",
") 	c #9D9D9D",
"! 	c #CACACA",
"~ 	c #DADADA",
"{ 	c #D7D7D7",
"] 	c #D6D6D6",
"^ 	c #D8D8D8",
"/ 	c #D9D9D9",
"( 	c #DBDBDB",
"_ 	c #DCDCDC",
": 	c #DDDDDD",
"< 	c #DFDFDF",
"[ 	c #E0E0E0",
"} 	c #E1E1E1",
"| 	c #E2E2E2",
"1 	c #959595",
"2 	c #9C9C9C",
"3 	c #D4D4D4",
"4 	c #D2D2D2",
"5 	c #D5D5D5",
"6 	c #DEDEDE",
"7 	c #969696",
"8 	c #D0D0D0",
"9 	c #D3D3D3",
"0 	c #E3E3E3",
"a 	c #E4E4E4",
"b 	c #E7E7E7",
"c 	c #D0D7DA",
"d 	c #A3C3D0",
"e 	c #93BDCC",
"f 	c #97BFCC",
"g 	c #98C0CE",
"h 	c #97BFCD",
"i 	c #97BECD",
"j 	c #96BECD",
"k 	c #97BECC",
"l 	c #95BECD",
"m 	c #94BDCD",
"n 	c #95BECC",
"o 	c #96BFCD",
"p 	c #86B5C6",
"q 	c #85B4C5",
"r 	c #94BDCC",
"s 	c #95BDCC",
"t 	c #9FC4D1",
"u 	c #73ABBD",
"v 	c #E8E8E8",
"w 	c #CBD5D9",
"x 	c #9FC2CF",
"y 	c #8BB9C9",
"z 	c #7EB1C3",
"A 	c #77ADBF",
"B 	c #78AEC1",
"C 	c #7DB0C2",
"D 	c #7DB0C3",
"E 	c #7DB1C3",
"F 	c #81B4C5",
"G 	c #83B4C5",
"H 	c #89B8C8",
"I 	c #8CB9CA",
"J 	c #8CB9C8",
"K 	c #83B3C5",
"L 	c #A8CAD6",
"M 	c #9EC3D1",
"N 	c #99C1CF",
"O 	c #80B3C4",
"P 	c #207C95",
"Q 	c #E9E9E9",
"R 	c #C6D2D7",
"S 	c #99BFCD",
"T 	c #8BB8C9",
"U 	c #87B6C7",
"V 	c #B2D0DC",
"W 	c #E5EFF3",
"X 	c #ABCDD8",
"Y 	c #88B7C8",
"Z 	c #7AAEC1",
"` 	c #90BCCB",
" .	c #90BBCC",
"..	c #92BDCC",
"+.	c #87B7C6",
"@.	c #8EBBCA",
"#.	c #CCDFE7",
"$.	c #B4D1DC",
"%.	c #97C0CF",
"&.	c #86B7C8",
"*.	c #227E97",
"=.	c #006882",
"-.	c #EAEAEA",
";.	c #C1D1D7",
">.	c #90BBCB",
",.	c #8EBACA",
"'.	c #97BFCE",
").	c #BAD5DF",
"!.	c #B1D0DB",
"~.	c #9DC3D1",
"{.	c #A1C6D3",
"].	c #A4C8D4",
"^.	c #9EC4D2",
"/.	c #93BECD",
"(.	c #80B2C4",
"_.	c #7FB2C3",
":.	c #75ACBF",
"<.	c #81B3C4",
"[.	c #90BCCC",
"}.	c #8EBACB",
"|.	c #8FBBCA",
"1.	c #33879F",
"2.	c #006883",
"3.	c #006C86",
"4.	c #E6E6E6",
"5.	c #E5E5E5",
"6.	c #ECECEC",
"7.	c #B8CDD4",
"8.	c #92BDCD",
"9.	c #94BECD",
"0.	c #8AB8C8",
"a.	c #92BCCC",
"b.	c #77ADC0",
"c.	c #99C0CF",
"d.	c #9AC2D0",
"e.	c #ADCDD9",
"f.	c #84B4C5",
"g.	c #24829B",
"h.	c #006A84",
"i.	c #EDEDED",
"j.	c #D8DADA",
"k.	c #AFC9D2",
"l.	c #91BCCC",
"m.	c #8DBACA",
"n.	c #72AABD",
"o.	c #85B5C6",
"p.	c #A2C7D4",
"q.	c #79AEC0",
"r.	c #64A1B5",
"s.	c #6EA8BB",
"t.	c #6CA7BA",
"u.	c #6CA6B9",
"v.	c #72A9BD",
"w.	c #8FBBCB",
"x.	c #A1C5D3",
"y.	c #A2C5D3",
"z.	c #A9CBD6",
"A.	c #C2DAE3",
"B.	c #A6C9D5",
"C.	c #95BFCD",
"D.	c #88B8C8",
"E.	c #158199",
"F.	c #006881",
"G.	c #006D86",
"H.	c #006D87",
"I.	c #EEEEEE",
"J.	c #D6D9DA",
"K.	c #B0C9D3",
"L.	c #91BCCB",
"M.	c #8AB8C9",
"N.	c #99C1D0",
"O.	c #DAE8EF",
"P.	c #E2EDF2",
"Q.	c #B2D0DB",
"R.	c #ACCDD8",
"S.	c #ACCCD8",
"T.	c #9BC3D1",
"U.	c #8DBBCB",
"V.	c #8CB9C9",
"W.	c #318BA2",
"X.	c #EFEFEF",
"Y.	c #A2C2CE",
"Z.	c #8CBACA",
"`.	c #86B6C7",
" +	c #89B7C8",
".+	c #3A8FA6",
"++	c #006B85",
"@+	c #F0F0F0",
"#+	c #559AB0",
"$+	c #559AAF",
"%+	c #5499AF",
"&+	c #569AB0",
"*+	c #5599AF",
"=+	c #5A9CB2",
"-+	c #4793A9",
";+	c #0A708A",
">+	c #4F98A9",
",+	c #EBEBEB",
"'+	c #F1F1F1",
")+	c #5097AD",
"!+	c #5097AE",
"~+	c #5197AE",
"{+	c #5198AE",
"]+	c #4291A7",
"^+	c #09728C",
"/+	c #006A85",
"(+	c #4391A4",
"_+	c #D5E0E3",
":+	c #F2F2F2",
"<+	c #5298AE",
"[+	c #579AB0",
"}+	c #4492A8",
"|+	c #09728B",
"1+	c #298298",
"2+	c #D7E3E6",
"3+	c #F3F3F3",
"4+	c #5298AF",
"5+	c #4391A8",
"6+	c #0F758D",
"7+	c #A8C9D1",
"8+	c #9E9E9E",
"9+	c #4392A8",
"0+	c #10768E",
"a+	c #A2C7D0",
"b+	c #F4F4F4",
"c+	c #5297AE",
"d+	c #026B85",
"e+	c #91BEC8",
"f+	c #F6F6F6",
"g+	c #F5F5F5",
"h+	c #64A4B4",
"i+	c #F1F4F5",
"j+	c #599CB1",
"k+	c #5A9CB1",
"l+	c #5B9DB1",
"m+	c #5A9DB2",
"n+	c #5B9DB2",
"o+	c #5B9EB2",
"p+	c #5B9EB3",
"q+	c #60A0B5",
"r+	c #4A96AB",
"s+	c #5AA0B0",
"t+	c #E8F0F2",
"u+	c #F8F8F8",
"v+	c #FAFAFA",
"w+	c #FBFBFB",
"x+	c #FDFDFD",
"y+	c #FFFFFF",
"z+	c #FEFEFE",
"A+	c #FCFCFC",
"B+	c #F7F7F7",
"C+	c #F9F9F9",
"D+	c #939393",
"E+	c #3B3B3B",
"F+	c #3C3C3C",
"G+	c #2D2D2D",
"H+	c #7A7A7A",
"I+	c #727272",
"J+	c #BEBEBE",
"K+	c #4A4A4A",
"L+	c #C6C6C6",
"M+	c #7B7B7B",
"N+	c #8B8B8B",
"O+	c #CCCCCC",
"P+	c #7F7F7F",
"Q+	c #9F9F9F",
"R+	c #828282",
"S+	c #C3C3C3",
"T+	c #838383",
"U+	c #929292",
"V+	c #D1D1D1",
"W+	c #818181",
"X+	c #747474",
"Y+	c #A1A1A1",
"Z+	c #3D3D3D",
"`+	c #A9A9A9",
" @	c #5D5D5D",
".@	c #ABABAB",
"+@	c #ACACAC",
"@@	c #2F2F2F",
"#@	c #AEAEAE",
"$@	c #505050",
"%@	c #BFBFBF",
"&@	c #C1C1C1",
"*@	c #606060",
"=@	c #414141",
"-@	c #515151",
";@	c #303030",
">@	c #8F8F8F",
",@	c #A7A7A7",
"'@	c #868686",
")@	c #1F1F1F",
"!@	c #2E2E2E",
"~@	c #7C7C7C",
"{@	c #7D7D7D",
"]@	c #808080",
"^@	c #404040",
"/@	c #202020",
"(@	c #A8A8A8",
"_@	c #989898",
":@	c #3A3A3A",
"<@	c #CDCDCD",
"[@	c #5B5B5B",
"}@	c #AAAAAA",
"|@	c #7E7E7E",
"1@	c #5E5E5E",
"2@	c #2C2C2C",
"3@	c #777777",
"4@	c #696969",
"5@	c #8A8A8A",
"6@	c #3F3F3F",
"7@	c #6E6E6E",
"8@	c #3E3E3E",
"9@	c #BABABA",
"0@	c #9B9B9B",
"a@	c #A2A2A2",
"b@	c #A5A5A5",
"                                                                                ",
"                                                                                ",
"          . + @ # $ $ % & & * * * * * = = = = = = = - = - = ; & > , '           ",
"      % ) ! ~ { ] ^ ^ / ~ ( _ : _ < < [ [ } [ } } } } } [ } } [ | <   1         ",
"      2 ] 3 4 3 3 5 ] { ^ / ~ ( ( _ : : _ 6 6 < < < < < 6 6 6 : : : < 5 7       ",
"    , 8 3 4 9 5 ] { ^ / ~ ( ( : : 6 6 < < [ [ [ } } } } [ [ [ 6 < 6 : }         ",
"    . / 4 9 3 5 ] ^ / ~ ( _ _ 6 6 < [ [ } } } | | | | | } } } [ < < < < : .     ",
"    $ 5 9 5 5 ^ ^ ~ ~ _ : 6 6 < [ } } | 0 | a a a a a a a 0 | | | } [ [ b ,     ",
"    $ ] 3 5 ] ^ / ~ ( : c d e f g h i h i j k l m n o h p q r s t u | } v +     ",
"    # ^ 5 { { / ~ _ : w x y z z A B C D E F G H y I J K L M p N O P a | Q ,     ",
"    $ ^ 5 { ^ ~ ( : R S T U V W X K Y T U Z T `  ...+.@.#.$.%.&.*.=.a 0 -.+     ",
"    # / { / / ( _ ;.h >.,.'.).!.~.{.].^./.Y (.G _.:.<.[.}.m |.1.2.3.4.5.6.2     ",
"    % / { / ~ _ 7.8.9.0.<.p 0...a.9.U b.o c.d.N ,.e.$.Y e f.g.h.3.3.b 4.i.+     ",
"    & ~ ^ ~ j.k.l.m.n.o.p.q.r.s.t.u.v.w.{.x.y...z.A.B.C.D.E.F.3.G.H.Q v I.2     ",
"    & ( / J.K.L.L.M.N.O.P.Q.R.S.e.e.T.` ` ` ` U.V.y l.8.W.2.3.G.3.3.Q b X.2     ",
"    * _ ~ Y.m.I y Z.V.@.y `.Y  +Y  +T V.V.y V.I V.m.}..+h.++3.3.3.H.-.-.@+2     ",
"    * _ ~ #+$+#+$+$+#+%+%+&+&+#+#+&+#+&+*+&+#+#+&+=+-+;+h.3.G.G.H.>+,+-.'+)     ",
"    - : ( )+)+!+)+)+)+)+~+)+)+)+)+)+)+)+)+)+{+)+!+%+]+^+/+3.3.3.(+_+i.,+:+)     ",
"    - : ( <+<+<+{+<+{+<+<+{+<+{+{+{+<+<+<+{+{+<+<+[+}+|+h.H.3.1+2+X.I.,+3+2     ",
"    * 6 _ <+{+{+{+<+<+<+{+4+<+{+<+<+<+{+<+{+{+<+{+&+5+|+h.3.6+7+'+@+X.i.3+8+    ",
"    * < _ <+<+<+<+<+<+{+<+<+<+{+{+<+<+<+<+<+{+~+~+&+9+|+h.0+a+3+3+@+X.i.b+)     ",
"    - < _ ~+<+{+<+{+{+{+<+c+~+<+{+~+<+{+<+<+{+<+<+&+9+|+d+e+f+g+b+'+'+X.g+8+    ",
"    * 6 _ {+{+{+<+<+<+<+~+{+<+{+{+{+<+{+<+~+{+<+{+&+5+^+h+i+f+b+b+'+@+X.g+8+    ",
"    * < ( {+j+j+k+k+k+l+m+n+m+m+n+m+m+n+o+o+o+p+p+q+r+s+t+u+u+f+b+:+'+I.g+8+    ",
"    - < _ 6 [ } | a b v Q ,+6.X.@+:+:+b+f+u+v+w+x+y+z+A+v+u+B+f+3+:+@+I.g+)     ",
"    - < _ 6 [ | 0 5.4.b -.6.6.I.@+'+:+b+f+u+C+A+A+x+A+A+v+u+f+g+b+'+@+X.g+8+    ",
"    * < _ 6 [ | 0 5.4.v v ,+i.X.@+'+3+b+f+B+u+w+w+w+w+v+C+u+f+b+b+'+'+I.f+8+    ",
"    * < _ 6 6 } 0 5.4.v Q ,+6.I.I.@+:+b+g+f+u+u+v+C+C+C+B+f+g+3+:+'+X.i.b+8+    ",
"    * < ( 6 < } | a 4.b Q -.,+i.I.@+'+3+3+g+f+u+C+u+u+B+B+g+g+b+:+@+X.i.b+)     ",
"    - : ( D+E+F+G+H+5.4.b -.,+6.I.@+'+'+:+b+g+f+B+f+f+f+f+I+3+'+@+@+X.i.3+8+    ",
"    * : J+K+6 [ } @ 5.L+M+N+Q O+8+P+Q+'+'+* R+* b+- S+T+9 U+:+V+W+P+6 ,+3+2     ",
"    & ( X+Y+: < } 0 a Z+`+ @.@+@@@#@$@%@&@*@% =@| R+-@& | =@@+;@Q+>@J+,+:+)     ",
"    ,@6 X+D+: '@F+F+@ )@Z+!@~@+@{@6.P+$ ]@;@^@/@% W+% :+:+^@$ P+i.i.6.6.a (@    ",
"    _@6 #@:@<@6 < F+= [@5.4.^ }@{@,+|@' P+>@I.@+< P+# X.X.^@J+1@i.-.( I.<@      ",
"    >   : U+2@E+E+3@| 4@G+Z+5@}@~@Q {@' : 6@6@^@J+P+$ X.i.6@i.7@@@8@9@6.`+      ",
"      + 8 6 : 6 < } | | a 5.b Q Q -.-.6.i.i.i.X.I.I.I.X.i.I.6.6.6.6.I.  ,@      ",
"        0@- 8 { { / ~ ( _ 6 < [ < | | 0 a 5.5.5.5.5.5.5.5.5.a 0 0 { #@a@        ",
"            @ > b@@ @ ,@@ ,@(@(@(@(@(@(@,@(@(@`+`+`+`+(@`+(@,@(@,@.@            ",
"                                                                                ",
"                                                                                "};
