/* XPM */
static char * SpecificArtificialRepeater_40x40_xpm[] = {
"40 40 282 2",
"  	c None",
". 	c #A0A0A0",
"+ 	c #9A9A9A",
"@ 	c #A6A6A6",
"# 	c #B0B0B0",
"$ 	c #AFAFAF",
"% 	c #B1B1B1",
"& 	c #B2B2B2",
"* 	c #B3B3B3",
"= 	c #B5B5B5",
"- 	c #B4B4B4",
"; 	c #B6B6B6",
"> 	c #A4A4A4",
", 	c #999999",
"' 	c #ADADAD",
") 	c #9D9D9D",
"! 	c #CACACA",
"~ 	c #DADADA",
"{ 	c #D7D7D7",
"] 	c #D6D6D6",
"^ 	c #D8D8D8",
"/ 	c #D9D9D9",
"( 	c #DBDBDB",
"_ 	c #DCDCDC",
": 	c #DDDDDD",
"< 	c #DFDFDF",
"[ 	c #E0E0E0",
"} 	c #E1E1E1",
"| 	c #E2E2E2",
"1 	c #DEDFDF",
"2 	c #959595",
"3 	c #9C9C9C",
"4 	c #D4D4D4",
"5 	c #D2D2D2",
"6 	c #D5D5D5",
"7 	c #DEDEDE",
"8 	c #DCDDDD",
"9 	c #969696",
"0 	c #D0D0D0",
"a 	c #D3D3D3",
"b 	c #BBCCD2",
"c 	c #95BDCC",
"d 	c #94BECC",
"e 	c #93BDCC",
"f 	c #94BDCC",
"g 	c #95BECC",
"h 	c #95BECD",
"i 	c #97BECC",
"j 	c #9CC2D0",
"k 	c #4F97AB",
"l 	c #BCCDD3",
"m 	c #90BBCB",
"n 	c #8FBBCB",
"o 	c #90BCCB",
"p 	c #92BCCC",
"q 	c #98C0CE",
"r 	c #4792A9",
"s 	c #0A6F88",
"t 	c #E7E7E7",
"u 	c #B2C9D1",
"v 	c #93BECD",
"w 	c #94BECD",
"x 	c #93BDCD",
"y 	c #96BFCE",
"z 	c #4391A8",
"A 	c #006A84",
"B 	c #0D728A",
"C 	c #E8E8E8",
"D 	c #97BBC8",
"E 	c #77ADBF",
"F 	c #77ADC0",
"G 	c #77ACBF",
"H 	c #7DB0C2",
"I 	c #5499AF",
"J 	c #006B85",
"K 	c #0D748C",
"L 	c #E4E4E4",
"M 	c #E9E9E9",
"N 	c #5198AF",
"O 	c #4F97AD",
"P 	c #4F96AD",
"Q 	c #5097AE",
"R 	c #559AB0",
"S 	c #23849D",
"T 	c #006D86",
"U 	c #E3E3E3",
"V 	c #EAEAEA",
"W 	c #5A9CB1",
"X 	c #5198AE",
"Y 	c #5298AE",
"Z 	c #5197AE",
"` 	c #5398AE",
" .	c #579BB0",
"..	c #589BB1",
"+.	c #589BB0",
"@.	c #28859D",
"#.	c #0E738C",
"$.	c #E6E6E6",
"%.	c #E5E5E5",
"&.	c #ECECEC",
"*.	c #599CB1",
"=.	c #5299AF",
"-.	c #4F96AC",
";.	c #4390A7",
">.	c #4290A6",
",.	c #4391A7",
"'.	c #3F8FA6",
").	c #4290A7",
"!.	c #29869E",
"~.	c #006D87",
"{.	c #EDEDED",
"].	c #5399AF",
"^.	c #4793AA",
"/.	c #107F97",
"(.	c #0F7E97",
"_.	c #1A8199",
":.	c #1B8199",
"<.	c #1B829A",
"[.	c #138099",
"}.	c #007A93",
"|.	c #25849C",
"1.	c #006C86",
"2.	c #EEEEEE",
"3.	c #4893AA",
"4.	c #1D829A",
"5.	c #047D96",
"6.	c #006E87",
"7.	c #006C85",
"8.	c #007891",
"9.	c #0C7F98",
"0.	c #569AB0",
"a.	c #28869E",
"b.	c #EFEFEF",
"c.	c #4793A9",
"d.	c #006F88",
"e.	c #006E88",
"f.	c #0C7E97",
"g.	c #579BB1",
"h.	c #0E748C",
"i.	c #F0F0F0",
"j.	c #138098",
"k.	c #007C95",
"l.	c #007D95",
"m.	c #007C94",
"n.	c #007B94",
"o.	c #0F7F97",
"p.	c #087E96",
"q.	c #EBEBEB",
"r.	c #F1F1F1",
"s.	c #1F839B",
"t.	c #006780",
"u.	c #006680",
"v.	c #00657F",
"w.	c #00758E",
"x.	c #F2F2F2",
"y.	c #198199",
"z.	c #107F98",
"A.	c #168099",
"B.	c #F3F3F3",
"C.	c #5A9CB2",
"D.	c #1C8199",
"E.	c #006A83",
"F.	c #006982",
"G.	c #006983",
"H.	c #007790",
"I.	c #0E758D",
"J.	c #9E9E9E",
"K.	c #007890",
"L.	c #047D95",
"M.	c #087189",
"N.	c #F4F4F4",
"O.	c #137F98",
"P.	c #127F97",
"Q.	c #158099",
"R.	c #188099",
"S.	c #188199",
"T.	c #127F98",
"U.	c #25849D",
"V.	c #32889D",
"W.	c #F5F5F5",
"X.	c #4D96AD",
"Y.	c #3A8CA3",
"Z.	c #398CA4",
"`.	c #398CA3",
" +	c #3A8DA4",
".+	c #358AA2",
"++	c #3E8EA6",
"@+	c #549AB0",
"#+	c #207E94",
"$+	c #CDDDE1",
"%+	c #5599AF",
"&+	c #559AAF",
"*+	c #086F89",
"=+	c #B1CFD6",
"-+	c #62A0B4",
";+	c #5A9BB1",
">+	c #5B9DB1",
",+	c #5A9DB1",
"'+	c #5A9DB2",
")+	c #5B9DB2",
"!+	c #5C9DB2",
"~+	c #5C9EB2",
"{+	c #5B9EB2",
"]+	c #5C9EB3",
"^+	c #5B9EB3",
"/+	c #60A0B4",
"(+	c #368DA4",
"_+	c #90BCC7",
":+	c #F6F6F6",
"<+	c #F8F8F8",
"[+	c #F9F9F9",
"}+	c #FCFCFC",
"|+	c #FDFDFD",
"1+	c #FAFAFA",
"2+	c #F7F7F7",
"3+	c #FBFBFB",
"4+	c #F3F3F4",
"5+	c #939393",
"6+	c #3B3B3B",
"7+	c #3C3C3C",
"8+	c #2D2D2D",
"9+	c #7A7A7A",
"0+	c #727272",
"a+	c #BEBEBE",
"b+	c #4A4A4A",
"c+	c #C6C6C6",
"d+	c #7B7B7B",
"e+	c #8B8B8B",
"f+	c #CCCCCC",
"g+	c #7F7F7F",
"h+	c #9F9F9F",
"i+	c #828282",
"j+	c #C3C3C3",
"k+	c #838383",
"l+	c #929292",
"m+	c #D1D1D1",
"n+	c #818181",
"o+	c #747474",
"p+	c #A1A1A1",
"q+	c #3D3D3D",
"r+	c #A9A9A9",
"s+	c #5D5D5D",
"t+	c #ABABAB",
"u+	c #ACACAC",
"v+	c #2F2F2F",
"w+	c #AEAEAE",
"x+	c #505050",
"y+	c #BFBFBF",
"z+	c #C1C1C1",
"A+	c #606060",
"B+	c #414141",
"C+	c #515151",
"D+	c #303030",
"E+	c #8F8F8F",
"F+	c #A7A7A7",
"G+	c #868686",
"H+	c #1F1F1F",
"I+	c #2E2E2E",
"J+	c #7C7C7C",
"K+	c #7D7D7D",
"L+	c #808080",
"M+	c #404040",
"N+	c #202020",
"O+	c #A8A8A8",
"P+	c #989898",
"Q+	c #3A3A3A",
"R+	c #CDCDCD",
"S+	c #5B5B5B",
"T+	c #AAAAAA",
"U+	c #7E7E7E",
"V+	c #5E5E5E",
"W+	c #2C2C2C",
"X+	c #777777",
"Y+	c #696969",
"Z+	c #8A8A8A",
"`+	c #3F3F3F",
" @	c #6E6E6E",
".@	c #3E3E3E",
"+@	c #BABABA",
"@@	c #9B9B9B",
"#@	c #A2A2A2",
"$@	c #A5A5A5",
"                                                                                ",
"                                                                                ",
"          . + @ # $ $ % & & * * * * * = = = = = = = - = - = ; & > , '           ",
"      % ) ! ~ { ] ^ ^ / ~ ( _ : _ < < [ [ } [ } } } } } [ } } [ | 1   2         ",
"      3 ] 4 5 4 4 6 ] { ^ / ~ ( ( _ : : _ 7 7 < < < < < 7 7 7 : 8 : < 6 9       ",
"    , 0 4 5 a 6 ] { ^ / ~ ( ( : : 7 7 < < [ [ [ } } } } [ [ [ 7 < 7 : }         ",
"    . / 5 a 4 6 b c d d e f d f g c g g f g c c c f f g f h f i j k < < : .     ",
"    $ 6 a 6 6 l m n n n m n m n n m m n n n m n n o m o m m p q r s [ [ t ,     ",
"    $ ] 4 6 u e e v e w v w e w v w w v x v w w e w w e v w y z A B | } C +     ",
"    # ^ 6 D E E E E E E F E E E F G E E E E E E E G F E E H I J J K L | M ,     ",
"    $ ^ 6 N O O O O P Q O O O O Q P O O O O Q P O O Q O P R S A T K L U V +     ",
"    # / { W X Y Y Y Z `  ...+.+. . . . . ..... .R Q Z X X  .@.J T #.$.%.&.3     ",
"    % / { *.X Y Y X =.-.;.>.;.,.;.,.;.;.;.;.>.'.).R Z X Y  .!.J ~.#.t $.{.+     ",
"    & ~ ^ W Z X X X ].^./.(._.:.<._.<._.<._.[.}.|. .X Y Z  .!.J 1.#.M C 2.3     ",
"    & ( / W X Y X Z ].3.4.5.~.T T ~.6.~.~.7.8.9.@.0.Y Y X  .a.J ~.#.M t b.3     ",
"    * _ ~ *.Y X Y X ].c.4.5.d.6.e.e.6.e.6.~.8.f.@. .X Z Y g.a.A ~.h.V V i.3     ",
"    * _ ~ W Y Y Y Z ].3._.j.k.k.l.m.m.k.k.n.o.p.@.0.Y Z X  .!.J 1.h.q.V r.)     ",
"    - : ( W Y X Y Y ].c.s.m.t.u.u.v.u.u.u.v.w.o.@.0.X X Y 0.a.J 1.h.{.q.x.)     ",
"    - : ( W X Y Y Y ].3.:.y./.z.o.o.z.o.o.o.A.5.!.0.Y X X g.!.A ~.h.2.q.B.3     ",
"    * 7 _ C.Y Y X X ` 3.D.k.E.F.G.E.G.E.G.G.H.o.@. .Y Y Y g.a.J 1.I.b.{.B.J.    ",
"    * < _ *.X Z Y Y ].3.D.z.K.H.H.8.H.8.8.H.L.p.@.g.X Y Y g.!.J ~.M.b.{.N.)     ",
"    - < _ W X Z Y X ` c.O.P.Q.R.y.S.S.S.S.S.T.n.U.g.Y X Y g.a.A 1.V.r.b.W.J.    ",
"    * 7 _ W Y X X Y ].X.Y.Z.Z.`.Z.`. +`.Z. +`..+++@+X Y Y  .!.J #+$+i.b.W.J.    ",
"    * < ( +.X Y Y Y Y Y R R R 0.%+R %+R &+0.R %+I Y Y Y Y g.@.*+=+x.r.2.W.J.    ",
"    - < _ -+W W ;+W >+W ,+'+'+'+)+'+)+!+~+~+{+]+^+]+]+]+~+/+(+_+B.x.i.2.W.)     ",
"    - < _ 7 [ | U %.$.t V &.&.2.i.r.x.N.:+<+[+}+}+|+}+}+1+<+:+W.N.r.i.b.W.J.    ",
"    * < _ 7 [ | U %.$.C C q.{.b.i.r.B.N.:+2+<+3+3+3+3+1+[+<+:+4+N.r.r.2.:+J.    ",
"    * < _ 7 7 } U %.$.C M q.&.2.2.i.x.N.W.:+<+<+1+[+[+[+2+:+W.B.x.r.b.{.N.J.    ",
"    * < ( 7 < } | L $.t M V q.{.2.i.r.B.B.W.:+<+[+<+<+2+2+W.W.N.x.i.b.{.N.)     ",
"    - : ( 5+6+7+8+9+%.$.t V q.&.2.i.r.r.x.N.W.:+2+:+:+:+:+0+B.r.i.i.b.{.B.J.    ",
"    * : a+b+7 [ } @ %.c+d+e+M f+J.g+h+r.r.* i+* N.- j+k+a l+x.m+n+g+7 q.B.3     ",
"    & ( o+p+: < } U L q+r+s+t+u+v+w+x+y+z+A+% B+| i+C+& | B+i.D+h+E+a+q.x.)     ",
"    F+7 o+5+: G+7+7+@ H+q+I+J+u+K+&.g+$ L+D+M+N+% n+% x.x.M+$ g+{.{.&.&.L O+    ",
"    P+7 w+Q+R+7 < 7+= S+%.$.^ T+K+q.U+' g+E+2.i.< g+# b.b.M+a+V+{.V ( 2.R+      ",
"    >   : l+W+6+6+X+| Y+8+q+Z+T+J+M K+' : `+`+M+a+g+$ b.{.`+{. @v+.@+@&.r+      ",
"      + 0 7 : 7 < } | | L %.t M M V V &.{.{.{.b.2.2.2.b.{.2.&.&.&.&.2.  F+      ",
"        @@- 0 { { / ~ ( _ 7 < [ < | | U L %.%.%.%.%.%.%.%.%.L U U { w+#@        ",
"            @ > $@@ @ F+@ F+O+O+O+O+O+O+F+O+O+r+r+r+r+O+r+O+F+O+F+t+            ",
"                                                                                ",
"                                                                                "};
