/* XPM */
static char * SpecificArtificialCloud_40x40_xpm[] = {
"40 40 437 2",
"  	c None",
". 	c #A0A0A0",
"+ 	c #9A9A9A",
"@ 	c #A6A6A6",
"# 	c #B0B0B0",
"$ 	c #AFAFAF",
"% 	c #B1B1B1",
"& 	c #B2B2B2",
"* 	c #B3B3B3",
"= 	c #B5B5B5",
"- 	c #B4B4B4",
"; 	c #B6B6B6",
"> 	c #A4A4A4",
", 	c #999999",
"' 	c #ADADAD",
") 	c #9D9D9D",
"! 	c #CACACA",
"~ 	c #DADADA",
"{ 	c #D7D7D7",
"] 	c #D6D6D6",
"^ 	c #D8D8D8",
"/ 	c #D9D9D9",
"( 	c #DBDBDB",
"_ 	c #DCDCDC",
": 	c #DDDDDD",
"< 	c #DFDFDF",
"[ 	c #E0E0E0",
"} 	c #E1E1E1",
"| 	c #E2E2E2",
"1 	c #959595",
"2 	c #9C9C9C",
"3 	c #D4D4D4",
"4 	c #D2D2D2",
"5 	c #D5D5D5",
"6 	c #DEDEDE",
"7 	c #969696",
"8 	c #D0D0D0",
"9 	c #D3D3D3",
"0 	c #B4C5CA",
"a 	c #9BB7BF",
"b 	c #9BB7BE",
"c 	c #A2BAC1",
"d 	c #A9BEC4",
"e 	c #A5BBC2",
"f 	c #A3BBC2",
"g 	c #9FBAC1",
"h 	c #BFCDD0",
"i 	c #D3D7D8",
"j 	c #C5CFD2",
"k 	c #C3CED1",
"l 	c #D2D7D8",
"m 	c #CBD3D5",
"n 	c #9BB8BF",
"o 	c #AFC2C8",
"p 	c #B8C7CD",
"q 	c #BDC9CD",
"r 	c #BBC8CD",
"s 	c #BECACE",
"t 	c #BBC9CE",
"u 	c #AABFC6",
"v 	c #98B5BD",
"w 	c #C2D0D3",
"x 	c #D0D8DA",
"y 	c #D5DADC",
"z 	c #E7E7E7",
"A 	c #C1CCCF",
"B 	c #8FB1BB",
"C 	c #87ADB8",
"D 	c #89AFBA",
"E 	c #91B2BC",
"F 	c #A1B9C1",
"G 	c #A4BBC2",
"H 	c #BDCACE",
"I 	c #B5C5CB",
"J 	c #AEC2C8",
"K 	c #B1C2C8",
"L 	c #B3C4C9",
"M 	c #B0C2C8",
"N 	c #AAC0C6",
"O 	c #A7BEC6",
"P 	c #ADC1C7",
"Q 	c #B6C6CB",
"R 	c #A8BDC4",
"S 	c #9DB8BF",
"T 	c #9FBAC2",
"U 	c #91B2BB",
"V 	c #AEC4C9",
"W 	c #E3E3E3",
"X 	c #E8E8E8",
"Y 	c #AFC2C7",
"Z 	c #7DAAB7",
"` 	c #8DB5C0",
" .	c #91B5C1",
"..	c #9AB9C3",
"+.	c #A5BEC6",
"@.	c #BCC8CE",
"#.	c #B6C5CB",
"$.	c #B5C6CB",
"%.	c #B2C4C9",
"&.	c #B6C5CA",
"*.	c #ABC0C8",
"=.	c #A4BDC5",
"-.	c #A7BFC6",
";.	c #ADC1C8",
">.	c #B8C6CB",
",.	c #BCC8CD",
"'.	c #AEC4CA",
").	c #95B6C1",
"!.	c #9FBCC4",
"~.	c #E4E4E4",
"{.	c #E9E9E9",
"].	c #CED3D5",
"^.	c #6FA1B0",
"/.	c #7FAEBD",
"(.	c #7DABBA",
"_.	c #84AEBC",
":.	c #8FB3BF",
"<.	c #99B8C1",
"[.	c #A6BEC5",
"}.	c #B2C3C9",
"|.	c #B1C4C9",
"1.	c #B5C5CA",
"2.	c #A9BFC6",
"3.	c #A6BEC6",
"4.	c #A5BEC5",
"5.	c #AAC0C7",
"6.	c #B3C3C9",
"7.	c #BBC8CC",
"8.	c #B7C5CA",
"9.	c #A9BFC7",
"0.	c #9FBCC5",
"a.	c #87AFBA",
"b.	c #C9D4D7",
"c.	c #EAEAEA",
"d.	c #C2CDCF",
"e.	c #6AA3B3",
"f.	c #6AA3B4",
"g.	c #6FA5B6",
"h.	c #7AA9B8",
"i.	c #88B0BC",
"j.	c #93B5BF",
"k.	c #9EBAC4",
"l.	c #A8BFC6",
"m.	c #AEC1C8",
"n.	c #B1C3C9",
"o.	c #ACC0C7",
"p.	c #ACC1C7",
"q.	c #ABC0C7",
"r.	c #B1C3C8",
"s.	c #B4C4C9",
"t.	c #88AFBA",
"u.	c #C7D3D7",
"v.	c #E6E6E6",
"w.	c #E5E5E5",
"x.	c #ECECEC",
"y.	c #B9C7CB",
"z.	c #7DA8B3",
"A.	c #65A1B2",
"B.	c #64A0B2",
"C.	c #6BA3B4",
"D.	c #76A8B8",
"E.	c #83AEBB",
"F.	c #8DB3BE",
"G.	c #92B5C0",
"H.	c #9BB9C2",
"I.	c #B3C4CA",
"J.	c #A4BCC4",
"K.	c #AFC3C8",
"L.	c #A1BBC4",
"M.	c #B5C4CA",
"N.	c #B7C6CA",
"O.	c #A1BCC5",
"P.	c #88AFBB",
"Q.	c #9EBBC2",
"R.	c #EDEDED",
"S.	c #A6BCC2",
"T.	c #6FA3B3",
"U.	c #6DA5B7",
"V.	c #67A1B3",
"W.	c #6CA3B5",
"X.	c #73A7B7",
"Y.	c #79AAB8",
"Z.	c #82ADBB",
"`.	c #87AFBC",
" +	c #8BB1BD",
".+	c #9CB9C3",
"++	c #A5BDC5",
"@+	c #A9C0C7",
"#+	c #A8BEC6",
"$+	c #B0C2C9",
"%+	c #BAC7CC",
"&+	c #BBC7CB",
"*+	c #B0C3C9",
"=+	c #A0BBC4",
"-+	c #96B7C1",
";+	c #90B4C0",
">+	c #8FB4BF",
",+	c #EEEEEE",
"'+	c #77A5B2",
")+	c #7AABBB",
"!+	c #6BA2B4",
"~+	c #72A6B6",
"{+	c #77A8B8",
"]+	c #7AAAB9",
"^+	c #89B0BD",
"/+	c #8AB2BD",
"(+	c #A4BEC5",
"_+	c #A4BDC4",
":+	c #A2BDC4",
"<+	c #9DBAC3",
"[+	c #A1BCC4",
"}+	c #A7BEC5",
"|+	c #B4C4CA",
"1+	c #95B6C0",
"2+	c #97B8C3",
"3+	c #84ACB8",
"4+	c #EFEFEF",
"5+	c #80ABB9",
"6+	c #81AEBB",
"7+	c #7CABB9",
"8+	c #77A9B8",
"9+	c #76A8B7",
"0+	c #78A9B8",
"a+	c #87B0BC",
"b+	c #8BB2BE",
"c+	c #89B1BD",
"d+	c #8DB2BE",
"e+	c #91B4BF",
"f+	c #97B7C1",
"g+	c #97B8C1",
"h+	c #98B7C1",
"i+	c #9AB9C2",
"j+	c #A2BCC4",
"k+	c #ABC1C7",
"l+	c #A1BBC3",
"m+	c #A3BDC5",
"n+	c #99B9C3",
"o+	c #86AEBA",
"p+	c #F0F0F0",
"q+	c #7FA8B4",
"r+	c #9ABAC5",
"s+	c #7FACBA",
"t+	c #75A8B7",
"u+	c #7BABB9",
"v+	c #8AB2BE",
"w+	c #8DB2BD",
"x+	c #8AB1BC",
"y+	c #85AFBB",
"z+	c #82ADBA",
"A+	c #84AFBC",
"B+	c #91B4C0",
"C+	c #92B4C0",
"D+	c #96B6C1",
"E+	c #A2BCC5",
"F+	c #9EBAC3",
"G+	c #9FBBC4",
"H+	c #9DBAC4",
"I+	c #F1F1F1",
"J+	c #ADC1C6",
"K+	c #8EB1BC",
"L+	c #90B5C0",
"M+	c #8AB1BD",
"N+	c #80ACBA",
"O+	c #84AFBB",
"P+	c #85B0BC",
"Q+	c #96B7C0",
"R+	c #9AB8C2",
"S+	c #94B6C0",
"T+	c #99B9C2",
"U+	c #99B9C1",
"V+	c #9BB8C2",
"W+	c #94B6C1",
"X+	c #9DBAC2",
"Y+	c #B1C4CB",
"Z+	c #92B4BE",
"`+	c #EBEBEB",
" @	c #F2F2F2",
".@	c #C4CED1",
"+@	c #90B3BD",
"@@	c #96B8C2",
"#@	c #8CB2BE",
"$@	c #93B6C0",
"%@	c #8FB3BE",
"&@	c #81ADBA",
"*@	c #74A7B7",
"=@	c #8EB3BE",
"-@	c #98B8C2",
";@	c #93B5C0",
">@	c #92B4BF",
",@	c #8DB3BF",
"'@	c #8EB2BE",
")@	c #8AB0BD",
"!@	c #89B1BC",
"~@	c #98B8C1",
"{@	c #A3BDC4",
"]@	c #AFC3CA",
"^@	c #90B3BC",
"/@	c #F3F3F3",
"(@	c #A2BFC8",
"_@	c #8EB3BF",
":@	c #88B1BD",
"<@	c #81ADBB",
"[@	c #77A8B7",
"}@	c #78A9B9",
"|@	c #88B0BD",
"1@	c #91B5BF",
"2@	c #86AFBC",
"3@	c #B0C5CB",
"4@	c #9DBBC3",
"5@	c #9E9E9E",
"6@	c #D8DCDD",
"7@	c #A3BEC7",
"8@	c #A1BDC6",
"9@	c #98B9C3",
"0@	c #96B8C3",
"a@	c #82AEBB",
"b@	c #94B5C0",
"c@	c #8BB2BD",
"d@	c #96B9C3",
"e@	c #D6E0E2",
"f@	c #F4F4F4",
"g@	c #C3D0D4",
"h@	c #92B4BC",
"i@	c #91B3BE",
"j@	c #8BB0BA",
"k@	c #89AFB9",
"l@	c #9EBCC6",
"m@	c #99B8C2",
"n@	c #99B7C2",
"o@	c #9DB9C2",
"p@	c #84AFBD",
"q@	c #8AB2BF",
"r@	c #8BB3BF",
"s@	c #8DB4BE",
"t@	c #CCDBDF",
"u@	c #F5F5F5",
"v@	c #E5E6E7",
"w@	c #D9E1E2",
"x@	c #94B6BF",
"y@	c #90B4BE",
"z@	c #93B7C2",
"A@	c #93B7C1",
"B@	c #99BAC4",
"C@	c #A0BDC5",
"D@	c #9CBBC4",
"E@	c #9EBCC4",
"F@	c #9AB9C4",
"G@	c #9CBEC8",
"H@	c #AFCAD1",
"I@	c #B3CCD3",
"J@	c #C2D5DA",
"K@	c #EDF0F0",
"L@	c #CCD9DC",
"M@	c #A5C2CA",
"N@	c #9DBDC5",
"O@	c #9BBCC5",
"P@	c #97B9C2",
"Q@	c #91B5C0",
"R@	c #95B8C2",
"S@	c #99BBC5",
"T@	c #A3C3CC",
"U@	c #CADCE1",
"V@	c #FBFBFB",
"W@	c #FAFAFA",
"X@	c #F8F8F8",
"Y@	c #F6F6F6",
"Z@	c #FDFDFD",
"`@	c #FFFFFF",
" #	c #FEFEFE",
".#	c #FCFCFC",
"+#	c #F7F7F7",
"@#	c #F9F9F9",
"##	c #939393",
"$#	c #3B3B3B",
"%#	c #3C3C3C",
"&#	c #2D2D2D",
"*#	c #7A7A7A",
"=#	c #727272",
"-#	c #BEBEBE",
";#	c #4A4A4A",
">#	c #C6C6C6",
",#	c #7B7B7B",
"'#	c #8B8B8B",
")#	c #CCCCCC",
"!#	c #7F7F7F",
"~#	c #9F9F9F",
"{#	c #828282",
"]#	c #C3C3C3",
"^#	c #838383",
"/#	c #929292",
"(#	c #D1D1D1",
"_#	c #818181",
":#	c #747474",
"<#	c #A1A1A1",
"[#	c #3D3D3D",
"}#	c #A9A9A9",
"|#	c #5D5D5D",
"1#	c #ABABAB",
"2#	c #ACACAC",
"3#	c #2F2F2F",
"4#	c #AEAEAE",
"5#	c #505050",
"6#	c #BFBFBF",
"7#	c #C1C1C1",
"8#	c #606060",
"9#	c #414141",
"0#	c #515151",
"a#	c #303030",
"b#	c #8F8F8F",
"c#	c #A7A7A7",
"d#	c #868686",
"e#	c #1F1F1F",
"f#	c #2E2E2E",
"g#	c #7C7C7C",
"h#	c #7D7D7D",
"i#	c #808080",
"j#	c #404040",
"k#	c #202020",
"l#	c #A8A8A8",
"m#	c #989898",
"n#	c #3A3A3A",
"o#	c #CDCDCD",
"p#	c #5B5B5B",
"q#	c #AAAAAA",
"r#	c #7E7E7E",
"s#	c #5E5E5E",
"t#	c #2C2C2C",
"u#	c #777777",
"v#	c #696969",
"w#	c #8A8A8A",
"x#	c #3F3F3F",
"y#	c #6E6E6E",
"z#	c #3E3E3E",
"A#	c #BABABA",
"B#	c #9B9B9B",
"C#	c #A2A2A2",
"D#	c #A5A5A5",
"                                                                                ",
"                                                                                ",
"          . + @ # $ $ % & & * * * * * = = = = = = = - = - = ; & > , '           ",
"      % ) ! ~ { ] ^ ^ / ~ ( _ : _ < < [ [ } [ } } } } } [ } } [ | <   1         ",
"      2 ] 3 4 3 3 5 ] { ^ / ~ ( ( _ : : _ 6 6 < < < < < 6 6 6 : : : < 5 7       ",
"    , 8 3 4 9 5 ] { ^ / ~ ( ( : : 6 6 < < [ [ [ } } } } [ [ [ 6 < 6 : }         ",
"    . / 4 9 3 5 ] ^ / ~ ( _ _ 6 : 0 a b c d e f g h | | } } } [ < < < < : .     ",
"    $ 5 9 5 5 ^ ^ ~ ~ i j k l m n o p p q q r s t u v w x y | | | } [ [ z ,     ",
"    $ ] 3 5 ] ^ / A B C D E F G H I J K L M N O P Q t R S T U V W | | } X +     ",
"    # ^ 5 { { / Y Z `  ...+.I @.#.$.%.&.L *.=.-.;.&.>.,.r Q '.).!.~.~.| {.,     ",
"    $ ^ 5 { ^ ].^./.(._.:.<.[.}.&.|.M 1.}.2.3.4.5.6.7.>.>.8.9.0.a.b.~.W c.+     ",
"    # / { / / d.e.f.g.h.i.j.k.l.m.n.n.o.5.p.q.3.-.;.r.L 0 s.m.+.t.u.v.w.x.2     ",
"    % / { / y.z.A.B.C.D.E.F.G.H.5.I.%.l.J.;.K.l.L.l.;.M.N.n.2.O.P.Q.z v.R.+     ",
"    & ~ ^ S.T.U.V.W.X.Y.Z.`. +.+o }.n.l.++O @+O ++#+$+%+&+*+=+-+;+>+!.X ,+2     ",
"    & ( / '+)+!+~+{+Y.]+E.^+/+-+(+@+-._+:+L.<+[+}+q.m.&.|+2.<+-+1+2+3+z 4+2     ",
"    * _ ~ 5+6+7+8+{+9+0+a+b+c+d+e+f+<+H.g+<.h+i+j+q.;.P k+=.l+m+<+n+o+c.p+2     ",
"    * _ ~ q+r+a+s+7+t+u+v+w+x+y+z+A+B+f+-+C+D+f+H.E+-.=+F+G+E+q.O H+j.c.I+)     ",
"    - : ( J+K+L+M+Z.N+O+b+G.:.s+0+7+P+Q+R+f+S+f+T+U+V+f+W+1+X+@+Y+Z+R.`+ @)     ",
"    - : ( : .@+@@@F.#@>+$@$@%@&@*@Y.6+=@i+-@G.;@f+>@,@'@)@!@~@{@]@^@,+`+/@2     ",
"    * 6 _ 6 < U (@..-+S+G._@:@<@[@}@Z.|@G.>@e+1@>@b+2@|@^+M+F.$@3@4@4+R./@5@    ",
"    * < _ 6 < 6@E 1+7@8@9@0@L+A+N+s+a@a+#@e+b@-+-+c@O+_.2@y+c+d@j.e@4+R.f@)     ",
"    - < _ 6 < } W g@X+h@i@j@k@l@,@v+`.#@1+m@n@o@V+e+A+p@q@r@b+s@t@I+I+4+u@5@    ",
"    * 6 _ 6 [ | W ~.v.X v@`+w@x@y@z@A@B@C@O.D@E@0.F@2@G@H@I@J@K@f@I+p+4+u@5@    ",
"    * < ( 6 [ } W w.v.z c.x.R.4+L@M@N@O@P@@@Q@R@S@T@U@V@W@X@X@Y@f@ @I+,+u@5@    ",
"    - < _ 6 [ } | ~.z X {.`+x.4+p+ @ @f@Y@X@W@V@Z@`@ #.#W@X@+#Y@/@ @p+,+u@)     ",
"    - < _ 6 [ | W w.v.z c.x.x.,+p+I+ @f@Y@X@@#.#.#Z@.#.#W@X@Y@u@f@I+p+4+u@5@    ",
"    * < _ 6 [ | W w.v.X X `+R.4+p+I+/@f@Y@+#X@V@V@V@V@W@@#X@Y@f@f@I+I+,+Y@5@    ",
"    * < _ 6 6 } W w.v.X {.`+x.,+,+p+ @f@u@Y@X@X@W@@#@#@#+#Y@u@/@ @I+4+R.f@5@    ",
"    * < ( 6 < } | ~.v.z {.c.`+R.,+p+I+/@/@u@Y@X@@#X@X@+#+#u@u@f@ @p+4+R.f@)     ",
"    - : ( ##$#%#&#*#w.v.z c.`+x.,+p+I+I+ @f@u@Y@+#Y@Y@Y@Y@=#/@I+p+p+4+R./@5@    ",
"    * : -#;#6 [ } @ w.>#,#'#{.)#5@!#~#I+I+* {#* f@- ]#^#9 /# @(#_#!#6 `+/@2     ",
"    & ( :#<#: < } W ~.[#}#|#1#2#3#4#5#6#7#8#% 9#| {#0#& | 9#p+a#~#b#-#`+ @)     ",
"    c#6 :###: d#%#%#@ e#[#f#g#2#h#x.!#$ i#a#j#k#% _#%  @ @j#$ !#R.R.x.x.~.l#    ",
"    m#6 4#n#o#6 < %#= p#w.v.^ q#h#`+r#' !#b#,+p+< !## 4+4+j#-#s#R.c.( ,+o#      ",
"    >   : /#t#$#$#u#| v#&#[#w#q#g#{.h#' : x#x#j#-#!#$ 4+R.x#R.y#3#z#A#x.}#      ",
"      + 8 6 : 6 < } | | ~.w.z {.{.c.c.x.R.R.R.4+,+,+,+4+R.,+x.x.x.x.,+  c#      ",
"        B#- 8 { { / ~ ( _ 6 < [ < | | W ~.w.w.w.w.w.w.w.w.w.~.W W { 4#C#        ",
"            @ > D#@ @ c#@ c#l#l#l#l#l#l#c#l#l#}#}#}#}#l#}#l#c#l#c#1#            ",
"                                                                                ",
"                                                                                "};
