/* XPM */
static char * WirelessSmartDevice_xpm[] = {
"40 40 327 2",
"  	c None",
". 	c #A0A0A0",
"+ 	c #9A9A9A",
"@ 	c #A6A6A6",
"# 	c #B0B0B0",
"$ 	c #AFAFAF",
"% 	c #B1B1B1",
"& 	c #B2B2B2",
"* 	c #B3B3B3",
"= 	c #B5B5B5",
"- 	c #B4B4B4",
"; 	c #B6B6B6",
"> 	c #A4A4A4",
", 	c #999999",
"' 	c #ADADAD",
") 	c #9D9D9D",
"! 	c #CACACA",
"~ 	c #DADADA",
"{ 	c #D7D7D7",
"] 	c #D6D6D6",
"^ 	c #D8D8D8",
"/ 	c #D9D9D9",
"( 	c #DBDBDB",
"_ 	c #DCDCDC",
": 	c #DDDDDD",
"< 	c #DFDFDF",
"[ 	c #E0E0E0",
"} 	c #D7DCDE",
"| 	c #BFD2D6",
"1 	c #D5DDDF",
"2 	c #E1E1E1",
"3 	c #E2E2E2",
"4 	c #959595",
"5 	c #9C9C9C",
"6 	c #D4D4D4",
"7 	c #D2D2D2",
"8 	c #D5D5D5",
"9 	c #D6D9DA",
"0 	c #85B6C2",
"a 	c #5AA2B4",
"b 	c #8EBECA",
"c 	c #D0DCDF",
"d 	c #DEDEDE",
"e 	c #DADDDD",
"f 	c #BAD0D6",
"g 	c #969696",
"h 	c #D0D0D0",
"i 	c #D3D3D3",
"j 	c #DEDFDF",
"k 	c #87B7C3",
"l 	c #7AB5C2",
"m 	c #74B1C0",
"n 	c #61A6B7",
"o 	c #88BCC8",
"p 	c #D1DDE0",
"q 	c #D5E0E3",
"r 	c #C8DDE3",
"s 	c #DBDEDE",
"t 	c #98BFC9",
"u 	c #AED1DA",
"v 	c #EEF6F8",
"w 	c #EAF3F5",
"x 	c #8BBECA",
"y 	c #5CA4B5",
"z 	c #7AB4C2",
"A 	c #C0D6DB",
"B 	c #DFE1E1",
"C 	c #D8E1E4",
"D 	c #DFE5E7",
"E 	c #DCDEDF",
"F 	c #A2CBD5",
"G 	c #FFFFFF",
"H 	c #F3F8FA",
"I 	c #F6FAFB",
"J 	c #F0F6F8",
"K 	c #8CBFCB",
"L 	c #57A1B3",
"M 	c #6BACBC",
"N 	c #C7D9DD",
"O 	c #E4E4E4",
"P 	c #E3E3E3",
"Q 	c #D7E3E5",
"R 	c #E5EAEC",
"S 	c #E7E7E7",
"T 	c #DCDFDF",
"U 	c #86B7C3",
"V 	c #90C1CD",
"W 	c #F2F7F9",
"X 	c #F2F8FA",
"Y 	c #EFF6F8",
"Z 	c #F9FCFC",
"` 	c #EEF5F7",
" .	c #85BBC8",
"..	c #70AEBD",
"+.	c #CADADE",
"@.	c #DCE4E6",
"#.	c #E7EBEC",
"$.	c #E3E4E4",
"%.	c #E8E8E8",
"&.	c #E1E2E2",
"*.	c #96BEC9",
"=.	c #95C4D0",
"-.	c #F1F7F9",
";.	c #F7FAFB",
">.	c #F9FBFC",
",.	c #ECF5F6",
"'.	c #8ABECA",
").	c #62A6B8",
"!.	c #67AABB",
"~.	c #9DC7D1",
"{.	c #E3E6E6",
"].	c #E5E5E5",
"^.	c #E9E9E9",
"/.	c #DDE0E0",
"(.	c #8EBBC6",
"_.	c #B3D4DC",
":.	c #FDFEFE",
"<.	c #F4F9FA",
"[.	c #FAFCFD",
"}.	c #E0EEF1",
"|.	c #6AADBE",
"1.	c #539AAA",
"2.	c #548D9A",
"3.	c #DCE1E2",
"4.	c #E6E6E6",
"5.	c #EAEAEA",
"6.	c #8BB9C4",
"7.	c #8BBFCB",
"8.	c #F6F9FB",
"9.	c #F2F8F9",
"0.	c #BBDAE1",
"a.	c #4B94A5",
"b.	c #437C8B",
"c.	c #B4C5C9",
"d.	c #ECECEC",
"e.	c #D7DDDE",
"f.	c #8EBBC7",
"g.	c #8EBFCC",
"h.	c #F5F9FB",
"i.	c #F4F8FA",
"j.	c #CEE6EB",
"k.	c #60A0B1",
"l.	c #487F8C",
"m.	c #AFC1C6",
"n.	c #EDEDED",
"o.	c #DEE0E1",
"p.	c #89BAC6",
"q.	c #BBD9E0",
"r.	c #F9FBFD",
"s.	c #F3F8F9",
"t.	c #F1F8F9",
"u.	c #A4CED8",
"v.	c #5498A9",
"w.	c #558996",
"x.	c #D1DADC",
"y.	c #EBEBEB",
"z.	c #EEEEEE",
"A.	c #E1E1E2",
"B.	c #92BDC7",
"C.	c #A1CAD4",
"D.	c #A4CDD8",
"E.	c #448EA1",
"F.	c #3F7987",
"G.	c #BACACE",
"H.	c #EFEFEF",
"I.	c #D9DEDF",
"J.	c #97C0CA",
"K.	c #6AACBC",
"L.	c #AAD0D8",
"M.	c #EFF5F7",
"N.	c #D6EAEF",
"O.	c #559AAA",
"P.	c #3A7685",
"Q.	c #AAC0C5",
"R.	c #F1F1F1",
"S.	c #F0F0F0",
"T.	c #CCD8DB",
"U.	c #6AACBB",
"V.	c #93C3CE",
"W.	c #7FB7C5",
"X.	c #B6D6DE",
"Y.	c #F7F9FB",
"Z.	c #F6FBFB",
"`.	c #BDDCE3",
" +	c #64A3B2",
".+	c #5A8D99",
"++	c #B8C9CE",
"@+	c #F2F2F2",
"#+	c #BED3D8",
"$+	c #63A7B7",
"%+	c #83BAC7",
"&+	c #88BDC9",
"*+	c #EAF4F6",
"=+	c #F8FCFC",
"-+	c #A2CDD7",
";+	c #4790A2",
">+	c #3F7988",
",+	c #D1DBDE",
"'+	c #F3F3F3",
")+	c #F4F4F4",
"!+	c #B8D0D6",
"~+	c #76B3C1",
"{+	c #9AC6D1",
"]+	c #C7E1E8",
"^+	c #4B93A5",
"/+	c #3C7887",
"(+	c #ACC1C6",
"_+	c #F5F5F5",
":+	c #9AC3CD",
"<+	c #66AABA",
"[+	c #97C5D1",
"}+	c #6DADBD",
"|+	c #B5D6DE",
"1+	c #D3E8ED",
"2+	c #6AA8B7",
"3+	c #477F8E",
"4+	c #B0C4C9",
"5+	c #F6F6F6",
"6+	c #F7F7F7",
"7+	c #F8F8F8",
"8+	c #9E9E9E",
"9+	c #E5E7E8",
"0+	c #B5D0D7",
"a+	c #67AAB9",
"b+	c #80B8C5",
"c+	c #8ABDCA",
"d+	c #6EB0C0",
"e+	c #599EAF",
"f+	c #4F8794",
"g+	c #CED9DC",
"h+	c #BDD5DA",
"i+	c #6EADBC",
"j+	c #6BAEBE",
"k+	c #519AAB",
"l+	c #3E7B8A",
"m+	c #AFC4C9",
"n+	c #F9F9F9",
"o+	c #FAFAFA",
"p+	c #FBFBFB",
"q+	c #BED7DD",
"r+	c #60A2B2",
"s+	c #4A818F",
"t+	c #A6BDC2",
"u+	c #FCFCFC",
"v+	c #3D3D3D",
"w+	c #2E2E2E",
"x+	c #8C8C8C",
"y+	c #FEFEFE",
"z+	c #FDFDFD",
"A+	c #C6C6C6",
"B+	c #3C3C3C",
"C+	c #8E8E8E",
"D+	c #8F8F8F",
"E+	c #808080",
"F+	c #818181",
"G+	c #A3A3A3",
"H+	c #858585",
"I+	c #868686",
"J+	c #989898",
"K+	c #424242",
"L+	c #636363",
"M+	c #949494",
"N+	c #797979",
"O+	c #4C4C4C",
"P+	c #7B7B7B",
"Q+	c #B9B9B9",
"R+	c #101010",
"S+	c #9F9F9F",
"T+	c #303030",
"U+	c #515151",
"V+	c #C5C5C5",
"W+	c #323232",
"X+	c #434343",
"Y+	c #B7B7B7",
"Z+	c #838383",
"`+	c #C4C4C4",
" @	c #8A8A8A",
".@	c #5D5D5D",
"+@	c #6C6C6C",
"@@	c #3F3F3F",
"#@	c #828282",
"$@	c #535353",
"%@	c #111111",
"&@	c #848484",
"*@	c #4E4E4E",
"=@	c #A5A5A5",
"-@	c #3E3E3E",
";@	c #BABABA",
">@	c #313131",
",@	c #212121",
"'@	c #626262",
")@	c #777777",
"!@	c #2D2D2D",
"~@	c #727272",
"{@	c #C8C8C8",
"]@	c #ABABAB",
"^@	c #7D7D7D",
"/@	c #919191",
"(@	c #A7A7A7",
"_@	c #ACACAC",
":@	c #C0C0C0",
"<@	c #606060",
"[@	c #414141",
"}@	c #A1A1A1",
"|@	c #C2C2C2",
"1@	c #404040",
"2@	c #5F5F5F",
"3@	c #AEAEAE",
"4@	c #A8A8A8",
"5@	c #767676",
"6@	c #7A7A7A",
"7@	c #1F1F1F",
"8@	c #7E7E7E",
"9@	c #6F6F6F",
"0@	c #BFBFBF",
"a@	c #7F7F7F",
"b@	c #202020",
"c@	c #2F2F2F",
"d@	c #CDCDCD",
"e@	c #CBCBCB",
"f@	c #4F4F4F",
"g@	c #BEBEBE",
"h@	c #A9A9A9",
"i@	c #979797",
"j@	c #BBBBBB",
"k@	c #9B9B9B",
"l@	c #A2A2A2",
"                                                                                ",
"                                                                                ",
"          . + @ # $ $ % & & * * * * * = = = = = = = - = - = ; & > , '           ",
"      % ) ! ~ { ] ^ ^ / ~ ( _ : _ < < [ [ } | 1 2 2 2 2 [ 2 2 [ 3 <   4         ",
"      5 ] 6 7 6 6 8 ] { ^ / ~ ( ( _ : : 9 0 a b c < < < d d d : e f < 8 g       ",
"    , h 6 7 i 8 ] { ^ / ~ ( ( : : d d j k l m n o p 2 2 [ [ [ d q r : 2         ",
"    . / 7 i 6 8 ] ^ / ~ ( _ _ d d < s t u v w x y z A 3 2 2 B C D B < < : .     ",
"    $ 8 i 8 8 ^ ^ ~ ~ _ : d d < [ E 0 F G H I J K L M N O P Q R 3 2 [ [ S ,     ",
"    $ ] 6 8 ] ^ / ~ ( : : < < 2 T U V W X J Y Z `  .L ..+.@.#.$.P 3 3 2 %.+     ",
"    # ^ 8 { { / ~ _ : d < [ 2 &.*.=.-.;.Y J J ` >.,.'.).!.~.{.].].O O 3 ^.,     ",
"    $ ^ 8 { ^ ~ ( : _ < [ 2 /.(._.:.<.Y J J J J ` [.}.|.1.2.3.4.4.].O P 5.+     ",
"    # / { / / ( _ d < [ 2 &.6.7.8.<.Y J J J J Y 9.G 0.a.b.c.^.%.%.S 4.].d.5     ",
"    % / { / ~ _ : < < 2 e.f.g.v h.Y J J J J Y i.:.j.k.l.m.5.^.^.^.%.S 4.n.+     ",
"    & ~ ^ ~ ( : d [ 2 o.p.q.r.<.Y J J J J Y s.t.u.v.w.x.d.n.d.y.5.5.^.%.z.5     ",
"    & ( / ( _ d < [ A.B.C.G s.Y J J J J Y -.G D.E.F.G.H.z.z.d.d.d.5.^.S H.5     ",
"    * _ ~ _ : < [ I.J.K.L.G -.M.J J J Y X G N.O.P.Q.R.S.S.H.H.n.n.d.5.5.S.5     ",
"    * _ ~ ( : < [ T.U.V.W.X.H Y.J J Y H Z.`. +.+++@+R.@+R.R.S.H.n.n.y.5.R.)     ",
"    - : ( : d [ 2 P #+$+%+x &+*+<.` 9.=+-+;+>+,+'+)+)+'+)+'+@+S.H.z.n.y.@+)     ",
"    - : ( : d [ 2 P ].!+~+M K.{+s.I G ]+^+/+(+)+_+_+_+)+_+'+'+R.R.H.z.y.'+5     ",
"    * d _ d < 2 3 O ].S :+<+[+}+|+9.1+2+3+4+5+5+6+7+6+5+5+)+)+'+R.S.H.n.'+8+    ",
"    * < _ d < 2 3 O 4.S 9+0+a+b+c+d+e+f+g+_+6+6+7+7+7+7+6+_+_+'+'+S.H.n.)+)     ",
"    - < _ d < 2 P O 4.%.%.y.h+i+j+k+l+m+5+6+7+n+o+p+o+o+n+6+5+_+)+R.R.H._+8+    ",
"    * d _ d [ 3 P O 4.%.^.y.d.q+r+s+t+_+_+6+7+p+p+u+p+p+o+7+5+)+)+R.S.H._+8+    ",
"    * < ( d [ 2 ; v+v+w+x+d.n.H.H.@+@+_+5+7+n+u+u+y+z+p+o+4 A+5+)+@+R.z._+8+    ",
"    - < _ d [ 2 B+8 S %./ y.C+D+E+7 F+G+5+S H+I+( G J+! H+K+L+M+'+@+S.z._+)     ",
"    - < _ d [ 3 N+O+P+Q+5.d.R+S+E+T+% U+V+{ @ Q+W+z+X+I+Y+L+Z+`+)+R.S.H._+8+    ",
"    * < _ d [ 3 P A+ @.@+@y.@@H.# F+'+#@- ] $@X+%@p+X+o+n+&@- )+)+R.R.z.5+8+    ",
"    * < _ d d 2 @ ].4./ *@y.@@z.$ E+@+#@- Z+=@7+X+n+K+n+6+Z+- '+@+R.H.n.)+8+    ",
"    * < ( d < 2 N+w+v+-@;@5.@@n.$ E+R.#@& `+>@$@,@7+K+6+6+- >@'@@+S.H.n.)+)     ",
"    - : ( : < [ 2 O ].4.S 5.y.d.z.S.R.R.@+)+_+5+6+5+5+5+5+)+'+R.S.S.H.n.'+8+    ",
"    * : ( : d )@!@v+v+, S %.^.y.n.z.H.R.R.)+'+~@)+_+)+_+)+'+@+R.R.z.z.y.'+5     ",
"    & ( ~ _ : )@=@P 8 v+{@%.]@^@' : S+H.R./@@+/@@+i F+#@3 7 E+D+H.z.n.y.@+)     ",
"    (@d ~ _ : )@> 3 3 , P+;@.@_@@@_ T+z.:@<@S.[@R.T+}@/@|@1@$ 2@3@n.d.d.O 4@    ",
"    J+d ~ ( _ 5@> 2 3 (@6@P+w+-@7@_@8@) 9@0@z.1@$ a@S.H.$ b@@@c@8@5.y.z.d@      ",
"    >   : ( _ 5@> [ i B+V+6@ @%.^./ e@f@f@z.n.1@g@<@z.H.% 2@n.y._ 5.^.d.h@      ",
"      + h d : 5@!@B+B+i@O ] -@-@-@j@5.f@8@n.n.1@z.9@T+1@g@9@c@@@C+d.z.  (@      ",
"        k@- h { { / ~ ( _ d < [ < 3 3 P O ].].].].].].].].].O P P { 3@l@        ",
"            @ > =@@ @ (@@ (@4@4@4@4@4@4@(@4@4@h@h@h@h@4@h@4@(@4@(@]@            ",
"                                                                                ",
"                                                                                "};
