/* XPM */
static char *Specific2621XM_40x40[] = {
/* columns rows colors chars-per-pixel */
"40 40 117 2",
"   c gray6",
".  c #202020",
"X  c #2E2E2E",
"o  c #3D3D3D",
"O  c #404040",
"+  c #4C4C4C",
"@  c #505050",
"#  c #5B5B5B",
"$  c gray38",
"%  c #6D6D6D",
"&  c #7C7C7C",
"*  c #006E88",
"=  c #00728C",
"-  c #0B748D",
";  c #007790",
":  c #007993",
">  c #097690",
",  c #0B7B93",
"<  c #0D7F98",
"1  c #1F6E87",
"2  c #11738C",
"3  c #147B94",
"4  c #167F98",
"5  c #197C95",
"6  c #207F97",
"7  c #0F8098",
"8  c #198097",
"9  c #24829A",
"0  c #29859D",
"q  c #31859C",
"w  c #33889E",
"e  c #278BA1",
"r  c #2D8AA1",
"t  c #3087A0",
"y  c #338AA1",
"u  c #3A8CA3",
"i  c #3B91A7",
"p  c #4290A6",
"a  c #4592A9",
"s  c #4B94AB",
"d  c #4B99AD",
"f  c #5197AC",
"g  c #5298AD",
"h  c #549BB0",
"j  c #5B9DB2",
"k  c #56A1B4",
"l  c #5DA2B5",
"z  c #609FB3",
"x  c #63A1B6",
"c  c #66A3B8",
"v  c #66ABBD",
"b  c #6CA4B6",
"n  c #69A4B9",
"m  c #6DA8BB",
"M  c #72AABD",
"N  c #78AEBF",
"B  c #7BAEC1",
"V  c #74B4C3",
"C  c #7DB1C2",
"Z  c #828282",
"A  c #8C8C8C",
"S  c #929292",
"D  c #9B9B9B",
"F  c #A4A4A4",
"G  c #AAAAAA",
"H  c #B3B3B3",
"J  c #BCBCBC",
"K  c #84B5C6",
"L  c #89B7C7",
"P  c #89B6C8",
"I  c #8DBAC9",
"U  c #92BCCC",
"Y  c #96C0CE",
"T  c #9AC0CE",
"R  c #9CC2D1",
"E  c #A3C3CE",
"W  c #A2C5D2",
"Q  c #A6C8D5",
"!  c #A9C6D1",
"~  c #ABCAD4",
"^  c #ADCCD9",
"/  c #B5CBD4",
"(  c #B1CEDA",
")  c #BBCED5",
"_  c #B4D1DC",
"`  c #BAD4DE",
"'  c #BDD6E0",
"]  c #BED8E0",
"[  c #C3C3C3",
"{  c #CDCDCD",
"}  c #C2CFD3",
"|  c #C5D0D4",
" . c #C0D4DA",
".. c #CED5D7",
"X. c #CAD6DA",
"o. c #CFD9DC",
"O. c #D4D4D4",
"+. c #D3DADC",
"@. c #DCDCDC",
"#. c #C2D9E2",
"$. c #C9DDE4",
"%. c #D0E1E7",
"&. c #D5E5EB",
"*. c #D9E6EC",
"=. c #DCE9EE",
"-. c #E2E2E2",
";. c #E6E9EB",
":. c #ECECEC",
">. c #E3EDF2",
",. c #E9EFF2",
"<. c #E7F0F4",
"1. c #EDF3F5",
"2. c #F2F3F3",
"3. c #F1F6F9",
"4. c #F6F9FA",
"5. c #FEFEFE",
"6. c None",
/* pixels */
"6.6.6.6.6.6.6.6.6.6.6.6.6.6.6.6.6.6.6.6.6.6.6.6.6.6.6.6.6.6.6.6.6.6.6.6.6.6.6.6.",
"6.6.6.6.6.6.6.@.{ { { { { { { { { { { { { O.{ { { { { { { { { O.6.6.6.6.6.6.6.6.",
"6.6.6.6.{ D D F H H H H H H H H H H H H H H H H H H H H H H H H F D G 6.6.6.6.6.",
"6.6.6.H D { @.O.O.O.O.O.O.@.@.@.@.@.-.-.@.-.-.-.-.-.-.-.-.-.-.@.-.-.[ S O.6.6.6.",
"6.6.[ D O.O.O.O.O.O.O.+.O...| } ~ E E E E ! ! / ` ..+.@.@.@.@.@.@.@.@.O.S 6.6.6.",
"6.6.D { O.O.O.O.O.O.O.| / ! W R U U I U U U T R U U ! ) | @.@.-.-.@.@.-.J J 6.6.",
"6.@.D @.O.O.O.O.| / T R U I I I U U I I U L z w 8 p K U Y R ^ o.@.@.@.@.@.F 6.6.",
"6.{ G O.O.O.} E c l m C P U T U U U U U U s 2 M $.=.W P U U I I ~ o.-.-.-.D 6.6.",
"6.{ G O.O.} U i r i y y u a g f u N Y Y m 9 I 4.$.^ R U I I I I U T X.-.-.D 6.6.",
"6.{ H O.O.! m s _ &.] W I C g k l f I I s k =.' L N K T W T T U I I R -.-.D 6.6.",
"6.{ H O.O.U I T R R ^ ] $.^ ] <.&.U Y Q I Q C u 0 = - g v K Y W Q Y T -.:.D 6.6.",
"6.{ H @.O.T U I P P P P K j K _ ^ l 0 a P T l p x V f 9 4 5 5 w d K R -.:.D 6.6.",
"6.{ H O.O.K U U I I U I I I W W p 9 g u N U U ] #.#.' ^ W I C k w m m -.:.D 6.6.",
"6.{ H @.@.g m U Y I I I T P u 1 q $.=.U I I U R U U U W Q ^ ' ] Y s 5 ;.:.D 6.6.",
"6.{ H O.O.g g M P I I I I I n n >.T j I I U U I U I I I U U I M e = , -.2.D 6.6.",
"6.{ H @.@.g f c C Y R R Y U $.=.] K M I U I I I U U I P B x u < = = , :.:.D 6.6.",
"6.{ H @.@.g g n C U ^ #.&.&.$._ W W R R R U I I C B z j p t 6 < : = , :.2.D 6.6.",
"6.{ H @.O.f g n C U Q #.=.4.5.3.=.$.] ^ R U I C V j j f a u e 4 : = , :.2.D 6.6.",
"6.{ H @.@.g g n C U Q #.&.3.3.<.&.$.] ^ Q U P K m n z g a u 6 4 : = , :.2.D 6.6.",
"6.{ H @.@.f f n C U ^ ] &.1.3.<.&.$.' ^ Q U P C m z j g a u e 4 : = - :.2.D 6.6.",
"6.{ H -.@.z s n C U Q ] *.1.4.<.&.$.' Q R Y I C M n j f p u 6 < ; * 0 :.3.D 6.6.",
"6.{ H @.@.} j j C U ^ ] *.1.4.<.&.$.' ^ R Y P C M n j g a u 6 < = 5 ` :.2.D 6.6.",
"6.{ H @.@.@.$.P V I Q ] &.1.4.>.&.$.' ^ Q Y I C M c j f a 6 6 < f $.:.2.2.F 6.6.",
"6.{ H -.@.@.-.-.$.^ ^ ] &.1.4.>.&.#.' Q R Y P V n z f a a a V #.2.2.2.:.2.D 6.6.",
"6.{ H -.@.@.-.-.-.-.:.*.:.3.4.1.*.$.` _ W T I P P I T ~ ` ,.2.2.2.2.:.:.2.D 6.6.",
"6.{ H @.@.@.@.-.-.-.-.:.:.2.2.3.:.=.%.#.` ' ' X.%.>.2.4.2.4.4.4.2.2.2.:.2.F 6.6.",
"6.{ H @.@.-.-.-.-.-.:.-.;.:.:.:.2.2.2.2.3.3.4.5.4.4.5.4.4.4.2.2.2.2.2.:.2.D 6.6.",
"6.{ H -.@.@.@.@.-.-.-.:.-.:.:.:.:.:.2.2.2.2.2.4.4.4.4.4.2.4.2.2.2.:.2.:.2.F 6.6.",
"6.{ H @.O.@.-.-.-.-.-.-.-.:.:.:.2.:.2.2.2.2.2.4.4.4.4.2.2.2.4.2.2.:.2.:.3.D 6.6.",
"6.{ H @.@.o o o -.-.A o X :.:.o o O 2.2.[ $ H 2.[ O 2.2.O [ Z . 2.:.& O 2.D 6.6.",
"6.{ H @.@.{ O.% F [ + -.-.:.;.@.:.% G 2.S o H 2.2.Z Z S Z 2.Z $ S @.% o 2.D 6.6.",
"6.{ H @.@.@.O.+ { & + o # @.;.:.:.+ -.:.2.Z H 2.2.2.O O 2.2.Z D @ Z J O 2.D 6.6.",
"6.@.F -.@.@.# Z -.& Z -.& & ;.-.# A :.2.:.Z G 2.2.2.o O 2.:.& H & + :.o -.F 6.6.",
"6.6.D @.O.# Z @.-.Z & -.S & ;.$ A :.:.:.:.Z H 2.:.Z S A Z 2.Z G @.{ :.o { J 6.6.",
"6.6.F J D   o o Z -.o o + @.G   o O A :.% . X A J O :.:.O J & G :.:.:.o F O.6.6.",
"6.6.6.D O.-.O.@.@.-.-.-.-.-.-.;.-.:.:.:.:.:.:.2.2.:.:.2.:.:.:.:.:.:.:.[ F 6.6.6.",
"6.6.6.O.D H O.O.O.@.O.@.@.@.-.@.-.-.-.;.-.;.;.;.-.-.-.;.-.-.;.-.-.O.G F 6.6.6.6.",
"6.6.6.6.6.J F F F F F F F F F G F F F F G F F F G G F F G G F F F G { 6.6.6.6.6.",
"6.6.6.6.6.6.6.6.6.6.6.6.6.6.6.6.6.6.6.6.6.6.6.6.6.6.6.6.6.6.6.6.6.6.6.6.6.6.6.6.",
"6.6.6.6.6.6.6.6.6.6.6.6.6.6.6.6.6.6.6.6.6.6.6.6.6.6.6.6.6.6.6.6.6.6.6.6.6.6.6.6."
};
