/* XPM */
static char *SpecificCrossConnect_40x40[] = {
/* columns rows colors chars-per-pixel */
"40 40 103 2",
"   c black",
".  c #1D1D1D",
"X  c #1E1E1E",
"o  c gray16",
"O  c #2A2A2A",
"+  c gray17",
"@  c #2C2C2C",
"#  c #656565",
"$  c gray40",
"%  c #676767",
"&  c gray48",
"*  c #818181",
"=  c #959595",
"-  c gray59",
";  c #989898",
":  c gray60",
">  c #9A9A9A",
",  c #9B9B9B",
"<  c gray61",
"1  c #9D9D9D",
"2  c gray62",
"3  c #A0A0A0",
"4  c #A2A2A2",
"5  c #A4A4A4",
"6  c #A5A5A5",
"7  c gray65",
"8  c #A7A7A7",
"9  c gray66",
"0  c #A9A9A9",
"q  c gray67",
"w  c gray68",
"e  c #AEAEAE",
"r  c #AFAFAF",
"t  c gray69",
"y  c #B1B1B1",
"u  c #B2B2B2",
"i  c gray70",
"p  c #B4B4B4",
"a  c gray71",
"s  c #B6B6B6",
"d  c #B7B7B7",
"f  c #B9B9B9",
"g  c gray73",
"h  c #BBBBBB",
"j  c gray75",
"k  c gray76",
"l  c gray77",
"z  c #C5C5C5",
"x  c #C6C6C6",
"c  c #CACACA",
"v  c #CBCBCB",
"b  c gray80",
"n  c #CDCDCD",
"m  c #CECECE",
"M  c #D0D0D0",
"N  c gray82",
"B  c #D2D2D2",
"V  c LightGray",
"C  c gray83",
"Z  c #D5D5D5",
"A  c gray84",
"S  c #D7D7D7",
"D  c #D8D8D8",
"F  c gray85",
"G  c #DADADA",
"H  c gray86",
"J  c gainsboro",
"K  c #DDDDDD",
"L  c gray87",
"P  c #DFDFDF",
"I  c gray88",
"U  c #E1E1E1",
"Y  c #E2E2E2",
"T  c gray89",
"R  c #E4E4E4",
"E  c gray90",
"W  c #E6E6E6",
"Q  c #E7E7E7",
"!  c gray91",
"~  c #E9E9E9",
"^  c #EAEAEA",
"/  c gray92",
"(  c #ECECEC",
")  c gray93",
"_  c #EEEEEE",
"`  c #EFEFEF",
"'  c gray94",
"]  c #F1F1F1",
"[  c gray95",
"{  c #F3F3F3",
"}  c #F4F4F4",
"|  c gray96",
" . c #F6F6F6",
".. c gray97",
"X. c #F8F8F8",
"o. c #F9F9F9",
"O. c gray98",
"+. c #FBFBFB",
"@. c gray99",
"#. c #FDFDFD",
"$. c #FEFEFE",
"%. c gray100",
"&. c None",
/* pixels */
"&.&.&.&.&.&.&.&.&.&.&.&.&.&.&.&.&.&.&.&.&.&.&.&.&.&.&.&.&.&.&.&.&.&.&.&.&.&.&.&.",
"&.&.&.&.&.&.&.K n n n n n n n n n n n n m m n n n n n n n n n m &.&.&.&.&.&.&.&.",
"&.&.&.&.n 3 > 7 w w w w y y y i i i i i i i i i i i i i i i i i 7 > w &.&.&.&.&.",
"&.&.&.y 1 c G S S G G G G K K K K K U U U U U U U U E U E U U U U K k = m &.&.&.",
"&.&.x 1 S S m S m S S S G G G K K K K K K K K U U K U K K K K K K K U S = &.&.&.",
"&.&.> m S m m S S S G G G G G K K K K K U U U U U U U U U U U K K K K U h h &.&.",
"&.G 1 G m S S S S S G G G K K K K K U U U U U U U U U U U U U U K U U K K 3 &.&.",
"&.c w S S m S S S G G K K K K U U U U U U U E E E E E E E E U U U U U U ~ > &.&.",
"&.n w S m S S S G G G K K U K U U U E U E E E E E E E E E E E U U U U U ~ > &.&.",
"&.n y G S S G G G G K K K U U U E U E E E E ~ E ~ E ~ E E E E E E E E U ~ > &.&.",
"&.n w G m G G G G K K K U U E U E E E ~ E ~ ~ ~ E ~ E n k ~ ~ E E E E U ~ > &.&.",
"&.n w G S G G G K K U U U U E E E E E ~ ~ ~ ~ ~ ~ ~ @ X X $ ~ ~ ~ ~ E E ( 1 &.&.",
"&.n y G G G G K K K U U U E U E E ~ E ~ ~ ( ~ ( ( o       o ~ ~ ~ ~ ~ E ( > &.&.",
"&.n y G S G K K K U U U E E E ~ ~ ~ ~ ~ ( ( ( ( @       X 7 ( ~ ~ ( ~ ~ ( 1 &.&.",
"&.n y G G G K K U U U U E E E ~ ~ ~ ( ( ( ` ` o       X % ( ( ( ( ~ ~ ~ ` 1 &.&.",
"&.n i K G G K K U U U E E E ~ ~ ~ ( ( ( ( ` K X     X % ` ` ` ( ( ( ~ ~ ` 1 &.&.",
"&.n i K G K K K U U U E E ~ ~ ( ( ( ( ` ` ` U X   X $ ` } ` ` ` ( ` ( ~ ` 1 &.&.",
"&.n i K G K K U U E E E E ~ ~ ( ( ` ` ` ` } ` S * h } } } } } ` ` ` ( ( } 1 &.&.",
"&.n i K G K K U U U E E ~ ~ ~ ( ( ` ` } ` } } } } } ..} } } } ` ` ` ( ( } 1 &.&.",
"&.n i K K K U U U E E E ~ ~ ( ( ` ` ` } } } } ............} } } } ` ` ( } 1 &.&.",
"&.n y U K K U U U E E E ~ ~ ( ` ` ` ` } } } ..............} ..} } ` ` ` } 1 &.&.",
"&.n i K K K K U E E E ~ ~ ( ( ( ` } } ..} ......%...%.........} } } ` ` } 1 &.&.",
"&.n i U K K U U U E E ~ ~ ( ( ( ` } ` } } ........%...%.%...} } } ` ` ` } 3 &.&.",
"&.n i K G K U U E E E ~ ( ( m c ` ` } } ....%.%...%.%.%.........} } ` ` } 1 &.&.",
"&.n i U K K U U U E ~ ~ ~ o X X $ } ` } ....%...%.%.%.........} } } ` ` } 1 &.&.",
"&.n i U G K U U U E E E o       o ` } } } ....%.%.%.%.%.%.....} } ` ` ` } 3 &.&.",
"&.n i K K U U U E E E o       X 8 ` } } ......%...%.%.........} } } ` ` ..1 &.&.",
"&.n i U K K K U U E S .     X % ` ` } } } ..................} } ` } ` ( } 1 &.&.",
"&.n y U G K U U U E S .   X $ ( ` ` ` } } } ....%.........} ..} } ` ` ( } 1 &.&.",
"&.n i K G K K U U E E n & i ( ( ` ` ` } } } } ..} } ......} } ` ` ` ` ` } 1 &.&.",
"&.n i K K K K U U U E E ~ ~ ~ ( ( ` ` ` ` } } } } } } } } } } ` } ( ( ~ ` 1 &.&.",
"&.n y G G K K K U U E E ~ E ~ ( ( ` ` ` ` } ` } ` } } } ` } ` ` ` ( ` ( } 1 &.&.",
"&.K 7 K G K K K U U E E E ~ ~ ~ ( ( ( ` ` ` ` } ` } ` } } ` ` ` ( ( ( ( E 8 &.&.",
"&.&.> K G G K K U U U E E E E ~ ~ ( ( ( ` ` ` ` ` ` ` ` ` ` ( ( ( ( ( ` n i &.&.",
"&.&.7 k K K K K K U U U U E E ~ ~ ~ ~ ( ` ` ( ` ( ` ( ` ( ` ( ( ( ~ ~ ( 8 G &.&.",
"&.&.&.> m K K K U U U U E E ~ ~ ~ ~ ( ( ( ( ` ` ` ` ` ` ` ( ( ( ( ( ( x 7 &.&.&.",
"&.&.&.G > i n G S G G K K K U U U U U E E E E E E E E E E E E U E S w 3 &.&.&.&.",
"&.&.&.&.&.h 7 7 7 7 7 7 7 7 8 8 8 8 8 8 7 8 8 8 w 8 8 8 8 8 8 8 8 8 n &.&.&.&.&.",
"&.&.&.&.&.&.&.&.&.&.&.&.&.&.&.&.&.&.&.&.&.&.&.&.&.&.&.&.&.&.&.&.&.&.&.&.&.&.&.&.",
"&.&.&.&.&.&.&.&.&.&.&.&.&.&.&.&.&.&.&.&.&.&.&.&.&.&.&.&.&.&.&.&.&.&.&.&.&.&.&.&."
};
