/* XPM */
static char *Specific2620XM_40x40[] = {
/* columns rows colors chars-per-pixel */
"40 40 119 2",
"   c gray6",
".  c #202020",
"X  c #2E2E2E",
"o  c #303030",
"O  c #3D3D3D",
"+  c #404040",
"@  c gray30",
"#  c #505050",
"$  c #5B5B5B",
"%  c #606060",
"&  c #6D6D6D",
"*  c #717171",
"=  c #7C7C7C",
"-  c #006E88",
";  c #00728C",
":  c #0B748D",
">  c #007790",
",  c #007993",
"<  c #097690",
"1  c #0B7B93",
"2  c #0D7F98",
"3  c #1F6E87",
"4  c #11738C",
"5  c #147B94",
"6  c #167F98",
"7  c #197C95",
"8  c #207F97",
"9  c #0F8098",
"0  c #198097",
"q  c #24829A",
"w  c #29859D",
"e  c #31859C",
"r  c #33889E",
"t  c #278BA1",
"y  c #2D8AA1",
"u  c #3087A0",
"i  c #338AA1",
"p  c #3A8CA3",
"a  c #3B91A7",
"s  c #4290A6",
"d  c #4592A9",
"f  c #4B94AB",
"g  c #4B99AD",
"h  c #5197AC",
"j  c #5298AD",
"k  c #549BB0",
"l  c #5B9DB2",
"z  c #56A1B4",
"x  c #5DA2B5",
"c  c #609FB3",
"v  c #63A1B6",
"b  c #66A3B8",
"n  c #66ABBD",
"m  c #6CA4B6",
"M  c #69A4B9",
"N  c #6DA8BB",
"B  c #72AABD",
"V  c #78AEBF",
"C  c #7BAEC1",
"Z  c #74B4C3",
"A  c #7DB1C2",
"S  c #828282",
"D  c #8B8B8B",
"F  c #939393",
"G  c #9B9B9B",
"H  c #A4A4A4",
"J  c #AAAAAA",
"K  c #B3B3B3",
"L  c gray74",
"P  c #84B5C6",
"I  c #89B7C7",
"U  c #89B6C8",
"Y  c #8DBAC9",
"T  c #92BCCC",
"R  c #96C0CE",
"E  c #9AC0CE",
"W  c #9CC2D1",
"Q  c #A3C3CE",
"!  c #A2C5D2",
"~  c #A6C8D5",
"^  c #A9C6D1",
"/  c #ABCAD4",
"(  c #ADCCD9",
")  c #B5CBD4",
"_  c #B1CEDA",
"`  c #BBCED5",
"'  c #B4D1DC",
"]  c #BAD4DE",
"[  c #BDD6E0",
"{  c #BED8E0",
"}  c #C3C3C3",
"|  c #CDCDCD",
" . c #C2CFD3",
".. c #C5D0D4",
"X. c #C0D4DA",
"o. c #CED5D7",
"O. c #CAD6DA",
"+. c #CFD9DC",
"@. c #D4D4D4",
"#. c #D3DADC",
"$. c #DCDCDC",
"%. c #C2D9E2",
"&. c #C9DDE4",
"*. c #D0E1E7",
"=. c #D5E5EB",
"-. c #D9E6EC",
";. c #DCE9EE",
":. c #E2E2E2",
">. c #E6E9EB",
",. c #ECECEC",
"<. c #E3EDF2",
"1. c #E9EFF2",
"2. c #E7F0F4",
"3. c #EDF3F5",
"4. c #F2F3F3",
"5. c #F1F6F9",
"6. c #F6F9FA",
"7. c #FEFEFE",
"8. c None",
/* pixels */
"8.8.8.8.8.8.8.8.8.8.8.8.8.8.8.8.8.8.8.8.8.8.8.8.8.8.8.8.8.8.8.8.8.8.8.8.8.8.8.8.",
"8.8.8.8.8.8.8.$.| | | | | | | | | | | | | @.| | | | | | | | | @.8.8.8.8.8.8.8.8.",
"8.8.8.8.| G G H K K K K K K K K K K K K K K K K K K K K K K K K H G J 8.8.8.8.8.",
"8.8.8.K G | $.@.@.@.@.@.@.$.$.$.@.:.$.:.$.:.:.:.:.:.:.:.:.:.:.$.:.$.} G @.8.8.8.",
"8.8.} G @.@.@.@.@.@.@.@.@.@...` ) Q Q Q Q ^ / ) X.O.#.$.$.$.$.$.$.$.$.@.G 8.8.8.",
"8.8.G | @.@.@.@.@.@.#...) ^ ! W T T T T T T T W E T ^ ` O.$.:.$.:.$.$.:.L K 8.8.",
"8.$.G $.| @.@.@...) E W T T T T T Y T Y Y P c y 7 p P T T E / O.$.$.:.$.$.G 8.8.",
"8.| K @.@.@. .Q b l N A U Y T T T T T T W f 4 B &.;.! U T T Y T / #.$.$.>.G 8.8.",
"8.| J @.@...Y a i a i i p f k g p V R T N q Y 6.&.( E T Y Y T Y Y E +.:.>.G 8.8.",
"8.| K @.@.Q B d ' =.{ ! Y A k k l k U T d z <.[ I Z P E Q W T T Y Y E :.>.G 8.8.",
"8.| K @.@.T T E W W ( { &.( [ 3.;.Y T ~ T ~ A p w ; : h n P W ! ^ R T :.>.G 8.8.",
"8.| K $.@.E T Y I I I U A l P _ ( x e d I T x p v Z h q 6 7 7 r g P E >.,.G 8.8.",
"8.| K @.@.P Y T Y R Y T Y Y ! ! d q l i C T T [ %.&.[ ( ~ Y Z x r B B :.,.G 8.8.",
"8.| K $.$.j B T R Y Y Y T U p 3 e &.-.T Y T T ! T Y T ! ~ ( [ [ R f 5 >.,.G 8.8.",
"8.| K @.@.h h B I T Y Y Y T M m 2.E l Y T Y Y Y Y Y Y Y Y T Y N t ; 1 :.4.G 8.8.",
"8.| K $.$.j h b Z T W W T T &.;.{ P N Y Y Y T T T Y Y U P c p 2 ; ; 1 ,.,.G 8.8.",
"8.| K $.$.j h M Z R ( %.=.-.&._ W ! W W T T R U P C c l s u 8 2 , ; 1 ,.4.G 8.8.",
"8.| K $.$.h k M Z R ( { ;.6.6.5.;.*.[ ( ~ T Y Z B l l h d p t 6 , ; 1 ,.4.G 8.8.",
"8.| K $.$.h h M C T ~ { -.3.6.<.=.&.[ ( ! T U A B b l h s p u 2 , ; 1 ,.4.G 8.8.",
"8.| K $.$.f h M C T ( { ;.3.6.<.=.&.[ ( ~ T U A B b l h d i t 2 , ; : ,.4.G 8.8.",
"8.| K $.$.c f m A T ( { -.3.6.2.=.&.[ ( W R U P C M l h d p 8 6 > - w ,.4.G 8.8.",
"8.| K :.$.X.c l C T ( %.-.3.6.2.=.&.[ ( W R Y A C M l j d p 8 2 ; 5 ] ,.6.G 8.8.",
"8.| K $.$.$.&.U V Y ~ [ =.3.6.<.=.&.[ ( W R Y A M c l h s u 8 2 h +.4.,.6.G 8.8.",
"8.| K $.$.$.$.:.&.( ( [ =.3.6.<.=.%.[ ~ W W P Z C l h d a f M %.4.4.4.,.6.G 8.8.",
"8.| K :.$.$.:.:.:.:.>.>.<.4.6.2.-.*.] _ ! E T I P U T ( ] 1.4.6.4.4.4.,.4.G 8.8.",
"8.| K $.$.$.$.:.:.,.:.:.,.4.4.4.<.;.*.%.] ] ] O.&.;.4.7.4.6.6.4.4.,.,.4.6.G 8.8.",
"8.| K $.$.:.:.:.:.:.:.,.,.,.,.,.4.4.4.4.4.4.4.7.7.6.6.6.6.6.4.4.4.4.4.4.6.G 8.8.",
"8.| K :.$.$.$.$.:.:.:.,.>.,.,.,.,.,.4.4.4.6.6.6.6.6.6.6.4.4.6.4.4.4.,.,.4.G 8.8.",
"8.| K :.@.$.:.$.:.:.:.:.,.:.,.,.,.4.4.4.4.4.4.6.6.6.6.4.6.4.4.4.4.4.,.,.4.G 8.8.",
"8.| K $.$.O O O :.:.D O X ,.,.O + + 4.,.S o o @.} + 4.4.+ } S . ,.4.= O 4.G 8.8.",
"8.| K $.$.| $.& H } @ :.:.,.>.$.,.* J :.# 4.} * 4.S S F S 4.S % F $.& + 4.G 8.8.",
"8.| K $.@.$.@.@ | = @ O % @.>.,.,.@ $.K S 4.4.+ 4.4.+ + 4.4.= H # S L + 4.G 8.8.",
"8.$.H :.$.$.$ S :.= D :.= = :.>.% D ,.K = 4.4.O 4.4.O + 4.4.= K = @ ,.O :.H 8.8.",
"8.8.G $.@.$ S $.:.S * :.G = >.$ D ,.,.$.# ,.L * ,.S F D = 4.= J $.| ,.O | L 8.8.",
"8.8.H L G   O O S :.O O @ @.J   O O D ,.= o o | L O ,.4.O L = J ,.,.,.O H @.8.8.",
"8.8.8.G @.:.@.$.$.:.:.:.:.:.:.,.>.,.>.4.,.,.,.4.,.4.,.,.,.4.,.,.,.,.,.} H 8.8.8.",
"8.8.8.@.G K @.@.@.$.@.$.$.$.:.$.:.:.:.:.:.:.:.>.:.,.>.>.:.:.>.:.:.@.J H 8.8.8.8.",
"8.8.8.8.8.L H H H H H H H J H J H H H H J J H H H J H H J J H H H J | 8.8.8.8.8.",
"8.8.8.8.8.8.8.8.8.8.8.8.8.8.8.8.8.8.8.8.8.8.8.8.8.8.8.8.8.8.8.8.8.8.8.8.8.8.8.8.",
"8.8.8.8.8.8.8.8.8.8.8.8.8.8.8.8.8.8.8.8.8.8.8.8.8.8.8.8.8.8.8.8.8.8.8.8.8.8.8.8."
};
