/* XPM */
static char * ComponentBoxLaptop_xpm[] = {
"40 40 406 2",
"  	c None",
". 	c #A0A0A0",
"+ 	c #9A9A9A",
"@ 	c #A6A6A6",
"# 	c #B0B0B0",
"$ 	c #AFAFAF",
"% 	c #B1B1B1",
"& 	c #B2B2B2",
"* 	c #B3B3B3",
"= 	c #B5B5B5",
"- 	c #B4B4B4",
"; 	c #B6B6B6",
"> 	c #A4A4A4",
", 	c #999999",
"' 	c #ADADAD",
") 	c #9D9D9D",
"! 	c #CACACA",
"~ 	c #DADADA",
"{ 	c #D7D7D7",
"] 	c #D6D6D6",
"^ 	c #D8D8D8",
"/ 	c #D9D9D9",
"( 	c #DBDBDB",
"_ 	c #DCDCDC",
": 	c #DDDDDD",
"< 	c #DFDFDF",
"[ 	c #E0E0E0",
"} 	c #E1E1E1",
"| 	c #E2E2E2",
"1 	c #959595",
"2 	c #9C9C9C",
"3 	c #D4D4D4",
"4 	c #D2D2D2",
"5 	c #D5D5D5",
"6 	c #DEDEDE",
"7 	c #969696",
"8 	c #D0D0D0",
"9 	c #D3D3D3",
"0 	c #D8D9D9",
"a 	c #CBD4D7",
"b 	c #95B9C5",
"c 	c #7AAABB",
"d 	c #89B3C1",
"e 	c #87B2C0",
"f 	c #88B2C0",
"g 	c #8CB4C2",
"h 	c #80AEBC",
"i 	c #6CA2B4",
"j 	c #6AA1B3",
"k 	c #69A1B2",
"l 	c #6FA3B6",
"m 	c #86B1C0",
"n 	c #88B3C2",
"o 	c #85B1C0",
"p 	c #84ADBB",
"q 	c #D6D8D8",
"r 	c #B1C2C8",
"s 	c #709FB0",
"t 	c #669BAF",
"u 	c #71A1B2",
"v 	c #6E9FB1",
"w 	c #6EA0B0",
"x 	c #6D9FB1",
"y 	c #6E9EB2",
"z 	c #6E9FB3",
"A 	c #6D9FB2",
"B 	c #5891A7",
"C 	c #477E93",
"D 	c #D7D8D9",
"E 	c #ACBDC4",
"F 	c #92B4C1",
"G 	c #B2D0DC",
"H 	c #BBD7E2",
"I 	c #B5D2DD",
"J 	c #B6D3DE",
"K 	c #B7D2DE",
"L 	c #B8D4DF",
"M 	c #BBD6E2",
"N 	c #ACCCD8",
"O 	c #588FA3",
"P 	c #3F758B",
"Q 	c #E7E7E7",
"R 	c #D8DADA",
"S 	c #B3C1C7",
"T 	c #AAC4CF",
"U 	c #D9EDF5",
"V 	c #E2F5FD",
"W 	c #D8EEF5",
"X 	c #DBEFF7",
"Y 	c #DAEEF7",
"Z 	c #DAEEF6",
"` 	c #DAEFF7",
" .	c #E2F3FC",
"..	c #CEE5ED",
"+.	c #6194A7",
"@.	c #467B8F",
"#.	c #E8E8E8",
"$.	c #D9DBDC",
"%.	c #B2C2C8",
"&.	c #A4C1CD",
"*.	c #CEE6EF",
"=.	c #D7EDF6",
"-.	c #D0E7F0",
";.	c #D0E8F1",
">.	c #D7ECF5",
",.	c #C4DEE8",
"'.	c #5F93A7",
").	c #457A8F",
"!.	c #E4E4E4",
"~.	c #E9E9E9",
"{.	c #DADCDD",
"].	c #B4C3C9",
"^.	c #A3C0CC",
"/.	c #CDE5EF",
"(.	c #D6ECF5",
"_.	c #CDE5EE",
":.	c #CFE6EF",
"<.	c #CFE7F0",
"[.	c #D6EBF4",
"}.	c #C3DDE8",
"|.	c #E5E5E5",
"1.	c #E3E3E3",
"2.	c #EAEAEA",
"3.	c #DBDDDD",
"4.	c #B4C3CA",
"5.	c #E6E6E6",
"6.	c #ECECEC",
"7.	c #DCDEDE",
"8.	c #B5C3CA",
"9.	c #EDEDED",
"0.	c #DDDFDF",
"a.	c #B6C5CB",
"b.	c #A4C0CD",
"c.	c #EEEEEE",
"d.	c #DEDFE0",
"e.	c #EFEFEF",
"f.	c #DFE1E1",
"g.	c #B8C6CD",
"h.	c #A3BFCC",
"i.	c #CCE4EE",
"j.	c #D5EBF4",
"k.	c #CCE4ED",
"l.	c #CEE5EE",
"m.	c #D5EAF3",
"n.	c #C2DCE7",
"o.	c #F0F0F0",
"p.	c #DFE1E2",
"q.	c #B4C4CA",
"r.	c #ABC6D2",
"s.	c #D7EDF7",
"t.	c #DFF5FD",
"u.	c #D5EDF4",
"v.	c #D8EEF6",
"w.	c #D8EFF6",
"x.	c #E0F4FD",
"y.	c #CCE5F0",
"z.	c #6094A7",
"A.	c #467A8F",
"B.	c #EBEBEB",
"C.	c #F1F1F1",
"D.	c #E2E3E4",
"E.	c #C0CDD2",
"F.	c #9FBBC8",
"G.	c #C8DEE8",
"H.	c #D2E7EE",
"I.	c #C9E0E6",
"J.	c #CAE1E8",
"K.	c #CBE0E9",
"L.	c #D0E5EE",
"M.	c #BED8E3",
"N.	c #5F94A8",
"O.	c #326C83",
"P.	c #F2F2F2",
"Q.	c #C7D1D6",
"R.	c #7499AA",
"S.	c #8AABBA",
"T.	c #90B0BC",
"U.	c #8CADBA",
"V.	c #8CAEBA",
"W.	c #8FAEBB",
"X.	c #8DACBA",
"Y.	c #83A3B1",
"Z.	c #799DAC",
"`.	c #51889E",
" +	c #80A4B3",
".+	c #F3F3F3",
"++	c #DFE3E4",
"@+	c #AEC2CB",
"#+	c #5E8EA2",
"$+	c #528A9F",
"%+	c #578DA2",
"&+	c #598EA3",
"*+	c #588EA2",
"=+	c #508A9E",
"-+	c #5C8FA1",
";+	c #6F97A7",
">+	c #518192",
",+	c #D6DFE3",
"'+	c #9E9E9E",
")+	c #DADFE1",
"!+	c #B3C7D0",
"~+	c #7FA8B8",
"{+	c #5490A5",
"]+	c #468AA3",
"^+	c #4C8EA5",
"/+	c #4C8DA5",
"(+	c #4E8EA6",
"_+	c #4C8DA6",
":+	c #4388A1",
"<+	c #4F8CA2",
"[+	c #6A9BAD",
"}+	c #6F97A5",
"|+	c #C0CED4",
"1+	c #F0F1F1",
"2+	c #F4F4F4",
"3+	c #DBDFE1",
"4+	c #B6CAD2",
"5+	c #7BA7B6",
"6+	c #5391A6",
"7+	c #488DA6",
"8+	c #4C90A8",
"9+	c #4D90A8",
"0+	c #4E90A8",
"a+	c #4F90A8",
"b+	c #5091A9",
"c+	c #4C91A9",
"d+	c #458CA5",
"e+	c #5694AA",
"f+	c #709CAF",
"g+	c #6B91A2",
"h+	c #BECED4",
"i+	c #EEF0F1",
"j+	c #F5F5F5",
"k+	c #E0E2E3",
"l+	c #ADC2CC",
"m+	c #78A4B4",
"n+	c #4A8BA3",
"o+	c #3D87A0",
"p+	c #4A8EA6",
"q+	c #4A8EA7",
"r+	c #498DA6",
"s+	c #468BA4",
"t+	c #458AA4",
"u+	c #4289A2",
"v+	c #508FA4",
"w+	c #6C9BAD",
"x+	c #C1D0D6",
"y+	c #D6DADC",
"z+	c #B4C9D1",
"A+	c #7AA5B6",
"B+	c #5190A6",
"C+	c #498DA7",
"D+	c #4F90A9",
"E+	c #4F91A9",
"F+	c #498DA5",
"G+	c #4C8EA6",
"H+	c #4F91A8",
"I+	c #4B8DA7",
"J+	c #5B95AB",
"K+	c #6E9AAB",
"L+	c #6F95A4",
"M+	c #C3D1D8",
"N+	c #F0F2F3",
"O+	c #F8F8F8",
"P+	c #F6F6F6",
"Q+	c #DADDDE",
"R+	c #ADC3CD",
"S+	c #A0C2CE",
"T+	c #86B2C1",
"U+	c #7EAFBE",
"V+	c #83B2C3",
"W+	c #86B2C3",
"X+	c #7AABBC",
"Y+	c #669EB1",
"Z+	c #71A5B7",
"`+	c #81B0C0",
" @	c #85B4C3",
".@	c #83B2C2",
"+@	c #84B3C3",
"@@	c #86B4C4",
"#@	c #84AFBE",
"$@	c #769DAC",
"%@	c #C6D3DA",
"&@	c #F3F5F6",
"*@	c #F7F7F7",
"=@	c #D6D9DB",
"-@	c #B5C8D1",
";@	c #AEC9D5",
">@	c #B0CCD7",
",@	c #B5CFD9",
"'@	c #B8CFDA",
")@	c #B6CDD8",
"!@	c #AAC6D1",
"~@	c #A3C1CF",
"{@	c #A6C3CF",
"]@	c #A8C4D1",
"^@	c #B1CAD6",
"/@	c #BAD1DB",
"(@	c #B7CFD9",
"_@	c #B8CFD9",
":@	c #C1D6E1",
"<@	c #A9C5D1",
"[@	c #769BAA",
"}@	c #C3D3D9",
"|@	c #F6F7F8",
"1@	c #FAFAFA",
"2@	c #D6D9DA",
"3@	c #A7BEC9",
"4@	c #A0C1CE",
"5@	c #A6C7D3",
"6@	c #A4C4D1",
"7@	c #A6C5D2",
"8@	c #A1C2CF",
"9@	c #8DB4C4",
"0@	c #87ADBE",
"a@	c #8AB0BE",
"b@	c #8EB4C3",
"c@	c #A8C7D4",
"d@	c #AAC9D5",
"e@	c #A0C3D0",
"f@	c #749BAB",
"g@	c #C9D6DC",
"h@	c #F7F8F8",
"i@	c #F9F9F9",
"j@	c #B2C4CB",
"k@	c #699FB3",
"l@	c #78A9BB",
"m@	c #77A9BA",
"n@	c #77A9BB",
"o@	c #74A6BA",
"p@	c #6DA2B4",
"q@	c #6DA2B5",
"r@	c #75A6B9",
"s@	c #78AABB",
"t@	c #79AABB",
"u@	c #78AABC",
"v@	c #7AACBE",
"w@	c #75A7B9",
"x@	c #5C8C9E",
"y@	c #BCCCD3",
"z@	c #F4F6F6",
"A@	c #939393",
"B@	c #3B3B3B",
"C@	c #3C3C3C",
"D@	c #2D2D2D",
"E@	c #7A7A7A",
"F@	c #727272",
"G@	c #BEBEBE",
"H@	c #4A4A4A",
"I@	c #C6C6C6",
"J@	c #7B7B7B",
"K@	c #8B8B8B",
"L@	c #CCCCCC",
"M@	c #7F7F7F",
"N@	c #9F9F9F",
"O@	c #828282",
"P@	c #C3C3C3",
"Q@	c #838383",
"R@	c #929292",
"S@	c #D1D1D1",
"T@	c #818181",
"U@	c #747474",
"V@	c #A1A1A1",
"W@	c #3D3D3D",
"X@	c #A9A9A9",
"Y@	c #5D5D5D",
"Z@	c #ABABAB",
"`@	c #ACACAC",
" #	c #2F2F2F",
".#	c #AEAEAE",
"+#	c #505050",
"@#	c #BFBFBF",
"##	c #C1C1C1",
"$#	c #606060",
"%#	c #414141",
"&#	c #515151",
"*#	c #303030",
"=#	c #8F8F8F",
"-#	c #A7A7A7",
";#	c #868686",
">#	c #1F1F1F",
",#	c #2E2E2E",
"'#	c #7C7C7C",
")#	c #7D7D7D",
"!#	c #808080",
"~#	c #404040",
"{#	c #202020",
"]#	c #A8A8A8",
"^#	c #989898",
"/#	c #3A3A3A",
"(#	c #CDCDCD",
"_#	c #5B5B5B",
":#	c #AAAAAA",
"<#	c #7E7E7E",
"[#	c #5E5E5E",
"}#	c #2C2C2C",
"|#	c #777777",
"1#	c #696969",
"2#	c #8A8A8A",
"3#	c #3F3F3F",
"4#	c #6E6E6E",
"5#	c #3E3E3E",
"6#	c #BABABA",
"7#	c #9B9B9B",
"8#	c #A2A2A2",
"9#	c #A5A5A5",
"                                                                                ",
"                                                                                ",
"          . + @ # $ $ % & & * * * * * = = = = = = = - = - = ; & > , '           ",
"      % ) ! ~ { ] ^ ^ / ~ ( _ : _ < < [ [ } [ } } } } } [ } } [ | <   1         ",
"      2 ] 3 4 3 3 5 ] { ^ / ~ ( ( _ : : _ 6 6 < < < < < 6 6 6 : : : < 5 7       ",
"    , 8 3 4 9 5 ] { ^ 0 a b c d e f f f f e e g h i j k l m n o p 6 : }         ",
"    . / 4 9 3 5 ] ^ / q r s t u v v v v v v v w x x x v y z A B C < < < : .     ",
"    $ 5 9 5 5 ^ ^ ~ ~ D E F G H I J J J J J J I K L L L L M N O P } [ [ Q ,     ",
"    $ ] 3 5 ] ^ / ~ ( R S T U V W X X X X X X X Y Z Z Z `  ...+.@.| | } #.+     ",
"    # ^ 5 { { / ~ _ : $.%.&.*.=.*.-.-.-.-.-.-.-.-.-.-.-.;.>.,.'.).!.!.| ~.,     ",
"    $ ^ 5 { ^ ~ ( : _ {.].^./.(._.:.:.:.:.:.:.:.:.:.:.:.<.[.}.'.).|.!.1.2.+     ",
"    # / { / / ( _ 6 < 3.4.^./.(._.:.:.:.:.:.:.:.:.:.:.:.<.[.}.'.).Q 5.|.6.2     ",
"    % / { / ~ _ : < < 7.8.^./.(._.:.:.:.:.:.:.:.:.:.:.:.<.[.}.'.).#.Q 5.9.+     ",
"    & ~ ^ ~ ( : 6 [ } 0.a.b./.(._.:.:.:.:.:.:.:.:.:.:.:.<.[.}.'.).2.~.#.c.2     ",
"    & ( / ( _ 6 < [ | d.a.b./.(._.:.:.:.:.:.:.:.:.:.:.:.<.[.}.'.).2.~.Q e.2     ",
"    * _ ~ _ : < [ | 1.f.g.h.i.j.k.l.l.l.l.l.l.l.l.l.l.l.*.m.n.'.).6.2.2.o.2     ",
"    * _ ~ ( : < [ | | p.q.r.s.t.u.v.v.v.v.v.v.v.v.v.v.v.w.x.y.z.A.9.B.2.C.)     ",
"    - : ( : 6 [ } 1.!.D.E.F.G.H.I.J.J.J.J.J.J.J.J.J.J.J.K.L.M.N.O.c.9.B.P.)     ",
"    - : ( : 6 [ } 1.|.|.Q.R.S.T.U.V.V.V.V.V.V.V.V.V.U.W.X.Y.Z.`. +e.c.B..+2     ",
"    * 6 _ 6 < } | !.|.++@+#+$+%+%+%+%+%+%+%+%+%+%+%+&+*+=+-+;+>+,+o.e.9..+'+    ",
"    * < _ 6 < } | !.)+!+~+{+]+^+^+^+^+^+^+^+^+^+/+(+_+:+<+[+}+|+1+o.e.9.2+)     ",
"    - < _ 6 < } 1.3+4+5+6+7+8+9+9+0+a+a+a+a+a+a+b+c+d+e+f+g+h+i+2+C.C.e.j+'+    ",
"    * 6 _ 6 [ | k+l+m+n+o+7+p+q+r+s+s+s+s+s+s+s+t+u+v+w+Z.x+i+2+2+C.o.e.j+'+    ",
"    * < ( 6 [ y+z+A+B+C+D+E+q+F+G+E+H+H+H+H+H+0+I+J+K+L+M+N+O+P+2+P.C.c.j+'+    ",
"    - < _ 6 Q+R+S+T+U+V+W+X+j Y+Z+`+ @.@.@.@.@+@@@#@$@%@&@O+*@P+.+P.o.c.j+)     ",
"    - < _ =@-@;@>@,@'@'@)@!@~@{@]@^@/@(@(@(@_@:@<@[@}@|@1@O+P+j+2+C.o.e.j+'+    ",
"    * < 2@3@4@5@6@6@6@7@8@9@0@a@b@8@c@6@6@6@d@e@f@g@h@1@i@O+P+2+2+C.C.c.P+'+    ",
"    * < j@k@l@m@n@n@n@n@l@o@p@q@r@s@t@u@u@v@w@x@y@z@i@i@*@P+j+.+P.C.e.9.2+'+    ",
"    * < ( 6 < } | !.5.Q ~.2.B.9.c.o.C..+.+j+P+O+i@O+O+*@*@j+j+2+P.o.e.9.2+)     ",
"    - : ( A@B@C@D@E@|.5.Q 2.B.6.c.o.C.C.P.2+j+P+*@P+P+P+P+F@.+C.o.o.e.9..+'+    ",
"    * : G@H@6 [ } @ |.I@J@K@~.L@'+M@N@C.C.* O@* 2+- P@Q@9 R@P.S@T@M@6 B..+2     ",
"    & ( U@V@: < } 1.!.W@X@Y@Z@`@ #.#+#@###$#% %#| O@&#& | %#o.*#N@=#G@B.P.)     ",
"    -#6 U@A@: ;#C@C@@ >#W@,#'#`@)#6.M@$ !#*#~#{#% T@% P.P.~#$ M@9.9.6.6.!.]#    ",
"    ^#6 .#/#(#6 < C@= _#|.5.^ :#)#B.<#' M@=#c.o.< M@# e.e.~#G@[#9.2.( c.(#      ",
"    >   : R@}#B@B@|#| 1#D@W@2#:#'#~.)#' : 3#3#~#G@M@$ e.9.3#9.4# #5#6#6.X@      ",
"      + 8 6 : 6 < } | | !.|.Q ~.~.2.2.6.9.9.9.e.c.c.c.e.9.c.6.6.6.6.c.  -#      ",
"        7#- 8 { { / ~ ( _ 6 < [ < | | 1.!.|.|.|.|.|.|.|.|.|.!.1.1.{ .#8#        ",
"            @ > 9#@ @ -#@ -#]#]#]#]#]#]#-#]#]#X@X@X@X@]#X@]#-#]#-#Z@            ",
"                                                                                ",
"                                                                                "};
