/* XPM */
static char *SpecificFiber_40x40[] = {
/* columns rows colors chars-per-pixel */
"40 40 134 2",
"   c #FF6600",
".  c #FC761D",
"X  c #FC771D",
"o  c #FD771E",
"O  c #FD781E",
"+  c #FE781F",
"@  c #FA8538",
"#  c #FA8638",
"$  c #FB8639",
"%  c #FB8739",
"&  c #FC873A",
"*  c #F99452",
"=  c #F99552",
"-  c #F8A36A",
";  c #F9A36B",
":  c #FAA46C",
">  c #FAA56C",
",  c #FBA56D",
"<  c #FCA66E",
"1  c #959595",
"2  c gray59",
"3  c #989898",
"4  c gray60",
"5  c #9A9A9A",
"6  c #9B9B9B",
"7  c gray61",
"8  c #9D9D9D",
"9  c gray62",
"0  c #A0A0A0",
"q  c #A2A2A2",
"w  c #A4A4A4",
"e  c #A5A5A5",
"r  c gray65",
"t  c #A7A7A7",
"y  c gray66",
"u  c #A9A9A9",
"i  c gray67",
"p  c gray68",
"a  c #AEAEAE",
"s  c #AFAFAF",
"d  c gray69",
"f  c #B1B1B1",
"g  c #B2B2B2",
"h  c gray70",
"j  c #B4B4B4",
"k  c gray71",
"l  c #B6B6B6",
"z  c #B7B7B7",
"x  c #B9B9B9",
"c  c #BBBBBB",
"v  c gray75",
"b  c #F4B991",
"n  c #FBC098",
"m  c #F6C5A5",
"M  c #F7C7A7",
"N  c #F8C8A8",
"B  c #F9C8A8",
"V  c #F9C9A9",
"C  c #FAC9A9",
"Z  c #FBCAAA",
"A  c #F3CDB4",
"S  c gray76",
"D  c gray77",
"F  c #C5C5C5",
"G  c #CACACA",
"H  c #CBCBCB",
"J  c gray80",
"K  c #CDCDCD",
"L  c #CECECE",
"P  c #D0D0D0",
"I  c gray82",
"U  c #D2D2D2",
"Y  c LightGray",
"T  c gray83",
"R  c #D5D5D5",
"E  c gray84",
"W  c #D7D7D7",
"Q  c #D8D8D8",
"!  c gray85",
"~  c #DADADA",
"^  c gray86",
"/  c gainsboro",
"(  c #DDDDDD",
")  c gray87",
"_  c #DFDFDF",
"`  c #EFD3C0",
"'  c #EDDFD5",
"]  c #EEDFD6",
"[  c #EFE1D7",
"{  c #F1E2D9",
"}  c #F2E4DA",
"|  c gray88",
" . c #E1E1E1",
".. c #E2E2E2",
"X. c gray89",
"o. c #E4E4E4",
"O. c gray90",
"+. c #E7E5E4",
"@. c #E6E6E6",
"#. c #E7E7E7",
"$. c #EAE5E2",
"%. c #E8E6E5",
"&. c #E9E8E6",
"*. c gray91",
"=. c #E9E9E9",
"-. c #EBEAE8",
";. c #EAEAEA",
":. c gray92",
">. c #ECEAE9",
",. c #EEECEB",
"<. c #ECECEC",
"1. c gray93",
"2. c #EFEDEC",
"3. c #EEEEEE",
"4. c #EFEFEF",
"5. c #F2E9E3",
"6. c #F0EEED",
"7. c gray94",
"8. c #F1F1F1",
"9. c gray95",
"0. c #F3F3F3",
"q. c #F4F4F4",
"w. c gray96",
"e. c #F6F6F6",
"r. c gray97",
"t. c #F8F8F8",
"y. c #F9F9F9",
"u. c gray98",
"i. c #FBFBFB",
"p. c gray99",
"a. c #FDFDFD",
"s. c #FEFEFE",
"d. c gray100",
"f. c None",
/* pixels */
"f.f.f.f.f.f.f.f.f.f.f.f.f.f.f.f.f.f.f.f.f.f.f.f.f.f.f.f.f.f.f.f.f.f.f.f.f.f.f.f.",
"f.f.f.f.f.f.f.( K K K K K K K K K K K K L L K K K K K K K K K L f.f.f.f.f.f.f.f.",
"f.f.f.f.K 0 5 r p p p p f f f h h h h h h h h h h h h h h h h h r 5 p f.f.f.f.f.",
"f.f.f.f 8 G ~ W W ~ ~ ~ ~ ( ( ( ( (  . . . . . . . .O. .O. . . . .( S 2 L f.f.f.",
"f.f.F 8 W W L W L W W W ~ ~ ~ ( ( ( ( ( ( ( (  . .(  .( ( ( ( ( ( ( ( W 2 f.f.f.",
"f.f.5 L W L L W W W ~ ~ ~ ~ ~ ( ( ( ( (  . . . . . . . . . . .(  .( (  .c x f.f.",
"f.~ 8 ~ L W W W W W ~ ~ ~ ( ( ( ( (  . . . . . . . . . . . . . .(  . .( ( 0 f.f.",
"f.K p W W L W W W ~ ~ ( ( ( (  . . . . . . .O.O.O.O.O.O.O.O. . . . . . .=.5 f.f.",
"f.K p W L W W W ~ ~ ~ ( (  .(  . . .X.X.O.O.o.O.O.O.O.O.O.O. .X. . . . .=.5 f.f.",
"f.K p ~ W W ~ ~ ~ ~ ( ( (  . . .o.X.O.O.O.O.#.#.=.O.] = . b O.O.O.O.O. .=.5 f.f.",
"f.K f ~ L ~ ~ ~ ~ ( ( (  . .O. .o.O.#.#.#.#.=.*.O.] o     o $.O.O.O.O. .=.5 f.f.",
"f.K p ~ W ~ ~ ~ ( (  . . . .O.O.O.#.O.=.=.=.=.:.[ o       O =.=.=.=.O.O.<.8 f.f.",
"f.K f ~ ~ ~ ~ ( ( (  . . .O. .O.O.=.#.*.=.:.:.[ O       o A =.=.=.=.=.O.<.5 f.f.",
"f.K f ~ W ~ ( ( (  . . .O.O.O.=.*.=.=.=.:.<.[ +       O m <.<.:.=.=.=.=.<.8 f.f.",
"f.K f ~ ~ ~ ( (  . . . .O.O.O.=.=.=.<.:.<.} o       O m 4.<.<.<.<.<.=.=.8.8 f.f.",
"f.K h ( ~ ~ ( (  . . .O.O.O.=.=.:.<.<.<.} o       o M 8.8.4.7.<.<.<.=.=.<.8 f.f.",
"f.K h ( ~ ( ( (  . .X.O.O.O.=.<.:.<.<.} o       o Z 8.8.8.8.7.4.<.<.<.=.8.8 f.f.",
"f.K h ( ^ ( (  . .X.O.O.=.=.=.<.<.4.5.o       O Z 0.q.0.w.0.8.7.8.<.<.<.8.8 f.f.",
"f.K h ( ^ ( (  . .X.O.O.#.=.=.<.<.6.&       O Z q.w.w.w.w.0.q.8.8.8.<.<.w.8 f.f.",
"f.K j ( ( ( _  . .O.O.#.#.=.<.<.6.&       + Z e.e.r.r.e.e.q.q.0.8.8.8.<.8.8 f.f.",
"f.K f  .( ( _  . .O.O.#.=.<.:.6.&       o n t.r.t.r.r.r.r.w.w.q.8.8.<.<.w.8 f.f.",
"f.K h ( ( ( _  .X.O.O.=.=.>.>.&       + < r.t.t.i.i.i.i.t.r.e.w.w.8.8.8.w.8 f.f.",
"f.K h  .( (  . .X.O.O.=.=.>.#       O < w.r.t.t.i.i.t.i.i.t.e.q.w.8.8.8.w.8 f.f.",
"f.K h ( ^ (  . .X.O.O.#.=.%       o < w.e.t.t.d.i.d.d.i.i.t.r.e.w.8.8.<.w.8 f.f.",
"f.K h  .( (  . .X.O.#.%.&       o < 8.q.e.t.i.t.d.d.d.i.t.t.r.e.8.8.8.<.t.8 f.f.",
"f.K h  .~ (  . . .O.%.#       o < 8.0.q.e.t.t.d.i.d.i.d.i.t.e.w.w.8.8.<.w.8 f.f.",
"f.K h ( (  . . .O.O.=       o < <.8.q.q.e.r.t.i.t.i.i.i.t.t.e.w.w.8.8.8.t.8 f.f.",
"f.K h  .( ( (  . .O..     o ; <.<.8.8.w.w.e.t.t.i.t.t.t.r.w.w.0.w.8.<.<.w.8 f.f.",
"f.K f  .~ (  . . .O.# . . - <.<.7.8.8.q.q.w.w.t.t.t.t.r.r.w.w.q.8.8.<.<.w.8 f.f.",
"f.K h ( ~ ( (  . .O.O.` ' =.<.<.<.8.8.8.8.q.w.e.r.e.e.w.r.w.0.8.8.8.8.<.8.8 f.f.",
"f.K h ( ( ( (  . .X.O.O.#.#.=.<.<.<.4.8.8.w.0.q.w.w.w.w.q.q.8.8.8.<.<.<.w.8 f.f.",
"f.K f ~ ~ ( ( (  .X.X.O.#.=.=.<.<.<.4.4.8.8.8.0.8.q.8.q.8.8.7.7.8.8.<.=.8.8 f.f.",
"f.( r ( ~ ( ( (  . .O.O.O.=.=.=.<.<.<.8.8.8.8.8.8.8.8.8.8.8.<.8.<.<.<.<.O.t f.f.",
"f.f.5 ( ~ ~ ( (  . . .O.O.O.O.=.=.<.<.<.<.<.<.8.8.8.8.8.8.8.<.<.<.<.<.<.K h f.f.",
"f.f.r S ( ( ( ( (  . . . .O.O.=.=.=.=.<.8.<.8.<.8.<.<.<.<.<.<.<.<.<.=.<.t ~ f.f.",
"f.f.f.5 L ( ( (  . . . .O.O.=.=.=.=.<.<.<.<.<.8.<.8.<.8.8.<.<.<.<.<.<.F r f.f.f.",
"f.f.f.~ 5 h K ~ W ~ ~ ( ( (  . . . . .O.O.O.O.O.O.O.O.O.O.O.O. .O.W p 0 f.f.f.f.",
"f.f.f.f.f.c r r r r r r r r t t t t t t r t t t t t t t t t t t t t K f.f.f.f.f.",
"f.f.f.f.f.f.f.f.f.f.f.f.f.f.f.f.f.f.f.f.f.f.f.f.f.f.f.f.f.f.f.f.f.f.f.f.f.f.f.f.",
"f.f.f.f.f.f.f.f.f.f.f.f.f.f.f.f.f.f.f.f.f.f.f.f.f.f.f.f.f.f.f.f.f.f.f.f.f.f.f.f."
};
