/* XPM */
static char * SpecificArtificialAccessPoint_40x40_xpm[] = {
"40 40 327 2",
"  	c None",
". 	c #A0A0A0",
"+ 	c #9A9A9A",
"@ 	c #A6A6A6",
"# 	c #B0B0B0",
"$ 	c #AFAFAF",
"% 	c #B1B1B1",
"& 	c #B2B2B2",
"* 	c #B3B3B3",
"= 	c #B5B5B5",
"- 	c #B4B4B4",
"; 	c #B6B6B6",
"> 	c #A4A4A4",
", 	c #999999",
"' 	c #ADADAD",
") 	c #9D9D9D",
"! 	c #CACACA",
"~ 	c #DADADA",
"{ 	c #D7D7D7",
"] 	c #D6D6D6",
"^ 	c #D8D8D8",
"/ 	c #D9D9D9",
"( 	c #DBDBDB",
"_ 	c #DCDCDC",
": 	c #DDDDDD",
"< 	c #DFDFDF",
"[ 	c #E0E0E0",
"} 	c #E1E1E1",
"| 	c #E2E2E2",
"1 	c #959595",
"2 	c #9C9C9C",
"3 	c #D4D4D4",
"4 	c #D2D2D2",
"5 	c #D5D5D5",
"6 	c #DEDEDE",
"7 	c #969696",
"8 	c #D0D0D0",
"9 	c #D3D3D3",
"0 	c #E3E3E3",
"a 	c #E4E4E4",
"b 	c #E7E7E7",
"c 	c #E5E5E5",
"d 	c #E8E8E8",
"e 	c #BCCED5",
"f 	c #97BFCD",
"g 	c #95BDCC",
"h 	c #95BECC",
"i 	c #95BDCD",
"j 	c #94BDCD",
"k 	c #94BECD",
"l 	c #95BFCD",
"m 	c #95BECD",
"n 	c #99C0CE",
"o 	c #9BC1CF",
"p 	c #1B869C",
"q 	c #E9E9E9",
"r 	c #D6D9DA",
"s 	c #ABC7D1",
"t 	c #90BCCB",
"u 	c #8FBBCB",
"v 	c #90BBCB",
"w 	c #92BDCC",
"x 	c #96BFCF",
"y 	c #007992",
"z 	c #0A566D",
"A 	c #EAEAEA",
"B 	c #D0D6D9",
"C 	c #A1C3CF",
"D 	c #92BCCC",
"E 	c #9CC2D0",
"F 	c #23849C",
"G 	c #005068",
"H 	c #0E5C74",
"I 	c #E6E6E6",
"J 	c #ECECEC",
"K 	c #C4D1D6",
"L 	c #9CC1CF",
"M 	c #94BECC",
"N 	c #94BDCC",
"O 	c #96BFCE",
"P 	c #98C0CF",
"Q 	c #2F88A0",
"R 	c #00526B",
"S 	c #00536C",
"T 	c #EDEDED",
"U 	c #93B9C4",
"V 	c #73AABD",
"W 	c #71A9BD",
"X 	c #71AABD",
"Y 	c #72AABD",
"Z 	c #6FA8BC",
"` 	c #70A9BC",
" .	c #70A9BD",
"..	c #70A8BC",
"+.	c #71A9BC",
"@.	c #76ACBF",
"#.	c #4E96AD",
"$.	c #00536D",
"%.	c #00546D",
"&.	c #0E5D74",
"*.	c #EEEEEE",
"=.	c #5098AD",
"-.	c #4D96AD",
";.	c #4A94AB",
">.	c #4592A9",
",.	c #4A95AB",
"'.	c #4C95AC",
").	c #4893AA",
"!.	c #4994AA",
"~.	c #4994AB",
"{.	c #4692A9",
"].	c #4B95AB",
"^.	c #4793A9",
"/.	c #4592A8",
"(.	c #4A94AA",
"_.	c #4B95AC",
":.	c #4993AA",
"<.	c #4C95AB",
"[.	c #5399AF",
"}.	c #29869F",
"|.	c #EFEFEF",
"1.	c #5A9CB1",
"2.	c #68A4B8",
"3.	c #93BECD",
"4.	c #63A1B6",
"5.	c #5097AD",
"6.	c #B4D1DC",
"7.	c #BBD6DF",
"8.	c #5499AF",
"9.	c #5E9FB4",
"0.	c #94BECE",
"a.	c #599CB1",
"b.	c #589BB1",
"c.	c #B8D4DE",
"d.	c #A9CAD7",
"e.	c #408FA6",
"f.	c #65A3B7",
"g.	c #95BFCE",
"h.	c #569AB0",
"i.	c #5D9EB3",
"j.	c #BDD7E0",
"k.	c #00546E",
"l.	c #0D5C74",
"m.	c #F0F0F0",
"n.	c #579BB0",
"o.	c #599CB2",
"p.	c #BCD6E0",
"q.	c #AECED9",
"r.	c #97C0CF",
"s.	c #CFE1E9",
"t.	c #80B2C4",
"u.	c #5C9EB3",
"v.	c #8DBACA",
"w.	c #9DC3D1",
"x.	c #B3D1DC",
"y.	c #C8DDE5",
"z.	c #7FB1C3",
"A.	c #C7DDE5",
"B.	c #C6DCE4",
"C.	c #A1C6D3",
"D.	c #3E8EA6",
"E.	c #3088A0",
"F.	c #075971",
"G.	c #EBEBEB",
"H.	c #F1F1F1",
"I.	c #5197AD",
"J.	c #A5C8D4",
"K.	c #8EBACA",
"L.	c #18819A",
"M.	c #83B4C5",
"N.	c #E3EEF2",
"O.	c #4290A7",
"P.	c #D8E7ED",
"Q.	c #158098",
"R.	c #E1ECF0",
"S.	c #22839B",
"T.	c #5399AE",
"U.	c #FBFCFD",
"V.	c #73ABBE",
"W.	c #9DC4D1",
"X.	c #CEE1E7",
"Y.	c #63A2B6",
"Z.	c #D2E3E9",
"`.	c #3C8DA4",
" +	c #00556E",
".+	c #6896A5",
"++	c #F2F2F2",
"@+	c #5599AF",
"#+	c #6EA8BB",
"$+	c #D9E8ED",
"%+	c #D6E6EC",
"&+	c #B2D0DB",
"*+	c #5B9DB2",
"=+	c #6EA8BC",
"-+	c #A2C6D4",
";+	c #D2E3EA",
">+	c #82B3C4",
",+	c #D5E5EC",
"'+	c #A5C9D6",
")+	c #5B9DB3",
"!+	c #7FB2C3",
"~+	c #ACCCD8",
"{+	c #CFE2E8",
"]+	c #7CB0C3",
"^+	c #DAE8ED",
"/+	c #9EC4D2",
"(+	c #5C9DB3",
"_+	c #86B7C8",
":+	c #6AA5B9",
"<+	c #6997A5",
"[+	c #F3F3F3",
"}+	c #589BB0",
"|+	c #86B6C7",
"1+	c #DFECF1",
"2+	c #3B8DA4",
"3+	c #8BB9C9",
"4+	c #91BCCC",
"5+	c #4894AA",
"6+	c #E1EDF2",
"7+	c #81B2C4",
"8+	c #408FA7",
"9+	c #8FBBCA",
"0+	c #398DA5",
"a+	c #92BDCD",
"b+	c #E4EEF3",
"c+	c #3F8FA5",
"d+	c #4190A7",
"e+	c #579BB1",
"f+	c #5F92A1",
"g+	c #9E9E9E",
"h+	c #62A0B4",
"i+	c #599BB1",
"j+	c #569AAF",
"k+	c #5F9FB4",
"l+	c #5299AD",
"m+	c #5B9DB1",
"n+	c #559AAF",
"o+	c #599DB2",
"p+	c #569BB0",
"q+	c #5FA0B4",
"r+	c #5A9DB2",
"s+	c #559BB0",
"t+	c #62A1B6",
"u+	c #559BAF",
"v+	c #549AAF",
"w+	c #5D9FB3",
"x+	c #60A0B4",
"y+	c #3B8EA5",
"z+	c #4F8899",
"A+	c #E9EDEE",
"B+	c #F4F4F4",
"C+	c #F5F5F5",
"D+	c #F6F6F6",
"E+	c #F7F7F7",
"F+	c #F8F8F8",
"G+	c #F9F9F9",
"H+	c #FAFAFA",
"I+	c #FBFBFB",
"J+	c #FCFCFC",
"K+	c #FEFEFE",
"L+	c #FDFDFD",
"M+	c #FFFFFF",
"N+	c #939393",
"O+	c #3B3B3B",
"P+	c #3C3C3C",
"Q+	c #2D2D2D",
"R+	c #7A7A7A",
"S+	c #727272",
"T+	c #BEBEBE",
"U+	c #4A4A4A",
"V+	c #C6C6C6",
"W+	c #7B7B7B",
"X+	c #8B8B8B",
"Y+	c #CCCCCC",
"Z+	c #7F7F7F",
"`+	c #9F9F9F",
" @	c #828282",
".@	c #C3C3C3",
"+@	c #838383",
"@@	c #929292",
"#@	c #D1D1D1",
"$@	c #818181",
"%@	c #747474",
"&@	c #A1A1A1",
"*@	c #3D3D3D",
"=@	c #A9A9A9",
"-@	c #5D5D5D",
";@	c #ABABAB",
">@	c #ACACAC",
",@	c #2F2F2F",
"'@	c #AEAEAE",
")@	c #505050",
"!@	c #BFBFBF",
"~@	c #C1C1C1",
"{@	c #606060",
"]@	c #414141",
"^@	c #515151",
"/@	c #303030",
"(@	c #8F8F8F",
"_@	c #A7A7A7",
":@	c #868686",
"<@	c #1F1F1F",
"[@	c #2E2E2E",
"}@	c #7C7C7C",
"|@	c #7D7D7D",
"1@	c #808080",
"2@	c #404040",
"3@	c #202020",
"4@	c #A8A8A8",
"5@	c #989898",
"6@	c #3A3A3A",
"7@	c #CDCDCD",
"8@	c #5B5B5B",
"9@	c #AAAAAA",
"0@	c #7E7E7E",
"a@	c #5E5E5E",
"b@	c #2C2C2C",
"c@	c #777777",
"d@	c #696969",
"e@	c #8A8A8A",
"f@	c #3F3F3F",
"g@	c #6E6E6E",
"h@	c #3E3E3E",
"i@	c #BABABA",
"j@	c #9B9B9B",
"k@	c #A2A2A2",
"l@	c #A5A5A5",
"                                                                                ",
"                                                                                ",
"          . + @ # $ $ % & & * * * * * = = = = = = = - = - = ; & > , '           ",
"      % ) ! ~ { ] ^ ^ / ~ ( _ : _ < < [ [ } [ } } } } } [ } } [ | <   1         ",
"      2 ] 3 4 3 3 5 ] { ^ / ~ ( ( _ : : _ 6 6 < < < < < 6 6 6 : : : < 5 7       ",
"    , 8 3 4 9 5 ] { ^ / ~ ( ( : : 6 6 < < [ [ [ } } } } [ [ [ 6 < 6 : }         ",
"    . / 4 9 3 5 ] ^ / ~ ( _ _ 6 6 < [ [ } } } | | | | | } } } [ < < < < : .     ",
"    $ 5 9 5 5 ^ ^ ~ ~ _ : 6 6 < [ } } | 0 | a a a a a a a 0 | | | } [ [ b ,     ",
"    $ ] 3 5 ] ^ / ~ ( : : < < } } | 0 0 a c a c c a c c c c 0 0 0 | | } d +     ",
"    # ^ 5 { { / ~ _ e f g h h h g g i i j k k k l k l l m j m n o p a | q ,     ",
"    $ ^ 5 { ^ ~ r s t t t u t v v t u t u t t t v t u u t u w x y z a 0 A +     ",
"    # / { / / B C v t v v t t t v u u u v t v t t t v u t D E F G H I c J 2     ",
"    % / { / K L k M M N m k M m M N M M N k M m m k M k O P Q R S H b I T +     ",
"    & ~ ^ U V W X Y X Z ` X  .X X X ..Z X  .W +.X ` Z +.@.#.$.R %.&.q d *.2     ",
"    & ( / =.-.;.>.,.'.).!.~.'.{.].].^./.,.(./._.;.:.>.<.[.}.%.S %.&.q b |.2     ",
"    * _ ~ 1.'.2.3.4.5.6.7.8.9.0.a.b.c.d.e.f.g.h.i.j.d.^.8.Q k.%.%.l.A A m.2     ",
"    * _ ~ n.i.u o.u p.q.r.s.t.u.v.j.w.x.y.z.9.m A.P B.C.D.E.k.S %.F.G.A H.)     ",
"    - : ( I.J.K.L.M.N.F O.P.t.Q.u R.S.T.U.V.F W.X.L.Y.Z.`.E. +$.S .+T G.++)     ",
"    - : ( @+#+$+t.%+&+*+=+-+;+>+,+'+)+!+~+{+]+^+/+(+_+:+~.E.k.S <+|.*.G.[+2     ",
"    * 6 _ }+(.|+1+>+2+3+4+5+|+6+7+8+9+t.0+a+b+Y c+a+t.d+e+Q %.f+H.m.|.T [+g+    ",
"    * < _ h+i+j+k+l+m+n+[.o+p+q+T.r+8.s+*+n.t+u+*+v+s+w+x+y+z+A+[+m.|.T B+)     ",
"    - < _ 6 < } 0 a I d d G.T *.|.H.++C+D+E+F+G+H+I+H+H+G+E+D+C+B+H.H.|.C+g+    ",
"    * 6 _ 6 [ | 0 a I d q G.J |.|.H.++C+C+E+F+I+I+J+I+I+H+F+D+B+B+H.m.|.C+g+    ",
"    * < ( 6 [ } 0 c I b A J T |.|.++++C+D+F+G+J+J+K+L+I+H+F+F+D+B+++H.*.C+g+    ",
"    - < _ 6 [ } | a b d q G.J |.m.++++B+D+F+H+I+L+M+K+J+H+F+E+D+[+++m.*.C+)     ",
"    - < _ 6 [ | 0 c I b A J J *.m.H.++B+D+F+G+J+J+L+J+J+H+F+D+C+B+H.m.|.C+g+    ",
"    * < _ 6 [ | 0 c I d d G.T |.m.H.[+B+D+E+F+I+I+I+I+H+G+F+D+B+B+H.H.*.D+g+    ",
"    * < _ 6 6 } 0 c I d q G.J *.*.m.++B+C+D+F+F+H+G+G+G+E+D+C+[+++H.|.T B+g+    ",
"    * < ( 6 < } | a I b q A G.T *.m.H.[+[+C+D+F+G+F+F+E+E+C+C+B+++m.|.T B+)     ",
"    - : ( N+O+P+Q+R+c I b A G.J *.m.H.H.++B+C+D+E+D+D+D+D+S+[+H.m.m.|.T [+g+    ",
"    * : T+U+6 [ } @ c V+W+X+q Y+g+Z+`+H.H.*  @* B+- .@+@9 @@++#@$@Z+6 G.[+2     ",
"    & ( %@&@: < } 0 a *@=@-@;@>@,@'@)@!@~@{@% ]@|  @^@& | ]@m./@`+(@T+G.++)     ",
"    _@6 %@N+: :@P+P+@ <@*@[@}@>@|@J Z+$ 1@/@2@3@% $@% ++++2@$ Z+T T J J a 4@    ",
"    5@6 '@6@7@6 < P+= 8@c I ^ 9@|@G.0@' Z+(@*.m.< Z+# |.|.2@T+a@T A ( *.7@      ",
"    >   : @@b@O+O+c@| d@Q+*@e@9@}@q |@' : f@f@2@T+Z+$ |.T f@T g@,@h@i@J =@      ",
"      + 8 6 : 6 < } | | a c b q q A A J T T T |.*.*.*.|.T *.J J J J *.  _@      ",
"        j@- 8 { { / ~ ( _ 6 < [ < | | 0 a c c c c c c c c c a 0 0 { '@k@        ",
"            @ > l@@ @ _@@ _@4@4@4@4@4@4@_@4@4@=@=@=@=@4@=@4@_@4@_@;@            ",
"                                                                                ",
"                                                                                "};
