/* XPM */
static char * SpecificArtificialWirelessEndDevice_40x40_xpm[] = {
"40 40 343 2",
"  	c None",
". 	c #A0A0A0",
"+ 	c #9A9A9A",
"@ 	c #A6A6A6",
"# 	c #B0B0B0",
"$ 	c #AFAFAF",
"% 	c #B1B1B1",
"& 	c #B2B2B2",
"* 	c #B3B3B3",
"= 	c #B5B5B5",
"- 	c #B4B4B4",
"; 	c #B6B6B6",
"> 	c #A4A4A4",
", 	c #999999",
"' 	c #ADADAD",
") 	c #9D9D9D",
"! 	c #CACACA",
"~ 	c #DADADA",
"{ 	c #D7D7D7",
"] 	c #D6D6D6",
"^ 	c #D8D8D8",
"/ 	c #D9D9D9",
"( 	c #DBDBDB",
"_ 	c #DCDCDC",
": 	c #DDDDDD",
"< 	c #DFDFDF",
"[ 	c #E0E0E0",
"} 	c #E1E1E1",
"| 	c #E2E2E2",
"1 	c #959595",
"2 	c #9C9C9C",
"3 	c #D4D4D4",
"4 	c #D2D2D2",
"5 	c #D5D5D5",
"6 	c #DEDEDE",
"7 	c #969696",
"8 	c #D0D0D0",
"9 	c #D3D3D3",
"0 	c #D7DDDF",
"a 	c #94C4CF",
"b 	c #8DC1CD",
"c 	c #91C2CE",
"d 	c #92C3CF",
"e 	c #92C3D0",
"f 	c #93C4D0",
"g 	c #8FC3CF",
"h 	c #C9DBDF",
"i 	c #D9DEE0",
"j 	c #7CBBC9",
"k 	c #52A7BC",
"l 	c #56AABE",
"m 	c #54A9BD",
"n 	c #5BADC0",
"o 	c #61ADBF",
"p 	c #6AA9B8",
"q 	c #E7E7E7",
"r 	c #D9DEDF",
"s 	c #4DA5BB",
"t 	c #57AABE",
"u 	c #56A9BD",
"v 	c #5BACC1",
"w 	c #69B2C4",
"x 	c #30869C",
"y 	c #408EA2",
"z 	c #E8E8E8",
"A 	c #7BB9C9",
"B 	c #4DA5BA",
"C 	c #5AACC0",
"D 	c #67B1C3",
"E 	c #308A9F",
"F 	c #006580",
"G 	c #4593A6",
"H 	c #E9E9E9",
"I 	c #D8DCDD",
"J 	c #7DBBCA",
"K 	c #4CA4B9",
"L 	c #55A9BD",
"M 	c #54A8BD",
"N 	c #68B2C4",
"O 	c #328AA1",
"P 	c #006882",
"Q 	c #006983",
"R 	c #4694A7",
"S 	c #E3E3E3",
"T 	c #EAEAEA",
"U 	c #D9DDDF",
"V 	c #90C4D0",
"W 	c #60AFC2",
"X 	c #6BB4C6",
"Y 	c #6CB4C6",
"Z 	c #69B3C5",
"` 	c #65B0C2",
" .	c #31899F",
"..	c #006B85",
"+.	c #3A8CA1",
"@.	c #E5E5E5",
"#.	c #ECECEC",
"$.	c #D6DCDD",
"%.	c #87BDCB",
"&.	c #56A8BB",
"*.	c #60ADC0",
"=.	c #62B0C2",
"-.	c #61AEC0",
";.	c #61AFC1",
">.	c #61AEC1",
",.	c #60AEC0",
"'.	c #71B7C7",
").	c #4B9BB0",
"!.	c #00637E",
"~.	c #75AEBC",
"{.	c #E6E6E6",
"].	c #EDEDED",
"^.	c #A3C9D3",
"/.	c #429AB0",
"(.	c #419AB0",
"_.	c #439CB1",
":.	c #429BB1",
"<.	c #449EB3",
"[.	c #3689A4",
"}.	c #3587A2",
"|.	c #3D92AA",
"1.	c #31809E",
"2.	c #4097AE",
"3.	c #307E9C",
"4.	c #3B92AA",
"5.	c #51A5B9",
"6.	c #3D94A9",
"7.	c #006681",
"8.	c #006C85",
"9.	c #00627E",
"0.	c #69A7B7",
"a.	c #E8EBEB",
"b.	c #EEEEEE",
"c.	c #A2C9D2",
"d.	c #479FB4",
"e.	c #459DB3",
"f.	c #469EB4",
"g.	c #479FB5",
"h.	c #439AB1",
"i.	c #21658B",
"j.	c #3A8CA7",
"k.	c #246B8E",
"l.	c #317E9D",
"m.	c #449CB2",
"n.	c #256B8F",
"o.	c #317E9C",
"p.	c #307C9B",
"q.	c #266E92",
"r.	c #52A7BB",
"s.	c #3F95AA",
"t.	c #00637F",
"u.	c #6CABBA",
"v.	c #EAECED",
"w.	c #EFEFEF",
"x.	c #A4CAD3",
"y.	c #489FB4",
"z.	c #48A1B6",
"A.	c #3D91AA",
"B.	c #23678C",
"C.	c #21668B",
"D.	c #4399B0",
"E.	c #23698D",
"F.	c #266C90",
"G.	c #3686A2",
"H.	c #276E91",
"I.	c #4297AF",
"J.	c #236C8F",
"K.	c #4FA2B8",
"L.	c #3F94A9",
"M.	c #005C79",
"N.	c #63A4B5",
"O.	c #ECEEEF",
"P.	c #F0F0F0",
"Q.	c #A1C9D2",
"R.	c #469EB3",
"S.	c #449DB2",
"T.	c #459DB4",
"U.	c #469FB4",
"V.	c #4298AF",
"W.	c #20648A",
"X.	c #3B8EA9",
"Y.	c #22688C",
"Z.	c #3483A1",
"`.	c #3889A5",
" +	c #3687A3",
".+	c #276F92",
"++	c #2F7B9A",
"@+	c #32809E",
"#+	c #246C8F",
"$+	c #50A5B9",
"%+	c #308CA2",
"&+	c #5C9EB0",
"*+	c #ECF0F1",
"=+	c #EBEBEB",
"-+	c #F1F1F1",
";+	c #AACDD5",
">+	c #499FB4",
",+	c #459DB2",
"'+	c #479FB3",
")+	c #479EB3",
"!+	c #3785A2",
"~+	c #3787A2",
"{+	c #3E90A9",
"]+	c #327E9D",
"^+	c #4AA4B8",
"/+	c #469DB3",
"(+	c #307A99",
"_+	c #4397AF",
":+	c #3C90A9",
"<+	c #85BFCC",
"[+	c #EDF1F2",
"}+	c #F2F2F2",
"|+	c #D5DDDF",
"1+	c #84BCCA",
"2+	c #6FB2C2",
"3+	c #74B5C5",
"4+	c #75B5C6",
"5+	c #75B6C6",
"6+	c #75B6C7",
"7+	c #76B6C7",
"8+	c #76B7C7",
"9+	c #77B7C8",
"0+	c #77B9C8",
"a+	c #78BAC9",
"b+	c #77B7C7",
"c+	c #78BBCA",
"d+	c #76B7C8",
"e+	c #78B9C8",
"f+	c #77B8C8",
"g+	c #78B9C9",
"h+	c #79BACA",
"i+	c #78B8C8",
"j+	c #75B9C8",
"k+	c #7EBCCC",
"l+	c #E8F0F1",
"m+	c #F3F3F3",
"n+	c #E4E4E4",
"o+	c #F4F4F4",
"p+	c #F6F6F6",
"q+	c #F7F7F7",
"r+	c #F8F8F8",
"s+	c #9E9E9E",
"t+	c #F5F5F5",
"u+	c #F9F9F9",
"v+	c #FAFAFA",
"w+	c #FBFBFB",
"x+	c #FCFCFC",
"y+	c #787878",
"z+	c #3D3D3D",
"A+	c #2E2E2E",
"B+	c #FEFEFE",
"C+	c #FDFDFD",
"D+	c #C8C8C8",
"E+	c #868686",
"F+	c #BABABA",
"G+	c #8D8D8D",
"H+	c #7E7E7E",
"I+	c #CFCFCF",
"J+	c #A1A1A1",
"K+	c #818181",
"L+	c #A3A3A3",
"M+	c #949494",
"N+	c #828282",
"O+	c #3C3C3C",
"P+	c #7D7D7D",
"Q+	c #4F4F4F",
"R+	c #303030",
"S+	c #515151",
"T+	c #C5C5C5",
"U+	c #848484",
"V+	c #858585",
"W+	c #A8A8A8",
"X+	c #545454",
"Y+	c #323232",
"Z+	c #838383",
"`+	c #727272",
" @	c #6B6B6B",
".@	c #7C7C7C",
"+@	c #3E3E3E",
"@@	c #3F3F3F",
"#@	c #101010",
"$@	c #424242",
"%@	c #434343",
"&@	c #111111",
"*@	c #B8B8B8",
"=@	c #B7B7B7",
"-@	c #767676",
";@	c #696969",
">@	c #A9A9A9",
",@	c #4E4E4E",
"'@	c #CCCCCC",
")@	c #808080",
"!@	c #525252",
"~@	c #2D2D2D",
"{@	c #2F2F2F",
"]@	c #C4C4C4",
"^@	c #313131",
"/@	c #414141",
"(@	c #707070",
"_@	c #BEBEBE",
":@	c #4A4A4A",
"<@	c #000000",
"[@	c #5C5C5C",
"}@	c #B9B9B9",
"|@	c #8B8B8B",
"1@	c #2C2C2C",
"2@	c #979797",
"3@	c #AAAAAA",
"4@	c #ABABAB",
"5@	c #BBBBBB",
"6@	c #CDCDCD",
"7@	c #8F8F8F",
"8@	c #7F7F7F",
"9@	c #D1D1D1",
"0@	c #8E8E8E",
"a@	c #A7A7A7",
"b@	c #676767",
"c@	c #777777",
"d@	c #ACACAC",
"e@	c #9F9F9F",
"f@	c #505050",
"g@	c #404040",
"h@	c #C2C2C2",
"i@	c #606060",
"j@	c #A5A5A5",
"k@	c #AEAEAE",
"l@	c #989898",
"m@	c #929292",
"n@	c #757575",
"o@	c #595959",
"p@	c #4B4B4B",
"q@	c #797979",
"r@	c #7B7B7B",
"s@	c #202020",
"t@	c #5E5E5E",
"u@	c #494949",
"v@	c #5A5A5A",
"w@	c #7A7A7A",
"x@	c #CBCBCB",
"y@	c #878787",
"z@	c #BFBFBF",
"A@	c #9B9B9B",
"B@	c #A2A2A2",
"                                                                                ",
"                                                                                ",
"          . + @ # $ $ % & & * * * * * = = = = = = = - = - = ; & > , '           ",
"      % ) ! ~ { ] ^ ^ / ~ ( _ : _ < < [ [ } [ } } } } } [ } } [ | <   1         ",
"      2 ] 3 4 3 3 5 ] { ^ / ~ ( ( _ : : _ 6 6 < < < < < 6 6 6 : : : < 5 7       ",
"    , 8 3 4 9 5 ] { ^ / ~ ( ( : : 6 6 < < [ [ [ } } } } [ [ [ 6 < 6 : }         ",
"    . / 4 9 3 5 ] ^ 0 a b c c d d d d d e e e f f f f f e e e d c g h < : .     ",
"    $ 5 9 5 5 ^ ^ i j k l l l l l l l l l l l l l l l l l l l m n o p [ q ,     ",
"    $ ] 3 5 ] ^ r j s t t t t t t t t t t t t t t t t t t t u v w x y } z +     ",
"    # ^ 5 { { r A B t t t t t t t t t t t t t t t t t t t l C D E F G | H ,     ",
"    $ ^ 5 { I J K L L L L L L L L L L L L L L L L L L L M C N O P Q R S T +     ",
"    # / { U V W X X X X X X X X X X X Y X Y X X Y X Y Y Z `  .P ..Q +.@.#.2     ",
"    % / $.%.&.*.*.*.*.*.*.*.*.*.*.*.=.-.;.>.*.*.=.>.;.,.'.).F ....!.~.{.].+     ",
"    & ~ ^./.(._._._._._._._._._.:.<.[.}.|.1.<.2.3.2.3.4.5.6.7.8.9.0.a.z b.2     ",
"    & ( c.d.e.f.f.f.f.f.f.f.f.f.g.h.i.j.k.l.d.m.n.o.p.q.r.s.7.t.u.v.H q w.2     ",
"    * _ x.y.e.f.f.f.f.f.f.f.f.f.z.A.B.h.C.D.E.F.G.H.I.J.K.L.M.N.O.#.T T P.2     ",
"    * _ Q.R.S.e.e.e.e.e.e.e.T.e.U.V.W.X.Y.Z.`. +.+++@+#+$+%+&+*+].].=+T -+)     ",
"    - : ;+>+,+'+'+'+'+'+'+'+d.'+)+z.!+~+{+]+^+/+(+_+p.:+'+<+[+P.w.b.].=+}+)     ",
"    - : |+1+2+3+3+4+5+5+6+7+8+9+9+0+a+b+c+d+e+f+g+h+i+j+k+l+m+-+-+w.b.=+m+2     ",
"    * 6 _ 6 < } | n+@.q z H =+#.b.P.-+}+o+o+p+p+q+r+q+p+p+o+o+m+-+P.w.].m+s+    ",
"    * < _ 6 < } | n+{.q H =+=+b.b.-+-+m+m+t+q+q+r+r+r+r+q+t+t+m+m+P.w.].o+)     ",
"    - < _ 6 < } S n+{.z z =+].b.w.-+}+t+p+q+r+u+v+w+v+v+u+q+p+t+o+-+-+w.t+s+    ",
"    * 6 _ 6 [ | S n+{.z H =+#.w.w.-+}+t+t+q+r+w+w+x+w+w+v+r+p+o+o+-+P.w.t+s+    ",
"    * < ( 6 [ y+z+z+A++ T #.].w.w.}+}+t+p+r+u+x+x+B+C+w+D+1 r+p+o+}+-+b.t+s+    ",
"    - < _ 6 E+y+| n+^ F+H G+H+I+8 J+K+L+p+r+7 E+( : F+E+7 ; q+M+N+% P.b.t+)     ",
"    - < _ 6 O+| S @.{.q P+H+) Q+# R+% S+T+U+V+W+X+F+Y+W+7 U+Z+`+* K+P.w.t+s+    ",
"    * < _ 6 O+9 S  @A+.@+@@@@@#@# K+m+N+- $@$@%@&@*@E+v+=@U+$@o+o+-+-+b.p+s+    ",
"    * < _ 6 -@;@S @.>@.@,@'@#.6 $ )@}+N+- !@{ r+H =@V+u+= Z+!@9 }+} w.].o+s+    ",
"    * < ( 6 < y+~@z+z+>@F+{@@@@@$ )@-+N+& ]@^@$@$@; U+q+= Z+]@^@/@(@w.].o+)     ",
"    - : ( : < [ } n+@.{.q T =+#.b.P.-+-+}+o+]@p+q+p+p+p+p+o+m+-+P.P.w.].m+s+    ",
"    * : _@:@6 [ <@3 @.[@}@|@H =+].b.w.-+-+o+/@o+o+t+o+t+o+m+}+-+-+b.b.=+m+2     ",
"    & ( ~ 1@: > O+2@n+A+D+3@4@5@H+6@7@8@9@-+/@}+% N+% m+4 K+)@< $ 8@0@=+}+)     ",
"    a@6 ~ b@% c@> ;@= [@>@.@.@,@d@H+8@e@f@-+g@h@i@% g@| R+# e@j@Q+k@0@#.n+W+    ",
"    l@6 ~ m@n@o@< p@q@l@W+r@r@3@T @@@@@@#@w.@@)@R+g@s@$ f@f@8@6@{@t@G+b.6@      ",
"    >   : '@u@o@< v@O+9 @ w@r@3@H ,@x@#.: b.@@8@7@w.b.< : b.H+n@#.~ ,@' >@      ",
"      + 8 6 1@V+< y@~@| a@w@r@4@H 5@{@@@@@].@@< @@@@@@z@{@@@@@2@{@@@Q+  a@      ",
"        A@- 8 { { / ~ ( _ 6 < [ < | | S n+@.@.@.@.@.@.@.@.@.n+S S { k@B@        ",
"            @ > j@@ @ a@@ a@W+W+W+W+W+W+a@W+W+>@>@>@>@W+>@W+a@W+a@4@            ",
"                                                                                ",
"                                                                                "};
