/* XPM */
static char * SpecificArtificialRouter_40x40_xpm[] = {
"40 40 561 2",
"  	c None",
". 	c #A0A0A0",
"+ 	c #9A9A9A",
"@ 	c #A6A6A6",
"# 	c #B0B0B0",
"$ 	c #AFAFAF",
"% 	c #B1B1B1",
"& 	c #B2B2B2",
"* 	c #B3B3B3",
"= 	c #B5B5B5",
"- 	c #B4B4B4",
"; 	c #B6B6B6",
"> 	c #A4A4A4",
", 	c #999999",
"' 	c #ADADAD",
") 	c #9D9D9D",
"! 	c #CACACA",
"~ 	c #DADADA",
"{ 	c #D7D7D7",
"] 	c #D6D6D6",
"^ 	c #D8D8D8",
"/ 	c #D9D9D9",
"( 	c #DBDBDB",
"_ 	c #DCDCDC",
": 	c #DDDDDD",
"< 	c #DFDFDF",
"[ 	c #E0E0E0",
"} 	c #E1E1E1",
"| 	c #E2E2E2",
"1 	c #959595",
"2 	c #9C9C9C",
"3 	c #D4D4D4",
"4 	c #D2D2D2",
"5 	c #D5D5D5",
"6 	c #D6D7D7",
"7 	c #D4D6D7",
"8 	c #CED5D7",
"9 	c #C7D2D6",
"0 	c #BCCED4",
"a 	c #AFC9D2",
"b 	c #A7C5D0",
"c 	c #A6C5D0",
"d 	c #A7C6D1",
"e 	c #ABC8D2",
"f 	c #B4CCD5",
"g 	c #C1D2D8",
"h 	c #CCD6DB",
"i 	c #D3DADC",
"j 	c #DBDDDE",
"k 	c #DDDDDE",
"l 	c #DEDEDE",
"m 	c #969696",
"n 	c #D0D0D0",
"o 	c #D3D3D3",
"p 	c #D2D6D7",
"q 	c #C4D1D5",
"r 	c #B6CBD3",
"s 	c #AAC7D1",
"t 	c #A1C3CF",
"u 	c #9BC0CE",
"v 	c #94BDCC",
"w 	c #91BCCB",
"x 	c #90BBCB",
"y 	c #92BCCC",
"z 	c #97C0CF",
"A 	c #9EC3D0",
"B 	c #9AC0CD",
"C 	c #93BBC9",
"D 	c #A8C6D1",
"E 	c #BACFD7",
"F 	c #C9D6DA",
"G 	c #DADDDE",
"H 	c #D2D4D5",
"I 	c #C5D0D4",
"J 	c #9FC2CF",
"K 	c #98C1CF",
"L 	c #93BECD",
"M 	c #92BDCC",
"N 	c #91BDCC",
"O 	c #91BCCC",
"P 	c #90BCCB",
"Q 	c #88B7C7",
"R 	c #61A0B5",
"S 	c #2D8AA1",
"T 	c #198097",
"U 	c #3B8EA5",
"V 	c #86B5C6",
"W 	c #94BECD",
"X 	c #94BECC",
"Y 	c #9CC1CE",
"Z 	c #AFCAD4",
"` 	c #CCD7DB",
" .	c #DCDDDE",
"..	c #C7D0D3",
"+.	c #A6C4CE",
"@.	c #65A3B6",
"#.	c #5D9FB4",
"$.	c #6EA9BC",
"%.	c #7EB2C2",
"&.	c #87B7C7",
"*.	c #90BBCA",
"=.	c #97BFCF",
"-.	c #95BECE",
";.	c #4C94AA",
">.	c #11738C",
",.	c #71ABBD",
"'.	c #C4DDE5",
").	c #DBEAEF",
"!.	c #A2C5D3",
"~.	c #8BB9CA",
"{.	c #8FBBCB",
"].	c #93BECC",
"^.	c #ACC9D4",
"/.	c #CFD9DC",
"(.	c #E7E7E7",
"_.	c #C2CFD3",
":.	c #92BAC9",
"<.	c #3F91A7",
"[.	c #2E8BA1",
"}.	c #3891A7",
"|.	c #348DA4",
"1.	c #368BA1",
"2.	c #3A8BA3",
"3.	c #4892A9",
"4.	c #549AB0",
"5.	c #4D96AC",
"6.	c #3D8DA4",
"7.	c #76ADBF",
"8.	c #6EA9BB",
"9.	c #24829B",
"0.	c #8CBCC9",
"a.	c #F9FBFC",
"b.	c #C9DEE6",
"c.	c #ADCCD9",
"d.	c #9CC2D1",
"e.	c #8EBACA",
"f.	c #9CC1CF",
"g.	c #CAD7DB",
"h.	c #E8E8E8",
"i.	c #A4C4D0",
"j.	c #6DA9BB",
"k.	c #4797AC",
"l.	c #B5D1DC",
"m.	c #D6E6EC",
"n.	c #BFD7E1",
"o.	c #A1C6D3",
"p.	c #8EBAC9",
"q.	c #7FB2C2",
"r.	c #589FB2",
"s.	c #549EB1",
"t.	c #5CA1B3",
"u.	c #5499AF",
"v.	c #8CB9C9",
"w.	c #94BDCD",
"x.	c #4592A9",
"y.	c #56A1B4",
"z.	c #DFE9EF",
"A.	c #BBD5DF",
"B.	c #8AB7C7",
"C.	c #79B1C1",
"D.	c #83B6C7",
"E.	c #9FC3D2",
"F.	c #A4C5D3",
"G.	c #9BC2D1",
"H.	c #96BFCE",
"I.	c #93BDCC",
"J.	c #8EBBCB",
"K.	c #A0C4D0",
"L.	c #E9E9E9",
"M.	c #8FBACA",
"N.	c #9BC2D0",
"O.	c #9AC2D0",
"P.	c #ACCCD9",
"Q.	c #C0D8E2",
"R.	c #C8DEE5",
"S.	c #ADCDD9",
"T.	c #C1D9E1",
"U.	c #EAF1F5",
"V.	c #D7E7EE",
"W.	c #93BECE",
"X.	c #A5C8D5",
"Y.	c #93BCCC",
"Z.	c #A6C7D4",
"`.	c #7DB5C6",
" +	c #3B8CA3",
".+	c #2A839B",
"++	c #00708B",
"@+	c #0B728C",
"#+	c #4F9AAE",
"$+	c #66ABBD",
"%+	c #84B4C5",
"&+	c #97BFCE",
"*+	c #A1C5D3",
"=+	c #A7C8D5",
"-+	c #98C0CF",
";+	c #95BFCD",
">+	c #E3E3E3",
",+	c #EAEAEA",
"'+	c #9BC1CF",
")+	c #8FBCCB",
"!+	c #8BB9C9",
"~+	c #89B8C8",
"{+	c #86B6C6",
"]+	c #88B6C8",
"^+	c #7FB1C3",
"/+	c #5C9EB3",
"(+	c #85B6C6",
"_+	c #B3D1DC",
":+	c #AFCDDB",
"<+	c #5FA4B7",
"[+	c #32859C",
"}+	c #4296AA",
"|+	c #5DA2B7",
"1+	c #3D8EA4",
"2+	c #62A6B8",
"3+	c #74B4C3",
"4+	c #5298AA",
"5+	c #27839A",
"6+	c #137D96",
"7+	c #197C95",
"8+	c #207F97",
"9+	c #33889E",
"0+	c #4899AC",
"a+	c #7FB4C4",
"b+	c #9CC3D1",
"c+	c #E5E5E5",
"d+	c #ECECEC",
"e+	c #81B2C4",
"f+	c #8DB9CA",
"g+	c #8DB9C9",
"h+	c #A3C7D4",
"i+	c #A2C7D4",
"j+	c #4390A6",
"k+	c #23819A",
"l+	c #5B9CB0",
"m+	c #378DA4",
"n+	c #78AEBF",
"o+	c #95BECD",
"p+	c #BED7E1",
"q+	c #C4DBE4",
"r+	c #C5DAE3",
"s+	c #BED6E0",
"t+	c #AECDD9",
"u+	c #8DBFCC",
"v+	c #7AB3C2",
"w+	c #5B9FB1",
"x+	c #3189A0",
"y+	c #73ACBE",
"z+	c #70AABC",
"A+	c #E6E6E6",
"B+	c #EDEDED",
"C+	c #569BAF",
"D+	c #6FA9BC",
"E+	c #86B7C7",
"F+	c #3B8CA1",
"G+	c #1F6E87",
"H+	c #30859D",
"I+	c #C9DFE7",
"J+	c #D9E7ED",
"K+	c #92BCCB",
"L+	c #8DBAC9",
"M+	c #9EC4D2",
"N+	c #A6C8D6",
"O+	c #AECCD9",
"P+	c #BBD4E0",
"Q+	c #BED6E2",
"R+	c #96BECD",
"S+	c #4895AB",
"T+	c #157A93",
"U+	c #EEEEEE",
"V+	c #5097AB",
"W+	c #5197AD",
"X+	c #72AABD",
"Y+	c #8BB8C8",
"Z+	c #8EBACB",
"`+	c #66A3B7",
" @	c #6CA4B6",
".@	c #E3EEF2",
"+@	c #9DC5D2",
"@@	c #5B9DB2",
"#@	c #8EBBCA",
"$@	c #8DBACA",
"%@	c #70A9BC",
"&@	c #278BA1",
"*@	c #03728B",
"=@	c #0B778E",
"-@	c #EFEFEF",
";@	c #5498AD",
">@	c #5098AE",
",@	c #66A3B8",
"'@	c #7CB0C3",
")@	c #93BDCD",
"!@	c #9DC3D1",
"~@	c #C6DBE5",
"{@	c #DAE8EE",
"]@	c #BED7E0",
"^@	c #82B3C5",
"/@	c #7DB0C2",
"(@	c #62A1B6",
"_@	c #3A8DA5",
":@	c #0D7E97",
"<@	c #007790",
"[@	c #00738D",
"}@	c #0B7A91",
"|@	c #F0F0F0",
"1@	c #5298AE",
"2@	c #68A5B9",
"3@	c #7CB0C2",
"4@	c #92BDCD",
"5@	c #C3DAE2",
"6@	c #D2E4EA",
"7@	c #D8E7EC",
"8@	c #CBDFE7",
"9@	c #B2CFDA",
"0@	c #A1C6D4",
"a@	c #A2C6D4",
"b@	c #A0C6D3",
"c@	c #94BECE",
"d@	c #8FBBCA",
"e@	c #8AB7C8",
"f@	c #81B3C6",
"g@	c #76ACBF",
"h@	c #68A3B8",
"i@	c #569AB1",
"j@	c #4290A7",
"k@	c #3088A0",
"l@	c #25839C",
"m@	c #0D7F98",
"n@	c #007A93",
"o@	c #00748D",
"p@	c #F1F1F1",
"q@	c #68A5B8",
"r@	c #93BDCE",
"s@	c #A9CBD8",
"t@	c #C1D9E2",
"u@	c #DBEAEE",
"v@	c #F8FAFB",
"w@	c #FFFFFF",
"x@	c #F1F6F9",
"y@	c #DDEAEF",
"z@	c #CCDFE6",
"A@	c #BDD7E0",
"B@	c #B0CEDA",
"C@	c #A2C7D5",
"D@	c #8AB9C8",
"E@	c #589BB1",
"F@	c #4F96AD",
"G@	c #4692A8",
"H@	c #3A8CA4",
"I@	c #2A869E",
"J@	c #0F8098",
"K@	c #007993",
"L@	c #0B7992",
"M@	c #EBEBEB",
"N@	c #F2F2F2",
"O@	c #69A5B9",
"P@	c #7DB0C3",
"Q@	c #92BECD",
"R@	c #A9CBD7",
"S@	c #D7E7ED",
"T@	c #EDF4F7",
"U@	c #F5F9FB",
"V@	c #E4EEF3",
"W@	c #C9DEE5",
"X@	c #BCD6E0",
"Y@	c #AECEDA",
"Z@	c #96C0CE",
"`@	c #8AB8C9",
" #	c #7FB1C4",
".#	c #73AABD",
"+#	c #4691A8",
"@#	c #398BA3",
"##	c #29859D",
"$#	c #0E7F98",
"%#	c #00748E",
"&#	c #F3F3F3",
"*#	c #4F97AC",
"=#	c #68A4B9",
"-#	c #7CAFC2",
";#	c #EEF5F7",
">#	c #F6FAFC",
",#	c #D5E5EC",
"'#	c #C8DDE5",
")#	c #7EB1C3",
"!#	c #67A3B8",
"~#	c #5D9EB3",
"{#	c #5297AE",
"]#	c #097690",
"^#	c #9E9E9E",
"/#	c #609FB3",
"(#	c #4A94AB",
"_#	c #C0D9E1",
":#	c #EEF4F6",
"<#	c #F6F9FB",
"[#	c #E4EFF3",
"}#	c #D5E5EB",
"|#	c #C8DDE4",
"1#	c #BAD5DE",
"2#	c #7FB2C4",
"3#	c #5198AE",
"4#	c #398CA3",
"5#	c #006E88",
"6#	c #2A859C",
"7#	c #F4F4F4",
"8#	c #C1D3D9",
"9#	c #5D9EB4",
"0#	c #7BAFC1",
"a#	c #D8E7ED",
"b#	c #EEF5F6",
"c#	c #D5E6EC",
"d#	c #BBD6DF",
"e#	c #AECED9",
"f#	c #8AB8C8",
"g#	c #67A4B9",
"h#	c #4691A9",
"i#	c #0A7D96",
"j#	c #157A94",
"k#	c #BDD5DD",
"l#	c #F5F5F5",
"m#	c #DDDEDF",
"n#	c #CEDBE0",
"o#	c #8BB7C7",
"p#	c #76ACBE",
"q#	c #8DBACB",
"r#	c #A6C9D6",
"s#	c #BED8E0",
"t#	c #67A4B8",
"u#	c #4390A8",
"v#	c #3087A0",
"w#	c #167F98",
"x#	c #0E7B94",
"y#	c #529BAF",
"z#	c #CBDCE2",
"A#	c #EEEFEF",
"B#	c #E1E3E4",
"C#	c #CEDCE1",
"D#	c #AECCD7",
"E#	c #AFCEDA",
"F#	c #D4E4EB",
"G#	c #F6F9FC",
"H#	c #E2EDF2",
"I#	c #D3E4EB",
"J#	c #C7DCE4",
"K#	c #B9D4DE",
"L#	c #ACCDD9",
"M#	c #87B6C7",
"N#	c #7AAEC1",
"O#	c #6DA6BB",
"P#	c #5F9EB3",
"Q#	c #4590A8",
"R#	c #4191A7",
"S#	c #6AA8BA",
"T#	c #C0D7DF",
"U#	c #F0F2F3",
"V#	c #E3E4E4",
"W#	c #E6E9EB",
"X#	c #DDE6EA",
"Y#	c #E5ECF0",
"Z#	c #F1F6F6",
"`#	c #F6F9FA",
" $	c #E7F0F4",
".$	c #CADFE6",
"+$	c #AFCFD9",
"@$	c #A3C7D5",
"#$	c #99C1CF",
"$$	c #8FBBCC",
"%$	c #8DBBCA",
"&$	c #99C2CF",
"*$	c #A9CBD6",
"=$	c #B9D4DD",
"-$	c #E9EFF2",
";$	c #F3F5F5",
">$	c #F6F6F6",
",$	c #E6E7E7",
"'$	c #ECECED",
")$	c #F1F1F2",
"!$	c #F3F4F4",
"~$	c #EFF3F4",
"{$	c #E7EEF1",
"]$	c #DCE7EC",
"^$	c #D0E1E7",
"/$	c #C0D8E1",
"($	c #B8D3DD",
"_$	c #C3D9E3",
":$	c #D0E2E9",
"<$	c #E0ECF0",
"[$	c #F0F5F7",
"}$	c #F9FAFB",
"|$	c #F3F6F7",
"1$	c #F7F8F8",
"2$	c #F7F7F7",
"3$	c #F8F8F8",
"4$	c #FBFBFB",
"5$	c #FAFAFA",
"6$	c #F9F9F9",
"7$	c #E4E4E4",
"8$	c #939393",
"9$	c #3B3B3B",
"0$	c #3C3C3C",
"a$	c #2D2D2D",
"b$	c #7A7A7A",
"c$	c #727272",
"d$	c #BEBEBE",
"e$	c #4A4A4A",
"f$	c #C6C6C6",
"g$	c #7B7B7B",
"h$	c #8B8B8B",
"i$	c #CCCCCC",
"j$	c #7F7F7F",
"k$	c #9F9F9F",
"l$	c #828282",
"m$	c #C3C3C3",
"n$	c #838383",
"o$	c #929292",
"p$	c #D1D1D1",
"q$	c #818181",
"r$	c #747474",
"s$	c #A1A1A1",
"t$	c #3D3D3D",
"u$	c #A9A9A9",
"v$	c #5D5D5D",
"w$	c #ABABAB",
"x$	c #ACACAC",
"y$	c #2F2F2F",
"z$	c #AEAEAE",
"A$	c #505050",
"B$	c #BFBFBF",
"C$	c #C1C1C1",
"D$	c #606060",
"E$	c #414141",
"F$	c #515151",
"G$	c #303030",
"H$	c #8F8F8F",
"I$	c #A7A7A7",
"J$	c #868686",
"K$	c #1F1F1F",
"L$	c #2E2E2E",
"M$	c #7C7C7C",
"N$	c #7D7D7D",
"O$	c #808080",
"P$	c #404040",
"Q$	c #202020",
"R$	c #A8A8A8",
"S$	c #989898",
"T$	c #3A3A3A",
"U$	c #CDCDCD",
"V$	c #5B5B5B",
"W$	c #AAAAAA",
"X$	c #7E7E7E",
"Y$	c #5E5E5E",
"Z$	c #2C2C2C",
"`$	c #777777",
" %	c #696969",
".%	c #8A8A8A",
"+%	c #3F3F3F",
"@%	c #6E6E6E",
"#%	c #3E3E3E",
"$%	c #BABABA",
"%%	c #9B9B9B",
"&%	c #A2A2A2",
"*%	c #A5A5A5",
"                                                                                ",
"                                                                                ",
"          . + @ # $ $ % & & * * * * * = = = = = = = - = - = ; & > , '           ",
"      % ) ! ~ { ] ^ ^ / ~ ( _ : _ < < [ [ } [ } } } } } [ } } [ | <   1         ",
"      2 ] 3 4 3 3 5 ] 6 7 8 9 0 a b c c c d e f g h i j k l l : : : < 5 m       ",
"    , n 3 4 o 5 ] { p q r s t u v w w w x y z A B C D E F G [ l < l : }         ",
"    . / 4 o 3 H I a J K L M N O y P x x P Q R S T U V W X Y Z `  .< < < : .     ",
"    $ 5 o 5 ..+.@.#.$.%.&.*.=.-.P O x M =.;.>.,.'.).!.~.{.P {.].^./.[ [ (.,     ",
"    $ ] 3 _.:.<.[.}.|.1.2.3.4.5.6.7.W L 8.9.0.a.b.c.d.{.e.e.{.{.P f.g.} h.+     ",
"    # ^ 5 i.j.k.l.m.n.o.p.q.r.s.t.u.v.w.x.y.z.A.B.C.D.E.F.G.H.I.e.J.K.| L.,     ",
"    $ ^ 5 w.M.N.O.d.P.Q.R.S.T.U.V.M.W.X.Y.Z.`. +.+++@+#+$+%+&+*+=+-+;+>+,++     ",
"    # / { '+N )+!+~+{+]+^+/+(+_+:+<+[+}+Q &+|+1+2+3+4+5+6+7+8+9+0+a+b+c+d+2     ",
"    % / { e+P O P P x x f+g+h+i+j+k+l+m+n+].o+p+q+r+s+t+h+u+v+w+x+y+z+A+B++     ",
"    & ~ ^ C+D+M M x {.{.H.E+F+G+H+I+J+K+L+{.W b+I.e.H.M+N+O+P+Q+R+S+T+h.U+2     ",
"    & ( / V+W+X+Y+O e.Z+{.J.`+ @.@+@@@#@M {.P $@#@{.{.J.w y $@%@&@*@=@(.-@2     ",
"    * _ ~ ;@>@,@'@)@!@!@;+-.~@{@]@^@%@g+P {.x x O x #@Y+/@(@_@:@<@[@}@,+|@2     ",
"    * _ ~ ;@1@2@3@4@P.5@6@7@8@9@0@a@b@-+c@M d@e@f@g@h@i@j@k@l@m@n@o@}@,+p@)     ",
"    - : ( ;@1@q@'@r@s@t@u@v@w@x@y@z@A@B@C@H.D@/@%@(@E@F@G@H@I@J@K@o@L@M@N@)     ",
"    - : ( ;@1@O@P@Q@R@t@S@T@U@V@m.W@X@Y@i+Z@`@ #.#,@/+1@+#@###$#n@%#}@M@&#2     ",
"    * l _ *#1@=#-#r@s@t@S@;#>#V@,#'#A.S.a@Z@`@)#X+!#~#{#+#@###J@n@%#]#B+&#^#    ",
"    * < _ /#(#O@P@Q@R@_#S@:#<#[#}#|#1#S.i+H.`@2#.#!#/+3#+#4#I@$#n@5#6#B+7#)     ",
"    - < _ 8#9#@@0#Q@R@_#a#b#<#[#c#R.d#e#0@H.f#)#X+g#/+1@h#H@I@i#++j#k#-@l#^#    ",
"    * l _ m#n#o#p#q#r#s#S@b#<#V@}#'#A.t+i+H.f#^+.#t#~#W+u#v#w#x#y#z#A#-@l#^#    ",
"    * < ( l [ B#C#D#E#p+F#:#G#H#I#J#K#L#b@W M#N#O#P#W+Q#R#k.S#T#U#N@p@U+l#^#    ",
"    - < _ l [ } | V#W#X#Y#Z#`# $a#.$A@+$@$#$$$~+&.%$&$*$=$-$;$>$&#N@|@U+l#)     ",
"    - < _ l [ | >+c+A+,$'$)$!$~${$]$^$/$($A.A._$:$<$[$}$|$1$>$l#7#p@|@-@l#^#    ",
"    * < _ l [ | >+c+A+h.h.M@B+-@|@p@&#7#>$2$3$4$4$4$4$5$6$3$>$7#!$p@p@U+>$^#    ",
"    * < _ l l } >+c+A+h.L.M@d+U+U+|@N@7#l#>$3$3$5$6$6$6$2$>$l#&#N@p@-@B+7#^#    ",
"    * < ( l < } | 7$A+(.L.,+M@B+U+|@p@&#&#l#>$3$6$3$3$2$2$l#l#7#N@|@-@B+7#)     ",
"    - : ( 8$9$0$a$b$c+A+(.,+M@d+U+|@p@p@N@7#l#>$2$>$>$>$>$c$&#p@|@|@-@B+&#^#    ",
"    * : d$e$l [ } @ c+f$g$h$L.i$^#j$k$p@p@* l$* 7#- m$n$o o$N@p$q$j$l M@&#2     ",
"    & ( r$s$: < } >+7$t$u$v$w$x$y$z$A$B$C$D$% E$| l$F$& | E$|@G$k$H$d$M@N@)     ",
"    I$l r$8$: J$0$0$@ K$t$L$M$x$N$d+j$$ O$G$P$Q$% q$% N@N@P$$ j$B+B+d+d+7$R$    ",
"    S$l z$T$U$l < 0$= V$c+A+^ W$N$M@X$' j$H$U+|@< j$# -@-@P$d$Y$B+,+( U+U$      ",
"    >   : o$Z$9$9$`$|  %a$t$.%W$M$L.N$' : +%+%P$d$j$$ -@B++%B+@%y$#%$%d+u$      ",
"      + n l : l < } | | 7$c+(.L.L.,+,+d+B+B+B+-@U+U+U+-@B+U+d+d+d+d+U+  I$      ",
"        %%- n { { / ~ ( _ l < [ < | | >+7$c+c+c+c+c+c+c+c+c+7$>+>+{ z$&%        ",
"            @ > *%@ @ I$@ I$R$R$R$R$R$R$I$R$R$u$u$u$u$R$u$R$I$R$I$w$            ",
"                                                                                ",
"                                                                                "};
