/* XPM */
static char *Specific2950T_40x40[] = {
/* columns rows colors chars-per-pixel */
"40 40 83 1",
"  c gray6",
". c #101010",
"X c #2E2E2E",
"o c #303030",
"O c #3D3D3D",
"+ c #404040",
"@ c #4D4D4D",
"# c #505050",
"$ c #5B5B5B",
"% c gray42",
"& c #717171",
"* c #7D7D7D",
"= c #006B85",
"- c #09728B",
"; c #10768E",
": c #217D96",
"> c #158199",
", c #24829B",
"< c #298298",
"1 c #33879F",
"2 c #318BA2",
"3 c #3A8FA6",
"4 c #4291A5",
"5 c #4391A8",
"6 c #4A96AB",
"7 c #4F98A9",
"8 c #5097AD",
"9 c #5198AE",
"0 c #559AB0",
"q c #5A9CB1",
"w c #5AA0B0",
"e c #62A1B4",
"r c #6CA6B9",
"t c #6EA8BB",
"y c #73ABBD",
"u c #77ADC0",
"i c #79AEC0",
"p c #7DB0C2",
"a c #818181",
"s c #8B8B8B",
"d c #949494",
"f c #9B9B9B",
"g c #A4A4A4",
"h c #AAAAAA",
"j c #B3B3B3",
"k c #BBBBBB",
"l c #84B4C5",
"z c #86B7C8",
"x c #88B7C8",
"c c #8BB9C9",
"v c #93BDCC",
"b c #99BFCD",
"n c #97C0CF",
"m c #9AC0CE",
"M c #9CC2D0",
"N c #A2C2CE",
"B c #A1C5D2",
"V c #A5C8D4",
"C c #AAC9D3",
"Z c #ACCCD8",
"A c #B0C9D3",
"S c #B8CDD4",
"D c #B2D0DB",
"F c #BAD5DF",
"G c #C3C3C3",
"H c #CDCDCD",
"J c #C3D1D7",
"K c #CBD5D9",
"L c #D4D4D4",
"P c #D0D7DA",
"I c #D6D9DA",
"U c #DCDCDC",
"Y c #C2DAE3",
"T c #CCDFE7",
"R c #D6E1E4",
"E c #DAE8EF",
"W c #E2E2E2",
"Q c #ECECEC",
"! c #E3EEF2",
"~ c #E8F0F2",
"^ c #F3F3F3",
"/ c #FEFEFE",
"( c None",
/* pixels */
"((((((((((((((((((((((((((((((((((((((((",
"(((((((UHHHHHHHHHHHHHHHHHHHHHHHL((((((((",
"((((Hffgjhhjjjjjjjjjjjjjjjjjjjjjgfh(((((",
"(((jfHIILULUIUUUUUWWWWWWWWWWWWWUWWGdL(((",
"((GfLLLLLLLLLIIUIUUUUWUUWUWUUUWUUUULd(((",
"((fHLLLLLLUUUUUUUUUUUWWWWUWWWUWUWUUWGk((",
"(UfUHLLLLUUUUUUWWUUWWWUWWWWWWWWUUUUWUf((",
"(HjLLLLLLULUUUUUWWWWWWWWWWWWWWWWWWWWWf((",
"(HhILLLULUUUPBvbbbbbvvvvvvvbzzvvNyWWWf((",
"(HjILLULUUUKmcliuipiplzzccczCmzbl:WWQf((",
"(HjLLLLIUUHbcxD!ZlzxxicvvvzcTDbz:=WWQf((",
"(HjLULUUUJbccnFZMMVBvxplpylcvvc1==WRQd((",
"(HjLLUUUSvvcpzcvvvzinnmbcZDxvp,===QQQf((",
"(HjULUIAvcyzVietrrycMBVvZYVvx:====QWQf((",
"(HjIIIAvccnE!DZCZZnvcvvcccvv2=====QW^f((",
"(HjUUNccccccclzcxxccccccccc3======QQQf((",
"(HjUU99999009000000000000q5-=====7QQQf((",
"(HjUU9989888988888889698895-====4RQQ^f((",
"(HjUU9999999999999999999805-===<R^QQ^f((",
"(HjUU9899999899898999999905-==-CQ^^Q^f((",
"(HjWU9999999999999899999995-=;B^^^QQ^f((",
"(HjUU8989998999998999999995-=v^^^Q^Q/f((",
"(HjUU88899998999999999999q5-e^/^^^^Q^f((",
"(HjWU8qqqqqqqqqqqqqqqqqqww6w~^/^^^^^^f((",
"(HjUUWWUWWQQQQQQ^^^^^///////^^/^^^^Q^f((",
"(HjWUUWWWWWWWQQQQ^^^^^^^/////^^^^QQ^^f((",
"(HjUIWUWWQWQQQQQ^Q^^^/////^/^/^^^^^^/f((",
"(HjWUUUWWWWQQQQQQ^^^^^^/^//^^^/^^^QQ^f((",
"(HjUUUWWWWWWWQQQQQ^^^^/^^/^//^^^^^QQ^f((",
"(HjUUUUUWOOOQI@O+^^.++d^aooL&+.+O^QQ^f((",
"(HjUUUWUULW%h*fQsdQ+^^^W#^G&^^+^^Q^Q^f((",
"(HjUIUUWWWW@L**Qs*Q.+aWja^^+^^+QQQQQ^f((",
"(UhUUUUUWW$sWI$O@*QH^aaj*^^+^Q+QQQQQWh((",
"((fUUIUUU$aWWQWQ@HUQQf*W#Qk&^QOQ^QQQHj((",
"((gGIUUUg.OOsWXOsQkX++UQaooLQQOQQQWQhL((",
"(((fLWUUUWWWWWWQWQQQQQQ^QQQQQ^QQQQ^Gh(((",
"(((IfjLLLIUIUUUWUWWWWWWWWWWWWQWWWLhg((((",
"(((((kggggghhhhhhhghhhhhhhhhhgghghH(((((",
"((((((((((((((((((((((((((((((((((((((((",
"(((((((((((((((((((((((((((((((((((((((("
};
