/* XPM */
static char * WirelessTablet_xpm[] = {
"40 40 489 2",
"  	c None",
". 	c #A0A0A0",
"+ 	c #9A9A9A",
"@ 	c #A6A6A6",
"# 	c #B0B0B0",
"$ 	c #AFAFAF",
"% 	c #B1B1B1",
"& 	c #B2B2B2",
"* 	c #B3B3B3",
"= 	c #B5B5B5",
"- 	c #B4B4B4",
"; 	c #B6B6B6",
"> 	c #A4A4A4",
", 	c #999999",
"' 	c #ADADAD",
") 	c #9D9D9D",
"! 	c #CACACA",
"~ 	c #DADADA",
"{ 	c #D7D7D7",
"] 	c #D6D6D6",
"^ 	c #D8D8D8",
"/ 	c #D9D9D9",
"( 	c #DBDBDB",
"_ 	c #DCDCDC",
": 	c #DDDDDD",
"< 	c #DFDFDF",
"[ 	c #E0E0E0",
"} 	c #E1E1E1",
"| 	c #E2E2E2",
"1 	c #959595",
"2 	c #9C9C9C",
"3 	c #D4D4D4",
"4 	c #D2D2D2",
"5 	c #D5D5D5",
"6 	c #DEDEDE",
"7 	c #969696",
"8 	c #D0D0D0",
"9 	c #D3D3D3",
"0 	c #D3D4D4",
"a 	c #82ADB8",
"b 	c #75B4C4",
"c 	c #74B1C0",
"d 	c #71B0BF",
"e 	c #78B4C2",
"f 	c #80BAC7",
"g 	c #72B0BF",
"h 	c #71B0C0",
"i 	c #72B0C0",
"j 	c #70B0BF",
"k 	c #70B1C0",
"l 	c #6FB0C0",
"m 	c #6FB1C0",
"n 	c #72B1C1",
"o 	c #70B0C0",
"p 	c #6FAFBF",
"q 	c #6DAFBF",
"r 	c #6EAFC0",
"s 	c #6BAABA",
"t 	c #55848F",
"u 	c #D2DADB",
"v 	c #D6DFE2",
"w 	c #B0C9CF",
"x 	c #A9BBC0",
"y 	c #74B9C9",
"z 	c #66ACBE",
"A 	c #73B6C6",
"B 	c #73B7C8",
"C 	c #87C0CF",
"D 	c #82BECD",
"E 	c #75B8C8",
"F 	c #7DBCCB",
"G 	c #7FBDCC",
"H 	c #80BDCC",
"I 	c #7BBBCA",
"J 	c #70B5C6",
"K 	c #71B6C6",
"L 	c #6FB5C6",
"M 	c #76B8C8",
"N 	c #7EBCCB",
"O 	c #80BECC",
"P 	c #7BBBCB",
"Q 	c #7EBECF",
"R 	c #61A2B2",
"S 	c #305E69",
"T 	c #CCD8DB",
"U 	c #8FB7C1",
"V 	c #8AB6C1",
"W 	c #82B1BC",
"X 	c #70B6C7",
"Y 	c #377D8F",
"Z 	c #5BA3B5",
"` 	c #78BACA",
" .	c #88C1CF",
"..	c #72B5C6",
"+.	c #62AEC0",
"@.	c #74B7C7",
"#.	c #75B8C7",
"$.	c #72B6C7",
"%.	c #72B6C6",
"&.	c #73B6C7",
"*.	c #6EB4C5",
"=.	c #5FABBD",
"-.	c #7EC1D1",
";.	c #36717F",
">.	c #8CA7AE",
",.	c #DDE0E1",
"'.	c #7EB3BF",
").	c #C2D7DC",
"!.	c #BAC8CB",
"~.	c #77B8C8",
"{.	c #5BA2B3",
"].	c #2F7282",
"^.	c #549DAF",
"/.	c #83C0CF",
"(.	c #86C0CE",
"_.	c #5FACBF",
":.	c #AED5DE",
"<.	c #A6D1DB",
"[.	c #A7D1DC",
"}.	c #A9D3DC",
"|.	c #A9D2DC",
"1.	c #A9D3DD",
"2.	c #A8D2DC",
"3.	c #B0D6E0",
"4.	c #80BDCB",
"5.	c #5CABBE",
"6.	c #70B1C1",
"7.	c #265864",
"8.	c #CED8DB",
"9.	c #DADFE1",
"0.	c #91BAC5",
"a.	c #DFE6E7",
"b.	c #92BCC7",
"c.	c #72B8C9",
"d.	c #428A9B",
"e.	c #317484",
"f.	c #5AA3B5",
"g.	c #8EC6D3",
"h.	c #77B9C8",
"i.	c #58A9BC",
"j.	c #96C8D5",
"k.	c #B1D7E0",
"l.	c #AAD3DD",
"m.	c #ABD4DD",
"n.	c #60ABBD",
"o.	c #72B9CB",
"p.	c #488593",
"q.	c #648790",
"r.	c #E3E4E4",
"s.	c #BAD1D7",
"t.	c #AEC9CF",
"u.	c #E8E9E9",
"v.	c #C8D2D4",
"w.	c #75B5C4",
"x.	c #64ABBC",
"y.	c #357989",
"z.	c #357A8A",
"A.	c #6EB2C2",
"B.	c #8DC5D2",
"C.	c #66B0C2",
"D.	c #67B0C2",
"E.	c #ACD4DE",
"F.	c #AED5DF",
"G.	c #8CC3D1",
"H.	c #58A6BA",
"I.	c #75B8C9",
"J.	c #245966",
"K.	c #B5C8CD",
"L.	c #E5E5E5",
"M.	c #A2C5CE",
"N.	c #C5D7DC",
"O.	c #EAEAEA",
"P.	c #A2C4CC",
"Q.	c #72B7C9",
"R.	c #4C93A5",
"S.	c #317181",
"T.	c #408799",
"U.	c #86C1D0",
"V.	c #87C0CE",
"W.	c #B1D6DF",
"X.	c #A7D2DC",
"Y.	c #6DB1C2",
"Z.	c #6AB3C5",
"`.	c #5B98A8",
" +	c #426D78",
".+	c #E0E5E6",
"++	c #E7E7E7",
"@+	c #9ABEC7",
"#+	c #CFDCDF",
"$+	c #ECECEC",
"%+	c #D3D7D7",
"&+	c #7FB8C5",
"*+	c #6CB2C3",
"=+	c #3A7F90",
"-+	c #599EAF",
";+	c #8EC7D4",
">+	c #5BAABD",
",+	c #A4D0DA",
"'+	c #ACD4DD",
")+	c #ABD4DE",
"!+	c #A0CDD8",
"~+	c #5BA6B9",
"{+	c #76BBCB",
"]+	c #306976",
"^+	c #97B3B9",
"/+	c #E9E9E9",
"(+	c #DFE4E5",
"_+	c #8EB9C3",
":+	c #E2E5E6",
"<+	c #EDEDED",
"[+	c #B5CACF",
"}+	c #559DAF",
"|+	c #327282",
"1+	c #377C8D",
"2+	c #7AB9C9",
"3+	c #85C1CF",
"4+	c #5EACBF",
"5+	c #75B7C7",
"6+	c #B0D6DF",
"7+	c #80BBC9",
"8+	c #62ACBE",
"9+	c #65A9B9",
"0+	c #30606C",
"a+	c #D5E0E2",
"b+	c #D4E0E3",
"c+	c #97C1CB",
"d+	c #E7E8E8",
"e+	c #EEEEEE",
"f+	c #D8D9D9",
"g+	c #89BAC6",
"h+	c #6CB3C4",
"i+	c #3D8294",
"j+	c #2F6F7F",
"k+	c #8CC5D3",
"l+	c #99CAD6",
"m+	c #AAD3DC",
"n+	c #ABD3DD",
"o+	c #62AABC",
"p+	c #71B9CA",
"q+	c #3F7B8A",
"r+	c #799BA4",
"s+	c #EBECEC",
"t+	c #BAD2D8",
"u+	c #B5CED4",
"v+	c #EFEFEF",
"w+	c #C5D2D5",
"x+	c #6BB1C2",
"y+	c #5DA3B4",
"z+	c #2E6D7C",
"A+	c #418799",
"B+	c #79BBCB",
"C+	c #63ADC0",
"D+	c #69B0C2",
"E+	c #8FC3D0",
"F+	c #5DA8BB",
"G+	c #2F606D",
"H+	c #C6D8DC",
"I+	c #AECED5",
"J+	c #CBDCE0",
"K+	c #F0F0F0",
"L+	c #9DC0C9",
"M+	c #68AEBF",
"N+	c #3E8090",
"O+	c #387C8C",
"P+	c #88C2D0",
"Q+	c #58A8BB",
"R+	c #B2D7E0",
"S+	c #6CAFC0",
"T+	c #6BB5C7",
"U+	c #4F8E9D",
"V+	c #5E8791",
"W+	c #ECEEEF",
"X+	c #EBECED",
"Y+	c #A0C3CC",
"Z+	c #DFE7E8",
"`+	c #F1F1F1",
" @	c #D8DCDD",
".@	c #6DAAB8",
"+@	c #5FA6B6",
"@@	c #398193",
"#@	c #65AEBF",
"$@	c #6AB2C3",
"%@	c #65AFC1",
"&@	c #B3D7E1",
"*@	c #B1D6E0",
"=@	c #B7DAE2",
"-@	c #A2CED9",
";@	c #5AA8BB",
">@	c #73B9CA",
",@	c #306875",
"'@	c #AEC5CB",
")@	c #F2F2F2",
"!@	c #E4EAEB",
"~@	c #93BBC5",
"{@	c #E9EBEC",
"]@	c #EBEBEB",
"^@	c #B8CCD1",
"/@	c #62A6B7",
"(@	c #67B0C1",
"_@	c #6BB2C3",
":@	c #71B6C7",
"<@	c #7CBBCA",
"[@	c #81BECC",
"}@	c #5DAABE",
"|@	c #66AFC1",
"1@	c #90C6D3",
"2@	c #89C2D0",
"3@	c #8AC2D0",
"4@	c #91C6D3",
"5@	c #6DB2C3",
"6@	c #65B0C2",
"7@	c #64A7B7",
"8@	c #416E79",
"9@	c #E7ECEE",
"0@	c #F3F3F3",
"a@	c #E4EBED",
"b@	c #BBD6DC",
"c@	c #EDEEEE",
"d@	c #85B3BF",
"e@	c #80BDCD",
"f@	c #7CBFCF",
"g@	c #7EBFCE",
"h@	c #79BCCC",
"i@	c #94CAD7",
"j@	c #80C0CF",
"k@	c #77BBCC",
"l@	c #71B8C9",
"m@	c #6EB7C8",
"n@	c #6DB6C7",
"o@	c #6AB5C7",
"p@	c #6CB6C8",
"q@	c #80C3D4",
"r@	c #467E8B",
"s@	c #8FAFB7",
"t@	c #F4F4F4",
"u@	c #F0F1F1",
"v@	c #EEEFF0",
"w@	c #9E9E9E",
"x@	c #6394A0",
"y@	c #5197A9",
"z@	c #4D93A4",
"A@	c #4C92A3",
"B@	c #5196A7",
"C@	c #5B9DAD",
"D@	c #4D92A4",
"E@	c #4F94A6",
"F@	c #5399AA",
"G@	c #5298A9",
"H@	c #5398A9",
"I@	c #4F96A8",
"J@	c #4E96A8",
"K@	c #4F97A9",
"L@	c #5099AA",
"M@	c #4F96A7",
"N@	c #386976",
"O@	c #D4E1E5",
"P@	c #F5F5F5",
"Q@	c #9AABB0",
"R@	c #75939A",
"S@	c #79969D",
"T@	c #7B969D",
"U@	c #7B989F",
"V@	c #7C99A1",
"W@	c #7C989F",
"X@	c #7E9AA1",
"Y@	c #809DA4",
"Z@	c #829EA5",
"`@	c #839FA6",
" #	c #83A0A7",
".#	c #84A0A7",
"+#	c #85A1A8",
"@#	c #85A2A9",
"##	c #87A3AA",
"$#	c #88A4AB",
"%#	c #88A5AC",
"&#	c #89A5AC",
"*#	c #8BA7AE",
"=#	c #8EA9B0",
"-#	c #8FABB2",
";#	c #9DB2B8",
">#	c #F4F6F7",
",#	c #F7F7F7",
"'#	c #F6F6F6",
")#	c #E3E3E3",
"!#	c #E4E4E4",
"~#	c #E6E6E6",
"{#	c #E8E8E8",
"]#	c #C6C6C6",
"^#	c #FBFBFB",
"/#	c #FCFCFC",
"(#	c #FAFAFA",
"_#	c #F8F8F8",
":#	c #C1C1C1",
"<#	c #494949",
"[#	c #000000",
"}#	c #5C5C5C",
"|#	c #C8C8C8",
"1#	c #6D6D6D",
"2#	c #424242",
"3#	c #FEFEFE",
"4#	c #FDFDFD",
"5#	c #2C2C2C",
"6#	c #3C3C3C",
"7#	c #979797",
"8#	c #2E2E2E",
"9#	c #8C8C8C",
"0#	c #8E8E8E",
"a#	c #BFBFBF",
"b#	c #808080",
"c#	c #919191",
"d#	c #828282",
"e#	c #434343",
"f#	c #888888",
"g#	c #878787",
"h#	c #848484",
"i#	c #8F8F8F",
"j#	c #676767",
"k#	c #777777",
"l#	c #6A6A6A",
"m#	c #B7B7B7",
"n#	c #3E3E3E",
"o#	c #3F3F3F",
"p#	c #7F7F7F",
"q#	c #818181",
"r#	c #A3A3A3",
"s#	c #525252",
"t#	c #656565",
"u#	c #A9A9A9",
"v#	c #868686",
"w#	c #858585",
"x#	c #C3C3C3",
"y#	c #505050",
"z#	c #939393",
"A#	c #767676",
"B#	c #5A5A5A",
"C#	c #4C4C4C",
"D#	c #7A7A7A",
"E#	c #404040",
"F#	c #414141",
"G#	c #101010",
"H#	c #111111",
"I#	c #323232",
"J#	c #737373",
"K#	c #303030",
"L#	c #606060",
"M#	c #CDCDCD",
"N#	c #4A4A4A",
"O#	c #595959",
"P#	c #5B5B5B",
"Q#	c #3D3D3D",
"R#	c #F9F9F9",
"S#	c #202020",
"T#	c #4F4F4F",
"U#	c #C0C0C0",
"V#	c #949494",
"W#	c #313131",
"X#	c #727272",
"Y#	c #C2C2C2",
"Z#	c #696969",
"`#	c #0F0F0F",
" $	c #717171",
".$	c #7C7C7C",
"+$	c #ACACAC",
"@$	c #7E7E7E",
"#$	c #929292",
"$$	c #A7A7A7",
"%$	c #8B8B8B",
"&$	c #AAAAAA",
"*$	c #4E4E4E",
"=$	c #BCBCBC",
"-$	c #6F6F6F",
";$	c #A1A1A1",
">$	c #515151",
",$	c #CECECE",
"'$	c #A8A8A8",
")$	c #989898",
"!$	c #1F1F1F",
"~$	c #7D7D7D",
"{$	c #6B6B6B",
"]$	c #ABABAB",
"^$	c #5F5F5F",
"/$	c #CFCFCF",
"($	c #4D4D4D",
"_$	c #2F2F2F",
":$	c #BEBEBE",
"<$	c #9B9B9B",
"[$	c #AEAEAE",
"}$	c #A2A2A2",
"|$	c #A5A5A5",
"                                                                                ",
"                                                                                ",
"          . + @ # $ $ % & & * * * * * = = = = = = = - = - = ; & > , '           ",
"      % ) ! ~ { ] ^ ^ / ~ ( _ : _ < < [ [ } [ } } } } } [ } } [ | <   1         ",
"      2 ] 3 4 3 3 5 ] { ^ / ~ ( ( _ : : _ 6 6 < < < < < 6 6 6 : : : < 5 7       ",
"    , 8 3 4 9 5 0 a b c d e f d g h h i j k l l m n c o o p q r s t u v w       ",
"    . / 4 9 3 5 x y z A B C D E F G G H I J K K L M N N N O P Q R S T U V .     ",
"    $ 5 9 5 5 { W X Y Z `  ...+.@.E #.#.@.$.$.$.%.&.@.@.M *.=.-.;.>.,.'.).,     ",
"    $ ] 3 5 ] !.~.{.].^./.(._.K :.<.<.<.[.}.|.|.1.2.2.2.3.4.5.6.7.8.9.0.a.+     ",
"    # ^ 5 { { b.c.d.e.f.g.h.i.j.k.l.l.l.l.}.}.}.}.}.}.m.|.n.o.p.q.r.s.t.u.,     ",
"    $ ^ 5 { v.w.x.y.z.A.B.C.D.E.}.2.2.2.2.2.2.2.2.2.2.F.G.H.I.J.K.L.M.N.O.+     ",
"    # / { / P.Q.R.S.T.U.H i.V.W.X.2.2.2.2.2.2.2.2.2.|.:.Y.Z.`. +.+++@+#+$+2     ",
"    % / { %+&+*+=+S.-+;+*.>+,+'+2.2.2.2.2.2.2.2.2.2.)+!+~+{+]+^+/+(+_+:+<++     ",
"    & ~ ^ [+&.}+|+1+2+3+4+5+6+2.2.2.2.2.2.2.2.2.2.2.6+7+8+9+0+a+O.b+c+d+e+2     ",
"    & ( f+g+h+i+j+^.k+@.i.l+F.X.2.2.2.2.2.2.2.2.2.m+n+o+p+q+r+s+$+t+u+++v+2     ",
"    * _ w+x+y+z+A+B+ .C+D+6+1.2.2.2.2.2.2.2.2.2.X.6+E+F+x+G+H+<+<+I+J+O.K+2     ",
"    * _ L+M+N+O+D.P+I Q+G.k.X.2.2.2.2.2.2.2.2.2.[.R+S+T+U+V+W+v+X+Y+Z+O.`+)     ",
"    -  @.@+@@@#@B+ .$@%@R+&@*@*@*@*@*@*@*@*@*@*@=@-@;@>@,@'@)@K+!@~@{@]@)@)     ",
"    - ^@/@(@_@:@<@[@}@|@1@P+2@2@2@2@3@3@3@3@3@2@4@5@6@7@8@9@0@`+a@b@c@]@0@2     ",
"    * d@e@f@g@h@i@j@k@l@m@m@m@m@m@m@n@T+T+T+T+T+o@p@q@r@s@t@t@0@u@v@v+<+0@w@    ",
"    * x@y@z@A@B@C@D@E@F@G@H@G@G@G@G@H@I@J@J@J@I@K@L@M@N@O@P@P@0@0@K+v+<+t@)     ",
"    - Q@R@S@T@U@V@W@X@Y@Y@Z@`@ #.#+#@###$#%#&#*#=#-#=#;#>#,#'#P@t@`+`+v+P@w@    ",
"    * 6 _ 6 [ | )#!#~#{#/+]@$+v+v+`+)@P@P@,#]#^#^#/#^#^#(#_#'#t@t@`+K+v+P@w@    ",
"    * :#<#6 [ [#3 L.}#|#1#$+<+v+v+)@)@P@'#_#2#/#/#3#4#^#(#_#_#'#t@)@`+e+P@w@    ",
"    - < 5#6 > 6#7#!#8#{#9#]@0#a#b#)@c#d#5 _#e#^#$+f#g#]@(#1 h#- 0@% b#i#P@)     ",
"    - < j#& k#@ l#m#}#++n#$+o#p## q#q#r#s#_#2#/#t#u#v#v#w#h#- r#x#y## i#P@w@    ",
"    * < z#A#B#| C#D#, {#n#]@o#v+K+E#F#F#G#,#2#^#H#e#e#e#m#I#J#* !#K#L#i#'#w@    ",
"    * < M#N#O#} P#Q#{ {#n#]@o#e+e+y#4 t@L.'#2#_#I#R#R#{#++'#3 S#| `+< T#* w@    ",
"    * < ( 5#v#} f#8#~#++n#O.o#<+e+U#K#F#F#P@2#_#1 I#2#J#V#W#F#X#Y#K#E#T#!#)     ",
"    - : ( : < [ } !#L.~#++O.]@$+e+8 } `+)@t@3 ~#,#'#'#'#'#t@0@`+K+K+v+<+0@w@    ",
"    * : ( : 6 [ Z#Q#`#Q#n#{#/+]@<+p#$ `+`+t@d#* t@P@t@P@t@ $)@`+`+e+e+]@0@2     ",
"    & ( ~ _ : < } )#Q#L.++.$.$+$$+@$i#p#% `+q#% )@#$q#9 4 S#b#$ v+e+<+]@)@)     ",
"    $$6 ~ _ : < [ | 6#L.~#%$&$*$=$@$-$$ E#} b#% q#q#;$>$| K#$ ,$<+<+$+$+!#'$    ",
"    )$6 ~ ( _ 6 < } 6#!#L.}#n#!$+$~$' $+p#$ p## E#E#E#G#v+E#e+$+<+O.]@e+M#      ",
"    >   : ( _ 6 < [ 6#| @ {$~#.$]$.$+$$+^$,$@$$ T#/$e+< <+o#<+]@$+O./+$+u#      ",
"      + 8 6 : 6 < } 6#| 5 Q#($_$]$~$n#_$-$<+@$$ :$K#o#E#<+p#_$@$$+$+e+  $$      ",
"        <$- 8 { { / ~ ( _ 6 < [ < | | )#!#L.L.L.L.L.L.L.L.L.!#)#)#{ [$}$        ",
"            @ > |$@ @ $$@ $$'$'$'$'$'$'$$$'$'$u#u#u#u#'$u#'$$$'$$$]$            ",
"                                                                                ",
"                                                                                "};
