/* XPM */
static char *Switch25x25[] = {
/* columns rows colors chars-per-pixel */
"25 25 95 2",
"   c #006882",
".  c #006983",
"X  c #006A84",
"o  c #006C86",
"O  c #006D86",
"+  c #006D87",
"@  c #00758E",
"#  c #00758F",
"$  c #007791",
"%  c #007C95",
"&  c #007D96",
"*  c #138098",
"=  c #168199",
"-  c #1B829B",
";  c #1D8199",
":  c #4F97AD",
">  c #5097AE",
",  c #5197AE",
"<  c #5198AE",
"1  c #5298AE",
"2  c #5298AF",
"3  c #5499AF",
"4  c #559AAF",
"5  c #549AB0",
"6  c #589BB0",
"7  c #599CB1",
"8  c #5B9DB2",
"9  c #5B9DB3",
"0  c #5C9DB2",
"q  c #5C9DB3",
"w  c #5C9EB3",
"e  c #5D9EB4",
"r  c #5F9FB4",
"t  c #5FA0B5",
"y  c #61A0B5",
"u  c #62A1B5",
"i  c #70A9BD",
"p  c #71AABD",
"a  c #72AABD",
"s  c #7FB2C4",
"d  c #80B2C4",
"f  c #81B2C4",
"g  c #81B3C4",
"h  c #84B4C4",
"j  c #84B4C5",
"k  c #84B5C6",
"l  c #85B5C6",
"z  c #86B6C6",
"x  c #86B6C7",
"c  c #87B6C7",
"v  c #87B7C7",
"b  c #88B7C7",
"n  c #89B7C7",
"m  c #88B7C8",
"M  c #89B7C8",
"N  c #89B8C8",
"B  c #8AB8C8",
"V  c #8AB8C9",
"C  c #8BB8C9",
"Z  c #8BB9C9",
"A  c #8CB9C9",
"S  c #8DB9C9",
"D  c #8CB9CA",
"F  c #8CBACA",
"G  c #8DBACA",
"H  c #8EBACA",
"J  c #8FBBCA",
"K  c #8FBBCB",
"L  c #90BBCB",
"P  c #90BCCB",
"I  c #91BCCB",
"U  c #91BCCC",
"Y  c #91BDCC",
"T  c #92BCCC",
"R  c #92BDCC",
"E  c #94BECD",
"W  c #95BFCE",
"Q  c #96BFCE",
"!  c #98C0CF",
"~  c #9AC1CF",
"^  c #99C1D0",
"/  c #9AC1D0",
"(  c #9BC3D1",
")  c #9CC3D1",
"_  c #9DC3D1",
"`  c #9EC4D2",
"'  c #A5C8D4",
"]  c #A5C9D6",
"[  c #ABCCD8",
"{  c #AFCEDA",
"}  c #B1D0DB",
"|  c #B3D1DC",
" . c #C8DDE5",
".. c gray100",
"X. c None",
/* pixels */
"X.X.X.X.X.X.X.X.X.X.X.X.X.X.X.X.X.X.X.X.X.X.X.X.X.",
"X.X.X.X.X.X.X.X.X.X.X.X.X.X.X.X.X.X.X.X.X.X.X.X.X.",
"X.X.X.X.X.X.X.X.X.X.X.X.X.X.X.X.X.X.X.X.X.X.X.X.X.",
"X.X.X.X.X.X.X.X.X.X.X.X.X.X.X.X.X.X.X.X.X.X.X.X.X.",
"X.X.X.X.X.X.X.X.X.X.X.X.X.X.X.X.X.X.X.X.X.X.X.X.X.",
"X.X.X.X.X.X.X.X.X.X.X.X.X.X.X.X.X.X.X.X.X.X.X.X.X.",
"X.X.X.X.X.X.X.X.X.X.X.X.X.X.X.X.X.X.X.X.X.X.X.X.X.",
"X.X.X.X.X.X.P K K b b K K K b d K K d ) ~ R h & X.",
"X.X.X.X.X.K R K W  .[ l K n l K K h n | ] s $ X X.",
"X.X.X.X.K R l l R ~ K L l d h d l { K K p $ X o X.",
"X.X.! R R l ~ { b K K K K ) ( Q ! } ) p # X o o X.",
"X.w n n n l ~ ] b b l l m n n n n n p @ X o o o X.",
"X.3 w w w r 9 6 9 0 0 w 9 9 9 9 w t ; X o + o o X.",
"X.: > > : : : > : : > > : : : : : 2 * X o o o X.X.",
"X.: : : 3 : : 3 : : 3 3 3 3 : : : 6 = X o + X.X.X.",
"X.3 : 3 : 3 : 3 : 3 : 3 : : 3 : : 3 = o o X.X.X.X.",
"X.: 3 : 3 : 3 : 3 : : 3 : 3 3 3 : 3 = X o X.X.X.X.",
"X.3 : : : 3 : 3 : : 3 : 3 : : : 2 3 - X X.X.X.X.X.",
"X.X.X.X.X.X.X.X.X.X.X.X.X.X.X.X.X.X.X.X.X.X.X.X.X.",
"X.X.X.X.X.X.X.X.X.X.X.X.X.X.X.X.X.X.X.X.X.X.X.X.X.",
"X.X.X.X.X.X.X.X.X.X.X.X.X.X.X.X.X.X.X.X.X.X.X.X.X.",
"X.X.X.X.X.X.X.X.X.X.X.X.X.X.X.X.X.X.X.X.X.X.X.X.X.",
"X.X.X.X.X.X.X.X.X.X.X.X.X.X.X.X.X.X.X.X.X.X.X.X.X.",
"X.X.X.X.X.X.X.X.X.X.X.X.X.X.X.X.X.X.X.X.X.X.X.X.X.",
"X.X.X.X.X.X.X.X.X.X.X.X.X.X.X.X.X.X.X.X.X.X.X.X.X."
};
