/* XPM */
static char * wireless25x25_xpm[] = {
"25 25 152 2",
"  	c None",
". 	c #91BCCA",
"+ 	c #91BBCA",
"@ 	c #90BBCA",
"# 	c #94BECC",
"$ 	c #8FBAC9",
"% 	c #91BCCB",
"& 	c #92BCCB",
"* 	c #95BECC",
"= 	c #89B7C6",
"- 	c #5795AA",
"; 	c #1F708A",
"> 	c #74ACBD",
", 	c #72AABC",
"' 	c #71AABC",
") 	c #77ADBE",
"! 	c #78ACBE",
"~ 	c #448A9F",
"{ 	c #166B86",
"] 	c #136984",
"^ 	c #5198AD",
"/ 	c #4F97AC",
"( 	c #5097AD",
"_ 	c #4790A6",
": 	c #21738C",
"< 	c #136983",
"[ 	c #176C86",
"} 	c #5499AE",
"| 	c #297A92",
"1 	c #5097AC",
"2 	c #4E96AC",
"3 	c #549AAF",
"4 	c #2A7A93",
"5 	c #4D95AB",
"6 	c #68A5B7",
"7 	c #63A3B5",
"8 	c #4D96AB",
"9 	c #5098AD",
"0 	c #5197AC",
"a 	c #599DB1",
"b 	c #6BA7B9",
"c 	c #5199AD",
"d 	c #4D96AC",
"e 	c #5FA0B4",
"f 	c #C0D9E1",
"g 	c #92BECB",
"h 	c #4893A9",
"i 	c #7AB0C0",
"j 	c #7FB3C3",
"k 	c #5399AE",
"l 	c #4C95AB",
"m 	c #74ADBE",
"n 	c #8ABAC8",
"o 	c #589DB0",
"p 	c #4E96AB",
"q 	c #9AC3CF",
"r 	c #BDD8E0",
"s 	c #5299AE",
"t 	c #4993A9",
"u 	c #ECF4F6",
"v 	c #99C3CE",
"w 	c #CBE1E6",
"x 	c #D3E5EA",
"y 	c #549AAE",
"z 	c #4390A7",
"A 	c #F0F6F7",
"B 	c #78AFBF",
"C 	c #4692A8",
"D 	c #AACDD6",
"E 	c #E6F0F3",
"F 	c #4792A8",
"G 	c #8CBBC9",
"H 	c #E0EDF0",
"I 	c #7AB1C0",
"J 	c #5A9DB1",
"K 	c #E7F1F3",
"L 	c #ACCED7",
"M 	c #5FA0B3",
"N 	c #75ADBE",
"O 	c #EBF3F5",
"P 	c #9BC3D0",
"Q 	c #4691A8",
"R 	c #79B0C0",
"S 	c #77AEBE",
"T 	c #A3C8D3",
"U 	c #E2EDF1",
"V 	c #66A5B7",
"W 	c #6FA9BB",
"X 	c #E7F0F3",
"Y 	c #7FB2C2",
"Z 	c #6CA8BA",
"` 	c #D8E8EC",
" .	c #87B8C7",
"..	c #569BAF",
"+.	c #D4E5EA",
"@.	c #B0CFD9",
"#.	c #4B94AA",
"$.	c #62A2B5",
"%.	c #EDF4F7",
"&.	c #97C0CD",
"*.	c #4490A7",
"=.	c #9FC6D2",
"-.	c #DDEAEF",
";.	c #67A5B7",
">.	c #68A5B8",
",.	c #8AB9C8",
"'.	c #63A2B5",
").	c #ABCDD7",
"!.	c #76ADBE",
"~.	c #5B9DB1",
"{.	c #A7CAD5",
"].	c #60A1B5",
"^.	c #EBF3F6",
"/.	c #8DBCC9",
"(.	c #DEEBEF",
"_.	c #E4EFF2",
":.	c #C3DBE2",
"<.	c #5298AD",
"[.	c #84B7C5",
"}.	c #F3F7F9",
"|.	c #86B8C6",
"1.	c #3F8EA4",
"2.	c #73ACBD",
"3.	c #9DC4D0",
"4.	c #4993AA",
"5.	c #B2D1DA",
"6.	c #BDD7DF",
"7.	c #4792A9",
"8.	c #90BDCA",
"9.	c #D0E3E8",
"0.	c #6DA8BA",
"a.	c #4994A9",
"b.	c #ACCED8",
"c.	c #E3EEF2",
"d.	c #5FA1B4",
"e.	c #5D9EB3",
"f.	c #C7DEE5",
"g.	c #A0C7D2",
"h.	c #4A94AA",
"i.	c #61A2B4",
"j.	c #5E9FB3",
"k.	c #6AA7B8",
"l.	c #559AAF",
"m.	c #A4C9D4",
"n.	c #C5DCE3",
"o.	c #4F97AD",
"p.	c #6FAABB",
"q.	c #64A3B6",
"r.	c #4E97AC",
"s.	c #287891",
"t.	c #5299AD",
"u.	c #4E95AB",
"                                                  ",
"                                                  ",
"                                                  ",
"        . . . . . . . . . . . . . . . . + @ # $   ",
"    % @ @ @ @ @ @ @ @ @ @ @ @ @ @ @ @ @ & * = - ; ",
"  > , , , , , , , , , , , , , , , , , ' ) ! ~ { ] ",
"^ / / / / / / / / / / / / / / / / / / / ( _ : < [ ",
"^ ^ ^ ^ ^ ^ ^ ^ ^ ^ ^ ^ ^ ^ ^ ^ ^ ^ ^ ^ ^ } | < [ ",
"^ ^ ^ ^ / / ^ ^ ^ ^ ^ ^ ^ ^ ^ ^ 1 2 ^ ^ ^ 3 4 < [ ",
"^ ^ ^ 5 6 7 2 2 2 ^ ^ ^ / 8 9 0 a b c 9 ^ 3 4 < [ ",
"^ ^ d e f g h i j k 1 l m n o p q r s / ^ 3 4 < [ ",
"^ ^ t i u v h w x y t z q A B C D E e / ^ 3 4 < [ ",
"^ ^ F G H I J K L y M ^ N O P Q R E S 2 ^ 3 4 < [ ",
"^ ^ z T U V W X Y Z `  ...+.@.#.$.%.&.8 ^ 3 4 < [ ",
"^ ^ *.=.-.;.>.E ,.'.).!.~.` {.F ].^.g 8 ^ 3 4 < [ ",
"^ ^ F /.(.N 5 _.:.<.#.F [.}.|.1.2.E B p ^ 3 4 < [ ",
"^ ^ t R O 3.4.5.6.3 2 7.8.9.0.a.b.c.d.2 ^ 3 4 < [ ",
"^ ^ 8 e.f.g.h.i.>.<.^ / j.k.l.1 m.n.9 1 ^ 3 4 < [ ",
"^ ^ ^ o.p.q.5 8 l ^ ^ ^ r.l ( ^ e p.^ ^ ^ 3 4 < [ ",
"^ ^ ^ ^ h.5 <.^ ^ ^ ^ ^ ^ ^ ^ ^ 8 h.^ ^ ^ 3 4 <   ",
"^ ^ ^ ^ ^ ^ ^ ^ ^ ^ ^ ^ ^ ^ ^ ^ ^ ^ ^ ^ <.9 s.    ",
"  ^ ^ ^ ^ ^ ^ ^ ^ ^ ^ ^ ^ ^ ^ ^ ^ ^ ^ ^ t.u.      ",
"                                                  ",
"                                                  ",
"                                                  "};
