/* XPM */
static char * building_xpm[] = {
"17 20 39 1",
" 	c None",
".	c #91B7BB",
"+	c #90B5BA",
"@	c #90B6BA",
"#	c #639197",
"$	c #235C65",
"%	c #73A0A6",
"&	c #4D8087",
"*	c #19555E",
"=	c #18545D",
"-	c #568B93",
";	c #28626B",
">	c #18545E",
",	c #8FB2B6",
"'	c #729BA1",
")	c #8BAFB3",
"!	c #56858C",
"~	c #85ACB2",
"{	c #3E767E",
"]	c #619198",
"^	c #588991",
"/	c #5D8E95",
"(	c #4E828A",
"_	c #63949B",
":	c #205A64",
"<	c #B2CDD0",
"[	c #659197",
"}	c #9BBCC0",
"|	c #28626A",
"1	c #7EA6AB",
"2	c #89B0B5",
"3	c #2E6870",
"4	c #52838B",
"5	c #487C83",
"6	c #447980",
"7	c #78A1A7",
"8	c #659299",
"9	c #618F96",
"0	c #74A0A6",
"       .....     ",
"      +@@@@#$    ",
"     %%%%%&*=    ",
"    ------;*=    ",
"    >,')!~;*=    ",
"    {]^/(_;*=    ",
"    :<)<[};*=    ",
"    |}1112;*=    ",
"    34565^;*=    ",
"    :<)))};*=    ",
"    |78980;*=    ",
"    378980;*=    ",
"    :<)))};*=    ",
"    |78980;*=    ",
"    378980;*=    ",
"    :<)))};*=    ",
"    ------;*=    ",
"    ------;*     ",
"    ------;>     ",
"     -----|      "};
