/* XPM */
static char * rack_xpm[] = {
"17 20 24 1",
" 	c None",
".	c #1C4984",
"+	c #0E2C50",
"@	c #143E70",
"#	c #184681",
"$	c #5074A1",
"%	c #153A68",
"&	c #1C57A0",
"*	c #1C4A85",
"=	c #1C4A84",
"-	c #030912",
";	c #0E2A4D",
">	c #B2C2D4",
",	c #0E2542",
"'	c #1D57A0",
")	c #000000",
"!	c #956614",
"~	c #050F1A",
"{	c #112D50",
"]	c #173C6B",
"^	c #555140",
"/	c #6B5C38",
"(	c #FFFFFF",
"_	c #143662",
"                 ",
" .+@#########$%& ",
"*=-;#########>,' ",
"*=)          !,' ",
"*=)          !,' ",
"*=~{]]]]]]]]]^,' ",
"*=)          !,' ",
"*=)          !,' ",
"*=-;#########/,' ",
"*=-;#########/,' ",
"*=)          !,' ",
"*=)          !,' ",
"*=-;#########/,' ",
"*=-;#########/,' ",
"*=)          !,' ",
"*=)          !,' ",
"*=~{]]]]]]]]]^,' ",
"*=)          (,' ",
" .            _& ",
"                 "};
