/* XPM */
static char * city_xpm[] = {
"17 20 54 1",
" 	c None",
".	c #90B6B9",
"+	c #90B6BA",
"@	c #88AFB4",
"#	c #2F676F",
"$	c #64959D",
"%	c #699AA0",
"&	c #205B63",
"*	c #19555E",
"=	c #558B93",
"-	c #568B93",
";	c #276169",
">	c #80A9AD",
",	c #447881",
"'	c #3F7379",
")	c #729BA1",
"!	c #8FB2B6",
"~	c #528288",
"{	c #78A3A9",
"]	c #366D75",
"^	c #79A3A8",
"/	c #18545E",
"(	c #477B83",
"_	c #659299",
":	c #78A1A7",
"<	c #4E8087",
"[	c #6D9BA2",
"}	c #3B7179",
"|	c #588991",
"1	c #63949B",
"2	c #28626B",
"3	c #53848C",
"4	c #7EA6AB",
"5	c #9BBCC0",
"6	c #618F96",
"7	c #89B0B5",
"8	c #6F989E",
"9	c #85ACB2",
"0	c #3F737A",
"a	c #74A0A6",
"b	c #91B7BB",
"c	c #4A7D84",
"d	c #659197",
"e	c #8BAFB3",
"f	c #90B5BA",
"g	c #51838A",
"h	c #41757D",
"i	c #7CA5AA",
"j	c #356B73",
"k	c #709DA3",
"l	c #508288",
"m	c #B2CDD0",
"n	c #2C646C",
"o	c #29636C",
"      .+++++     ",
"     .++++@#     ",
"    $%%%%%&*     ",
"    =-----*;>+@, ",
"    ')!!~{]@+^;/ ",
"    (_::<[}|12*/ ",
"    34556{~472*/ ",
"    ')!)8{~)92*/ ",
"    (_:_6[~)92*/ ",
"    34544{0_a2*/ ",
"   bc)!)8{de52*/ ",
"  f+g_:_6[0_a2*/ ",
" h_ij4544{0k{2*/ ",
" (_ij)!)8{*--2*/ ",
" lemn_:_6[*--2*/ ",
" h_ij4544{*--2*/ ",
" (_i*-----*--2*/ ",
" lem*-----*--2*  ",
" =--*-----*--o   ",
"     -----/      "};
