/* XPM */
static const char * AddDevice_xpm[] = {
"32 32 3 1",
" 	c None",
".	c White",
"+	c Black",
"                                ",
"                                ",
"                                ",
"                                ",
"                                ",
"                                ",
"                                ",
"                                ",
"               ..               ",
"              .++.              ",
"              .++.              ",
"              .++.              ",
"              .++.              ",
"              .++.              ",
"         ......++......         ",
"        .++++++++++++++.        ",
"        .++++++++++++++.        ",
"         ......++......         ",
"              .++.              ",
"              .++.              ",
"              .++.              ",
"              .++.              ",
"              .++.              ",
"               ..               ",
"                                ",
"                                ",
"                                ",
"                                ",
"                                ",
"                                ",
"                                ",
"                                "};
