/* XPM */
static char * cDrawingcross_xpm[] = {
"32 32 2 1",
" 	c None",
".	c #000000",
"                                ",
"                                ",
"                                ",
"                                ",
"                                ",
"                                ",
"                                ",
"                                ",
"                  .             ",
"                  .             ",
"                  .             ",
"                  .             ",
"                  .             ",
"                  .             ",
"                  .             ",
"                  .             ",
"                  .             ",
"                                ",
"        .........   .........   ",
"                                ",
"                  .             ",
"                  .             ",
"                  .             ",
"                  .             ",
"                  .             ",
"                  .             ",
"                  .             ",
"                  .             ",
"                                ",
"                                ",
"                                ",
"                                "};
