/* XPM */
static char * cPencil_xpm[] = {
"31 28 33 1",
" 	c None",
".	c #FE8763",
"+	c #CD876C",
"@	c #FF8660",
"#	c #FFC23D",
"$	c #DDB84B",
"%	c #B67E76",
"&	c #FFC13F",
"*	c #FEC13F",
"=	c #FFC63A",
"-	c #E1B949",
";	c #FFC13E",
">	c #FEC23F",
",	c #FDC13F",
"'	c #FEC23E",
")	c #FFC23F",
"!	c #FFC23E",
"~	c #FEC13E",
"{	c #E4C175",
"]	c #FFC23B",
"^	c #FEC140",
"/	c #B9BFCC",
"(	c #FEC241",
"_	c #FFC235",
":	c #FDC141",
"<	c #C6C9CE",
"[	c #C7C0B1",
"}	c #E0C17E",
"|	c #656464",
"1	c #C7C9CD",
"2	c #B3BFD8",
"3	c #E5C174",
"4	c #020202",
"                          .    ",
"                         +@.   ",
"                        #$%@.  ",
"                       &*=-%@. ",
"                      ;*>,=$+  ",
"                     ')!~~*#   ",
"                    >~))!~)    ",
"                   )))))&'     ",
"                  *!);)))      ",
"                 *!))!)'       ",
"                {]^)!;)        ",
"                /(_:!!         ",
"                <[}_*          ",
"                |123           ",
"               4               ",
"                               ",
"                               ",
"                               ",
"                               ",
"                               ",
"                               ",
"                               ",
"                               ",
"                               ",
"                               ",
"                               ",
"                               ",
"                               "};
