/* XPM */
static char * clear_table_button_xpm[] = {
"23 23 256 2",
"  	c #0E0000",
". 	c #3E1F2D",
"+ 	c #1C384F",
"@ 	c #3E3D4E",
"# 	c #3C3972",
"$ 	c #194273",
"% 	c #5A0000",
"& 	c #670C14",
"* 	c #7A0000",
"= 	c #7E0C0B",
"- 	c #5D403F",
"; 	c #5F5F5C",
"> 	c #444665",
", 	c #4E4A63",
"' 	c #4F4F6B",
") 	c #504F72",
"! 	c #52516D",
"~ 	c #555370",
"{ 	c #585774",
"] 	c #5B5976",
"^ 	c #5A5C79",
"/ 	c #5D6C7A",
"( 	c #664546",
"_ 	c #6F6A7B",
": 	c #6F7173",
"< 	c #747277",
"[ 	c #104F87",
"} 	c #165185",
"| 	c #1D5384",
"1 	c #077085",
"2 	c #0C71DA",
"3 	c #236BC0",
"4 	c #2B6CC4",
"5 	c #2474D0",
"6 	c #2278D3",
"7 	c #666882",
"8 	c #696B85",
"9 	c #777788",
"0 	c #727C8E",
"a 	c #7A798A",
"b 	c #787E92",
"c 	c #3283DC",
"d 	c #3989D7",
"e 	c #3A89DD",
"f 	c #7D91A3",
"g 	c #5FC1F8",
"h 	c #7BF0FF",
"i 	c #8B0000",
"j 	c #930000",
"k 	c #9A0C0A",
"l 	c #951216",
"m 	c #8C2424",
"n 	c #892E2E",
"o 	c #8A3138",
"p 	c #B50505",
"q 	c #B52627",
"r 	c #B13232",
"s 	c #8C5E5E",
"t 	c #924F72",
"u 	c #807F7E",
"v 	c #92797C",
"w 	c #AE5355",
"x 	c #BC5F6D",
"y 	c #BB6060",
"z 	c #BE6672",
"A 	c #D30708",
"B 	c #D10809",
"C 	c #DD0E10",
"D 	c #D51F1A",
"E 	c #DB1715",
"F 	c #DE2116",
"G 	c #E41212",
"H 	c #E51E1E",
"I 	c #EB1C1C",
"J 	c #FD1F21",
"K 	c #E02C2C",
"L 	c #ED2323",
"M 	c #F32021",
"N 	c #F22825",
"O 	c #F02D2E",
"P 	c #FF2425",
"Q 	c #FF2729",
"R 	c #FD2D2D",
"S 	c #FC322E",
"T 	c #F53535",
"U 	c #FE3430",
"V 	c #FE3A38",
"W 	c #FF443C",
"X 	c #C3686A",
"Y 	c #CB6868",
"Z 	c #DF746E",
"` 	c #E54A42",
" .	c #E85A5A",
"..	c #FE4140",
"+.	c #FB564C",
"@.	c #FF6853",
"#.	c #E87A7A",
"$.	c #FF6962",
"%.	c #FB766C",
"&.	c #BE7383",
"*.	c #ED827D",
"=.	c #FF8775",
"-.	c #FF8977",
";.	c #828284",
">.	c #858496",
",.	c #8C8A9D",
"'.	c #899090",
").	c #9A97AA",
"!.	c #9C99AD",
"~.	c #ACB9BC",
"{.	c #B7A1AF",
"].	c #B4B3C2",
"^.	c #A8EFFF",
"/.	c #C2B0B2",
"(.	c #D7BCBC",
"_.	c #EEA5A4",
":.	c #CFC1C1",
"<.	c #C9C8C6",
"[.	c #C8CCCE",
"}.	c #D4C3C5",
"|.	c #D3CED1",
"1.	c #D0D3D7",
"2.	c #DEDADB",
"3.	c #DFDFE0",
"4.	c #DAE6E5",
"5.	c #DEE5EC",
"6.	c #D1FFFF",
"7.	c #E4DFE2",
"8.	c #E5E2E5",
"9.	c #E3E7EC",
"0.	c #E1E8EF",
"a.	c #E9E6E9",
"b.	c #ECECEE",
"c.	c #E5EAF1",
"d.	c #EAEEF3",
"e.	c #EDF1F5",
"f.	c #ECF2F9",
"g.	c #E9F9FD",
"h.	c #F4EDEE",
"i.	c #FCEBEF",
"j.	c #F9EEF2",
"k.	c #F3F3F4",
"l.	c #F3F6F9",
"m.	c #F6FAFD",
"n.	c #F8F4F6",
"o.	c #FEFEFE",
"p.	c #000000",
"q.	c #000000",
"r.	c #000000",
"s.	c #000000",
"t.	c #000000",
"u.	c #000000",
"v.	c #000000",
"w.	c #000000",
"x.	c #000000",
"y.	c #000000",
"z.	c #000000",
"A.	c #000000",
"B.	c #000000",
"C.	c #000000",
"D.	c #000000",
"E.	c #000000",
"F.	c #000000",
"G.	c #000000",
"H.	c #000000",
"I.	c #000000",
"J.	c #000000",
"K.	c #000000",
"L.	c #000000",
"M.	c #000000",
"N.	c #000000",
"O.	c #000000",
"P.	c #000000",
"Q.	c #000000",
"R.	c #000000",
"S.	c #000000",
"T.	c #000000",
"U.	c #000000",
"V.	c #000000",
"W.	c #000000",
"X.	c #000000",
"Y.	c #000000",
"Z.	c #000000",
"`.	c #000000",
" +	c #000000",
".+	c #000000",
"++	c #000000",
"@+	c #000000",
"#+	c #000000",
"$+	c #000000",
"%+	c #000000",
"&+	c #000000",
"*+	c #000000",
"=+	c #000000",
"-+	c #000000",
";+	c #000000",
">+	c #000000",
",+	c #000000",
"'+	c #000000",
")+	c #000000",
"!+	c #000000",
"~+	c #000000",
"{+	c #000000",
"]+	c #000000",
"^+	c #000000",
"/+	c #000000",
"(+	c #000000",
"_+	c #000000",
":+	c #000000",
"<+	c #000000",
"[+	c #000000",
"}+	c #000000",
"|+	c #000000",
"1+	c #000000",
"2+	c #000000",
"3+	c #000000",
"4+	c #000000",
"5+	c #000000",
"6+	c #000000",
"7+	c #000000",
"8+	c #000000",
"9+	c #000000",
"0+	c #000000",
"a+	c #000000",
"b+	c #000000",
"c+	c #000000",
"d+	c #000000",
"e+	c #000000",
"f+	c #000000",
"g+	c #000000",
"h+	c #000000",
"i+	c #000000",
"j+	c #000000",
"k+	c #000000",
"l+	c #000000",
"m+	c #000000",
"n+	c #000000",
"o+	c #000000",
"p+	c #000000",
"q+	c #000000",
"r+	c #000000",
"s+	c #000000",
"t+	c #000000",
"u+	c #000000",
"v+	c #000000",
"w+	c #000000",
"x+	c #000000",
"y+	c #000000",
"z+	c #000000",
"A+	c #000000",
"B+	c #000000",
"C+	c #000000",
"D+	c #000000",
"E+	c #000000",
"F+	c #000000",
"G+	c #000000",
"o.o.o.o.o.o.o.o.o.o.o.o.o.o.o.o.o.o.o.o.o.o.o.",
"o.o.o.o.o.o.o.o.o.o.o.o.o.o.o.o.o.o.o.o.o.o.o.",
"o.o.o.m.f.l.l.f.g.k. ._.m.e.m.#.y y o.o.o.o.o.",
"o.o.m.5 c 6 6 e 4 x =.E # 2 t =.C C Y o.o.o.o.",
"o.o.g.d ^.g g h &.@.+.W D z -.V R R i }.o.o.o.",
"o.o.m.4 | } } [ $ l S V R S ..P j j s o.o.o.o.",
"o.o.m.4 | } } [ $ l S V R S ..P j j s o.o.o.o.",
"o.o.k.;.o.8.8.h.m.[.r N R Q M k     ,.m.m.o.o.",
"o.o.k.< 8.a.a.3.2.4./.A R R D l + + 0 o.o.o.o.",
"o.m.b.: k.a.a.a.e.}.Z $.J R R R & & 0 o.n.o.o.",
"o.m.b.f o.a.a.k.i.*.%.R L I S O B B y o.o.o.o.",
"m.o.d.&.b.2.2.g.X W T I = n G O T T p (.o.o.m.",
"m.o.b.;.o.b.b.o.8.r C * - ~.w E K K * }.o.n.m.",
"n.m.b.u b.8.8.7.b.|.m ( '.1.9.o % % v o.n.m.m.",
"n.m.9.;.o.n.n.o.o.b.l.2.<.n.o., . . 9 o.d.l.l.",
"k.k.e.; @ ~ ~ { { ! { ^ ! ! ! > {.{.1 6.j.l.l.",
"e.e.e.m.;.< < ).,.).,.>.!.>.9 ]._ _ / o.c.d.d.",
"e.e.e.m.;.< < ).,.).,.>.!.>.9 ]._ _ / o.c.d.d.",
"e.e.d.m.1.: : 7 8 7 7 8 7 8 8 7 ^ ^ ].m.d.d.d.",
"c.b.c.c.f.m.m.o.o.o.o.o.o.o.o.o.o.o.l.0.d.d.c.",
"0.c.0.c.9.5.5.5.5.5.5.5.5.5.5.5.5.5.9.c.0.c.0.",
"0.0.0.0.0.0.0.0.0.0.0.0.0.0.0.0.0.0.0.0.0.0.0.",
"5.5.5.5.5.5.5.5.5.5.5.5.5.5.5.5.0.0.5.5.5.5.0."};
