/* XPM */
static char * find_xpm[] = {
"23 23 256 2",
"  	c #FDFCFD",
". 	c #F8F7F8",
"+ 	c #F2F1F2",
"@ 	c #C5C4C5",
"# 	c #FEFCFF",
"$ 	c #9C9B9D",
"% 	c #CCCBCD",
"& 	c #1C1A1F",
"* 	c #312F35",
"= 	c #828086",
"- 	c #868588",
"; 	c #A7A6A9",
"> 	c #FDFCFF",
", 	c #FCFBFF",
"' 	c #F0EFF3",
") 	c #EEEDF1",
"! 	c #ECEBEF",
"~ 	c #EAE9ED",
"{ 	c #E8E7EB",
"] 	c #E6E5E9",
"^ 	c #0C0A13",
"/ 	c #3C3A43",
"( 	c #2F2E33",
"_ 	c #706F74",
": 	c #67666B",
"< 	c #88878C",
"[ 	c #EFEEF3",
"} 	c #EAE9EE",
"| 	c #E4E3E8",
"1 	c #E2E1E6",
"2 	c #16151B",
"3 	c #6B6976",
"4 	c #49484E",
"5 	c #8D8C98",
"6 	c #AFAEBA",
"7 	c #9998A2",
"8 	c #010105",
"9 	c #07070A",
"0 	c #27272B",
"a 	c #82828D",
"b 	c #74747D",
"c 	c #9A9AA5",
"d 	c #A0A0AB",
"e 	c #39393D",
"f 	c #898992",
"g 	c #87878F",
"h 	c #84848C",
"i 	c #56565B",
"j 	c #C6C6D1",
"k 	c #B8B8C2",
"l 	c #A3A3AC",
"m 	c #7C7C83",
"n 	c #5A5A5F",
"o 	c #CACAD4",
"p 	c #BEBEC8",
"q 	c #606065",
"r 	c #505054",
"s 	c #CCCCD6",
"t 	c #C5C5CE",
"u 	c #9B9BA2",
"v 	c #93939A",
"w 	c #C4C4CC",
"x 	c #A6A6AD",
"y 	c #E7E7F0",
"z 	c #D6D6DE",
"A 	c #BCBCC3",
"B 	c #BABAC1",
"C 	c #D3D3DA",
"D 	c #D0D0D7",
"E 	c #CFCFD6",
"F 	c #CECED5",
"G 	c #CDCDD4",
"H 	c #ACACB2",
"I 	c #EDEDF4",
"J 	c #ECECF3",
"K 	c #EAEAF1",
"L 	c #E8E8EF",
"M 	c #E1E1E8",
"N 	c #E0E0E7",
"O 	c #DCDCE3",
"P 	c #DADAE1",
"Q 	c #CCCCD2",
"R 	c #CBCBD1",
"S 	c #F8F8FE",
"T 	c #DFDFE5",
"U 	c #D9D9DF",
"V 	c #77777A",
"W 	c #939396",
"X 	c #FAFAFC",
"Y 	c #F3F3F5",
"Z 	c #ECECEE",
"` 	c #E8E8EA",
" .	c #E3E3E5",
"..	c #D7D7D9",
"+.	c #E0E0E1",
"@.	c #DFDFE0",
"#.	c #B4B4B5",
"$.	c #9495A1",
"%.	c #767780",
"&.	c #8A8B94",
"*.	c #A7A8B2",
"=.	c #A6A7B1",
"-.	c #D2D3DD",
";.	c #7F8088",
">.	c #B2B3BA",
",.	c #B5B6BD",
"'.	c #DFE0E8",
").	c #D4D5DC",
"!.	c #7D7F8B",
"~.	c #787A85",
"{.	c #82848F",
"].	c #A7A8AE",
"^.	c #D2D3D9",
"/.	c #C3C4CA",
"(.	c #C2C3C9",
"_.	c #EBECF2",
":.	c #E4E5EB",
"<.	c #DFE0E6",
"[.	c #B9BABF",
"}.	c #BBBCC1",
"|.	c #F4F5FA",
"1.	c #E6E7EC",
"2.	c #D9DADF",
"3.	c #D0D1D5",
"4.	c #CFD0D4",
"5.	c #CECFD3",
"6.	c #CDCED2",
"7.	c #CCCDD1",
"8.	c #CBCCD0",
"9.	c #C9CACE",
"0.	c #C7C8CC",
"a.	c #EDEEF2",
"b.	c #ECEDF1",
"c.	c #EBECF0",
"d.	c #E7E8EC",
"e.	c #E6E7EB",
"f.	c #E5E6EA",
"g.	c #E4E5E9",
"h.	c #E3E4E8",
"i.	c #E2E3E7",
"j.	c #E1E2E6",
"k.	c #E0E1E5",
"l.	c #DFE0E4",
"m.	c #DEDFE3",
"n.	c #DDDEE2",
"o.	c #DCDDE1",
"p.	c #DADBDF",
"q.	c #D4D5D9",
"r.	c #D3D4D8",
"s.	c #AEB0B7",
"t.	c #868991",
"u.	c #979AA2",
"v.	c #A3A6AE",
"w.	c #BCBFC7",
"x.	c #B9BCC4",
"y.	c #CDD0D8",
"z.	c #CACDD5",
"A.	c #E3E6EE",
"B.	c #C6C7CA",
"C.	c #EDEEF1",
"D.	c #EBECEF",
"E.	c #EAEBEE",
"F.	c #E9EAED",
"G.	c #E8E9EC",
"H.	c #E3E4E7",
"I.	c #D8D9DC",
"J.	c #D1D2D5",
"K.	c #CFD0D3",
"L.	c #BFC1C6",
"M.	c #DADCE1",
"N.	c #C6C9D0",
"O.	c #9EA2AA",
"P.	c #DDE0E6",
"Q.	c #E7EAF0",
"R.	c #BDBFC3",
"S.	c #A9AAAC",
"T.	c #F8F9FB",
"U.	c #E6E7E9",
"V.	c #E5E6E8",
"W.	c #DFE0E2",
"X.	c #DBDCDE",
"Y.	c #D5D6D8",
"Z.	c #D4D5D7",
"`.	c #CECFD1",
" +	c #CDCED0",
".+	c #A0A4AB",
"++	c #B6BAC1",
"@+	c #DDE0E5",
"#+	c #D8DADD",
"$+	c #D1D3D6",
"%+	c #000102",
"&+	c #D2D4D6",
"*+	c #FBFCFD",
"=+	c #EBECED",
"-+	c #E4E5E6",
";+	c #E0E1E2",
">+	c #D7D8D9",
",+	c #D2D3D4",
"'+	c #D1D2D3",
")+	c #D0D1D2",
"!+	c #040505",
"~+	c #FDFFFF",
"{+	c #CECFCF",
"]+	c #EFF1F0",
"^+	c #E6E8E7",
"/+	c #E2E4E3",
"(+	c #DADCDB",
"_+	c #FDFFFD",
":+	c #DADBDA",
"<+	c #D3D4D3",
"[+	c #EEF0ED",
"}+	c #D1D3D0",
"|+	c #CDCFCC",
"1+	c #D6D9D3",
"2+	c #D8D9D7",
"3+	c #D0D2CD",
"4+	c #FBFDF8",
"5+	c #C9CAC6",
"6+	c #050503",
"7+	c #757573",
"8+	c #F9F9F6",
"9+	c #FFFFFD",
"0+	c #DEDEDC",
"a+	c #D7D7D5",
"b+	c #FEFDFC",
"c+	c #FDFCFB",
"d+	c #F3F2F2",
"e+	c #EDECEC",
"f+	c #FFFFFF",
"g+	c #FBFBFB",
"h+	c #F9F9F9",
"i+	c #F6F6F6",
"j+	c #F5F5F5",
"k+	c #F0F0F0",
"l+	c #EEEEEE",
"m+	c #EAEAEA",
"n+	c #E9E9E9",
"o+	c #E7E7E7",
"p+	c #E4E4E4",
"q+	c #E2E2E2",
"r+	c #DFDFDF",
"s+	c #DCDCDC",
"t+	c #D8D8D8",
"u+	c #D6D6D6",
"v+	c #D4D4D4",
"w+	c #D3D3D3",
"x+	c #D1D1D1",
"y+	c #CACACA",
"z+	c #C1C1C1",
"A+	c #BFBFBF",
"B+	c #B8B8B8",
"C+	c #A2A2A2",
"D+	c #8D8D8D",
"E+	c #7B7B7B",
"F+	c #0A0A0A",
"G+	c #000000",
"f+f+f+f+f+f+f+f+v+@ @ y+p+f+~+f+f+f+f+f+f+f+f+",
"f+f+f+f+_+|.z.,.&.v.x.H =.,.T.~+  f+f+f+f+f+f+",
"f+f+f+f+T.R.u.>.K K 1.J T O A |.  f+~+f+f+f+f+",
"f+f+f+~+C !.>.] } 1 ] g.g.#+^.c f+f+f+  f+f+f+",
"f+f+f+i+c j P.{ { ~ ) Z =+i.T j k+f+f+f+f+f+f+",
"f+f+f+4.~.O j.e.D.C.D.E.f.f.k.2.E ~+9+f+f+f+f+",
"f+f+f+5.%.O g.G.C.c.F.f.h.j.l.h.(.~+9+f+f+f+f+",
"f+f+f+R c U 2.F.D.i.H.k.k.o.2.M.[.~+9+f+f+f+f+",
"f+f+f+9.g C $+d.p.I.#+m.p.l.i.(.z ~+9+f+f+f+f+",
"  f+f+^+5 R B.Z.)+&+ +E P :.L g . f+f+f+f+f+f+",
"f+f+i+U.,.}.r.9.7.3.6.Q C ^.<.f f+g+f+f+f+f+f+",
"f+  n+Y...B.H 9.Q 3.J.^.).F q > f+f+  f+f+f+f+",
"f+  p+>+}+#.[.L.0.R r.z 1.w ].> f+f+f+  f+f+f+",
"~+g++.X.1+>+q.x h f h n %.N >.~+f+  f+f+f+f+f+",
"  f+n+t+w+v+u+<+:+s+0+3+2+#.i i f+  f+c+f+f+f+",
"f+f+. n+:+u+v+v+<+'+<+2+<++ & ^ _ ;+. . f+f+f+",
"f+f+f+g+k+o+q++.(+s+q+@.;+o+y+%+r v f+> f+f+f+",
"f+f+~+~+g++ k+e+o+e+k+=+U.+.9+6+%+V l.f+f+f+f+",
"f+f+f+f+f+f+f+f+f+f+f+f+g++.+.u+G+!+- # ~+  f+",
"f+f+f+f+f+f+f+f+f+f+f+~+  g+/++.n %+9 : f+f+g+",
"f+f+f+f+f+f+f+f+f+f+f+f+f+~+  m+p+#.%+n z+~+f+",
"f+f+f+f+f+f+f+f+f+f+f+  f+f+f+  + e+r 8 : f+f+",
"f+f+f+f+f+f+f+f+f+f+f+f+f+f+f+f+f+g+j+<+f+f+f+"};
