/* XPM */
static char * i_open_xpm[] = {
"23 23 352 2",
"  	c #D4D0C4",
". 	c #D3D0C4",
"+ 	c #D2D1C4",
"@ 	c #D1D1C5",
"# 	c #D2D0C5",
"$ 	c #D2D0C4",
"% 	c #D1CFC3",
"& 	c #D3CFC4",
"* 	c #D3CFC5",
"= 	c #D4D0C5",
"- 	c #D4CFC4",
"; 	c #D8D3C7",
"> 	c #D8D3C8",
", 	c #DAD5C9",
"' 	c #D2CEC4",
") 	c #D2CFC4",
"! 	c #D2D0C3",
"~ 	c #D5D1C8",
"{ 	c #D4D0C8",
"] 	c #D3D0CA",
"^ 	c #D5D2CC",
"/ 	c #D6D1C6",
"( 	c #D6D0C6",
"_ 	c #D5D0C6",
": 	c #D5D0C7",
"< 	c #D5D1CB",
"[ 	c #D4D1C6",
"} 	c #D5D1C9",
"| 	c #D5D1C6",
"1 	c #D5D1C7",
"2 	c #D5D2C9",
"3 	c #93908A",
"4 	c #86837D",
"5 	c #93918B",
"6 	c #D5D0CA",
"7 	c #D5D0CC",
"8 	c #D3CFC8",
"9 	c #D3CFC7",
"0 	c #D6D1C9",
"a 	c #D6D2C9",
"b 	c #D5D1CC",
"c 	c #D6D2CC",
"d 	c #D6D0C8",
"e 	c #D4D1C7",
"f 	c #D5D2C8",
"g 	c #D4D1C8",
"h 	c #D4D0C6",
"i 	c #D4D0C7",
"j 	c #D4D0C9",
"k 	c #94908A",
"l 	c #B3B1AB",
"m 	c #CAC8C2",
"n 	c #B1AFA9",
"o 	c #999791",
"p 	c #848280",
"q 	c #B1AEAA",
"r 	c #D8D5CB",
"s 	c #D3D0C9",
"t 	c #D5D1C5",
"u 	c #BAB6A4",
"v 	c #ACA692",
"w 	c #A9A38A",
"x 	c #A7A088",
"y 	c #A69F87",
"z 	c #A39C84",
"A 	c #B0AA97",
"B 	c #C7C3BD",
"C 	c #8B8680",
"D 	c #DBD7CE",
"E 	c #75736F",
"F 	c #343534",
"G 	c #B1B2A9",
"H 	c #D3D2CA",
"I 	c #D6D0CA",
"J 	c #BBB6A4",
"K 	c #DEDAB1",
"L 	c #EEEABC",
"M 	c #EBE7AF",
"N 	c #EAE3AA",
"O 	c #E7DDA3",
"P 	c #E3D79D",
"Q 	c #C8BD8E",
"R 	c #ADA690",
"S 	c #D6D0C9",
"T 	c #D6D1C7",
"U 	c #D4CFC9",
"V 	c #C1C0B7",
"W 	c #858581",
"X 	c #797975",
"Y 	c #BFBCB6",
"Z 	c #D6D3CC",
"` 	c #D7D2CB",
" .	c #ACA78D",
"..	c #F8F4BC",
"+.	c #F3EEAA",
"@.	c #F3EDA7",
"#.	c #F0E9A0",
"$.	c #EDE296",
"%.	c #E7DA8D",
"&.	c #DFD184",
"*.	c #C2B57A",
"=.	c #ABA58C",
"-.	c #C3C2B8",
";.	c #C6C0B5",
">.	c #C7C1B6",
",.	c #C7C0B7",
"'.	c #C8C1B8",
").	c #C5C1B7",
"!.	c #C4C0BB",
"~.	c #C6C1B9",
"{.	c #D2D1C7",
"].	c #D8D6CB",
"^.	c #D6D1C4",
"/.	c #D4D1C4",
"(.	c #D7D4CA",
"_.	c #A7A287",
":.	c #F9F2B9",
"<.	c #F4ECA8",
"[.	c #F4E99E",
"}.	c #F1E595",
"|.	c #EFE08B",
"1.	c #EADB82",
"2.	c #E0D377",
"3.	c #DCC973",
"4.	c #C6B468",
"5.	c #AC9E63",
"6.	c #B1A364",
"7.	c #B3A262",
"8.	c #B2A05E",
"9.	c #B09B5A",
"0.	c #AB9A51",
"a.	c #A79353",
"b.	c #857846",
"c.	c #A5A49B",
"d.	c #D7D3CC",
"e.	c #D6D3CB",
"f.	c #A59F84",
"g.	c #F5EDAD",
"h.	c #F3E99D",
"i.	c #F4E695",
"j.	c #F0E08D",
"k.	c #EEDD83",
"l.	c #EBD87A",
"m.	c #E8D271",
"n.	c #E3CC67",
"o.	c #E0C85F",
"p.	c #DFC857",
"q.	c #DDC34E",
"r.	c #DABE44",
"s.	c #D8B93B",
"t.	c #D6B333",
"u.	c #D3B129",
"v.	c #CEAA26",
"w.	c #947F23",
"x.	c #999691",
"y.	c #DAD7CD",
"z.	c #D1D0C8",
"A.	c #D6D3CA",
"B.	c #A69E83",
"C.	c #F4E9A8",
"D.	c #ECE098",
"E.	c #AFA365",
"F.	c #A09156",
"G.	c #9F9053",
"H.	c #9F8F4F",
"I.	c #A08D4D",
"J.	c #9E8C49",
"K.	c #9C8A44",
"L.	c #9B8842",
"M.	c #9C8640",
"N.	c #9A843C",
"O.	c #988338",
"P.	c #988132",
"Q.	c #977E30",
"R.	c #967F2E",
"S.	c #807134",
"T.	c #837B63",
"U.	c #8F8D7A",
"V.	c #C3BEB4",
"W.	c #D3D1CA",
"X.	c #D5D2CB",
"Y.	c #A69F7C",
"Z.	c #F3E8A5",
"`.	c #BEB16A",
" +	c #C0B982",
".+	c #E6E2A0",
"++	c #E5E1A0",
"@+	c #E6E2A1",
"#+	c #E7E1A2",
"$+	c #E7E1A3",
"%+	c #E7E1A5",
"&+	c #E7E0A5",
"*+	c #E7E2A2",
"=+	c #E5E2A0",
"-+	c #E6E2A3",
";+	c #E0D6A1",
">+	c #CFCA92",
",+	c #7B7C5D",
"'+	c #AAA69D",
")+	c #D5D4CB",
"!+	c #D5D3CE",
"~+	c #A49B81",
"{+	c #F0E596",
"]+	c #B7A564",
"^+	c #D1C583",
"/+	c #F5EB9C",
"(+	c #F4E89F",
"_+	c #F3E89D",
":+	c #F3E89E",
"<+	c #F3E89C",
"[+	c #F4E99B",
"}+	c #F3E99B",
"|+	c #F2E99B",
"1+	c #F2E99C",
"2+	c #F4E89D",
"3+	c #F2E89D",
"4+	c #F2E99F",
"5+	c #EEE19D",
"6+	c #D2CC8D",
"7+	c #727455",
"8+	c #B0ABA6",
"9+	c #D6D4C9",
"0+	c #A29A79",
"a+	c #E3D68E",
"b+	c #9C8851",
"c+	c #EFE492",
"d+	c #EEE189",
"e+	c #EDDC8E",
"f+	c #EFDE8A",
"g+	c #EEDF8A",
"h+	c #EEDF8B",
"i+	c #EEDF89",
"j+	c #EDDF88",
"k+	c #ECDF87",
"l+	c #EDDD88",
"m+	c #E9D887",
"n+	c #BFB675",
"o+	c #5D5B58",
"p+	c #DED9CD",
"q+	c #D3D0C5",
"r+	c #D5D3CF",
"s+	c #A29A76",
"t+	c #E2D681",
"u+	c #968248",
"v+	c #F1DD7D",
"w+	c #E8D575",
"x+	c #E8D475",
"y+	c #E7D673",
"z+	c #EAD476",
"A+	c #E9D677",
"B+	c #DCC771",
"C+	c #B3A862",
"D+	c #575852",
"E+	c #E1D8D2",
"F+	c #D3D2C5",
"G+	c #D5D3CC",
"H+	c #A69C79",
"I+	c #B6A95D",
"J+	c #C0A951",
"K+	c #E6CE62",
"L+	c #E2C95E",
"M+	c #E4CB60",
"N+	c #E5CC60",
"O+	c #E4CC62",
"P+	c #E4CA60",
"Q+	c #E2CB60",
"R+	c #D7C060",
"S+	c #746838",
"T+	c #A09F9A",
"U+	c #DAD3CD",
"V+	c #D2D1C5",
"W+	c #D6D5C9",
"X+	c #A89C78",
"Y+	c #9C8C55",
"Z+	c #DBC24A",
"`+	c #DEC14E",
" @	c #DFC14E",
".@	c #E0C24F",
"+@	c #DEC24E",
"@@	c #DEC14D",
"#@	c #DAC24B",
"$@	c #CDB54F",
"%@	c #4B4424",
"&@	c #CFCBC8",
"*@	c #D3CEC9",
"=@	c #A19772",
"-@	c #9F8F4B",
";@	c #D4B43C",
">@	c #D8BA3A",
",@	c #D8B93A",
"'@	c #D8B939",
")@	c #D9B839",
"!@	c #DBB838",
"~@	c #D4B33D",
"{@	c #B89D37",
"]@	c #534C34",
"^@	c #CECAC0",
"/@	c #D3D0C8",
"(@	c #D4D1C5",
"_@	c #887E6A",
":@	c #B0973D",
"<@	c #D6AE24",
"[@	c #D4AE24",
"}@	c #D4AE23",
"|@	c #D4AD24",
"1@	c #D4AD22",
"2@	c #D3B021",
"3@	c #C9A728",
"4@	c #7E6B18",
"5@	c #8A8684",
"6@	c #D9D5CD",
"7@	c #D4D3C9",
"8@	c #8A7C67",
"9@	c #B09538",
"0@	c #CAA318",
"a@	c #C79F17",
"b@	c #C79F16",
"c@	c #C79F15",
"d@	c #C79E15",
"e@	c #C69E16",
"f@	c #C29D16",
"g@	c #B48E15",
"h@	c #705A11",
"i@	c #8C8886",
"j@	c #DAD6CD",
"k@	c #D5D2CA",
"l@	c #7F775A",
"m@	c #67582F",
"n@	c #5E4D22",
"o@	c #56481A",
"p@	c #564819",
"q@	c #564818",
"r@	c #564817",
"s@	c #564719",
"t@	c #514615",
"u@	c #4D4013",
"v@	c #554A33",
"w@	c #B9B8B5",
"x@	c #D7D3CA",
"y@	c #CBC5BD",
"z@	c #C3BFBE",
"A@	c #BFC1B9",
"B@	c #C1BFB9",
"C@	c #C1BFB8",
"D@	c #C1BFB7",
"E@	c #C2BEBB",
"F@	c #BFBFBB",
"G@	c #C0BFB8",
"H@	c #CAC3BD",
"I@	c #D6D3C8",
"J@	c #C7C4BC",
"K@	c #C8C4BC",
"  . + @ # # # $ % . & * = & = - ; > , - ' ) ! ",
"~ { ] ^ / ( _ : < = [ } | | 1 2 3 4 5 2 6 7 | ",
"8 9 0 a b b c < d e f g h i j k l m n o p q r ",
"s t u v w x y z A { s # h 0 B C D h r E F G H ",
"I J K L M N O P Q R S 0 T f e $ U f V W X Y Z ",
"`  ...+.@.#.$.%.&.*.=.-.;.>.,.'.).!.~.{.].^./.",
"(._.:.<.[.}.|.1.2.3.4.5.6.7.8.9.0.a.b.c.d.T } ",
"e.f.g.h.i.j.k.l.m.n.o.p.q.r.s.t.u.v.w.x.y.i z.",
"A.B.C.D.E.F.G.H.I.J.K.L.M.N.O.P.Q.R.S.T.U.V.W.",
"X.Y.Z.`. +.+++@+#+$+%+&+*+*+*+$+=+-+;+>+,+'+)+",
"!+~+{+]+^+/+(+_+:+<+[+}+|+1+1+2+3+4+5+6+7+8+9+",
")+0+a+b+c+d+e+f+g+g+h+h+h+g+i+j+k+l+m+n+o+p+q+",
"r+s+t+u+v+w+x+w+w+w+w+w+w+w+w+y+z+A+B+C+D+E+F+",
"G+H+I+J+K+L+M+M+N+N+N+N+N+N+N+O+P+Q+R+S+T+U+V+",
"W+X+Y+Z+`+ @`+.@ @ @ @ @ @ @ @+@@@#@$@%@&@*@g ",
"f =@-@;@>@,@'@'@'@'@'@'@'@'@'@)@!@~@{@]@^@/@(@",
"g _@:@<@[@[@}@}@|@|@|@[@[@[@}@1@2@3@4@5@6@= i ",
"7@8@9@0@a@b@c@c@b@b@b@b@c@c@d@e@f@g@h@i@j@& ~ ",
"k@l@m@n@o@p@p@p@p@p@p@q@r@q@p@s@t@u@v@w@x@| i ",
"i y@z@A@B@B@B@B@C@C@C@C@D@C@B@E@F@G@H@I@~ h i ",
"i i ~ ~ i i i i i i i i i i i i ~ a ~ i i i i ",
"i ~ ~ ~ h h h h h h h h h h h = | | = = = = = ",
"J@J@J@J@J@J@J@J@J@J@J@J@J@J@J@J@J@J@J@K@J@J@J@"};
