/* XPM */
static char * raw3_xpm[] = {
"23 23 256 2",
"  	c #FAFB00",
". 	c #E5E600",
"+ 	c #C8C900",
"@ 	c #BBBC00",
"# 	c #7D7D00",
"$ 	c #FFFFFF",
"% 	c #F7F7F7",
"& 	c #EDEDED",
"* 	c #E4E4E4",
"= 	c #D4D4D4",
"- 	c #C4C4C4",
"; 	c #BCBCBC",
"> 	c #A2A2A2",
", 	c #9C9C9C",
"' 	c #929292",
") 	c #878787",
"! 	c #7F7F7F",
"~ 	c #747474",
"{ 	c #656565",
"] 	c #585858",
"^ 	c #4E4E4E",
"/ 	c #454545",
"( 	c #404040",
"_ 	c #3C3C3C",
": 	c #343434",
"< 	c #2D2D2D",
"[ 	c #262626",
"} 	c #222222",
"| 	c #161616",
"1 	c #0C0C0C",
"2 	c #040404",
"3 	c #000000",
"4 	c #000000",
"5 	c #000000",
"6 	c #000000",
"7 	c #000000",
"8 	c #000000",
"9 	c #000000",
"0 	c #000000",
"a 	c #000000",
"b 	c #000000",
"c 	c #000000",
"d 	c #000000",
"e 	c #000000",
"f 	c #000000",
"g 	c #000000",
"h 	c #000000",
"i 	c #000000",
"j 	c #000000",
"k 	c #000000",
"l 	c #000000",
"m 	c #000000",
"n 	c #000000",
"o 	c #000000",
"p 	c #000000",
"q 	c #000000",
"r 	c #000000",
"s 	c #000000",
"t 	c #000000",
"u 	c #000000",
"v 	c #000000",
"w 	c #000000",
"x 	c #000000",
"y 	c #000000",
"z 	c #000000",
"A 	c #000000",
"B 	c #000000",
"C 	c #000000",
"D 	c #000000",
"E 	c #000000",
"F 	c #000000",
"G 	c #000000",
"H 	c #000000",
"I 	c #000000",
"J 	c #000000",
"K 	c #000000",
"L 	c #000000",
"M 	c #000000",
"N 	c #000000",
"O 	c #000000",
"P 	c #000000",
"Q 	c #000000",
"R 	c #000000",
"S 	c #000000",
"T 	c #000000",
"U 	c #000000",
"V 	c #000000",
"W 	c #000000",
"X 	c #000000",
"Y 	c #000000",
"Z 	c #000000",
"` 	c #000000",
" .	c #000000",
"..	c #000000",
"+.	c #000000",
"@.	c #000000",
"#.	c #000000",
"$.	c #000000",
"%.	c #000000",
"&.	c #000000",
"*.	c #000000",
"=.	c #000000",
"-.	c #000000",
";.	c #000000",
">.	c #000000",
",.	c #000000",
"'.	c #000000",
").	c #000000",
"!.	c #000000",
"~.	c #000000",
"{.	c #000000",
"].	c #000000",
"^.	c #000000",
"/.	c #000000",
"(.	c #000000",
"_.	c #000000",
":.	c #000000",
"<.	c #000000",
"[.	c #000000",
"}.	c #000000",
"|.	c #000000",
"1.	c #000000",
"2.	c #000000",
"3.	c #000000",
"4.	c #000000",
"5.	c #000000",
"6.	c #000000",
"7.	c #000000",
"8.	c #000000",
"9.	c #000000",
"0.	c #000000",
"a.	c #000000",
"b.	c #000000",
"c.	c #000000",
"d.	c #000000",
"e.	c #000000",
"f.	c #000000",
"g.	c #000000",
"h.	c #000000",
"i.	c #000000",
"j.	c #000000",
"k.	c #000000",
"l.	c #000000",
"m.	c #000000",
"n.	c #000000",
"o.	c #000000",
"p.	c #000000",
"q.	c #000000",
"r.	c #000000",
"s.	c #000000",
"t.	c #000000",
"u.	c #000000",
"v.	c #000000",
"w.	c #000000",
"x.	c #000000",
"y.	c #000000",
"z.	c #000000",
"A.	c #000000",
"B.	c #000000",
"C.	c #000000",
"D.	c #000000",
"E.	c #000000",
"F.	c #000000",
"G.	c #000000",
"H.	c #000000",
"I.	c #000000",
"J.	c #000000",
"K.	c #000000",
"L.	c #000000",
"M.	c #000000",
"N.	c #000000",
"O.	c #000000",
"P.	c #000000",
"Q.	c #000000",
"R.	c #000000",
"S.	c #000000",
"T.	c #000000",
"U.	c #000000",
"V.	c #000000",
"W.	c #000000",
"X.	c #000000",
"Y.	c #000000",
"Z.	c #000000",
"`.	c #000000",
" +	c #000000",
".+	c #000000",
"++	c #000000",
"@+	c #000000",
"#+	c #000000",
"$+	c #000000",
"%+	c #000000",
"&+	c #000000",
"*+	c #000000",
"=+	c #000000",
"-+	c #000000",
";+	c #000000",
">+	c #000000",
",+	c #000000",
"'+	c #000000",
")+	c #000000",
"!+	c #000000",
"~+	c #000000",
"{+	c #000000",
"]+	c #000000",
"^+	c #000000",
"/+	c #000000",
"(+	c #000000",
"_+	c #000000",
":+	c #000000",
"<+	c #000000",
"[+	c #000000",
"}+	c #000000",
"|+	c #000000",
"1+	c #000000",
"2+	c #000000",
"3+	c #000000",
"4+	c #000000",
"5+	c #000000",
"6+	c #000000",
"7+	c #000000",
"8+	c #000000",
"9+	c #000000",
"0+	c #000000",
"a+	c #000000",
"b+	c #000000",
"c+	c #000000",
"d+	c #000000",
"e+	c #000000",
"f+	c #000000",
"g+	c #000000",
"h+	c #000000",
"i+	c #000000",
"j+	c #000000",
"k+	c #000000",
"l+	c #000000",
"m+	c #000000",
"n+	c #000000",
"o+	c #000000",
"p+	c #000000",
"q+	c #000000",
"r+	c #000000",
"s+	c #000000",
"t+	c #000000",
"u+	c #000000",
"v+	c #000000",
"w+	c #000000",
"x+	c #000000",
"y+	c #000000",
"z+	c #000000",
"A+	c #000000",
"B+	c #000000",
"C+	c #000000",
"D+	c #000000",
"E+	c #000000",
"F+	c #000000",
"G+	c #000000",
"                                              ",
"  $ $ $ $ $ $ $ $ $ $ $ $ $ $ $ $ $ $ $ $ $   ",
"  $ $ $ $ $ $ $ $ $ $ $ $ $ $ $ $ $ $ $ $ $   ",
"  ; ! ! ! ! ' & $ $ $ $ $ $ $ $ $ $ $ $ $ $   ",
"  ; ! ! ! ! ' & $ $ $ $ $ $ $ $ $ $ $ $ $ $   ",
"  ! } ! ! ! } : $ $ $ $ $ $ $ $ $ $ $ $ $ $   ",
"  ! / $ $ $ > 2 % ^ 2 1 1 ! > | $ : ] ] & 3 + ",
"  ! } ! ! ! [ { = { & , , 3 * 3 = [ < < ; |   ",
"  ! } ! ! ! < _ * ( < _ _ 3 $ < ~ ] < < ~ ]   ",
"  ! / $ $ $ > 3 ) : $ , , 3 $ ~ | ' ] ] | >   ",
"  ! / $ $ $ ; 3 ; | [ ] ] 3 & ; 3 - ' ' 3 *   ",
"@ ! ! ) ) ; $ $ $ $ $ $ $ $ - & $ $ $ $ $ $   ",
"@ ! ! ) ) ; $ $ $ $ $ $ $ $ - & $ $ $ $ $ $   ",
"# } ! ~ ~ 2 , $ $ $ $ $ $ $ 3 - $ $ $ $ $ $   ",
"# / $ $ $ ~ [ % ^ 2 1 ! ! ~ 3 | % ^ 2 2 1 !   ",
"# / $ $ $ > 3 = { & , 3 3 $ 3 - = { & & , 3   ",
"# / $ $ $ ' | * ( < _ 3 3 $ 3 - * ( < < _ 3   ",
"# / $ & & [ { ) : $ , 3 3 $ 3 ; ) : $ $ , 3   ",
"# 3 3 2 2 ^ & = | [ ] 3 3 & : 3 = | [ [ ] 3 . ",
"# 3 3 2 2 ^ & = | [ ] 3 3 & : 3 = | [ [ ] 3 . ",
"  $ $ $ $ $ $ $ $ $ $ $ $ $ $ $ $ $ $ $ $ $   ",
"  $ $ $ $ $ $ $ $ $ $ $ $ $ $ $ $ $ $ $ $ $   ",
"                                              "};
