/* XPM */
static char * stop_xpm[] = {
"22 23 256 2",
"  	c #264C71",
". 	c #E23F24",
"+ 	c #F2EBE5",
"@ 	c #316294",
"# 	c #DF1122",
"$ 	c #E05C37",
"% 	c #2D5986",
"& 	c #1D3A57",
"* 	c #EEB895",
"= 	c #E78E63",
"- 	c #E13322",
"; 	c #E12124",
"> 	c #DF002B",
", 	c #FFFFFF",
"' 	c #E02421",
") 	c #FFFFFF",
"! 	c #000000",
"~ 	c #000000",
"{ 	c #000000",
"] 	c #000000",
"^ 	c #000000",
"/ 	c #000000",
"( 	c #000000",
"_ 	c #000000",
": 	c #000000",
"< 	c #000000",
"[ 	c #000000",
"} 	c #000000",
"| 	c #000000",
"1 	c #000000",
"2 	c #000000",
"3 	c #000000",
"4 	c #000000",
"5 	c #000000",
"6 	c #000000",
"7 	c #000000",
"8 	c #000000",
"9 	c #000000",
"0 	c #000000",
"a 	c #000000",
"b 	c #000000",
"c 	c #000000",
"d 	c #000000",
"e 	c #000000",
"f 	c #000000",
"g 	c #000000",
"h 	c #000000",
"i 	c #000000",
"j 	c #000000",
"k 	c #000000",
"l 	c #000000",
"m 	c #000000",
"n 	c #000000",
"o 	c #000000",
"p 	c #000000",
"q 	c #000000",
"r 	c #000000",
"s 	c #000000",
"t 	c #000000",
"u 	c #000000",
"v 	c #000000",
"w 	c #000000",
"x 	c #000000",
"y 	c #000000",
"z 	c #000000",
"A 	c #000000",
"B 	c #000000",
"C 	c #000000",
"D 	c #000000",
"E 	c #000000",
"F 	c #000000",
"G 	c #000000",
"H 	c #000000",
"I 	c #000000",
"J 	c #000000",
"K 	c #000000",
"L 	c #000000",
"M 	c #000000",
"N 	c #000000",
"O 	c #000000",
"P 	c #000000",
"Q 	c #000000",
"R 	c #000000",
"S 	c #000000",
"T 	c #000000",
"U 	c #000000",
"V 	c #000000",
"W 	c #000000",
"X 	c #000000",
"Y 	c #000000",
"Z 	c #000000",
"` 	c #000000",
" .	c #000000",
"..	c #000000",
"+.	c #000000",
"@.	c #000000",
"#.	c #000000",
"$.	c #000000",
"%.	c #000000",
"&.	c #000000",
"*.	c #000000",
"=.	c #000000",
"-.	c #000000",
";.	c #000000",
">.	c #000000",
",.	c #000000",
"'.	c #000000",
").	c #000000",
"!.	c #000000",
"~.	c #000000",
"{.	c #000000",
"].	c #000000",
"^.	c #000000",
"/.	c #000000",
"(.	c #000000",
"_.	c #000000",
":.	c #000000",
"<.	c #000000",
"[.	c #000000",
"}.	c #000000",
"|.	c #000000",
"1.	c #000000",
"2.	c #000000",
"3.	c #000000",
"4.	c #000000",
"5.	c #000000",
"6.	c #000000",
"7.	c #000000",
"8.	c #000000",
"9.	c #000000",
"0.	c #000000",
"a.	c #000000",
"b.	c #000000",
"c.	c #000000",
"d.	c #000000",
"e.	c #000000",
"f.	c #000000",
"g.	c #000000",
"h.	c #000000",
"i.	c #000000",
"j.	c #000000",
"k.	c #000000",
"l.	c #000000",
"m.	c #000000",
"n.	c #000000",
"o.	c #000000",
"p.	c #000000",
"q.	c #000000",
"r.	c #000000",
"s.	c #000000",
"t.	c #000000",
"u.	c #000000",
"v.	c #000000",
"w.	c #000000",
"x.	c #000000",
"y.	c #000000",
"z.	c #000000",
"A.	c #000000",
"B.	c #000000",
"C.	c #000000",
"D.	c #000000",
"E.	c #000000",
"F.	c #000000",
"G.	c #000000",
"H.	c #000000",
"I.	c #000000",
"J.	c #000000",
"K.	c #000000",
"L.	c #000000",
"M.	c #000000",
"N.	c #000000",
"O.	c #000000",
"P.	c #000000",
"Q.	c #000000",
"R.	c #000000",
"S.	c #000000",
"T.	c #000000",
"U.	c #000000",
"V.	c #000000",
"W.	c #000000",
"X.	c #000000",
"Y.	c #000000",
"Z.	c #000000",
"`.	c #000000",
" +	c #000000",
".+	c #000000",
"++	c #000000",
"@+	c #000000",
"#+	c #000000",
"$+	c #000000",
"%+	c #000000",
"&+	c #000000",
"*+	c #000000",
"=+	c #000000",
"-+	c #000000",
";+	c #000000",
">+	c #000000",
",+	c #000000",
"'+	c #000000",
")+	c #000000",
"!+	c #000000",
"~+	c #000000",
"{+	c #000000",
"]+	c #000000",
"^+	c #000000",
"/+	c #000000",
"(+	c #000000",
"_+	c #000000",
":+	c #000000",
"<+	c #000000",
"[+	c #000000",
"}+	c #000000",
"|+	c #000000",
"1+	c #000000",
"2+	c #000000",
"3+	c #000000",
"4+	c #000000",
"5+	c #000000",
"6+	c #000000",
"7+	c #000000",
"8+	c #000000",
"9+	c #000000",
"0+	c #000000",
"a+	c #000000",
"b+	c #000000",
"c+	c #000000",
"d+	c #000000",
"e+	c #000000",
"f+	c #000000",
"g+	c #000000",
"h+	c #000000",
"i+	c #000000",
"j+	c #000000",
"k+	c #000000",
"l+	c #000000",
"m+	c #000000",
"n+	c #000000",
"o+	c #000000",
"p+	c #000000",
"q+	c #000000",
"r+	c #000000",
"s+	c #000000",
"t+	c #000000",
"u+	c #000000",
"v+	c #000000",
"w+	c #000000",
"x+	c #000000",
"y+	c #000000",
"z+	c #000000",
"A+	c #000000",
"B+	c #000000",
"C+	c #000000",
"D+	c #000000",
"E+	c #000000",
"F+	c #000000",
"G+	c #000000",
") ) ) ) ) > > > > > > > > > @ @ ) ) ) ) ) ) ",
") ) ) ) > ; ; ; ; ; ; ; ; - > % @ ) ) ) ) ) ",
") ) ) > . ' ' ' ' ' ' ' ' ' . > @ @ ) ) ) ) ",
") ) > - ' ' ' ' ' ' ' ' ' ' ' - % @ @ ) ) ) ",
") > - ' ' ' ' ' ' ' ' ' ' ' ' ' > % @ @ ) ) ",
"> . ' ' ' ' ' ' ' ' ' ' ' ' ' ' ; > % @ @ ) ",
"- ' ; ; ' ; ; ; ; ' ' ; ' ' ' ; ' ; >   % @ ",
"- . > > ; > > > > - > > ; ' > > > ; >   % @ ",
". > , , + , , , , > , , + > , , , > > & % @ ",
". + , > > > + , > + , > , $ , * , > > &   @ ",
"' > ; , , - , , # + , > , = , , , > > & % @ ",
"- > , , , ' , , > > , , , > , , - ; > &   @ ",
"- - > > - ' > > ' ; ' > - ; > > ' ; > &   @ ",
"- ' ' ; ' ' ' ' ' ' ' ; ' ' ' ' ' ; > &   @ ",
". ' ' ' ' ' ' ' ' ' ' ' ' ' ' ' ' # > &   @ ",
"- . ' ' ' ' ' ' ' ' ' ' ' ' ' ' # > & &   @ ",
"% > . ' ' ' ' ' ' ' ' ' ' ' ' ' > & &   % @ ",
"@ %   > ' ' ' ' ' ' ' ' ' ' ' > & & &   % @ ",
"@ @ %   > - - - - - - - - - > & & &   % @ ) ",
") @ @ %   ' # # # # # # # > & & &   % @ ) ) ",
") ) @ @ %   & & & & & & & & & &   % @ ) ) ) ",
") ) ) @ @ %                     % @ ) ) ) ) ",
") ) ) ) @ @ % % % % % % % % % % @ ) ) ) ) ) "};
