/* XPM */
static char * CoaxialIcon_xpm[] = {
"16 16 65 1",
" 	c None",
".	c #1B1A1A",
"+	c #292727",
"@	c #201F1F",
"#	c #1D1C1C",
"$	c #272626",
"%	c #777373",
"&	c #A49E9E",
"*	c #B4AEAE",
"=	c #9E9999",
"-	c #6C6868",
";	c #232222",
">	c #353333",
",	c #ACA6A6",
"'	c #A7A1A1",
")	c #282727",
"!	c #2B2A2A",
"~	c #AFA9A9",
"{	c #A6A1A1",
"]	c #222121",
"^	c #827E7E",
"/	c #C0B39A",
"(	c #C7AB5E",
"_	c #B39C5B",
":	c #ADA290",
"<	c #646060",
"[	c #1F1E1E",
"}	c #C2B9AF",
"|	c #EFD893",
"1	c #D3A828",
"2	c #AE8A1F",
"3	c #8B6E22",
"4	c #A69C92",
"5	c #989393",
"6	c #333131",
"7	c #D3B86F",
"8	c #E4BB3F",
"9	c #C39B22",
"0	c #A2801B",
"a	c #7C611B",
"b	c #897A67",
"c	c #2D2C2C",
"d	c #312F2F",
"e	c #C9AD5E",
"f	c #C9A024",
"g	c #AF8A1E",
"h	c #8E7019",
"i	c #705722",
"j	c #897B71",
"k	c #292828",
"l	c #B6A991",
"m	c #AC8A26",
"n	c #93741B",
"o	c #785D1F",
"p	c #6E5A41",
"q	c #A59D9D",
"r	c #ACA190",
"s	c #92805C",
"t	c #8A7B68",
"u	c #A59C9B",
"v	c #242323",
"w	c #747070",
"x	c #696666",
"y	c #2A2828",
"z	c #211F1F",
"                ",
"      .+@#      ",
"    $%&**=-;    ",
"   >,******')   ",
"  !~********{]  ",
"  ^***/(_:***<  ",
" [~**}|1234**5  ",
" 6***7890ab***c ",
" d***efghij***k ",
" [~**lmnopq**5  ",
"  ^***rstu***<  ",
"  !~********{]  ",
"   >,******')   ",
"    vw=**5x@    ",
"      ]y;z      ",
"                "};
