/* XPM */
static char * ConsoleIcon_xpm[] = {
"16 16 3 1",
" 	c None",
".	c #000000",
"+	c #4D4D4D",
"                ",
"                ",
"................",
".++++++++++++++.",
".++++++++++++++.",
".++++++++++++++.",
".++++++++++++++.",
".++++++++++++++.",
".++++++++++++++.",
".++++++++++++++.",
".++++++++++++++.",
".++++++++++++++.",
".++++++++++++++.",
".....++++++.....",
"    .++++++.    ",
"    ........    "};
