/* XPM */
static char * FiberFastEthernetIcon_xpm[] = {
"16 16 4 1",
" 	c None",
".	c #000000",
"+	c #FFFFFF",
"@	c #F8CA24",
"                ",
"                ",
"................",
".+....++++....+.",
"...@@..++..@@...",
"..@@@@.++.@@@@..",
"..@@@@.++.@@@@..",
"...@@..++..@@...",
".+....++++....+.",
"................",
"                ",
"                ",
"                ",
"                ",
"                ",
"                "};
