/* XPM */
static char * InUseIcon_xpm[] = {
"16 16 4 1",
" 	c None",
".	c #000000",
"+	c #CCCCCC",
"@	c #E81414",
"                ",
"                ",
"................",
".++++@++++@++++.",
".+++@++++@++++@.",
".++@++++@++++@+.",
".+@++++@++++@++.",
".@++++@++++@+++.",
".++++@++++@++++.",
".+++@++++@++++@.",
".++@++++@++++@+.",
".+@++++@++++@++.",
".@++++@++++@+++.",
".....@++++@.....",
"    .++++@+.    ",
"    ........    "};
